<?xml version="1.0" encoding="utf-8"?>
<!-- Generator: Adobe Illustrator 25.4.1, SVG Export Plug-In . SVG Version: 6.00 Build 0)  -->
<svg version="1.1" id="Layer_1" xmlns="http://www.w3.org/2000/svg" xmlns:xlink="http://www.w3.org/1999/xlink" x="0px" y="0px"
	 viewBox="0 0 24 24" style="enable-background:new 0 0 24 24;" xml:space="preserve">
<g>
	<path d="M18.8,0.9H10c-0.1,0-0.2,0-0.3,0.1C9.6,0.9,9.6,1,9.5,1L4.8,5.8C4.7,5.8,4.7,5.9,4.6,6c0,0.1-0.1,0.2-0.1,0.3v16.3
		c0,0.2,0.1,0.4,0.3,0.6c0.2,0.1,0.4,0.1,0.6,0l1.1-0.5l1.1,0.5c0.1,0,0.2,0.1,0.3,0.1s0.2,0,0.3-0.1l1.1-0.5l1.1,0.5
		c0.2,0.1,0.4,0.1,0.6,0l1.1-0.5l1.1,0.5c0.2,0.1,0.4,0.1,0.6,0l1.1-0.5l1.1,0.5c0.2,0.1,0.4,0.1,0.6,0l1.1-0.5l1.1,0.5
		c0.2,0.1,0.4,0.1,0.6,0c0.2-0.1,0.3-0.3,0.3-0.6v-21C19.4,1.1,19.1,0.9,18.8,0.9z M9.3,3.1v2.5H6.8L9.3,3.1z M18.1,21.4l-0.4-0.2
		c-0.2-0.1-0.4-0.1-0.6,0l-1.1,0.5L15,21.2c-0.2-0.1-0.4-0.1-0.6,0l-1.1,0.5l-1.1-0.5c-0.1,0-0.2-0.1-0.3-0.1s-0.2,0-0.3,0.1
		l-1.1,0.5l-1.1-0.5c-0.2-0.1-0.4-0.1-0.6,0l-1.1,0.5l-1.1-0.5c-0.2-0.1-0.4-0.1-0.6,0l-0.4,0.2V6.9H10c0.4,0,0.6-0.3,0.6-0.6V2.1
		h7.5V21.4z"/>
	<path d="M11.7,8.5c-0.9,0.1-1.5,0.4-2,0.9c-0.4,0.4-0.5,1-0.5,1.6c0.2,1.2,1,1.8,2.4,1.9v3c-1.1-0.1-1.2-0.8-1.2-1.1
		c0-0.3-0.2-0.5-0.5-0.5s-0.5,0.2-0.5,0.5c0,0.9,0.6,1.9,2.2,2.1v0.6c0,0.3,0.2,0.5,0.5,0.5s0.5-0.2,0.5-0.5v-0.6
		c0.8-0.1,1.3-0.3,1.7-0.8c0.3-0.3,0.6-1,0.5-2c-0.1-0.4-0.4-1.8-2.2-2V9.5c1.1,0.2,1.2,1.1,1.2,1.2c0,0.3,0.3,0.5,0.5,0.5
		c0.3,0,0.5-0.3,0.5-0.5c0-0.7-0.6-1.9-2.2-2.1V8.3c0-0.3-0.2-0.5-0.5-0.5S11.7,8,11.7,8.3V8.5z M10.2,10.8c0-0.2,0-0.5,0.2-0.8
		c0.2-0.3,0.7-0.4,1.2-0.5v2.4C10.4,11.7,10.3,11.1,10.2,10.8z M13.9,14.1c0.1,0.5,0,1-0.2,1.2c-0.2,0.2-0.5,0.4-1,0.4v-2.9
		C13.6,13.1,13.8,13.7,13.9,14.1z"/>
</g>
</svg>
