<?xml version="1.0" encoding="utf-8"?>
<!-- Generator: Adobe Illustrator 25.4.1, SVG Export Plug-In . SVG Version: 6.00 Build 0)  -->
<svg version="1.1" id="Layer_1" xmlns="http://www.w3.org/2000/svg" xmlns:xlink="http://www.w3.org/1999/xlink" x="0px" y="0px"
	 viewBox="0 0 24 24" style="enable-background:new 0 0 24 24;" xml:space="preserve">
<g>
	<path d="M21.8,1.5H2.2c-0.4,0-0.7,0.3-0.7,0.7V12c0,0.4,0.3,0.7,0.7,0.7H5c0.4,0,0.7-0.3,0.7-0.7S5.4,11.3,5,11.3H2.9V2.9h18.3v8.5
		H19c-0.4,0-0.7,0.3-0.7,0.7s0.3,0.7,0.7,0.7h2.9c0.4,0,0.7-0.3,0.7-0.7V2.2C22.5,1.8,22.2,1.5,21.8,1.5z"/>
	<path d="M18.4,4.9H5.6c-0.4,0-0.7,0.3-0.7,0.7v16.3c0,0.2,0.1,0.5,0.3,0.6c0.2,0.1,0.5,0.1,0.7,0l2-1.1l1.7,1.1
		c0.2,0.2,0.5,0.2,0.8,0l1.7-1.1l1.7,1.1c0.2,0.2,0.5,0.2,0.8,0l1.7-1.1l2,1.1c0.1,0.1,0.2,0.1,0.3,0.1c0.1,0,0.2,0,0.3-0.1
		c0.2-0.1,0.3-0.3,0.3-0.6V5.6C19.1,5.2,18.8,4.9,18.4,4.9z M17.8,20.7l-1.4-0.8c-0.2-0.1-0.5-0.1-0.7,0L14,21l-1.7-1.1
		c-0.1-0.1-0.2-0.1-0.4-0.1s-0.3,0-0.4,0.1L10,21l-1.7-1.1c-0.2-0.1-0.5-0.2-0.7,0l-1.4,0.8V6.2h11.5V20.7z"/>
	<path d="M8.6,9.3h3c0.4,0,0.7-0.3,0.7-0.7S12,7.9,11.7,7.9h-3c-0.4,0-0.7,0.3-0.7,0.7S8.2,9.3,8.6,9.3z"/>
	<path d="M8.6,14.7h6.8c0.4,0,0.7-0.3,0.7-0.7s-0.3-0.7-0.7-0.7H8.6c-0.4,0-0.7,0.3-0.7,0.7S8.2,14.7,8.6,14.7z"/>
	<path d="M8.6,12h6.8c0.4,0,0.7-0.3,0.7-0.7s-0.3-0.7-0.7-0.7H8.6c-0.4,0-0.7,0.3-0.7,0.7S8.2,12,8.6,12z"/>
	<path d="M8.6,17.4h3c0.4,0,0.7-0.3,0.7-0.7c0-0.4-0.3-0.7-0.7-0.7h-3c-0.4,0-0.7,0.3-0.7,0.7C7.9,17.1,8.2,17.4,8.6,17.4z"/>
</g>
</svg>
