<?xml version="1.0" encoding="utf-8"?>
<!-- Generator: Adobe Illustrator 25.4.1, SVG Export Plug-In . SVG Version: 6.00 Build 0)  -->
<svg version="1.1" id="Layer_1" xmlns="http://www.w3.org/2000/svg" xmlns:xlink="http://www.w3.org/1999/xlink" x="0px" y="0px"
	 viewBox="0 0 24 24" style="enable-background:new 0 0 24 24;" xml:space="preserve">
<g>
	<path d="M11.1,8.8C11.1,8.8,11.1,8.8,11.1,8.8h0.2v1.1H9.9c-0.4,0-0.7,0.3-0.7,0.7s0.3,0.7,0.7,0.7h1.4v0.4c0,0.4,0.3,0.7,0.7,0.7
		s0.7-0.3,0.7-0.7v-0.4h0.2c1,0,1.8-0.8,1.8-1.8c0-1-0.8-1.8-1.8-1.8h-0.2V6.4h1.4c0.4,0,0.7-0.3,0.7-0.7c0-0.4-0.3-0.7-0.7-0.7
		h-1.4V4.7C12.7,4.3,12.4,4,12,4c0,0,0,0,0,0c-0.2,0-0.3,0.1-0.5,0.2c-0.1,0.1-0.2,0.3-0.2,0.5v0.4h-0.2c-1,0-1.8,0.8-1.8,1.9
		c0,0.5,0.2,1,0.5,1.3C10.2,8.6,10.6,8.8,11.1,8.8z M12.7,8.8h0.2c0.1,0,0.3,0.1,0.4,0.2c0.1,0.1,0.2,0.2,0.2,0.4
		c0,0.3-0.2,0.5-0.5,0.5h-0.2V8.8z M10.6,6.9c0-0.1,0.1-0.3,0.2-0.4c0.1-0.1,0.2-0.2,0.4-0.2c0,0,0,0,0,0h0.2v1.1h-0.2
		c-0.1,0-0.3-0.1-0.4-0.2C10.6,7.2,10.6,7.1,10.6,6.9z"/>
	<path d="M20,1.1H4c-0.4,0-0.8,0.3-0.8,0.8v20.2c0,0.2,0.1,0.4,0.2,0.6c0.3,0.3,0.8,0.3,1.1,0l1-1l1,1C7,23,7.5,23,7.8,22.6l1-1l1,1
		c0.3,0.3,0.8,0.3,1.1,0l1-1l1,1c0.3,0.3,0.8,0.3,1.1,0l1-1l1,1c0.3,0.3,0.8,0.3,1.1,0l1-1l1,1c0.1,0.1,0.3,0.2,0.5,0.2
		c0.4,0,0.8-0.3,0.8-0.8V1.9C20.7,1.5,20.4,1.1,20,1.1z M19.2,2.7v17.5L18.9,20c-0.3-0.3-0.8-0.3-1.1,0l-1,1l-1-1
		c-0.1-0.1-0.3-0.2-0.6-0.2s-0.4,0.1-0.6,0.2l-1,1l-1-1c-0.3-0.3-0.8-0.3-1.1,0l-1,1l-1-1c-0.3-0.3-0.8-0.3-1.1,0l-1,1l-1-1
		c-0.3-0.3-0.8-0.3-1.1,0l-0.3,0.3V2.7H19.2z"/>
	<path d="M7.3,15.3h9.4c0.4,0,0.7-0.3,0.7-0.7S17.1,14,16.7,14H7.3c-0.4,0-0.7,0.3-0.7,0.7S6.9,15.3,7.3,15.3z"/>
	<path d="M7.3,18h9.4c0.4,0,0.7-0.3,0.7-0.7s-0.3-0.7-0.7-0.7H7.3c-0.4,0-0.7,0.3-0.7,0.7S6.9,18,7.3,18z"/>
</g>
</svg>
