<?xml version="1.0" encoding="utf-8"?>
<!-- Generator: Adobe Illustrator 25.4.1, SVG Export Plug-In . SVG Version: 6.00 Build 0)  -->
<svg version="1.1" id="Layer_1" xmlns="http://www.w3.org/2000/svg" xmlns:xlink="http://www.w3.org/1999/xlink" x="0px" y="0px"
	 viewBox="0 0 24 24" style="enable-background:new 0 0 24 24;" xml:space="preserve">
<style type="text/css">
	.st0{fill-rule:evenodd;clip-rule:evenodd;}
</style>
<g>
	<path d="M10.3,19c-0.2,0-0.4-0.1-0.4-0.3l-0.7-6.6c0-0.2,0.1-0.4,0.3-0.4l0.4,0c0.2,0,0.4,0.1,0.4,0.3l0.7,6.6
		c0,0.2-0.1,0.4-0.3,0.4L10.3,19z"/>
	<path d="M13.7,19c-0.2,0-0.4-0.2-0.3-0.4l0.7-6.6c0-0.2,0.2-0.4,0.4-0.3l0.4,0c0.2,0,0.4,0.2,0.3,0.4l-0.7,6.6
		c0,0.2-0.2,0.4-0.4,0.3L13.7,19z"/>
	<path class="st0" d="M10.3,1.5c-0.5,0-0.9,0.3-1.1,0.7l-0.9,2H4.7c-0.9,0-1.5,0.7-1.5,1.6v1.9c0,0.8,0.6,1.4,1.4,1.5l2.4,12.6
		c0.1,0.4,0.4,0.6,0.8,0.6h9.5c0.4,0,0.7-0.3,0.8-0.7l1.7-12.6c0.7-0.1,1.3-0.8,1.3-1.5V5.8c0-0.9-0.7-1.6-1.5-1.6h-3.7l-0.9-2
		c-0.2-0.4-0.6-0.7-1.1-0.7H10.3z M13.9,4.2l-0.3-0.7c-0.1-0.3-0.4-0.5-0.7-0.5h-1.8c-0.3,0-0.6,0.2-0.7,0.5l-0.3,0.7H13.9z M18,9.6
		c0-0.2-0.1-0.4-0.3-0.4l-11.3,0c-0.2,0-0.4,0.2-0.3,0.4l2,10.6c0.1,0.4,0.4,0.7,0.8,0.7h6.8c0.4,0,0.7-0.3,0.8-0.7L18,9.6z
		 M18.6,7.7c0.4,0,0.8-0.3,0.8-0.8V6.6c0-0.4-0.3-0.8-0.8-0.8H5.4C5,5.8,4.7,6.1,4.7,6.6v0.4c0,0.4,0.3,0.8,0.8,0.8H18.6z"/>
</g>
</svg>
