<?xml version="1.0" encoding="utf-8"?>
<!-- Generator: Adobe Illustrator 25.4.1, SVG Export Plug-In . SVG Version: 6.00 Build 0)  -->
<svg version="1.1" id="Layer_1" xmlns="http://www.w3.org/2000/svg" xmlns:xlink="http://www.w3.org/1999/xlink" x="0px" y="0px"
	 viewBox="0 0 24 24" style="enable-background:new 0 0 24 24;" xml:space="preserve">
<g id="_35._Shield">
	<path d="M20.5,4h-1c-2.5,0-5-0.9-7-2.5c-0.3-0.2-0.7-0.2-1,0C9.5,3.1,7.1,4,4.5,4h-1C3,4,2.7,4.3,2.7,4.8v5.5
		c0,5.6,3.7,10.7,9.1,12.3c0.1,0,0.1,0,0.2,0s0.2,0,0.2,0c5.4-1.6,9.1-6.7,9.1-12.3V4.8C21.3,4.3,21,4,20.5,4z M19.7,5.6v4.7
		c0,4.9-3.1,9.2-7.7,10.7c-4.7-1.5-7.8-5.8-7.7-10.8V5.6h0.3c2.7,0,5.3-0.8,7.5-2.4c2.2,1.6,4.8,2.4,7.5,2.4H19.7z"/>
	<path d="M11.7,9.4H14c0.4,0,0.7-0.3,0.7-0.7c0-0.4-0.3-0.7-0.7-0.7h-1.3V7.4c0-0.4-0.3-0.7-0.7-0.7S11.3,7,11.3,7.4v0.7
		c-1.3,0.1-2.2,1.2-2.1,2.5c0.1,1.3,1.2,2.2,2.5,2.1h0.7c0.5,0,1,0.4,1,1c0,0.5-0.4,1-1,1H10c-0.4,0-0.7,0.3-0.7,0.7S9.7,16,10,16
		h1.3v0.7c0,0.4,0.3,0.7,0.7,0.7s0.7-0.3,0.7-0.7v-0.7c1.3-0.1,2.2-1.2,2.1-2.5s-1.2-2.2-2.5-2.1h-0.7c-0.5,0-1-0.4-1-1
		S11.1,9.4,11.7,9.4z"/>
</g>
</svg>
