<?xml version="1.0" encoding="utf-8"?>
<!-- Generator: Adobe Illustrator 25.4.1, SVG Export Plug-In . SVG Version: 6.00 Build 0)  -->
<svg version="1.1" id="Layer_1" xmlns="http://www.w3.org/2000/svg" xmlns:xlink="http://www.w3.org/1999/xlink" x="0px" y="0px"
	 viewBox="0 0 24 24" style="enable-background:new 0 0 24 24;" xml:space="preserve">
<g>
	<path d="M23,9.8l-4.2-2.6V1.5c0-0.4-0.3-0.8-0.8-0.8h-3.7c-0.4,0-0.8,0.3-0.8,0.8v2.3l-1.1-0.7c-0.2-0.2-0.6-0.2-0.8,0L1,9.8
		c-0.4,0.2-0.5,0.7-0.2,1C1,11,1.2,11.1,1.4,11.1c0.1,0,0.3,0,0.4-0.1l1.8-1.2v12.6c0,0.4,0.3,0.8,0.8,0.8h15.1
		c0.4,0,0.8-0.3,0.8-0.8V9.9l1.8,1.2c0.4,0.2,0.8,0.1,1-0.2C23.4,10.4,23.3,10,23,9.8z M15,2.2h2.2v3.9L15,4.8V2.2z M18.8,21.7H5.2
		V8.9L12,4.6l6.8,4.3V21.7z"/>
	<path d="M11.4,9.7V10C10,10.3,9,11.3,9,12.5c0,1.2,1,2.3,2.4,2.5v2.7c-0.7-0.2-1.2-0.7-1.2-1.3c0-0.3-0.3-0.6-0.6-0.6c0,0,0,0,0,0
		c-0.3,0-0.6,0.3-0.6,0.6c0,1.2,1,2.3,2.4,2.5v0.4c0,0.3,0.3,0.6,0.6,0.6s0.6-0.3,0.6-0.6V19c1.4-0.2,2.4-1.3,2.4-2.5
		c0-1.2-1-2.3-2.4-2.5v-2.7c0.7,0.2,1.2,0.7,1.2,1.3c0,0.3,0.3,0.6,0.6,0.6s0.6-0.3,0.6-0.6c0-1.2-1-2.3-2.4-2.5V9.7
		c0-0.3-0.3-0.6-0.6-0.6S11.4,9.3,11.4,9.7z M10.2,12.5c0-0.6,0.5-1.1,1.2-1.3v2.5C10.7,13.6,10.2,13.1,10.2,12.5z M13.8,16.5
		c0,0.6-0.5,1.1-1.2,1.3v-2.5C13.3,15.4,13.8,15.9,13.8,16.5z"/>
</g>
</svg>
