<?xml version="1.0" encoding="utf-8"?>
<!-- Generator: Adobe Illustrator 25.4.1, SVG Export Plug-In . SVG Version: 6.00 Build 0)  -->
<svg version="1.1" id="Layer_1" xmlns="http://www.w3.org/2000/svg" xmlns:xlink="http://www.w3.org/1999/xlink" x="0px" y="0px"
	 viewBox="0 0 24 24" style="enable-background:new 0 0 24 24;" xml:space="preserve">
<path d="M22.1,5.3c0.4,0,0.7-0.3,0.7-0.7V1.9c0-0.4-0.3-0.7-0.7-0.7H1.9c-0.4,0-0.7,0.3-0.7,0.7v2.6c0,0.4,0.3,0.7,0.7,0.7h0.1v14.3
	H1.9c-0.4,0-0.7,0.3-0.7,0.7v1.8c0,0.4,0.3,0.7,0.7,0.7h20.1c0.4,0,0.7-0.3,0.7-0.7v-1.8c0-0.4-0.3-0.7-0.7-0.7h-0.1V5.3H22.1z
	 M18.2,11.9L17.8,11c-0.7-1.6-2-2.7-3.6-3.3c-1.6-0.6-3.4-0.5-4.9,0.2C7,9,5.6,11.3,5.6,13.7v5.8h-2V5.3h16.9v14.3h-2v-5.8
	C18.4,13.1,18.3,12.5,18.2,11.9z M16.7,17.6L16.7,17.6c0-0.1,0-0.2,0-0.4c-0.1-1.3-0.6-2.4-1.4-3.4c-0.5-0.6-0.9-1.4-0.9-2.2
	c0-0.4-0.3-0.7-0.7-0.7c-0.2,0-0.3,0.1-0.4,0.1c-1,0.7-1.8,1.8-2.3,3c-0.1,0.2-0.1,0.3-0.1,0.5c-0.1-0.2-0.4-0.4-0.7-0.4
	c-0.1,0-0.2,0-0.3,0.1c-0.1,0-1.5,0.8-1.6,3.2c0,0.1,0,0.2,0,0.3c0,0.7,0.2,1.4,0.5,2H7v-5.8c0-2.7,2.2-5,5-5s5,2.2,5,5v5.8h-0.8
	C16.5,19,16.7,18.3,16.7,17.6z M9.7,17.4L9.7,17.4c0-0.4,0-0.7,0.2-1c0.1,0.1,0.1,0.1,0.2,0.2c0.3,0.3,0.8,0.5,1.2,0.5c0,0,0,0,0,0
	c0.2,0,0.4-0.1,0.6-0.2c0.1-0.1,0.2-0.3,0.2-0.5c0-0.7,0.1-1.3,0.3-2c0.2-0.5,0.5-1,0.8-1.4c0.2,0.6,0.5,1.2,1,1.6
	c0.6,0.7,1,1.6,1.1,2.6l0,0.1c0,0.1,0,0.1,0,0.2c0,0.7-0.3,1.5-0.8,2h-3.9c-0.5-0.5-0.8-1.3-0.8-2C9.7,17.5,9.7,17.5,9.7,17.4z
	 M21.3,21v0.3H2.7V21H21.3z M21.3,2.7v1.2H2.7V2.7H21.3z"/>
</svg>
