<?xml version="1.0" encoding="utf-8"?>
<!-- Generator: Adobe Illustrator 25.4.1, SVG Export Plug-In . SVG Version: 6.00 Build 0)  -->
<svg version="1.1" id="Layer_1" xmlns="http://www.w3.org/2000/svg" xmlns:xlink="http://www.w3.org/1999/xlink" x="0px" y="0px"
	 viewBox="0 0 24 24" style="enable-background:new 0 0 24 24;" xml:space="preserve">
<path d="M19.4,3.9c-0.8,0-1.5,0.7-1.5,1.5V6h-3.1c-0.1-0.2-0.2-0.4-0.3-0.5c0.3-0.3,0.5-0.7,0.5-1.1c0-0.9-0.7-1.6-1.6-1.6h-2.6
	c-0.9,0-1.6,0.7-1.6,1.6c0,0.4,0.1,0.7,0.4,1C9.1,5.7,8.9,6.2,8.9,6.8v0.4H7.4c-1.7,0-3.1,1.4-3.1,3.1v1.8c-0.6,0.1-1,0.6-1,1.2
	c0,0.7,0.6,1.3,1.3,1.3c0,0,0,0,0,0h1.1c-0.1,0-0.1,0.1-0.2,0.2l-2,3.5c-0.3,0.4-0.4,1-0.4,1.5c0,0.5,0.1,1,0.4,1.5l0.1,0.2
	c0,0,0,0,0,0c0,0,0,0.1,0.1,0.1L4,22c0,0,0.1,0.1,0.1,0.1l0.4,0.3c0.1,0.1,0.3,0.1,0.4,0.2l0.2,0.1c0.1,0,0.1,0,0.2,0.1
	c0.2,0.1,0.5,0.1,0.7,0.1c0.3,0,0.5,0,0.8-0.1c0.1,0,0.1,0,0.2,0c0,0,0,0,0,0c0,0,0,0,0,0l0.1,0c0.2-0.1,0.4-0.2,0.6-0.4
	c0,0,0.1-0.1,0.1-0.1C7.9,22.1,8,22,8,22l0.3-0.3l0.1-0.1c0,0,0-0.1,0.1-0.1c0-0.1,0.1-0.1,0.1-0.2c0,0,0-0.1,0-0.1
	c0.5-0.9,0.5-2,0-2.9l-2-3.5c0-0.1-0.1-0.1-0.1-0.2h1.1c0.7,0,1.3-0.6,1.3-1.3c0-0.6-0.4-1.1-1-1.2v-1.7h1.1v0.3
	c0,1.1,0.9,2.1,2.1,2.1h1.9c0.8,0,1.6-0.5,1.9-1.3h3.1V12c0,0.8,0.7,1.5,1.5,1.5c0.8,0,1.5-0.7,1.5-1.5V5.5
	C20.9,4.6,20.2,3.9,19.4,3.9z M7.4,20.8C7.4,20.9,7.4,20.9,7.4,20.8C7.4,20.9,7.4,20.9,7.4,20.8C7.4,20.9,7.4,20.9,7.4,20.8
	C7.4,21,7.4,21,7.3,21l-0.1,0.1c0,0-0.1,0.1-0.2,0.1c-0.1,0.1-0.3,0.2-0.4,0.2l-0.2,0.1c-0.3,0.1-0.6,0.1-0.9,0l-0.2-0.1
	c-0.1,0-0.2-0.1-0.2-0.1L5,21.2l-0.4-0.4c0,0,0,0,0,0c0,0,0,0,0,0l0-0.1c0,0,0,0,0,0c0,0,0,0,0,0c-0.1-0.3-0.2-0.6-0.2-0.9
	c0-0.3,0.1-0.6,0.2-0.9L6,16.3l1.5,2.6c0.2,0.3,0.2,0.6,0.2,0.9c0,0.3-0.1,0.6-0.2,0.9C7.5,20.7,7.5,20.8,7.4,20.8z M8.4,21.1
	L8.4,21.1L8.4,21.1L8.4,21.1z M19.7,5.5V12c0,0.2-0.2,0.4-0.4,0.4c-0.2,0-0.4-0.2-0.4-0.4V5.5c0-0.1,0-0.2,0.1-0.3
	c0.1-0.1,0.2-0.1,0.3-0.1c0,0,0,0,0,0C19.6,5.1,19.7,5.3,19.7,5.5z M17.8,7.1v3.2h-2.9V7.1H17.8z M7.5,13.3
	C7.5,13.3,7.6,13.3,7.5,13.3c0.1,0.2,0.1,0.2,0,0.2H4.6c0,0,0,0,0,0c0,0-0.1-0.1-0.1-0.1c0-0.1,0-0.1,0.1-0.1H7.5z M6.6,9.9v2.2H5.5
	v-1.8c0-1.1,0.9-2,2-2h1.4v0.9H7.2C6.9,9.3,6.6,9.6,6.6,9.9z M10,6.8c0-0.5,0.4-0.9,0.9-0.9h1.9c0.5,0,0.9,0.4,0.9,0.9v4
	c0,0.5-0.4,0.9-0.9,0.9h-1.9c-0.5,0-0.9-0.4-0.9-0.9V6.8z M10.7,4.7c-0.1,0-0.2,0-0.3-0.1c-0.1-0.1-0.1-0.2-0.1-0.3
	c0-0.2,0.2-0.4,0.4-0.4h2.6c0.2,0,0.4,0.2,0.4,0.4c0,0.2-0.2,0.4-0.4,0.4h-0.5c0,0,0,0,0,0h-1.9c0,0,0,0,0,0H10.7z"/>
</svg>
