<?xml version="1.0" encoding="utf-8"?>
<!-- Generator: Adobe Illustrator 25.4.1, SVG Export Plug-In . SVG Version: 6.00 Build 0)  -->
<svg version="1.1" id="Layer_1" xmlns="http://www.w3.org/2000/svg" xmlns:xlink="http://www.w3.org/1999/xlink" x="0px" y="0px"
	 viewBox="0 0 24 24" style="enable-background:new 0 0 24 24;" xml:space="preserve">
<path d="M10.3,22.3c-1.1,0-2-0.9-2-2v-4.7l-0.1-0.1C6,14.2,4.6,11.8,4.6,9.1C4.6,5,7.9,1.7,12,1.7c2,0,3.8,0.8,5.2,2.2
	c1.4,1.4,2.2,3.3,2.2,5.2c0,2.7-1.4,5.1-3.6,6.4l-0.1,0.1v4.7c0,1.1-0.9,2-2,2H10.3z M9.6,20.3c0,0.4,0.3,0.8,0.7,0.8h3.4
	c0.4,0,0.7-0.3,0.7-0.8v-1.5H9.6V20.3z M12.7,17.5h1.8v-2.3c0-0.2,0.1-0.5,0.3-0.6c2.1-1,3.4-3.2,3.4-5.5c0-3.4-2.8-6.2-6.2-6.2
	c-3.4,0-6.2,2.8-6.2,6.2c0,2.4,1.3,4.5,3.4,5.5c0.2,0.1,0.4,0.3,0.4,0.6v2.3h1.8v-5.6H9.2c-0.3,0-0.6-0.3-0.6-0.6
	c0-0.3,0.3-0.6,0.6-0.6h5.7c0.3,0,0.6,0.3,0.6,0.6c0,0.3-0.3,0.6-0.6,0.6h-2.2V17.5z"/>
</svg>
