<?xml version="1.0" encoding="utf-8"?>
<!-- Generator: Adobe Illustrator 25.4.1, SVG Export Plug-In . SVG Version: 6.00 Build 0)  -->
<svg version="1.1" id="Layer_1" xmlns="http://www.w3.org/2000/svg" xmlns:xlink="http://www.w3.org/1999/xlink" x="0px" y="0px"
	 viewBox="0 0 24 24" style="enable-background:new 0 0 24 24;" xml:space="preserve">
<g>
	<circle cx="5.8" cy="18.2" r="0.8"/>
	<path d="M5.6,22.3c-1.2,0-2.4-0.6-3.1-1.5c-0.6-0.8-0.9-1.8-0.7-2.9c0.1-1,0.7-1.9,1.5-2.5c1.4-0.7,2.8-1.7,3.9-2.8l3.7-3.7l0-0.1
		c-0.1-1.1-0.1-3.8,1.4-5.3c1.1-1.1,2.6-1.7,4.2-1.7c0.6,0,1.2,0.1,1.8,0.3c0.1,0,0.2,0.1,0.3,0.2c0.1,0.1,0.2,0.3,0.2,0.4
		S18.5,2.9,18.4,3l-2.2,2.2l0.4,2.1l2.2,0.4L21,5.6c0.1-0.1,0.2-0.1,0.2-0.1c0.1,0,0.1,0,0.2,0c0.3,0,0.5,0.2,0.6,0.4
		c0.7,2.1,0.1,4.4-1.5,5.9c-1.2,1.2-3,1.4-4.4,1.4c-0.3,0-0.6,0-0.9,0l-0.1,0l-3.7,3.7c-1.2,1.2-2.1,2.5-2.8,4
		C8.4,21,7.5,22.4,5.6,22.3L5.6,22.3z M16.3,2.9c-1.2,0-2.3,0.5-3.2,1.4c-0.9,0.9-1.2,3-1,4.6c0,0.2,0,0.4-0.2,0.5L8,13.4
		c-1.1,1.1-2.3,2-3.6,2.7c-0.5,0.3-1,0.8-1.2,1.4c-0.3,0.9-0.1,1.9,0.6,2.6c0.5,0.5,1.2,0.8,1.9,0.8c0,0,0,0,0,0
		c0.9,0,1.7-0.6,2.1-1.4c0.8-1.3,1.6-2.5,2.7-3.5l3.9-3.9c0.1-0.1,0.3-0.2,0.5-0.2c0.4,0,0.7,0.1,1.1,0.1c0.8,0,2.6-0.1,3.6-1
		c0.8-0.8,1.3-2,1.4-3.2l0-0.5l-1.7,1.7C19.3,9,19.2,9.1,19,9.1c0,0-0.1,0-0.1,0L16,8.5c-0.2-0.1-0.4-0.2-0.5-0.5l-0.6-2.9
		c0-0.2,0-0.4,0.2-0.5l1.7-1.7L16.3,2.9z"/>
	<path d="M5.8,18.8c-0.3,0-0.6-0.3-0.6-0.6c0-0.3,0.3-0.6,0.6-0.6s0.6,0.3,0.6,0.6C6.4,18.5,6.1,18.8,5.8,18.8z"/>
</g>
</svg>
