<?xml version="1.0" encoding="utf-8"?>
<!-- Generator: Adobe Illustrator 25.4.1, SVG Export Plug-In . SVG Version: 6.00 Build 0)  -->
<svg version="1.1" id="Layer_1" xmlns="http://www.w3.org/2000/svg" xmlns:xlink="http://www.w3.org/1999/xlink" x="0px" y="0px"
	 viewBox="0 0 24 24" style="enable-background:new 0 0 24 24;" xml:space="preserve">
<g>
	<path d="M16,1.1H8c-1.1,0-2.1,0.9-2.1,2.1v17.6c0,1.1,0.9,2.1,2.1,2.1h8c1.1,0,2.1-0.9,2.1-2.1V3.2C18.1,2.1,17.1,1.1,16,1.1z
		 M7.4,18.9h9.3v1.9c0,0.4-0.3,0.6-0.6,0.6H8c-0.4,0-0.6-0.3-0.6-0.6V18.9z M16.6,4.6v12.8H7.4V4.6H16.6z M7.4,3.2
		c0-0.3,0.3-0.6,0.6-0.6h8c0.3,0,0.6,0.3,0.6,0.6H7.4z"/>
	<path d="M12,21.4c0.7,0,1.2-0.6,1.2-1.2c0,0,0,0,0,0c0-0.7-0.6-1.2-1.2-1.2c-0.7,0-1.2,0.6-1.2,1.2C10.8,20.8,11.3,21.4,12,21.4z
		 M12,19.6c0.3,0,0.6,0.2,0.6,0.6c0,0,0,0,0,0c0,0.3-0.2,0.6-0.6,0.6c-0.3,0-0.6-0.2-0.6-0.6C11.4,19.9,11.7,19.6,12,19.6z"/>
	<path d="M10.3,12.1c-0.3,0-0.5,0.2-0.5,0.5c0,0.3,0.2,0.5,0.5,0.5h1.3v0.4c0,0.3,0.2,0.5,0.5,0.5s0.5-0.2,0.5-0.5v-0.4h0.3
		c0.4,0,0.8-0.2,1-0.4c0.3-0.3,0.4-0.6,0.4-1c0-0.8-0.7-1.5-1.5-1.5h-0.3V9.1h1.3c0.3,0,0.5-0.2,0.5-0.5S14,8.1,13.7,8.1h-1.3V7.7
		c0-0.3-0.2-0.5-0.5-0.5s-0.5,0.2-0.5,0.5v0.4h-0.3c-0.8,0-1.5,0.7-1.5,1.5c0,0.8,0.7,1.5,1.5,1.5h0.3v1.1H10.3z M11.5,9.1v1.1h-0.3
		c-0.3,0-0.5-0.2-0.5-0.5c0-0.3,0.2-0.5,0.5-0.5H11.5z M12.5,12.1v-1.1h0.3c0.1,0,0.3,0.1,0.4,0.2c0.1,0.1,0.2,0.2,0.2,0.4
		c0,0.3-0.2,0.5-0.5,0.5H12.5z"/>
</g>
</svg>
