<?xml version="1.0" encoding="utf-8"?>
<!-- Generator: Adobe Illustrator 25.4.1, SVG Export Plug-In . SVG Version: 6.00 Build 0)  -->
<svg version="1.1" id="Layer_1" xmlns="http://www.w3.org/2000/svg" xmlns:xlink="http://www.w3.org/1999/xlink" x="0px" y="0px"
	 viewBox="0 0 24 24" style="enable-background:new 0 0 24 24;" xml:space="preserve">
<g>
	<path d="M12,20.1c-1.2,0-2.3-1-2.3-2.3c0-1.2,1-2.3,2.3-2.3c1.2,0,2.3,1,2.3,2.3C14.3,19.1,13.2,20.1,12,20.1z"/>
	<path d="M17,14c-0.3,0-0.6-0.1-0.8-0.3c-1.1-1.1-2.7-1.7-4.2-1.7c-1.6,0-3.1,0.6-4.2,1.7C7.5,13.8,7.3,14,7,14
		c-0.3,0-0.6-0.1-0.8-0.3c-0.2-0.2-0.3-0.5-0.3-0.8c0-0.3,0.1-0.6,0.3-0.8c1.5-1.5,3.6-2.4,5.8-2.4c2.2,0,4.4,0.9,5.8,2.4
		c0.2,0.2,0.3,0.5,0.3,0.8C18.2,13.5,17.7,14,17,14L17,14z"/>
	<path d="M21.1,9.9c-0.3,0-0.6-0.1-0.8-0.3c-2.1-2.1-5.1-3.4-8.3-3.4c-3.1,0-6.1,1.2-8.3,3.4C3.5,9.8,3.2,9.9,2.9,9.9
		c-0.3,0-0.6-0.1-0.8-0.3C1.9,9.4,1.8,9.1,1.8,8.8c0-0.3,0.1-0.6,0.3-0.8l0.2-0.2c2.6-2.5,6-3.9,9.7-3.9c3.7,0,7.3,1.5,9.9,4.2
		c0.2,0.2,0.3,0.5,0.3,0.8s-0.1,0.6-0.3,0.8C21.7,9.8,21.4,9.9,21.1,9.9L21.1,9.9z"/>
</g>
</svg>
