<?xml version="1.0" encoding="utf-8"?>
<!-- Generator: Adobe Illustrator 25.4.1, SVG Export Plug-In . SVG Version: 6.00 Build 0)  -->
<svg version="1.1" id="Layer_1" xmlns="http://www.w3.org/2000/svg" xmlns:xlink="http://www.w3.org/1999/xlink" x="0px" y="0px"
	 viewBox="0 0 24 24" style="enable-background:new 0 0 24 24;" xml:space="preserve">
<g>
	<path d="M9.1,12.3h3.7h1.9c0.4,0,0.6-0.3,0.6-0.6s-0.3-0.6-0.6-0.6H9.1c-0.4,0-0.6,0.3-0.6,0.6S8.7,12.3,9.1,12.3z"/>
	<path d="M21.8,7.5c0,0,0-0.3-0.1-0.4S16.1,7,16.1,7V5.7c0-1-0.4-1.9-1-2.5s-1.6-1-2.5-1h-1.4c-2,0-3.6,1.6-3.6,3.6V7
		c0,0-5.3-0.1-5.4,0C2.1,7.1,2.1,7.2,2.1,7.3l-0.9,9.9c-0.1,1.1,0.1,2.3,0.9,3.2c0.7,0.8,1.9,1.4,3,1.5c0.1,0,0.2,0,0.4,0h13
		c2.3,0,4.2-1.9,4.2-4.2C22.8,17.5,21.8,7.5,21.8,7.5z M8.9,6.9V5.7c0-1.3,1-2.3,2.3-2.3h1.4c1.3,0,2.3,1,2.3,2.3v1.2
		C14.9,6.9,8.9,6.9,8.9,6.9z M20.6,11.6c0,1-0.8,1.8-1.8,1.8H5.2c-1,0-1.8-0.8-1.8-1.8V8.2h17.2V11.6z M5.2,14.7h13.5
		c0.9,0,1.8-0.4,2.4-1.1l0.3,3.8c0.1,0.8-0.2,1.6-0.7,2.2l-0.1,0.1c-0.6,0.6-1.3,1-2.2,1l0,0h-13l0,0c-0.8,0-1.5-0.3-2.1-0.9
		s-0.9-1.3-0.9-2.1c0-0.1,0-0.2,0-0.3l0.3-3.8C3.4,14.3,4.3,14.7,5.2,14.7z M21.5,7.2L21.5,7.2L21.5,7.2L21.5,7.2z"/>
</g>
</svg>
