<?xml version="1.0" encoding="utf-8"?>
<!-- Generator: Adobe Illustrator 25.4.1, SVG Export Plug-In . SVG Version: 6.00 Build 0)  -->
<svg version="1.1" id="Layer_1" xmlns="http://www.w3.org/2000/svg" xmlns:xlink="http://www.w3.org/1999/xlink" x="0px" y="0px"
	 viewBox="0 0 24 24" style="enable-background:new 0 0 24 24;" xml:space="preserve">
<path d="M22.6,17.1c-1.6-5.4-3.7-9.3-7-12.6c0,0-0.3-0.2-0.5-0.3c-0.3,0-0.5,0.1-0.7,0.2l-1.8,1c-0.4,0.2-0.6,0.7-0.5,1.2
	C9,6.3,5.9,6.5,2.8,7.1c-0.1,0-0.3,0.1-0.4,0.2C2.3,7.4,2.3,7.6,2.3,7.7l0,0v0.1v0.7c-0.2,0-0.4,0.1-0.6,0.2
	C1.5,8.9,1.4,9.1,1.3,9.4c0,0.1,0,0.1,0,0.2v8.1c0,0.8,0.6,1.5,1.4,1.6c2.2,0.3,4.4,0.5,6.6,0.5l0,0c2.2,0,4.5-0.2,6.7-0.5
	c0.8-0.1,1.4-0.8,1.4-1.6v-0.6c0.5,0.7,1.1,1.4,1.7,2.1c0.3,0.4,0.9,0.5,1.3,0.2l1.8-1c0.3-0.1,0.5-0.4,0.5-0.7
	C22.7,17.7,22.7,17.4,22.6,17.1z M17,7.9c1.3,1.8,2.4,3.8,3.3,6.1C19.1,12.1,17.9,10,17,7.9z M15.9,12.7L15.9,12.7
	c-0.1-0.2-1.1-2-1.8-3.6c-0.6-1.3-0.9-2.5-0.9-2.6l1.6-0.9c1.5,4.4,3.7,8.4,6.6,12l-1.6,0.9C18.4,16.6,17,14.7,15.9,12.7z
	 M13.4,10.2c0,0,1.1,2.3,1.5,3s1.3,2.1,1.4,2.2v2.2c0,0.3-0.2,0.5-0.4,0.5c-4.3,0.6-8.7,0.6-13,0c-0.2,0-0.4-0.2-0.4-0.5v-8
	C6.1,10.5,9.8,10.7,13.4,10.2z M5.8,7.7c2.2-0.2,4.5-0.2,6.7,0c0,0,0,0,0,0.1C10.3,8,8,8,5.8,7.7z M13,9.1C9.8,9.6,6.6,9.4,3.4,8.7
	V8.5c3.1,0.6,6.3,0.7,9.4,0.3C12.9,8.9,13,9,13,9.1z"/>
</svg>
