<?xml version="1.0" encoding="utf-8"?>
<!-- Generator: Adobe Illustrator 25.4.1, SVG Export Plug-In . SVG Version: 6.00 Build 0)  -->
<svg version="1.1" id="Layer_1" xmlns="http://www.w3.org/2000/svg" xmlns:xlink="http://www.w3.org/1999/xlink" x="0px" y="0px"
	 viewBox="0 0 24 24" style="enable-background:new 0 0 24 24;" xml:space="preserve">
<path d="M21.8,19.3c-1.1-2.4-3.5-6.1-5.3-8.3l-0.1-0.1c-0.1-0.2-0.4-0.8-0.4-1c0.1-0.3,0.2-0.9,0.4-1.5c0.1-0.3,0.2-0.6,0.2-0.8
	c0.3-1,0.5-2,0.5-2.9V2.8c0-0.8-0.6-1.5-1.5-1.5C14.7,1.3,14,2,14,2.8v1.8c-0.8,0.4-1.5,0.8-2,1.3c-0.7-0.6-1.3-1-2-1.3V2.8
	C10,2,9.3,1.3,8.5,1.3S7,2,7,2.8v1.7c0,0.9,0.2,1.9,0.5,2.9c0.1,0.2,0.2,0.6,0.4,1.1C8,9,8.2,9.4,8.2,9.6l0,0.2
	c-0.1,0.4-0.2,0.7-0.4,1c-1.9,2.5-4.1,5.4-5.4,8.5c-0.1,0.2,0,0.6,0.2,0.8c0,0,3.6,2.7,9.5,2.7h0.1c5.8,0,9.4-2.7,9.5-2.7
	C21.9,19.8,21.9,19.5,21.8,19.3z M15.5,11.8c1.5,1.9,3.7,5.1,4.8,7.5c-2.5,1.4-5.3,2.2-8.1,2.2h-0.4c-2.8,0-5.6-0.7-8.1-2.2
	c1.3-2.7,3.2-5.3,4.8-7.5H15.5z M9.2,5.6c1,0.4,1.7,0.9,2.4,1.6c0.1,0.1,0.3,0.2,0.5,0.2s0.3-0.1,0.5-0.2c0.6-0.6,1.4-1.1,2.4-1.6
	c0.2,0,0.5-0.4,0.5-0.6V2.8c0-0.2,0.1-0.2,0.2-0.2s0.2,0.1,0.2,0.2v1.6c0,0.8-0.2,1.7-0.5,2.6c-0.1,0.2-0.1,0.4-0.2,0.6
	c-0.2,0.6-0.3,1.1-0.4,1.6H9.4C9.2,8.7,9,7.7,8.8,7.3c0,0-0.5-2-0.5-2.8V2.8c0-0.2,0.1-0.2,0.2-0.2s0.2,0.1,0.2,0.2V5
	C8.7,5.2,8.9,5.6,9.2,5.6z M14.7,10.5H9.3c0,0,0,0,0,0L14.7,10.5C14.7,10.5,14.7,10.5,14.7,10.5z"/>
</svg>
