<?xml version="1.0" encoding="utf-8"?>
<!-- Generator: Adobe Illustrator 25.4.1, SVG Export Plug-In . SVG Version: 6.00 Build 0)  -->
<svg version="1.1" id="Layer_1" xmlns="http://www.w3.org/2000/svg" xmlns:xlink="http://www.w3.org/1999/xlink" x="0px" y="0px"
	 viewBox="0 0 24 24" style="enable-background:new 0 0 24 24;" xml:space="preserve">
<g>
	<path d="M17.6,10.9c1.6,0,3-1.3,3-3s-1.3-3-3-3s-3,1.3-3,3S16,10.9,17.6,10.9z M17.6,6.3c0.9,0,1.7,0.7,1.7,1.7s-0.7,1.7-1.7,1.7
		s-1.7-0.7-1.7-1.7S16.7,6.3,17.6,6.3z"/>
	<path d="M23,7.9c0-3-2.4-5.4-5.4-5.4c-0.6,0-1.1,0.1-1.7,0.3L1.5,4.7C1.2,4.8,1,5,1,5.4v4.9c0,0.3,0.2,0.6,0.6,0.6l12.3,1.7l-2.2,8
		c-0.1,0.2,0,0.4,0.1,0.6s0.3,0.3,0.5,0.3h4.9c0.3,0,0.5-0.2,0.6-0.4l3.6-9.2C22.4,10.9,23,9.5,23,7.9z M21.7,7.9
		c0,2.3-1.9,4.1-4.1,4.1c-0.7,0-1.3-0.2-1.8-0.4c0,0-0.1,0-0.1,0c-1.3-0.7-2.2-2.1-2.2-3.7c0-2.3,1.9-4.1,4.1-4.1S21.7,5.7,21.7,7.9
		z M2.3,5.9l11.2-1.5c-0.8,0.9-1.3,2.2-1.3,3.5c0,1.2,0.4,2.4,1.1,3.3l-11-1.5V5.9z M16.7,20.2h-3.6l2-7.4l0.1,0
		c0.7,0.4,1.5,0.6,2.4,0.6c0.7,0,1.3-0.1,1.9-0.4L16.7,20.2z"/>
</g>
</svg>
