<?xml version="1.0" encoding="utf-8"?>
<!-- Generator: Adobe Illustrator 25.4.1, SVG Export Plug-In . SVG Version: 6.00 Build 0)  -->
<svg version="1.1" id="Layer_1" xmlns="http://www.w3.org/2000/svg" xmlns:xlink="http://www.w3.org/1999/xlink" x="0px" y="0px"
	 viewBox="0 0 24 24" style="enable-background:new 0 0 24 24;" xml:space="preserve">
<g>
	<path d="M12.1,22.5c5.4-0.1,6.6-4.5,6.6-4.5c1-2.8,0.3-6.3-1.8-8.5c-2.4-2.5-4.2-7.3-4.2-7.5c-0.1-0.6-1.2-0.6-1.3,0
		c0,0-1.8,4.8-4.2,7.5C5,11.7,4.3,15.1,5.3,18C5.3,18,6.7,22.6,12.1,22.5z M8,10.5c1.8-1.8,3.1-4.5,3.9-6.3c0.7,1.8,2.1,4.5,3.9,6.3
		c1.8,1.8,2.4,4.6,1.5,7c-0.7,2.1-2.7,3.3-5.2,3.4c-2.7-0.1-4.6-1.3-5.4-3.4C5.6,15.3,6.2,12.3,8,10.5z"/>
	<path d="M10.4,20.1c0.1,0,0.1,0,0.3,0c0.3,0,0.6-0.1,0.7-0.4c0.1-0.4-0.1-0.7-0.4-0.9c-2.2-0.7-2.4-3.6-2.4-3.6
		c0-0.4-0.4-0.7-0.7-0.7c-0.4,0-0.7,0.3-0.7,0.7C7.1,15.3,7.3,19,10.4,20.1z"/>
</g>
</svg>
