<?xml version="1.0" encoding="utf-8"?>
<!-- Generator: Adobe Illustrator 25.4.1, SVG Export Plug-In . SVG Version: 6.00 Build 0)  -->
<svg version="1.1" id="Layer_1" xmlns="http://www.w3.org/2000/svg" xmlns:xlink="http://www.w3.org/1999/xlink" x="0px" y="0px"
	 viewBox="0 0 24 24" style="enable-background:new 0 0 24 24;" xml:space="preserve">
<path d="M21.4,18.8l-9.7-9.7c0,0,0,0,0-0.1L9.9,2.6c0-0.2-0.1-0.4-0.3-0.5C9.4,2,9.2,2,9,2.1C7.1,2.9,5.6,4,4.4,5.3
	C3.9,5.9,2.3,8.5,2.1,9C2,9.2,2,9.4,2.1,9.6C2.2,9.8,2.4,9.9,2.6,10l6.5,1.7l9.7,9.7c0.4,0.4,0.8,0.5,1.3,0.5s0.9-0.2,1.3-0.5
	C22.1,20.7,22.1,19.5,21.4,18.8z M10.2,9L9,10.2L3.7,8.8c0.1-0.3,0.7-1.2,0.7-1.2c1-1.6,2.5-2.9,4.4-3.8L10.2,9z M20.4,20.4
	c-0.2,0.2-0.4,0.2-0.6,0l-9.5-9.5l0.6-0.6l9.5,9.5c0.1,0.1,0.1,0.2,0.1,0.3S20.5,20.3,20.4,20.4z"/>
</svg>
