<?xml version="1.0" encoding="utf-8"?>
<!-- Generator: Adobe Illustrator 25.4.1, SVG Export Plug-In . SVG Version: 6.00 Build 0)  -->
<svg version="1.1" id="Layer_1" xmlns="http://www.w3.org/2000/svg" xmlns:xlink="http://www.w3.org/1999/xlink" x="0px" y="0px"
	 viewBox="0 0 24 24" style="enable-background:new 0 0 24 24;" xml:space="preserve">
<path d="M15.1,12.5l0-2.9c0-0.3-0.3-0.6-0.6-0.6h-0.1l0-7c0-0.5,0-0.7-0.1-0.9c0,0-0.1-0.1-0.1-0.1V1L14.1,1c-0.3-0.1-0.6,0.1-1,0.4
	l-1.7,1.3C10.2,3.6,9.5,5,9.5,6.4l0,2.5h0C9.1,9,8.9,9.3,8.9,9.6v2.9h0c-0.3,0-0.6,0.3-0.6,0.6v9.3c0,0.3,0.3,0.6,0.6,0.6h6.3
	c0.3,0,0.6-0.3,0.6-0.6v-9.3C15.8,12.7,15.5,12.5,15.1,12.5z M10.8,6.4c0-1.1,0.5-2.1,1.4-2.7L13.2,3v6l-2.4,0V6.4z M10.1,12.5v-2.2
	h3.8l0,2.2H10.1z M14.5,15.3v6.4h-5v-6.4H14.5z M9.5,14.1v-0.4h5v0.4H9.5z"/>
</svg>
