<?xml version="1.0" encoding="utf-8"?>
<!-- Generator: Adobe Illustrator 25.4.1, SVG Export Plug-In . SVG Version: 6.00 Build 0)  -->
<svg version="1.1" id="Layer_1" xmlns="http://www.w3.org/2000/svg" xmlns:xlink="http://www.w3.org/1999/xlink" x="0px" y="0px"
	 viewBox="0 0 24 24" style="enable-background:new 0 0 24 24;" xml:space="preserve">
<path d="M22.7,15.6c-1.1-0.4-2-1-2.5-1.4c0.8-2.1,0.7-4.4,0.6-5.7V8c0-0.3-0.2-0.5-0.5-0.6c-2-0.5-3.6,0.2-4.5,0.8
	c-1.2-2.8-3.3-4.9-3.4-5c0,0-0.2-0.3-0.5-0.3c-0.3,0-0.4,0.2-0.5,0.4l0,0l0,0l0,0c-0.1,0.1-2.2,2.2-3.4,5C7.3,7.6,5.7,6.9,3.7,7.4
	C3.4,7.4,3.2,7.7,3.2,8v0.5C3.1,9.8,3,12,3.8,14.2c-0.5,0.3-1.4,1-2.5,1.4c-0.3,0.1-0.5,0.5-0.4,0.8c0.5,1.5,2.1,3.3,4.3,4.2
	C5.9,20.8,6.7,21,7.7,21c1.2,0,2.6-0.3,4.3-1.1c1.6,0.8,3,1.1,4.3,1.1c1,0,1.9-0.2,2.5-0.5c2.3-0.8,3.8-2.7,4.3-4.2
	C23.2,16.1,23.1,15.7,22.7,15.6z M16.3,9.4C16.8,9,18,8.3,19.5,8.5c0.1,2.8,0.4,7.6-5.1,9.4c1.1-1.3,2.2-3.3,2.2-6.4
	C16.6,10.8,16.5,10.1,16.3,9.4z M9.1,9.4L9.1,9.4c0.7-2.2,2.2-4,2.9-4.8c0.7,0.8,2.2,2.7,2.9,4.8l0,0c0.2,0.7,0.4,1.4,0.4,2.2
	c0,4.3-2.4,6.3-3.3,6.9c-0.9-0.6-3.3-2.5-3.3-6.9C8.7,10.8,8.9,10.1,9.1,9.4z M4.5,8.5C6,8.3,7.2,9,7.7,9.4
	c-0.2,0.7-0.3,1.4-0.3,2.2c0,3.1,1.1,5.1,2.2,6.4C4.1,16.1,4.3,11.3,4.5,8.5z M5.7,19.4c-1.6-0.6-2.7-1.8-3.3-2.9
	c0.8-0.4,1.5-0.8,2-1.1c0.9,1.7,2.6,3.2,5.5,4C8.4,19.9,7,19.9,5.7,19.4z M18.3,19.4c-1.3,0.5-2.7,0.5-4.2,0c2.9-0.8,4.6-2.3,5.5-4
	c0.5,0.3,1.2,0.7,2,1.1C21.1,17.6,19.9,18.8,18.3,19.4z"/>
</svg>
