<?xml version="1.0" encoding="utf-8"?>
<!-- Generator: Adobe Illustrator 25.4.1, SVG Export Plug-In . SVG Version: 6.00 Build 0)  -->
<svg version="1.1" id="Layer_1" xmlns="http://www.w3.org/2000/svg" xmlns:xlink="http://www.w3.org/1999/xlink" x="0px" y="0px"
	 viewBox="0 0 24 24" style="enable-background:new 0 0 24 24;" xml:space="preserve">
<path d="M14.6,12.2C14.6,12.2,14.6,12.2,14.6,12.2c-0.8-3-1.6-6.3-0.5-7.8c0.1-0.1,0.1-0.2,0.1-0.4c0.2-0.3,0.3-0.6,0.3-0.9
	c0-1.1-1.1-1.9-2.4-1.9c-1.4,0-2.4,0.8-2.4,1.9c0,0.3,0.1,0.7,0.3,0.9c0,0.2,0.1,0.3,0.2,0.4c1.2,1.2,0.3,4.2-0.5,7l-0.2,0.6
	c0,0,0,0,0,0c-0.7,1-1.7,2.9-1.7,5.2c0,3.1,1.4,4.5,2.6,5.2c0.1,0,0.2,0.1,0.3,0.1c0.5,0,1,0.1,1.4,0.1s1,0,1.4-0.1
	c0.1,0,0.2,0,0.3-0.1c1.2-0.7,2.6-2.1,2.6-5.2C16.3,15.2,15.2,13.2,14.6,12.2z M11.7,4.8c0.1,0,0.2,0,0.3,0h0.4c0,0,0.1,0,0.1,0
	c-0.7,1.9-0.1,4.6,0.6,7c-0.8,0-1.5,0-2.3,0C11.6,9.2,12.4,6.6,11.7,4.8z M13.1,3.5c-0.2,0-0.5,0-0.7,0h-0.3c-0.3,0-0.7,0-1,0
	c-0.1-0.1-0.2-0.2-0.2-0.3C10.9,3,11,2.9,11,2.9c0.2-0.2,0.6-0.4,1.1-0.4c0.7,0,1.2,0.4,1.2,0.7C13.3,3.3,13.2,3.4,13.1,3.5z
	 M13.6,13c0.6,0.9,1.4,2.5,1.4,4.4c0,1.9-0.6,3.3-1.8,4c-0.8,0.1-1.6,0.1-2.4,0c-1.2-0.7-1.8-2.1-1.8-4c0-1.9,0.9-3.5,1.4-4.4
	C11.5,13.1,12.5,13.1,13.6,13z M14.3,12.3L14.3,12.3L14.3,12.3L14.3,12.3z"/>
</svg>
