<?xml version="1.0" encoding="utf-8"?>
<!-- Generator: Adobe Illustrator 25.4.1, SVG Export Plug-In . SVG Version: 6.00 Build 0)  -->
<svg version="1.1" id="Layer_1" xmlns="http://www.w3.org/2000/svg" xmlns:xlink="http://www.w3.org/1999/xlink" x="0px" y="0px"
	 viewBox="0 0 24 24" style="enable-background:new 0 0 24 24;" xml:space="preserve">
<path d="M18.5,13.6l-0.1-0.2c-0.1-0.1-0.1-0.2-0.2-0.4c-0.2-0.6-0.5-1-0.5-1.5c-0.1-0.7,0.1-1.8,0.2-2.9C18,8.2,18,7.8,18.1,7.4
	c0.2-1.4,0.3-2.6,0.3-3V4.2c0-0.6,0-1.4-0.6-2.2c-0.2-0.2-0.4-0.4-0.7-0.6c-0.1-0.1-0.1-0.2-0.2-0.2c-0.2-0.2-0.3-0.3-0.5-0.4
	c-0.2-0.1-0.6,0.1-0.7,0.1c0,0-2.4,1.7-3.6,3.4C11,2.6,8.6,1,8.5,0.9c0,0-0.4-0.2-0.8-0.1C7.5,0.9,7.4,1,7.3,1.2
	C7.2,1.3,7.1,1.4,7.1,1.4C6.8,1.6,6.6,1.8,6.3,2.1C5.7,2.8,5.7,3.6,5.7,4.2v0.2c0,0.4,0.1,1.8,0.3,3c0.1,0.4,0.1,0.9,0.2,1.3
	c0.2,1.1,0.3,2.2,0.3,2.8C6.4,12,6.2,12.4,6,13c-0.1,0.1-0.1,0.2-0.2,0.4l-0.1,0.2c-0.4,0.8-0.8,1.8-0.7,2.9c0,0.1,1.9,3.7,6,6.5
	c0.1,0.1,0.7,0.3,1.2,0.3c0.4,0,0.9-0.3,0.9-0.3l0,0c4.1-2.8,6-6.3,6-6.5C19.3,15.4,18.8,14.4,18.5,13.6z M7.6,8.4
	C7.4,7.7,7.2,5.2,7.2,4.3V4.1c0-0.5,0-0.8,0.3-1C7.6,3,7.7,2.8,7.8,2.7c0.1-0.2,0.3-0.3,0.4-0.3c0.2,0,2.2,1.6,3.1,3.8
	c0.1,0.2,0.4,0.3,0.7,0.3h0.1c0.1,0.1,0.2,0.1,0.4,0c0.1-0.1,0.3-0.2,0.3-0.3c1-2.2,3-3.8,3.2-3.8c0.1,0,0.3,0.2,0.4,0.3
	c0.1,0.1,0.2,0.3,0.3,0.3C17,3.3,17,3.6,17,4.1v0.2c0,0.9-0.2,3.4-0.4,4.1c-0.1,0.6-0.4,2.1-0.3,3.2c0.1,0.6,0.3,1.2,0.6,1.7
	c0.1,0.2,0.1,0.3,0.2,0.5c0.1,0.2,0.2,0.4,0.2,0.6c0.2,0.6,0.5,1.1,0.5,1.7l-0.3,0.5l-0.1,0.1c-0.7,1.1-2.1,3-4.6,4.8
	c0,0-0.4,0.4-0.7,0.4s-0.7-0.4-0.7-0.4l0,0c-2.5-1.7-3.8-3.7-4.6-4.7l-0.1-0.1l-0.3-0.5c0-0.6,0.2-1.1,0.5-1.7
	C6.9,14.2,7,14,7.1,13.8c0.1-0.2,0.1-0.3,0.2-0.5c0.3-0.5,0.5-1.1,0.6-1.8C8,10.4,7.7,9,7.6,8.4z"/>
</svg>
