<?xml version="1.0" encoding="utf-8"?>
<!-- Generator: Adobe Illustrator 25.4.1, SVG Export Plug-In . SVG Version: 6.00 Build 0)  -->
<svg version="1.1" id="Layer_1" xmlns="http://www.w3.org/2000/svg" xmlns:xlink="http://www.w3.org/1999/xlink" x="0px" y="0px"
	 viewBox="0 0 24 24" style="enable-background:new 0 0 24 24;" xml:space="preserve">
<g>
	<path d="M21.4,8.5c-0.5-2.3-2.4-3-3.8-3.2c0-0.5-0.1-1-0.3-1.5c-0.6-1.4-1.8-3-3.8-3c-1.5,0-2.9,0.7-3.7,2c-0.3,0.5-0.5,1-0.6,1.6
		C8.4,3.6,7.2,3,5.3,3.3c-2.2,0.4-3,2.3-2.8,3.8c0.1,1.4,1,2.8,2.5,3.2c-0.2,0.6-0.5,1.4-0.2,2.4c0.2,0.6-0.2,1.1-0.5,1.7
		c-0.3,0.5-0.6,0.9-0.5,1.4c0,0.1,0.1,0.4,0.1,0.7c0.2,0.9,0.3,1.6,0.5,2.2l0,0c0.3,1.2,0.7,1.8,1.3,1.9c0.2,0,0.3,0,0.5,0
		c0.8,0,1.5-0.2,2-0.4v2.4c0,0.3,0.2,0.5,0.5,0.5s0.5-0.2,0.5-0.5v-2.9c0.2-0.2,0.5-0.3,0.7-0.5c0.5-0.4,0.8-0.6,1.2-0.6
		c0.3,0.1,0.5-0.1,0.6-0.4s-0.1-0.5-0.4-0.6c-0.8-0.2-1.4,0.3-2,0.7c-0.8,0.6-1.7,1.3-3.4,1.2c-0.1-0.1-0.2-0.3-0.3-0.6
		c0.4-0.1,1-0.3,1.4-0.8c0.2-0.2,0.2-0.5,0-0.7s-0.5-0.2-0.7,0c-0.3,0.3-0.7,0.4-1,0.5c-0.1-0.5-0.2-1-0.3-1.7
		c-0.1-0.4-0.1-0.6-0.1-0.8c0-0.1,0.2-0.4,0.3-0.6c0.4-0.6,0.9-1.5,0.6-2.5c-0.2-0.8,0.1-1.6,0.3-2c0.7,0,1.3-0.1,1.8-0.4
		c0,0.3,0,0.6,0.1,0.9c0.3,1.4,1.1,2.2,2.4,2.4c0.2,0,0.4,0,0.5,0c1.3,0,2.2-0.7,2.7-1.5l2.1-0.1c0.5,0.5,1.1,0.9,1.7,1
		c0.3,0.7,1.2,2.9-0.6,4.3c-0.9,0.7-2.1,0.9-3,0.4C13,16.8,12.5,16,12.6,15s0.7-1.4,1.1-1.5c0.8-0.3,1.6,0,2,0.3
		c0.6,0.6,0.5,1.3,0.1,1.8c-0.3,0.3-0.7,0.6-1.3,0.3c-0.4-0.2-0.6-0.5-0.6-0.7s0.1-0.3,0.2-0.4c0,0,0.1-0.1,0.3,0.1
		c0.2,0.2,0.5,0.2,0.7,0s0.2-0.5,0-0.7c-0.4-0.4-0.9-0.5-1.4-0.3s-0.8,0.7-0.9,1.2c0,0.3,0,1.1,1.1,1.7c0.9,0.5,1.9,0.2,2.6-0.6
		c0.6-0.7,0.8-2-0.2-3.1c-0.7-0.7-2-1-3-0.6s-1.7,1.2-1.8,2.4c-0.1,1.3,0.5,2.5,1.6,3.2c-0.2,0.5-0.4,1.6,0.3,2.6
		c0.8,1.1,1.4,1.6,1.5,1.6c0.1,0.1,0.2,0.1,0.3,0.1c0.2,0,0.3-0.1,0.4-0.2c0.1-0.2,0.1-0.5-0.2-0.7c0,0-0.5-0.4-1.2-1.3
		c-0.4-0.6-0.3-1.3-0.2-1.6c0.3,0.1,0.6,0.1,0.8,0.1c0.8,0,1.7-0.3,2.4-0.9c1.8-1.4,1.8-3.8,1.3-5.2C18.9,12.6,22.2,11.8,21.4,8.5z
		 M10.6,3.4c0.6-1,1.7-1.6,2.8-1.5c1.3,0,2.2,1.1,2.5,1.7c0.6,1,0.6,1.9,0.6,2c-1.8,1.8-2.6,1.5-3.9,1c-0.3-0.1-0.5-0.2-0.8-0.3
		c-0.1-0.5-0.1-1.4,0.3-2c0.2-0.3,0.5-0.4,1-0.4c0.6,0,1.1,0.2,1.3,0.6c0.1,0.2,0.1,0.4,0,0.5S14,5.1,13.7,5s-0.5,0-0.6,0.3
		s0,0.5,0.3,0.6c1,0.4,1.6,0,1.8-0.2c0.4-0.4,0.5-1,0.2-1.6C15,3.4,14.1,2.9,13.1,3c-1,0-1.5,0.4-1.8,0.8c-0.6,0.7-0.6,1.8-0.5,2.5
		c-0.2,0-0.4,0.1-0.6,0.1C9.9,5.4,10,4.3,10.6,3.4z M8.3,6C7.5,5,6.1,4.9,5.2,5.3C4.4,5.8,4,6.7,4.4,7.5c0.3,0.7,0.7,1,1,1.1
		C6.2,8.8,6.9,8.3,7,8.3c0.2-0.2,0.3-0.5,0.1-0.7C6.9,7.3,6.6,7.3,6.4,7.4C6.3,7.5,5.9,7.7,5.7,7.6c-0.1,0-0.3-0.2-0.4-0.5
		C5.1,6.6,5.5,6.4,5.7,6.2C6.2,5.9,7,6,7.5,6.6c0.4,0.5,0.7,1.5,0.4,2.1c-0.3,0.6-1.3,0.7-2,0.8c-1.5,0-2.3-1.2-2.4-2.4
		C3.4,5.9,4,4.6,5.5,4.3C5.7,4.2,6,4.2,6.3,4.2c2,0,2.7,1.6,3.1,2.5v0.1C9.2,7,9,7.2,8.9,7.3C8.7,6.8,8.5,6.4,8.3,6z M10.4,12.3
		c-0.8-0.1-1.3-0.6-1.5-1.6c-0.3-1.2,0.2-2.5,1.2-3.2l0.1-0.1l0,0l0,0c0.4-0.2,0.8-0.3,1.2-0.2c0.3,0.1,0.5,0.2,0.8,0.3
		c0.3,0.1,0.5,0.2,0.8,0.3c0.2,0.5,0.8,1.6,1.7,2.8l0,0c0,0,0,0.1,0.1,0.1l-1.1,0.1c0.1-1-0.5-2.2-2-2.6c-1.3-0.4-1.9,0.3-2.1,0.6
		C9.2,9.5,9.2,10.4,9.7,11c0.4,0.5,1,0.7,1.7,0.4c0.3-0.1,0.4-0.4,0.3-0.6c-0.1-0.3-0.4-0.4-0.6-0.3c-0.3,0.1-0.5,0-0.5-0.1
		c-0.2-0.2-0.2-0.6,0-0.9c0.2-0.3,0.7-0.3,1-0.2c1.1,0.3,1.2,1.1,1.1,1.8C12.4,11.8,11.8,12.5,10.4,12.3z M19.2,11.6
		c-0.8,0.4-2.2,0.4-3.3-1c-0.1-0.1-0.6-1.1,0.1-2.1c0.5-0.5,2.1-1,2.8,0.2c0.2,0.5,0.2,1,0,1.3c-0.2,0.2-0.6,0.4-0.9,0.3
		c-0.4-0.1-0.5-0.3-0.5-0.5s0.2-0.4,0.3-0.4c0.2,0.2,0.5,0.2,0.7,0s0.2-0.5,0-0.7c-0.3-0.3-0.8-0.4-1.2-0.2
		c-0.5,0.3-0.9,0.9-0.8,1.5c0,0.3,0.2,1,1.2,1.3c0.2,0.1,0.4,0.1,0.6,0.1c0.5,0,0.9-0.2,1.2-0.5c0.6-0.6,0.7-1.7,0.3-2.5
		c-0.4-0.8-1.1-1.3-2-1.3c-1.1,0-1.9,0.3-2.4,0.9c-0.3,0.3-0.4,0.7-0.5,1c-0.2-0.3-0.4-0.7-0.5-0.9c0.8,0,1.7-0.5,2.9-1.7
		c0.7,0,2.8,0.3,3.2,2.4C20.8,10,20.3,11.1,19.2,11.6z"/>
	<path d="M6.4,13c-0.3,0.1-0.4,0.4-0.3,0.6c0.1,0.3,0.4,0.4,0.6,0.3c0,0,0.4-0.2,0.9-0.1c0.5,0.1,0.9,0.4,0.9,0.4
		c0.1,0.1,0.2,0.1,0.3,0.1c0.2,0,0.3-0.1,0.4-0.2c0.2-0.2,0.1-0.5-0.1-0.7c0,0-0.6-0.4-1.3-0.6C7.1,12.7,6.4,12.9,6.4,13z"/>
</g>
</svg>
