<?xml version="1.0" encoding="utf-8"?>
<!-- Generator: Adobe Illustrator 25.4.1, SVG Export Plug-In . SVG Version: 6.00 Build 0)  -->
<svg version="1.1" id="Layer_1" xmlns="http://www.w3.org/2000/svg" xmlns:xlink="http://www.w3.org/1999/xlink" x="0px" y="0px"
	 viewBox="0 0 24 24" style="enable-background:new 0 0 24 24;" xml:space="preserve">
<path d="M19.9,10.9c1.3-1.1,2.3-2.5,3.1-4.2c0.2-0.5,0-1.2-0.5-1.4c-0.5-0.3-1.2,0-1.4,0.5c-1.7,3.6-5.1,5.9-9,5.9S4.6,9.5,3,5.9
	C2.7,5.3,2.1,5.1,1.5,5.4C1,5.6,0.8,6.2,1,6.8c0.8,1.6,1.8,3,3.1,4.2l-3,4.1c-0.3,0.5-0.2,1.2,0.2,1.5c0.2,0.1,0.4,0.2,0.6,0.2
	c0.3,0,0.7-0.2,0.9-0.4l3-4.1c1.5,0.9,3.2,1.5,5.1,1.6v3.8c0,0.6,0.5,1.1,1.1,1.1s1.1-0.5,1.1-1.1v-3.8c1.8-0.2,3.6-0.7,5.1-1.6
	l3,4.1c0.2,0.3,0.5,0.4,0.9,0.4c0.2,0,0.4-0.1,0.6-0.2c0.5-0.3,0.6-1,0.2-1.5L19.9,10.9z"/>
</svg>
