<?xml version="1.0" encoding="utf-8"?>
<!-- Generator: Adobe Illustrator 25.4.1, SVG Export Plug-In . SVG Version: 6.00 Build 0)  -->
<svg version="1.1" id="Layer_1" xmlns="http://www.w3.org/2000/svg" xmlns:xlink="http://www.w3.org/1999/xlink" x="0px" y="0px"
	 viewBox="0 0 24 24" style="enable-background:new 0 0 24 24;" xml:space="preserve">
<g>
	<path d="M20.9,4H16V2.7c0-0.5-0.2-1-0.6-1.4C15,1,14.6,0.7,14,0.8h-4C9.4,0.8,9,1,8.6,1.3C8.2,1.7,8,2.2,8,2.7V4H3.1
		C2.7,4,2.4,4.3,2.4,4.7s0.3,0.8,0.8,0.8H4l1,15.4c0.1,1.3,1.1,2.3,2.4,2.3h9.3c1.3,0,2.3-1,2.4-2.3l1-15.5H21
		c0.4,0,0.9-0.1,0.9-0.7S21.3,4,20.9,4z M9.5,2.7c0-0.1,0-0.2,0.1-0.3S9.9,2.3,10,2.3h4c0.2,0,0.5,0.2,0.5,0.5V4h-5V2.7z M17.5,20.8
		c0,0.5-0.4,0.9-0.9,0.9H7.4c-0.5,0-0.8-0.4-0.9-0.9l-1-15.4h12.9L17.5,20.8z"/>
	<path d="M12,7.2c-0.4,0-0.8,0.3-0.8,0.8v11.3c0,0.4,0.3,0.8,0.8,0.8s0.8-0.3,0.8-0.8V8C12.8,7.5,12.4,7.2,12,7.2z"/>
	<path d="M8.3,7.2C7.9,7.2,7.6,7.6,7.6,8L8,19.3C8,19.7,8.4,20,8.8,20l0,0c0.4,0,0.7-0.4,0.7-0.8L9.1,7.9C9.1,7.5,8.8,7.2,8.3,7.2z"
		/>
	<path d="M14.9,7.9l-0.4,11.3c0,0.4,0.3,0.8,0.7,0.8l0,0c0.4,0,0.7-0.3,0.8-0.7L16.4,8c0-0.4-0.3-0.8-0.7-0.8
		C15.3,7.2,14.9,7.5,14.9,7.9z"/>
</g>
</svg>
