<?xml version="1.0" encoding="utf-8"?>
<!-- Generator: Adobe Illustrator 25.4.1, SVG Export Plug-In . SVG Version: 6.00 Build 0)  -->
<svg version="1.1" id="Layer_1" xmlns="http://www.w3.org/2000/svg" xmlns:xlink="http://www.w3.org/1999/xlink" x="0px" y="0px"
	 viewBox="0 0 24 24" style="enable-background:new 0 0 24 24;" xml:space="preserve">
<g>
	<path d="M12,23.4c-0.4,0-0.7,0-1.1,0c-3-0.3-5.8-1.7-7.8-4.1c-2-2.4-2.9-5.3-2.6-8.4C1.1,5.4,5.5,1.1,11,0.6c0.4,0,0.7,0.1,0.9,0.5
		C12,1.4,12,1.8,11.8,2c-1.2,1.6-1.6,3.5-1.3,5.4s1.3,3.6,2.9,4.8c2.6,1.9,6,1.9,8.6,0c0.3-0.2,0.7-0.2,1-0.1
		c0.3,0.2,0.5,0.5,0.5,0.9C22.9,19,17.9,23.4,12,23.4z M9.3,2.8c-3.7,1.1-6.4,4.4-6.8,8.3c-0.2,2.6,0.5,5,2.2,7
		c1.6,2,3.9,3.2,6.5,3.4c4.6,0.4,8.8-2.5,10.1-6.8c-2.9,1.3-6.3,0.9-9-1.1c-2-1.4-3.2-3.6-3.6-6C8.4,6,8.6,4.3,9.3,2.8z"/>
</g>
</svg>
