<?xml version="1.0" encoding="utf-8"?>
<!-- Generator: Adobe Illustrator 25.4.1, SVG Export Plug-In . SVG Version: 6.00 Build 0)  -->
<svg version="1.1" id="Layer_1" xmlns="http://www.w3.org/2000/svg" xmlns:xlink="http://www.w3.org/1999/xlink" x="0px" y="0px"
	 viewBox="0 0 24 24" style="enable-background:new 0 0 24 24;" xml:space="preserve">
<style type="text/css">
	.st0{fill-rule:evenodd;clip-rule:evenodd;}
</style>
<g>
	<path d="M19.9,19.1c1.3-1.1,2.3-2.5,3.1-4.2c0,0,0-0.1,0-0.1c0,0,0,0,0,0c0-0.1,0.1-0.2,0.1-0.3c0-0.2,0-0.3-0.1-0.5
		c-0.8-1.6-1.8-3-3.1-4.2l3-4.1c0.3-0.5,0.2-1.2-0.2-1.5C22.4,4.1,22.2,4,22,4c-0.3,0-0.7,0.2-0.9,0.4l-3,4.1
		c-1.5-0.9-3.2-1.5-5.1-1.6V2c0-0.6-0.5-1.1-1.1-1.1S10.9,1.4,10.9,2v4.9C9.1,7.1,7.4,7.6,5.9,8.5l-3-4.1C2.7,4.2,2.3,4,2,4
		C1.8,4,1.6,4.1,1.4,4.2c-0.5,0.3-0.6,1-0.2,1.5l3,4.1C2.8,10.9,1.8,12.3,1,14c0,0,0,0.1,0,0.1c0,0,0,0,0,0c0,0.1-0.1,0.2-0.1,0.3
		c0,0.2,0,0.3,0.1,0.5c0.8,1.6,1.8,3,3.1,4.2l1.7,1.3c1.5,0.9,3.2,1.5,5.1,1.6h2.2c1.8-0.2,3.6-0.7,5.1-1.6L19.9,19.1z M12,19.9
		c-3.7,0-7.1-2.1-8.8-5.5C4.9,11.1,8.3,9,12,9c3.7,0,7.1,2.1,8.8,5.5C19.1,17.8,15.7,19.9,12,19.9z"/>
	<path class="st0" d="M15,14.4c0,1.6-1.3,3-3,3s-3-1.3-3-3s1.3-3,3-3S15,12.8,15,14.4z"/>
</g>
</svg>
