<?xml version="1.0" encoding="utf-8"?>
<!-- Generator: Adobe Illustrator 25.4.1, SVG Export Plug-In . SVG Version: 6.00 Build 0)  -->
<svg version="1.1" id="Layer_1" xmlns="http://www.w3.org/2000/svg" xmlns:xlink="http://www.w3.org/1999/xlink" x="0px" y="0px"
	 viewBox="0 0 24 24" style="enable-background:new 0 0 24 24;" xml:space="preserve">
<g>
	<path d="M12,12.3c3,0,5.5-2.5,5.5-5.5S15,1.3,12,1.3c-3,0-5.5,2.5-5.5,5.5S9,12.3,12,12.3z M12,3.3c1.9,0,3.5,1.6,3.5,3.5
		s-1.6,3.5-3.5,3.5S8.5,8.7,8.5,6.8S10.1,3.3,12,3.3z"/>
	<path d="M12.8,13.3h-1.5c-4.7,0-8.5,3.8-8.5,8.5c0,0.6,0.4,1,1,1h16.5c0.6,0,1-0.4,1-1C21.2,17.1,17.4,13.3,12.8,13.3z M11.2,15.3
		h1.5c3.2,0,5.9,2.3,6.4,5.5H4.8C5.3,17.6,8,15.3,11.2,15.3z"/>
</g>
</svg>
