<?xml version="1.0" encoding="utf-8"?>
<!-- Generator: Adobe Illustrator 25.4.1, SVG Export Plug-In . SVG Version: 6.00 Build 0)  -->
<svg version="1.1" id="Layer_1" xmlns="http://www.w3.org/2000/svg" xmlns:xlink="http://www.w3.org/1999/xlink" x="0px" y="0px"
	 viewBox="0 0 24 24" style="enable-background:new 0 0 24 24;" xml:space="preserve">
<g>
	<path d="M12,4H8.1C7.7,4,7.3,4.4,7.3,4.8s0.3,0.8,0.8,0.8l3.9,0c0,0,0,0,0.1,0c0.1,0,0.3,0,0.5-0.2c0.2-0.1,0.2-0.3,0.2-0.6
		C12.8,4.3,12.5,4,12,4z"/>
	<path d="M20,10.7c-0.6-1.5-1.8-2.7-3.3-3.4V4.7c0-1.8-1.5-3.3-3.2-3.3H6.6c-1.8,0-3.2,1.4-3.2,3.2v14.7c0,1.8,1.4,3.2,3.2,3.2h6.8
		c1.7,0,3.1-1.4,3.2-3.1C19.9,17.8,21.4,14,20,10.7z M15.1,6.7c-0.4-0.1-0.8-0.1-1.2-0.1c-1.7,0-3.3,0.7-4.5,1.8V8.1
		c0-0.4-0.3-0.8-0.8-0.8S7.8,7.7,7.8,8.1v10.5c0,0.4,0.3,0.8,0.8,0.8s0.8-0.3,0.8-0.8v-0.4c1.2,1.1,2.9,1.8,4.5,1.8
		c0.4,0,0.7,0,1.2-0.1c-0.1,0.7-0.8,1.2-1.6,1.2H6.6c-1,0-1.7-0.8-1.7-1.7V4.6c0-1,0.8-1.7,1.7-1.7h6.8c1,0,1.7,0.8,1.7,1.7V6.7z
		 M9.5,10.8c1.4-2.5,4.5-3.4,7-2.1c1.2,0.7,2.1,1.8,2.5,3.1c0.4,1.3,0.3,2.7-0.4,3.9c-0.9,1.7-2.7,2.8-4.5,2.8c-1.9,0-3.7-1-4.5-2.6
		V10.8z"/>
	<path d="M13.8,15.2h-1.3c-0.4,0-0.8,0.3-0.8,0.8s0.3,0.8,0.8,0.8h0.6c0,0.4,0.4,0.7,0.8,0.7c0.4,0,0.8-0.3,0.8-0.8v0
		c0.6-0.2,1.1-0.6,1.3-1.1c0.3-0.5,0.3-1.1,0.1-1.7c-0.3-0.8-1.3-1.1-2.1-1.1c-0.4,0-0.6-0.3-0.6-0.6c0-0.4,0.2-0.7,0.6-0.7h1.3
		c0.4,0,0.8-0.3,0.8-0.8c0-0.5-0.5-0.7-0.8-0.7h-0.6c0-0.4-0.4-0.7-0.8-0.7c-0.4,0-0.8,0.3-0.8,0.8v0c-1.1,0.4-1.6,1.6-1.2,2.6
		c0.3,0.8,1,1.3,1.9,1.3c0.4,0,0.6,0.3,0.6,0.6S14.2,15.2,13.8,15.2z"/>
</g>
</svg>
