<?xml version="1.0" encoding="utf-8"?>
<!-- Generator: Adobe Illustrator 25.4.1, SVG Export Plug-In . SVG Version: 6.00 Build 0)  -->
<svg version="1.1" id="Layer_1" xmlns="http://www.w3.org/2000/svg" xmlns:xlink="http://www.w3.org/1999/xlink" x="0px" y="0px"
	 viewBox="0 0 24 24" style="enable-background:new 0 0 24 24;" xml:space="preserve">
<g>
	<path d="M12,8.3c-2.9,0-5.3,2.4-5.3,5.3c0,2.9,2.4,5.3,5.3,5.3c2.9,0,5.3-2.4,5.3-5.3C17.3,10.6,14.9,8.3,12,8.3z M12,17.7
		c-2.3,0-4.1-1.9-4.1-4.1c0-2.3,1.9-4.1,4.1-4.1s4.1,1.9,4.1,4.1C16.1,15.8,14.3,17.7,12,17.7z"/>
	<path d="M12,12.9C12,12.9,12,12.9,12,12.9c-0.1,0-0.2,0-0.2-0.1s-0.1-0.1-0.1-0.2c0-0.1,0-0.1,0.1-0.2s0.1-0.1,0.2-0.1
		c0.1,0,0.2,0.1,0.2,0.2c0.1,0.1,0.2,0.3,0.3,0.3c0.1,0.1,0.3,0.1,0.4,0c0.3-0.1,0.4-0.4,0.3-0.7c-0.1-0.4-0.4-0.7-0.7-0.8v-0.3
		c0-0.3-0.3-0.6-0.6-0.6s-0.6,0.3-0.6,0.6v0.3c-0.7,0.3-1,1.1-0.8,1.8c0.2,0.6,0.7,1,1.3,1c0,0,0,0,0.1,0c0,0,0,0,0,0
		c0.1,0,0.2,0,0.3,0.1c0.1,0.1,0.1,0.2,0.1,0.3s0,0.2-0.1,0.3C12.3,15,12.1,15,12,15h0c0,0,0,0,0,0c-0.2,0-0.4-0.2-0.5-0.4
		c-0.1-0.3-0.4-0.5-0.7-0.4c-0.2,0-0.3,0.1-0.4,0.2c-0.1,0.1-0.1,0.3-0.1,0.4c0.1,0.5,0.5,1,1,1.2v0c0,0.3,0.3,0.6,0.6,0.6
		s0.6-0.3,0.6-0.6v0c0.4-0.1,0.7-0.4,0.9-0.8c0.2-0.4,0.2-0.8,0.1-1.2C13.4,13.4,12.7,12.9,12,12.9z"/>
	<path d="M19.7,2.7h-0.8c0-0.8-0.7-1.4-1.5-1.4S16,1.9,16,2.7h-2.5c0-0.8-0.7-1.4-1.5-1.4s-1.4,0.6-1.5,1.4H8c0-0.8-0.7-1.4-1.5-1.4
		S5.1,1.9,5.1,2.7H4.3c-1.1,0-2,0.9-2,2v16.1c0,1.1,0.9,2,2,2h15.4c1.1,0,2-0.9,2-2V4.7C21.7,3.5,20.8,2.7,19.7,2.7z M17.8,18.3
		c0-0.4,0.4-0.8,0.8-0.8h1l-1.8,1.8V18.3z M16.7,18.3V20c0,0.1,0,0.1-0.1,0.1l-12.2,0c-0.4,0-0.8-0.4-0.8-0.8v-12h17v8.9
		c0,0.1,0,0.1-0.1,0.1h-1.8C17.5,16.3,16.7,17.2,16.7,18.3z M4.3,21.3C4.3,21.3,4.3,21.3,4.3,21.3l12.4,0c0.5,0,1-0.2,1.4-0.6
		l2.4-2.4v2.4c0,0.4-0.4,0.8-0.8,0.8H4.3c-0.3,0-0.5-0.1-0.6-0.3C3.9,21.3,4.1,21.3,4.3,21.3z M6.6,5.6C7.4,5.6,8,4.9,8,4.1V3.8h2.5
		v0.3c0,0.8,0.7,1.5,1.5,1.5c0.8,0,1.5-0.7,1.5-1.5V3.8H16v0.3c0,0.8,0.7,1.5,1.5,1.5s1.5-0.7,1.5-1.5V3.8h0.8
		c0.4,0,0.8,0.4,0.8,0.8v1.5h-17V4.7c0-0.4,0.4-0.8,0.8-0.8h0.8v0.3C5.1,4.9,5.8,5.6,6.6,5.6z M17.7,4.1c0,0.2-0.1,0.3-0.3,0.3
		s-0.3-0.1-0.3-0.3V2.7c0-0.2,0.1-0.3,0.3-0.3s0.3,0.1,0.3,0.3V4.1z M12.3,4.1c0,0.2-0.1,0.3-0.3,0.3s-0.3-0.1-0.3-0.3V2.7
		c0-0.2,0.1-0.3,0.3-0.3s0.3,0.1,0.3,0.3V4.1z M6.9,4.1c0,0.2-0.1,0.3-0.3,0.3c-0.2,0-0.3-0.1-0.3-0.3V2.7c0-0.2,0.1-0.3,0.3-0.3
		c0.2,0,0.3,0.1,0.3,0.3V4.1z"/>
</g>
</svg>
