<?xml version="1.0" encoding="utf-8"?>
<!-- Generator: Adobe Illustrator 25.4.1, SVG Export Plug-In . SVG Version: 6.00 Build 0)  -->
<svg version="1.1" id="Layer_1" xmlns="http://www.w3.org/2000/svg" xmlns:xlink="http://www.w3.org/1999/xlink" x="0px" y="0px"
	 viewBox="0 0 24 24" style="enable-background:new 0 0 24 24;" xml:space="preserve">
<g>
	<path d="M12,1.2C6,1.2,1.2,6,1.2,12S6,22.8,12,22.8S22.8,18,22.8,12S18,1.2,12,1.2z M12,20.9c-4.9,0-8.9-4-8.9-8.9s4-8.9,8.9-8.9
		s8.9,4,8.9,8.9S16.9,20.9,12,20.9z"/>
	<g>
		<path d="M7.9,18.2C8.6,18.5,7.9,18.2,7.9,18.2c0.5,0.2,1.1-0.1,1.3-0.6c0.4-1.2,1.5-2,2.8-2c1.2,0,2.4,0.8,2.8,2
			c0.1,0.3,0.5,0.8,1.2,0.6c0.8-0.3,0.7-1,0.6-1.3c-0.7-2-2.6-3.3-4.6-3.3s-3.9,1.3-4.6,3.3C7.3,17.1,7.2,17.9,7.9,18.2z"/>
		<g>
			<circle cx="8.5" cy="9.9" r="2"/>
			<circle cx="15.5" cy="9.9" r="2"/>
		</g>
	</g>
</g>
</svg>
