<?xml version="1.0" encoding="utf-8"?>
<!-- Generator: Adobe Illustrator 25.4.1, SVG Export Plug-In . SVG Version: 6.00 Build 0)  -->
<svg version="1.1" id="Layer_1" xmlns="http://www.w3.org/2000/svg" xmlns:xlink="http://www.w3.org/1999/xlink" x="0px" y="0px"
	 viewBox="0 0 24 24" style="enable-background:new 0 0 24 24;" xml:space="preserve">
<g>
	<path d="M12,6.3c-3.2,0-5.7,2.6-5.7,5.7c0,3.2,2.6,5.7,5.7,5.7c3.2,0,5.7-2.6,5.7-5.7C17.7,8.8,15.2,6.3,12,6.3z M12,15.8
		c-2.1,0-3.8-1.7-3.8-3.8c0-2.1,1.7-3.8,3.8-3.8c2.1,0,3.8,1.7,3.8,3.8C15.8,14.1,14.1,15.8,12,15.8z"/>
	<path d="M12,4.4c0.6,0,1-0.5,1-1V1.5c0-0.6-0.5-1-1-1s-1,0.5-1,1v1.9C11,4,11.4,4.4,12,4.4z"/>
	<path d="M12,19.6c-0.6,0-1,0.5-1,1v1.9c0,0.6,0.5,1,1,1s1-0.5,1-1v-1.9C13,20,12.6,19.6,12,19.6z"/>
	<path d="M5.2,6.6c0.2,0.2,0.5,0.3,0.7,0.3s0.5-0.1,0.7-0.3c0.3-0.3,0.3-1,0-1.4L5.3,3.9C5.1,3.7,4.9,3.6,4.6,3.6c0,0,0,0,0,0
		c-0.3,0-0.5,0.1-0.7,0.4C3.5,4.5,3.5,5,3.9,5.3L5.2,6.6z"/>
	<path d="M18.8,17.4c-0.3-0.3-1-0.3-1.4,0c-0.3,0.3-0.3,1,0,1.4l1.4,1.4c0.2,0.2,0.5,0.3,0.7,0.3s0.5-0.1,0.7-0.3
		c0.2-0.2,0.3-0.4,0.3-0.7c0-0.3-0.1-0.5-0.3-0.7L18.8,17.4z"/>
	<path d="M4.4,12c0-0.6-0.5-1-1-1H1.5c-0.6,0-1,0.5-1,1c0,0.6,0.5,1,1,1h1.9C4,13,4.4,12.6,4.4,12z"/>
	<path d="M22.5,11h-1.9c-0.6,0-1,0.5-1,1c0,0.6,0.5,1,1,1h1.9c0.6,0,1-0.5,1-1C23.5,11.4,23.1,11,22.5,11z"/>
	<path d="M5.2,17.4l-1.3,1.3c-0.3,0.3-0.3,1,0,1.4c0.2,0.2,0.5,0.3,0.7,0.3s0.5-0.1,0.7-0.3l1.4-1.4c0.3-0.3,0.3-1,0-1.4
		C6.4,17,5.7,16.9,5.2,17.4z"/>
	<path d="M17.3,6.7c0.2,0.1,0.4,0.2,0.8,0.2c0.2,0,0.5-0.1,0.7-0.3l1.3-1.3c0.3-0.3,0.3-1,0-1.4c-0.2-0.2-0.4-0.3-0.7-0.3
		c-0.3,0-0.5,0.1-0.7,0.3l-1.4,1.4C17.1,5.5,17,5.7,17,6C17,6.3,17.1,6.5,17.3,6.7L17.3,6.7z"/>
</g>
</svg>
