<?xml version="1.0" encoding="utf-8"?>
<!-- Generator: Adobe Illustrator 25.4.1, SVG Export Plug-In . SVG Version: 6.00 Build 0)  -->
<svg version="1.1" id="Layer_1" xmlns="http://www.w3.org/2000/svg" xmlns:xlink="http://www.w3.org/1999/xlink" x="0px" y="0px"
	 viewBox="0 0 24 24" style="enable-background:new 0 0 24 24;" xml:space="preserve">
<g>
	<path d="M22.8,10.6c-0.3-1.5-1.8-2.5-3.3-2.3V5.1c0-1.4-1.2-2.6-2.6-2.6H7.1c-1.4,0-2.6,1.2-2.6,2.6v3.2c-1.6-0.2-3,0.9-3.3,2.4
		c-0.3,1.6,0.7,3.1,2.2,3.4v3.5c0,1,0.6,2,1.5,2.4l-0.3,0.5c-0.1,0.2-0.1,0.3-0.1,0.5s0.2,0.3,0.3,0.4c0.3,0.2,0.8,0.1,0.9-0.3
		l0.5-0.9h11.1l0.5,0.9c0.1,0.2,0.4,0.3,0.6,0.3c0.1,0,0.2,0,0.3-0.1c0.2-0.1,0.3-0.2,0.3-0.4c0-0.2,0-0.4-0.1-0.5L19,20
		c0.9-0.4,1.5-1.3,1.5-2.4l-0.1-3.5c0.8-0.2,1.5-0.6,1.9-1.3C22.8,12.2,23,11.4,22.8,10.6z M3.8,12.9c-0.9-0.2-1.4-1-1.2-1.9
		c0.1-0.8,0.8-1.3,1.6-1.3c0.1,0,0.2,0,0.3,0c0.9,0.2,1.4,1,1.3,1.9c-0.1,0.7,0.3,1.4,1,1.5c0.1,0,0.2,0,0.3,0h10
		c0.7,0,1.3-0.6,1.3-1.3c0-0.1,0-0.2,0-0.3c-0.2-0.9,0.4-1.7,1.2-1.9c0.8-0.2,1.7,0.4,1.9,1.2c0.1,0.4,0,0.9-0.2,1.2
		c-0.2,0.4-0.6,0.6-1,0.7c-0.6,0.1-1,0.7-1,1.3v3.5c0,0.7-0.5,1.2-1.2,1.2H6c-0.7,0-1.2-0.5-1.2-1.2v-3.5C4.8,13.5,4.4,13,3.8,12.9z
		 M7.1,3.9h9.8c0.7,0,1.2,0.5,1.2,1.2v3.8c-0.9,0.7-1.4,1.8-1.2,2.9l-9.8,0c0.2-1.1-0.3-2.2-1.2-2.9l0-3.8C5.9,4.4,6.4,3.9,7.1,3.9z
		"/>
	<path d="M8.6,6.2c0.4,0,0.6-0.3,0.6-0.6c0-0.4-0.3-0.6-0.6-0.6C8.3,4.9,8,5.2,8,5.6C8,5.9,8.3,6.2,8.6,6.2z"/>
	<path d="M8.6,8.6C9,8.6,9.2,8.4,9.2,8c0-0.4-0.3-0.6-0.6-0.6C8.3,7.4,8,7.6,8,8C8,8.4,8.3,8.6,8.6,8.6z"/>
	<path d="M8.6,11.1c0.4,0,0.6-0.3,0.6-0.6c0-0.4-0.3-0.6-0.6-0.6C8.3,9.8,8,10.1,8,10.4C8,10.8,8.3,11.1,8.6,11.1z"/>
	<path d="M12,6.2c0.4,0,0.6-0.3,0.6-0.6c0-0.4-0.3-0.6-0.6-0.6c-0.4,0-0.6,0.3-0.6,0.6C11.4,5.9,11.6,6.2,12,6.2z"/>
	<path d="M12,8.6c0.4,0,0.6-0.3,0.6-0.6c0-0.4-0.3-0.6-0.6-0.6c-0.4,0-0.6,0.3-0.6,0.6C11.4,8.4,11.6,8.6,12,8.6z"/>
	<path d="M12,11.1c0.4,0,0.6-0.3,0.6-0.6c0-0.4-0.3-0.6-0.6-0.6c-0.4,0-0.6,0.3-0.6,0.6C11.4,10.8,11.6,11.1,12,11.1z"/>
	<path d="M15.4,6.2c0.4,0,0.6-0.3,0.6-0.6c0-0.4-0.3-0.6-0.6-0.6s-0.6,0.3-0.6,0.6C14.8,5.9,15,6.2,15.4,6.2z"/>
	<path d="M15.4,8.6C15.7,8.6,16,8.4,16,8c0-0.4-0.3-0.6-0.6-0.6S14.8,7.6,14.8,8C14.8,8.4,15,8.6,15.4,8.6z"/>
	<path d="M15.4,11.1c0.4,0,0.6-0.3,0.6-0.6c0-0.4-0.3-0.6-0.6-0.6s-0.6,0.3-0.6,0.6C14.8,10.8,15,11.1,15.4,11.1z"/>
</g>
</svg>
