<?xml version="1.0" encoding="utf-8"?>
<!-- Generator: Adobe Illustrator 25.4.1, SVG Export Plug-In . SVG Version: 6.00 Build 0)  -->
<svg version="1.1" id="Layer_1" xmlns="http://www.w3.org/2000/svg" xmlns:xlink="http://www.w3.org/1999/xlink" x="0px" y="0px"
	 viewBox="0 0 24 24" style="enable-background:new 0 0 24 24;" xml:space="preserve">
<g>
	<path d="M18.4,1.2H5.6C5.2,1.2,4.9,1.6,4.9,2v20c0,0.4,0.3,0.8,0.8,0.8h12.8c0.4,0,0.8-0.3,0.8-0.8V2C19.1,1.6,18.8,1.2,18.4,1.2z
		 M17.6,2.8v18.5H6.4V2.8H17.6z"/>
	<path d="M7.9,11.8h5c0.3,0,0.6-0.3,0.6-0.6V3.9c0-0.3-0.3-0.6-0.6-0.6h-5c-0.3,0-0.6,0.3-0.6,0.6v7.2C7.3,11.4,7.6,11.8,7.9,11.8z
		 M8.7,10.5V4.5h3.6v5.9H8.7z"/>
	<path d="M7.9,20.8h5c0.3,0,0.6-0.3,0.6-0.7v-7.3c0-0.3-0.3-0.6-0.6-0.6h-5c-0.3,0-0.6,0.3-0.6,0.6v7.3C7.3,20.4,7.6,20.8,7.9,20.8z
		 M8.7,19.5v-6h3.6v6H8.7z"/>
	<circle cx="15.8" cy="12" r="1"/>
</g>
</svg>
