<?xml version="1.0" encoding="utf-8"?>
<!-- Generator: Adobe Illustrator 25.4.1, SVG Export Plug-In . SVG Version: 6.00 Build 0)  -->
<svg version="1.1" id="Layer_1" xmlns="http://www.w3.org/2000/svg" xmlns:xlink="http://www.w3.org/1999/xlink" x="0px" y="0px"
	 viewBox="0 0 24 24" style="enable-background:new 0 0 24 24;" xml:space="preserve">
<path d="M21.1,5.6c0-0.1-0.5-1.3-1.3-2.1c-1-1.1-2.5-1.6-2.5-1.6l0,0c-2.4-0.8-4.9-0.2-6.6,1.5c-2,2-2.4,5.1-1.1,7.6l-6.9,6.9
	c-0.1,0.1-0.2,0.3-0.2,0.5c0,0.3,0.1,0.4,0.2,0.5l3.5,3.5c0.1,0.1,0.3,0.2,0.5,0.2c0.3,0,0.4-0.1,0.5-0.2l1.6-1.6
	C9,20.5,9,20,8.8,19.6L7.2,18l0.1-0.1l1.2,1.2c0.2,0.2,0.7,0.2,1.1,0l1.3-1.3c0.2-0.2,0.2-0.7,0-1.1l-1.2-1.1l2.3-2.3
	c2.9,1.7,6.7,0.8,8.5-2.1C21.6,9.6,21.8,7.5,21.1,5.6z M5.5,18c0,0.3,0.1,0.4,0.2,0.5l1.6,1.6l-0.6,0.6l-2.5-2.5l6.2-6.2l0.4,0.4
	l-2.6,2.7C8.1,15.3,8,15.5,8,15.6c0,0.1,0.1,0.4,0.2,0.5l1,1.1L9,17.5l-1.1-1.1c-0.3-0.2-0.7-0.2-1,0l-1.2,1.2
	C5.6,17.7,5.5,17.9,5.5,18z M19.5,10.1c-0.2,0.5-0.5,0.9-0.9,1.2c-1.7,1.7-4.3,1.9-6.3,0.6c-0.5-0.3-0.8-0.7-1.2-1.2
	c-0.7-1.2-1-2.5-0.8-3.7c0.2-1.3,1-2.4,2-3.1C13.2,3.3,14.2,3,15.2,3c0.6,0,1,0.1,1.7,0.3c0,0,1.1,0.3,2,1.3c0.9,1,1.1,2,1.1,2l0,0
	C20.3,7.6,20.1,8.9,19.5,10.1z"/>
<g>
	<path d="M15.2,11.1c-1.8,0-3.3-1.5-3.3-3.3s1.5-3.3,3.3-3.3s3.3,1.5,3.3,3.3S17,11.1,15.2,11.1z M15.2,6.1c-1,0-1.8,0.8-1.8,1.8
		s0.8,1.8,1.8,1.8s1.8-0.8,1.8-1.8S16.2,6.1,15.2,6.1z"/>
</g>
</svg>
