<?xml version="1.0" encoding="utf-8"?>
<!-- Generator: Adobe Illustrator 25.4.1, SVG Export Plug-In . SVG Version: 6.00 Build 0)  -->
<svg version="1.1" id="Layer_1" xmlns="http://www.w3.org/2000/svg" xmlns:xlink="http://www.w3.org/1999/xlink" x="0px" y="0px"
	 viewBox="0 0 24 24" style="enable-background:new 0 0 24 24;" xml:space="preserve">
<g>
	<path d="M22.1,5.1H1.9c-0.4,0-0.8,0.3-0.8,0.8v11.9c0,0.4,0.3,0.8,0.8,0.8h20.2c0.4,0,0.8-0.3,0.8-0.8V5.9
		C22.8,5.5,22.5,5.1,22.1,5.1z M2.7,6.6h13.9V17H2.7V6.6z M21.3,17h-3.2V6.6h3.2V17z"/>
	<path d="M14.6,7.8h-10C4.2,7.8,4,8.1,4,8.4v6.8c0,0.4,0.3,0.7,0.7,0.7h10c0.4,0,0.7-0.3,0.7-0.7V8.4C15.2,8.1,15,7.8,14.6,7.8z
		 M13.9,14.6H5.3V9.1h8.7V14.6z"/>
</g>
<circle cx="19.7" cy="15.4" r="0.7"/>
<path d="M20.3,10.3h-1.2c-0.3,0-0.5-0.2-0.5-0.5v0c0-0.3,0.2-0.5,0.5-0.5h1.2c0.3,0,0.5,0.2,0.5,0.5v0
	C20.8,10.1,20.6,10.3,20.3,10.3z"/>
<path d="M20.3,8.8h-1.2c-0.3,0-0.5-0.2-0.5-0.5v0c0-0.3,0.2-0.5,0.5-0.5h1.2c0.3,0,0.5,0.2,0.5,0.5v0C20.8,8.6,20.6,8.8,20.3,8.8z"
	/>
</svg>
