<?xml version="1.0" encoding="utf-8"?>
<!-- Generator: Adobe Illustrator 25.4.1, SVG Export Plug-In . SVG Version: 6.00 Build 0)  -->
<svg version="1.1" id="Layer_1" xmlns="http://www.w3.org/2000/svg" xmlns:xlink="http://www.w3.org/1999/xlink" x="0px" y="0px"
	 viewBox="0 0 24 24" style="enable-background:new 0 0 24 24;" xml:space="preserve">
<g>
	<path d="M17.7,3.4c-0.4,0-0.7,0.4-0.7,0.7c0,0.4,0.2,0.7,0.7,0.7c0.5,0,0.7-0.4,0.7-0.7C18.4,3.7,18.1,3.4,17.7,3.4z"/>
	<path d="M19.7,1.3H4.3C3.4,1.3,2.7,2,2.7,2.9v18.3c0,0.9,0.8,1.6,1.6,1.6h15.4c0.9,0,1.6-0.8,1.6-1.6V2.9C21.3,2,20.6,1.3,19.7,1.3
		z M19.6,7V21H4.4V7H19.6z M4.4,5.3V3h15.2v2.2H4.4z"/>
	<path d="M12,19.8c2.7,0,4.9-2.2,4.9-4.9c0-2.8-2.2-4.9-4.9-4.9s-4.9,2.2-4.9,4.9C7.1,17.6,9.3,19.8,12,19.8z M12,11.7
		c1.7,0,3.2,1.5,3.2,3.2s-1.5,3.2-3.2,3.2s-3.2-1.5-3.2-3.2S10.3,11.7,12,11.7z"/>
	<path d="M8.5,3.4H6c-0.4,0-0.7,0.4-0.7,0.7c0,0.4,0.2,0.7,0.7,0.7h2.5c0.4,0,0.7-0.4,0.7-0.7S8.9,3.4,8.5,3.4z"/>
</g>
</svg>
