<?xml version="1.0" encoding="utf-8"?>
<!-- Generator: Adobe Illustrator 25.4.1, SVG Export Plug-In . SVG Version: 6.00 Build 0)  -->
<svg version="1.1" id="Layer_1" xmlns="http://www.w3.org/2000/svg" xmlns:xlink="http://www.w3.org/1999/xlink" x="0px" y="0px"
	 viewBox="0 0 24 24" style="enable-background:new 0 0 24 24;" xml:space="preserve">
<path d="M22.9,16.8c0-0.1,0-0.1-0.1-0.2c0-0.1-0.1-0.3-0.3-0.4L8.5,3.6C7.8,3.1,7,2.8,6.3,2.9c0,0-0.1-0.1-0.1-0.1L4.8,1.3
	C4.4,1.1,4,1.1,3.6,1.3L1.3,3.7C1.2,3.8,1.1,3.9,1.1,4.2c0,0.2,0.1,0.3,0.1,0.4c0,0,0,0.1,0.1,0.1l1.5,1.5l0,0l0,0
	C2.9,7,3,7.9,3.6,8.6l12.7,14.1c0.1,0.1,0.3,0.2,0.6,0.2c0.2,0,0.3-0.1,0.4-0.1c0,0,0.1,0,0.1-0.1l5.2-5.2
	C22.8,17.4,22.9,17.1,22.9,16.8L22.9,16.8z M4.5,3.3L3.3,4.5L3,4.2L4.2,3L4.5,3.3z M8.8,7.4C8.7,7.5,8.6,7.8,8.6,8
	c0,0.2,0.1,0.3,0.1,0.4c0,0,0,0.1,0.1,0.1l5.7,5.7c0.1,0.1,0.3,0.2,0.6,0.2c0.2,0,0.3-0.1,0.4-0.1c0,0,0.1,0,0.1-0.1l1.1-1.1L21,17
	l-4,4L4.8,7.4C4.3,6.8,4.3,5.9,4.9,5.2l0.3-0.3c0.3-0.3,0.8-0.5,1.2-0.5c0.4,0,0.8,0.1,1,0.4l2.1,1.9L8.8,7.4z M10.5,8l0.2-0.2
	l4.8,4.3l-0.4,0.4L10.5,8z"/>
</svg>
