<?xml version="1.0" encoding="utf-8"?>
<!-- Generator: Adobe Illustrator 25.4.1, SVG Export Plug-In . SVG Version: 6.00 Build 0)  -->
<svg version="1.1" id="Layer_1" xmlns="http://www.w3.org/2000/svg" xmlns:xlink="http://www.w3.org/1999/xlink" x="0px" y="0px"
	 viewBox="0 0 24 24" style="enable-background:new 0 0 24 24;" xml:space="preserve">
<g>
	<path d="M18.1,11.4V8.1c0-0.4-0.4-0.7-0.7-0.7h-3.5c-3,0-5.4,2.4-5.4,5.4c0,0.2,0,0.3,0.1,0.5c0.1,0.2,0.3,0.3,0.5,0.3H16
		C17.2,13.5,18.1,12.6,18.1,11.4z M16,12.1H9.9c0.4-1.9,2-3.2,4-3.2h2.8v2.6C16.7,11.7,16.3,12.1,16,12.1z"/>
	<path d="M17.4,13.6c-0.4,0-0.8,0.4-0.8,0.8c0,0.4,0.4,0.8,0.8,0.8s0.8-0.4,0.8-0.8C18.2,14,17.9,13.6,17.4,13.6z M17.7,14.4
		c0,0.1-0.2,0.3-0.3,0.3c-0.1,0-0.3-0.2-0.3-0.3c0-0.1,0.2-0.3,0.3-0.3C17.5,14.1,17.7,14.3,17.7,14.4z"/>
	<path d="M22.5,5.4c-0.1-0.2-0.4-0.3-0.6-0.3H14C7.8,5.1,2.5,9.6,1.5,15.9l0,0.2c-0.1,0.6-0.1,1.2-0.1,1.8v0.3
		c0,0.4,0.4,0.7,0.7,0.7h17.5c0.4,0,0.7-0.4,0.7-0.7l0-2.6l2.3-9.7C22.7,5.7,22.6,5.5,22.5,5.4z M3.1,15.4C4.2,10.3,8.8,6.6,14,6.6
		h7.1l-2.3,8.8H3.1z M2.8,17.5c0-0.2,0-0.4,0.1-0.6h16v0.6H2.8z"/>
</g>
</svg>
