<?xml version="1.0" encoding="utf-8"?>
<!-- Generator: Adobe Illustrator 25.4.1, SVG Export Plug-In . SVG Version: 6.00 Build 0)  -->
<svg version="1.1" id="Layer_1" xmlns="http://www.w3.org/2000/svg" xmlns:xlink="http://www.w3.org/1999/xlink" x="0px" y="0px"
	 viewBox="0 0 24 24" style="enable-background:new 0 0 24 24;" xml:space="preserve">
<g>
	<path d="M12,15.1L12,15.1c-0.3,0-0.5-0.2-0.5-0.5v-1.5c0-0.3,0.2-0.5,0.5-0.5l0,0c0.3,0,0.5,0.2,0.5,0.5v1.5
		C12.5,14.8,12.3,15.1,12,15.1z"/>
	<path d="M12,18.4c-2.1,0-3.8-1.7-3.8-3.8s1.7-3.8,3.8-3.8s3.8,1.7,3.8,3.8S14.1,18.4,12,18.4z M12,12c-1.4,0-2.5,1.1-2.5,2.5
		S10.6,17,12,17s2.5-1.1,2.5-2.5S13.4,12,12,12z"/>
	<path d="M7.6,22.5c-0.3,0-0.5-0.2-0.6-0.3c-0.1-0.2-0.1-0.4,0-0.7l1.3-1.9l-0.1-0.1c-1.7-1.2-2.6-3-2.6-5c0-2.3,1.2-4.5,3.1-5.6
		l0-1.7H8.7c-3.7-0.4-5.5-3.5-6-5C2.6,2,2.7,1.8,2.8,1.6c0.1-0.2,0.4-0.3,0.5-0.3h17.5c0.2,0,0.4,0.1,0.5,0.2c0.1,0.2,0.1,0.4,0,0.6
		c-0.5,1.6-2.3,4.6-6,5h-0.1l0,1.8c1.9,1.1,3.1,3.1,3.1,5.4c0,2.3-1,4.1-2.5,5.1l-0.1,0.1l1.3,2c0.1,0.2,0.1,0.5,0,0.7
		c-0.2,0.3-0.3,0.3-0.6,0.3L7.6,22.5z M8.7,21.4h6.6l-0.6-1h-0.1c-0.9,0.3-1.7,0.5-2.6,0.5c-0.8,0-1.7-0.2-2.6-0.5H9.3L8.7,21.4z
		 M9.7,10.1C8,10.9,7,12.6,7,14.5c0,2.8,2.2,5,5,5s5-2.2,5-5c0-1.9-1-3.6-2.7-4.4H9.7L9.7,10.1z M10.2,8.8h3.7V7.3h-3.7V8.8z
		 M4.5,2.8C5,3.8,6.4,6,9.6,6h4.8c2.7,0,4.2-1.7,5.1-3.1l0.1-0.2L4.5,2.8L4.5,2.8z"/>
</g>
</svg>
