<?xml version="1.0" encoding="UTF-8" standalone="no"?>
<!-- Created with Inkscape (http://www.inkscape.org/) -->

<svg
   version="1.1"
   id="svg2"
   width="28"
   height="25.573334"
   viewBox="0 0 28 25.573334"
   sodipodi:docname="camera.eps"
   xmlns:inkscape="http://www.inkscape.org/namespaces/inkscape"
   xmlns:sodipodi="http://sodipodi.sourceforge.net/DTD/sodipodi-0.dtd"
   xmlns="http://www.w3.org/2000/svg"
   xmlns:svg="http://www.w3.org/2000/svg">
  <defs
     id="defs6" />
  <sodipodi:namedview
     id="namedview4"
     pagecolor="#ffffff"
     bordercolor="#000000"
     borderopacity="0.25"
     inkscape:showpageshadow="2"
     inkscape:pageopacity="0.0"
     inkscape:pagecheckerboard="0"
     inkscape:deskcolor="#d1d1d1" />
  <g
     id="g8"
     inkscape:groupmode="layer"
     inkscape:label="ink_ext_XXXXXX"
     transform="matrix(1.3333333,0,0,-1.3333333,0,25.573333)">
    <g
       id="g10"
       transform="scale(0.1)">
      <path
         d="m 193.617,16.3828 h -5.847 v 58.9414 h 5.847 z M 34.8789,69.4297 27.4648,90.5586 32.2773,92.2422 39.6914,71.1133 Z M 147.496,173.137 158.258,142.391 60.9922,108.301 26.6094,130.691 Z M 57.5664,72.1992 49.0391,96.5313 55.4297,92.375 c 0.9492,-0.6211 2.0234,-0.9492 3.1133,-1.1328 0.2383,-0.0391 0.457,-0.082 0.6992,-0.0977 0.2187,-0.0195 0.4336,-0.0976 0.6562,-0.0976 0.9102,0 1.8282,0.1562 2.7071,0.4609 l 101.0705,35.4182 5.461,-15.602 z M 201.809,91.7109 h -22.231 c -4.519,0 -8.191,-3.6718 -8.191,-8.1914 V 54.0469 h -35.551 l -7.059,25.7656 53.512,18.7656 c 4.266,1.4919 6.516,6.1639 5.024,10.4379 l -10.879,31.062 -16.18,46.215 c -0.719,2.051 -2.231,3.734 -4.184,4.672 -1.961,0.941 -4.234,1.074 -6.261,0.348 L 5.47656,140.633 C 2.53516,139.598 0.433594,136.977 0.0585938,133.879 -0.3125,130.781 1.10547,127.742 3.72266,126.039 l 22.82034,-14.855 1.1211,-3.2 -13.3477,-4.679 C 12.2617,102.59 10.582,101.086 9.64453,99.1211 8.69922,97.1641 8.57422,94.9141 9.29688,92.8672 L 22.1328,56.2773 c 0.7149,-2.0507 2.2227,-3.7343 4.1797,-4.6718 1.1172,-0.5469 2.332,-0.8125 3.5469,-0.8125 0.9179,0 1.8359,0.1484 2.7148,0.4609 l 14.0313,4.9219 c 0.6836,-0.7305 1.4726,-1.3594 2.3906,-1.7969 1.1211,-0.5469 2.3359,-0.8125 3.5508,-0.8125 0.914,0 1.832,0.1484 2.7109,0.457 l 58.0192,20.3516 8.407,-30.6836 c 0.98,-3.5625 4.211,-6.0273 7.902,-6.0273 h 41.801 V 8.19141 C 171.387,3.66797 175.059,0 179.578,0 h 22.231 C 206.332,0 210,3.66797 210,8.19141 V 83.5195 c 0,4.5196 -3.668,8.1914 -8.191,8.1914"
         style="fill:#000000;fill-opacity:1;fill-rule:nonzero;stroke:none"
         id="path12" />
    </g>
  </g>
</svg>
