<?xml version="1.0" encoding="UTF-8" standalone="no"?>
<!-- Created with Inkscape (http://www.inkscape.org/) -->

<svg
   version="1.1"
   id="svg2"
   width="25.333332"
   height="28"
   viewBox="0 0 25.333332 28"
   sodipodi:docname="galochka.eps"
   xmlns:inkscape="http://www.inkscape.org/namespaces/inkscape"
   xmlns:sodipodi="http://sodipodi.sourceforge.net/DTD/sodipodi-0.dtd"
   xmlns="http://www.w3.org/2000/svg"
   xmlns:svg="http://www.w3.org/2000/svg">
  <defs
     id="defs6" />
  <sodipodi:namedview
     id="namedview4"
     pagecolor="#ffffff"
     bordercolor="#000000"
     borderopacity="0.25"
     inkscape:showpageshadow="2"
     inkscape:pageopacity="0.0"
     inkscape:pagecheckerboard="0"
     inkscape:deskcolor="#d1d1d1" />
  <g
     id="g8"
     inkscape:groupmode="layer"
     inkscape:label="ink_ext_XXXXXX"
     transform="matrix(1.3333333,0,0,-1.3333333,0,28)">
    <g
       id="g10"
       transform="scale(0.1)">
      <path
         d="M 15.9492,68.3594 68.3633,17.8086 174.543,133.336 159.508,185.699 72.3516,58.5352 c -1.375,-2.0118 -3.4571,-3.5743 -6.1094,-3.1836 -2.4336,0.0195 -4.707,1.2578 -6.0508,3.289 L 30.1797,104.191 Z M 68.6758,0 C 66.7813,0 64.957,0.734375 63.5938,2.05078 L 2.24219,61.2266 c -2.140627,2.0703 -2.824221,5.2187 -1.722659,7.9843 L 21.7578,122.664 c 1.0039,2.535 3.3438,4.305 6.0547,4.582 2.7813,0.238 5.3672,-0.976 6.8711,-3.258 L 66.4297,75.8086 156.219,206.809 c 1.601,2.343 4.406,3.562 7.211,3.089 2.793,-0.453 5.082,-2.48 5.867,-5.207 l 20.457,-71.265 c 0.707,-2.457 0.086,-5.098 -1.649,-6.977 L 74.0703,2.36328 C 72.7344,0.914063 70.8711,0.0664063 68.8945,0 68.8242,0 68.7461,0 68.6758,0"
         style="fill:#000000;fill-opacity:1;fill-rule:nonzero;stroke:none"
         id="path12" />
    </g>
  </g>
</svg>
