<?xml version="1.0" encoding="UTF-8" standalone="no"?>
<!-- Created with Inkscape (http://www.inkscape.org/) -->

<svg
   version="1.1"
   id="svg2"
   width="28"
   height="28"
   viewBox="0 0 28 28"
   sodipodi:docname="i.eps"
   xmlns:inkscape="http://www.inkscape.org/namespaces/inkscape"
   xmlns:sodipodi="http://sodipodi.sourceforge.net/DTD/sodipodi-0.dtd"
   xmlns="http://www.w3.org/2000/svg"
   xmlns:svg="http://www.w3.org/2000/svg">
  <defs
     id="defs6" />
  <sodipodi:namedview
     id="namedview4"
     pagecolor="#ffffff"
     bordercolor="#000000"
     borderopacity="0.25"
     inkscape:showpageshadow="2"
     inkscape:pageopacity="0.0"
     inkscape:pagecheckerboard="0"
     inkscape:deskcolor="#d1d1d1" />
  <g
     id="g8"
     inkscape:groupmode="layer"
     inkscape:label="ink_ext_XXXXXX"
     transform="matrix(1.3333333,0,0,-1.3333333,0,28)">
    <g
       id="g10"
       transform="scale(0.1)">
      <path
         d="m 106.285,52.4258 c -5.93,0 -10.8983,2.3242 -14.3827,6.7031 -3.2382,4.0703 -4.6171,9.4649 -3.7851,14.8086 l 5.5781,35.5115 -6.418,-3.312 c -1.121,-0.574 -2.332,-0.875 -3.5898,-0.875 -2.9727,0 -5.6641,1.644 -7.0273,4.289 -0.9571,1.871 -1.1368,4.004 -0.4883,6.008 0.6445,2.004 2.0312,3.644 3.9023,4.605 l 20.2068,10.395 c 1.114,0.566 2.36,0.867 3.606,0.867 1.668,0 3.269,-0.516 4.621,-1.492 2.418,-1.75 3.633,-4.664 3.168,-7.61 l -8.559,-54.5037 3.953,0.4258 c 2.512,0.2578 7.11,1.6992 14.754,7 1.328,0.9258 2.879,1.4102 4.489,1.4102 2.589,0 5.003,-1.2618 6.484,-3.375 2.473,-3.5743 1.598,-8.5 -1.969,-10.9844 C 121.762,56 114.094,52.7813 107.387,52.457 l -1.102,-0.0312"
         style="fill:#000000;fill-opacity:1;fill-rule:nonzero;stroke:none"
         id="path12" />
      <path
         d="m 108.117,145.414 c -5.051,0 -9.1561,4.106 -9.1561,9.156 0,5.051 4.1051,9.157 9.1561,9.157 5.051,0 9.156,-4.106 9.156,-9.157 0,-5.05 -4.105,-9.156 -9.156,-9.156"
         style="fill:#000000;fill-opacity:1;fill-rule:nonzero;stroke:none"
         id="path14" />
      <path
         d="m 105,18.3125 c -47.7969,0 -86.6875,38.8906 -86.6875,86.6875 0,47.797 38.8906,86.688 86.6875,86.688 47.797,0 86.688,-38.891 86.688,-86.688 0,-47.7969 -38.891,-86.6875 -86.688,-86.6875 z M 105,210 C 47.1016,210 0,162.898 0,105 0,47.1016 47.1016,0 105,0 c 57.898,0 105,47.1016 105,105 0,57.898 -47.102,105 -105,105"
         style="fill:#000000;fill-opacity:1;fill-rule:nonzero;stroke:none"
         id="path16" />
    </g>
  </g>
</svg>
