<?xml version="1.0" encoding="UTF-8" standalone="no"?>
<!-- Created with Inkscape (http://www.inkscape.org/) -->

<svg
   version="1.1"
   id="svg2"
   width="26.973333"
   height="28"
   viewBox="0 0 26.973333 28"
   sodipodi:docname="kopilka.eps"
   xmlns:inkscape="http://www.inkscape.org/namespaces/inkscape"
   xmlns:sodipodi="http://sodipodi.sourceforge.net/DTD/sodipodi-0.dtd"
   xmlns="http://www.w3.org/2000/svg"
   xmlns:svg="http://www.w3.org/2000/svg">
  <defs
     id="defs6" />
  <sodipodi:namedview
     id="namedview4"
     pagecolor="#ffffff"
     bordercolor="#000000"
     borderopacity="0.25"
     inkscape:showpageshadow="2"
     inkscape:pageopacity="0.0"
     inkscape:pagecheckerboard="0"
     inkscape:deskcolor="#d1d1d1" />
  <g
     id="g8"
     inkscape:groupmode="layer"
     inkscape:label="ink_ext_XXXXXX"
     transform="matrix(1.3333333,0,0,-1.3333333,0,28)">
    <g
       id="g10"
       transform="scale(0.1)">
      <path
         d="M 14.6523,14.6523 V 87.1641 H 187.621 V 14.6523 Z m 0,113.7777 H 187.621 V 101.813 H 14.6523 Z M 194.949,143.082 H 7.32422 C 3.28125,143.082 0,139.801 0,135.758 V 94.4883 7.32422 C 0,3.28125 3.28125,0 7.32422,0 H 194.949 c 4.043,0 7.324,3.28125 7.324,7.32422 V 94.4883 135.758 c 0,4.043 -3.281,7.324 -7.324,7.324"
         style="fill:#000000;fill-opacity:1;fill-rule:nonzero;stroke:none"
         id="path12" />
      <path
         d="M 125.223,122.5 H 76.957 c -4.0429,0 -7.3242,-3.281 -7.3242,-7.328 0,-4.043 3.2813,-7.324 7.3242,-7.324 h 48.266 c 4.043,0 7.324,3.281 7.324,7.324 0,4.047 -3.281,7.328 -7.324,7.328"
         style="fill:#000000;fill-opacity:1;fill-rule:nonzero;stroke:none"
         id="path14" />
      <path
         d="m 101.09,195.348 c 8.394,0 15.223,-6.828 15.223,-15.227 0,-8.398 -6.829,-15.23 -15.223,-15.23 -8.3986,0 -15.2306,6.832 -15.2306,15.23 0,8.399 6.832,15.227 15.2306,15.227 z m 0,-45.106 c 16.473,0 29.875,13.403 29.875,29.879 0,16.477 -13.402,29.879 -29.875,29.879 -16.4767,0 -29.8791,-13.402 -29.8791,-29.879 0,-16.476 13.4024,-29.879 29.8791,-29.879"
         style="fill:#000000;fill-opacity:1;fill-rule:nonzero;stroke:none"
         id="path16" />
    </g>
  </g>
</svg>
