<?xml version="1.0" encoding="UTF-8" standalone="no"?>
<!-- Created with Inkscape (http://www.inkscape.org/) -->

<svg
   version="1.1"
   id="svg2"
   width="28"
   height="28"
   viewBox="0 0 28 28"
   sodipodi:docname="question.eps"
   xmlns:inkscape="http://www.inkscape.org/namespaces/inkscape"
   xmlns:sodipodi="http://sodipodi.sourceforge.net/DTD/sodipodi-0.dtd"
   xmlns="http://www.w3.org/2000/svg"
   xmlns:svg="http://www.w3.org/2000/svg">
  <defs
     id="defs6" />
  <sodipodi:namedview
     id="namedview4"
     pagecolor="#ffffff"
     bordercolor="#000000"
     borderopacity="0.25"
     inkscape:showpageshadow="2"
     inkscape:pageopacity="0.0"
     inkscape:pagecheckerboard="0"
     inkscape:deskcolor="#d1d1d1" />
  <g
     id="g8"
     inkscape:groupmode="layer"
     inkscape:label="ink_ext_XXXXXX"
     transform="matrix(1.3333333,0,0,-1.3333333,0,28)">
    <g
       id="g10"
       transform="scale(0.1)">
      <path
         d="m 105,16.1523 c -3.512,0 -8.4414,4.7344 -12.793,8.8985 -4.6718,4.4883 -9.5078,9.125 -15.4961,11.6289 -6.0078,2.5156 -12.6562,2.6133 -19.1093,2.7031 -6.543,0.0899 -12.7266,0.1719 -15.3907,2.832 -2.7109,2.7032 -2.8125,9.3555 -2.914,15.8125 -0.0977,6.336 -0.2071,12.879 -2.6094,18.668 -2.3867,5.75 -6.9531,10.5391 -11.4375,15.2344 -4.2656,4.4609 -9.0977,9.5153 -9.0977,13.0703 0,3.496 4.7149,8.418 8.8985,12.793 4.4883,4.676 9.1289,9.52 11.6328,15.496 2.5234,6.02 2.6133,12.672 2.6992,19.113 0.086,6.543 0.168,12.723 2.8281,15.383 2.711,2.715 9.3594,2.817 15.7891,2.918 6.3398,0.094 12.8984,0.192 18.6953,2.61 5.793,2.406 10.5899,7 15.2344,11.437 4.457,4.266 9.5083,9.098 13.0703,9.098 3.508,0 8.434,-4.727 12.773,-8.895 4.688,-4.488 9.54,-9.133 15.512,-11.637 6.024,-2.523 12.676,-2.613 19.113,-2.699 6.543,-0.086 12.727,-0.168 15.387,-2.832 2.715,-2.715 2.82,-9.66 2.91,-15.812 0.102,-6.336 0.207,-12.891 2.618,-18.668 2.398,-5.782 6.992,-10.59 11.457,-15.246 4.253,-4.457 9.078,-9.508 9.078,-13.059 0,-3.508 -4.735,-8.4375 -8.899,-12.7891 -4.488,-4.6796 -9.133,-9.5234 -11.636,-15.5078 -2.508,-6.0039 -2.606,-12.6484 -2.696,-19.1015 -0.09,-6.543 -0.172,-12.7266 -2.832,-15.3868 -2.703,-2.7148 -9.652,-2.8203 -15.812,-2.9101 -6.336,-0.1016 -12.879,-0.207 -18.668,-2.6172 -5.75,-2.3867 -10.539,-6.957 -15.25,-11.457 -4.453,-4.2539 -9.504,-9.0782 -13.055,-9.0782 z m 91.434,113.0747 -0.84,-0.797 0.804,0.832 c -3.41,3.566 -6.925,7.258 -8.175,10.246 -1.211,2.906 -1.289,7.844 -1.371,12.746 -0.137,9.191 -0.297,19.609 -7.637,26.953 -7.301,7.297 -17.539,7.438 -26.594,7.563 -4.894,0.066 -9.961,0.136 -13.098,1.445 -3.207,1.344 -6.949,4.933 -10.574,8.402 C 122.406,202.891 114.988,210 105,210 c -10.0312,0 -17.5742,-7.207 -24.2656,-13.602 -3.5703,-3.41 -7.2578,-6.933 -10.2422,-8.175 -2.9375,-1.219 -7.9219,-1.297 -12.7461,-1.371 -9.1992,-0.145 -19.6211,-0.309 -26.957,-7.645 -7.3008,-7.301 -7.4375,-17.547 -7.5586,-26.59 -0.0664,-4.894 -0.1367,-9.953 -1.4453,-13.086 -1.3438,-3.211 -4.9336,-6.945 -8.3985,-10.566 C 7.11328,122.414 0,114.996 0,105 0,94.9688 7.20703,87.4219 13.5742,80.7617 c 3.4219,-3.582 6.9571,-7.2656 8.2031,-10.2695 1.2149,-2.9297 1.2891,-7.9063 1.3672,-12.7461 0.1446,-9.2031 0.3047,-19.625 7.6446,-26.9609 7.3007,-7.3008 17.5507,-7.4375 26.6211,-7.5547 4.8867,-0.0742 9.9414,-0.1446 13.0586,-1.4414 3.2187,-1.3516 6.9531,-4.9336 10.5625,-8.3946 C 87.5742,7.11328 94.9922,0 105,0 c 10.031,0 17.578,7.21094 24.238,13.5742 3.391,3.2539 7.25,6.9414 10.27,8.2031 2.902,1.211 7.844,1.2891 12.746,1.3711 9.195,0.1368 19.613,0.2969 26.961,7.6368 7.301,7.3086 7.437,17.5507 7.555,26.6171 0.074,4.8868 0.144,9.9454 1.441,13.0743 1.352,3.2148 5.094,7.1093 8.394,10.5468 C 202.887,87.5859 210,95.0117 210,105 c 0,10.031 -7.211,17.574 -13.566,24.227"
         style="fill:#000000;fill-opacity:1;fill-rule:nonzero;stroke:none"
         id="path12" />
      <path
         d="m 105,67.7227 c -6.1758,0 -11.1836,-5.0079 -11.1836,-11.1836 0,-6.1797 5.0078,-11.1836 11.1836,-11.1836 6.176,0 11.184,5.0039 11.184,11.1836 0,6.1757 -5.008,11.1836 -11.184,11.1836"
         style="fill:#000000;fill-opacity:1;fill-rule:nonzero;stroke:none"
         id="path14" />
      <path
         d="m 105,156.656 c -18.2109,0 -33.0195,-14.808 -33.0195,-33.019 0,-3.821 3.1015,-6.922 6.9218,-6.922 3.8243,0 6.9258,3.101 6.9258,6.922 0,10.574 8.5977,19.176 19.1719,19.176 10.574,0 19.176,-8.602 19.176,-19.176 0,-10.571 -8.602,-19.168 -19.176,-19.168 -3.82,0 -6.9219,-3.102 -6.9219,-6.9221 v -7.4571 c 0,-3.8203 3.1019,-6.9218 6.9219,-6.9218 3.82,0 6.922,3.1015 6.922,6.9218 v 1.2618 c 14.894,3.1914 26.098,16.4574 26.098,32.2854 0,18.211 -14.809,33.019 -33.02,33.019"
         style="fill:#000000;fill-opacity:1;fill-rule:nonzero;stroke:none"
         id="path16" />
    </g>
  </g>
</svg>
