<?xml version="1.0" encoding="UTF-8" standalone="no"?>
<svg
   xmlns:dc="http://purl.org/dc/elements/1.1/"
   xmlns:cc="http://creativecommons.org/ns#"
   xmlns:rdf="http://www.w3.org/1999/02/22-rdf-syntax-ns#"
   xmlns:svg="http://www.w3.org/2000/svg"
   xmlns="http://www.w3.org/2000/svg"
   viewBox="0 0 28 20.253332"
   height="20.253332"
   width="28"
   xml:space="preserve"
   id="svg2"
   version="1.1"><metadata
     id="metadata8"><rdf:RDF><cc:Work
         rdf:about=""><dc:format>image/svg+xml</dc:format><dc:type
           rdf:resource="http://purl.org/dc/dcmitype/StillImage" /></cc:Work></rdf:RDF></metadata><defs
     id="defs6" /><g
     transform="matrix(1.3333333,0,0,-1.3333333,0,20.253333)"
     id="g10"><g
       transform="scale(0.1)"
       id="g12"><path
         id="path14"
         style="fill:#000000;fill-opacity:1;fill-rule:evenodd;stroke:none"
         d="m 147.855,127.457 c 0.235,0.164 0.481,0.32 0.735,0.457 1.824,0.984 3.297,2.074 4.293,3.285 0.441,0.539 0.789,1.016 0.84,1.578 0.156,1.836 -3.032,1.707 -4.485,1.836 -4.312,0.371 -10.332,-0.304 -16.636,-3.238 -7.563,-3.523 -14.196,-2.93 -20.957,-0.68 -5.032,1.676 -10.153,4.469 -16.1528,6.274 -8.8438,2.656 -19.5117,-0.141 -29.1875,-4.012 C 55.6523,128.691 46.1445,122.84 41.0195,119.426 L 51.4336,85.0703 c 3.0664,1.5274 6.3164,3.0117 9.668,4.3555 12.7031,5.082 26.8125,7.9062 38.4179,4.418 5.0665,-1.5235 9.5505,-3.6836 13.8595,-5.4024 4.375,-1.7461 8.476,-3.1601 13.312,-0.9062 9.426,4.3906 18.438,5.0898 24.672,4.3984 12.325,8.1364 31.953,22.8394 41.078,33.7854 1.332,1.597 2.61,3.769 3.207,4.84 -0.656,0.855 -1.355,1.484 -2.234,1.796 -2.668,0.954 -5.926,-0.238 -10.465,-2.121 -10.953,-4.55 -26.64,-14.296 -50.383,-27.375 -3.566,-1.964 -8.652,-2.757 -14.07,-2.531 -6.586,0.281 -13.695,1.918 -17.84,3.098 -3.7146,1.062 -5.8708,4.937 -4.8122,8.652 1.0585,3.715 4.9372,5.871 8.6482,4.813 3.395,-0.965 9.207,-2.344 14.598,-2.575 2.562,-0.105 5.031,-0.125 6.719,0.805 8.234,4.535 15.543,8.668 22.046,12.336 z M 38.9063,78.1328 25.7578,121.516 l -9.8906,-2.309 11.9297,-39.3711 1.164,0.2735 c 3.086,0.7187 6.1954,-0.7188 7.6914,-3.375 0.711,0.4492 1.4649,0.9179 2.254,1.3984 z m 108.9487,-7.207 c 0.235,0.164 0.481,0.3203 0.735,0.457 1.824,0.9844 3.297,2.0742 4.293,3.2852 0.441,0.539 0.898,1.0195 0.84,1.5781 -0.207,1.8359 -3.032,1.707 -4.485,1.8359 -4.312,0.3711 -10.332,-0.3047 -16.636,-3.2382 -7.563,-3.5235 -14.196,-2.9297 -20.957,-0.6797 -5.032,1.6757 -10.153,4.4687 -16.1528,6.2734 C 86.6484,83.0938 75.9805,80.2969 66.3047,76.4258 55.6523,72.1602 46.1445,66.3086 41.0195,62.8945 L 51.8867,27.0391 c 12.3086,-0.0039 44.2031,0.1679 68.0623,1.8867 11.672,0.8398 21.266,1.7305 24.707,3.5859 8.629,4.6602 33.789,21.7656 46.067,34.8789 2.074,2.211 4.086,5.3321 4.906,6.6602 -0.649,0.8437 -1.344,1.4648 -2.215,1.7734 -2.668,0.9531 -5.926,-0.2383 -10.465,-2.1211 C 176.266,70.9258 167.824,66.2188 156.867,60 c -0.523,-0.3242 -1.066,-0.6367 -1.625,-0.9375 -0.082,-0.043 -0.164,-0.0859 -0.246,-0.125 -6.558,-3.7266 -13.984,-7.957 -22.43,-12.6094 -3.566,-1.9648 -8.652,-2.7578 -14.07,-2.5312 -6.586,0.2812 -13.695,1.9179 -17.84,3.0976 -3.7146,1.0586 -5.8708,4.9375 -4.8122,8.6524 1.0585,3.7148 4.9372,5.8711 8.6482,4.8125 3.395,-0.9649 9.207,-2.3438 14.598,-2.5742 2.562,-0.1094 5.031,-0.125 6.719,0.8046 8.234,4.5352 15.543,8.668 22.046,12.336 z m -131.9878,-8.25 9.8906,2.3086 14.3555,-47.3672 -9.8906,-2.3086 z m 20.7851,70.5902 c -1.496,2.656 -4.6054,4.097 -7.6914,3.375 l -23.55465,-5.5 c -1.88281,-0.438 -3.5,-1.637 -4.46875,-3.317 -0.96875,-1.676 -1.199219,-3.676 -0.636719,-5.527 L 14.1367,76.6484 5.40625,74.6094 C 3.52344,74.1719 1.90625,72.9727 0.9375,71.293 -0.03125,69.6172 -0.261719,67.6172 0.300781,65.7656 L 18.7266,4.97266 c 1.0703,-3.53125 4.6953,-5.625004 8.289,-4.789066 L 50.5703,5.68359 C 52.457,6.12109 54.0742,7.32422 55.043,9 c 0.7109,1.2344 1.0234,2.6484 0.914,4.0469 14.5078,0.039 43.0899,0.3359 65,1.914 14.395,1.0391 26.106,2.9414 30.348,5.2344 10.746,5.8008 44.894,29.4922 54.855,43.9727 4.469,6.5 4.555,12.3047 2.227,16.0195 -2.907,4.6484 -6.324,7.418 -10.274,8.8242 -3.754,1.3399 -8.16,1.4571 -13.519,0.0508 -4.739,-1.2461 -10.539,-3.8789 -17.809,-7.6914 -0.394,1.0352 -0.922,2.0547 -1.597,3.0469 12.937,9.0742 29.589,22.238 38.007,32.336 3.266,3.918 5.387,7.566 6.239,10.504 1.082,3.738 0.546,6.922 -1.043,9.461 -2.911,4.648 -6.328,7.418 -10.278,8.824 -3.754,1.34 -8.16,1.457 -13.519,0.051 -4.739,-1.246 -10.539,-3.879 -17.809,-7.692 -0.957,2.508 -2.695,4.926 -5.387,7.09 -1.414,1.145 -4.097,2.481 -7.882,3.16 -6.203,1.121 -16.25,0.836 -26.825,-4.086 -4.836,-2.253 -8.937,-0.839 -13.312,0.907 -4.309,1.718 -8.793,3.879 -13.8595,5.402 -11.6054,3.488 -25.7148,0.664 -38.4179,-4.422 -9.6563,-3.863 -18.461,-8.91 -24.4493,-12.687 v 0" /></g></g></svg>