<?xml version="1.0" encoding="UTF-8" standalone="no"?>
<svg
   xmlns:dc="http://purl.org/dc/elements/1.1/"
   xmlns:cc="http://creativecommons.org/ns#"
   xmlns:rdf="http://www.w3.org/1999/02/22-rdf-syntax-ns#"
   xmlns:svg="http://www.w3.org/2000/svg"
   xmlns="http://www.w3.org/2000/svg"
   viewBox="0 0 28 27.426666"
   height="27.426666"
   width="28"
   xml:space="preserve"
   id="svg2"
   version="1.1"><metadata
     id="metadata8"><rdf:RDF><cc:Work
         rdf:about=""><dc:format>image/svg+xml</dc:format><dc:type
           rdf:resource="http://purl.org/dc/dcmitype/StillImage" /></cc:Work></rdf:RDF></metadata><defs
     id="defs6" /><g
     transform="matrix(1.3333333,0,0,-1.3333333,0,27.426667)"
     id="g10"><g
       transform="scale(0.1)"
       id="g12"><path
         id="path14"
         style="fill:#000000;fill-opacity:1;fill-rule:nonzero;stroke:none"
         d="M 195,15 H 172.5 V 97.5 H 195 Z M 112.5,41.25 V 190.5 c 0.75,0 2.25,0 3,0 2.25,-0.75 3.75,-3 5.25,-7.5 1.5,-6 3,-15 4.5,-24.75 4.891,-27.934 9.801,-62.9961 32.25,-73.1406 V 28.3945 c -24.879,-7.8906 -38.625,6.4805 -45,12.8555 z m -60,-13.6094 v 57.4532 c 22.5469,10.0507 28.0586,44.5192 32.25,73.1562 1.5,9.75 3,19.5 4.5,24.75 1.5,3.75 3,6.75 5.25,7.5 0.75,0 2.25,0 3,0 V 40.5 C 91.125,33.418 77.3789,19.6758 52.5,27.6406 Z M 15,15 V 97.5 H 37.5 V 23.0625 c -0.0508,-0.418 -0.0352,-0.8125 0,-1.2266 V 15 Z m 187.5,97.5 H 165 c -4.5,0 -7.5,-3 -7.5,-7.5 v -1.527 c -10.277,11.75 -14.254,37.242 -17.25,57.027 -1.5,11.25 -3,20.25 -5.25,27 -3,9 -7.5,14.25 -15,16.5 -5.449,2.098 -10.609,1.129 -14.277,-0.246 -3.668,1.48 -9.5355,2.898 -15.723,0.996 C 83.25,202.5 78,196.5 75,187.5 72.75,180.75 71.25,171 69.75,160.5 66.7539,140.715 62.7773,115.223 52.5,103.473 V 105 c 0,4.5 -3,7.5 -7.5,7.5 H 7.5 C 3,112.5 0,109.5 0,105 V 7.5 C 0,3 3,0 7.5,0 H 45 c 4.5,0 7.5,3 7.5,7.5 v 4.8477 C 57.5039,11.1211 62.2773,10.5 66.75,10.5 c 13.6602,0 26.6797,5.6523 38.531,16.2813 C 116.852,15.957 129.145,10.5 143.25,10.5 c 4.848,0 9.465,0.6211 14.25,1.9609 V 7.5 C 157.5,3 160.5,0 165,0 h 37.5 C 207,0 210,3 210,7.5 V 105 c 0,4.5 -3,7.5 -7.5,7.5" /></g></g></svg>