<?xml version="1.0" encoding="UTF-8" standalone="no"?>
<svg
   xmlns:dc="http://purl.org/dc/elements/1.1/"
   xmlns:cc="http://creativecommons.org/ns#"
   xmlns:rdf="http://www.w3.org/1999/02/22-rdf-syntax-ns#"
   xmlns:svg="http://www.w3.org/2000/svg"
   xmlns="http://www.w3.org/2000/svg"
   viewBox="0 0 28 23.533333"
   height="23.533333"
   width="28"
   xml:space="preserve"
   id="svg2"
   version="1.1"><metadata
     id="metadata8"><rdf:RDF><cc:Work
         rdf:about=""><dc:format>image/svg+xml</dc:format><dc:type
           rdf:resource="http://purl.org/dc/dcmitype/StillImage" /></cc:Work></rdf:RDF></metadata><defs
     id="defs6" /><g
     transform="matrix(1.3333333,0,0,-1.3333333,0,23.533333)"
     id="g10"><g
       transform="scale(0.1)"
       id="g12"><path
         id="path14"
         style="fill:#000000;fill-opacity:1;fill-rule:nonzero;stroke:none"
         d="m 162.328,29.8867 2.645,-2.7422 -15.598,-15.5937 -2.738,2.6445 z m -22.199,-3.914 -95.7345,95.7423 10.418,10.422 95.7385,-95.7425 z M 16.7383,149.363 27.1641,159.789 45.6797,141.273 35.2539,130.848 Z M 188.652,61.6719 c 4.301,9.6523 4.629,18.6367 0.953,26.6992 -0.769,1.6836 -1.707,3.3086 -2.804,4.8672 5.609,-5.9024 10.547,-11.6055 10.258,-18.1641 -0.223,-5.2461 -4.309,-10.3945 -8.84,-15.6367 -0.531,-0.6289 -1.078,-1.2461 -1.621,-1.8711 0.734,1.332 1.418,2.6992 2.054,4.1055 z m 5.977,42.0821 -0.375,0.383 c -0.992,1.043 -1.949,2.035 -2.856,3.035 -2.582,2.824 -8.394,10.019 -6.449,15.871 1.031,3.094 4.321,5.094 8.313,7.52 1.414,0.863 2.871,1.753 4.25,2.726 1.668,1.176 2.074,3.481 0.906,5.149 l -3.16,4.515 c -0.57,0.805 -1.43,1.356 -2.395,1.524 -1.011,0.179 -1.965,-0.051 -2.765,-0.61 -1.149,-0.808 -2.379,-1.551 -3.719,-2.363 -4.965,-3.02 -11.145,-6.77 -13.691,-14.383 -2.766,-8.32 -0.02,-17.859 7.742,-27.043 -2.68,2.246 -5.805,4.317 -9.371,6.192 -13.071,6.886 -18.684,13.664 -19.368,23.382 -0.683,9.797 4.735,18.926 13.489,22.719 0.894,0.399 1.609,1.129 1.965,2.039 0.367,0.918 0.347,1.934 -0.047,2.836 l -2.2,5.063 c -0.82,1.867 -2.988,2.722 -4.867,1.921 -13.758,-5.968 -22.289,-20.226 -21.226,-35.484 1.32,-18.715 15.605,-28.316 26.238,-33.9101 13.398,-7.0507 17.148,-15.9179 11.801,-27.8984 -2.246,-5.0508 -5.614,-9.6914 -9.699,-15.3398 -1.368,-1.8985 -2.778,-3.8555 -4.27,-6.0704 -0.453,-0.6835 -0.809,-1.375 -1.098,-2.0703 L 29.7852,175.445 c -1.3907,1.387 -3.8477,1.387 -5.2383,0 L 1.08594,151.98 c -1.449221,-1.445 -1.449221,-3.789 0,-5.234 L 137.508,10.3086 c 0.055,-0.0547 0.133,-0.0742 0.191,-0.1289 l 9.012,-9.09376 C 147.402,0.394531 148.387,0 149.375,0 c 0.891,0 1.875,0.394531 2.566,1.08594 l 23.497,23.49216 c 0.691,0.6914 1.085,1.5821 1.085,2.5664 0,0.4453 -0.105,0.8868 -0.257,1.3008 1.793,0.6485 3.464,1.6055 4.8,3.1328 5.649,6.4102 11.344,12.9453 16.938,19.4141 5.832,6.7461 11.559,14.1328 11.973,23.5234 0.539,12.6524 -8.274,21.8477 -15.348,29.2384" /></g></g></svg>