<?xml version="1.0" encoding="UTF-8" standalone="no"?>
<svg
   xmlns:dc="http://purl.org/dc/elements/1.1/"
   xmlns:cc="http://creativecommons.org/ns#"
   xmlns:rdf="http://www.w3.org/1999/02/22-rdf-syntax-ns#"
   xmlns:svg="http://www.w3.org/2000/svg"
   xmlns="http://www.w3.org/2000/svg"
   viewBox="0 0 28 21.426666"
   height="21.426666"
   width="28"
   xml:space="preserve"
   id="svg2"
   version="1.1"><metadata
     id="metadata8"><rdf:RDF><cc:Work
         rdf:about=""><dc:format>image/svg+xml</dc:format><dc:type
           rdf:resource="http://purl.org/dc/dcmitype/StillImage" /></cc:Work></rdf:RDF></metadata><defs
     id="defs6" /><g
     transform="matrix(1.3333333,0,0,-1.3333333,0,21.426667)"
     id="g10"><g
       transform="scale(0.1)"
       id="g12"><path
         id="path14"
         style="fill:#000000;fill-opacity:1;fill-rule:nonzero;stroke:none"
         d="m 140.77,41.6641 v 15.4726 c 0,4.043 -3.282,7.3242 -7.325,7.3242 h -20.191 c -0.066,0 -0.121,0.0391 -0.188,0.0391 -0.07,0 -0.125,-0.0391 -0.191,-0.0391 h -7.684 c -0.5,0 -0.925,0.418 -0.925,0.9141 v 54.734 c 0,0.496 0.425,0.911 0.925,0.911 29.418,0 29.418,0 30.571,0.386 2.984,0.996 5.008,3.797 5.008,6.949 l 0.007,15.422 54.352,-51.5075 z M 104.785,39.6719 H 76.5352 c -4.043,0 -7.3243,-3.2813 -7.3243,-7.3281 l -0.0156,-15.375 -54.3164,51.4023 54.332,50.6329 v -15.488 c 0,-4.0433 3.2813,-7.3246 7.3243,-7.3246 H 89.6133 V 65.375 c 0,-8.582 6.9883,-15.5664 15.5777,-15.5664 0,0.0039 0.2,0.0078 0.547,0.0078 V 40.625 c 0,-0.5742 -0.379,-0.9531 -0.953,-0.9531 z m 100.32,64.2541 -56.714,52.824 c 0,0.004 -0.008,0.012 -0.008,0.016 -4.199,3.886 -9.578,4.972 -14.442,2.898 -3.777,-1.605 -7.824,-5.762 -7.824,-12.605 v -11.387 h -20.926 c -8.5894,0 -15.5777,-6.984 -15.5777,-15.563 v -9.265 h -5.75 v 11.449 c 0,5.551 -2.6875,10.082 -7.8399,12.652 -4.8007,1.989 -10.1406,0.922 -14.375,-2.941 L 5.00391,79.1914 C 1.82031,76.3516 0,72.2461 0,67.9336 0,63.7188 1.72266,59.7695 4.89844,56.7617 L 61.625,3.96875 C 64.3945,1.35547 67.7266,0 71.0898,0 c 1.6602,0 3.336,0.324219 4.9454,1.01172 3.7812,1.58203 7.8281,5.73047 7.8281,12.63668 v 11.3711 h 20.9217 c 8.606,0 15.61,7 15.61,15.6055 v 9.1875 c 1.988,0 3.953,-0.0039 5.722,-0.0039 V 38.4219 c 0,-5.7227 2.891,-10.4258 7.785,-12.6094 1.629,-0.707 3.321,-1.0508 5.008,-1.0508 3.336,0 6.668,1.3555 9.481,3.9571 l 56.714,52.8242 c 3.11,2.8906 4.895,6.9687 4.895,11.1914 0,4.2344 -1.785,8.3166 -4.895,11.1916" /></g></g></svg>