<?xml version="1.0" encoding="UTF-8" standalone="no"?>
<svg
   xmlns:dc="http://purl.org/dc/elements/1.1/"
   xmlns:cc="http://creativecommons.org/ns#"
   xmlns:rdf="http://www.w3.org/1999/02/22-rdf-syntax-ns#"
   xmlns:svg="http://www.w3.org/2000/svg"
   xmlns="http://www.w3.org/2000/svg"
   viewBox="0 0 28 19.013332"
   height="19.013332"
   width="28"
   xml:space="preserve"
   id="svg2"
   version="1.1"><metadata
     id="metadata8"><rdf:RDF><cc:Work
         rdf:about=""><dc:format>image/svg+xml</dc:format><dc:type
           rdf:resource="http://purl.org/dc/dcmitype/StillImage" /></cc:Work></rdf:RDF></metadata><defs
     id="defs6" /><g
     transform="matrix(1.3333333,0,0,-1.3333333,0,19.013333)"
     id="g10"><g
       transform="scale(0.1)"
       id="g12"><path
         id="path14"
         style="fill:#000000;fill-opacity:1;fill-rule:nonzero;stroke:none"
         d="m 17.5703,86.1797 10.0781,-0.0391 c 3.6485,-0.0117 6.6719,-2.8242 6.9532,-6.4609 C 37.5391,41.6211 63.5273,14 96.3906,14 c 3.0625,0 6.0934,0.2734 9.0864,0.8203 -18.3481,15.4961 -28.9575,37.6758 -30.2309,63.8008 -0.0938,1.918 0.6055,3.793 1.9336,5.1797 1.3164,1.3828 3.1484,2.164 5.0586,2.164 0.0078,0 0.0195,0 0.0234,0 L 92.2852,85.9297 56.7266,127.664 c -0.3477,0.41 -0.9102,0.895 -1.6133,0.899 h -0.0039 c -0.6914,0 -1.2422,-0.469 -1.586,-0.864 z M 96.3906,0 C 57.9453,0 27.2227,29.9805 21.3359,72.1641 l -9.5156,0.0351 C 4.46875,72.2266 1.71875,76.5391 0.875,78.3906 -0.0117188,80.3438 -1.48828,85.5625 3.94141,91.832 l 38.99999,45.035 c 3.1484,3.641 7.6524,5.363 12.2344,5.696 4.6289,-0.02 9.082,-2.141 12.2148,-5.825 L 105.938,91.4922 c 5.382,-6.3086 3.867,-11.5195 2.964,-13.4688 -0.851,-1.8398 -3.625,-6.1171 -10.9215,-6.1171 -0.0235,0 -0.0391,0 -0.0625,0 l -8.0235,0.0273 C 92.9609,48.832 105.051,30.0273 124.441,18.4609 c 2.235,-1.332 3.547,-3.7929 3.411,-6.3828 C 127.715,9.48047 126.156,7.17578 123.797,6.08984 115.063,2.05078 105.84,0 96.3906,0" /><path
         id="path16"
         style="fill:#000000;fill-opacity:1;fill-rule:nonzero;stroke:none"
         d="m 198.516,56.3359 h 0.093 z m -80.809,0.3008 35.57,-41.7422 C 153.621,14.4922 154.18,14 154.879,14 c 0.012,0 0.012,0 0.012,0 0.691,0 1.246,0.4766 1.593,0.8672 l 35.942,41.5234 -10.071,0.0352 c -3.648,0.0195 -6.671,2.8242 -6.957,6.4609 -2.933,38.0543 -28.921,65.6763 -61.789,65.6763 -3.062,0 -6.097,-0.274 -9.089,-0.825 18.347,-15.492 28.957,-37.6716 30.234,-63.8005 0.09,-1.9141 -0.602,-3.7852 -1.934,-5.1797 -1.332,-1.3828 -3.027,-1.9414 -5.086,-2.1601 z M 154.891,0 c -0.028,0 -0.047,0 -0.067,0 -4.629,0.0195313 -9.078,2.14063 -12.203,5.81641 L 104.063,51.0664 c -5.3833,6.3242 -3.868,11.5313 -2.965,13.4805 0.863,1.8476 3.855,5.9922 10.984,6.1094 l 8.023,-0.0274 c -3.074,23.0977 -15.156,41.9061 -34.5542,53.4801 -2.2266,1.329 -3.5391,3.782 -3.4024,6.375 0.1368,2.594 1.6954,4.899 4.0508,5.989 8.7266,4.039 17.9528,6.09 27.4098,6.09 38.454,0 69.172,-29.973 75.055,-72.1646 l 9.516,-0.0351 c 7.355,-0.0274 10.109,-4.3399 10.949,-6.1914 0.883,-1.9571 2.359,-7.1719 -3.074,-13.4336 L 167.066,5.69531 C 163.914,2.07031 159.484,0 154.891,0" /></g></g></svg>