<?xml version="1.0" encoding="utf-8"?>
<!-- Generator: Adobe Illustrator 25.4.1, SVG Export Plug-In . SVG Version: 6.00 Build 0)  -->
<svg version="1.1" id="Layer_1" xmlns="http://www.w3.org/2000/svg" xmlns:xlink="http://www.w3.org/1999/xlink" x="0px" y="0px"
	 viewBox="0 0 24 24" style="enable-background:new 0 0 24 24;" xml:space="preserve">
<g>
	<path d="M13.8,9.7c-0.1-0.2-0.3-0.3-0.5-0.3c-0.1,0-0.2,0-0.2,0c-0.1,0-0.2,0.1-0.3,0.1c-0.2,0.1-0.3,0.3-0.5,0.4
		c-0.3-0.2-0.7-0.3-1.1-0.3l0,0c0,0,0,0,0,0l-0.2,0c-0.6,0.1-1.1,0.3-1.5,0.7c-0.2,0.2-0.4,0.4-0.5,0.7c-0.2,0.3-0.2,0.6-0.2,0.8
		c0,0.4,0.1,0.8,0.4,1.1c0.2,0.3,0.4,0.5,0.6,0.7c0.3,0.3,0.5,0.5,0.7,0.6c0.1,0.1,0.2,0.2,0.3,0.3c0.1,0.2,0.2,0.3,0.2,0.6
		c0,0.1-0.1,0.2-0.2,0.3c-0.1,0.1-0.2,0.2-0.3,0.2c-0.1,0.1-0.3,0.1-0.5,0.2c-0.1,0-0.1,0-0.2,0c-0.1,0-0.2,0-0.2,0
		c-0.3-0.1-0.5-0.2-0.8-0.4c-0.2-0.2-0.4-0.4-0.5-0.7c0-0.1-0.1-0.3-0.1-0.5c0-0.3,0-0.5,0.1-0.6c0.1-0.2,0.1-0.4,0-0.5
		c-0.1-0.2-0.2-0.3-0.3-0.4c-0.1-0.1-0.2-0.1-0.3-0.1c0,0,0,0,0,0c-0.1,0-0.1,0-0.2,0c0,0,0,0,0,0c0,0,0,0,0,0
		c-0.2,0.1-0.3,0.2-0.4,0.4l0,0.1c-0.1,0.4-0.2,0.7-0.2,1.1c0,0.3,0,0.5,0.1,0.9c0.1,0.2,0.2,0.4,0.3,0.7C7.2,16,7.1,16.1,7,16.2
		c-0.1,0.1-0.2,0.3-0.2,0.5c0,0.2,0.1,0.3,0.2,0.5c0.1,0.1,0.3,0.2,0.4,0.2c0,0,0,0,0,0c0,0,0,0,0,0c0,0,0,0,0.1,0
		c0.2,0,0.3-0.1,0.5-0.3c0.1-0.1,0.1-0.1,0.2-0.2c0.3,0.2,0.7,0.3,1,0.4c0.5,0.1,0.9,0,1.4-0.1c0,0,0,0,0.1,0c0,0,0.1,0,0.1,0
		c0.1,0,0.2-0.1,0.3-0.2c0.2-0.1,0.4-0.2,0.6-0.4c0.3-0.3,0.5-0.6,0.5-1c0-0.1,0-0.2,0-0.4c0-0.5-0.2-0.9-0.4-1.2
		c-0.2-0.3-0.4-0.5-0.6-0.7c-0.2-0.1-0.4-0.3-0.5-0.5c-0.2-0.2-0.3-0.4-0.5-0.6c0,0,0,0,0,0c0-0.1-0.1-0.1-0.1-0.2
		c0-0.1,0-0.2,0.1-0.3c0.1-0.1,0.2-0.3,0.3-0.4c0.2-0.1,0.4-0.2,0.5-0.2h0.1c0,0,0,0,0,0c0.2,0,0.4,0.1,0.5,0.2
		c0.1,0.1,0.3,0.2,0.4,0.3c0.1,0.2,0.2,0.4,0.2,0.6c0,0.2,0,0.3-0.1,0.5c-0.1,0.3,0,0.8,0.4,0.9c0,0,0.1,0,0.1,0c0.1,0,0.3,0,0.4,0
		c0.2-0.1,0.3-0.2,0.4-0.4c0.1-0.3,0.2-0.7,0.2-1c0-0.5-0.1-0.9-0.4-1.3c0.1-0.1,0.2-0.2,0.3-0.2C14,10.4,14,10,13.8,9.7z"/>
	<path d="M23,7.2L23,7.2c0-0.2-0.1-0.4-0.2-0.6l0,0c-0.2-0.4-0.5-0.7-0.8-1c-0.1-0.1-0.2-0.2-0.2-0.2l0,0c0-0.1-0.1-0.1-0.1-0.2
		c0-0.1,0-0.1,0-0.2c0-0.1,0-0.2,0-0.2c0-0.1,0-0.1,0-0.3c-0.1-0.9-0.8-1.6-1.7-1.9c-0.4-0.1-0.8-0.1-1.1-0.1c-0.1,0-0.1,0-0.2,0
		c0,0,0,0,0,0c0,0,0-0.1-0.1-0.1c-0.1-0.1-0.1-0.3-0.3-0.4c-0.1-0.2-0.4-0.5-0.7-0.6c-0.6-0.3-1.1-0.3-1.7-0.1
		c-0.3,0.1-0.4,0.3-0.5,0.6l-0.1,1.1l-0.2-0.3c-0.1-0.2-0.3-0.3-0.5-0.5c-0.3-0.2-0.6-0.3-1.1-0.3c-0.2,0-0.5,0-0.8,0.2
		c-0.3,0.2-0.6,0.4-0.7,0.7c-0.2,0.5-0.3,1-0.1,1.5C11.7,4.5,11.8,4.8,12,5c-0.1,0-0.3,0-0.5,0l-0.2,0c-1.1,0.1-3.8,0.5-6.2,2.5
		c-1,0.9-1.9,2-2.5,3.2l-1,0.7c-0.7,0.5-0.8,1.4-0.4,2c0.1,0.2,0.3,0.4,0.5,0.5l0.6,0.3c0,0,0,0,0,0C2.8,16,3.6,17.7,4.9,19
		c1.4,1.5,3.2,2.5,5.1,2.9c0,0,0,0,0,0l0.6,0.6c0.3,0.3,0.7,0.5,1.2,0.5h0c0.4,0,0.9-0.2,1.2-0.5l1.1-1.1c1.7-1,3.1-2.4,4-4.1
		c0.9-1.8,1.1-3.6,1.1-4.8c0-0.8,0-1.5-0.1-2.1c0-0.4-0.1-0.7-0.1-1c0.7-0.5,1.4-0.7,2.3-0.7c0.3,0,0.6-0.1,0.8-0.1
		c0.2-0.1,0.4-0.2,0.5-0.3C22.8,8,22.9,7.8,23,7.5l0-0.1L23,7.2z M11.4,5.5L11.4,5.5L11.4,5.5L11.4,5.5z M21,7
		c-0.5,0-1.1,0.1-1.6,0.3l0.1,0c0.4-0.2,0.7-0.5,1.1-0.7C20.7,6.7,20.9,6.8,21,7z M16.6,4c0.1-0.4,0.1-0.9,0.2-1.3c0,0,0,0,0,0
		c0,0,0,0,0.1,0.1c0,0,0,0.1,0,0.1l0,0.1c0,0.1,0.1,0.2,0.1,0.2C16.9,3.6,16.7,3.8,16.6,4z M16.9,5.2c0.2,0.1,0.4,0.1,0.7,0.1l0,0
		c0,0,0.1,0,0.1-0.1l0,0c0,0,0,0,0.1,0C17.9,5.1,18,5,18,4.9c0.1-0.3,0.3-0.5,0.5-0.7c0.1,0,0.3,0,0.5,0c0.2,0,0.4,0,0.5,0
		c0.2,0.1,0.4,0.3,0.5,0.5c0,0.1,0,0.1,0,0.2c0,0,0,0.1,0,0.1c-0.4,0.3-0.9,0.6-1.4,0.9c-0.4,0.2-0.5,0.7-0.3,1.1
		c0.2,0.3,0.5,0.5,0.9,0.4c-0.3,0.1-0.7,0.3-1,0.5c-0.2-0.2-0.5-0.4-0.7-0.7c-0.4-0.4-0.8-0.8-1.2-1.3c0.1-0.4,0.1-0.8,0.2-1.2
		C16.5,4.9,16.7,5.1,16.9,5.2z M11.1,20.3H11c-0.2,0-0.3,0-0.5,0l-0.1,0c-0.1,0-0.1,0-0.2,0c-1.6-0.4-3.1-1.2-4.2-2.4
		c-1-1.1-1.7-2.4-2-3.9c-0.1-0.5-0.4-0.9-0.8-1.1c-0.1-0.1-0.2-0.1-0.4-0.2c0.1-0.1,0.2-0.1,0.2-0.2c0.2-0.1,0.3-0.2,0.5-0.3
		C3.7,12,3.9,11.9,4,11.6l0-0.1c0,0,0-0.1,0.1-0.1c0.5-1,1.2-1.9,2-2.7l0,0C7.5,7.7,9,7,10.9,6.7c0,0.1,0,0.2,0,0.3
		c0,0.4,0.1,0.7,0.3,1.1C11.3,8.5,11.6,8.8,12,9c0.4,0.2,0.7,0.3,1.2,0.3c0,0,0,0,0,0c0.2,0,0.4,0,0.6-0.1c0,0,0.1,0,0.1,0
		c0,0,0,0,0,0l0,0C14,9.1,14.1,9,14.2,9c0.5-0.2,0.9-0.6,1.3-0.9c0.1-0.1,0.2-0.2,0.2-0.3c0.2,0.2,0.4,0.4,0.6,0.6
		c0.3,0.4,0.7,0.7,1,1c0,0.3,0.1,0.7,0.1,1.2c0,0.6,0.1,1.3,0.1,2c0,1.7-0.3,2.9-0.9,4c-0.4,0.7-0.9,1.4-1.5,2c0,0-0.1,0.1-0.1,0.1
		c0,0-0.1,0.1-0.1,0.1l0,0c-0.2,0.2-0.4,0.4-0.6,0.5c-0.3,0.2-0.7,0.5-1,0.7l-0.1,0.1c-0.1,0.1-0.2,0.2-0.3,0.3l-0.9,1
		c0-0.1,0-0.2,0-0.2C12,20.7,11.6,20.3,11.1,20.3z M13.6,6.7c0,0,0.1,0,0.1,0c0.2,0,0.5,0.1,0.7,0.1C14.3,6.9,14.2,7,14,7.2l0,0
		c-0.2,0.1-0.3,0.3-0.6,0.4c-0.1,0-0.2,0.1-0.3,0.1l0,0.1l0-0.1c-0.1,0-0.2,0-0.3-0.1c-0.1-0.1-0.1-0.1-0.1-0.2
		c0-0.1-0.1-0.2-0.1-0.3c0,0,0-0.1,0-0.1c0,0,0-0.1,0-0.1c0.1-0.1,0.2-0.1,0.4-0.1C13.2,6.7,13.4,6.7,13.6,6.7z M13.8,4.4L13.8,4.4
		c-0.2-0.2-0.3-0.3-0.4-0.4c-0.1-0.1-0.1-0.2-0.2-0.3c0,0,0-0.1,0.1-0.2c0,0,0,0,0,0l0.1,0c0.1,0,0.1,0,0.1,0l0,0c0,0,0,0.1,0.1,0.1
		C13.7,4,13.9,4.2,14,4.5C13.9,4.5,13.8,4.5,13.8,4.4z"/>
</g>
</svg>
