<?xml version="1.0" encoding="utf-8"?>
<!-- Generator: Adobe Illustrator 25.4.1, SVG Export Plug-In . SVG Version: 6.00 Build 0)  -->
<svg version="1.1" id="Layer_1" xmlns="http://www.w3.org/2000/svg" xmlns:xlink="http://www.w3.org/1999/xlink" x="0px" y="0px"
	 viewBox="0 0 24 24" style="enable-background:new 0 0 24 24;" xml:space="preserve">
<path d="M22,10.9c0.5,0,0.9-0.4,0.9-0.9V6.7l0,0c-0.2-0.3-1-0.7-4.8-2.6H18c-1.4-0.7-3.2-1.6-5.5-2.8l-0.1-0.1h-0.1
	c-0.3,0-1,0.3-4.9,2.3l0,0C6.1,4,4.2,4.9,1.6,6.2C1,6.5,1,6.9,1.1,8.5V10c0,0.5,0.4,0.9,0.9,0.9h1.1v6.2H2c-0.5,0-0.9,0.4-0.9,0.9v4
	c0,0.5,0.4,0.9,0.9,0.9h20c0.5,0,0.9-0.4,0.9-0.9v-4c0-0.5-0.4-0.9-0.9-0.9h-1.1v-6.2C20.9,10.9,22,10.9,22,10.9z M19.1,10.9v6.2H16
	v-6.2C16,10.9,19.1,10.9,19.1,10.9z M14.1,10.9v6.2H9.9v-6.2C9.9,10.9,14.1,10.9,14.1,10.9z M8.1,10.9v6.2H4.9v-6.2
	C4.9,10.9,8.1,10.9,8.1,10.9z M2.9,9.1V7.5L12,3l9.1,4.6v1.6L2.9,9.1L2.9,9.1z M21.1,18.9V21H2.9v-2.1H21.1z"/>
</svg>
