<?xml version="1.0" encoding="utf-8"?>
<!-- Generator: Adobe Illustrator 25.4.1, SVG Export Plug-In . SVG Version: 6.00 Build 0)  -->
<svg version="1.1" id="Layer_1" xmlns="http://www.w3.org/2000/svg" xmlns:xlink="http://www.w3.org/1999/xlink" x="0px" y="0px"
	 viewBox="0 0 24 24" style="enable-background:new 0 0 24 24;" xml:space="preserve">
<path d="M16.5,19.8c0.5,0,1-0.4,1-1v-6c0-0.5-0.4-1-1-1s-1,0.4-1,1v6C15.5,19.3,16,19.8,16.5,19.8z"/>
<circle cx="7.5" cy="15.7" r="1.1"/>
<circle cx="10.5" cy="15.7" r="1.1"/>
<path d="M13.4,16.8c0.6,0,1.1-0.5,1.1-1.1c0-0.6-0.5-1.1-1.1-1.1s-1.1,0.5-1.1,1.1C12.3,16.3,12.8,16.8,13.4,16.8z"/>
<path d="M7.5,13.9c0.6,0,1.1-0.5,1.1-1.1s-0.5-1.1-1.1-1.1s-1.1,0.5-1.1,1.1C6.4,13.4,6.9,13.9,7.5,13.9z"/>
<path d="M10.5,13.9c0.6,0,1.1-0.5,1.1-1.1s-0.5-1.1-1.1-1.1s-1.1,0.5-1.1,1.1S9.9,13.9,10.5,13.9z"/>
<path d="M13.4,13.9c0.6,0,1.1-0.5,1.1-1.1s-0.5-1.1-1.1-1.1s-1.1,0.5-1.1,1.1C12.3,13.4,12.8,13.9,13.4,13.9z"/>
<circle cx="7.5" cy="18.8" r="1.1"/>
<circle cx="10.5" cy="18.8" r="1.1"/>
<path d="M13.4,19.9c0.6,0,1.1-0.5,1.1-1.1s-0.5-1.1-1.1-1.1s-1.1,0.5-1.1,1.1S12.8,19.9,13.4,19.9z"/>
<path d="M6,22.6c-1.3,0-2.4-1.1-2.4-2.4V3.7c0-1.3,1.1-2.4,2.4-2.4h12c1.3,0,2.4,1.1,2.4,2.5v16.4c0,1.3-1.1,2.4-2.4,2.4H6z
	 M5.4,20.3c0,0.3,0.2,0.6,0.6,0.6h12c0.3,0,0.6-0.2,0.6-0.6v-9.6H5.4V20.3z M6,3.2c-0.4,0-0.6,0.2-0.6,0.6v5.1h13.3V3.8
	c0-0.3-0.2-0.6-0.6-0.6H6z"/>
</svg>
