<?xml version="1.0" encoding="utf-8"?>
<!-- Generator: Adobe Illustrator 25.4.1, SVG Export Plug-In . SVG Version: 6.00 Build 0)  -->
<svg version="1.1" id="Layer_1" xmlns="http://www.w3.org/2000/svg" xmlns:xlink="http://www.w3.org/1999/xlink" x="0px" y="0px"
	 viewBox="0 0 24 24" style="enable-background:new 0 0 24 24;" xml:space="preserve">
<g>
	<path d="M20.1,3.8H3.9C2.5,3.8,1.4,5,1.4,6.3v11.4c0,1.4,1.2,2.5,2.5,2.5h16.2c1.4,0,2.5-1.2,2.5-2.6V6.3
		C22.6,4.9,21.5,3.8,20.1,3.8z M3.2,6.3c0-0.3,0.3-0.7,0.7-0.7h16.2c0.3,0,0.7,0.3,0.7,0.7v1.6H3.2V6.3z M20.8,9.7v7.9
		c0,0.3-0.3,0.7-0.7,0.7H3.9c-0.3,0-0.7-0.3-0.7-0.7V9.7H20.8z"/>
	<path d="M5.5,16.9h4.9c0.5,0,0.8-0.5,0.8-0.9c0-0.5-0.5-0.9-0.9-0.9H5.5c-0.5,0-0.9,0.5-0.9,0.9C4.6,16.4,5,16.9,5.5,16.9z"/>
</g>
</svg>
