<?xml version="1.0" encoding="utf-8"?>
<!-- Generator: Adobe Illustrator 25.4.1, SVG Export Plug-In . SVG Version: 6.00 Build 0)  -->
<svg version="1.1" id="Layer_1" xmlns="http://www.w3.org/2000/svg" xmlns:xlink="http://www.w3.org/1999/xlink" x="0px" y="0px"
	 viewBox="0 0 24 24" style="enable-background:new 0 0 24 24;" xml:space="preserve">
<g>
	<path d="M20.6,0.6H3.4C2.1,0.6,1,1.7,1,3.1v1.6c0,0.4,0.3,0.8,0.8,0.9v9.3c0,1.3,1.1,2.4,2.4,2.4h5.8l-4.2,4.8
		c-0.3,0.4-0.3,0.9,0.1,1.2c0.2,0.1,0.4,0.2,0.6,0.2c0.2,0,0.5-0.1,0.7-0.3l3.9-4.5v3.1c0,0.5,0.4,0.9,0.9,0.9s0.9-0.4,0.9-0.9v-3.1
		l3.9,4.5c0.2,0.2,0.4,0.3,0.7,0.3c0.2,0,0.4-0.1,0.6-0.2c0.4-0.3,0.4-0.9,0.1-1.2l-4.2-4.8h5.8c1.3,0,2.4-1.1,2.4-2.4V5.5
		C22.6,5.4,23,5.1,23,4.6V3.1C23,1.7,21.9,0.6,20.6,0.6z M2.8,3.1c0-0.4,0.3-0.7,0.7-0.7h17.1c0.4,0,0.7,0.3,0.7,0.7v0.7H2.8V3.1z
		 M20.5,14.7c0,0.4-0.3,0.7-0.7,0.7H4.2c-0.4,0-0.7-0.3-0.7-0.7V5.5h16.9V14.7z"/>
	<path d="M9.7,14c2.2,0,4-1.8,4-4c0-2.2-1.8-4-4-4c-2.2,0-4,1.8-4,4C5.7,12.3,7.5,14,9.7,14z M11.7,9.2h-1.2V8
		C11.1,8.2,11.5,8.7,11.7,9.2z M8.8,8v2.1c0,0.5,0.4,0.9,0.9,0.9h2.1c-0.3,0.8-1.1,1.4-2.1,1.4c-1.2,0-2.2-1-2.2-2.2
		C7.4,9.1,8,8.3,8.8,8z"/>
	<path d="M15.1,9.4h2.3c0.5,0,0.9-0.4,0.9-0.9s-0.4-0.9-0.9-0.9h-2.3c-0.5,0-0.9,0.4-0.9,0.9S14.6,9.4,15.1,9.4z"/>
	<path d="M15.1,12.5h2.3c0.5,0,0.9-0.4,0.9-0.9s-0.4-0.9-0.9-0.9h-2.3c-0.5,0-0.9,0.4-0.9,0.9S14.6,12.5,15.1,12.5z"/>
</g>
</svg>
