<?xml version="1.0" encoding="utf-8"?>
<!-- Generator: Adobe Illustrator 25.4.1, SVG Export Plug-In . SVG Version: 6.00 Build 0)  -->
<svg version="1.1" id="Layer_1" xmlns="http://www.w3.org/2000/svg" xmlns:xlink="http://www.w3.org/1999/xlink" x="0px" y="0px"
	 viewBox="0 0 24 24" style="enable-background:new 0 0 24 24;" xml:space="preserve">
<g>
	<path d="M21.7,18.5H5.4V2.3c0-0.5-0.4-1.1-1.1-1.1c-0.6,0-1,0.4-1,1.1v16.2h-1c-0.5,0-1.1,0.4-1.1,1.1c0,0.5,0.4,1.1,1.1,1.1h1v1.1
		c0,0.5,0.4,1.1,1.1,1.1c0.7,0,1.1-0.5,1.1-1.1v-1.1h16.3c0.5,0,1.1-0.4,1.1-1.1C22.8,18.9,22.3,18.5,21.7,18.5z"/>
	<path d="M7.4,17c0.4,0,0.8-0.2,0.9-0.6l2.4-3.9l1.9,3.5c0.1,0.2,0.4,0.5,0.9,0.6c0.5,0,0.9-0.3,1-0.5l6.8-9.9
		c0.1-0.2,0.2-0.6,0.1-0.9c-0.1-0.3-0.2-0.5-0.4-0.6c-0.3-0.2-0.6-0.2-1-0.1c-0.2,0.1-0.4,0.2-0.5,0.4l-5.8,8.4l-1.9-3.6
		c-0.1-0.2-0.2-0.3-0.3-0.4l-0.1,0c-0.3-0.2-0.5-0.2-0.8-0.1c-0.4,0.1-0.6,0.3-0.7,0.6l-3.4,5.6c-0.1,0.2-0.2,0.4-0.2,0.6
		c0,0.3,0.1,0.6,0.3,0.7C6.8,16.9,7.1,17,7.4,17z"/>
</g>
</svg>
