<?xml version="1.0" encoding="utf-8"?>
<!-- Generator: Adobe Illustrator 25.4.1, SVG Export Plug-In . SVG Version: 6.00 Build 0)  -->
<svg version="1.1" id="Layer_1" xmlns="http://www.w3.org/2000/svg" xmlns:xlink="http://www.w3.org/1999/xlink" x="0px" y="0px"
	 viewBox="0 0 24 24" style="enable-background:new 0 0 24 24;" xml:space="preserve">
<path d="M20.5,5.2h-2.2V3.6c0-1.7-1.4-3.1-3.1-3.1H8.8c-1.7,0-3.1,1.4-3.1,3.1v1.6H3.5c-1.6,0-3,1.3-3,3v6.4c0,0.5,0.4,1,1,1h0.6
	v4.9c0,1.6,1.3,3,3,3h13.8c1.6,0,3-1.3,3-3v-4.9h0.6c0.5,0,1-0.4,1-1V8.2C23.5,6.6,22.1,5.2,20.5,5.2z M7.7,3.6
	c0-0.7,0.5-1.1,1.1-1.1h6.3c0.7,0,1.1,0.5,1.1,1.1v1.6H7.7V3.6z M13.7,11.4h-3.6c-0.5,0-1,0.4-1,1v1.2H2.5V8.2c0-0.6,0.5-1.1,1-1.1
	h16.9c0.5,0,1.1,0.5,1.1,1.1v5.4h-6.8v-1.2C14.7,11.9,14.2,11.4,13.7,11.4z M11.2,15.9v-2.5h1.7v2.5H11.2z M4,15.6h5.2v1.3
	c0,0.5,0.4,1,1,1h3.6c0.5,0,1-0.4,1-1v-1.3H20v4.9c0,0.5-0.5,1.1-1.1,1.1H5.1c-0.5,0-1.1-0.5-1.1-1.1V15.6z"/>
</svg>
