<?xml version="1.0" encoding="utf-8"?>
<!-- Generator: Adobe Illustrator 25.4.1, SVG Export Plug-In . SVG Version: 6.00 Build 0)  -->
<svg version="1.1" id="Layer_1" xmlns="http://www.w3.org/2000/svg" xmlns:xlink="http://www.w3.org/1999/xlink" x="0px" y="0px"
	 viewBox="0 0 24 24" style="enable-background:new 0 0 24 24;" xml:space="preserve">
<path d="M18.3,11.2h-0.5L17,8.7V6.5h1.3c0.6,0,1.1,0.4,1.2,0.9c0,0.1,0.1,0.2,0.2,0.2h1.1c0.1,0,0.1,0,0.2-0.1
	c0-0.1,0.1-0.1,0.1-0.2c-0.3-1.4-1.5-2.4-2.8-2.4h-2.6c-0.1,0-0.2,0.1-0.2,0.2V8h-4.7V6.5h0.8c0.1,0,0.2-0.1,0.2-0.2V5.2
	c0-0.1-0.1-0.2-0.2-0.2H8.3C8.2,4.9,8,5,8,5.2v1.1c0,0.1,0.1,0.2,0.2,0.2h0.8v2.1l-1.9,2.9L7,11.4c-0.4-0.2-0.8-0.2-1.3-0.2
	c-2.2,0-4,1.8-4,4c0,2.2,1.8,4,3.9,4c1.8,0,3.4-1.2,3.8-3l0-0.2h2.6c0,0,0.1,0,0.1,0l2.1-1.2v0.4c0,2.2,1.8,4,4,4s4-1.8,4-4
	C22.2,13,20.5,11.2,18.3,11.2z M18.3,17.5c-1.3,0-2.3-1.1-2.3-2.3s1.1-2.4,2.3-2.4s2.4,1.1,2.4,2.4S19.6,17.5,18.3,17.5z M5.7,17.5
	c-1.3,0-2.4-1.1-2.4-2.3s1.1-2.4,2.4-2.4C7,12.8,8,13.9,8,15.2S7,17.5,5.7,17.5z M16.3,11.7l-4.5,2.7H9.6l0-0.2
	c-0.2-0.6-0.4-1.2-0.8-1.6l-0.1-0.1l1.8-2.7h5.3L16.3,11.7z"/>
</svg>
