<?xml version="1.0" encoding="utf-8"?>
<!-- Generator: Adobe Illustrator 25.4.1, SVG Export Plug-In . SVG Version: 6.00 Build 0)  -->
<svg version="1.1" id="Layer_1" xmlns="http://www.w3.org/2000/svg" xmlns:xlink="http://www.w3.org/1999/xlink" x="0px" y="0px"
	 viewBox="0 0 24 24" style="enable-background:new 0 0 24 24;" xml:space="preserve">
<g>
	<path d="M2.8,18c-0.9,0.9-0.9,2.3,0,3.2c0.4,0.4,1,0.7,1.6,0.7s1.2-0.2,1.6-0.7c0.9-0.9,0.9-2.3,0-3.2C5.2,17.1,3.7,17.1,2.8,18z
		 M4.8,19.9c-0.2,0.2-0.5,0.2-0.7,0c-0.2-0.2-0.2-0.5,0-0.7c0.1-0.1,0.2-0.1,0.4-0.1c0.1,0,0.3,0,0.4,0.1C5,19.4,5,19.7,4.8,19.9z"
		/>
	<path d="M20.5,18c-0.5-0.5-1.1-0.7-1.7-0.6l-3-12.9l3.3-0.8c0.5-0.1,0.8-0.6,0.6-1.1c-0.1-0.5-0.6-0.8-1.1-0.6l-8.2,2
		C10,4,9.7,4.4,9.8,4.9c0.1,0.4,0.5,0.7,0.9,0.7c0.1,0,0.1,0,0.2,0l3.2-0.8l2.5,11l-2.3,2.9H8.7c-0.4-2-2.1-3.4-4.2-3.4
		c-0.5,0-0.9,0.4-0.9,0.9S4,17,4.4,17C5.9,17,7,18.1,7,19.6c0,0.5,0.4,0.9,0.9,0.9h6.9c0.3,0,0.5-0.1,0.7-0.3l1.7-2.1l0,0.1
		c-0.3,0.4-0.5,0.9-0.5,1.4c0,0.6,0.2,1.2,0.7,1.6c0.4,0.4,1,0.7,1.6,0.7c0.6,0,1.2-0.2,1.6-0.7c0.4-0.4,0.7-1,0.7-1.6
		S20.9,18.4,20.5,18z M19.2,19.9c-0.2,0.2-0.5,0.2-0.7,0c-0.1-0.1-0.1-0.2-0.1-0.4c0-0.1,0.1-0.3,0.1-0.4c0.1-0.1,0.2-0.1,0.4-0.1
		c0.1,0,0.3,0,0.4,0.1c0.1,0.1,0.1,0.2,0.1,0.4C19.4,19.7,19.3,19.8,19.2,19.9z"/>
</g>
</svg>
