<?xml version="1.0" encoding="utf-8"?>
<!-- Generator: Adobe Illustrator 25.4.1, SVG Export Plug-In . SVG Version: 6.00 Build 0)  -->
<svg version="1.1" id="Layer_1" xmlns="http://www.w3.org/2000/svg" xmlns:xlink="http://www.w3.org/1999/xlink" x="0px" y="0px"
	 viewBox="0 0 24 24" style="enable-background:new 0 0 24 24;" xml:space="preserve">
<path d="M19.7,10h-0.7c-0.3-2.5-2.4-4.4-4.8-4.4h-3.1c-2.4,0-4.4,1.9-4.8,4.4H6.3c-2.7,0-4.9,2.3-4.9,5.2v0.2c0,0.4,0.3,0.7,0.7,0.7
	h2.6C4.9,17.3,5.8,18,6.9,18s2-0.7,2.3-1.8h5.6c0.3,1.1,1.2,1.8,2.3,1.8s2-0.7,2.3-1.8h0.4c1.6,0,2.9-1.4,2.9-3.1S21.4,10,19.7,10z
	 M10.7,11.5v3.2H9.2C8.9,13.7,8,13,6.9,13s-2,0.7-2.3,1.8H2.8c0.2-1.8,1.7-3.2,3.5-3.2H10.7z M7.9,15.5c0,0.5-0.4,1-1,1
	c-0.5,0-1-0.4-1-1s0.4-1,1-1C7.4,14.5,7.9,14.9,7.9,15.5z M13.4,10V7.1h0.8c1.6,0,3,1.2,3.4,2.9H13.4z M21.3,13.1
	c0,0.9-0.7,1.6-1.5,1.6h-0.4c-0.3-1.1-1.2-1.8-2.3-1.8s-2,0.7-2.3,1.8h-2.7v-3.2h7.6C20.6,11.5,21.3,12.2,21.3,13.1z M12,7.1V10H7.8
	c0.3-1.7,1.7-2.9,3.4-2.9H12z M18.1,15.5c0,0.5-0.4,1-1,1s-1-0.4-1-1s0.4-1,1-1S18.1,14.9,18.1,15.5z"/>
</svg>
