<?xml version="1.0" encoding="utf-8"?>
<!-- Generator: Adobe Illustrator 25.4.1, SVG Export Plug-In . SVG Version: 6.00 Build 0)  -->
<svg version="1.1" id="Layer_1" xmlns="http://www.w3.org/2000/svg" xmlns:xlink="http://www.w3.org/1999/xlink" x="0px" y="0px"
	 viewBox="0 0 24 24" style="enable-background:new 0 0 24 24;" xml:space="preserve">
<style type="text/css">
	.st0{fill-rule:evenodd;clip-rule:evenodd;}
</style>
<g>
	<path class="st0" d="M14.7,5.5H7.5c-0.4,0-0.7,0.3-0.7,0.7v3.6c0,0.4,0.3,0.7,0.7,0.7h7.1c0.4,0,0.7-0.3,0.7-0.7V6.2
		C15.4,5.8,15.1,5.5,14.7,5.5z M14,9.1H8.2V6.9H14V9.1z"/>
	<path class="st0" d="M21.8,18.9h-4.7v-1.3h2c1.4,0,2.5-1.1,2.5-2.5V7.7c0-0.5-0.1-0.9-0.2-1.3l-0.7-2.1c-0.1-0.4-0.5-0.5-0.8-0.4
		c-0.4,0.1-0.5,0.5-0.4,0.8l0.7,2.1c0.1,0.3,0.1,0.6,0.1,0.9v0.7c-0.2-0.1-0.4-0.1-0.7-0.1c-1.1,0-2,0.9-2,2c0,1.1,0.9,2,2,2
		c0.2,0,0.5,0,0.7-0.1v3c0,0.6-0.5,1.1-1.1,1.1h-2V5.3c0-0.9-0.7-1.6-1.6-1.6H6.6c-0.9,0-1.6,0.7-1.6,1.6v13.6H2.2
		c-0.4,0-0.7,0.3-0.7,0.7c0,0.4,0.3,0.7,0.7,0.7h3.6h10.7h5.4c0.4,0,0.7-0.3,0.7-0.7C22.5,19.2,22.2,18.9,21.8,18.9z M19.6,10.9
		c-0.4,0-0.7-0.3-0.7-0.7c0-0.4,0.3-0.7,0.7-0.7s0.7,0.3,0.7,0.7C20.3,10.6,20,10.9,19.6,10.9z M6.4,18.9V5.3c0-0.1,0.1-0.2,0.2-0.2
		h8.9c0.1,0,0.2,0.1,0.2,0.2v13.6H6.4z"/>
	<path class="st0" d="M13.2,14.1c-0.2-0.3-0.4-0.7-0.7-1c-0.2-0.3-0.5-0.6-0.6-0.8c-0.1-0.1-0.2-0.2-0.2-0.2c0,0,0-0.1-0.1-0.1l0,0
		l0,0c0,0,0,0-0.5,0.4L10.6,12l0,0l0,0l0,0c0,0,0,0-0.1,0.1c-0.1,0.1-0.1,0.1-0.2,0.2c-0.2,0.2-0.4,0.5-0.6,0.8
		c-0.2,0.3-0.5,0.6-0.7,1c-0.1,0.2-0.2,0.3-0.2,0.5c-0.1,0.1-0.1,0.3-0.1,0.6c0,1.4,1.1,2.5,2.5,2.5s2.5-1.1,2.5-2.5
		c0-0.2-0.1-0.4-0.1-0.6C13.4,14.4,13.3,14.2,13.2,14.1z M11.1,16.2c-0.6,0-1.1-0.5-1.1-1.1c0,0,0,0,0-0.1c0-0.1,0.1-0.2,0.2-0.3
		c0.1-0.3,0.4-0.5,0.6-0.8c0.1-0.2,0.2-0.3,0.4-0.5c0.1,0.1,0.2,0.3,0.4,0.5c0.2,0.3,0.4,0.6,0.6,0.8c0.1,0.1,0.1,0.2,0.2,0.3
		c0,0,0,0.1,0,0.1C12.2,15.8,11.7,16.2,11.1,16.2z"/>
	<path class="st0" d="M11.6,12c-0.1-0.1-0.3-0.2-0.5-0.2c-0.2,0-0.4,0.1-0.5,0.2c0,0,0,0,0.5,0.4L11.6,12z"/>
</g>
</svg>
