<?xml version="1.0" encoding="utf-8"?>
<!-- Generator: Adobe Illustrator 25.4.1, SVG Export Plug-In . SVG Version: 6.00 Build 0)  -->
<svg version="1.1" id="Layer_1" xmlns="http://www.w3.org/2000/svg" xmlns:xlink="http://www.w3.org/1999/xlink" x="0px" y="0px"
	 viewBox="0 0 24 24" style="enable-background:new 0 0 24 24;" xml:space="preserve">
<path d="M18.7,10.8c-0.5,0-1,0.1-1.5,0.3c-0.2-0.4-0.4-0.8-0.6-1.2c0.2,0,0.4,0,0.6,0c0.4,0,0.9,0,1.3-0.4C19,9.1,19,8.7,19,8.3V8.1
	c0-0.4,0-0.8-0.4-1.2c-0.4-0.4-0.9-0.4-1.3-0.4c-0.6,0-1.1,0.1-1.6,0.3c-0.1-0.3-0.1-0.5-0.1-0.5c0,0,0,0,0-0.1
	c-0.1-0.5-0.4-1-0.4-1.1C15,5,14.8,4.8,14.5,4.8c-0.1,0-1.6,0-2.6,1c-0.3,0.3-0.3,0.7,0,1s0.7,0.3,1,0c0.4-0.4,0.9-0.5,1.2-0.6
	c0.1,0.1,0.1,0.3,0.1,0.4c0,0.1-0.1,0.4-0.3,0.6c-0.1,0.1-0.2,0.1-0.3,0.1c-2.7,0-3.3,1.3-3.6,2c0,0,0,0,0,0.1c-1.2,0-2-0.3-2.1-0.5
	C7.3,7.8,6.6,7.8,4.9,7.8c-3.1,0-3.6,1.6-3.6,1.8c0,0.2,0,0.4,0.2,0.6c0.1,0.1,0.6,0.6,1.8,0.6c0.3,0,0.5,0,0.8,0
	c0.5,0,1-0.1,1.5,0.1c0,0-0.1,0-0.1,0c-2.2,0-3.9,1.8-3.9,3.9s1.8,3.9,3.9,3.9c1.8,0,3.3-1.2,3.7-2.9c1.1,0.5,2.7,0.5,2.8,0.5
	c0,0,0,0,0,0c0.9,0,2-0.2,2.5-0.8c0.3-0.3,0.3-0.6,0.3-0.8c-0.3-2,0.5-3.1,1.1-3.6c0.1,0.3,0.3,0.5,0.4,0.8
	c-0.8,0.7-1.3,1.7-1.3,2.9c0,2.2,1.8,3.9,3.9,3.9s3.9-1.8,3.9-3.9S20.9,10.8,18.7,10.8z M17.3,7.8c0.2,0,0.3,0,0.3,0
	c0,0.1,0,0.2,0,0.3c0,0,0,0.2,0,0.2c0,0.1,0,0.2,0,0.3c-0.1,0-0.2,0-0.3,0c-0.4,0-0.9-0.1-1.2-0.2c0-0.1,0-0.1-0.1-0.2
	C16.3,8,16.8,7.8,17.3,7.8z M6.9,12.5c0,0,0.1,0.1,0.1,0.1c0.5,0.4,0.8,0.9,0.9,1.5H7.4c-0.3-0.9-1.1-1.6-2.1-1.6
	c-1.2,0-2.2,1-2.2,2.2s1,2.2,2.2,2.2c1,0,1.8-0.7,2.1-1.5H8c-0.3,1.2-1.4,2.1-2.7,2.1c-1.6,0-2.8-1.3-2.8-2.8s1.3-2.8,2.8-2.8
	C5.9,11.9,6.5,12.1,6.9,12.5z M5.3,15.4h0.9c-0.2,0.3-0.5,0.5-0.9,0.5c-0.6,0-1.1-0.5-1.1-1.1s0.5-1.1,1.1-1.1
	c0.4,0,0.7,0.2,0.9,0.5H5.3c-0.4,0-0.7,0.3-0.7,0.7S4.9,15.4,5.3,15.4z M13.3,14.6c-0.2,0.1-0.7,0.3-1.4,0.3c-1.1,0-2.4-0.3-2.6-0.6
	c0,0,0,0-0.1-0.1C9,13.4,8.7,12.6,8.1,12c0-0.1,0-0.2-0.1-0.3C6.6,9.2,5.1,9.3,3.8,9.4c-0.3,0-0.5,0-0.8,0C3.4,9.3,4,9.1,4.9,9.1
	c1.7,0,1.7,0,1.9,0.5c0.6,1.2,3.2,1.2,3.5,1.2c0.7,0,0.9-0.6,1.1-0.9c0.2-0.5,0.5-1.2,2.3-1.2c0.4,0,0.7-0.1,1-0.3
	c0.1,0.5,0.3,1,0.4,1.4C14.3,10.4,12.9,11.8,13.3,14.6z M17.7,14.4c0.3,0.5,0.7,0.9,1,1.2c0.1,0.1,0.2,0.2,0.4,0.2
	c-0.1,0-0.2,0.1-0.3,0.1c-0.6,0-1.1-0.5-1.1-1.1C17.6,14.6,17.6,14.5,17.7,14.4z M19.8,15c0-0.1-0.1-0.3-0.2-0.4
	c-0.3-0.3-0.6-0.7-0.9-1.1c0.6,0,1.1,0.5,1.1,1.1C19.9,14.8,19.8,14.9,19.8,15z M17,13.4c-0.3,0.4-0.5,0.8-0.5,1.4
	c0,1.2,1,2.2,2.2,2.2c1.2,0,2.2-1,2.2-2.2s-1-2.2-2.2-2.2c-0.2,0-0.4,0-0.6,0.1c-0.1-0.2-0.2-0.3-0.3-0.5c0.3-0.1,0.6-0.2,0.9-0.2
	c1.6,0,2.8,1.3,2.8,2.8s-1.3,2.8-2.8,2.8c-1.6,0-2.8-1.3-2.8-2.8c0-0.7,0.3-1.4,0.8-1.9C16.8,13,16.9,13.2,17,13.4z"/>
</svg>
