<?xml version="1.0" encoding="utf-8"?>
<!-- Generator: Adobe Illustrator 25.4.1, SVG Export Plug-In . SVG Version: 6.00 Build 0)  -->
<svg version="1.1" id="Layer_1" xmlns="http://www.w3.org/2000/svg" xmlns:xlink="http://www.w3.org/1999/xlink" x="0px" y="0px"
	 viewBox="0 0 24 24" style="enable-background:new 0 0 24 24;" xml:space="preserve">
<g>
	<path d="M13.1,6.8H9.9c-0.6,0-1,0.5-1,1.1v8.4c0,0.6,0.5,1,1,1c0.6,0,1.1-0.5,1.1-1v-2.1h2.1c1.7,0,3.2-1.4,3.2-3.2V9.9
		C16.2,8.2,14.8,6.8,13.1,6.8z M14.1,10.9c0,0.6-0.5,1.1-1.1,1.1h-2.1V8.9h2.1c0.6,0,1.1,0.5,1.1,1V10.9z M12,1.5
		C6.2,1.5,1.5,6.2,1.5,12S6.2,22.5,12,22.5S22.5,17.8,22.5,12S17.8,1.5,12,1.5z M12,20.4c-4.6,0-8.4-3.8-8.4-8.4S7.4,3.6,12,3.6
		s8.4,3.8,8.4,8.4S16.6,20.4,12,20.4z"/>
</g>
</svg>
