<?xml version="1.0" encoding="utf-8"?>
<!-- Generator: Adobe Illustrator 25.4.1, SVG Export Plug-In . SVG Version: 6.00 Build 0)  -->
<svg version="1.1" id="Layer_1" xmlns="http://www.w3.org/2000/svg" xmlns:xlink="http://www.w3.org/1999/xlink" x="0px" y="0px"
	 viewBox="0 0 24 24" style="enable-background:new 0 0 24 24;" xml:space="preserve">
<path d="M22.1,4.1c-0.3-0.2-0.6-0.1-0.8,0.2l-2.7,2.7L17,5.5l2.7-2.7C20,2.5,20.1,2.2,20,1.9c-0.1-0.3-0.4-0.5-0.7-0.5h-2
	c-1.4,0-2.7,0.6-3.7,1.5c-1,1-1.5,2.3-1.5,3.7v0.7c0,0.2,0.1,0.4,0.2,0.5L12.4,8l-4.1,4.1L8.1,12c-0.1-0.1-0.3-0.2-0.5-0.2H6.7
	c-1.4,0-2.7,0.6-3.7,1.5c-1,1-1.5,2.3-1.5,3.7v2c0,0.3,0.2,0.6,0.5,0.7c0.4,0.1,0.6,0.1,0.8-0.2l2.7-2.7L7,18.5l-2.7,2.7
	C4,21.5,3.9,21.8,4,22.1c0.1,0.3,0.4,0.5,0.7,0.5h2c1.4,0,2.7-0.6,3.7-1.5c1-1,1.5-2.3,1.5-3.7v-0.7c0-0.2-0.1-0.4-0.2-0.5L11.6,16
	l4.1-4.1l0.1,0.1c0.1,0.1,0.3,0.2,0.5,0.2h0.7c1.4,0,2.7-0.6,3.7-1.5c1.1-1.1,1.7-2.4,1.7-3.7C22.5,6.8,22.6,4.4,22.1,4.1z
	 M14.8,10.7l-4.1,4.1l-1.5-1.5l4.1-4.1L14.8,10.7z M8.6,19c0.1-0.1,0.2-0.3,0.2-0.6s-0.1-0.4-0.2-0.6L6,15.3
	c-0.1-0.1-0.3-0.2-0.5-0.2S5.1,15.2,5,15.3L3,17.2V17c0-1,0.4-1.9,1.1-2.6c0.7-0.7,1.6-1.1,2.6-1.1h0.4l3.5,3.5l0,0.4
	c0,0-0.5,1.9-1.2,2.6l0,0C8.7,20.6,7.8,21,6.9,21H6.7L8.6,19z M17.1,3h0.2L15.4,5c-0.3,0.3-0.3,0.8,0,1.1L18,8.7
	c0.1,0.1,0.3,0.2,0.5,0.2c0.2,0,0.4-0.1,0.5-0.2l2-2l0.1,0.2c0,1-0.4,1.9-1.1,2.5c-0.7,0.7-1.6,1.1-2.6,1.1H17L13.5,7V6.7
	c0-1,0.4-1.9,1.1-2.6C15.3,3.4,16.2,3,17.1,3z"/>
</svg>
