<?xml version="1.0" encoding="utf-8"?>
<!-- Generator: Adobe Illustrator 25.4.1, SVG Export Plug-In . SVG Version: 6.00 Build 0)  -->
<svg version="1.1" id="Layer_1" xmlns="http://www.w3.org/2000/svg" xmlns:xlink="http://www.w3.org/1999/xlink" x="0px" y="0px"
	 viewBox="0 0 24 24" style="enable-background:new 0 0 24 24;" xml:space="preserve">
<g>
	<path d="M16,0.6H8.1C5.3,0.6,3,2.9,3,5.7v12c0,0.5,0.4,0.9,0.9,0.9s0.9-0.4,0.9-0.9v-12c0-1.9,1.5-3.3,3.3-3.3H16
		c1.8,0,3.2,1.5,3.2,3.3v12c0,0.5,0.4,0.9,0.9,0.9s0.9-0.4,0.9-0.9v-12C21,2.9,18.7,0.6,16,0.6z"/>
	<path d="M18.5,22.8c0-0.1,0-0.1,0-0.2c0,0,0-0.1,0-0.1c0,0,0-0.1,0-0.1c0-0.1,0-0.1,0-0.2c0-0.1,0-0.1-0.1-0.2c0,0,0,0,0-0.1
		L16,18.4c1-0.3,1.7-1.3,1.7-2.4v-2.4V7.2V6.3c0-1.4-1.1-2.5-2.5-2.5H8.8C7.4,3.9,6.3,5,6.3,6.3v0.8v6.5V16c0,1.1,0.7,2,1.7,2.4
		L5.6,22c0,0,0,0,0,0.1c0,0.1,0,0.1-0.1,0.2c0,0.1,0,0.1,0,0.2c0,0,0,0,0,0.1c0,0,0,0.1,0,0.1c0,0.1,0,0.1,0,0.2
		c0,0.1,0,0.1,0.1,0.2c0,0,0.1,0.1,0.1,0.1c0,0,0.1,0.1,0.1,0.1c0,0,0,0,0.1,0.1c0,0,0.1,0,0.1,0c0,0,0.1,0,0.1,0
		c0.1,0,0.2,0.1,0.3,0.1c0,0,0,0,0,0s0,0,0,0h11.3c0,0,0,0,0,0s0,0,0,0c0.1,0,0.2,0,0.3-0.1c0,0,0.1,0,0.1,0c0,0,0.1,0,0.1,0
		c0,0,0,0,0.1-0.1c0,0,0.1-0.1,0.1-0.1c0,0,0.1-0.1,0.1-0.1C18.4,22.9,18.5,22.8,18.5,22.8z M8.4,21h7.1l0.4,0.7H8L8.4,21z M8,14.5
		H16V16c0,0.4-0.3,0.7-0.7,0.7H8.8C8.4,16.8,8,16.4,8,16V14.5z M8,8H16v4.7H8V8z M14,18.5l0.4,0.7H9.6l0.4-0.7H14z M8.8,5.6h6.5
		c0.4,0,0.7,0.3,0.7,0.7H8C8.1,5.9,8.4,5.6,8.8,5.6z"/>
</g>
</svg>
