<?xml version="1.0" encoding="utf-8"?>
<!-- Generator: Adobe Illustrator 25.4.1, SVG Export Plug-In . SVG Version: 6.00 Build 0)  -->
<svg version="1.1" id="Layer_1" xmlns="http://www.w3.org/2000/svg" xmlns:xlink="http://www.w3.org/1999/xlink" x="0px" y="0px"
	 viewBox="0 0 24 24" style="enable-background:new 0 0 24 24;" xml:space="preserve">
<g>
	<path d="M19.5,15.7V4.5c0-2.1-1.7-3.8-3.8-3.8H8.2c-2.1,0-3.8,1.7-3.8,3.8v11.2c0,1.7,1.2,3.2,2.8,3.6L4.7,22
		c-0.3,0.3-0.3,0.8,0,1.1c0.1,0.1,0.3,0.2,0.5,0.2s0.4-0.1,0.5-0.2l1.3-1.3h9.9l1.3,1.3c0.1,0.1,0.3,0.2,0.5,0.2s0.4-0.1,0.5-0.2
		c0.3-0.3,0.3-0.8,0-1.1l-2.6-2.6C18.3,19,19.5,17.5,19.5,15.7z M15.8,2.3V9c0,1.2-1,2.2-2.2,2.2h-3c-1.2,0-2.2-1-2.2-2.2V2.3H15.8z
		 M8.6,20.2l0.8-0.8h5.4l0.8,0.8H8.6z M18,15.7c0,1.2-1,2.2-2.2,2.2H8.2C7,18,6,17,6,15.7V4.5c0-0.7,0.3-1.3,0.8-1.7V9
		c0,2.1,1.7,3.8,3.8,3.8h3c2.1,0,3.8-1.7,3.8-3.8V2.8c0.5,0.4,0.8,1,0.8,1.7V15.7z"/>
	<path d="M8.6,13.6c-1,0-1.8,0.8-1.8,1.8s0.8,1.8,1.8,1.8s1.8-0.8,1.8-1.8S9.6,13.6,8.6,13.6z M8.6,15.9c-0.3,0-0.5-0.2-0.5-0.5
		s0.2-0.5,0.5-0.5s0.5,0.2,0.5,0.5S8.9,15.9,8.6,15.9z"/>
	<path d="M15.4,13.6c-1,0-1.8,0.8-1.8,1.8s0.8,1.8,1.8,1.8s1.8-0.8,1.8-1.8S16.3,13.6,15.4,13.6z M15.4,15.9c-0.3,0-0.5-0.2-0.5-0.5
		s0.2-0.5,0.5-0.5s0.5,0.2,0.5,0.5S15.7,15.9,15.4,15.9z"/>
</g>
</svg>
