<?xml version="1.0" encoding="utf-8"?>
<!-- Generator: Adobe Illustrator 25.4.1, SVG Export Plug-In . SVG Version: 6.00 Build 0)  -->
<svg version="1.1" id="Layer_1" xmlns="http://www.w3.org/2000/svg" xmlns:xlink="http://www.w3.org/1999/xlink" x="0px" y="0px"
	 viewBox="0 0 24 24" style="enable-background:new 0 0 24 24;" xml:space="preserve">
<path d="M23.2,10.4l-2.9-2.9c-0.2-0.2-0.5-0.2-0.7-0.2h-2.9V3.4c0-0.5-0.4-0.9-0.9-0.9H1.5C1,2.5,0.6,3,0.6,3.4v12.4
	c0,0.5,0.4,0.9,0.9,0.9h1.4c-0.2,0.4-0.3,0.9-0.3,1.5c0,1.8,1.4,3.3,3.3,3.3s3.3-1.4,3.3-3.3c0-0.6-0.2-1.1-0.4-1.5h6.6
	c-0.2,0.4-0.3,0.9-0.3,1.5c0,1.8,1.4,3.3,3.3,3.3s3.3-1.4,3.3-3.3c0-0.6-0.2-1.1-0.4-1.5h1.4c0.5,0,0.9-0.4,0.9-0.9V11
	C23.4,10.8,23.3,10.6,23.2,10.4z M16.8,9.1h2.6l2.4,2.4v3.5h-4.9V9.1z M19.7,18.2c0,0.9-0.7,1.5-1.5,1.5c-0.9,0-1.5-0.7-1.5-1.5
	c0-0.9,0.7-1.5,1.5-1.5C19.1,16.7,19.7,17.3,19.7,18.2z M7.3,18.2c0,0.9-0.7,1.5-1.5,1.5s-1.5-0.7-1.5-1.5c0-0.9,0.7-1.5,1.5-1.5
	S7.3,17.3,7.3,18.2z M14.9,4.3v10.6H2.4V4.3H14.9z"/>
</svg>
