<?xml version="1.0" encoding="utf-8"?>
<!-- Generator: Adobe Illustrator 25.4.1, SVG Export Plug-In . SVG Version: 6.00 Build 0)  -->
<svg version="1.1" id="Layer_1" xmlns="http://www.w3.org/2000/svg" xmlns:xlink="http://www.w3.org/1999/xlink" x="0px" y="0px"
	 viewBox="0 0 24 24" style="enable-background:new 0 0 24 24;" xml:space="preserve">
<path d="M12,1.1c-4.4,0-8,3.6-8,8c0,3.1,1.6,6,4.2,7.8l0.5,1H8.6c-0.4,0-0.7,0.3-0.7,0.7v3.8c0,0.4,0.3,0.7,0.7,0.7h6.7
	c0.4,0,0.7-0.3,0.7-0.7v-3.8c0-0.4-0.3-0.7-0.7-0.7h-0.1l0.5-1c2.6-1.7,4.2-4.6,4.2-7.8v0C20,4.6,16.4,1.1,12,1.1z M14.8,15.6
	c0.9-1.7,1.4-4.2,1.4-6.6c0-2.3-0.5-4.4-1.3-5.9c2.3,1.1,3.7,3.4,3.7,5.9c0,2.5-1.4,5.2-3.5,6.6H14.8z M9.1,3.1
	C8.3,4.6,7.8,6.7,7.8,9c0,2.4,0.5,4.9,1.4,6.6H8.9C6.9,14.2,5.4,11.5,5.4,9C5.4,6.5,6.9,4.2,9.1,3.1z M13.2,15.6h-2.4
	C9.8,14.2,9.2,11.5,9.2,9c0-3.4,1.3-6.6,2.8-6.6s2.8,3.1,2.8,6.6C14.8,11.5,14.2,14.2,13.2,15.6z M14.1,17l-0.4,0.8h-3.4L9.9,17
	H14.1z M14.7,19.2v2.4H9.3v-2.4H14.7z"/>
</svg>
