<?xml version="1.0" encoding="utf-8"?>
<!-- Generator: Adobe Illustrator 25.4.1, SVG Export Plug-In . SVG Version: 6.00 Build 0)  -->
<svg version="1.1" id="Layer_1" xmlns="http://www.w3.org/2000/svg" xmlns:xlink="http://www.w3.org/1999/xlink" x="0px" y="0px"
	 viewBox="0 0 24 24" style="enable-background:new 0 0 24 24;" xml:space="preserve">
<path d="M17,19C17,19,17,19,17,19c0-0.7-0.5-1.7-1.2-1.9l-0.1-0.1c-0.1-0.1-0.1-0.2-0.2-0.3c-0.4-0.4-0.8-1-0.9-6
	c0.7-0.2,1.2-1.2,1.2-1.9c0-0.6-0.4-1.1-0.9-1.3c0.6-0.7,0.9-1.6,0.9-2.5c0-2.1-1.7-3.8-3.8-3.8C9.9,1.2,8.2,3,8.2,5.1
	c0,0.9,0.3,1.8,0.9,2.5C8.5,7.8,8.2,8.3,8.2,8.9c0,0.7,0.5,1.7,1.2,1.9c0,5-0.5,5.6-0.9,6c-0.1,0.1-0.1,0.2-0.2,0.3
	c0,0,0,0.1-0.1,0.1C7.5,17.3,7,18.3,7,19c0,0,0,0,0,0.1c-0.7,0.3-1.2,1.3-1.2,2c0,0.9,0.8,1.7,1.7,1.7h9.1c0.9,0,1.7-0.8,1.7-1.7
	C18.2,20.4,17.8,19.3,17,19z M12,2.7c1.3,0,2.4,1.1,2.4,2.4S13.3,7.5,12,7.5S9.6,6.4,9.6,5.1S10.7,2.7,12,2.7z M14.4,8.9
	c0,0.1-0.1,0.3-0.1,0.5H9.7c0-0.1-0.1-0.4-0.1-0.5L14.4,8.9z M13.2,10.8c0,4.7,0.4,5.6,0.9,6.3H9.9c0.4-0.7,0.8-1.6,0.9-6.3H13.2z
	 M8.4,19c0-0.1,0-0.3,0.1-0.4h7c0,0.1,0.1,0.3,0.1,0.4L8.4,19z M16.8,21.1c0,0.1-0.1,0.2-0.2,0.2H7.5c-0.1,0-0.2-0.1-0.2-0.2
	c0-0.2,0.2-0.6,0.2-0.7l9,0C16.6,20.5,16.8,20.9,16.8,21.1z"/>
</svg>
