<?xml version="1.0" encoding="utf-8"?>
<!-- Generator: Adobe Illustrator 25.4.1, SVG Export Plug-In . SVG Version: 6.00 Build 0)  -->
<svg version="1.1" id="Layer_1" xmlns="http://www.w3.org/2000/svg" xmlns:xlink="http://www.w3.org/1999/xlink" x="0px" y="0px"
	 viewBox="0 0 24 24" style="enable-background:new 0 0 24 24;" xml:space="preserve">
<g>
	<path d="M5.2,4.9c-0.1,0-0.2,0-0.4,0c-0.7,0.2-1.1,0.9-1,1.7c0.2,0.6,0.7,1,1.3,1c0.1,0,0.2,0,0.4,0c0.7-0.2,1.1-0.9,1-1.7
		C6.4,5.3,5.9,4.9,5.2,4.9z M5.3,6.5C5.2,6.6,5,6.5,4.9,6.3c0-0.1,0-0.2,0-0.3C5,6,5.1,5.9,5.2,5.9l0,0c0,0,0,0,0,0
		c0.2,0,0.3,0.1,0.3,0.3C5.6,6.3,5.5,6.5,5.3,6.5z"/>
	<path d="M8.6,6.6c-0.6,0.2-1,0.7-1,1.3c0,0.1,0,0.2,0,0.3c0.2,0.6,0.7,1,1.3,1h0c0.1,0,0.2,0,0.3,0c0.3-0.1,0.6-0.3,0.8-0.6
		c0.2-0.3,0.2-0.7,0.1-1C10.1,6.8,9.4,6.4,8.6,6.6z M8.6,7.9c0-0.2,0.1-0.3,0.3-0.3l0,0c0,0,0,0,0,0c0.2,0,0.3,0.1,0.3,0.3
		c0,0.1,0,0.2,0,0.3c0,0.1-0.1,0.1-0.2,0.2C8.9,8.3,8.7,8.2,8.6,7.9C8.7,8,8.6,7.9,8.6,7.9z"/>
	<path d="M7.1,15L7.1,15c0.4-0.1,0.7-0.3,0.9-0.6c0.2-0.3,0.2-0.7,0.1-1C8,13,7.8,12.7,7.5,12.5s-0.7-0.2-1-0.1
		c-0.6,0.2-1,0.7-1,1.3c0,0.1,0,0.2,0,0.3c0.2,0.6,0.7,1,1.3,1C6.9,15,7,15,7.1,15z M6.9,14c-0.2,0.1-0.4-0.1-0.4-0.2l0,0
		c0,0,0-0.1,0-0.1c0-0.2,0.1-0.3,0.3-0.3c0,0,0.1,0,0.1,0c0.2,0,0.3,0.1,0.3,0.3c0,0.1,0,0.2,0,0.3C7.1,13.9,7,14,6.9,14z"/>
	<path d="M11.3,14.8L11.3,14.8L11.3,14.8c-0.6,0.2-1,0.7-1,1.3c0,0.1,0,0.2,0,0.3c0.2,0.6,0.7,1,1.3,1c0.1,0,0.2,0,0.4,0
		c0.7-0.2,1.1-0.9,1-1.7C12.8,15.1,12,14.7,11.3,14.8z M12,16.1c0,0.2,0,0.3-0.2,0.4l0,0c-0.2,0-0.4-0.1-0.4-0.2c0,0,0-0.1,0-0.1
		c0-0.2,0.1-0.3,0.3-0.3c0,0,0.1,0,0.1,0C11.8,15.8,11.9,15.9,12,16.1z"/>
	<path d="M8.4,16L8.4,16L8.4,16c-0.4-0.2-0.7-0.2-1-0.1c-0.3,0.1-0.6,0.3-0.8,0.6c-0.2,0.3-0.2,0.7-0.1,1c0.2,0.6,0.7,1,1.3,1
		c0.1,0,0.2,0,0.4,0c0.6-0.2,1-0.7,1-1.3c0-0.1,0-0.2,0-0.4C9,16.5,8.7,16.2,8.4,16z M8.1,17.2c0,0.2-0.1,0.3-0.3,0.3l0,0
		c-0.2,0-0.4-0.1-0.4-0.3c0-0.1,0-0.2,0-0.3c0-0.1,0.1-0.1,0.2-0.2c0,0,0.1,0,0.1,0c0.1,0,0.1,0,0.2,0C8,16.9,8.1,17,8.1,17.2
		C8.1,17.1,8.1,17.2,8.1,17.2z"/>
	<path d="M11.1,13.9L11.1,13.9c0.6-0.2,1-0.7,1-1.3c0-0.1,0-0.2,0-0.3c-0.2-0.7-0.9-1.1-1.6-1C10,11.4,9.7,11.7,9.5,12
		c-0.2,0.3-0.2,0.7-0.1,1c0.2,0.6,0.7,1,1.3,1C10.8,14,10.9,14,11.1,13.9z M10.8,13c-0.2,0-0.4-0.1-0.4-0.2l0,0c0-0.1,0-0.2,0-0.3
		c0.1-0.1,0.2-0.2,0.3-0.2c0.2,0,0.3,0.1,0.3,0.3c0,0,0,0.1,0,0.1C11.1,12.8,11,12.9,10.8,13z"/>
	<path d="M22.5,6.3L22.5,6.3c-0.3-0.5-0.7-0.8-1.2-0.9l-6.3-1.7c-1.1-0.3-2.2,0.4-2.5,1.4l-0.2,0.7l-0.7-2.7
		C11.2,2,10.1,1.4,9.1,1.7L2.7,3.4c-0.5,0.1-1,0.5-1.2,0.9c-0.3,0.5-0.3,1-0.2,1.5l3.5,13c0.2,0.9,1,1.5,2,1.5c0.2,0,0.4,0,0.5-0.1
		l1.9-0.5c0.3,0.4,0.7,0.7,1.2,0.9l6.3,1.7c0.2,0,0.3,0.1,0.5,0.1c0.9,0,1.7-0.6,2-1.5l3.5-13C22.8,7.3,22.7,6.8,22.5,6.3z
		 M10.3,3.4l1.6,5.9l-7.8,2.1L2.5,5.5c-0.1-0.2,0-0.4,0.1-0.6c0.1-0.2,0.3-0.3,0.5-0.4l6.3-1.7C9.8,2.8,10.2,3,10.3,3.4z M21.5,7.5
		l-1.6,5.9l-6-1.6l-1-3.6l0.7-2.8C13.7,5.3,13.9,5.1,14,5c0.2-0.1,0.4-0.1,0.6-0.1l6.3,1.7c0.2,0.1,0.4,0.2,0.5,0.4
		C21.5,7.1,21.5,7.3,21.5,7.5z M18,20.6c-0.1,0.4-0.5,0.7-0.9,0.5l-6.3-1.7c0,0-0.1,0-0.1,0l3-0.8c0.5-0.1,1-0.5,1.2-0.9
		c0.3-0.5,0.3-1,0.2-1.5l-0.8-2.9l5.3,1.4L18,20.6z M13.7,17c-0.1,0.2-0.3,0.3-0.5,0.4L7,19.1c-0.2,0.1-0.4,0-0.6-0.1
		c-0.2-0.1-0.3-0.3-0.4-0.5l-1.6-5.9l7.8-2.1l1.6,5.9C13.9,16.7,13.8,16.9,13.7,17z"/>
	<path d="M16.6,17.9L16.6,17.9c-0.4-0.1-0.7,0-1,0.1c-0.3,0.2-0.5,0.5-0.6,0.8c-0.2,0.7,0.2,1.5,1,1.7c0.1,0,0.2,0,0.3,0
		c0.6,0,1.1-0.4,1.3-1c0.1-0.3,0-0.7-0.1-1C17.2,18.2,16.9,18,16.6,17.9z M16.6,19.3c-0.1,0.2-0.2,0.3-0.4,0.2
		c-0.1,0-0.2-0.1-0.2-0.2c0-0.1-0.1-0.2,0-0.3c0-0.2,0.2-0.3,0.3-0.3c0,0,0.1,0,0.1,0C16.5,18.9,16.6,19.1,16.6,19.3z"/>
	<path d="M18.4,15c-0.2-0.3-0.5-0.5-0.8-0.6l0,0c-0.3-0.1-0.7,0-1,0.1c-0.3,0.2-0.5,0.5-0.6,0.8c-0.2,0.7,0.2,1.5,1,1.7
		c0.1,0,0.2,0,0.3,0c0.6,0,1.1-0.4,1.3-1C18.6,15.7,18.5,15.4,18.4,15z M17.5,15.8c0,0.1-0.1,0.2-0.2,0.2c-0.1,0-0.2,0.1-0.3,0
		s-0.2-0.1-0.2-0.2c0-0.1-0.1-0.2,0-0.3c0-0.2,0.2-0.3,0.3-0.3c0,0,0.1,0,0.1,0C17.5,15.4,17.6,15.6,17.5,15.8z"/>
	<path d="M18,7.2c-0.5-0.3-1.1-0.4-1.6-0.2c-0.6,0.1-1,0.5-1.3,1c-0.3,0.5-0.4,1.1-0.2,1.6c0.3,0.9,1.1,1.6,2.1,1.6
		c0.2,0,0.4,0,0.6-0.1c0.9-0.3,1.6-1.1,1.6-2.1c0-0.2,0-0.4-0.1-0.6C18.8,8,18.5,7.5,18,7.2z M18.1,9.1c0,0.5-0.3,0.9-0.8,1.1
		l-0.1,0c-0.1,0-0.2,0-0.3,0c-0.5,0-1-0.4-1.1-0.9c-0.2-0.6,0.2-1.3,0.8-1.4c0.1,0,0.2,0,0.3,0c0.2,0,0.4,0.1,0.6,0.2
		c0.3,0.2,0.5,0.4,0.5,0.7C18,8.9,18.1,9,18.1,9.1z"/>
</g>
</svg>
