<?xml version="1.0" encoding="utf-8"?>
<!-- Generator: Adobe Illustrator 25.4.1, SVG Export Plug-In . SVG Version: 6.00 Build 0)  -->
<svg version="1.1" id="Layer_1" xmlns="http://www.w3.org/2000/svg" xmlns:xlink="http://www.w3.org/1999/xlink" x="0px" y="0px"
	 viewBox="0 0 24 24" style="enable-background:new 0 0 24 24;" xml:space="preserve">
<path d="M9.6,15.6c1.6-0.9,3.2-1.8,4.8-2.8c0.2-0.1,0.5-0.2,0.7-0.4c0.2-0.1,0.3-0.3,0.3-0.5c0-0.2-0.1-0.4-0.3-0.5
	c-1.6-0.9-3.2-1.8-4.8-2.8C10,8.6,9.8,8.4,9.6,8.3C9.2,8,8.7,8.3,8.7,8.8c0,1.8,0,3.7,0,5.5c0,0.2,0,0.5,0,0.8
	C8.7,15.6,9.2,15.9,9.6,15.6z M13.5,12c-1.2,0.7-2.4,1.4-3.6,2.1c0-1.4,0-2.8,0-4.2C11.1,10.6,12.3,11.3,13.5,12z"/>
<circle cx="4.9" cy="8.3" r="0.9"/>
<circle cx="4.9" cy="12" r="0.9"/>
<circle cx="4.9" cy="15.7" r="0.9"/>
<circle cx="19.1" cy="8.3" r="0.9"/>
<circle cx="19.1" cy="12" r="0.9"/>
<circle cx="19.1" cy="15.7" r="0.9"/>
<path d="M21.2,4.2H2.8c-0.7,0-1.1,0.7-1.1,1.2v13.2c0,0.5,0.5,1,1.1,1h18.4c0.6,0,1.1-0.5,1.1-1V5.4C22.3,4.9,21.8,4.2,21.2,4.2z
	 M7.9,5.4h8.3v13.2H7.9V5.4z M2.9,5.4h4v13.2h-4V5.4z M21.2,18.6h-4V5.4h4V18.6z"/>
</svg>
