<?xml version="1.0" encoding="utf-8"?>
<!-- Generator: Adobe Illustrator 25.4.1, SVG Export Plug-In . SVG Version: 6.00 Build 0)  -->
<svg version="1.1" id="Layer_1" xmlns="http://www.w3.org/2000/svg" xmlns:xlink="http://www.w3.org/1999/xlink" x="0px" y="0px"
	 viewBox="0 0 24 24" style="enable-background:new 0 0 24 24;" xml:space="preserve">
<path d="M6.5,8.8c-1.2,0-2.2,1-2.2,2.2c0,1.2,1,2.2,2.2,2.2s2.2-1,2.2-2.2C8.7,9.8,7.8,8.8,6.5,8.8z M6.5,12.2
	c-0.6,0-1.1-0.5-1.1-1.1c0-0.6,0.5-1.1,1.1-1.1s1.1,0.5,1.1,1.1C7.6,11.7,7.1,12.2,6.5,12.2z"/>
<path d="M19.6,9.8h-0.7V9.1c0-0.3-0.2-0.6-0.6-0.6h-1.5c-0.3,0-0.6,0.2-0.6,0.6v0.7h-0.7c-0.3,0-0.6,0.2-0.6,0.6v1.5
	c0,0.3,0.2,0.6,0.6,0.6h0.7v0.7c0,0.3,0.2,0.6,0.6,0.6h1.5c0.3,0,0.6-0.2,0.6-0.6v-0.7h0.7c0.3,0,0.6-0.2,0.6-0.6v-1.5
	C20.1,10,19.9,9.8,19.6,9.8z M19.1,11.4h-0.7c-0.3,0-0.6,0.2-0.6,0.6v0.7h-0.5V12c0-0.3-0.2-0.6-0.6-0.6H16v-0.5h0.7
	c0.3,0,0.6-0.2,0.6-0.6V9.6h0.5v0.7c0,0.3,0.2,0.6,0.6,0.6h0.7V11.4z"/>
<path d="M6.5,8.8c-1.2,0-2.2,1-2.2,2.2c0,1.2,1,2.2,2.2,2.2s2.2-1,2.2-2.2C8.7,9.8,7.8,8.8,6.5,8.8z M6.5,12.2
	c-0.6,0-1.1-0.5-1.1-1.1c0-0.6,0.5-1.1,1.1-1.1s1.1,0.5,1.1,1.1C7.6,11.7,7.1,12.2,6.5,12.2z"/>
<path d="M19.6,9.8h-0.7V9.1c0-0.3-0.2-0.6-0.6-0.6h-1.5c-0.3,0-0.6,0.2-0.6,0.6v0.7h-0.7c-0.3,0-0.6,0.2-0.6,0.6v1.5
	c0,0.3,0.2,0.6,0.6,0.6h0.7v0.7c0,0.3,0.2,0.6,0.6,0.6h1.5c0.3,0,0.6-0.2,0.6-0.6v-0.7h0.7c0.3,0,0.6-0.2,0.6-0.6v-1.5
	C20.1,10,19.9,9.8,19.6,9.8z M19.1,11.4h-0.7c-0.3,0-0.6,0.2-0.6,0.6v0.7h-0.5V12c0-0.3-0.2-0.6-0.6-0.6H16v-0.5h0.7
	c0.3,0,0.6-0.2,0.6-0.6V9.6h0.5v0.7c0,0.3,0.2,0.6,0.6,0.6h0.7V11.4z"/>
<path d="M17.9,6H6C4,6,1.2,8,1.2,11.4v1.8c0,2.2,1,4.9,3.6,4.9c3,0,5.4-3.5,5.8-4.2h2.4c0.5,0.7,2.8,4.2,5.8,4.2
	c2.7,0,3.7-2.6,3.7-4.9v-1.8C22.7,7.9,19.8,6,17.9,6z M19,16.6c-2.4,0-4.7-3.7-4.7-3.8l0,0c-0.2-0.2-0.4-0.4-0.6-0.4h-3.3
	c-0.4,0-0.6,0.2-0.6,0.5c-0.2,0.4-2.4,3.7-4.7,3.7c-2,0-2.1-2.7-2.1-3.2v-1.8C3,8.8,5,7.7,6.1,7.7H18c1.1,0,3.2,1.3,3.2,3.9v1.8
	C21.2,13.3,21.1,16.6,19,16.6z"/>
<path d="M6.5,8.8c-1.2,0-2.2,1-2.2,2.2c0,1.2,1,2.2,2.2,2.2s2.2-1,2.2-2.2C8.7,9.8,7.8,8.8,6.5,8.8z M6.5,12.2
	c-0.6,0-1.1-0.5-1.1-1.1c0-0.6,0.5-1.1,1.1-1.1s1.1,0.5,1.1,1.1C7.6,11.7,7.1,12.2,6.5,12.2z"/>
<path d="M19.6,9.8h-0.7V9.1c0-0.3-0.2-0.6-0.6-0.6h-1.5c-0.3,0-0.6,0.2-0.6,0.6v0.7h-0.7c-0.3,0-0.6,0.2-0.6,0.6v1.5
	c0,0.3,0.2,0.6,0.6,0.6h0.7v0.7c0,0.3,0.2,0.6,0.6,0.6h1.5c0.3,0,0.6-0.2,0.6-0.6v-0.7h0.7c0.3,0,0.6-0.2,0.6-0.6v-1.5
	C20.1,10,19.9,9.8,19.6,9.8z M19.1,11.4h-0.7c-0.3,0-0.6,0.2-0.6,0.6v0.7h-0.5V12c0-0.3-0.2-0.6-0.6-0.6H16v-0.5h0.7
	c0.3,0,0.6-0.2,0.6-0.6V9.6h0.5v0.7c0,0.3,0.2,0.6,0.6,0.6h0.7V11.4z"/>
</svg>
