<?xml version="1.0" encoding="utf-8"?>
<!-- Generator: Adobe Illustrator 25.4.1, SVG Export Plug-In . SVG Version: 6.00 Build 0)  -->
<svg version="1.1" id="Layer_1" xmlns="http://www.w3.org/2000/svg" xmlns:xlink="http://www.w3.org/1999/xlink" x="0px" y="0px"
	 viewBox="0 0 24 24" style="enable-background:new 0 0 24 24;" xml:space="preserve">
<g>
	<path d="M22.8,8.4c0-0.2-0.1-0.3-0.3-0.4c-0.1-0.1-0.3-0.1-0.5-0.1c-1.9,0.5-4.1,0.8-6.4,0.8C16,7.4,16.1,6,16.1,4.4
		c0-1.2-0.1-2.1-0.3-3c0-0.2-0.1-0.3-0.3-0.4c-0.1-0.1-0.3-0.1-0.5-0.1c-2,0.5-4.2,0.8-6.6,0.8c-2.2,0-4.4-0.3-6.6-0.9
		c-0.2,0-0.3,0-0.5,0.1C1.3,1,1.2,1.2,1.2,1.4C1,2.2,0.9,3.2,0.9,4.4c0,6.5,3.4,11.8,7.6,11.8h0c1.2,4.3,4,7,7,7
		c4.2,0,7.6-5.3,7.6-11.8C23.1,10.2,23,9.2,22.8,8.4z M15.5,21.9c-3.5,0-6.4-4.7-6.4-10.5c0-0.7,0.1-1.5,0.2-2.1
		c1.6,0.4,3.4,0.6,5.3,0.7l0,0c0.1,0,0.2,0,0.3,0c2.4,0,4.8-0.2,6.8-0.7c0.1,0.6,0.1,1.3,0.1,2.1C21.9,17.2,19,21.9,15.5,21.9z
		 M7.9,10.6L7.9,10.6c-0.4,0.1-0.8,0.1-1.2,0.2C7,10.4,7.5,10.1,8,9.9C7.9,10.2,7.9,10.4,7.9,10.6z M8.2,8.4c0,0.1,0,0.1,0,0.2l0,0
		c-1.6,0.2-2.9,1.6-3.1,3.3c0,0.2,0.1,0.5,0.3,0.6c0.2,0.1,0.5,0.1,0.7,0c0.5-0.3,1.2-0.5,1.9-0.6c0,1,0.1,2,0.3,3
		C4.8,14.6,2.1,10,2.1,4.4c0-0.8,0-1.5,0.1-2.1c4,1,8.5,1,12.5,0.1c0.1,0.6,0.1,1.3,0.1,2.1c0,1.6-0.2,3-0.5,4.2
		c-2-0.1-3.9-0.3-5.4-0.8c-0.2,0-0.4,0-0.5,0.1C8.3,8.1,8.2,8.2,8.2,8.4z"/>
	<path d="M18,16.4c-1.4,0.9-3.6,0.9-4.9,0c-0.2-0.1-0.5-0.1-0.7,0c-0.2,0.1-0.3,0.4-0.3,0.6c0.2,1.9,1.7,3.4,3.4,3.4
		c1.7,0,3.3-1.5,3.4-3.4c0-0.2-0.1-0.5-0.3-0.6C18.4,16.2,18.2,16.2,18,16.4z M15.5,19.1c-0.7,0-1.4-0.4-1.8-1
		c1.1,0.3,2.4,0.3,3.5,0C16.9,18.7,16.2,19.1,15.5,19.1z"/>
	<path d="M12.7,14c0.4,0,0.8,0.3,0.8,0.8c0,0.3,0.3,0.6,0.6,0.6s0.6-0.3,0.6-0.6c0-1.1-0.9-2-2-2c-1.1,0-2,0.9-2,2
		c0,0.3,0.3,0.6,0.6,0.6s0.6-0.3,0.6-0.6C11.9,14.4,12.3,14,12.7,14z"/>
	<path d="M18.3,12.8c-1.1,0-2,0.9-2,2c0,0.3,0.3,0.6,0.6,0.6s0.6-0.3,0.6-0.6c0-0.4,0.3-0.8,0.8-0.8c0.4,0,0.8,0.3,0.8,0.8
		c0,0.3,0.3,0.6,0.6,0.6s0.6-0.3,0.6-0.6C20.3,13.7,19.4,12.8,18.3,12.8z"/>
	<path d="M7.1,5.1c-0.3,0-0.6,0.3-0.6,0.6c0,0.4-0.3,0.8-0.8,0.8c-0.4,0-0.8-0.3-0.8-0.8c0-0.3-0.3-0.6-0.6-0.6S3.7,5.4,3.7,5.7
		c0,1.1,0.9,2,2,2s2-0.9,2-2C7.7,5.4,7.4,5.1,7.1,5.1z"/>
	<path d="M11.3,7.7c1.1,0,2-0.9,2-2c0-0.3-0.3-0.6-0.6-0.6s-0.6,0.3-0.6,0.6c0,0.4-0.3,0.8-0.8,0.8c-0.4,0-0.8-0.3-0.8-0.8
		c0-0.3-0.3-0.6-0.6-0.6S9.3,5.4,9.3,5.7C9.3,6.8,10.2,7.7,11.3,7.7z"/>
</g>
</svg>
