<?xml version="1.0" encoding="utf-8"?>
<!-- Generator: Adobe Illustrator 25.4.1, SVG Export Plug-In . SVG Version: 6.00 Build 0)  -->
<svg version="1.1" id="Layer_1" xmlns="http://www.w3.org/2000/svg" xmlns:xlink="http://www.w3.org/1999/xlink" x="0px" y="0px"
	 viewBox="0 0 24 24" style="enable-background:new 0 0 24 24;" xml:space="preserve">
<path d="M21.9,2c-0.2-0.2-0.5-0.2-0.7-0.2L8.7,3.8C8.3,3.9,8,4.3,8,4.7v10.1c-0.7-0.4-1.4-0.7-2.2-0.7c-2.2,0-4,1.8-4,4
	c0,2.2,1.8,4,4,4s4-1.8,4-4V5.5l10.6-1.8v9c-0.7-0.4-1.4-0.7-2.2-0.7c-2.2,0-4,1.8-4,4s1.8,4,4,4c2.2,0,4-1.8,4-4V2.7
	C22.2,2.4,22.1,2.1,21.9,2z M8,18.2c0,1.2-1,2.2-2.2,2.2s-2.2-1-2.2-2.2c0-1.2,1-2.2,2.2-2.2S8,17,8,18.2z M20.4,16.1
	c0,1.2-1,2.2-2.2,2.2c-1.2,0-2.2-1-2.2-2.2s1-2.2,2.2-2.2C19.4,14,20.4,14.9,20.4,16.1z"/>
</svg>
