<?xml version="1.0" encoding="utf-8"?>
<!-- Generator: Adobe Illustrator 25.4.1, SVG Export Plug-In . SVG Version: 6.00 Build 0)  -->
<svg version="1.1" id="Layer_1" xmlns="http://www.w3.org/2000/svg" xmlns:xlink="http://www.w3.org/1999/xlink" x="0px" y="0px"
	 viewBox="0 0 24 24" style="enable-background:new 0 0 24 24;" xml:space="preserve">
<g>
	<path d="M13.1,12l6.2-6.2c0.2-0.1,0.3-0.3,0.3-0.5c0-0.2-0.1-0.5-0.3-0.6c-1.9-1.9-4.6-3-7.3-3s-5.4,1.1-7.3,3c-4,4-4,10.6,0,14.6
		c1.9,1.9,4.6,3,7.3,3s5.4-1.1,7.3-3c0.2-0.1,0.3-0.3,0.3-0.5c0-0.2-0.1-0.5-0.3-0.6L13.1,12z M6.6,5.1C8.1,3.9,10,3.2,12,3.2
		c1.9,0,3.9,0.6,5.5,1.8l0.2,0.1l-6.2,6.2l0,0c0,0.1-0.1,0.1-0.1,0.1c-0.1,0.1-0.1,0.2-0.1,0.4c0,0.2,0.1,0.5,0.2,0.6l6.2,6.2
		l-0.2,0.1c-1.5,1.2-3.5,1.9-5.4,1.9c-2.8,0-5.2-1.2-6.9-3.3C3.7,15.6,3,13.3,3.3,11C3.6,8.6,4.8,6.5,6.6,5.1z"/>
	<circle cx="20.6" cy="12" r="1.6"/>
	<path d="M10.1,8.8c-0.9,0-1.6-0.7-1.6-1.6s0.7-1.6,1.6-1.6s1.6,0.7,1.6,1.6S11,8.8,10.1,8.8z"/>
</g>
</svg>
