<?xml version="1.0" encoding="utf-8"?>
<!-- Generator: Adobe Illustrator 25.4.1, SVG Export Plug-In . SVG Version: 6.00 Build 0)  -->
<svg version="1.1" id="Layer_1" xmlns="http://www.w3.org/2000/svg" xmlns:xlink="http://www.w3.org/1999/xlink" x="0px" y="0px"
	 viewBox="0 0 24 24" style="enable-background:new 0 0 24 24;" xml:space="preserve">
<g>
	<path d="M12.5,13.5c0.3-0.6,0.2-1.3-0.3-1.8c-0.4-0.4-0.8-0.4-1.1-0.4V9.7h1.5c-0.1,0.6,0.2,1.1,0.8,1.4c0.6,0.3,1.3,0.2,1.8-0.3
		c0.4-0.4,0.5-0.8,0.4-1.2h2.1c0.3,0,0.6-0.3,0.6-0.6V4.3c0-1.8-1.4-3.2-3.2-3.2H5.7C4,1.1,2.5,2.6,2.5,4.3v9.5
		C2.5,15.6,4,17,5.7,17h4.8c0.3,0,0.6-0.3,0.6-0.6v-2.1C11.7,14.3,12.3,14,12.5,13.5z M14.5,9.9C14.5,9.9,14.4,9.9,14.5,9.9
		c-0.2,0.2-0.4,0.2-0.4,0.2c-0.1,0-0.1-0.1-0.1-0.2c0-0.1,0-0.2,0-0.2l0,0C14,9.3,14,8.9,13.8,8.7c-0.1-0.1-0.2-0.2-0.5-0.2h-2.2
		V6.9c0.6,0.1,1.1-0.2,1.4-0.8c0.3-0.5,0.2-1.1-0.1-1.6l0,0c0-0.1-0.1-0.2-0.2-0.2c-0.2-0.2-0.4-0.3-0.7-0.4c-0.2,0-0.3,0-0.5,0V2.4
		h4.2c1.1,0,1.9,0.9,1.9,1.9v4.2H15c-0.2,0-0.4,0.1-0.5,0.2c-0.1,0.1-0.2,0.3-0.1,0.5L14.5,9.9z M6.5,11.3c0,0,0.1,0,0.1,0l0.1,0
		c0.1,0,0.1,0,0.2,0c0.1,0,0.2,0,0.4-0.1l0,0c0,0,0.1,0,0.1,0c0.2-0.1,0.3-0.2,0.5-0.3c0.4-0.4,0.4-0.8,0.4-1.1h1.5v2.2
		c0,0.3,0.3,0.6,0.6,0.6c0.2,0,0.3,0,0.5-0.1c0.3-0.1,0.3-0.1,0.4,0c0.1,0.1,0.1,0.3,0.1,0.4c0,0.1-0.1,0.2-0.1,0.2l-0.8-0.1
		c-0.2,0-0.3,0-0.4,0.1c-0.1,0.1-0.2,0.3-0.3,0.5l0,2.3H5.7c-1.1,0-1.9-0.9-1.9-1.9V9.7h1.5c-0.1,0.6,0.2,1.1,0.8,1.4
		C6.2,11.2,6.4,11.2,6.5,11.3z M11,5.2c0.3-0.1,0.3,0,0.4,0c0.1,0.2,0.1,0.3,0.1,0.4c0,0.1-0.1,0.1-0.1,0.2l-0.8-0.1
		c-0.4,0-0.7,0.2-0.7,0.6l0,2.3H7.6c-0.1,0-0.2,0-0.3,0.1c0,0,0,0,0,0c0,0-0.1,0.1-0.1,0.1l0,0c0,0,0,0,0,0.1c0,0-0.1,0.1-0.1,0.1
		c0,0,0,0.1,0,0.1l0,0c0,0,0,0,0,0.1c0,0,0,0,0,0l0,0l0.1,0.7l0,0c0,0,0,0.1,0,0.1C7,10,6.9,10.1,6.8,10.1c0,0-0.1,0-0.1,0
		c-0.1,0-0.1-0.1-0.2-0.1l0-0.3c0-0.1,0-0.3,0-0.4l0-0.1c0,0,0,0,0-0.1c0-0.1,0-0.1,0-0.2c0-0.1-0.1-0.2-0.1-0.2
		C6.4,8.6,6.3,8.5,6.1,8.5l-0.1,0l-2.3,0V4.3c0-1.1,0.9-1.9,1.9-1.9h4.2v2.2c0,0.3,0.3,0.6,0.6,0.6C10.7,5.2,10.8,5.2,11,5.2L10.9,5
		L11,5.2z"/>
	<path d="M21,16.1l-2.4-4.1c-0.1-0.2-0.2-0.3-0.4-0.3c-0.2,0-0.3,0-0.5,0.1l-2.5,1.4c-0.2,0.1-0.3,0.2-0.3,0.4c0,0.2,0,0.4,0.1,0.5
		l0.4,0.6c0,0,0,0.1,0,0.1c-0.1,0.2-0.3,0.2-0.3,0.3c-0.1,0-0.2,0-0.2-0.1l-0.2-0.6c-0.1-0.2-0.2-0.3-0.4-0.4c-0.2-0.1-0.4,0-0.5,0
		l-2.4,1.4c-0.2,0.1-0.3,0.2-0.3,0.4c0,0.2,0,0.3,0.1,0.5l1.4,2.5c0.1,0.2,0.2,0.3,0.4,0.3c0.2,0,0.4,0,0.5-0.1
		c0.1,0,0.1-0.1,0.2-0.2c0.2-0.2,0.4-0.3,0.5-0.3c0.2,0,0.3,0.2,0.2,0.4c0,0.1-0.2,0.2-0.5,0.3c-0.1,0-0.1,0-0.2,0.1
		c-0.2,0.1-0.3,0.2-0.4,0.4c-0.1,0.2,0,0.4,0,0.5l1.4,2.5c0.1,0.2,0.2,0.3,0.4,0.3c0.1,0,0.1,0,0.2,0c0.1,0,0.2,0,0.3-0.1l4.1-2.4
		C21.4,19.5,21.9,17.6,21,16.1z M15.7,19.1L15.7,19.1c0.2-0.8-0.3-1.7-1.1-1.9c-0.5-0.2-0.9,0-1.2,0.2l-0.8-1.3l1.3-0.8
		c0.2,0.5,0.8,0.9,1.4,0.8c0.7,0,1.3-0.5,1.5-1.1c0.2-0.6,0-0.9-0.2-1.2l1.3-0.8l2.1,3.6c0.3,0.4,0.3,1,0.2,1.5
		c-0.1,0.5-0.5,0.9-0.9,1.2l-3.6,2.1l-0.8-1.3C15.2,19.9,15.5,19.7,15.7,19.1z"/>
</g>
</svg>
