<?xml version="1.0" encoding="utf-8"?>
<!-- Generator: Adobe Illustrator 25.4.1, SVG Export Plug-In . SVG Version: 6.00 Build 0)  -->
<svg version="1.1" id="Layer_1" xmlns="http://www.w3.org/2000/svg" xmlns:xlink="http://www.w3.org/1999/xlink" x="0px" y="0px"
	 viewBox="0 0 24 24" style="enable-background:new 0 0 24 24;" xml:space="preserve">
<g>
	<path d="M12,1.2C6.1,1.2,1.2,6.1,1.2,12S6.1,22.7,12,22.7S22.8,17.9,22.8,12S17.9,1.2,12,1.2z M12,21.4c-5.2,0-9.4-4.2-9.4-9.4
		c0-5.2,4.2-9.4,9.4-9.4c5.2,0,9.4,4.2,9.4,9.4C21.4,17.2,17.2,21.4,12,21.4z"/>
	<path d="M13.9,5c-0.1,0-0.1,0-0.2,0c-1.2-0.3-2.5-0.3-3.6,0l0,0l0,0c-3.2,0.9-5.4,3.8-5.4,7c0,0.4,0.1,0.9,0.2,1.5
		c0,0.1,0,0.1,0,0.2c0.3,1.2,0.9,2.3,1.6,3.1c1.4,1.6,3.4,2.5,5.5,2.5c2.1,0,4.1-0.9,5.5-2.5c0,0,0.1,0,0.2-0.1c0.8-1,1.3-2,1.5-3.2
		l0,0c0.1-0.5,0.1-1,0.1-1.5C19.3,8.7,17.1,5.8,13.9,5z M11,11.7L11,11.7C11,11.7,11,11.7,11,11.7c0.1-0.2,0.1-0.3,0.2-0.3
		c0-0.1,0.1-0.1,0.1-0.2c0,0,0.1-0.1,0.2-0.1c0.1,0,0.1-0.1,0.2-0.1c0,0,0.1,0,0.2,0c0.1,0,0.2,0,0.2,0c0.1,0,0.2,0,0.3,0.1
		c0.5,0.1,0.8,0.5,0.8,1c0,0.6-0.4,1-1,1.1c0,0-0.1,0-0.1,0c-0.6,0-1.1-0.5-1.1-1.1C10.9,11.9,10.9,11.8,11,11.7z M13.1,9.9
		c-0.6-0.3-1.2-0.4-1.9-0.1c-0.1,0-0.2,0.1-0.3,0.1V6.1c0.7-0.1,1.5-0.1,2.2,0V9.9z M9.6,12.2c0,0.1,0,0.2,0.1,0.3
		c0,0.1,0.1,0.2,0.1,0.3l0,0.1c0.2,0.4,0.4,0.7,0.7,0.9l-3.3,1.7c-0.4-0.5-0.7-1.1-0.9-1.7L9.6,12.2z M16,16.4c-1.1,1-2.5,1.6-4,1.6
		c-1.4,0-2.8-0.5-3.9-1.5l4.1-2L16,16.4z M17.8,13.7c-0.2,0.6-0.5,1.2-0.8,1.7l-3.3-1.6c0,0,0.1-0.1,0.1-0.1c0.4-0.4,0.7-1,0.7-1.6
		L17.8,13.7z M9.6,6.5v4.2l-3.5,1.8c0-0.2,0-0.4,0-0.5C6,9.6,7.5,7.5,9.6,6.5z M18,12c0,0.1,0,0.2,0,0.4l-3.6-1.8V6.5
		C16.6,7.5,18,9.6,18,12z"/>
</g>
</svg>
