<?xml version="1.0" encoding="utf-8"?>
<!-- Generator: Adobe Illustrator 25.4.1, SVG Export Plug-In . SVG Version: 6.00 Build 0)  -->
<svg version="1.1" id="Layer_1" xmlns="http://www.w3.org/2000/svg" xmlns:xlink="http://www.w3.org/1999/xlink" x="0px" y="0px"
	 viewBox="0 0 24 24" style="enable-background:new 0 0 24 24;" xml:space="preserve">
<path d="M12,21.7c-2.5,0-5-1-6.8-2.8c-0.2-0.2-0.5-0.5-0.7-0.8c-1.3-1.6-2-3.6-2.1-5.6c0-0.3,0-0.7,0-1c0.1-2.4,1.1-4.6,2.8-6.3
	c1.7-1.7,3.9-2.7,6.3-2.8l0.6,0c2.5,0,5,1,6.8,2.8c0.2,0.2,0.5,0.5,0.7,0.8c1.3,1.6,2,3.6,2.1,5.6c0,0.3,0,0.7,0,1
	c-0.1,2.4-1.1,4.6-2.8,6.3c-1.7,1.7-3.9,2.7-6.3,2.8C12.4,21.7,12.2,21.7,12,21.7L12,21.7L12,21.7z M3.7,12.5c0,0.3,0,0.5,0.1,0.8
	c0,0.3,0.1,0.5,0.2,0.8l0,0.2c0.1,0.3,0.1,0.4,0.2,0.6l0.1,0.2c0.1,0.2,0.2,0.4,0.2,0.5l0.1,0.3c0.1,0.2,0.2,0.3,0.3,0.5
	C5,16.4,5,16.5,5.1,16.6c0.1,0.2,0.2,0.3,0.3,0.5l0.2,0.2c0.2,0.2,0.4,0.4,0.6,0.6c0.2,0.2,0.4,0.4,0.6,0.5L7,18.6
	c0.1,0.1,0.3,0.2,0.4,0.3C7.5,19,7.6,19,7.7,19.1c0.1,0.1,0.3,0.2,0.4,0.2c0.1,0.1,0.2,0.1,0.3,0.2c0.1,0.1,0.2,0.1,0.4,0.2
	c0.1,0.1,0.3,0.1,0.4,0.2c0.1,0,0.2,0.1,0.3,0.1l0.2,0C9.8,20,9.9,20,9.9,20c0.1,0,0.3,0.1,0.4,0.1c0.2,0,0.4,0.1,0.5,0.1
	c0.2,0,0.4,0.1,0.6,0.1l0.3,0l0-0.3c-0.1-2-1-3.9-2.4-5.3C8,13.2,6.1,12.3,4,12.2l-0.3,0L3.7,12.5z M10.5,3.9
	C8.8,4.2,7.3,4.9,6.1,6.1c-1.2,1.2-2,2.7-2.3,4.3l-0.1,0.3l0.3,0c2.3,0.1,4.6,1.1,6.2,2.8c1.7,1.7,2.7,3.9,2.8,6.2l0,0.3l0.3-0.1
	c1.7-0.3,3.2-1.1,4.3-2.3c1.2-1.2,2-2.7,2.3-4.3l0.1-0.3l-0.3,0c-2.4-0.1-4.6-1.1-6.2-2.8C12,8.7,11,6.5,10.8,4.1l0-0.3L10.5,3.9z
	 M12.2,4c0.1,2,1,3.9,2.4,5.4c1.4,1.4,3.3,2.3,5.3,2.4l0.3,0l0-0.3c0-0.3,0-0.5-0.1-0.8c0-0.3-0.1-0.5-0.2-0.8l0-0.2
	c-0.1-0.3-0.1-0.4-0.2-0.6l-0.1-0.3c-0.1-0.2-0.1-0.3-0.2-0.5c0-0.1-0.1-0.2-0.1-0.3c-0.1-0.2-0.2-0.3-0.3-0.5l-0.2-0.3
	c-0.1-0.2-0.2-0.3-0.3-0.5l-0.2-0.2c-0.2-0.2-0.4-0.4-0.6-0.6c-0.2-0.2-0.4-0.4-0.6-0.5l-0.1-0.1c-0.2-0.2-0.4-0.3-0.5-0.4
	c-0.1,0-0.1-0.1-0.2-0.1c-0.2-0.1-0.3-0.2-0.5-0.3c-0.1,0-0.2-0.1-0.2-0.1c-0.2-0.1-0.3-0.2-0.5-0.2c-0.1,0-0.2-0.1-0.3-0.1
	c-0.2-0.1-0.3-0.1-0.4-0.2c-0.1,0-0.2-0.1-0.3-0.1c-0.1,0-0.3-0.1-0.4-0.1c-0.1,0-0.2,0-0.3-0.1c-0.1,0-0.3,0-0.4-0.1
	c-0.1,0-0.2,0-0.3,0l-0.4,0L12.2,4z"/>
</svg>
