<?xml version="1.0" encoding="utf-8"?>
<!-- Generator: Adobe Illustrator 25.4.1, SVG Export Plug-In . SVG Version: 6.00 Build 0)  -->
<svg version="1.1" id="Layer_1" xmlns="http://www.w3.org/2000/svg" xmlns:xlink="http://www.w3.org/1999/xlink" x="0px" y="0px"
	 viewBox="0 0 24 24" style="enable-background:new 0 0 24 24;" xml:space="preserve">
<g>
	<path d="M22.5,15.5h-5.7V8.5h5.7c0.4,0,0.7-0.3,0.7-0.6s-0.3-0.6-0.7-0.6h-5.7V1.5c0-0.4-0.3-0.6-0.7-0.6s-0.7,0.3-0.7,0.6v5.7H8.5
		V1.5c0-0.4-0.3-0.6-0.6-0.6S7.2,1.1,7.2,1.5v5.7H1.5c-0.4,0-0.6,0.3-0.6,0.6s0.3,0.6,0.6,0.6h5.7v6.9H1.5c-0.4,0-0.6,0.3-0.6,0.7
		s0.3,0.7,0.6,0.7h5.7v5.7c0,0.4,0.3,0.7,0.6,0.7s0.6-0.3,0.6-0.7v-5.7h6.9v5.7c0,0.4,0.3,0.7,0.7,0.7s0.7-0.3,0.7-0.7v-5.7h5.7
		c0.4,0,0.7-0.3,0.7-0.7S22.9,15.5,22.5,15.5z M8.5,15.5V8.5h6.9v6.9H8.5z"/>
	<path d="M12,9.1c-1.6,0-2.9,1.3-2.9,2.9s1.3,2.9,2.9,2.9s2.9-1.3,2.9-2.9S13.6,9.1,12,9.1z M12,13.6c-0.9,0-1.6-0.7-1.6-1.6
		s0.7-1.6,1.6-1.6c0.9,0,1.6,0.7,1.6,1.6S12.9,13.6,12,13.6z"/>
	<path d="M2,6.5c0.1,0.1,0.3,0.2,0.5,0.2s0.3-0.1,0.5-0.2l1.4-1.4l1.4,1.4c0.1,0.1,0.3,0.2,0.5,0.2s0.3-0.1,0.5-0.2
		c0.3-0.3,0.3-0.7,0-0.9L5.2,4.2l1.4-1.4c0.3-0.3,0.3-0.7,0-0.9S5.9,1.7,5.6,2L4.2,3.3L2.9,2C2.6,1.7,2.2,1.7,2,2S1.7,2.6,2,2.9
		l1.4,1.4L2,5.6C1.7,5.9,1.7,6.3,2,6.5z"/>
	<path d="M22,17.5c-0.3-0.3-0.7-0.3-0.9,0l-1.4,1.4l-1.4-1.4c-0.3-0.3-0.7-0.3-0.9,0s-0.3,0.7,0,0.9l1.4,1.4l-1.4,1.4
		c-0.3,0.3-0.3,0.7,0,0.9c0.1,0.1,0.3,0.2,0.5,0.2s0.3-0.1,0.5-0.2l1.4-1.4l1.4,1.4c0.1,0.1,0.3,0.2,0.5,0.2s0.3-0.1,0.5-0.2
		c0.3-0.3,0.3-0.7,0-0.9l-1.4-1.4l1.4-1.4C22.3,18.1,22.3,17.7,22,17.5z"/>
</g>
</svg>
