<?xml version="1.0" encoding="utf-8"?>
<!-- Generator: Adobe Illustrator 25.4.1, SVG Export Plug-In . SVG Version: 6.00 Build 0)  -->
<svg version="1.1" id="Layer_1" xmlns="http://www.w3.org/2000/svg" xmlns:xlink="http://www.w3.org/1999/xlink" x="0px" y="0px"
	 viewBox="0 0 24 24" style="enable-background:new 0 0 24 24;" xml:space="preserve">
<g id="Guide">
</g>
<g>
	<path d="M12,1.4C6.2,1.4,1.4,6.2,1.4,12S6.2,22.6,12,22.6S22.6,17.8,22.6,12S17.8,1.4,12,1.4z M12,20.7c-4.8,0-8.7-3.9-8.7-8.7
		S7.2,3.3,12,3.3s8.7,3.9,8.7,8.7S16.8,20.7,12,20.7z"/>
	<path d="M12.8,5.9C11,5.5,9.1,6.5,8.6,8.2c-0.1,0.3,0,0.9,0.5,1.2c0.5,0.2,1.1-0.1,1.3-0.6c0.2-0.7,1.1-1.3,1.9-1.1
		c0.8,0.2,1.3,1.1,1.2,1.8c-0.1,0.8-1,1.4-1.7,1.3c-0.3,0-0.5,0-0.7,0.2s-0.3,0.4-0.3,0.7v2.7c0,0.5,0.4,1,1,1s1-0.4,1-0.9v-1.8
		c1.4-0.3,2.8-1.1,2.8-3.2S14.5,6.3,12.8,5.9z"/>
	<circle cx="11.8" cy="17.2" r="1"/>
</g>
</svg>
