<?xml version="1.0" encoding="utf-8"?>
<!-- Generator: Adobe Illustrator 25.4.1, SVG Export Plug-In . SVG Version: 6.00 Build 0)  -->
<svg version="1.1" id="Layer_1" xmlns="http://www.w3.org/2000/svg" xmlns:xlink="http://www.w3.org/1999/xlink" x="0px" y="0px"
	 viewBox="0 0 24 24" style="enable-background:new 0 0 24 24;" xml:space="preserve">
<g>
	<path d="M20.6,6.1c-1.6-2.3-4-3.9-6.7-4.4c-0.6-0.1-1.2-0.2-1.8-0.2C6.3,1.5,1.5,6.2,1.5,12c0,2.6,1,5.1,2.7,7
		c0.2,0.2,0.4,0.5,0.7,0.7c0.2,0.2,0.3,0.3,0.5,0.4c0,0,0.1,0.1,0.1,0.1c-0.4,0.1-0.7,0.4-0.7,0.8c0,0.5,0.4,0.8,0.8,0.8h1.9
		c0.5,0,0.8-0.4,0.8-0.8v-1.9c0-0.5-0.4-0.8-0.8-0.8c-0.4,0-0.8,0.3-0.8,0.8c-0.1-0.1-0.2-0.1-0.3-0.2c-0.2-0.1-0.2-0.2-0.3-0.3
		l-0.2-0.2c-0.1-0.1-0.3-0.3-0.5-0.5c-1.6-1.8-2.4-4-2.2-6.4S4.4,7,6.2,5.4c1.8-1.6,4-2.4,6.4-2.2c2.4,0.1,4.5,1.2,6.1,2.9
		c3.2,3.6,2.9,9.2-0.7,12.5c-1.6,1.5-3.7,2.2-5.9,2.2c-0.6,0-1.2-0.1-1.8-0.2c-0.5-0.1-0.9,0.2-1,0.7c0,0.2,0,0.5,0.1,0.6
		s0.3,0.3,0.5,0.4c0.7,0.1,1.3,0.2,2,0.2c2.1,0,4.2-0.6,5.9-1.8c2.3-1.6,3.9-4,4.4-6.7C22.8,11.2,22.2,8.4,20.6,6.1z"/>
	<path d="M18.7,12c0-3.7-3-6.7-6.7-6.7s-6.7,3-6.7,6.7s3,6.7,6.7,6.7S18.7,15.7,18.7,12z M17,12c0,2.7-2.2,5-5,5s-5-2.2-5-5
		s2.2-5,5-5S17,9.3,17,12z"/>
	<path d="M12.1,10.3h1.3c0.5,0,0.8-0.4,0.8-0.8c0-0.5-0.4-0.8-0.8-0.8h-0.5c-0.1-0.4-0.4-0.6-0.8-0.6c-0.5,0-0.8,0.4-0.8,0.8
		c-0.5,0.2-0.9,0.6-1.1,1.1c-0.2,0.5-0.3,1.1-0.1,1.6c0.3,0.8,1.1,1.4,2,1.4c0.2,0,0.4,0.2,0.4,0.4s-0.2,0.4-0.4,0.4h-1.3
		c-0.5,0-0.8,0.4-0.8,0.8c0,0.5,0.4,0.8,0.8,0.8h0.5c0.1,0.4,0.4,0.6,0.8,0.6c0.5,0,0.8-0.4,0.8-0.8c1-0.5,1.5-1.6,1.1-2.7
		c-0.3-0.8-1.1-1.4-2-1.4c-0.2,0-0.4-0.2-0.4-0.4S11.8,10.3,12.1,10.3z"/>
</g>
</svg>
