<?xml version="1.0" encoding="utf-8"?>
<!-- Generator: Adobe Illustrator 25.4.1, SVG Export Plug-In . SVG Version: 6.00 Build 0)  -->
<svg version="1.1" id="Layer_1" xmlns="http://www.w3.org/2000/svg" xmlns:xlink="http://www.w3.org/1999/xlink" x="0px" y="0px"
	 viewBox="0 0 24 24" style="enable-background:new 0 0 24 24;" xml:space="preserve">
<path d="M12,17h0.6c0.2,0,0.4-0.2,0.4-0.4c0-0.2-0.2-0.4-0.4-0.4h-0.2c0-0.2-0.2-0.3-0.4-0.3c-0.2,0-0.4,0.2-0.4,0.4
	c-0.2,0.1-0.4,0.3-0.5,0.5c-0.1,0.2-0.1,0.5,0,0.7c0.1,0.4,0.5,0.6,0.9,0.6c0.1,0,0.2,0.1,0.2,0.2c0,0.1-0.1,0.2-0.2,0.2h-0.6
	c-0.2,0-0.4,0.2-0.4,0.4c0,0.2,0.2,0.4,0.4,0.4h0.2c0,0.2,0.2,0.3,0.4,0.3c0.2,0,0.4-0.2,0.4-0.4c0.5-0.2,0.7-0.7,0.5-1.2
	c-0.1-0.4-0.5-0.6-0.9-0.6c-0.1,0-0.2-0.1-0.2-0.2C11.8,17,11.9,17,12,17z"/>
<g>
	<path d="M12.5,12.6V12c0,0,0,0,0.1,0c1,0,1.9-0.3,2.6-0.9c0.9-0.8,1.4-2,1.4-3.5c0-0.3-0.2-0.5-0.5-0.5c-1-0.1-1.9,0.1-2.6,0.4
		c0.5-0.8,0.7-1.6,0.7-2.5c0-1.8-1.8-3.5-2-3.7c-0.2-0.2-0.5-0.2-0.7,0c-0.1,0.1-1.9,1.7-1.9,4c0,0.8,0.2,1.5,0.7,2.2
		C9.6,7.1,8.8,6.9,7.9,7C7.6,7,7.4,7.2,7.4,7.5c0,1.5,0.5,2.8,1.4,3.5c0.7,0.6,1.6,0.9,2.6,0.9c0,0,0,0,0.1,0v0.6
		c-2.7,0.3-4.7,2.5-4.7,5.2c0,2.9,2.3,5.2,5.2,5.2c2.9,0,5.2-2.3,5.2-5.2C17.2,15.1,15.2,12.8,12.5,12.6z M13.3,10.9l1.6-1.6
		c0.2-0.2,0.2-0.5,0-0.7c-0.1-0.1-0.2-0.1-0.4-0.1s-0.3,0-0.4,0.1l-1.7,1.7l0-0.5C12.5,9.6,13,8,15.6,8c-0.1,1-0.5,1.8-1,2.3
		C14.2,10.6,13.8,10.8,13.3,10.9z M12,22c-2.3,0-4.2-1.9-4.2-4.2c0-2.3,1.9-4.2,4.2-4.2c2.3,0,4.2,1.9,4.2,4.2
		C16.2,20.1,14.3,22,12,22z M12.5,7.1V4.4c0-0.3-0.2-0.5-0.5-0.5s-0.5,0.2-0.5,0.5v2.8c-0.4-0.5-0.8-1.2-0.8-2.1
		c0-1.3,0.8-2.4,1.2-2.9c0.5,0.5,1.3,1.6,1.3,2.6C13.2,5.8,12.9,6.6,12.5,7.1z M11.5,9.8v0.4L9.9,8.6c-0.2-0.2-0.5-0.2-0.7,0
		C9,8.8,9,9.1,9.2,9.3l1.6,1.6c-0.5-0.1-1-0.3-1.3-0.6C8.9,9.8,8.6,9,8.4,8C11,8,11.5,9.6,11.5,9.8z"/>
	<path d="M12,13.9c-2.1,0-3.8,1.7-3.8,3.8s1.7,3.8,3.8,3.8s3.8-1.7,3.8-3.8S14.1,13.9,12,13.9z M12,20.6c-1.6,0-2.8-1.3-2.8-2.8
		s1.3-2.8,2.8-2.8s2.8,1.3,2.8,2.8S13.6,20.6,12,20.6z"/>
</g>
</svg>
