<?xml version="1.0" encoding="utf-8"?>
<!-- Generator: Adobe Illustrator 25.4.1, SVG Export Plug-In . SVG Version: 6.00 Build 0)  -->
<svg version="1.1" id="Layer_1" xmlns="http://www.w3.org/2000/svg" xmlns:xlink="http://www.w3.org/1999/xlink" x="0px" y="0px"
	 viewBox="0 0 24 24" style="enable-background:new 0 0 24 24;" xml:space="preserve">
<g>
	<path d="M12,9.4c0.1,0,0.2,0.1,0.2,0.2c0,0.1-0.1,0.2-0.2,0.2h-0.7c-0.2,0-0.4,0.2-0.4,0.4c0,0.2,0.2,0.4,0.4,0.4h0.2
		c0,0.2,0.2,0.3,0.4,0.3c0.2,0,0.4-0.2,0.4-0.4c0.6-0.1,1-0.8,0.6-1.4c-0.3-0.5-1-0.1-1.2-0.6C11.6,8.3,11.8,8,12,8s0.7,0,0.7,0
		C12.9,8,13,7.9,13,7.7c0-0.2-0.2-0.4-0.4-0.4h-0.2C12.4,7.1,12.2,7,12,7s-0.4,0.2-0.4,0.4c-0.2,0.1-0.4,0.2-0.6,0.5
		c-0.1,0.3-0.2,0.5,0,0.9S11.6,9.4,12,9.4z"/>
	<path d="M20.6,18.5l-3.1-5.2c0.4-0.1,0.7-0.2,1-0.7c0.2-0.3,0.1-0.8,0-1.3c-0.1-0.3-0.1-0.7-0.1-0.8c0-0.1,0.2-0.3,0.4-0.4
		c0.3-0.2,0.8-0.5,0.7-1.1c-0.1-0.7-0.7-1.3-1-1.6c0,0-0.1-0.1-0.1-0.1c0,0,0-0.1,0-0.1c0.1-0.4,0.4-1.4,0-2
		c-0.3-0.6-1.1-0.8-1.6-0.9c-0.1,0-0.2,0-0.2-0.1c0,0,0-0.1,0-0.2c-0.1-0.5-0.2-1.3-0.9-1.6c-0.6-0.3-1.3-0.1-1.7,0
		c-0.1,0-0.2,0.1-0.2,0.1l0,0c0,0-0.1-0.1-0.1-0.1c-0.3-0.3-0.8-1-1.6-1c-0.8,0-1.4,0.7-1.6,1c0,0-0.1,0.1-0.1,0.1c0,0,0,0-0.1,0
		c-0.4-0.1-1.4-0.5-2.1,0C7.5,2.8,7.3,3.6,7.2,4.1c0,0.1,0,0.1,0,0.2c-0.4,0-1.4,0.1-1.8,1C5,5.9,5.3,6.6,5.4,7
		c0,0.1,0.1,0.3,0.1,0.3c0,0-0.1,0-0.1,0.1C5.1,7.6,4.3,8.1,4.4,9c0.1,0.8,0.5,1.2,0.9,1.5c0.1,0.1,0.2,0.2,0.2,0.3
		c0,0.1,0,0.4-0.1,0.7c-0.1,0.6-0.2,1.2,0,1.4c0.2,0.4,0.6,0.5,0.9,0.6l-2.8,4.9c-0.1,0.1-0.1,0.3-0.1,0.3c0,0.1,0,0.2,0.1,0.3
		c0.1,0.1,0.3,0.1,0.5,0.1h3.5l1.6,3c0.1,0.2,0.2,0.4,0.5,0.4c0.3,0,0.4-0.1,0.5-0.3l1.8-3l1.8,3c0.1,0.1,0.2,0.2,0.5,0.2
		c0.3,0,0.4-0.1,0.5-0.2l1.7-3.1l3.6,0.2c0.2,0,0.5-0.1,0.6-0.2l0,0C20.7,19,20.7,18.8,20.6,18.5z M6.5,7.8c0-0.2,0-0.5-0.1-0.9
		c-0.1-0.4-0.2-1,0-1.2c0.1-0.2,0.5-0.3,0.9-0.4c0.3-0.1,0.7-0.2,0.8-0.3c0.1-0.1,0.2-0.4,0.2-0.7c0.1-0.4,0.1-0.8,0.4-1
		c0.3-0.2,0.7,0,1.1,0.1c0.3,0.1,0.5,0.2,0.7,0.1c0.2-0.1,0.4-0.3,0.5-0.5c0.2-0.3,0.5-0.6,0.8-0.6c0.4,0,0.6,0.3,0.8,0.6
		c0.2,0.2,0.3,0.4,0.5,0.5c0.2,0.1,0.4,0,0.7-0.1c0.3-0.1,0.7-0.3,1.1-0.1c0.4,0.2,0.4,0.6,0.5,1c0,0.3,0.1,0.5,0.2,0.7
		c0.2,0.2,0.4,0.2,0.7,0.2c0.4,0.1,0.8,0.1,1,0.4c0.2,0.3,0.1,0.7-0.1,1.1c-0.1,0.3-0.2,0.5-0.1,0.7c0.1,0.2,0.3,0.4,0.5,0.6
		c0.3,0.2,0.6,0.5,0.6,0.8c0,0.2-0.2,0.4-0.4,0.6c-0.3,0.2-0.5,0.4-0.7,0.8c-0.1,0.4,0,0.7,0.1,1c0.1,0.3,0.2,0.5,0.1,0.7
		c-0.1,0.2-0.5,0.3-0.8,0.3c-0.3,0-0.5,0.1-0.7,0.2c-0.1,0.1-0.2,0.4-0.2,0.7c-0.1,0.4-0.1,0.8-0.4,0.9c-0.3,0.2-0.8,0.1-1.2,0
		c-0.3-0.1-0.6-0.1-0.8-0.1c-0.2,0.1-0.4,0.3-0.5,0.5c-0.2,0.3-0.4,0.5-0.7,0.6c-0.3,0-0.5-0.2-0.7-0.5c-0.2-0.3-0.5-0.5-0.8-0.6
		c-0.1,0-0.2,0-0.2,0c-0.3,0-0.6,0.1-0.9,0.1c-0.2,0-0.4,0.1-0.5,0.1c-0.1-0.1-0.2-0.4-0.3-0.6c-0.1-0.4-0.3-0.8-0.5-1
		c-0.2-0.1-0.5-0.2-0.8-0.3c-0.3-0.1-0.8-0.2-0.8-0.3c0-0.2,0-0.5,0.1-0.8c0.1-0.4,0.2-0.7,0.1-0.9c0-0.3-0.3-0.5-0.5-0.8
		C5.8,9.4,5.6,9.2,5.5,9c0-0.2,0.2-0.4,0.5-0.6C6.2,8.2,6.5,8,6.5,7.8z M7.5,14C7.5,14,7.5,14.1,7.5,14c0.2,0.6,0.4,1.3,0.8,1.5
		c0.3,0.2,0.8,0.1,1.5,0c0.2,0,0.5-0.1,0.6-0.1l0,0c0,0,0.2,0.1,0.3,0.2c0.5,0.4,1.1,0.9,1.4,0.9c0.1,0,0.2,0,0.2,0l-2.6,4.4
		l-1.3-2.4c-0.1-0.2-0.2-0.4-0.5-0.4H5.1L7.5,14z M14.3,15.3C14.3,15.3,14.3,15.4,14.3,15.3c0.5,0.1,1.2,0.3,1.6,0.1
		c0.3-0.2,0.6-0.9,0.8-1.3l2.4,4.1l-3-0.1h0c-0.2,0-0.5,0.1-0.5,0.3l-1.3,2.4L12.7,18L14.3,15.3z"/>
	<path d="M11.9,13.5c2.5,0,4.5-2.1,4.5-4.5c0-2.5-2.1-4.5-4.5-4.5c-2.5,0-4.4,2-4.4,4.5C7.5,11.5,9.4,13.5,11.9,13.5z M8.6,9
		c0-1.8,1.5-3.3,3.3-3.3c1.8,0,3.3,1.4,3.3,3.3s-1.4,3.3-3.3,3.3S8.6,10.8,8.6,9z"/>
</g>
</svg>
