<?xml version="1.0" encoding="utf-8"?>
<!-- Generator: Adobe Illustrator 25.4.1, SVG Export Plug-In . SVG Version: 6.00 Build 0)  -->
<svg version="1.1" id="Layer_1" xmlns="http://www.w3.org/2000/svg" xmlns:xlink="http://www.w3.org/1999/xlink" x="0px" y="0px"
	 viewBox="0 0 24 24" style="enable-background:new 0 0 24 24;" xml:space="preserve">
<path d="M20.7,6.4c0-1.1-1-2-2-2h-3.1c-0.4-1.8-1.8-3-3.6-3c-1.8,0-3.2,1.2-3.6,3H5.3c-1.2,0-2,0.9-2,2L2.7,20.5c0,1.1,0.9,2,2,2
	l14.6,0c0.1,0,0.1,0,0.2,0c0.4,0,0.8-0.2,1.2-0.5c0.4-0.4,0.7-0.9,0.7-1.5h0L20.7,6.4z M9.3,10c0.5,0,0.9-0.5,0.9-0.9V6.2h3.6v2.9
	c0,0.6,0.5,0.9,0.9,0.9c0.6,0,0.9-0.5,0.9-0.9V6.2h3.1c0.1,0,0.2,0,0.2,0.2l0.6,14.2c0,0-0.1,0.2-0.2,0.2H4.7c-0.1,0-0.2,0-0.2-0.2
	L5.2,6.4c0-0.1,0-0.2,0.2-0.2h3v2.9C8.4,9.7,8.8,10,9.3,10z M10.4,4.3c0.2-0.5,0.8-1,1.6-1c0.8,0,1.4,0.5,1.6,1H10.4z"/>
</svg>
