<?xml version="1.0" encoding="utf-8"?>
<!-- Generator: Adobe Illustrator 25.4.1, SVG Export Plug-In . SVG Version: 6.00 Build 0)  -->
<svg version="1.1" id="Layer_1" xmlns="http://www.w3.org/2000/svg" xmlns:xlink="http://www.w3.org/1999/xlink" x="0px" y="0px"
	 viewBox="0 0 24 24" style="enable-background:new 0 0 24 24;" xml:space="preserve">
<style type="text/css">
	.st0{fill-rule:evenodd;clip-rule:evenodd;}
</style>
<g>
	<path d="M8.7,18.1c0,0.3,0.3,0.4,0.6,0.4l0.6-0.1c0.3,0,0.4-0.3,0.4-0.6l-0.6-3.6c0-0.3-0.3-0.4-0.6-0.4l-0.6,0.1
		c-0.3,0-0.4,0.3-0.4,0.6L8.7,18.1z"/>
	<path d="M13.7,17.8c0,0.3,0.1,0.5,0.4,0.6l0.6,0.1c0.3,0,0.5-0.1,0.6-0.4l0.6-3.6c0-0.3-0.1-0.5-0.4-0.6l-0.6-0.1
		c-0.3,0-0.5,0.1-0.6,0.4L13.7,17.8z"/>
	<path class="st0" d="M17.8,8H6l4.6-4.3c0.2-0.2,0.2-0.6,0-0.8l-0.3-0.4c-0.2-0.2-0.6-0.2-0.8,0L3.8,7.8C3.7,7.8,3.7,7.9,3.7,8H2.3
		C1.9,8,1.5,8.3,1.5,8.8V12c0,0.4,0.4,0.8,0.8,0.8h0.3l1.7,8.1c0.1,0.4,0.5,0.8,0.9,0.8h13.3c0.5,0,0.9-0.3,0.9-0.8l1.7-8.1h0.3
		c0.4,0,0.8-0.4,0.8-0.8V8.8c0-0.4-0.4-0.8-0.8-0.8h-1.4c0-0.1-0.1-0.1-0.1-0.2l-6.4-5.3c-0.2-0.2-0.6-0.2-0.8,0.1l-0.3,0.4
		c-0.2,0.2-0.2,0.6,0.1,0.8L17.8,8z M3.6,9.6c-0.3,0-0.5,0.2-0.5,0.5v0.6c0,0.3,0.2,0.5,0.5,0.5h16.8c0.3,0,0.5-0.2,0.5-0.5v-0.6
		c0-0.3-0.2-0.5-0.5-0.5H3.6z M4.4,13.5c-0.1-0.4,0.2-0.7,0.6-0.7h14c0.4,0,0.6,0.3,0.6,0.7l-1.3,6.1c-0.1,0.3-0.3,0.4-0.6,0.4H6.3
		c-0.3,0-0.5-0.2-0.6-0.4L4.4,13.5z"/>
</g>
</svg>
