<?xml version="1.0" encoding="utf-8"?>
<!-- Generator: Adobe Illustrator 25.4.1, SVG Export Plug-In . SVG Version: 6.00 Build 0)  -->
<svg version="1.1" id="Layer_1" xmlns="http://www.w3.org/2000/svg" xmlns:xlink="http://www.w3.org/1999/xlink" x="0px" y="0px"
	 viewBox="0 0 24 24" style="enable-background:new 0 0 24 24;" xml:space="preserve">
<g>
	<path d="M16.8,14.1c-0.1-0.2-0.3-0.4-0.5-0.4l-1.9-0.3l-2-3.9h8.5c-0.3,1-0.9,2.5-2,3.6c-0.3-0.1-0.5-0.3-0.8-0.6
		c-0.3-0.3-0.7-0.4-1.1-0.1c-0.3,0.3-0.4,0.7-0.1,1.1c0.7,0.8,1.7,1.3,2.7,1.3c0,0,0.1,0,0.1,0c0.9,0,1.8-0.3,2.5-0.8
		c0.3-0.3,0.4-0.7,0.1-1.1c-0.3-0.3-0.7-0.4-1.1-0.1c-0.2,0.1-0.3,0.2-0.5,0.3c1.3-1.9,1.7-4.1,1.7-4.2c0-0.2,0-0.4-0.2-0.6
		S22.1,8,21.8,8H11.6l-1.5-3c-0.2-0.4-0.6-0.5-1-0.3c-0.4,0.2-0.5,0.6-0.3,1l4.3,8.4l-0.6,1.7c-0.1,0.2,0,0.5,0.1,0.7l2,2.6
		c0.1,0.2,0.4,0.3,0.6,0.3c0.1,0,0.2,0,0.3-0.1l2.3-1.2c0.4-0.2,0.5-0.6,0.3-1L16.8,14.1z M15.5,17.7l-1.4-1.8l0.3-1l1.2,0.2
		l0.9,2.1L15.5,17.7z"/>
	<path d="M21.4,15.4c-0.4,0.3-1,0.5-1.5,0.5c-0.4,0-0.8,0.3-0.8,0.7c0,0.4,0.3,0.8,0.7,0.8c0,0,0.1,0,0.1,0c0.9,0,1.7-0.3,2.4-0.8
		c0.3-0.3,0.4-0.7,0.1-1.1C22.2,15.2,21.7,15.2,21.4,15.4z"/>
	<path d="M11.3,15.8c-0.2,0.1-0.5,0.1-0.8,0.1c-0.7,0-1.3-0.2-1.7-0.8c-0.3-0.3-0.9-0.3-1.1,0C7.3,15.7,6.7,16,6,15.9
		c-0.7,0-1.3-0.3-1.7-0.8c-0.1-0.2-0.4-0.3-0.6-0.3c-0.2,0-0.4,0.1-0.6,0.3c-0.3,0.4-0.7,0.6-1.2,0.7c-0.4,0.1-0.7,0.5-0.6,0.9
		c0.1,0.4,0.5,0.7,0.9,0.6c0.6-0.1,1.1-0.4,1.5-0.7c0.7,0.5,1.5,0.8,2.3,0.7c0.9,0,1.7-0.2,2.3-0.7c0.6,0.5,1.4,0.7,2.2,0.7
		c0,0,0.1,0,0.1,0c0.4,0,0.8-0.1,1.1-0.2c0.4-0.1,0.6-0.5,0.5-0.9C12.2,16,11.7,15.7,11.3,15.8z"/>
	<path d="M11.4,13.2c-0.3,0.1-0.5,0.1-0.8,0.1c-0.7,0-1.3-0.2-1.7-0.8c-0.3-0.3-0.9-0.3-1.1,0c-0.3,0.4-0.8,0.6-1.3,0.7
		c0,0,0,0,0-0.1C5.5,12,4.7,10.8,4,9.5h4.8c0.4,0,0.8-0.3,0.8-0.8S9.2,8,8.8,8H2.7C2.4,8,2.2,8.1,2.1,8.4C1.9,8.6,1.9,8.9,2,9.1
		c0.6,1.1,1.2,2.2,1.9,3.2c-0.1,0-0.2-0.1-0.3-0.1c-0.2,0-0.4,0.1-0.6,0.3c-0.3,0.4-0.7,0.6-1.2,0.7c-0.4,0.1-0.7,0.5-0.6,0.9
		c0.1,0.4,0.5,0.7,0.9,0.6c0.6-0.1,1.1-0.4,1.5-0.7c0.7,0.5,1.5,0.8,2.3,0.7c0.9,0,1.7-0.2,2.3-0.7c0.6,0.5,1.4,0.7,2.2,0.7
		c0,0,0.1,0,0.1,0c0.4,0,0.8-0.1,1.2-0.2c0.4-0.1,0.6-0.5,0.5-0.9C12.2,13.3,11.8,13.1,11.4,13.2z"/>
</g>
</svg>
