<?xml version="1.0" encoding="utf-8"?>
<!-- Generator: Adobe Illustrator 25.4.1, SVG Export Plug-In . SVG Version: 6.00 Build 0)  -->
<svg version="1.1" id="Layer_1" xmlns="http://www.w3.org/2000/svg" xmlns:xlink="http://www.w3.org/1999/xlink" x="0px" y="0px"
	 viewBox="0 0 24 24" style="enable-background:new 0 0 24 24;" xml:space="preserve">
<path d="M20.4,10.6c0-0.1,0-0.1,0-0.2c0,0,0-0.1-0.1-0.1c0,0,0-0.1-0.1-0.1c0,0-0.1-0.1-0.1-0.1c0,0-0.1,0-0.1-0.1l-5.4-2.6
	C14.9,6.9,15,6.3,15,5.7c0-1.4-0.8-2.6-2.1-3.1l0.4-0.7c0.2-0.4,0.1-0.8-0.2-1c-0.4-0.2-0.8-0.1-1,0.2l-0.7,1.2
	C9.6,2.4,8.2,3.9,8.2,5.7c0,0,0,0,0,0.1l-4.4,4.4c-0.1,0.1-0.1,0.2-0.2,0.2c0,0.1-0.1,0.2-0.1,0.3v3.8v3.8v4.2
	c0,0.4,0.3,0.8,0.8,0.8h15.3c0.4,0,0.8-0.3,0.8-0.8v-4.2v-3.8v-3.8C20.4,10.6,20.4,10.6,20.4,10.6z M18.9,17.5H5.1v-2.3h13.8V17.5z
	 M5.1,13.7v-2.3h13.8v2.3H5.1z M11.6,3.8c1.1,0,1.9,0.9,1.9,1.9s-0.9,1.9-1.9,1.9c-1.1,0-1.9-0.9-1.9-1.9S10.6,3.8,11.6,3.8z
	 M11.6,9.1c0.7,0,1.4-0.2,1.9-0.6l2.8,1.4H6.2l2.5-2.5C9.3,8.4,10.4,9.1,11.6,9.1z M5.1,21.8V19h13.8v2.7H5.1z"/>
</svg>
