<?xml version="1.0" encoding="utf-8"?>
<!-- Generator: Adobe Illustrator 25.4.1, SVG Export Plug-In . SVG Version: 6.00 Build 0)  -->
<svg version="1.1" id="Layer_1" xmlns="http://www.w3.org/2000/svg" xmlns:xlink="http://www.w3.org/1999/xlink" x="0px" y="0px"
	 viewBox="0 0 24 24" style="enable-background:new 0 0 24 24;" xml:space="preserve">
<g>
	<path d="M16.6,19.8c-1.8,0-3.4-0.2-4.9-0.7c-1.5-0.5-3.1-0.7-4.7-0.7c-0.5,0-1.1,0-1.6,0.1c-0.3,0.1-0.7,0.1-1,0.2
		c-0.8,0.1-1.5,0.2-2.2,0.4c0,0-0.5,0.1-0.7-0.1s-0.2-0.3-0.2-0.5V5.4c0-0.3,0.2-0.6,0.6-0.7c1.2-0.3,2.4-0.6,3.6-0.7
		C6.2,4,6.8,4,7.3,4c1.7,0,3.3,0.2,4.8,0.7c1.5,0.5,3.1,0.7,4.6,0.7c0.5,0,1,0,1.5-0.1c1.1-0.1,2.2-0.3,3.4-0.6c0,0,0.4-0.1,0.7,0.1
		c0.2,0.2,0.2,0.4,0.2,0.6l0,3.4v9.6c0,0.3-0.3,0.7-0.6,0.8c-1.1,0.3-2.2,0.5-3.3,0.6c-0.6,0.1-1.2,0.1-1.8,0.1H16.6z M7.3,17.1
		c1.8,0,3.4,0.2,4.9,0.7c1.5,0.4,3.1,0.6,4.6,0.6c0.3,0,0.6,0,0.9,0l0.1,0l0-0.1c0.1-1.8,1.4-3.3,3.1-3.7l0.1,0V9.4l-0.1,0
		c-1.4-0.2-2.6-1.1-3.1-2.4l0-0.1l-0.1,0c-0.5,0-1,0.1-1.4,0.1c-1.5,0-2.9-0.2-4.4-0.7c-1.4-0.4-2.9-0.6-4.3-0.6c-0.3,0-0.6,0-0.9,0
		l-0.1,0l0,0.1C6.4,7.6,5,9.1,3.1,9.4L3,9.5v5.1l0.1,0c1.3,0.3,2.3,1.3,2.8,2.5l0,0.1l0.1,0C6.5,17.1,6.9,17.1,7.3,17.1z M20.8,16.2
		c-0.8,0.4-1.4,1-1.5,1.8l0,0.2h0.2c0.2,0,1.6-0.2,1.6-0.2v-1.9L20.8,16.2z M3,17.5h0.1c0.4,0,0.6-0.1,0.9-0.2l0.4-0.1l-0.1-0.2
		c-0.4-0.5-0.8-0.8-1.2-0.9L3,16V17.5z M4.4,5.8C4.2,5.9,4,5.9,3.8,5.9C3.5,5.9,3.3,6,3.1,6L3,6v1.9l0.2,0C4.1,7.7,4.9,6.9,5,6
		l0-0.2L4.4,5.8L4.4,5.8z M19.4,6.8c0.4,0.5,0.9,0.8,1.4,1L21,7.9V6.4l-0.2,0c-0.5,0.1-1,0.2-1.3,0.2h-0.3L19.4,6.8z"/>
	<path d="M12,16c-0.4,0-0.8-0.4-0.8-0.7v-0.1h-0.8c-0.4,0-0.8-0.3-0.8-0.8c0-0.4,0.3-0.8,0.8-0.8h2.8c0.3,0,0.4-0.2,0.4-0.4
		s-0.2-0.4-0.4-0.4h-2.4c-1.1,0-2-0.8-2-2s0.8-2,2-2h0.4l0-0.1C11.3,8.4,11.6,8,12,8c0.4,0,0.8,0.4,0.8,0.7v0.1h0.8
		c0.4,0,0.8,0.3,0.8,0.8c0,0.4-0.3,0.8-0.8,0.8h-2.8c-0.3,0-0.4,0.2-0.4,0.4c0,0.3,0.2,0.4,0.4,0.4h2.4c1.1,0,2,0.8,2,2
		c0,1.1-0.8,2-2,2h-0.4l0,0.1C12.7,15.6,12.4,16,12,16z"/>
</g>
</svg>
