<?xml version="1.0" encoding="utf-8"?>
<!-- Generator: Adobe Illustrator 25.4.1, SVG Export Plug-In . SVG Version: 6.00 Build 0)  -->
<svg version="1.1" id="Layer_1" xmlns="http://www.w3.org/2000/svg" xmlns:xlink="http://www.w3.org/1999/xlink" x="0px" y="0px"
	 viewBox="0 0 24 24" style="enable-background:new 0 0 24 24;" xml:space="preserve">
<path d="M22.8,4c0-2-3.4-2.9-6.6-2.9S9.6,2.1,9.6,4c0,0.1,0,0.2,0,0.3c0,0,0,0.1,0,0.1V7c0,0.1,0,0.2,0,0.3c0,0,0,0.1,0,0.1v1
	C9,8.3,8.4,8.3,7.8,8.3c-3.2,0-6.6,0.9-6.6,2.8c0,0.1,0,0.2,0,0.3c0,0,0,0.1,0,0.1v2.5c0,0.1,0,0.2,0,0.3c0,0,0,0.1,0,0.1V17
	c0,0.1,0,0.2,0,0.3c0,0,0,0.1,0,0.1V20c0,2,3.4,2.8,6.6,2.8s6.6-0.9,6.6-2.8v-1.5c0.6,0.1,1.2,0.1,1.8,0.1c3.2,0,6.6-0.9,6.6-2.8
	v-2.5c0-0.1,0-0.1,0-0.1c0-0.1,0-0.2,0-0.3v-2.5c0-0.1,0-0.1,0-0.1c0-0.1,0-0.2,0-0.3V7.4c0-0.1,0-0.1,0-0.1c0-0.1,0-0.2,0-0.3V4.4
	c0-0.1,0-0.1,0-0.1C22.8,4.2,22.8,4.1,22.8,4z M7.8,9.8c3.4,0,5.1,1,5.1,1.3c0,0.3-1.8,1.4-5.1,1.4s-5.1-1-5.1-1.4
	C2.7,10.8,4.4,9.8,7.8,9.8z M2.7,13c1.3,0.7,3.3,1,5.1,1s3.8-0.3,5.1-1v1.1c0,0.3-1.8,1.3-5.1,1.3s-5.1-1-5.1-1.3V13z M2.7,16
	c1.3,0.7,3.3,1,5.1,1s3.8-0.3,5.1-1V17c0,0.3-1.8,1.4-5.1,1.4s-5.1-1-5.1-1.4V16z M12.9,20c0,0.3-1.8,1.3-5.1,1.3s-5.1-1-5.1-1.3
	v-1.1c1.3,0.7,3.3,1,5.1,1s3.8-0.3,5.1-1V20z M21.3,15.8c0,0.3-1.8,1.3-5.1,1.3c-0.6,0-1.2,0-1.8-0.1v-1.4c0.6,0.1,1.2,0.1,1.8,0.1
	c1.9,0,3.8-0.3,5.1-1V15.8z M21.3,12.8c0,0.3-1.8,1.4-5.1,1.4c-0.6,0-1.2,0-1.8-0.1v-1.4c0.6,0.1,1.2,0.1,1.8,0.1
	c1.9,0,3.8-0.3,5.1-1V12.8z M21.3,9.9c0,0.3-1.8,1.4-5.1,1.4c-0.6,0-1.2,0-1.8-0.1c0-0.6-0.4-1.1-1-1.6c0.9,0.2,1.8,0.2,2.7,0.2
	c1.9,0,3.8-0.3,5.1-1V9.9z M21.3,7c0,0.3-1.8,1.4-5.1,1.4s-5.1-1-5.1-1.4V5.9c1.3,0.7,3.3,1,5.1,1c1.9,0,3.8-0.3,5.1-1V7z M16.2,5.4
	c-3.4,0-5.1-1-5.1-1.4s1.8-1.4,5.1-1.4s5.1,1,5.1,1.4S19.6,5.4,16.2,5.4z"/>
</svg>
