<?xml version="1.0" encoding="utf-8"?>
<!-- Generator: Adobe Illustrator 25.4.1, SVG Export Plug-In . SVG Version: 6.00 Build 0)  -->
<svg version="1.1" id="Layer_1" xmlns="http://www.w3.org/2000/svg" xmlns:xlink="http://www.w3.org/1999/xlink" x="0px" y="0px"
	 viewBox="0 0 24 24" style="enable-background:new 0 0 24 24;" xml:space="preserve">
<path d="M12,9.8c0.4,0,0.8,0.3,0.8,0.8c0,0.4,0.3,0.7,0.7,0.7c0.4,0,0.7-0.3,0.7-0.7c0-0.9-0.6-1.8-1.5-2V8.1c0-0.4-0.3-0.7-0.7-0.7
	c-0.4,0-0.7,0.3-0.7,0.7v0.4c-0.9,0.3-1.5,1.1-1.5,2c0,1.2,1,2.2,2.2,2.2c0.4,0,0.8,0.3,0.8,0.8c0,0.4-0.3,0.8-0.8,0.8
	s-0.8-0.3-0.8-0.8c0-0.4-0.3-0.7-0.7-0.7c-0.4,0-0.7,0.3-0.7,0.7c0,0.9,0.6,1.7,1.5,2v0.4c0,0.4,0.3,0.7,0.7,0.7
	c0.4,0,0.7-0.3,0.7-0.7v-0.4c0.9-0.3,1.5-1.1,1.5-2c0-1.2-1-2.2-2.2-2.2c-0.4,0-0.8-0.3-0.8-0.8C11.2,10.1,11.6,9.8,12,9.8z"/>
<g>
	<path d="M12,4.4c-4.2,0-7.6,3.4-7.6,7.6s3.4,7.6,7.6,7.6c4.2,0,7.6-3.4,7.6-7.6S16.2,4.4,12,4.4z M12,17.9c-3.3,0-5.9-2.7-5.9-5.9
		S8.7,6.1,12,6.1c3.3,0,5.9,2.7,5.9,5.9S15.3,17.9,12,17.9z"/>
	<path d="M12,1.3C6.1,1.3,1.3,6.1,1.3,12c0,5.9,4.8,10.7,10.7,10.7S22.7,17.9,22.7,12C22.7,6.1,17.9,1.3,12,1.3z M12,21
		c-5,0-9-4-9-9s4-9,9-9c5,0,9,4,9,9S17,21,12,21z"/>
</g>
</svg>
