<?xml version="1.0" encoding="utf-8"?>
<!-- Generator: Adobe Illustrator 25.4.1, SVG Export Plug-In . SVG Version: 6.00 Build 0)  -->
<svg version="1.1" id="Layer_1" xmlns="http://www.w3.org/2000/svg" xmlns:xlink="http://www.w3.org/1999/xlink" x="0px" y="0px"
	 viewBox="0 0 24 24" style="enable-background:new 0 0 24 24;" xml:space="preserve">
<g>
	<path d="M20.6,1.9H3.4c-1.2,0-2.2,1-2.2,2.2v12c0,1.2,1,2.2,2.2,2.2H8l-0.9,2.4H5.5c-0.4,0-0.7,0.3-0.7,0.7s0.3,0.7,0.7,0.7h12.9
		c0.4,0,0.7-0.3,0.7-0.7s-0.3-0.7-0.7-0.7h-1.6L16,18.3h4.6c1.2,0,2.2-1,2.2-2.2v-12C22.8,2.9,21.8,1.9,20.6,1.9z M2.6,4.1
		c0-0.4,0.3-0.7,0.7-0.7h17.3c0.4,0,0.7,0.3,0.7,0.7v12c0,0.4-0.3,0.7-0.7,0.7H3.4c-0.4,0-0.7-0.3-0.7-0.7V4.1z M11.4,19.9h1.1
		l0.3,0.7h-1.8L11.4,19.9z M14.6,20.6l-0.9-1.8c-0.1-0.2-0.4-0.4-0.7-0.4H11c-0.3,0-0.5,0.2-0.7,0.4l-0.9,1.8H8.7l0.9-2.4h4.9
		l0.9,2.4H14.6z"/>
	<path d="M7.9,15.7c0.1,0,0.2,0,0.3,0h7.6c0.1,0,0.2,0,0.3,0c0.8-0.2,1.4-1,1.2-1.8l-1-5.2c-0.1-0.7-0.8-1.3-1.5-1.3V7.2
		c0-1.5-1.2-2.8-2.8-2.8S9.2,5.7,9.2,7.2v0.2C8.5,7.4,7.8,8,7.7,8.7l-1,5.2C6.5,14.7,7.1,15.5,7.9,15.7z M9.8,9.9
		c0.3,0,0.6-0.3,0.6-0.6V8.6h3.1v0.6c0,0.3,0.3,0.6,0.6,0.6s0.6-0.3,0.6-0.6V8.6c0.2,0,0.3,0.1,0.3,0.3l1,5.2c0,0,0,0,0,0.1v0
		c0,0.1,0,0.2-0.1,0.2c-0.1,0.1-0.2,0.1-0.2,0.1H8.2c0,0,0,0,0,0c-0.1,0-0.2,0-0.2-0.1s-0.1-0.1-0.1-0.2c0,0,0,0,0-0.1l1-5.2
		c0-0.2,0.2-0.3,0.3-0.3v0.6C9.2,9.6,9.5,9.9,9.8,9.9z M10.4,7.4V7.2c0-0.9,0.7-1.6,1.6-1.6s1.6,0.7,1.6,1.6v0.2H10.4z"/>
</g>
</svg>
