<?xml version="1.0" encoding="utf-8"?>
<!-- Generator: Adobe Illustrator 25.4.1, SVG Export Plug-In . SVG Version: 6.00 Build 0)  -->
<svg version="1.1" id="Layer_1" xmlns="http://www.w3.org/2000/svg" xmlns:xlink="http://www.w3.org/1999/xlink" x="0px" y="0px"
	 viewBox="0 0 24 24" style="enable-background:new 0 0 24 24;" xml:space="preserve">
<path d="M17.2,8.7V1.5c0-0.3-0.3-0.6-0.6-0.6H7.4c-0.3,0-0.6,0.3-0.6,0.6v7.2c0,2.1,1.3,4,3.2,4.8v6.3c-0.8,0.3-1.5,1.2-1.9,1.8
	L8,21.7C7.9,21.8,7.8,22,7.7,22c-0.2,0.2-0.2,0.4-0.1,0.7c0.1,0.2,0.3,0.4,0.6,0.4l7.7,0c0.3,0,0.5-0.2,0.6-0.4
	c0.1-0.2,0-0.5-0.1-0.7c-0.1-0.1-0.1-0.2-0.2-0.3l0,0c-0.5-0.6-1.2-1.5-2.1-1.9v-6.2C15.9,12.8,17.2,10.9,17.2,8.7z M11.8,7.2
	l-0.1,0c-0.5,0.2-1,0.4-1.4,0.4C9.4,7.6,8.5,7.1,8,6.9V2.1H16v4.4c-0.7,0-1.7,0-2.9,0.2C12.6,6.9,12.2,7,11.8,7.2z M12.3,8.4
	c0.4-0.2,0.7-0.3,1-0.3c1.1-0.2,2-0.2,2.7-0.2v0.9c0,2.2-1.8,4-4,4c-2.2,0-4-1.8-4-4V8.3c0.8,0.4,1.5,0.6,2.2,0.6l0.1,0
	C11,8.9,11.7,8.6,12.3,8.4z M10.7,20.9c0.3,0,0.6-0.3,0.6-0.6v-6.4c0.5,0.1,0.9,0.1,1.4,0v6.4c0,0.3,0.3,0.6,0.6,0.6
	c0.3,0,0.7,0.3,1.3,0.9l-5,0C9.7,21.5,10.3,20.9,10.7,20.9z"/>
</svg>
