<?xml version="1.0" encoding="utf-8"?>
<!-- Generator: Adobe Illustrator 25.4.1, SVG Export Plug-In . SVG Version: 6.00 Build 0)  -->
<svg version="1.1" id="Layer_1" xmlns="http://www.w3.org/2000/svg" xmlns:xlink="http://www.w3.org/1999/xlink" x="0px" y="0px"
	 viewBox="0 0 24 24" style="enable-background:new 0 0 24 24;" xml:space="preserve">
<g>
	<g>
		<path d="M4,13h12.5c0.5,0,1-0.4,1-1s-0.4-1-1-1H4l1.7-1.8c0.4-0.4,0.4-1,0-1.3c-0.4-0.4-1-0.4-1.2,0l-3.3,3.4c0,0,0,0,0,0.1l0,0
			l0,0c0,0-0.1,0.1-0.1,0.2v0.1l0,0l0,0v0.1l0,0l0,0v0.1l0,0l0,0V12l0,0c0,0.1,0.1,0.1,0.1,0.2l0,0l0,0l3.3,3.5
			C4.6,15.9,4.8,16,5.1,16c0.2,0,0.5-0.1,0.7-0.3C6,15.5,6.1,15.3,6.1,15S6,14.5,5.8,14.3L4,13z"/>
	</g>
	<g>
		<path d="M22,21.1H8.4c-0.5,0-0.9-0.4-0.9-0.9v-2.6c0-0.5,0.4-0.9,0.9-0.9s0.9,0.4,0.9,0.9v1.7h11.8V4.7H9.3v1.9
			c0,0.5-0.4,0.9-0.9,0.9S7.5,7.2,7.5,6.7V3.8c0-0.5,0.4-0.9,0.9-0.9H22c0.5,0,0.9,0.4,0.9,0.9v16.4C22.9,20.7,22.5,21.1,22,21.1z"
			/>
	</g>
</g>
</svg>
