<?xml version="1.0" encoding="utf-8"?>
<!-- Generator: Adobe Illustrator 25.4.1, SVG Export Plug-In . SVG Version: 6.00 Build 0)  -->
<svg version="1.1" id="Layer_1" xmlns="http://www.w3.org/2000/svg" xmlns:xlink="http://www.w3.org/1999/xlink" x="0px" y="0px"
	 viewBox="0 0 24 24" style="enable-background:new 0 0 24 24;" xml:space="preserve">
<path d="M12,1.3C6,1.3,1.3,6,1.3,12c0,2.9,1.2,5.8,3.2,7.7c1.1,1,2.5,1.8,3.8,2.3c0.8,0.3,2,0.5,3.4,0.5c1.1,0,2.3-0.1,3.5-0.4
	c2.6-0.7,4.6-2.8,5-3.2c1.6-1.9,2.5-4.4,2.5-6.9C22.7,6,18,1.3,12,1.3z M14,20.5L14,20.5c-0.7,0.2-1.4,0.2-2,0.2h-0.5l0.8-4.9
	L14,20.5z M11.1,11.9l-1.4,8.5l-0.1,0c-3.8-1.1-6.4-4.4-6.4-8.4c0-4.4,3.3-8.2,7.8-8.8h0.1L11.1,11.9z M20.7,13
	c-0.3,3-2.1,5.5-4.7,6.8l-0.1,0l-2.5-6.9L20.7,13L20.7,13z M20.8,11L20.8,11L13,11.1V3.3l0.1,0C17.1,3.8,20.3,7,20.8,11z"/>
</svg>
