<?xml version="1.0" encoding="utf-8"?>
<!-- Generator: Adobe Illustrator 25.4.1, SVG Export Plug-In . SVG Version: 6.00 Build 0)  -->
<svg version="1.1" id="Layer_1" xmlns="http://www.w3.org/2000/svg" xmlns:xlink="http://www.w3.org/1999/xlink" x="0px" y="0px"
	 viewBox="0 0 24 24" style="enable-background:new 0 0 24 24;" xml:space="preserve">
<path d="M21.6,14.7L18.4,1.4C18.3,1.2,18.1,1,17.9,1H6.1C5.9,1,5.7,1.2,5.6,1.4L2.4,14.7c0,0.2,0,0.3,0.1,0.4
	c0.1,0.1,0.2,0.2,0.4,0.2h4.6c-0.1,0.6-0.2,1.2-0.2,1.7c0,1.3,0.3,2.6,1,3.7c0.4,0.6,1.2,1.5,1.3,1.6c0.7,0.6,1,0.7,2.2,0.7h0.1
	c1.7,0,2-0.2,2.4-0.6l0.1-0.1c0.1-0.1,1.1-1.2,1.5-1.9c0.6-1,0.8-2.2,0.8-3.4c0-0.6-0.1-1.2-0.2-1.7h1.8v3h-0.2
	c-0.3,0-0.5,0.2-0.5,0.5v2.2c0,0.3,0.2,0.5,0.5,0.5h2.2c0.3,0,0.5-0.2,0.5-0.5v-2.2c0-0.3-0.2-0.5-0.5-0.5H20v-3h1.1
	c0.2,0,0.3-0.1,0.4-0.2C21.6,15,21.6,14.8,21.6,14.7z M12,21.3c-1.6,0-3-2-3-4.4c0-0.6,0.1-1.1,0.3-1.7h5.4c0.2,0.5,0.2,1.1,0.2,1.6
	C15,19.3,13.6,21.3,12,21.3z M19.6,13.6H4.4L7.1,2.7h9.9L19.6,13.6z"/>
</svg>
