<?xml version="1.0" encoding="utf-8"?>
<!-- Generator: Adobe Illustrator 25.4.1, SVG Export Plug-In . SVG Version: 6.00 Build 0)  -->
<svg version="1.1" id="Layer_1" xmlns="http://www.w3.org/2000/svg" xmlns:xlink="http://www.w3.org/1999/xlink" x="0px" y="0px"
	 viewBox="0 0 24 24" style="enable-background:new 0 0 24 24;" xml:space="preserve">
<g>
	<path d="M10,8.7V6.6c0.4,0.1,0.7,0.4,0.8,0.8c0,0.2,0.1,0.3,0.3,0.4c0.1,0.1,0.3,0.1,0.5,0.1c0.2,0,0.3-0.1,0.4-0.3
		s0.1-0.3,0.1-0.5c-0.3-1-1.1-1.7-2.1-1.8V5.2c0-0.4-0.3-0.7-0.7-0.7S8.7,4.8,8.7,5.2v0.1c-1.2,0.2-2,1.1-2.1,2.3c0,0.2,0,0.3,0,0.5
		c0.3,1,1.1,1.7,2.1,1.9v2.2c-0.4-0.1-0.7-0.4-0.8-0.8c-0.1-0.4-0.4-0.6-0.8-0.6c-0.3,0.1-0.6,0.4-0.5,0.8c0.3,1,1.1,1.7,2.1,1.8
		v0.1c0,0.4,0.3,0.7,0.7,0.7s0.7-0.3,0.7-0.7v-0.1c1-0.2,1.8-0.9,2-1.8c0-0.2,0.1-0.3,0.1-0.5C12.1,9.9,11.2,8.9,10,8.7z M10.8,11.3
		c-0.1,0.4-0.4,0.7-0.8,0.8v-2c0.4,0.1,0.8,0.5,0.8,1C10.8,11.2,10.8,11.3,10.8,11.3z M7.9,7.8c0-0.1,0-0.1,0-0.2
		c0.1-0.5,0.4-0.8,0.8-1v2C8.3,8.5,8,8.2,7.9,7.8L7.9,7.8z"/>
	<path d="M22,18.6l-2.8-2.9c-0.6-0.6-1.6-0.7-2.3-0.2l-1-1c1.3-1.6,1.9-3.7,1.8-5.7c-0.1-2.2-1.1-4.2-2.8-5.7
		C11.4,0.2,6.2,0.5,3.2,4c-1.5,1.7-2.2,3.8-2,6c0.1,2.2,1.1,4.2,2.8,5.7c3,2.6,7.5,2.7,10.6,0.2l1,1c-0.5,0.7-0.4,1.7,0.2,2.3
		l2.8,2.8c0.6,0.6,1.3,0.9,2.1,0.9h0.2c1.1,0,1.9-0.9,1.9-1.9v-0.2C22.9,20,22.6,19.2,22,18.6z M9.4,2.9c3.6,0,6.5,2.9,6.5,6.5
		s-2.9,6.5-6.5,6.5c-3.6,0-6.4-2.9-6.5-6.5C2.9,5.8,5.8,2.9,9.4,2.9z M21.1,20.8v0.2c0,0.1-0.1,0.1-0.2,0.1h-0.2
		c-0.3,0-0.6-0.1-0.9-0.4l-2.8-2.8c-0.1-0.1-0.1-0.2,0-0.2l0.6-0.6c0,0,0.1,0,0.1,0c0,0,0.1,0,0.1,0l2.8,2.8
		C20.9,20.1,21.1,20.4,21.1,20.8z"/>
</g>
</svg>
