<?xml version="1.0" encoding="utf-8"?>
<!-- Generator: Adobe Illustrator 25.4.1, SVG Export Plug-In . SVG Version: 6.00 Build 0)  -->
<svg version="1.1" id="Layer_1" xmlns="http://www.w3.org/2000/svg" xmlns:xlink="http://www.w3.org/1999/xlink" x="0px" y="0px"
	 viewBox="0 0 24 24" style="enable-background:new 0 0 24 24;" xml:space="preserve">
<g>
	<path d="M17.5,1.4h-11c-1.2,0-2.1,1-2.1,2.1v17c0,1.2,1,2.1,2.1,2.1h11c1.2,0,2.1-1,2.1-2.1v-17C19.6,2.3,18.7,1.4,17.5,1.4z
		 M6,14.8V3.5C6,3.2,6.2,3,6.5,3h11C17.8,3,18,3.2,18,3.5v11.3H6z M18,20.5c0,0.3-0.2,0.5-0.5,0.5h-11C6.2,21,6,20.8,6,20.5v-4.1H18
		V20.5z"/>
	<path d="M12,20.4c0.9,0,1.6-0.7,1.6-1.6c0-0.9-0.7-1.6-1.6-1.6s-1.6,0.7-1.6,1.6C10.4,19.6,11.1,20.4,12,20.4z M11.6,18.7
		c0-0.2,0.2-0.4,0.4-0.4c0.2,0,0.4,0.2,0.4,0.4c0,0.2-0.2,0.4-0.4,0.4C11.8,19.1,11.6,18.9,11.6,18.7z"/>
	<path d="M15.2,7.5c-0.1-0.5-0.5-1-1.1-1v0c0-1.2-0.9-2.1-2.1-2.1c-1.2,0-2.1,0.9-2.1,2.1v0c-0.5,0.1-1,0.5-1.1,1l-0.7,3.7
		c-0.2,0.6,0.3,1.3,0.9,1.4l5.6,0l0.2,0c0.7-0.2,1.1-0.8,0.9-1.4L15.2,7.5z M11,6.5c0-0.6,0.4-1,1-1s1,0.4,1,1v0L11,6.5L11,6.5z
		 M14.7,11.4C14.7,11.4,14.7,11.4,14.7,11.4L14.7,11.4C14.6,11.5,14.6,11.5,14.7,11.4l-5.4,0.1c0,0,0,0,0,0c0-0.1,0-0.1-0.1-0.1l0,0
		l0.7-3.5v0c0,0.3,0.3,0.6,0.5,0.6C10.7,8.5,11,8.2,11,8V7.6h1.9v0.3c0,0.3,0.3,0.5,0.5,0.5S14,8.2,14,7.9L14.7,11.4L14.7,11.4z"/>
</g>
</svg>
