<?xml version="1.0" encoding="utf-8"?>
<!-- Generator: Adobe Illustrator 25.4.1, SVG Export Plug-In . SVG Version: 6.00 Build 0)  -->
<svg version="1.1" id="Layer_1" xmlns="http://www.w3.org/2000/svg" xmlns:xlink="http://www.w3.org/1999/xlink" x="0px" y="0px"
	 viewBox="0 0 24 24" style="enable-background:new 0 0 24 24;" xml:space="preserve">
<g>
	<path d="M21.7,10.7l-0.6,0C20.7,9,19.6,7.6,18,6.8C18,6,18.3,5.4,18.7,4.2c0.1-0.3,0-0.7-0.2-0.9C18.3,3.1,17.9,3,17.6,3
		C16,3.4,14.8,4.3,14,5.6c-0.4-0.1-0.7-0.1-1.2-0.2c-0.2-2-2-3.6-4-3.6c-2.2,0-4,1.8-4,4c0,0.5,0.1,1,0.3,1.5l0,0
		C5.1,7.5,5,7.5,4.9,7.6C4.1,8.2,3.5,9.1,3,10c-0.3-0.2-0.6-0.5-0.6-1c0-0.3,0.2-0.6,0.4-0.7c0.5-0.2,0.7-0.7,0.5-1.2
		C3.2,6.9,3,6.8,2.8,6.7c-0.2-0.1-0.5-0.1-0.7,0C1.2,7.1,0.6,8,0.6,9.1c0,1.7,1.3,2.4,1.9,2.7c-0.1,0.7-0.2,1.4-0.1,2.1
		c0.1,2.3,1.7,4,2.7,4.8c-0.1,0.2-0.2,0.5-0.4,0.9l0,0c-0.3,0.9,0.1,1.9,1,2.2l1.5,0.6c0.2,0.1,0.4,0.1,0.6,0.1
		c0.2,0,0.5-0.1,0.7-0.2c0.4-0.2,0.7-0.5,0.9-1l0.3-0.7c0.4,0.1,1,0.2,1.9,0.2c0.9,0,1.5-0.1,1.8-0.1l0.1,0c0.1,0.2,0.2,0.5,0.2,0.6
		l0,0c0.2,0.4,0.5,0.8,0.9,1c0.4,0.2,0.9,0.2,1.3,0l1.5-0.6c0.4-0.2,0.8-0.5,1-0.9c0.2-0.4,0.2-0.9,0-1.3l-0.1-0.4
		c1.1-0.7,2-1.6,2.6-2.8c0,0,0,0,0,0h0.7c0.9,0,1.7-0.8,1.7-1.7v-2.3C23.4,11.4,22.6,10.7,21.7,10.7z M8.9,3.7c1,0,1.9,0.7,2.1,1.7
		c-1.6,0.1-3,0.4-4.3,1C6.7,6.3,6.7,6.1,6.7,5.9C6.7,4.7,7.7,3.7,8.9,3.7z M16.7,19.6l0.2,0.5l-1.4,0.5c-0.1-0.1-0.2-0.5-0.3-0.8
		c-0.4-1.1-1.3-1-1.9-0.9c-0.4,0-0.9,0.1-1.6,0.1c-0.8,0-1.3-0.1-1.6-0.2c-0.5-0.1-1.4-0.3-1.9,0.9l-0.3,0.9l-1.4-0.5
		c0.1-0.2,0.3-0.7,0.4-1.1c0.2-0.7,0-1.3-0.6-1.8c-0.8-0.6-2-1.9-2.1-3.5C4.1,11.7,4.7,10,6,9c1.6-1.2,3.4-1.8,5.6-1.8
		c0.9,0,1.8,0.1,2.6,0.3c0.4,0.1,0.9-0.1,1-0.5c0.3-0.6,0.6-1,1.1-1.4c-0.1,0.6-0.2,1.2-0.2,1.8c0,0.4,0.2,0.7,0.6,0.8
		c2.1,0.7,2.5,2.4,2.7,3.1c0.1,0.6,0.6,1.1,1.5,1.1h0.7l0,2.1h-0.6c-1.1,0-1.5,0.8-1.6,1.1c-0.5,0.9-1.1,1.7-2,2.2
		c-0.5,0.3-0.7,0.6-0.8,0.9C16.5,19.1,16.6,19.5,16.7,19.6z"/>
	<path d="M17.5,13.1c0.3,0,0.6-0.1,0.8-0.3c0.2-0.2,0.3-0.5,0.3-0.8c0-0.6-0.5-1.1-1.1-1.1c-0.6,0-1.1,0.5-1.1,1.1
		C16.4,12.6,16.9,13.1,17.5,13.1z"/>
</g>
</svg>
