<?xml version="1.0" encoding="utf-8"?>
<!-- Generator: Adobe Illustrator 25.4.1, SVG Export Plug-In . SVG Version: 6.00 Build 0)  -->
<svg version="1.1" id="Layer_1" xmlns="http://www.w3.org/2000/svg" xmlns:xlink="http://www.w3.org/1999/xlink" x="0px" y="0px"
	 viewBox="0 0 24 24" style="enable-background:new 0 0 24 24;" xml:space="preserve">
<g id="Layer_2_00000054254589221245244250000003344062211351807679_">
	<path d="M21.8,8.5h-7V7.8c0-0.4-0.3-0.7-0.7-0.7c-0.4,0-0.7,0.3-0.7,0.7v0.7h-0.7V5.3c0-0.2,0.2-0.3,0.4-0.3s0.3,0.2,0.3,0.3v0.3
		c0,0.4,0.3,0.7,0.7,0.7c0.4,0,0.7-0.3,0.7-0.7V5.3c0-1-0.8-1.8-1.8-1.8s-1.8,0.8-1.8,1.8v3.2h-0.7V7.8c0-0.4-0.3-0.7-0.7-0.7
		c-0.4,0-0.7,0.3-0.7,0.7v0.7h-7c-0.4,0-0.7,0.3-0.7,0.7v2.1c0,0.4,0.3,0.7,0.7,0.7v7.7c0,0.4,0.3,0.7,0.7,0.7h18.2
		c0.4,0,0.7-0.3,0.7-0.7V12c0.4,0,0.7-0.3,0.7-0.7V9.2C22.5,8.8,22.2,8.5,21.8,8.5z M2.9,9.9h18.2v0.7H2.9V9.9z M3.6,12h7.7v7H3.6
		V12z M20.4,19h-7.7v-7h7.7V19z"/>
	<path d="M9.9,13.4c-0.4,0-0.7,0.3-0.7,0.7v1.4c0,0.4,0.3,0.7,0.7,0.7c0.4,0,0.7-0.3,0.7-0.7v-1.4C10.6,13.7,10.3,13.4,9.9,13.4z"/>
	<path d="M14.1,16.2c0.4,0,0.7-0.3,0.7-0.7v-1.4c0-0.4-0.3-0.7-0.7-0.7c-0.4,0-0.7,0.3-0.7,0.7v1.4C13.4,15.9,13.7,16.2,14.1,16.2z"
		/>
</g>
</svg>
