<?xml version="1.0" encoding="utf-8"?>
<!-- Generator: Adobe Illustrator 25.4.1, SVG Export Plug-In . SVG Version: 6.00 Build 0)  -->
<svg version="1.1" id="Layer_1" xmlns="http://www.w3.org/2000/svg" xmlns:xlink="http://www.w3.org/1999/xlink" x="0px" y="0px"
	 viewBox="0 0 24 24" style="enable-background:new 0 0 24 24;" xml:space="preserve">
<g>
	<path d="M21.9,13.9c0.4-0.5,1-1.1,1-1.9c0-0.8-0.6-1.4-1-1.9c-0.2-0.2-0.5-0.5-0.5-0.6c0-0.1,0-0.5,0.1-0.8
		c0.1-0.6,0.3-1.4-0.1-2.1c-0.4-0.7-1.2-0.9-1.9-1.1c-0.2-0.1-0.6-0.2-0.7-0.3c-0.1-0.1-0.2-0.5-0.3-0.8c-0.2-0.6-0.4-1.4-1.1-1.8
		c-0.6-0.4-1.5-0.2-2.1-0.1c-0.4,0.1-0.8,0.1-0.8,0.1c-0.1,0-0.4-0.3-0.6-0.5c-0.5-0.4-1.1-1-1.9-1c-0.8,0-1.4,0.6-1.9,1
		C9.9,2.3,9.6,2.5,9.5,2.6c0,0,0,0-0.1,0c-0.2,0-0.5-0.1-0.8-0.1C7.6,2.2,7,2.3,6.5,2.5C5.8,2.9,5.6,3.7,5.4,4.4
		C5.3,4.6,5.2,5,5.1,5.1C5,5.2,4.5,5.3,4.3,5.4C3.7,5.6,2.9,5.8,2.5,6.5C2.1,7.2,2.3,8,2.5,8.7c0.1,0.3,0.2,0.7,0.1,0.8
		c0,0.1-0.3,0.4-0.5,0.6c-0.4,0.5-1,1.1-1,1.9c0,0.8,0.6,1.4,1,1.9c0.2,0.2,0.5,0.5,0.5,0.6c0,0.1,0,0.5-0.1,0.8
		c-0.1,0.6-0.3,1.4,0.1,2.1c0.4,0.7,1.2,0.9,1.8,1.1c0.2,0.1,0.6,0.2,0.7,0.3c0.1,0.1,0.2,0.6,0.3,0.8c0.2,0.6,0.4,1.4,1.1,1.8
		c0.5,0.3,1.1,0.3,2.1,0.1c0.6-0.1,0.8-0.1,0.8-0.1c0.1,0,0.4,0.3,0.6,0.5c0.5,0.4,1.1,1,1.9,1c0.8,0,1.4-0.6,1.9-1
		c0.2-0.2,0.5-0.5,0.6-0.5c0,0,0,0,0.1,0c0.2,0,0.5,0.1,0.8,0.1c0.9,0.2,1.6,0.2,2.1-0.1c0.7-0.4,0.9-1.2,1.1-1.9
		c0.1-0.2,0.2-0.6,0.3-0.7c0.1-0.1,0.5-0.2,0.8-0.3c0.6-0.2,1.4-0.4,1.8-1.1c0.4-0.7,0.2-1.5,0.1-2.1c-0.1-0.3-0.2-0.7-0.1-0.8
		C21.5,14.4,21.8,14.1,21.9,13.9z M19.8,15.8c0.1,0.5,0.1,0.7,0.1,0.8c-0.1,0.1-0.6,0.2-0.8,0.3c-0.5,0.2-1.1,0.3-1.5,0.8
		c-0.4,0.4-0.6,1-0.8,1.6c0,0.2-0.2,0.6-0.3,0.7c0,0,0,0,0,0c-0.1,0-0.5,0-0.8-0.1c-0.6-0.1-1.2-0.2-1.7-0.1c-0.6,0.2-1,0.6-1.4,0.9
		c-0.1,0.1-0.6,0.5-0.7,0.5c-0.1,0-0.5-0.4-0.7-0.5c-0.4-0.4-0.8-0.8-1.4-0.9c-0.2,0-0.4-0.1-0.6-0.1c-0.4,0-0.8,0.1-1.2,0.2
		c-0.3,0.1-0.5,0.1-0.7,0.1c0,0-0.1,0-0.1,0c-0.1-0.1-0.3-0.6-0.3-0.8c-0.2-0.5-0.3-1.1-0.8-1.5c-0.4-0.4-1-0.6-1.6-0.8
		c-0.2-0.1-0.7-0.2-0.7-0.3c0-0.1,0.1-0.6,0.1-0.9c0.1-0.5,0.2-1.1,0.1-1.7c-0.2-0.6-0.6-1-0.9-1.4C3,12.3,2.8,12.1,2.8,12
		c0-0.1,0.4-0.5,0.5-0.7c0.4-0.4,0.8-0.8,0.9-1.4c0.2-0.6,0-1.2-0.1-1.7C4.1,8,4,7.5,4.1,7.4c0.1-0.1,0.6-0.3,0.8-0.3
		C5.3,7,5.9,6.8,6.4,6.4c0.4-0.4,0.6-1,0.8-1.5c0.1-0.2,0.2-0.7,0.3-0.7c0,0,0,0,0,0c0.1,0,0.5,0,0.9,0.1c0.5,0.1,1.1,0.2,1.7,0.1
		c0.6-0.2,1-0.6,1.4-0.9c0.1-0.1,0.6-0.5,0.7-0.5c0.1,0,0.5,0.4,0.7,0.5c0.4,0.4,0.8,0.8,1.4,0.9c0.5,0.1,1,0,1.7-0.1
		c0.3-0.1,0.5-0.1,0.7-0.1c0,0,0.1,0,0.1,0c0.1,0.1,0.2,0.6,0.3,0.8c0.2,0.5,0.3,1.1,0.8,1.5c0.4,0.4,1,0.6,1.5,0.8
		c0.2,0.1,0.7,0.2,0.8,0.3c0,0.1-0.1,0.7-0.1,0.9c-0.1,0.5-0.2,1.1-0.1,1.7c0.2,0.6,0.6,1,0.9,1.4c0.1,0.1,0.5,0.6,0.5,0.7
		c0,0.1-0.4,0.5-0.5,0.7c-0.4,0.4-0.8,0.8-0.9,1.4C19.6,14.6,19.7,15.2,19.8,15.8z"/>
	<path d="M8.6,11C9.9,11,11,9.9,11,8.6S9.9,6.3,8.6,6.3S6.3,7.3,6.3,8.6S7.3,11,8.6,11z M7.7,8.6c0-0.5,0.4-1,1-1s1,0.4,1,1
		s-0.4,1-1,1S7.7,9.2,7.7,8.6z"/>
	<path d="M15.4,13c-1.3,0-2.4,1.1-2.4,2.4c0,1.3,1.1,2.4,2.4,2.4s2.4-1.1,2.4-2.4C17.7,14.1,16.7,13,15.4,13z M16.3,15.4
		c0,0.5-0.4,1-1,1s-1-0.4-1-1s0.4-1,1-1S16.3,14.8,16.3,15.4z"/>
	<path d="M17.1,6.9L17.1,6.9c-0.3-0.3-0.7-0.3-1,0l-9.2,9.2c-0.3,0.3-0.3,0.7,0,1c0.1,0.1,0.3,0.2,0.5,0.2s0.4-0.1,0.5-0.2l9.2-9.2
		C17.3,7.6,17.3,7.2,17.1,6.9z"/>
</g>
</svg>
