<?xml version="1.0" encoding="utf-8"?>
<!-- Generator: Adobe Illustrator 25.4.1, SVG Export Plug-In . SVG Version: 6.00 Build 0)  -->
<svg version="1.1" id="Layer_1" xmlns="http://www.w3.org/2000/svg" xmlns:xlink="http://www.w3.org/1999/xlink" x="0px" y="0px"
	 viewBox="0 0 24 24" style="enable-background:new 0 0 24 24;" xml:space="preserve">
<path d="M22.5,3.8h-5.3V3.7c0-0.6-0.3-1-0.7-1s-0.7,0.4-0.7,1v0.1H8.3V3.7c0-0.6-0.3-1-0.7-1c-0.4,0-0.7,0.4-0.7,1v0.1H1.5
	C1.3,3.8,1.1,4,1.1,4.2v0.7c0,0.2,0.2,0.4,0.4,0.4h5.3v0.9c0,0-0.1,0-0.1,0L3,7.3c-0.2,0-0.3,0.2-0.3,0.4v4.4c0,0.1,0.1,0.2,0.2,0.3
	c0.1,0,0.1,0.1,0.2,0.1c0,0,0.1,0,0.1,0l2.5-0.8V21c0,0.2,0.2,0.4,0.4,0.4h11.8c0.2,0,0.4-0.2,0.4-0.4v-9.3l2.5,0.8c0,0,0.1,0,0.1,0
	c0.1,0,0.2,0,0.2-0.1c0.1-0.1,0.2-0.2,0.2-0.3V7.7c0-0.2-0.1-0.3-0.3-0.4l-3.7-1.2c0,0-0.1,0-0.1,0V5.2h5.3c0.2,0,0.4-0.2,0.4-0.4
	V4.2C22.9,4,22.7,3.8,22.5,3.8z M4.2,8.4L5.7,8v2.2l-1.5,0.5V8.4z M7.2,10.9V7.8c0,0,0,0,0,0c0,0,0.1,0,0.1,0c0,0,0.1,0,0.2,0
	c0,0,0.1,0,0.1,0c0,0,0,0,0,0c0.1,0,0.1,0,0.2,0c0,0,0.1,0,0.1,0c0,0,0.1,0,0.1-0.1c0.8,1.8,2.9,2.8,5,2.3c1.4-0.3,2.5-1.2,3-2.3
	c0,0,0.1,0,0.1,0.1c0,0,0.1,0,0.1,0c0.1,0,0.1,0,0.2,0c0,0,0,0,0,0c0,0,0.1,0,0.1,0c0,0,0.1,0,0.1,0c0,0,0.1,0,0.1,0c0,0,0,0,0,0
	v3.1v9H7.2V10.9z M15.1,6.1c-0.2,0-0.4,0.2-0.4,0.3c-0.1,1.3-1.4,2.3-2.9,2.3c-1.4-0.1-2.5-1-2.6-2.3c0-0.2-0.2-0.4-0.4-0.4H8.3V5.2
	h7.4v0.9H15.1z M19.8,8.4v2.2l-1.5-0.5V8L19.8,8.4z"/>
</svg>
