<?xml version="1.0" encoding="utf-8"?>
<!-- Generator: Adobe Illustrator 25.4.1, SVG Export Plug-In . SVG Version: 6.00 Build 0)  -->
<svg version="1.1" id="Layer_1" xmlns="http://www.w3.org/2000/svg" xmlns:xlink="http://www.w3.org/1999/xlink" x="0px" y="0px"
	 viewBox="0 0 24 24" style="enable-background:new 0 0 24 24;" xml:space="preserve">
<path d="M19.4,8.7c-0.5-1.5-2-2.7-3.8-3.1c-0.4,0-0.8-0.2-1-0.6c-0.2-0.3-0.3-0.6-0.3-1c0-0.4,0.2-0.7,0.5-1
	c0.3-0.3,0.7-0.4,1.1-0.3c0.2,0,0.5,0,0.7-0.3C16.9,2.3,17,2.1,17,1.8c0-0.3,0-0.4-0.3-0.7c-0.3-0.3-0.6-0.3-0.8-0.3H8.1
	c-0.5,0-0.9,0.4-0.9,0.9c0,0.2,0.1,0.4,0.2,0.5c0,0,0,0.1,0.1,0.1l0,0.1l0.1,0C7.9,2.6,8,2.6,8.3,2.6c0.8,0,1.5,0.5,1.6,1.3
	C9.9,4.4,9.7,4.7,9.6,5c-0.3,0.4-0.6,0.6-1,0.6C6.8,6,5.4,7.1,4.8,8.7C3,13.4,4,18.8,7.3,22.8C7.4,22.9,7.6,23,7.9,23h8.2
	c0.3,0,0.6-0.1,0.7-0.3C20.1,18.9,21.1,13.6,19.4,8.7z M11.6,3.8c-0.1-0.4-0.1-0.7-0.3-1h1.5c-0.2,0.5-0.3,0.9-0.3,1.3
	c-0.1,1.8,1.1,3.2,2.8,3.5c1.1,0.2,2,0.9,2.3,1.8c1.4,4,0.7,8.6-1.9,12H8.4c-2.6-3.4-3.3-8-1.9-12c0.4-1.1,1.2-1.8,2.3-1.8
	C9.7,7.4,10.5,7,11,6.3C11.5,5.6,11.8,4.7,11.6,3.8z"/>
</svg>
