<?xml version="1.0" encoding="UTF-8" standalone="no"?>
<!-- Created with Inkscape (http://www.inkscape.org/) -->

<svg
   version="1.1"
   id="svg2"
   width="28"
   height="28"
   viewBox="0 0 28 28"
   sodipodi:docname="afroman.eps"
   xmlns:inkscape="http://www.inkscape.org/namespaces/inkscape"
   xmlns:sodipodi="http://sodipodi.sourceforge.net/DTD/sodipodi-0.dtd"
   xmlns="http://www.w3.org/2000/svg"
   xmlns:svg="http://www.w3.org/2000/svg">
  <defs
     id="defs6">
    <clipPath
       clipPathUnits="userSpaceOnUse"
       id="clipPath18">
      <path
         d="M 210,105 C 210,47.0117 162.988,0 105,0 47.0117,0 0,47.0117 0,105 c 0,57.988 47.0117,105 105,105 57.988,0 105,-47.012 105,-105"
         id="path16" />
    </clipPath>
    <clipPath
       clipPathUnits="userSpaceOnUse"
       id="clipPath70">
      <path
         d="M 210,105 C 210,47.0117 162.988,0 105,0 47.0117,0 0,47.0117 0,105 c 0,57.988 47.0117,105 105,105 57.988,0 105,-47.012 105,-105"
         id="path68" />
    </clipPath>
    <clipPath
       clipPathUnits="userSpaceOnUse"
       id="clipPath76">
      <path
         d="m 110.676,90.4141 v 0 c 0.859,0.2304 1.703,0.457 2.558,0.6328 1.954,0.1523 3.036,0.3047 3.036,0.3047 v 0 0 l -5.594,-0.9375 m 0.898,0.5156 c 0.649,0.2891 1.641,0.5937 2.946,0.5937 0.531,0 1.117,-0.0507 1.75,-0.1718 -0.082,0 -0.161,0 -0.239,0 -0.965,0 -1.886,-0.1211 -2.797,-0.3047 -0.496,-0.0391 -1.05,-0.0781 -1.66,-0.1172"
         id="path74" />
    </clipPath>
    <linearGradient
       x1="0"
       y1="0"
       x2="1"
       y2="0"
       gradientUnits="userSpaceOnUse"
       gradientTransform="matrix(5.59296,0,0,-5.59296,110.675,90.968)"
       spreadMethod="pad"
       id="linearGradient86">
      <stop
         style="stop-opacity:1;stop-color:#431b1b"
         offset="0"
         id="stop78" />
      <stop
         style="stop-opacity:1;stop-color:#431b1b"
         offset="0.0159875"
         id="stop80" />
      <stop
         style="stop-opacity:1;stop-color:#4e201c"
         offset="0.994413"
         id="stop82" />
      <stop
         style="stop-opacity:1;stop-color:#4e201c"
         offset="1"
         id="stop84" />
    </linearGradient>
    <clipPath
       clipPathUnits="userSpaceOnUse"
       id="clipPath96">
      <path
         d="M 210,105 C 210,47.0117 162.988,0 105,0 47.0117,0 0,47.0117 0,105 c 0,57.988 47.0117,105 105,105 57.988,0 105,-47.012 105,-105"
         id="path94" />
    </clipPath>
    <clipPath
       clipPathUnits="userSpaceOnUse"
       id="clipPath102">
      <path
         d="m 110.676,90.4141 c 0.004,0.0039 0.312,0.2539 0.898,0.5156 0.61,0.0391 1.164,0.0781 1.66,0.1172 -0.855,-0.1758 -1.699,-0.4024 -2.558,-0.6328 m 2.558,0.6328 c 0.911,0.1836 1.832,0.3047 2.797,0.3047 0.078,0 0.157,0 0.239,0 v 0 c 0,0 -1.082,-0.1524 -3.036,-0.3047"
         id="path100" />
    </clipPath>
    <linearGradient
       x1="0"
       y1="0"
       x2="1"
       y2="0"
       gradientUnits="userSpaceOnUse"
       gradientTransform="matrix(5.59296,0,0,-5.59296,110.675,90.968)"
       spreadMethod="pad"
       id="linearGradient112">
      <stop
         style="stop-opacity:1;stop-color:#341413"
         offset="0"
         id="stop104" />
      <stop
         style="stop-opacity:1;stop-color:#341413"
         offset="0.0159875"
         id="stop106" />
      <stop
         style="stop-opacity:1;stop-color:#3d1814"
         offset="0.994413"
         id="stop108" />
      <stop
         style="stop-opacity:1;stop-color:#3d1814"
         offset="1"
         id="stop110" />
    </linearGradient>
    <clipPath
       clipPathUnits="userSpaceOnUse"
       id="clipPath122">
      <path
         d="M 210,105 C 210,47.0117 162.988,0 105,0 47.0117,0 0,47.0117 0,105 c 0,57.988 47.0117,105 105,105 57.988,0 105,-47.012 105,-105"
         id="path120" />
    </clipPath>
    <clipPath
       clipPathUnits="userSpaceOnUse"
       id="clipPath128">
      <path
         d="m 98.5273,90.4648 -5.3867,0.8829 c 0.1172,-0.0196 1.1836,-0.1875 3.2188,-0.3438 0.7226,-0.1523 1.4414,-0.3437 2.1679,-0.5351 0,-0.004 0,-0.004 0,-0.004 m -0.8984,0.4532 c -0.457,0.0273 -0.8828,0.0586 -1.2695,0.0859 -0.9727,0.207 -1.9571,0.3477 -2.9922,0.3477 -0.082,0 -0.1602,0 -0.2383,0 v 0 c 0,0 0.5742,0.2187 1.5352,0.2187 0.7734,0 1.7929,-0.1406 2.9648,-0.6523 m -4.5,0.4336 v 0 0 0"
         id="path126" />
    </clipPath>
    <linearGradient
       x1="0"
       y1="0"
       x2="1"
       y2="0"
       gradientUnits="userSpaceOnUse"
       gradientTransform="matrix(5.39856,0,0,-5.39856,93.1277,91.018)"
       spreadMethod="pad"
       id="linearGradient138">
      <stop
         style="stop-opacity:1;stop-color:#431b1b"
         offset="0"
         id="stop130" />
      <stop
         style="stop-opacity:1;stop-color:#431b1b"
         offset="0.0159875"
         id="stop132" />
      <stop
         style="stop-opacity:1;stop-color:#4e201c"
         offset="0.994413"
         id="stop134" />
      <stop
         style="stop-opacity:1;stop-color:#4e201c"
         offset="1"
         id="stop136" />
    </linearGradient>
    <clipPath
       clipPathUnits="userSpaceOnUse"
       id="clipPath148">
      <path
         d="M 210,105 C 210,47.0117 162.988,0 105,0 47.0117,0 0,47.0117 0,105 c 0,57.988 47.0117,105 105,105 57.988,0 105,-47.012 105,-105"
         id="path146" />
    </clipPath>
    <clipPath
       clipPathUnits="userSpaceOnUse"
       id="clipPath154">
      <path
         d="m 98.5273,90.4688 c -0.7265,0.1914 -1.4453,0.3828 -2.1679,0.5351 0.3867,-0.0273 0.8125,-0.0586 1.2695,-0.0859 0.2891,-0.1289 0.5899,-0.2774 0.8984,-0.4492 m -2.1679,0.5351 c -2.0352,0.1563 -3.1016,0.3242 -3.2188,0.3438 l -0.0117,0.0039 v 0 0 c 0.0781,0 0.1563,0 0.2383,0 1.0351,0 2.0195,-0.1407 2.9922,-0.3477"
         id="path152" />
    </clipPath>
    <linearGradient
       x1="0"
       y1="0"
       x2="1"
       y2="0"
       gradientUnits="userSpaceOnUse"
       gradientTransform="matrix(5.39856,0,0,-5.39856,93.1277,91.018)"
       spreadMethod="pad"
       id="linearGradient164">
      <stop
         style="stop-opacity:1;stop-color:#341413"
         offset="0"
         id="stop156" />
      <stop
         style="stop-opacity:1;stop-color:#341413"
         offset="0.0159875"
         id="stop158" />
      <stop
         style="stop-opacity:1;stop-color:#3d1814"
         offset="0.994413"
         id="stop160" />
      <stop
         style="stop-opacity:1;stop-color:#3d1814"
         offset="1"
         id="stop162" />
    </linearGradient>
    <clipPath
       clipPathUnits="userSpaceOnUse"
       id="clipPath174">
      <path
         d="M 210,105 C 210,47.0117 162.988,0 105,0 47.0117,0 0,47.0117 0,105 c 0,57.988 47.0117,105 105,105 57.988,0 105,-47.012 105,-105"
         id="path172" />
    </clipPath>
    <clipPath
       clipPathUnits="userSpaceOnUse"
       id="clipPath204">
      <path
         d="M 210,105 C 210,47.0117 162.988,0 105,0 47.0117,0 0,47.0117 0,105 c 0,57.988 47.0117,105 105,105 57.988,0 105,-47.012 105,-105"
         id="path202" />
    </clipPath>
    <clipPath
       clipPathUnits="userSpaceOnUse"
       id="clipPath210">
      <path
         d="m 123.156,106.93 c -2.07,0 -3.734,0.211 -3.734,0.211 0,0 0,0 0.004,0 -0.969,0.117 -1.844,0.273 -2.528,0.461 l 0.149,-0.036 -1.164,2.536 -0.41,-1.032 c 0.086,0.348 0.218,0.735 0.406,1.145 -0.152,-0.363 -0.231,-0.574 -0.231,-0.574 0,0 0.153,0.371 0.457,0.945 -0.148,-0.305 -0.222,-0.484 -0.222,-0.484 0,0 1.347,1.378 3.664,2.773 0.176,-2.535 2.289,-4.535 4.863,-4.535 2.645,0 4.793,2.098 4.879,4.719 0.043,-0.004 0.09,-0.004 0.137,-0.004 0.402,0 0.847,0.043 1.254,0.152 1.105,0.289 1.699,0.906 1.609,1.035 -0.023,0.039 -0.262,0.074 -0.621,0.074 -0.605,0 -1.551,-0.093 -2.426,-0.41 -0.094,0.664 -0.32,1.285 -0.652,1.836 0.25,0.008 0.504,0.016 0.758,0.016 1.34,0 2.746,-0.16 4.207,-0.535 v 0 0 l -0.246,0.398 c 0,0 -0.696,0.629 -2.09,1.176 0.992,-0.301 1.59,-0.582 1.59,-0.582 0,0 -0.004,0.004 -0.008,0.012 0.894,-0.895 1.176,-1.895 1.101,-2.473 -0.015,-0.145 -0.066,-0.332 -0.144,-0.559 v 0 c 0,0 -0.004,-0.007 -0.012,-0.027 -0.383,-1.059 -1.43,-2.883 -3.012,-4.277 -0.671,-0.551 -1.468,-1.028 -2.406,-1.325 -1.551,-0.5 -3.492,-0.636 -5.172,-0.636"
         id="path208" />
    </clipPath>
    <linearGradient
       x1="0"
       y1="0"
       x2="1"
       y2="0"
       gradientUnits="userSpaceOnUse"
       gradientTransform="matrix(0,11.1988,11.1988,0,124.651,106.872)"
       spreadMethod="pad"
       id="linearGradient218">
      <stop
         style="stop-opacity:1;stop-color:#eee2ff"
         offset="0"
         id="stop212" />
      <stop
         style="stop-opacity:1;stop-color:#bdc9fb"
         offset="0.996032"
         id="stop214" />
      <stop
         style="stop-opacity:1;stop-color:#bdc9fb"
         offset="1"
         id="stop216" />
    </linearGradient>
    <clipPath
       clipPathUnits="userSpaceOnUse"
       id="clipPath228">
      <path
         d="M 210,105 C 210,47.0117 162.988,0 105,0 47.0117,0 0,47.0117 0,105 c 0,57.988 47.0117,105 105,105 57.988,0 105,-47.012 105,-105"
         id="path226" />
    </clipPath>
    <clipPath
       clipPathUnits="userSpaceOnUse"
       id="clipPath238">
      <path
         d="M 210,105 C 210,47.0117 162.988,0 105,0 47.0117,0 0,47.0117 0,105 c 0,57.988 47.0117,105 105,105 57.988,0 105,-47.012 105,-105"
         id="path236" />
    </clipPath>
    <clipPath
       clipPathUnits="userSpaceOnUse"
       id="clipPath244">
      <path
         d="m 124.41,108.34 c -2.574,0 -4.687,2 -4.863,4.535 0.09,0.055 0.183,0.109 0.277,0.164 0.094,-2.453 2.114,-4.414 4.586,-4.414 2.488,0 4.516,1.977 4.594,4.449 0.09,-0.008 0.184,-0.015 0.285,-0.015 -0.086,-2.621 -2.234,-4.719 -4.879,-4.719 m 4.559,5.457 c -0.09,0.703 -0.336,1.359 -0.707,1.926 0.109,0.007 0.218,0.011 0.328,0.019 0.332,-0.551 0.558,-1.172 0.652,-1.836 -0.094,-0.035 -0.183,-0.07 -0.273,-0.109"
         id="path242" />
    </clipPath>
    <linearGradient
       x1="0"
       y1="0"
       x2="1"
       y2="0"
       gradientUnits="userSpaceOnUse"
       gradientTransform="matrix(0,11.1988,11.1988,0,124.651,106.872)"
       spreadMethod="pad"
       id="linearGradient252">
      <stop
         style="stop-opacity:1;stop-color:#654142"
         offset="0"
         id="stop246" />
      <stop
         style="stop-opacity:1;stop-color:#503a41"
         offset="0.996032"
         id="stop248" />
      <stop
         style="stop-opacity:1;stop-color:#503a41"
         offset="1"
         id="stop250" />
    </linearGradient>
    <clipPath
       clipPathUnits="userSpaceOnUse"
       id="clipPath262">
      <path
         d="M 210,105 C 210,47.0117 162.988,0 105,0 47.0117,0 0,47.0117 0,105 c 0,57.988 47.0117,105 105,105 57.988,0 105,-47.012 105,-105"
         id="path260" />
    </clipPath>
    <clipPath
       clipPathUnits="userSpaceOnUse"
       id="clipPath286">
      <path
         d="M 210,105 C 210,47.0117 162.988,0 105,0 47.0117,0 0,47.0117 0,105 c 0,57.988 47.0117,105 105,105 57.988,0 105,-47.012 105,-105"
         id="path284" />
    </clipPath>
    <clipPath
       clipPathUnits="userSpaceOnUse"
       id="clipPath292">
      <path
         d="m 115.883,110.102 c 0,0 0.074,0.179 0.222,0.484 0.301,0.57 0.75,1.344 1.344,2.164 0.715,0.91 1.586,1.82 2.582,2.621 -0.316,-0.648 -0.496,-1.379 -0.496,-2.152 0,-0.117 0.004,-0.231 0.012,-0.344 -2.317,-1.395 -3.664,-2.773 -3.664,-2.773 m 17.672,5.121 c -1.461,0.375 -2.867,0.535 -4.207,0.535 -0.254,0 -0.508,-0.008 -0.758,-0.016 -0.461,0.762 -1.125,1.387 -1.918,1.801 1.812,-0.031 3.43,-0.402 4.547,-0.746 1.394,-0.547 2.09,-1.176 2.09,-1.176 l 0.246,-0.398"
         id="path290" />
    </clipPath>
    <linearGradient
       x1="0"
       y1="0"
       x2="1"
       y2="0"
       gradientUnits="userSpaceOnUse"
       gradientTransform="matrix(0,11.1988,11.1988,0,124.651,106.872)"
       spreadMethod="pad"
       id="linearGradient300">
      <stop
         style="stop-opacity:1;stop-color:#bfa9bc"
         offset="0"
         id="stop294" />
      <stop
         style="stop-opacity:1;stop-color:#9896b9"
         offset="0.996032"
         id="stop296" />
      <stop
         style="stop-opacity:1;stop-color:#9896b9"
         offset="1"
         id="stop298" />
    </linearGradient>
    <clipPath
       clipPathUnits="userSpaceOnUse"
       id="clipPath310">
      <path
         d="M 210,105 C 210,47.0117 162.988,0 105,0 47.0117,0 0,47.0117 0,105 c 0,57.988 47.0117,105 105,105 57.988,0 105,-47.012 105,-105"
         id="path308" />
    </clipPath>
    <clipPath
       clipPathUnits="userSpaceOnUse"
       id="clipPath320">
      <path
         d="M 210,105 C 210,47.0117 162.988,0 105,0 47.0117,0 0,47.0117 0,105 c 0,57.988 47.0117,105 105,105 57.988,0 105,-47.012 105,-105"
         id="path318" />
    </clipPath>
    <clipPath
       clipPathUnits="userSpaceOnUse"
       id="clipPath326">
      <path
         d="m 119.547,112.875 c -0.008,0.113 -0.012,0.227 -0.012,0.344 0,0.773 0.18,1.504 0.496,2.152 0.196,0.156 0.399,0.309 0.602,0.457 -0.512,-0.742 -0.813,-1.64 -0.813,-2.609 0,-0.063 0,-0.121 0.004,-0.18 -0.094,-0.055 -0.187,-0.109 -0.277,-0.164 m 8.715,2.848 c -0.539,0.828 -1.34,1.472 -2.285,1.816 0.152,0.004 0.3,0.008 0.453,0.008 0.078,0 0.16,0 0.242,-0.004 0.793,-0.414 1.457,-1.039 1.918,-1.801 -0.11,-0.008 -0.219,-0.012 -0.328,-0.019"
         id="path324" />
    </clipPath>
    <linearGradient
       x1="0"
       y1="0"
       x2="1"
       y2="0"
       gradientUnits="userSpaceOnUse"
       gradientTransform="matrix(0,11.1988,11.1988,0,124.651,106.872)"
       spreadMethod="pad"
       id="linearGradient334">
      <stop
         style="stop-opacity:1;stop-color:#513130"
         offset="0"
         id="stop328" />
      <stop
         style="stop-opacity:1;stop-color:#402c30"
         offset="0.996032"
         id="stop330" />
      <stop
         style="stop-opacity:1;stop-color:#402c30"
         offset="1"
         id="stop332" />
    </linearGradient>
    <clipPath
       clipPathUnits="userSpaceOnUse"
       id="clipPath344">
      <path
         d="M 210,105 C 210,47.0117 162.988,0 105,0 47.0117,0 0,47.0117 0,105 c 0,57.988 47.0117,105 105,105 57.988,0 105,-47.012 105,-105"
         id="path342" />
    </clipPath>
    <clipPath
       clipPathUnits="userSpaceOnUse"
       id="clipPath360">
      <path
         d="M 210,105 C 210,47.0117 162.988,0 105,0 47.0117,0 0,47.0117 0,105 c 0,57.988 47.0117,105 105,105 57.988,0 105,-47.012 105,-105"
         id="path358" />
    </clipPath>
    <clipPath
       clipPathUnits="userSpaceOnUse"
       id="clipPath366">
      <path
         d="m 86.8438,106.93 c -1.6797,0 -3.6211,0.136 -5.1719,0.636 -0.9375,0.297 -1.7344,0.774 -2.4063,1.325 -1.5742,1.386 -2.6172,3.199 -3.0078,4.265 -0.0078,0.028 -0.0156,0.039 -0.0156,0.039 v 0 c -0.0781,0.223 -0.1289,0.414 -0.1484,0.559 -0.0704,0.578 0.2109,1.578 1.1054,2.473 -0.0039,-0.008 -0.0078,-0.012 -0.0078,-0.012 0,0 0.5977,0.281 1.5899,0.582 -1.3946,-0.547 -2.0899,-1.176 -2.0899,-1.176 l -0.2422,-0.398 c 1.4571,0.375 2.8633,0.535 4.2031,0.535 0.254,0 0.5079,-0.008 0.7579,-0.016 -0.3321,-0.551 -0.5586,-1.172 -0.6524,-1.836 -0.875,0.317 -1.8203,0.41 -2.4258,0.41 -0.3593,0 -0.5976,-0.035 -0.6211,-0.074 -0.0898,-0.129 0.5039,-0.746 1.6094,-1.035 0.4063,-0.109 0.8516,-0.152 1.2539,-0.152 0.0469,0 0.0938,0 0.1367,0.004 0.086,-2.621 2.2383,-4.719 4.875,-4.719 2.5821,0 4.6914,2 4.8672,4.535 2.3164,-1.395 3.6641,-2.773 3.6641,-2.773 v 0 l -1.1641,-2.536 0.1485,0.036 c -0.6836,-0.188 -1.5586,-0.344 -2.5274,-0.461 0.0039,0 0.0039,0 0.0039,0 0,0 -1.664,-0.211 -3.7343,-0.211 m 7.6835,2.14 -0.4101,1.032 v 0 c 0,0 -0.0742,0.179 -0.2227,0.484 0.3047,-0.574 0.4571,-0.945 0.4571,-0.945 0,0 -0.0782,0.211 -0.2305,0.574 0.1875,-0.41 0.3242,-0.797 0.4062,-1.145"
         id="path364" />
    </clipPath>
    <linearGradient
       x1="0"
       y1="0"
       x2="1"
       y2="0"
       gradientUnits="userSpaceOnUse"
       gradientTransform="matrix(0,11.1988,-11.1988,0,85.3491,106.872)"
       spreadMethod="pad"
       id="linearGradient374">
      <stop
         style="stop-opacity:1;stop-color:#eee2ff"
         offset="0"
         id="stop368" />
      <stop
         style="stop-opacity:1;stop-color:#bdc9fb"
         offset="0.996032"
         id="stop370" />
      <stop
         style="stop-opacity:1;stop-color:#bdc9fb"
         offset="1"
         id="stop372" />
    </linearGradient>
    <clipPath
       clipPathUnits="userSpaceOnUse"
       id="clipPath384">
      <path
         d="M 210,105 C 210,47.0117 162.988,0 105,0 47.0117,0 0,47.0117 0,105 c 0,57.988 47.0117,105 105,105 57.988,0 105,-47.012 105,-105"
         id="path382" />
    </clipPath>
    <clipPath
       clipPathUnits="userSpaceOnUse"
       id="clipPath394">
      <path
         d="M 210,105 C 210,47.0117 162.988,0 105,0 47.0117,0 0,47.0117 0,105 c 0,57.988 47.0117,105 105,105 57.988,0 105,-47.012 105,-105"
         id="path392" />
    </clipPath>
    <clipPath
       clipPathUnits="userSpaceOnUse"
       id="clipPath400">
      <path
         d="m 85.5859,108.34 c -2.6367,0 -4.789,2.098 -4.875,4.719 0.1016,0 0.1954,0.007 0.2852,0.015 0.0781,-2.472 2.1055,-4.449 4.5898,-4.449 2.4766,0 4.4961,1.961 4.5899,4.414 0.0937,-0.055 0.1875,-0.109 0.2773,-0.164 -0.1758,-2.535 -2.2851,-4.535 -4.8672,-4.535 m -4.5546,5.457 c -0.0899,0.039 -0.1797,0.074 -0.2735,0.109 0.0938,0.664 0.3203,1.285 0.6524,1.836 0.1093,-0.008 0.2187,-0.012 0.3281,-0.019 -0.3711,-0.567 -0.6172,-1.223 -0.707,-1.926"
         id="path398" />
    </clipPath>
    <linearGradient
       x1="0"
       y1="0"
       x2="1"
       y2="0"
       gradientUnits="userSpaceOnUse"
       gradientTransform="matrix(0,11.1988,-11.1988,0,85.3491,106.872)"
       spreadMethod="pad"
       id="linearGradient408">
      <stop
         style="stop-opacity:1;stop-color:#654142"
         offset="0"
         id="stop402" />
      <stop
         style="stop-opacity:1;stop-color:#503a41"
         offset="0.996032"
         id="stop404" />
      <stop
         style="stop-opacity:1;stop-color:#503a41"
         offset="1"
         id="stop406" />
    </linearGradient>
    <clipPath
       clipPathUnits="userSpaceOnUse"
       id="clipPath418">
      <path
         d="M 210,105 C 210,47.0117 162.988,0 105,0 47.0117,0 0,47.0117 0,105 c 0,57.988 47.0117,105 105,105 57.988,0 105,-47.012 105,-105"
         id="path416" />
    </clipPath>
    <clipPath
       clipPathUnits="userSpaceOnUse"
       id="clipPath442">
      <path
         d="M 210,105 C 210,47.0117 162.988,0 105,0 47.0117,0 0,47.0117 0,105 c 0,57.988 47.0117,105 105,105 57.988,0 105,-47.012 105,-105"
         id="path440" />
    </clipPath>
    <clipPath
       clipPathUnits="userSpaceOnUse"
       id="clipPath448">
      <path
         d="m 94.1172,110.102 c 0,0 -1.3477,1.378 -3.6641,2.773 0.0078,0.113 0.0117,0.227 0.0117,0.344 0,0.773 -0.1796,1.504 -0.496,2.152 0.996,-0.801 1.8671,-1.711 2.582,-2.621 0.5937,-0.82 1.043,-1.594 1.3437,-2.164 0.1485,-0.305 0.2227,-0.484 0.2227,-0.484 m -17.668,5.121 0.2422,0.398 c 0,0 0.6953,0.629 2.0899,1.176 1.1171,0.344 2.7343,0.715 4.5468,0.746 -0.789,-0.414 -1.457,-1.039 -1.9179,-1.801 -0.25,0.008 -0.5039,0.016 -0.7579,0.016 -1.3398,0 -2.746,-0.16 -4.2031,-0.535"
         id="path446" />
    </clipPath>
    <linearGradient
       x1="0"
       y1="0"
       x2="1"
       y2="0"
       gradientUnits="userSpaceOnUse"
       gradientTransform="matrix(0,11.1988,-11.1988,0,85.3491,106.872)"
       spreadMethod="pad"
       id="linearGradient456">
      <stop
         style="stop-opacity:1;stop-color:#bfa9bc"
         offset="0"
         id="stop450" />
      <stop
         style="stop-opacity:1;stop-color:#9896b9"
         offset="0.996032"
         id="stop452" />
      <stop
         style="stop-opacity:1;stop-color:#9896b9"
         offset="1"
         id="stop454" />
    </linearGradient>
    <clipPath
       clipPathUnits="userSpaceOnUse"
       id="clipPath466">
      <path
         d="M 210,105 C 210,47.0117 162.988,0 105,0 47.0117,0 0,47.0117 0,105 c 0,57.988 47.0117,105 105,105 57.988,0 105,-47.012 105,-105"
         id="path464" />
    </clipPath>
    <clipPath
       clipPathUnits="userSpaceOnUse"
       id="clipPath476">
      <path
         d="M 210,105 C 210,47.0117 162.988,0 105,0 47.0117,0 0,47.0117 0,105 c 0,57.988 47.0117,105 105,105 57.988,0 105,-47.012 105,-105"
         id="path474" />
    </clipPath>
    <clipPath
       clipPathUnits="userSpaceOnUse"
       id="clipPath482">
      <path
         d="m 90.4531,112.875 c -0.0898,0.055 -0.1836,0.109 -0.2773,0.164 0.0039,0.059 0.0039,0.117 0.0039,0.18 0,0.969 -0.3008,1.867 -0.8125,2.609 0.207,-0.148 0.4062,-0.301 0.6016,-0.457 0.3164,-0.648 0.496,-1.379 0.496,-2.152 0,-0.117 -0.0039,-0.231 -0.0117,-0.344 m -8.7148,2.848 c -0.1094,0.007 -0.2188,0.011 -0.3281,0.019 0.4609,0.762 1.1289,1.387 1.9179,1.801 0.0821,0.004 0.1641,0.004 0.2422,0.004 0.1524,0 0.3008,-0.004 0.4531,-0.008 -0.9453,-0.344 -1.7461,-0.988 -2.2851,-1.816"
         id="path480" />
    </clipPath>
    <linearGradient
       x1="0"
       y1="0"
       x2="1"
       y2="0"
       gradientUnits="userSpaceOnUse"
       gradientTransform="matrix(0,11.1988,-11.1988,0,85.3491,106.872)"
       spreadMethod="pad"
       id="linearGradient490">
      <stop
         style="stop-opacity:1;stop-color:#513130"
         offset="0"
         id="stop484" />
      <stop
         style="stop-opacity:1;stop-color:#402c30"
         offset="0.996032"
         id="stop486" />
      <stop
         style="stop-opacity:1;stop-color:#402c30"
         offset="1"
         id="stop488" />
    </linearGradient>
    <clipPath
       clipPathUnits="userSpaceOnUse"
       id="clipPath500">
      <path
         d="M 210,105 C 210,47.0117 162.988,0 105,0 47.0117,0 0,47.0117 0,105 c 0,57.988 47.0117,105 105,105 57.988,0 105,-47.012 105,-105"
         id="path498" />
    </clipPath>
  </defs>
  <sodipodi:namedview
     id="namedview4"
     pagecolor="#ffffff"
     bordercolor="#000000"
     borderopacity="0.25"
     inkscape:showpageshadow="2"
     inkscape:pageopacity="0.0"
     inkscape:pagecheckerboard="0"
     inkscape:deskcolor="#d1d1d1" />
  <g
     id="g8"
     inkscape:groupmode="layer"
     inkscape:label="ink_ext_XXXXXX"
     transform="matrix(1.3333333,0,0,-1.3333333,0,28)">
    <g
       id="g10"
       transform="scale(0.1)">
      <g
         id="g12">
        <g
           id="g14"
           clip-path="url(#clipPath18)">
          <path
             d="M 210,105 C 210,47.0117 162.988,0 105,0 47.0117,0 0,47.0117 0,105 c 0,57.988 47.0117,105 105,105 57.988,0 105,-47.012 105,-105"
             style="fill:#f4ece5;fill-opacity:1;fill-rule:nonzero;stroke:none"
             id="path20" />
          <path
             d="m 76.5547,68.625 c 0,0 -0.9492,-25.9258 -1.6094,-28.4883 C 74.2852,37.5742 40.5352,23.2227 40.5352,23.2227 H 169.465 c 0,0 -36.68,12.9609 -37.668,15.9257 -0.988,2.9649 -1.016,27.6875 -1.016,27.6875 L 76.5547,68.625"
             style="fill:#5a2a20;fill-opacity:1;fill-rule:nonzero;stroke:none"
             id="path22" />
          <path
             d="M 75.0742,40.8906 H 72.0898 V 38.4531 L 39.1367,23.2227 C 39.1367,23.2227 62.6484,0 105,0 c 42.352,0 65.863,23.2227 65.863,23.2227 l -35.441,14.4961 c 0,0 -1.172,3.2226 -3.625,1.4296 l 0.84,-1.207 c 0,0 -11.418,-12.2266 -30.457,-12.2266 -19.0355,0 -27.1058,15.1758 -27.1058,15.1758"
             style="fill:#5e6300;fill-opacity:1;fill-rule:nonzero;stroke:none"
             id="path24" />
          <path
             d="m 140.809,112.617 c 0,0 5.39,8.219 9.05,8.199 2.231,-0.011 7.606,-4.683 7.543,-9.152 -0.082,-5.973 -5.371,-12.7617 -6.687,-16.2421 -1.32,-3.4844 -4.735,-8.0235 -7.004,-8.461 -2.27,-0.4375 -5.227,3.8555 -5.227,3.8555 0,0 1.106,16.3826 2.325,21.8006"
             style="fill:#5a2a20;fill-opacity:1;fill-rule:nonzero;stroke:none"
             id="path26" />
          <path
             d="m 152.551,99.0273 v 0 0 z"
             style="fill:#bfada5;fill-opacity:1;fill-rule:nonzero;stroke:none"
             id="path28" />
          <path
             d="m 146.824,97.2422 c -0.094,0 -0.172,0.0195 -0.238,0.0547 -0.606,0.332 0.328,3.7341 -0.223,4.9411 -0.496,1.094 -1.843,2.637 -2.789,2.637 -0.097,0 -0.195,-0.02 -0.285,-0.055 -0.527,-0.218 -1.133,-0.496 -1.551,-0.691 0.02,0.152 0.039,0.309 0.059,0.461 2.039,2.433 8.769,10.223 11.488,10.223 3.223,0 3.223,-6.223 1.922,-9.774 -0.894,-2.437 -2.629,-5.9492 -2.656,-6.0117 v 0 c 0.012,0.0391 1.39,3.8317 1.558,6.6717 0.254,4.387 -0.718,7.578 -1.828,7.578 h -0.004 c -2.039,-0.015 -3.644,-2.8 -3.898,-3.789 -0.258,-0.988 1.609,-5.328 1.117,-8.347 -0.441,-2.6879 -1.926,-3.8988 -2.672,-3.8988"
             style="fill:#461f17;fill-opacity:1;fill-rule:nonzero;stroke:none"
             id="path30" />
          <path
             d="m 68.6484,112.617 c 0,0 -5.3945,8.219 -9.0546,8.199 -2.2266,-0.011 -7.6016,-4.683 -7.5391,-9.152 0.0781,-5.973 5.3711,-12.7617 6.6875,-16.2421 1.3203,-3.4844 4.7305,-8.0235 7,-8.461 2.2734,-0.4375 5.2266,3.8555 5.2266,3.8555 0,0 -1.1016,16.3826 -2.3204,21.8006"
             style="fill:#5a2a20;fill-opacity:1;fill-rule:nonzero;stroke:none"
             id="path32" />
          <path
             d="m 131.016,50.0703 c -0.149,5.1836 -0.203,10.8945 -0.223,14.1328 0.121,-4.3789 0.344,-12.1523 0.406,-13.6211 0.004,-0.1406 -0.058,-0.3125 -0.183,-0.5117 M 76.3672,63.8789 v 0 c 0,0 0,0 0,0.0039 v -0.0039 m 0.1875,4.7461 v 0 0 0"
             style="fill:#bfada5;fill-opacity:1;fill-rule:nonzero;stroke:none"
             id="path34" />
          <path
             d="m 107.539,40.2109 c -0.648,0 -1.285,0.0352 -1.906,0.1055 -10.2892,1.2109 -17.2971,11.9375 -24.215,15.6563 -3.5391,1.9023 -4.7305,5.1679 -5.0508,7.9062 v 0.0039 c 0.1484,3.3789 0.1875,4.7422 0.1875,4.7422 v 0 0 c 2.6172,-2.3945 5.6055,-4.8164 7.8516,-7.1328 3.6718,-3.7734 7.7109,-5.8516 9.2304,-6.4727 3.0703,-1.2617 11.0353,-1.2617 11.0353,-1.2617 0,0 7.965,0 11.035,1.2617 1.008,0.4102 3.141,1.4766 5.535,3.2578 l 0.016,0.0118 c 1.195,0.8867 2.461,1.9531 3.676,3.2031 1.671,1.7226 3.754,3.5039 5.789,5.2891 0.015,-0.5079 0.039,-1.4258 0.07,-2.5782 0.02,-3.2383 0.074,-8.9492 0.223,-14.1328 -1.649,-2.5937 -14.024,-9.8594 -23.477,-9.8594"
             style="fill:#461f17;fill-opacity:1;fill-rule:nonzero;stroke:none"
             id="path36" />
          <path
             d="m 62.6328,97.2422 c -0.7461,0 -2.2344,1.2109 -2.6719,3.8988 -0.4961,3.019 1.3711,7.359 1.1172,8.347 -0.2578,0.989 -1.8633,3.774 -3.8984,3.789 -0.0039,0 -0.0039,0 -0.0078,0 -1.1055,0 -2.0781,-3.191 -1.8242,-7.578 0.1679,-2.855 1.5586,-6.6717 1.5586,-6.6717 0,0 -1.7579,3.5547 -2.6563,6.0117 -1.3008,3.551 -1.3008,9.774 1.9219,9.774 2.6601,0 9.164,-7.461 11.3515,-10.059 0.0235,-0.191 0.0469,-0.379 0.0704,-0.566 -0.4102,0.191 -0.9493,0.433 -1.4297,0.632 -0.0899,0.035 -0.1836,0.055 -0.2813,0.055 -0.9453,0 -2.2969,-1.543 -2.793,-2.637 -0.5468,-1.207 0.3829,-4.6091 -0.2187,-4.9411 -0.0664,-0.0352 -0.1484,-0.0547 -0.2383,-0.0547"
             style="fill:#461f17;fill-opacity:1;fill-rule:nonzero;stroke:none"
             id="path38" />
          <path
             d="m 142.305,109.102 c -0.59,-6.438 -1.832,-12.4457 -2.125,-19.1801 -0.293,-6.7344 -0.856,-12.211 -1.903,-14.7149 -0.468,-1.125 -1.308,-2.2968 -2.367,-3.4765 l -0.004,-0.0078 c -2.992,-3.3672 -7.75,-6.9063 -10.972,-10.2305 -1.215,-1.25 -2.481,-2.3164 -3.676,-3.2031 l -0.016,-0.0118 c -2.394,-1.7812 -4.527,-2.8476 -5.535,-3.2578 -3.07,-1.2617 -11.035,-1.2617 -11.035,-1.2617 0,0 -7.965,0 -11.0353,1.2617 -1.5195,0.6211 -5.5586,2.6993 -9.2304,6.4727 -3.8047,3.9258 -9.7422,8.1523 -12.3946,12.0351 l -0.9453,1.6797 c -1.0508,2.5039 -1.6133,7.9805 -1.9023,14.7149 -0.2969,6.7344 -1.543,12.7421 -2.125,19.1801 -0.586,6.445 -1.3164,28.773 0.582,33.902 1.9102,5.125 24.457,18.891 37.0509,18.891 8.84,0 22.586,-6.782 30.648,-12.602 3.426,-2.469 5.825,-4.766 6.395,-6.289 1.906,-5.129 1.176,-27.457 0.59,-33.902"
             style="fill:#5a2a20;fill-opacity:1;fill-rule:nonzero;stroke:none"
             id="path40" />
          <path
             d="m 154.32,149.168 -0.699,0.215 c 1.453,4.738 2.652,10.07 2.149,10.801 l -0.153,0.132 h -0.015 l -0.93,-0.711 -2.375,-0.738 -0.524,2.168 -0.488,1.727 -1.816,-0.645 c -0.969,-0.707 -2.176,-1.59 -3.52,-0.558 -1.426,1.093 -0.179,3.347 0.821,5.16 l 0.945,2.301 -1.758,-0.594 -2.008,-0.692 -0.652,0.532 0.207,2.406 c 0.414,0.976 0.449,1.254 -0.055,1.508 -0.863,0.429 -1.484,1.972 -2.14,3.609 -0.641,1.586 -1.438,3.559 -2.27,3.641 -1.879,0.179 -5.844,0.351 -7.543,0.351 -1.027,0 -1.219,-0.906 -1.41,-2.394 l -0.106,-0.735 -1.019,-1.113 c -1.301,-0.492 -3.496,-0.09 -4.313,0.574 -0.671,0.547 -0.402,1.641 -0.113,2.801 l 0.11,2.199 c -0.465,0.387 -1.665,0.075 -2.719,-0.195 -0.942,-0.242 -1.824,-0.469 -2.446,-0.313 l -1.699,1.469 -1.152,0.973 -1.027,-1.07 c -0.59,-0.809 -1.262,-1.727 -2.379,-1.793 -1,-0.063 -1.789,0.754 -2.52,1.468 l -1.609,1.008 -0.809,-1.738 -1.008,-1.926 c -0.773,-0.308 -1.191,0.707 -1.734,2 -0.516,1.238 -1.227,2.942 -2.16,2.969 h -0.024 c -0.855,0 -1.351,-1.461 -1.793,-2.754 -0.445,-1.313 -0.804,-2.453 -1.7027,-2.367 l -1.6094,0.683 -1.2344,0.438 -1.6718,-0.488 c -1.168,-0.399 -2.3789,-0.809 -3.0938,-0.622 -0.7266,0.18 -0.9258,1.204 -1.1367,2.286 l -0.4609,1.492 -1.0977,-1.301 c -0.6133,-0.93 -1.2578,-1.887 -2,-1.512 l -0.8828,0.965 c -0.5781,0.867 -1.1836,1.758 -2.75,1.426 -1.9336,-0.418 -2.7031,-4.324 -2.836,-5.797 l -0.1015,-1.117 -0.5742,0.965 -1.6797,1.093 c -0.5156,-0.199 -0.211,-1.882 0.2109,-3.019 l 0.586,-1.594 -1.1915,1.215 -3.1718,1.598 c -0.8242,-0.383 -1.1719,-2.879 -1.1953,-4.36 l -0.0118,-0.59 -0.5234,0.274 c -1.1914,0.613 -3.1406,1.254 -3.5273,0.66 l 0.332,-2.723 0.8281,-1.535 -1.375,1.071 c -0.0508,0.043 -5.4922,4.242 -7.9062,1.421 -0.9141,-1.07 0.4961,-5.339 1.5937,-7.777 l -0.664,-0.301 c -0.3086,0.688 -2.9961,6.778 -1.4844,8.551 2.1797,2.551 6.0742,0.559 7.9101,-0.617 l 0.1563,2.305 c 0.7226,1.121 2.8945,0.324 3.9648,-0.164 0.0742,1.214 0.3711,3.875 1.5938,4.445 0.9531,0.449 2.1875,-0.25 3.0351,-0.902 -0.2304,1.042 -0.3281,2.371 0.5743,2.722 l 2.0117,-0.68 c 0.2695,1.657 1.0898,5.094 3.289,5.567 2.0703,0.445 2.9375,-0.867 3.5118,-1.731 l 0.6015,-0.722 h 0.0078 l 1.0586,1.261 1.6953,1.629 h 0.0235 c 0.7578,0 0.9531,-1.007 1.164,-2.078 l 0.5977,-1.718 c 0.5195,-0.125 1.7187,0.277 2.6836,0.601 l 1.7969,0.52 1.7539,-0.555 1.2695,-0.559 0.9454,1.875 c 0.516,1.524 1.101,3.246 2.476,3.246 h 0.051 c 1.407,-0.039 2.184,-1.91 2.813,-3.418 l 0.836,-1.601 0.519,1.398 1.239,2.262 2.402,-1.16 1.965,-1.258 1.832,1.492 1.375,1.328 1.972,-1.214 1.297,-1.211 2.086,0.312 c 1.285,0.332 2.613,0.676 3.367,0.055 0.715,-0.59 0.418,-1.785 0.133,-2.938 l -0.133,-2.058 c 0.637,-0.52 2.567,-0.852 3.594,-0.457 l 0.559,0.547 0.101,0.71 c 0.172,1.352 0.391,3.028 2.133,3.028 1.731,0 5.664,-0.164 7.613,-0.352 1.278,-0.125 2.051,-2.054 2.875,-4.097 0.551,-1.368 1.176,-2.922 1.793,-3.227 1.184,-0.594 0.731,-1.664 0.399,-2.445 l -0.246,-1.762 0.203,-0.187 1.445,0.609 2.547,0.574 c 0.781,-0.535 0.121,-1.734 -0.719,-3.254 -0.867,-1.566 -1.941,-3.519 -1.011,-4.23 0.847,-0.653 1.566,-0.219 2.644,0.57 0.805,0.59 1.719,1.254 2.637,0.672 1.019,-0.652 0.91,-1.633 0.824,-2.422 l 0.285,-1.543 1.375,0.711 1.524,0.918 0.687,-0.445 c 0.953,-1.387 -1.543,-9.762 -2.051,-11.43"
             style="fill:#1f0b0a;fill-opacity:1;fill-rule:nonzero;stroke:none"
             id="path42" />
          <path
             d="m 59.8438,142.711 c -1.1797,0.144 -3.9336,1.875 -5.8282,4.613 -1.1992,1.735 -2.4648,4.485 -1.6836,7.731 0.3086,1.281 2.5469,1.398 4.7149,1.511 l 2.332,0.274 -0.9609,1.226 c -1.6055,1.93 -4.2969,5.157 -2.3282,7.157 2.5469,2.59 5.6485,-0.301 6.8008,-1.43 0.2305,2.359 0.6328,5.137 1.668,6.109 0.8906,0.836 2.7461,0.536 4.5391,0.246 0.9765,-0.156 2.1875,-0.351 2.4961,-0.144 l -0.293,1.863 c -0.4649,1.707 -1.1055,4.051 0.2148,5.645 1.418,1.715 5.5821,0.824 9.2578,0.039 1.7891,-0.383 3.4844,-0.746 4.086,-0.582 0.6172,0.16 1,1.609 1.3711,3.015 0.5781,2.188 1.2968,4.907 3.4336,5.536 2.4297,0.707 4.375,-2.52 5.7929,-4.887 l 1.4844,-2.09 c 0.1992,0.211 0.1289,1.867 0.0859,2.855 -0.0898,2.102 -0.1757,4.082 0.9571,4.207 0.8828,0.122 1.8047,-0.605 2.8706,-1.425 0.958,-0.735 2.04,-1.567 3.098,-1.735 0.82,-0.129 1.367,0.594 2.168,1.805 0.789,1.188 1.676,2.527 3.238,2.527 l 0.082,-0.004 c 1.805,-0.054 2.872,-2.113 3.903,-4.101 0.676,-1.309 1.375,-2.66 2.195,-3.18 1.684,-1.078 4.289,-0.91 5.086,-0.828 0.203,0.793 0.941,3.156 2.676,4.254 0.871,0.551 1.871,0.691 2.953,0.43 4.328,-1.063 3.957,-7.832 3.941,-8.118 l -0.73,0.047 c 0.008,0.063 0.351,6.446 -3.383,7.364 l -2.394,-0.34 c -1.786,-1.129 -2.403,-4.012 -2.411,-4.043 l -0.05,-0.246 -0.25,-0.039 c -0.149,-0.024 -3.602,-0.52 -5.829,0.902 -0.984,0.629 -1.699,2.004 -2.453,3.461 -0.933,1.805 -1.898,3.668 -3.273,3.711 h -0.059 c -1.175,0 -1.918,-1.117 -2.633,-2.199 -0.761,-1.149 -1.562,-2.344 -2.89,-2.125 -1.242,0.195 -2.406,1.09 -3.43,1.879 -0.9022,0.695 -1.7889,1.343 -2.3436,1.281 -0.457,-0.051 -0.3594,-2.348 -0.3125,-3.453 0.0859,-2.024 0.1484,-3.485 -0.7383,-3.61 -0.6797,-0.101 -1.2383,0.86 -2.1836,2.438 -1.2929,2.16 -3.0507,5.121 -4.9609,4.562 -1.7422,-0.511 -2.375,-2.91 -2.9336,-5.023 -0.4648,-1.754 -0.8672,-3.27 -1.8945,-3.535 -0.7774,-0.199 -2.3867,0.14 -4.4219,0.574 -3.125,0.668 -7.4063,1.582 -8.5469,0.211 -1.0742,-1.305 -0.5195,-3.348 -0.0703,-4.988 0.3555,-1.305 0.6133,-2.246 -0.0078,-2.661 -0.543,-0.367 -1.6328,-0.187 -3.0156,0.032 -1.4649,0.238 -3.2969,0.531 -3.9219,-0.059 -0.9922,-0.93 -1.3398,-4.578 -1.4531,-5.777 l -0.0821,-0.633 -0.0586,-0.195 -0.207,-0.059 -0.7734,0.469 c -1.75,1.715 -3.9961,3.449 -5.875,1.539 -1.5039,-1.535 0.9219,-4.442 2.3711,-6.18 l 1.0586,-1.379 0.0273,-0.644 c -0.2812,-0.508 -1.2148,-0.578 -2.9805,-0.672 -1.539,-0.082 -3.8632,-0.203 -4.0429,-0.957 -0.7227,-2.985 0.457,-5.531 1.5703,-7.145 1.8359,-2.652 4.4023,-4.191 5.3203,-4.304 l -0.0898,-0.723"
             style="fill:#1f0b0a;fill-opacity:1;fill-rule:nonzero;stroke:none"
             id="path44" />
          <path
             d="m 149.691,134.613 -0.226,0.696 2.027,1.515 -0.379,1.465 c -0.289,0.691 -0.617,1.477 -0.617,2.492 0,0.848 0.965,2.047 2.184,3.567 1.574,1.965 3.535,4.41 3.203,6.105 -0.496,2.531 -3.875,5.543 -5.317,6.828 l -0.593,0.543 c -0.434,0.43 -0.11,1.309 0.664,3.25 0.816,2.047 2.047,5.141 0.886,5.949 -2.046,1.418 -5.839,-0.386 -5.878,-0.402 l -0.321,0.652 c 0.172,0.086 4.215,2.012 6.614,0.348 1.636,-1.137 0.382,-4.285 -0.625,-6.816 -0.372,-0.942 -0.887,-2.231 -0.797,-2.508 l 0.535,-0.473 c 1.496,-1.336 5.004,-4.461 5.547,-7.23 0.398,-2.028 -1.594,-4.512 -3.352,-6.703 -0.992,-1.239 -2.019,-2.516 -2.019,-3.11 l 0.558,-2.211 0.434,-1.824 c -0.149,-1.32 -2.285,-2.055 -2.528,-2.133"
             style="fill:#1f0b0a;fill-opacity:1;fill-rule:nonzero;stroke:none"
             id="path46" />
          <path
             d="m 66.6133,114.598 c 0,0 -11.3125,8.324 -10.7227,12.652 0.586,4.332 1.5703,5.539 1.5703,5.539 0,0 -3.8867,3.215 -1.5937,4.289 0,0 -4.8867,9.438 0.3594,10.504 5.2461,1.066 10.3867,-32.984 10.3867,-32.984"
             style="fill:#1f0b0a;fill-opacity:1;fill-rule:nonzero;stroke:none"
             id="path48" />
          <path
             d="m 142.582,113.797 c 0,0 10.559,6.59 7.856,15.601 0,0 4.984,3.239 2.261,5.563 0,0 5.543,6.227 2.973,9.394 0,0 -15.371,-11.953 -13.09,-30.558"
             style="fill:#1f0b0a;fill-opacity:1;fill-rule:nonzero;stroke:none"
             id="path50" />
          <path
             d="m 145.227,115.402 -0.223,0.696 c 1.082,0.347 2.598,1.144 2.574,1.816 l -0.285,0.957 c -0.441,1.109 -1.113,2.789 1.578,4.047 2.91,1.359 4.242,2.52 3.859,3.348 l -0.621,0.953 c -0.765,1.07 -1.816,2.531 -0.578,3.511 l 0.637,0.485 c 1.051,0.789 1.508,1.168 1.32,1.945 l -0.152,0.551 c -0.203,0.68 -0.215,0.82 0.148,2.766 0.27,1.461 1.582,1.492 2.739,1.519 1.347,0.035 2.191,0.129 2.531,1.152 0.785,2.36 -3.106,5.637 -3.145,5.668 l 0.465,0.563 c 0.18,-0.149 4.313,-3.633 3.371,-6.461 -0.527,-1.582 -2.011,-1.621 -3.203,-1.648 -1.203,-0.032 -1.887,-0.086 -2.043,-0.926 -0.34,-1.84 -0.328,-1.883 -0.168,-2.422 l 0.164,-0.59 c 0.313,-1.277 -0.57,-1.937 -1.59,-2.699 l -0.621,-0.473 c -0.644,-0.512 -0.109,-1.363 0.719,-2.515 l 0.692,-1.075 c 0.796,-1.726 -2.024,-3.285 -4.219,-4.312 -2.067,-0.965 -1.668,-1.961 -1.207,-3.117 l 0.34,-1.203 c 0.046,-1.481 -2.762,-2.43 -3.082,-2.536"
             style="fill:#1f0b0a;fill-opacity:1;fill-rule:nonzero;stroke:none"
             id="path52" />
          <path
             d="m 152.395,141.785 -0.454,0.57 c 0.082,0.067 8.235,6.614 6.364,11.149 -1.875,4.551 -7.989,4.211 -8.051,4.215 l -0.047,0.722 c 0.07,0.012 6.695,0.375 8.77,-4.656 2.078,-5.043 -6.231,-11.719 -6.582,-12"
             style="fill:#1f0b0a;fill-opacity:1;fill-rule:nonzero;stroke:none"
             id="path54" />
          <path
             d="m 61.3555,118.523 c -2.836,1.329 -4.9805,4.145 -4.6797,5.434 l 1.0664,1.168 0.5859,0.852 -1.2109,0.589 c -1.0039,0.286 -2.375,0.68 -2.6836,2.45 -0.2852,1.644 0.4805,2.054 1.2187,2.445 l 1.4688,1.469 c 0.4297,1.039 -1.2852,2.254 -2.8008,3.328 -1.2969,0.914 -2.414,1.707 -2.6211,2.562 -0.3086,1.274 1.2578,2.094 2.7696,2.883 0.914,0.481 1.9492,1.02 2.1328,1.5 l -1.2461,1.57 c -1.2188,1.075 -2.8867,2.547 -2.3985,4.59 0.8125,3.383 4.4297,3.16 4.461,3.149 l -0.0547,-0.727 c -0.125,0.016 -3.0313,0.188 -3.6953,-2.594 -0.3907,-1.617 0.9687,-2.812 2.1679,-3.871 0.9493,-0.836 1.7696,-1.558 1.4493,-2.382 -0.2891,-0.735 -1.3516,-1.29 -2.4805,-1.879 -1.2031,-0.633 -2.5742,-1.344 -2.3984,-2.063 0.1445,-0.594 1.2578,-1.383 2.3359,-2.144 1.7344,-1.231 3.7031,-2.622 3.0547,-4.2 -0.4571,-1.117 -1.2031,-1.515 -1.8008,-1.832 -0.6914,-0.371 -1.0391,-0.554 -0.8438,-1.679 0.2305,-1.321 1.1719,-1.59 2.168,-1.875 l 1.6289,-0.907 c 0.5742,-0.925 -0.2539,-1.476 -0.8047,-1.839 l -0.7578,-0.727 c -0.164,-0.703 1.4883,-3.305 4.2774,-4.609 l -0.3086,-0.661"
             style="fill:#1f0b0a;fill-opacity:1;fill-rule:nonzero;stroke:none"
             id="path56" />
          <path
             d="m 66.6133,114.598 c 0,0 4.957,6.804 4.543,13.632 -0.418,6.829 -1.0899,12.532 0.621,15.114 1.7071,2.578 15.0469,1.496 33.9257,1.496 18.875,0 28.324,1.406 30.324,0.156 2,-1.25 1.524,-13.144 1.399,-18.516 -0.125,-5.371 5.156,-12.683 5.156,-12.683 0,0 18.453,31.273 13.438,44.93 -0.981,2.668 -6.997,2.089 -6.997,2.089 0,0 -0.535,8.473 -3.91,7.352 0,0 -4.875,14.547 -13.867,9.027 0,0 -2.996,0.805 -4.66,-1.191 0,0 -6.078,13.121 -15.156,2.785 0,0 -1.246,4.543 -4.371,-0.535 0,0 -4.743,9.906 -11.2817,1.078 0,0 -13.207,7.156 -17.7421,-6.625 0,0 -6.6954,7.84 -10.4766,-3.312 0,0 -4.9492,-0.317 -4.9492,-5.645 0,0 -5.3555,2.164 -5.8399,-1.332 0,0 -2.8789,-4.121 -2.6601,-9.695 0.4336,-10.887 12.5039,-38.125 12.5039,-38.125"
             style="fill:#1f0b0a;fill-opacity:1;fill-rule:nonzero;stroke:none"
             id="path58" />
          <path
             d="m 93.1289,91.3516 c 0,0 -3.1133,10.4574 11.5701,10.4574 14.684,0 12.223,-10.2856 12.223,-10.2856 l -0.652,-0.1718 c 0,0 -4.008,-1.9453 -11.571,-1.9453 -7.5623,0 -11.5701,1.9453 -11.5701,1.9453"
             style="fill:#5a2a20;fill-opacity:1;fill-rule:nonzero;stroke:none"
             id="path60" />
          <path
             d="m 104.699,89.4063 v 0 c -2.316,0.0117 -4.277,0.5546 -6.1717,1.0625 -0.3085,0.1718 -0.6093,0.3203 -0.8984,0.4492 1.7774,-0.1094 4.0821,-0.1953 6.9261,-0.1953 2.773,0 5.148,0.0937 7.019,0.207 -0.586,-0.2617 -0.894,-0.5117 -0.898,-0.5156 -1.836,-0.4922 -3.742,-0.9961 -5.977,-1.0078 v 0 m -11.5584,1.9414 c -0.0078,0.0039 -0.0117,0.0039 -0.0117,0.0039 l 0.0117,-0.0039"
             style="fill:#461f17;fill-opacity:1;fill-rule:nonzero;stroke:none"
             id="path62" />
        </g>
      </g>
      <g
         id="g64">
        <g
           id="g66"
           clip-path="url(#clipPath70)">
          <g
             id="g72"
             clip-path="url(#clipPath76)">
            <path
               d="m 110,90 v 1 h 1 v 1 h 6 v -1 h -2 v -1"
               style="fill:url(#linearGradient86);fill-opacity:1;fill-rule:nonzero;stroke:none"
               id="path88" />
          </g>
        </g>
      </g>
      <g
         id="g90">
        <g
           id="g92"
           clip-path="url(#clipPath96)">
          <g
             id="g98"
             clip-path="url(#clipPath102)">
            <path
               d="m 110,90 v 1 h 2 v 1 h 5 v -1 h -3 v -1"
               style="fill:url(#linearGradient112);fill-opacity:1;fill-rule:nonzero;stroke:none"
               id="path114" />
          </g>
        </g>
      </g>
      <g
         id="g116">
        <g
           id="g118"
           clip-path="url(#clipPath122)">
          <g
             id="g124"
             clip-path="url(#clipPath128)">
            <path
               d="m 95,90 v 1 h -2 v 1 h 5 v -1 h 1 v -1"
               style="fill:url(#linearGradient138);fill-opacity:1;fill-rule:nonzero;stroke:none"
               id="path140" />
          </g>
        </g>
      </g>
      <g
         id="g142">
        <g
           id="g144"
           clip-path="url(#clipPath148)">
          <g
             id="g150"
             clip-path="url(#clipPath154)">
            <path
               d="m 96,90 v 1 h -3 v 1 h 4 v -1 h 2 v -1"
               style="fill:url(#linearGradient164);fill-opacity:1;fill-rule:nonzero;stroke:none"
               id="path166" />
          </g>
        </g>
      </g>
      <g
         id="g168">
        <g
           id="g170"
           clip-path="url(#clipPath174)">
          <path
             d="m 93.125,91.3672 c -0.3945,1.375 -0.3594,2.6289 -0.1523,3.6758 -0.3243,-1.8985 0.1015,-3.5039 0.1523,-3.6758"
             style="fill:#461f17;fill-opacity:1;fill-rule:nonzero;stroke:none"
             id="path176" />
          <path
             d="m 93.1289,91.3516 v 0 0 c -0.0039,0.0039 -0.0039,0.0078 -0.0039,0.0156 -0.0508,0.1719 -0.4766,1.7773 -0.1523,3.6758 0.3867,1.9258 1.3632,3.1523 1.3632,3.1523 -1.0156,-3.0508 -1.207,-6.8437 -1.207,-6.8437 v 0 0"
             style="fill:#461f17;fill-opacity:1;fill-rule:nonzero;stroke:none"
             id="path178" />
          <path
             d="m 116.922,91.5234 v 0 c 0,0 0.625,2.6133 -0.637,5.2032 0.629,-1.2227 1.262,-3.1368 0.637,-5.2032"
             style="fill:#461f17;fill-opacity:1;fill-rule:nonzero;stroke:none"
             id="path180" />
          <path
             d="m 116.922,91.5234 c 0,0 -0.402,3.5352 -1.512,6.5821 0,0 0.438,-0.5196 0.875,-1.3789 1.262,-2.5899 0.637,-5.2032 0.637,-5.2032 v 0"
             style="fill:#461f17;fill-opacity:1;fill-rule:nonzero;stroke:none"
             id="path182" />
          <path
             d="m 109.684,93.5078 1.386,1.0156 v -1.3476 l -1.386,0.332"
             style="fill:#ffccb8;fill-opacity:1;fill-rule:nonzero;stroke:none"
             id="path184" />
          <path
             d="m 96.8203,92.0391 c -1.1328,4.1875 -2.4844,6.1562 -2.4844,6.1562 l 1.2071,1.2188 c 2.7968,-3.1641 1.2773,-7.375 1.2773,-7.375"
             style="fill:#461f17;fill-opacity:1;fill-rule:nonzero;stroke:none"
             id="path186" />
          <path
             d="m 112.961,92.0391 c 0,0 -1.699,4.2109 1.094,7.375 l 1.355,-1.3086 c 0,0 -1.316,-1.8789 -2.449,-6.0664"
             style="fill:#461f17;fill-opacity:1;fill-rule:nonzero;stroke:none"
             id="path188" />
          <path
             d="m 134.938,121.344 c 0,0 -2.583,4.453 -5.18,4.59 l -2.035,-0.161 c -5.594,-0.918 -15.821,-5.273 -15.821,-5.273 0,0 -1.687,4.406 -1.504,6.203 l 0.586,0.262 1.004,-3.18 -0.074,3.598 c 0,0 8.145,1.23 13.418,1.996 v 0.004 l 0.879,0.125 h 0.004 l 1.68,0.242 h 0.003 c 1.086,0.156 1.782,0.242 1.825,0.234 l 0.746,-0.242 -0.285,0.774 c 0,0 2.742,-2.86 4.754,-9.172"
             style="fill:#1f0b0a;fill-opacity:1;fill-rule:nonzero;stroke:none"
             id="path190" />
          <path
             d="m 134.938,121.344 c 0,0 -2.583,4.453 -5.18,4.59 l -2.035,-0.161 v 0 l -2.391,3.606 v 0.004 l 0.879,0.125 h 0.004 c 1.433,-0.246 5.422,-3.121 5.422,-3.121 -1.102,2.133 -3.598,3.297 -3.739,3.363 1.032,0.148 1.711,0.234 1.813,0.234 0.004,0 0.008,0 0.012,0 l 0.746,-0.242 -0.285,0.774 c 0,0 2.742,-2.86 4.754,-9.172"
             style="fill:#0f0404;fill-opacity:1;fill-rule:nonzero;stroke:none"
             id="path192" />
          <path
             d="m 72.2969,121.344 c 0,0 2.582,4.453 5.1797,4.59 l 2.0351,-0.161 c 5.5899,-0.918 15.8164,-5.273 15.8164,-5.273 0,0 1.6914,4.406 1.5078,6.203 l -0.5859,0.262 -1.0039,-3.18 0.0742,3.598 c 0,0 -8.1484,1.23 -13.418,1.996 v 0.004 l -0.8789,0.125 h -0.0039 l -1.6836,0.242 H 79.332 c -1.0859,0.156 -1.7773,0.242 -1.8203,0.234 l -0.7461,-0.242 0.2852,0.774 c 0,0 -2.7422,-2.86 -4.7539,-9.172"
             style="fill:#1f0b0a;fill-opacity:1;fill-rule:nonzero;stroke:none"
             id="path194" />
          <path
             d="m 72.2969,121.344 c 2.0117,6.312 4.7539,9.172 4.7539,9.172 l -0.2852,-0.774 0.7461,0.242 c 0,0 0.0039,0 0.0117,0 0.1016,0 0.7774,-0.086 1.8086,-0.234 -0.1406,-0.066 -2.6367,-1.23 -3.7343,-3.363 0,0 3.9882,2.875 5.4218,3.121 h 0.0039 l 0.8789,-0.125 v -0.004 0 l -2.3906,-3.606 v 0 l -2.0351,0.161 c -2.5977,-0.137 -5.1797,-4.59 -5.1797,-4.59"
             style="fill:#0f0404;fill-opacity:1;fill-rule:nonzero;stroke:none"
             id="path196" />
        </g>
      </g>
      <g
         id="g198">
        <g
           id="g200"
           clip-path="url(#clipPath204)">
          <g
             id="g206"
             clip-path="url(#clipPath210)">
            <path
               d="m 121,106 v 1 h -5 v 2 h -1 v 2 h 1 v 1 h 2 v 1 h 2 v -1 h 1 v -2 h 2 v -1 h 3 v 1 h 2 v 2 h 1 v 2 h -1 v 2 h 3 v 1 h 3 v -6 h -1 v -1 h -1 v -1 h -1 v -1 h -1 v -1 h -5 v -1"
               style="fill:url(#linearGradient218);fill-opacity:1;fill-rule:nonzero;stroke:none"
               id="path220" />
          </g>
        </g>
      </g>
      <g
         id="g222">
        <g
           id="g224"
           clip-path="url(#clipPath228)">
          <path
             d="m 120.129,115.555 c 0.008,0.011 0.012,0.023 0.019,0.039 0.211,0.156 0.426,0.312 0.649,0.457 -0.02,-0.024 -0.035,-0.047 -0.055,-0.071 -0.211,-0.136 -0.418,-0.277 -0.613,-0.425"
             style="fill:#260c08;fill-opacity:1;fill-rule:nonzero;stroke:none"
             id="path230" />
        </g>
      </g>
      <g
         id="g232">
        <g
           id="g234"
           clip-path="url(#clipPath238)">
          <g
             id="g240"
             clip-path="url(#clipPath244)">
            <path
               d="m 122,108 v 1 h -2 v 2 h -1 v 3 h 1 v -1 h 1 v -2 h 1 v -1 h 1 v -1 h 3 v 1 h 1 v 1 h 1 v 5 h 1 v -1 h 1 v -4 h -1 v -2 h -2 v -1"
               style="fill:url(#linearGradient252);fill-opacity:1;fill-rule:nonzero;stroke:none"
               id="path254" />
          </g>
        </g>
      </g>
      <g
         id="g256">
        <g
           id="g258"
           clip-path="url(#clipPath262)">
          <path
             d="m 129.004,113.219 c 0,-2.535 -2.055,-4.594 -4.594,-4.594 -2.535,0 -4.59,2.059 -4.59,4.594 0,2.535 2.055,4.594 4.59,4.594 2.539,0 4.594,-2.059 4.594,-4.594"
             style="fill:#5e6300;fill-opacity:1;fill-rule:nonzero;stroke:none"
             id="path264" />
          <path
             d="m 124.41,110.238 c -1.644,0 -2.976,1.336 -2.976,2.981 0,0.246 0.027,0.484 0.086,0.711 1.402,0.66 3.027,1.238 4.824,1.558 0.64,-0.547 1.047,-1.359 1.047,-2.269 0,-1.645 -1.332,-2.981 -2.981,-2.981 m 2.906,2.973 -1.031,-0.199 0.742,-0.532 0.289,0.731"
             style="fill:#3c3700;fill-opacity:1;fill-rule:nonzero;stroke:none"
             id="path266" />
          <path
             d="m 115.648,109.641 c 0,0 3.071,8.429 9.004,9.918 4.891,1.23 8.157,-3.344 8.157,-3.344 0,0 -4.852,2.265 -9.739,0.883 -4.886,-1.379 -7.422,-7.457 -7.422,-7.457"
             style="fill:#5a2a20;fill-opacity:1;fill-rule:nonzero;stroke:none"
             id="path268" />
          <path
             d="m 115.883,110.102 1.164,-2.536 -1.969,0.512 0.805,2.024"
             style="fill:#481c13;fill-opacity:1;fill-rule:nonzero;stroke:none"
             id="path270" />
          <path
             d="m 119.422,107.141 c 0,0 5.945,-1.364 9.437,0.105 3.77,1.586 4.899,5.949 4.899,5.949 0,0 -1.473,-4.363 -5.43,-5.629 -3.465,-1.113 -8.906,-0.425 -8.906,-0.425"
             style="fill:#481c13;fill-opacity:1;fill-rule:nonzero;stroke:none"
             id="path272" />
          <path
             d="m 128.25,113.406 c -0.379,-0.261 1.195,-0.523 2.43,-0.199 1.105,0.289 1.699,0.906 1.609,1.035 -0.086,0.133 -2.551,0.199 -4.039,-0.836"
             style="fill:#ffffff;fill-opacity:1;fill-rule:nonzero;stroke:none"
             id="path274" />
          <path
             d="m 127.316,113.211 -1.031,-0.199 0.742,-0.532 0.289,0.731"
             style="fill:#ffffff;fill-opacity:1;fill-rule:nonzero;stroke:none"
             id="path276" />
          <path
             d="m 117.449,112.75 c 0.512,0.703 1.129,1.445 1.852,2.121 0.262,0.234 0.535,0.465 0.828,0.684 -0.035,-0.063 -0.066,-0.121 -0.098,-0.184 -0.996,-0.801 -1.867,-1.711 -2.582,-2.621"
             style="fill:#481f18;fill-opacity:1;fill-rule:nonzero;stroke:none"
             id="path278" />
        </g>
      </g>
      <g
         id="g280">
        <g
           id="g282"
           clip-path="url(#clipPath286)">
          <g
             id="g288"
             clip-path="url(#clipPath292)">
            <path
               d="m 115,110 v 1 h 1 v 2 h 1 v 1 h 1 v 1 h 1 v 1 h 2 v -1 h -1 v -3 h -1 v -1 h -2 v -1 z m 13,5 v 1 h -1 v 1 h -1 v 1 h 5 v -1 h 2 v -1 h 1 v -1"
               style="fill:url(#linearGradient300);fill-opacity:1;fill-rule:nonzero;stroke:none"
               id="path302" />
          </g>
        </g>
      </g>
      <g
         id="g304">
        <g
           id="g306"
           clip-path="url(#clipPath310)">
          <path
             d="m 120.031,115.371 c 0.032,0.063 0.063,0.121 0.098,0.184 0.195,0.148 0.402,0.289 0.613,0.425 -0.039,-0.05 -0.074,-0.101 -0.109,-0.152 -0.203,-0.148 -0.406,-0.301 -0.602,-0.457"
             style="fill:#1e0906;fill-opacity:1;fill-rule:nonzero;stroke:none"
             id="path312" />
        </g>
      </g>
      <g
         id="g314">
        <g
           id="g316"
           clip-path="url(#clipPath320)">
          <g
             id="g322"
             clip-path="url(#clipPath326)">
            <path
               d="m 119,112 v 4 h 2 v -2 h -1 v -2 z m 9,3 v 1 h -2 v 1 h -1 v 1 h 3 v -1 h 1 v -2"
               style="fill:url(#linearGradient334);fill-opacity:1;fill-rule:nonzero;stroke:none"
               id="path336" />
          </g>
        </g>
      </g>
      <g
         id="g338">
        <g
           id="g340"
           clip-path="url(#clipPath344)">
          <path
             d="m 119.824,113.039 c -0.004,0.059 -0.004,0.117 -0.004,0.18 0,0.969 0.301,1.867 0.813,2.609 0.035,0.051 0.07,0.102 0.109,0.152 0.988,0.637 2.133,1.141 3.446,1.375 0.054,0.008 0.113,0.02 0.167,0.028 0.02,0.004 0.04,0.008 0.055,0.008 0.113,0.019 0.223,0.035 0.332,0.05 0.418,0.051 0.828,0.082 1.235,0.098 0.945,-0.344 1.746,-0.988 2.285,-1.816 -0.657,-0.043 -1.301,-0.125 -1.918,-0.235 -0.524,0.442 -1.196,0.711 -1.934,0.711 -1.398,0 -2.574,-0.969 -2.89,-2.269 -0.61,-0.285 -1.176,-0.59 -1.696,-0.891"
             style="fill:#4c4a00;fill-opacity:1;fill-rule:nonzero;stroke:none"
             id="path346" />
          <path
             d="m 121.52,113.93 c 0.316,1.3 1.492,2.269 2.89,2.269 0.738,0 1.41,-0.269 1.934,-0.711 -1.797,-0.32 -3.422,-0.898 -4.824,-1.558"
             style="fill:#302900;fill-opacity:1;fill-rule:nonzero;stroke:none"
             id="path348" />
          <path
             d="m 116.105,110.586 c 0.426,0.863 1.461,2.715 3.196,4.285 -0.723,-0.676 -1.34,-1.418 -1.852,-2.121 -0.594,-0.82 -1.043,-1.594 -1.344,-2.164 m 15.114,6.211 c -1.117,0.344 -2.735,0.715 -4.547,0.746 -0.082,0.004 -0.164,0.004 -0.242,0.004 -0.153,0 -0.301,-0.004 -0.453,-0.008 -0.407,-0.016 -0.817,-0.047 -1.235,-0.098 0.738,0.098 1.43,0.141 2.071,0.141 1.878,0 3.343,-0.367 4.406,-0.785 m -7.031,0.558 c 0.054,0.008 0.109,0.02 0.167,0.028 -0.054,-0.008 -0.113,-0.02 -0.167,-0.028"
             style="fill:#481f18;fill-opacity:1;fill-rule:nonzero;stroke:none"
             id="path350" />
          <path
             d="m 115.648,109.641 c 0,0 3.012,6.484 8.579,7.441 5.57,0.957 9.082,-1.461 9.082,-1.461 l 0.449,0.887 c 0,0 -5.555,3.156 -10.371,1.562 -5.77,-1.91 -7.739,-8.429 -7.739,-8.429"
             style="fill:#481c13;fill-opacity:1;fill-rule:nonzero;stroke:none"
             id="path352" />
        </g>
      </g>
      <g
         id="g354">
        <g
           id="g356"
           clip-path="url(#clipPath360)">
          <g
             id="g362"
             clip-path="url(#clipPath366)">
            <path
               d="m 85,106 v 1 h -5 v 1 h -1 v 1 h -1 v 1 h -1 v 1 h -1 v 6 h 3 v -1 h 3 v -2 h -1 v -2 h 1 v -2 h 2 v -1 h 3 v 1 h 2 v 2 h 1 v 1 h 2 v -1 h 2 v -1 h 1 v -2 h -1 v -2 h -5 v -1"
               style="fill:url(#linearGradient374);fill-opacity:1;fill-rule:nonzero;stroke:none"
               id="path376" />
          </g>
        </g>
      </g>
      <g
         id="g378">
        <g
           id="g380"
           clip-path="url(#clipPath384)">
          <path
             d="m 89.8711,115.555 c -0.1953,0.148 -0.4023,0.289 -0.6133,0.425 -0.0195,0.024 -0.0351,0.047 -0.0547,0.071 0.2227,-0.145 0.4375,-0.301 0.6485,-0.457 0.0078,-0.016 0.0117,-0.028 0.0195,-0.039"
             style="fill:#260c08;fill-opacity:1;fill-rule:nonzero;stroke:none"
             id="path386" />
        </g>
      </g>
      <g
         id="g388">
        <g
           id="g390"
           clip-path="url(#clipPath394)">
          <g
             id="g396"
             clip-path="url(#clipPath400)">
            <path
               d="m 83,108 v 1 h -2 v 2 h -1 v 4 h 1 v 1 h 1 v -5 h 1 v -1 h 1 v -1 h 3 v 1 h 1 v 1 h 1 v 2 h 1 v 1 h 1 v -3 h -1 v -2 h -2 v -1"
               style="fill:url(#linearGradient408);fill-opacity:1;fill-rule:nonzero;stroke:none"
               id="path410" />
          </g>
        </g>
      </g>
      <g
         id="g412">
        <g
           id="g414"
           clip-path="url(#clipPath418)">
          <path
             d="m 80.9961,113.219 c 0,-2.535 2.0547,-4.594 4.5898,-4.594 2.5391,0 4.5938,2.059 4.5938,4.594 0,2.535 -2.0547,4.594 -4.5938,4.594 -2.5351,0 -4.5898,-2.059 -4.5898,-4.594"
             style="fill:#5e6300;fill-opacity:1;fill-rule:nonzero;stroke:none"
             id="path420" />
          <path
             d="m 85.5859,110.238 c -1.6445,0 -2.9765,1.336 -2.9765,2.981 0,0.91 0.4062,1.722 1.0469,2.269 1.8007,-0.32 3.4218,-0.898 4.8242,-1.558 0.0586,-0.227 0.0859,-0.465 0.0859,-0.711 0,-1.645 -1.332,-2.981 -2.9805,-2.981 m -2.9023,2.973 0.2891,-0.731 0.7421,0.532 -1.0312,0.199"
             style="fill:#3c3700;fill-opacity:1;fill-rule:nonzero;stroke:none"
             id="path422" />
          <path
             d="m 94.3516,109.641 c 0,0 -3.0703,8.429 -9.0039,9.918 -4.8907,1.23 -8.1563,-3.344 -8.1563,-3.344 0,0 4.8516,2.265 9.7383,0.883 4.8867,-1.379 7.4219,-7.457 7.4219,-7.457"
             style="fill:#5a2a20;fill-opacity:1;fill-rule:nonzero;stroke:none"
             id="path424" />
          <path
             d="m 94.1172,110.102 -1.1641,-2.536 1.9649,0.512 -0.8008,2.024"
             style="fill:#481c13;fill-opacity:1;fill-rule:nonzero;stroke:none"
             id="path426" />
          <path
             d="m 90.5781,107.141 c 0,0 -5.9453,-1.364 -9.4375,0.105 -3.7695,1.586 -4.8984,5.949 -4.8984,5.949 0,0 1.4726,-4.363 5.4297,-5.629 3.4648,-1.113 8.9062,-0.425 8.9062,-0.425"
             style="fill:#481c13;fill-opacity:1;fill-rule:nonzero;stroke:none"
             id="path428" />
          <path
             d="m 81.75,113.406 c 0.3789,-0.261 -1.1953,-0.523 -2.4297,-0.199 -1.1055,0.289 -1.6992,0.906 -1.6094,1.035 0.086,0.133 2.5508,0.199 4.0391,-0.836"
             style="fill:#ffffff;fill-opacity:1;fill-rule:nonzero;stroke:none"
             id="path430" />
          <path
             d="m 82.6836,113.211 1.0312,-0.199 -0.7421,-0.532 -0.2891,0.731"
             style="fill:#ffffff;fill-opacity:1;fill-rule:nonzero;stroke:none"
             id="path432" />
          <path
             d="m 92.5508,112.75 c -0.7149,0.91 -1.586,1.82 -2.582,2.621 -0.0313,0.063 -0.0625,0.121 -0.0977,0.184 0.293,-0.219 0.5664,-0.45 0.8281,-0.684 0.7227,-0.676 1.3399,-1.418 1.8516,-2.121"
             style="fill:#481f18;fill-opacity:1;fill-rule:nonzero;stroke:none"
             id="path434" />
        </g>
      </g>
      <g
         id="g436">
        <g
           id="g438"
           clip-path="url(#clipPath442)">
          <g
             id="g444"
             clip-path="url(#clipPath448)">
            <path
               d="m 93,110 v 1 h -2 v 1 h -1 v 3 h -1 v 1 h 2 v -1 h 1 v -1 h 1 v -1 h 1 v -2 h 1 v -1 z m -17,5 v 1 h 1 v 1 h 2 v 1 h 5 v -1 h -1 v -1 h -1 v -1"
               style="fill:url(#linearGradient456);fill-opacity:1;fill-rule:nonzero;stroke:none"
               id="path458" />
          </g>
        </g>
      </g>
      <g
         id="g460">
        <g
           id="g462"
           clip-path="url(#clipPath466)">
          <path
             d="m 89.9688,115.371 c -0.1954,0.156 -0.3946,0.309 -0.6016,0.457 -0.0352,0.051 -0.0742,0.102 -0.1094,0.152 0.211,-0.136 0.418,-0.277 0.6133,-0.425 0.0352,-0.063 0.0664,-0.121 0.0977,-0.184"
             style="fill:#1e0906;fill-opacity:1;fill-rule:nonzero;stroke:none"
             id="path468" />
        </g>
      </g>
      <g
         id="g470">
        <g
           id="g472"
           clip-path="url(#clipPath476)">
          <g
             id="g478"
             clip-path="url(#clipPath482)">
            <path
               d="m 90,112 v 2 h -1 v 2 h 2 v -4 z m -9,3 v 2 h 1 v 1 h 3 v -1 h -1 v -1 h -2 v -1"
               style="fill:url(#linearGradient490);fill-opacity:1;fill-rule:nonzero;stroke:none"
               id="path492" />
          </g>
        </g>
      </g>
      <g
         id="g494">
        <g
           id="g496"
           clip-path="url(#clipPath500)">
          <path
             d="m 90.1758,113.039 c -0.5195,0.301 -1.086,0.606 -1.6953,0.891 -0.3164,1.3 -1.4922,2.269 -2.8946,2.269 -0.7343,0 -1.4101,-0.269 -1.9296,-0.711 -0.6172,0.11 -1.2618,0.192 -1.918,0.235 0.539,0.828 1.3398,1.472 2.2851,1.816 0.4063,-0.016 0.8164,-0.047 1.2344,-0.098 0.1094,-0.015 0.2188,-0.031 0.3281,-0.05 0.0196,0 0.0391,-0.004 0.0586,-0.008 0.0547,-0.008 0.1133,-0.02 0.168,-0.028 1.3125,-0.234 2.457,-0.738 3.4453,-1.375 0.0352,-0.05 0.0742,-0.101 0.1094,-0.152 0.5117,-0.742 0.8125,-1.64 0.8125,-2.609 0,-0.063 0,-0.121 -0.0039,-0.18"
             style="fill:#4c4a00;fill-opacity:1;fill-rule:nonzero;stroke:none"
             id="path502" />
          <path
             d="m 88.4805,113.93 c -1.4024,0.66 -3.0235,1.238 -4.8242,1.558 0.5195,0.442 1.1953,0.711 1.9296,0.711 1.4024,0 2.5782,-0.969 2.8946,-2.269"
             style="fill:#302900;fill-opacity:1;fill-rule:nonzero;stroke:none"
             id="path504" />
          <path
             d="m 93.8945,110.586 c -0.3007,0.57 -0.75,1.344 -1.3437,2.164 -0.5117,0.703 -1.1289,1.445 -1.8516,2.121 1.7344,-1.57 2.7696,-3.422 3.1953,-4.285 m -15.1132,6.211 c 1.0625,0.418 2.5273,0.785 4.4062,0.785 0.6406,0 1.332,-0.043 2.0703,-0.141 -0.418,0.051 -0.8281,0.082 -1.2344,0.098 -0.1523,0.004 -0.3007,0.008 -0.4531,0.008 -0.0781,0 -0.1601,0 -0.2422,-0.004 -1.8125,-0.031 -3.4297,-0.402 -4.5468,-0.746 m 7.0312,0.558 c -0.0547,0.008 -0.1133,0.02 -0.168,0.028 0.0586,-0.008 0.1133,-0.02 0.168,-0.028"
             style="fill:#481f18;fill-opacity:1;fill-rule:nonzero;stroke:none"
             id="path506" />
          <path
             d="m 94.3516,109.641 c 0,0 -3.0118,6.484 -8.5782,7.441 -5.5703,0.957 -9.082,-1.461 -9.082,-1.461 l -0.4492,0.887 c 0,0 5.5547,3.156 10.3711,1.562 5.7695,-1.91 7.7383,-8.429 7.7383,-8.429"
             style="fill:#481c13;fill-opacity:1;fill-rule:nonzero;stroke:none"
             id="path508" />
          <path
             d="m 104.738,66.2422 c -6.7497,0 -11.9958,8.582 -12.3005,9.0937 2.1172,-3.0546 5.9844,-6.9648 11.8905,-6.9648 6.27,0 10.266,2.8711 12.66,5.6484 -0.324,-0.4648 -5.515,-7.7773 -12.25,-7.7773"
             style="fill:#461f17;fill-opacity:1;fill-rule:nonzero;stroke:none"
             id="path510" />
          <path
             d="m 90.4375,78.9023 c 0,0 4.1953,-10.5312 13.8905,-10.5312 12.149,0 15.75,10.7734 15.75,10.7734 0,0 -9.922,-1.9843 -16.043,-1.9843 -6.1209,0 -13.5975,1.7421 -13.5975,1.7421"
             style="fill:#75362c;fill-opacity:1;fill-rule:nonzero;stroke:none"
             id="path512" />
          <path
             d="m 88.8633,79.957 c 0,0 1.3203,-2.8047 16.1367,-2.8047 v 2.0469 -2.0469 c 14.816,0 16.137,2.8047 16.137,2.8047 -1.407,-0.9297 -4.301,0.586 -7.727,2.0977 -2.719,1.2031 -5.773,2.4062 -8.687,2.3828 C 97.7695,84.3906 91.5273,78.1953 88.8633,79.957"
             style="fill:#75362c;fill-opacity:1;fill-rule:nonzero;stroke:none"
             id="path514" />
          <path
             d="m 88.8633,79.957 1.0078,0.3321 C 90.25,80.2344 93.0547,77.1523 105,77.1523 c 11.945,0 14.355,3.3282 14.84,3.2149 l 1.297,-0.4102 c 0,0 -3.059,-2.9765 -16.137,-2.9765 -13.0781,0 -16.1367,2.9765 -16.1367,2.9765"
             style="fill:#481c13;fill-opacity:1;fill-rule:nonzero;stroke:none"
             id="path516" />
          <path
             d="m 109.809,73.3906 -0.793,1.5703 7.601,1.5664 c -2.906,-2.5078 -6.808,-3.1367 -6.808,-3.1367"
             style="fill:#ad5c47;fill-opacity:1;fill-rule:nonzero;stroke:none"
             id="path518" />
        </g>
      </g>
    </g>
  </g>
</svg>
