<?xml version="1.0" encoding="UTF-8" standalone="no"?>
<!-- Created with Inkscape (http://www.inkscape.org/) -->

<svg
   version="1.1"
   id="svg2"
   xml:space="preserve"
   width="28"
   height="28"
   viewBox="0 0 28 28"
   sodipodi:docname="a2d485183e598fd0a6d87cc8d68f2c4f.eps"
   xmlns:inkscape="http://www.inkscape.org/namespaces/inkscape"
   xmlns:sodipodi="http://sodipodi.sourceforge.net/DTD/sodipodi-0.dtd"
   xmlns="http://www.w3.org/2000/svg"
   xmlns:svg="http://www.w3.org/2000/svg"><defs
     id="defs6"><clipPath
       clipPathUnits="userSpaceOnUse"
       id="clipPath18"><path
         d="M 210,105 C 210,47.0117 162.988,0 105,0 47.0117,0 0,47.0117 0,105 c 0,57.988 47.0117,105 105,105 57.988,0 105,-47.012 105,-105"
         id="path16" /></clipPath><clipPath
       clipPathUnits="userSpaceOnUse"
       id="clipPath32"><path
         d="M 210,105 C 210,47.0117 162.988,0 105,0 47.0117,0 0,47.0117 0,105 c 0,57.988 47.0117,105 105,105 57.988,0 105,-47.012 105,-105"
         id="path30" /></clipPath><clipPath
       clipPathUnits="userSpaceOnUse"
       id="clipPath38"><path
         d="m 155.789,20.0273 h -3.25 c 0,0 4.949,42.8516 4.957,50.5118 0.024,11.7187 0,17.8554 0,17.8554 0,0 -0.266,0.0274 -0.68,0.0274 -1.351,0 -4.289,-0.3047 -4.683,-2.8985 L 145.004,27.543 c -0.875,0.2109 -1.723,0.4336 -2.539,0.6797 2.734,13.8398 7.828,42.2382 7.828,61.6953 0,0.2265 0,0.4492 -0.004,0.6758 3.93,2.4843 7.563,7.0976 10.109,11.3512 l -4.609,-81.9177 m -11.711,0 h -3.305 c 0,0 0.575,2.6094 1.442,6.9375 h 2.719 l -0.856,-6.9375 m 17.727,63.586 v 0 c -0.321,8.8008 -0.895,15.8164 -1.157,18.7537 1.11,1.895 1.993,3.703 2.582,5.199 0.809,-4.156 1.61,-7.9137 2.364,-11.3863 -1.824,-2.7656 -3.039,-8.0508 -3.789,-12.5664 m -0.789,36.4137 c -1.282,1.098 -2.754,1.446 -3.969,1.481 l 0.004,0.004 c 0,0 -2.75,32.547 -19.563,52.254 0.52,-0.594 12.575,-14.371 15.035,-15.426 0.332,-0.145 0.625,-0.207 0.887,-0.207 1.688,0 1.867,2.648 1.867,2.648 0.825,-1.293 1.317,-2.406 1.379,-3.246 1.184,-15.164 2.731,-27.363 4.36,-37.508"
         id="path36" /></clipPath><linearGradient
       x1="0"
       y1="0"
       x2="1"
       y2="0"
       gradientUnits="userSpaceOnUse"
       gradientTransform="matrix(45.7604,0,0,-45.7604,119.835,96.906)"
       spreadMethod="pad"
       id="linearGradient46"><stop
         style="stop-opacity:1;stop-color:#110807"
         offset="0"
         id="stop40" /><stop
         style="stop-opacity:1;stop-color:#110807"
         offset="0.00558659"
         id="stop42" /><stop
         style="stop-opacity:1;stop-color:#190f0a"
         offset="1"
         id="stop44" /></linearGradient><clipPath
       clipPathUnits="userSpaceOnUse"
       id="clipPath56"><path
         d="M 210,105 C 210,47.0117 162.988,0 105,0 47.0117,0 0,47.0117 0,105 c 0,57.988 47.0117,105 105,105 57.988,0 105,-47.012 105,-105"
         id="path54" /></clipPath><clipPath
       clipPathUnits="userSpaceOnUse"
       id="clipPath128"><path
         d="M 210,105 C 210,47.0117 162.988,0 105,0 47.0117,0 0,47.0117 0,105 c 0,57.988 47.0117,105 105,105 57.988,0 105,-47.012 105,-105"
         id="path126" /></clipPath><clipPath
       clipPathUnits="userSpaceOnUse"
       id="clipPath134"><path
         d="m 91.625,110.461 c -0.3281,0 -0.9766,0.348 -1.6406,0.621 l 1.8164,-0.555 c -0.0274,-0.035 -0.0742,-0.054 -0.1289,-0.062 -0.0156,-0.004 -0.0313,-0.004 -0.0469,-0.004 m 0.1758,0.066 0.293,1.789 c 0.0703,-0.8 -0.0157,-1.445 -0.293,-1.789 M 89,111.379 v 0 c -0.4375,0.062 -2.5078,0.207 -4.9062,0.418 2.5312,0.555 4.4296,2.812 4.4296,5.512 0,0.351 -0.0312,0.695 -0.0937,1.027 2.832,-2.305 3.4922,-4.945 3.6055,-5.512 0.0156,-0.101 0.0273,-0.203 0.039,-0.301 0.0078,-0.062 0.0117,-0.121 0.0196,-0.175 C 91.2813,111.379 89,111.379 89,111.379 m -8.3672,0.75 c -0.0976,0.012 -0.1953,0.019 -0.289,0.031 -0.0625,0.008 -0.129,0.02 -0.1993,0.028 l -0.3125,0.054 c -3.5039,0.645 -6.664,3.461 -7.4531,5.098 0,0 0.1172,-0.328 0.3359,-0.805 -0.4335,0.899 -0.6601,1.715 -0.5039,2.11 0.3985,1.007 3.2539,3.796 6.3243,4.046 0.2187,0.016 0.4453,0.028 0.6796,0.028 0.5235,0 1.086,-0.043 1.668,-0.125 -0.1601,-0.059 -0.3164,-0.129 -0.4687,-0.199 -0.2735,0.015 -0.543,0.023 -0.8047,0.023 -2.9922,0 -5.2344,-1.055 -7.1094,-3.281 0,0 2.582,2.031 6.5117,2.289 -1.0859,-1.016 -1.7656,-2.461 -1.7812,-4.059 l -1.1797,0.43 1.1797,-0.43 c 0,-0.019 0,-0.039 0,-0.058 0,-2.321 1.3984,-4.313 3.4023,-5.18 m -4.3945,0.664 c -0.2578,0.062 -0.461,0.133 -0.6016,0.199 0.1719,-0.07 0.375,-0.137 0.6016,-0.199 m 14.625,3.727 c -0.5508,1.109 -1.3516,2.285 -2.5,3.257 0.164,-0.121 0.3164,-0.242 0.4648,-0.363 0.7735,-0.66 1.4805,-1.723 2.0352,-2.894"
         id="path132" /></clipPath><linearGradient
       x1="0"
       y1="0"
       x2="1"
       y2="0"
       gradientUnits="userSpaceOnUse"
       gradientTransform="matrix(1.46323,10.4248,10.4248,-1.46323,81.763,112.291)"
       spreadMethod="pad"
       id="linearGradient144"><stop
         style="stop-opacity:1;stop-color:#ebdfff"
         offset="0"
         id="stop136" /><stop
         style="stop-opacity:1;stop-color:#ebdfff"
         offset="0.42103214"
         id="stop138" /><stop
         style="stop-opacity:1;stop-color:#bac6f8"
         offset="0.996032"
         id="stop140" /><stop
         style="stop-opacity:1;stop-color:#bac6f8"
         offset="1"
         id="stop142" /></linearGradient><clipPath
       clipPathUnits="userSpaceOnUse"
       id="clipPath154"><path
         d="M 210,105 C 210,47.0117 162.988,0 105,0 47.0117,0 0,47.0117 0,105 c 0,57.988 47.0117,105 105,105 57.988,0 105,-47.012 105,-105"
         id="path152" /></clipPath><clipPath
       clipPathUnits="userSpaceOnUse"
       id="clipPath160"><path
         d="m 87.7695,120.539 c -2.5781,1.992 -6.9101,3.441 -9.914,2.621 -3.0039,-0.82 -5.1914,-3.387 -5.4453,-4.676 -0.2539,-1.285 2.7695,-4.316 4.4101,-5.332 2.4375,-1.507 11.1289,-1.593 12.1797,-1.773 0.9102,-0.156 2.5195,-1.27 2.8008,-0.852 0.9492,1.414 -1.4531,8.02 -4.0313,10.012"
         id="path158" /></clipPath><clipPath
       clipPathUnits="userSpaceOnUse"
       id="clipPath176"><path
         d="M 210,105 C 210,47.0117 162.988,0 105,0 47.0117,0 0,47.0117 0,105 c 0,57.988 47.0117,105 105,105 57.988,0 105,-47.012 105,-105"
         id="path174" /></clipPath><clipPath
       clipPathUnits="userSpaceOnUse"
       id="clipPath194"><path
         d="M 210,105 C 210,47.0117 162.988,0 105,0 47.0117,0 0,47.0117 0,105 c 0,57.988 47.0117,105 105,105 57.988,0 105,-47.012 105,-105"
         id="path192" /></clipPath><clipPath
       clipPathUnits="userSpaceOnUse"
       id="clipPath200"><path
         d="m 92.0352,112.824 c -0.1133,0.567 -0.7735,3.207 -3.6055,5.512 -0.125,0.672 -0.3672,1.305 -0.7031,1.867 0.2226,-0.137 0.4375,-0.281 0.6367,-0.426 1.1484,-0.972 1.9492,-2.148 2.5,-3.257 0.582,-1.223 1.0039,-2.567 1.1719,-3.696 M 72.5,119.137 c 1.875,2.226 4.1172,3.281 7.1094,3.281 0.2617,0 0.5312,-0.008 0.8047,-0.023 -0.5157,-0.254 -0.9883,-0.579 -1.4024,-0.969 C 75.082,121.168 72.5,119.137 72.5,119.137"
         id="path198" /></clipPath><linearGradient
       x1="0"
       y1="0"
       x2="1"
       y2="0"
       gradientUnits="userSpaceOnUse"
       gradientTransform="matrix(1.46323,10.4248,10.4248,-1.46323,81.763,112.291)"
       spreadMethod="pad"
       id="linearGradient208"><stop
         style="stop-opacity:1;stop-color:#ebc4d3"
         offset="0"
         id="stop202" /><stop
         style="stop-opacity:1;stop-color:#baaecd"
         offset="0.996032"
         id="stop204" /><stop
         style="stop-opacity:1;stop-color:#baaecd"
         offset="1"
         id="stop206" /></linearGradient><clipPath
       clipPathUnits="userSpaceOnUse"
       id="clipPath218"><path
         d="M 210,105 C 210,47.0117 162.988,0 105,0 47.0117,0 0,47.0117 0,105 c 0,57.988 47.0117,105 105,105 57.988,0 105,-47.012 105,-105"
         id="path216" /></clipPath><clipPath
       clipPathUnits="userSpaceOnUse"
       id="clipPath232"><path
         d="M 210,105 C 210,47.0117 162.988,0 105,0 47.0117,0 0,47.0117 0,105 c 0,57.988 47.0117,105 105,105 57.988,0 105,-47.012 105,-105"
         id="path230" /></clipPath><clipPath
       clipPathUnits="userSpaceOnUse"
       id="clipPath238"><path
         d="m 118.375,110.461 c -0.078,0 -0.141,0.019 -0.176,0.066 l 1.817,0.555 c -0.192,-0.082 -0.383,-0.164 -0.567,-0.246 -0.445,-0.199 -0.84,-0.375 -1.074,-0.375 m -0.176,0.066 c -0.277,0.344 -0.363,0.989 -0.293,1.789 l 0.293,-1.789 m 2.805,0.852 c 0,0 -2.285,0 -3.098,0.969 0.016,0.152 0.035,0.312 0.059,0.476 0.113,0.563 0.773,3.207 3.605,5.512 -0.062,-0.332 -0.093,-0.676 -0.093,-1.027 0,-2.7 1.894,-4.957 4.429,-5.512 -2.398,-0.211 -4.468,-0.356 -4.902,-0.418 v 0 m 8.363,0.75 c 2.004,0.867 3.403,2.859 3.403,5.18 0,0.019 0,0.039 0,0.058 l 1.179,0.43 -1.179,-0.43 c -0.016,1.598 -0.7,3.043 -1.782,4.059 3.934,-0.258 6.512,-2.289 6.512,-2.289 -1.875,2.226 -4.117,3.281 -7.109,3.281 -0.262,0 -0.532,-0.008 -0.805,-0.023 -0.152,0.07 -0.309,0.14 -0.469,0.199 0.582,0.082 1.145,0.125 1.668,0.125 0.235,0 0.461,-0.012 0.68,-0.028 3.066,-0.25 5.926,-3.039 6.324,-4.046 0.156,-0.395 -0.07,-1.211 -0.504,-2.11 0.219,0.477 0.336,0.805 0.336,0.805 -0.789,-1.637 -3.949,-4.453 -7.453,-5.098 l -0.313,-0.054 c -0.07,-0.008 -0.136,-0.02 -0.199,-0.028 -0.093,-0.012 -0.191,-0.019 -0.289,-0.031 m 4.395,0.664 c 0.226,0.062 0.429,0.129 0.601,0.199 -0.14,-0.066 -0.343,-0.137 -0.601,-0.199 m -14.625,3.727 c 0.554,1.171 1.261,2.234 2.039,2.894 0.144,0.121 0.297,0.242 0.461,0.363 -1.149,-0.976 -1.949,-2.148 -2.5,-3.257"
         id="path236" /></clipPath><linearGradient
       x1="0"
       y1="0"
       x2="1"
       y2="0"
       gradientUnits="userSpaceOnUse"
       gradientTransform="matrix(-1.46323,10.4248,-10.4248,-1.46323,128.237,112.291)"
       spreadMethod="pad"
       id="linearGradient248"><stop
         style="stop-opacity:1;stop-color:#ebdfff"
         offset="0"
         id="stop240" /><stop
         style="stop-opacity:1;stop-color:#ebdfff"
         offset="0.42103214"
         id="stop242" /><stop
         style="stop-opacity:1;stop-color:#bac6f8"
         offset="0.996032"
         id="stop244" /><stop
         style="stop-opacity:1;stop-color:#bac6f8"
         offset="1"
         id="stop246" /></linearGradient><clipPath
       clipPathUnits="userSpaceOnUse"
       id="clipPath258"><path
         d="M 210,105 C 210,47.0117 162.988,0 105,0 47.0117,0 0,47.0117 0,105 c 0,57.988 47.0117,105 105,105 57.988,0 105,-47.012 105,-105"
         id="path256" /></clipPath><clipPath
       clipPathUnits="userSpaceOnUse"
       id="clipPath264"><path
         d="m 122.23,120.539 c 2.579,1.992 6.911,3.441 9.915,2.621 3.003,-0.82 5.191,-3.387 5.445,-4.676 0.254,-1.285 -2.77,-4.316 -4.41,-5.332 -2.438,-1.507 -11.129,-1.593 -12.176,-1.773 -0.914,-0.156 -2.524,-1.27 -2.805,-0.852 -0.949,1.414 1.453,8.02 4.031,10.012"
         id="path262" /></clipPath><clipPath
       clipPathUnits="userSpaceOnUse"
       id="clipPath280"><path
         d="M 210,105 C 210,47.0117 162.988,0 105,0 47.0117,0 0,47.0117 0,105 c 0,57.988 47.0117,105 105,105 57.988,0 105,-47.012 105,-105"
         id="path278" /></clipPath><clipPath
       clipPathUnits="userSpaceOnUse"
       id="clipPath300"><path
         d="M 210,105 C 210,47.0117 162.988,0 105,0 47.0117,0 0,47.0117 0,105 c 0,57.988 47.0117,105 105,105 57.988,0 105,-47.012 105,-105"
         id="path298" /></clipPath><clipPath
       clipPathUnits="userSpaceOnUse"
       id="clipPath306"><path
         d="m 117.965,112.824 c 0.117,0.789 0.359,1.688 0.695,2.574 0.141,0.379 0.301,0.754 0.477,1.122 0.551,1.109 1.351,2.281 2.5,3.257 0.199,0.145 0.414,0.289 0.636,0.426 -0.335,-0.562 -0.578,-1.195 -0.703,-1.867 -2.832,-2.305 -3.492,-4.949 -3.605,-5.512 m 19.535,6.313 c 0,0 -2.578,2.031 -6.512,2.289 -0.414,0.39 -0.886,0.715 -1.402,0.969 0.273,0.015 0.543,0.023 0.805,0.023 2.992,0 5.234,-1.055 7.109,-3.281"
         id="path304" /></clipPath><linearGradient
       x1="0"
       y1="0"
       x2="1"
       y2="0"
       gradientUnits="userSpaceOnUse"
       gradientTransform="matrix(-1.46323,10.4248,-10.4248,-1.46323,128.237,112.291)"
       spreadMethod="pad"
       id="linearGradient314"><stop
         style="stop-opacity:1;stop-color:#ebc4d3"
         offset="0"
         id="stop308" /><stop
         style="stop-opacity:1;stop-color:#baaecd"
         offset="0.996032"
         id="stop310" /><stop
         style="stop-opacity:1;stop-color:#baaecd"
         offset="1"
         id="stop312" /></linearGradient><clipPath
       clipPathUnits="userSpaceOnUse"
       id="clipPath324"><path
         d="M 210,105 C 210,47.0117 162.988,0 105,0 47.0117,0 0,47.0117 0,105 c 0,57.988 47.0117,105 105,105 57.988,0 105,-47.012 105,-105"
         id="path322" /></clipPath></defs><sodipodi:namedview
     id="namedview4"
     pagecolor="#ffffff"
     bordercolor="#666666"
     borderopacity="1.0"
     inkscape:pageshadow="2"
     inkscape:pageopacity="0.0"
     inkscape:pagecheckerboard="0" /><g
     id="g8"
     inkscape:groupmode="layer"
     inkscape:label="ink_ext_XXXXXX"
     transform="matrix(1.3333333,0,0,-1.3333333,0,27.999999)"><g
       id="g10"
       transform="scale(0.1)"><g
         id="g12"><g
           id="g14"
           clip-path="url(#clipPath18)"><path
             d="M 210,105 C 210,47.0117 162.988,0 105,0 47.0117,0 0,47.0117 0,105 c 0,57.988 47.0117,105 105,105 57.988,0 105,-47.012 105,-105"
             style="fill:#e2c7ea;fill-opacity:1;fill-rule:nonzero;stroke:none"
             id="path20" /><path
             d="m 170.137,20.0273 h -3.508 c 0,0 6.922,25.7657 -1.524,69.4805 2.333,-40.25 -4.675,-69.4805 -4.675,-69.4805 h -1.41 c 0,0 3.296,49.3672 2.785,63.586 -0.426,11.707 -1.297,20.2537 -1.297,20.2537 L 155.789,20.0273 H 50.4492 c 0,0 0.2071,45.7813 0.2539,50.8243 l 0.0117,0.5117 -0.4296,-2.2539 c -1.5039,-8.3008 -1.9844,-16.918 -2.0196,-24.293 -0.0508,-10.207 0.7578,-23.2422 0.9063,-24.5859 l 0.0234,-0.2032 h -8.7187 c 0,0 -3.168,24.3907 0.1718,48.1368 0.793,5.6289 1.9454,11.5156 3.6016,17.4687 5.2578,18.9142 2.043,27.6522 2.043,47.3552 0,0.992 0.0078,2.383 0.0234,3.996 V 137 c 0.0899,6.711 0.4531,17.316 1.9063,19.793 1.75,2.969 10.2031,11.008 14.8046,15.16 4.2422,3.824 8.379,6.215 11.7696,7.723 3.1445,1.41 5.957,1.992 8.625,2.066 h 0.0234 c 7.0469,0.203 13.1172,-3.144 21.7967,-4.457 l 13.422,8.969 c 10.289,0.144 31.074,-16.789 36.613,-25.473 0.825,-1.293 1.317,-2.406 1.379,-3.246 2.293,-29.359 5.942,-47.605 8.938,-61.3553 2.019,-9.2695 3.73,-16.5 4.543,-23.7188 1.679,-15.0976 0,-52.4336 0,-52.4336"
             style="fill:#19100b;fill-opacity:1;fill-rule:nonzero;stroke:none"
             id="path22" /><path
             d="m 67.1992,88.3945 4.5586,-68.3672 h -4.9297 c 0,0 -4.5586,34.7266 -4.5429,44.961 0.0273,12.3047 -1.7266,17.9726 -1.7266,17.9726 0,0 -1.2227,0.8399 -2.6992,-1.6093 l 4.1133,-61.3243 h -7.4258 c 0,0 -1.2656,52.9571 1.7422,64.8985 L 50.7188,70.9102 50.7031,70.8516 50.2852,69.1094 c -1.625,-7.2188 -2.0547,-16.2813 -2.0196,-24.293 0.0391,-9.7812 0.7774,-23.2031 0.9063,-24.5859 l 0.0234,-0.2032 H 45.1094 C 35.4023,31.418 55.8398,91.8008 48.1484,85.0195 45.2148,82.4297 40.7773,67.8047 40.7773,67.8047 l -0.1289,0.3594 c 0.793,5.6289 1.9454,11.5156 3.6016,17.4687 5.2578,18.9142 2.043,27.6522 2.043,47.3552 0,0.992 0.0078,2.383 0.0234,3.996 0.0313,-0.25 0.4414,-3.308 2.3399,-3.996 0,0 1.3593,-2.324 5.8007,15.106 2.5118,9.863 5.5157,18.109 8.5703,23.859 4.2422,3.824 8.379,6.215 11.7696,7.723 3.1445,1.41 5.957,1.992 8.625,2.066 h 0.0234 L 83.875,181.699 67.1992,88.3945"
             style="fill:#19100b;fill-opacity:1;fill-rule:evenodd;stroke:none"
             id="path24" /></g></g><g
         id="g26"><g
           id="g28"
           clip-path="url(#clipPath32)"><g
             id="g34"
             clip-path="url(#clipPath38)"><path
               d="m 140,20 v 2 h 1 v 4 h 1 v 1 h 1 v 1 h -1 v 3 h 1 v 6 h 1 v 5 h 1 v 7 h 1 v 6 h 1 v 7 h 1 v 9 h 1 v 11 h 1 v 10 h 2 v 1 h 1 v 1 h 1 v 1 h 1 v 1 h 1 v 2 h 1 v 1 h 1 v 1 h 1 v 2 h 1 v 1 h 1 v 3 h 1 v 2 h 2 v -4 h 1 v -5 h 1 v -4 h -1 v -3 h -1 v -3 h -1 v -5 h -1 v -1 h -1 v 11 h -1 V 77 h -1 V 59 h -1 V 41 h -1 V 23 h -1 v -3 h -4 v 5 h 1 v 9 h 1 v 9 h 1 v 9 h 1 v 11 h 1 v 25 h -2 v -1 h -2 v -3 h -1 v -8 h -1 v -8 h -1 v -8 h -1 v -9 h -1 v -8 h -1 v -8 h -1 v -8 h -1 v -7 z m 19,100 v 1 h -2 v 1 h -1 v 6 h -1 v 6 h -1 v 4 h -1 v 4 h -1 v 3 h -1 v 3 h -1 v 3 h -1 v 2 h -1 v 3 h -1 v 2 h -1 v 2 h -1 v 2 h -1 v 2 h -1 v 2 h -1 v 1 h -1 v 2 h -1 v 1 h -1 v 1 h -1 v 2 h -1 v 1 h 2 v -1 h 1 v -2 h 1 v -1 h 1 v -1 h 1 v -1 h 1 v -1 h 1 v -1 h 1 v -1 h 1 v -1 h 1 v -1 h 1 v -1 h 1 v -1 h 1 v -1 h 1 v -1 h 2 v 1 h 1 v 1 h 1 v -1 h 1 v -6 h 1 v -10 h 1 v -9 h 1 v -7 h 1 v -7 h 1 v -1"
               style="fill:url(#linearGradient46);fill-opacity:1;fill-rule:nonzero;stroke:none"
               id="path48" /></g></g></g><g
         id="g50"><g
           id="g52"
           clip-path="url(#clipPath56)"><path
             d="M 140.773,20.0273 H 70.2148 c 0,0 -9.0351,48.8829 -6.3046,91.2887 l 21.2265,43.52 h 29.7223 c 0,0 30.477,-24.262 34.848,-55.0743 3.375,-23.75 -8.934,-79.7344 -8.934,-79.7344"
             style="fill:#19100b;fill-opacity:1;fill-rule:nonzero;stroke:none"
             id="path58" /><path
             d="m 123.129,20.0273 h -0.313 0.313 m -35.5392,0 h -8.6679 8.4219 v 0 h 0.246"
             style="fill:#1e130d;fill-opacity:1;fill-rule:nonzero;stroke:none"
             id="path60" /><path
             d="m 140.773,20.0273 h -2.339 l 1.05,6.9375 h 2.731 c -0.867,-4.3281 -1.442,-6.9375 -1.442,-6.9375 v 0 m -12.988,0 h -1.32 -3.336 l 1.922,6.9375 h 4.418 c -1.024,-4.2187 -1.684,-6.9375 -1.684,-6.9375 m -11.988,0 v 0 H 105.242 92.6641 l -1.4297,6.9375 h 13.0116 12.988 c -0.863,-4.1484 -1.437,-6.9375 -1.437,-6.9375 m -28.4532,0 h -8.4219 l -1.5274,6.9375 h 8.418 c 0.9063,-4.1757 1.5313,-6.9375 1.5313,-6.9375 m -17.129,0 c 0,0 -0.4687,2.5313 -1.1562,6.9375 h 0.5234 c 0.3711,-4.2148 0.6328,-6.9375 0.6328,-6.9375 m 72.2502,8.1954 c -0.922,0.2773 -1.805,0.5742 -2.652,0.8945 l 7.707,50.8437 c -2.809,-1.5625 -7.036,-6.6757 -7.036,-6.6757 -0.988,-4.6758 -5.929,-25.2461 -9.347,-39.4063 -1.239,0.9531 -2.344,1.9609 -3.336,3 l 8.57,30.8945 c 0,0 -9.906,-3.5117 -11.07,-5.0586 -0.403,-0.5351 -1.996,-7.4335 -3.766,-15.5351 -0.015,0.043 -0.027,0.0859 -0.043,0.125 -0.336,0.9766 -0.504,3.1797 -0.57,5.9414 0.004,0 0,0 0,0 l 0.254,9.6523 c 0.906,0.4922 1.863,1.0274 2.887,1.6055 1.07,0.6016 2.117,1.2188 3.136,1.8438 l 0.012,0.0039 c 1.273,0.7812 2.512,1.5781 3.691,2.3828 0.121,0.0781 0.239,0.1601 0.36,0.2422 -0.176,-0.1602 -0.301,-0.2774 -0.375,-0.3477 6.371,4.1719 11.144,8.582 12.347,12.375 0.329,1.0274 0.86,3.8438 1.496,7.75 0.012,0 0.024,0 0.032,0 1.851,0 3.722,0.6953 5.527,1.8399 0.004,-0.2266 0.004,-0.4493 0.004,-0.6758 0,-19.4571 -5.094,-47.8555 -7.828,-61.6953 m -73.7423,0.9101 c -2.0079,13.2422 -5.3243,39.1055 -5.3243,65.2656 0,2.1172 0.0196,4.2422 0.0664,6.3596 1.3711,-9.7697 2.6915,-17.8478 3.2969,-19.7541 1.2188,-3.8359 6.0821,-8.2969 12.5547,-12.5078 l 0.1211,0.0078 1.9219,-1.2578 0.0234,-0.0156 c 1.461,-0.9297 2.9844,-1.8399 4.5547,-2.7266 0.5156,-0.293 1.0156,-0.5742 1.5,-0.8437 l 0.1172,-3.0039 v 0 C 87.6719,54.918 87.6133,49.2188 87.0313,47.3789 l -1.8946,9.1836 C 84.2422,60.457 79.2031,64.2539 79.2031,64.2539 79.2773,59.9336 81.1797,49.4727 83.125,39.8086 81.3594,37.3672 79.0586,35 76.0781,32.9453 l -8.8789,40.3399 c -1.1094,-3.918 0.9297,-29.6993 2.168,-43.9024 -0.2109,-0.0859 -0.4258,-0.168 -0.6445,-0.25"
             style="fill:#1e130d;fill-opacity:1;fill-rule:nonzero;stroke:none"
             id="path62" /><path
             d="m 121.492,47.3047 c -1.347,3.9101 0,27.6133 0,27.6133 l -17.246,-1.125 -17.2421,1.125 c 0,0 1.3477,-23.7032 0,-27.6133 C 84.293,39.4414 77.2734,29.8828 60.6719,26.9648 h 43.5741 43.578 c -16.597,2.918 -23.621,12.4766 -26.332,20.3399"
             style="fill:#f9ab80;fill-opacity:1;fill-rule:nonzero;stroke:none"
             id="path64" /><path
             d="m 87.5547,60.6563 c 0,0 14.4653,-12.8516 33.3673,-7.4102 l 0.57,21.6719 c 0,0 -9.965,-7.1094 -34.4607,-0.9688 l 0.5234,-13.2929"
             style="fill:#ff996c;fill-opacity:1;fill-rule:nonzero;stroke:none"
             id="path66" /><path
             d="M 183.234,26.2109 C 188.234,17.0938 107.352,-15 107.352,-15 c 0,0 -87.645,24.74219 -83.8207,34.7422 22.3515,17.3516 53.125,17.8398 53.6132,19.0586 1.1407,2.8555 2.4453,4.293 2.4453,4.293 4.1524,0 4.5274,-1.8165 4.5274,-1.8165 0,0 2.2031,-13.6523 23.1368,-13.6523 13.488,0 18.441,11.7852 18.441,11.7852 l -1.062,1.4765 2.109,1.586 4.024,-5.1875 c 3.379,-2.375 38.273,1.2226 52.468,-11.0743"
             style="fill:#8709b5;fill-opacity:1;fill-rule:nonzero;stroke:none"
             id="path68" /><path
             d="m 62.1484,115.457 c 0,0 -4.0703,6.059 -8.9726,6.055 -2.8203,0 -7.25,-1.602 -7.2344,-10.821 0.0039,-4.05 10.4063,-22.9371 20.0742,-21.8941 l -3.8672,26.6601"
             style="fill:#f9ab80;fill-opacity:1;fill-rule:nonzero;stroke:none"
             id="path70" /><path
             d="m 48.6797,108.531 c 0,0.414 -2.4453,9.192 3.3086,8.278 7,-1.11 10.039,-17.8168 10.039,-17.8168 0,0 -0.9335,3.2268 -3.3125,3.6408 -2.3789,0.414 -1.6679,-6.4142 -3.625,-5.0705 -1.9609,1.3477 -3.0078,13.7615 0,14.3825 0,0 -1.9765,1.879 -4.0234,1.676 -2.7969,-0.285 -2.3867,-5.09 -2.3867,-5.09"
             style="fill:#ff996c;fill-opacity:1;fill-rule:nonzero;stroke:none"
             id="path72" /><path
             d="m 147.852,115.457 c 0,0 4.07,6.059 8.972,6.055 2.821,0 7.25,-1.602 7.235,-10.821 -0.004,-4.05 -10.407,-22.9371 -20.075,-21.8941 l 3.868,26.6601"
             style="fill:#f9ab80;fill-opacity:1;fill-rule:nonzero;stroke:none"
             id="path74" /><path
             d="m 161.32,108.156 c 0,0.414 2.446,9.192 -3.308,8.278 -7,-1.11 -10.039,-17.8129 -10.039,-17.8129 0,0 0.933,3.2269 3.312,3.6409 1.117,0.191 1.555,-1.211 1.903,-2.6175 0.398,-1.582 0.683,-3.1679 1.722,-2.4531 1.961,1.3438 3.008,13.7616 0,14.3786 0,0 1.977,1.883 4.024,1.676 2.796,-0.281 2.386,-5.09 2.386,-5.09"
             style="fill:#ff996c;fill-opacity:1;fill-rule:nonzero;stroke:none"
             id="path76" /><path
             d="m 143.262,81.6172 c -1.203,-3.9492 -5.981,-8.543 -12.36,-12.8828 -1.179,-0.8047 -2.418,-1.6016 -3.691,-2.3828 l -0.012,-0.0039 c -1.019,-0.625 -2.066,-1.2422 -3.136,-1.8438 -9.555,-5.3945 -13.563,-6.9101 -18.993,-6.9375 v 0 h -0.14 v 0 c -5.43,0.0274 -9.4378,1.543 -18.9925,6.9375 -1.5703,0.8867 -3.0937,1.7969 -4.5547,2.7266 l -0.0234,0.0156 -2.0625,1.3516 C 72.8203,72.9805 67.9531,77.625 66.7344,81.6172 65.1289,86.8828 58.5195,137.152 59.1797,146 c 0.2851,3.797 3.957,10.43 10.1211,16.781 8.1914,8.43 20.7734,16.344 35.6292,16.395 v 0 h 0.14 v 0 c 15.875,-0.055 29.153,-9.086 37.25,-18.133 v -0.004 c 5.184,-5.793 8.243,-11.59 8.5,-15.039 0.66,-8.848 -5.949,-59.1172 -7.558,-64.3828"
             style="fill:#f9ab80;fill-opacity:1;fill-rule:nonzero;stroke:none"
             id="path78" /><path
             d="m 127.199,66.3477 c -1.019,-0.625 -2.066,-1.2422 -3.136,-1.8438 -9.555,-5.3945 -13.563,-6.9101 -18.993,-6.9375 v 0 h -0.14 v 0 c -5.43,0.0274 -9.4378,1.543 -18.9925,6.9375 -1.5703,0.8867 -3.0937,1.7969 -4.5547,2.7266 0.6563,-0.375 14.75,-8.3867 23.6332,-8.3867 8.957,0 21.785,7.2773 22.183,7.5039"
             style="fill:#ff8a5c;fill-opacity:1;fill-rule:nonzero;stroke:none"
             id="path80" /><path
             d="m 143.234,81.0039 c -1.203,-3.793 -5.976,-8.2031 -12.347,-12.375 0.914,0.8867 10.261,8.9063 11.957,18.8281 1.781,10.4375 1.742,20.602 -1.25,22.125 -1.254,0.637 -4.906,0.156 -8.903,-0.324 -5.562,-0.668 -11.793,-1.34 -13.125,1.015 -2.339,10.899 -1.816,21.457 -0.929,22.743 3.66,5.277 23.605,2.922 27.265,-2.571 0,0 0.68,19.153 -3.605,26.832 5.176,-5.562 8.234,-11.129 8.492,-14.441 0.656,-8.5 -5.945,-56.7774 -7.555,-61.8321"
             style="fill:#ff996c;fill-opacity:1;fill-rule:nonzero;stroke:none"
             id="path82" /><path
             d="m 91.6289,110.273 c -1.3281,-2.355 -7.5586,-1.683 -13.125,-1.015 -3.9961,0.48 -7.6484,0.961 -8.8984,0.324 -2.9922,-1.523 -3.0352,-10.4648 -1.25,-20.9023 2.4453,-14.3242 11.3633,-19.4922 12.0312,-20.1211 l -1.0703,-0.0625 c -6.4726,4.2109 -11.3359,8.6719 -12.5547,12.5078 -1.6015,5.0547 -8.2109,53.3321 -7.5508,61.8321 0.2852,3.644 3.9571,10.016 10.1172,16.113 l -0.4218,-1.668 c -4.2891,-7.679 -3.6133,-26.836 -3.6133,-26.836 3.664,5.493 23.6133,7.848 27.2656,2.571 0.8906,-1.286 1.4141,-11.844 -0.9297,-22.743"
             style="fill:#ff996c;fill-opacity:1;fill-rule:nonzero;stroke:none"
             id="path84" /><path
             d="m 157.051,121.512 -1.856,-1.305 c -1.84,-1.449 -3.257,-3.074 -4.336,-4.598 -1.179,-1.671 -1.957,-3.234 -2.429,-4.359 v -0.004 c -0.442,-1.035 -0.621,-1.687 -0.621,-1.687 0,0 -6.036,25.558 -11.438,37.996 -11.07,25.511 -19.891,21.746 -19.891,21.746 -26.2495,7.844 -35.8003,-1.867 -44.0972,-23.184 -8.2969,-21.312 -10.793,-29.617 -10.793,-29.617 0,0 -1.7695,2.332 -4.375,3.934 l -0.8125,0.461 c 0,0 -2.5781,28.105 4.1563,39.886 11.5391,20.172 24.9336,28.875 32.2734,29.188 5.125,0.215 12.965,-8.594 15.277,-9.617 0,0 8.371,7.277 12.95,5.488 31.601,-12.367 35.992,-64.328 35.992,-64.328"
             style="fill:#1e130e;fill-opacity:1;fill-rule:nonzero;stroke:none"
             id="path86" /><path
             d="m 148.43,111.25 v -0.004 c -0.442,-1.035 -0.621,-1.687 -0.621,-1.687 0,0 -6.036,25.558 -11.438,37.996 -11.07,25.511 -19.891,21.746 -19.891,21.746 -26.2495,7.844 -35.8003,-1.867 -44.0972,-23.184 -8.2969,-21.312 -10.793,-29.617 -10.793,-29.617 0,0 -1.7695,2.332 -4.375,3.934 l 1.2735,2.398 c 2.1836,28.035 7.6719,36.867 7.8828,37.508 -0.3555,-8.914 -4.0664,-28.418 -5.3398,-36.699 -0.1524,-1.004 0.832,-3.969 0.832,-3.969 9.5703,15.797 10.1523,44.328 16.4375,57.473 6.2851,13.14 19.1367,7.675 23.6722,3.207 3.648,-3.602 11.664,-8.832 13.871,-9.973 -0.098,0.351 -1.524,15.055 2.82,13.836 1.926,-0.539 15.297,-6.324 23.719,-42.844 2.707,-11.742 5.082,-27.504 6.047,-30.121"
             style="fill:#19100b;fill-opacity:1;fill-rule:nonzero;stroke:none"
             id="path88" /><path
             d="m 150.859,115.609 c -10.316,12.571 -8.058,45.657 -8.058,46.137 0.094,-0.328 1.492,-18 12.394,-41.539 -1.84,-1.449 -3.257,-3.074 -4.336,-4.598 v 0"
             style="fill:#221610;fill-opacity:1;fill-rule:nonzero;stroke:none"
             id="path90" /><path
             d="m 115.793,96.9648 c -0.063,-1.6718 -4.262,-2.1953 -7.633,-3.875 -1.668,-0.832 -3.121,-0.5195 -3.121,-0.5195 h -0.078 c 0,0 -1.453,-0.3125 -3.117,0.5195 -3.3713,1.6797 -7.5745,2.2032 -7.637,3.875 -0.0976,2.4805 0.2657,4.0192 0.7969,5.0192 l 0.0039,0.004 c 0.7735,1.461 1.9141,1.785 2.5195,2.235 1.0196,0.757 4.1757,9.328 7.4527,9.402 v 0 h 0.04 v 0 c 3.277,-0.074 6.433,-8.645 7.453,-9.402 0.605,-0.453 1.746,-0.774 2.523,-2.235 0.531,-1.004 0.895,-2.5427 0.797,-5.0232"
             style="fill:#f9ab80;fill-opacity:1;fill-rule:nonzero;stroke:none"
             id="path92" /><path
             d="m 115.793,96.9648 c -0.063,-1.6718 -4.262,-2.1953 -7.633,-3.875 -1.668,-0.832 -3.121,-0.5195 -3.121,-0.5195 h -0.078 c 0,0 -1.453,-0.3125 -3.117,0.5195 -3.3713,1.6797 -7.5745,2.2032 -7.637,3.875 -0.0976,2.4805 0.2657,4.0192 0.7969,5.0192 l 0.0039,0.004 C 94.7148,97.4453 95,96.6563 96.6094,96.6406 c 2.289,-0.0195 1.707,2.0508 3.5356,0.9219 1.421,-0.875 3.91,-1.9141 4.855,-1.9141 1.254,0 4.793,1.8672 5.926,2.2461 0.801,0.2735 1.234,-1.4492 3.09,-1.0859 2.382,0.4648 1.269,3.6994 0.98,5.1794 0.531,-1.004 0.895,-2.5427 0.797,-5.0232"
             style="fill:#ff996c;fill-opacity:1;fill-rule:nonzero;stroke:none"
             id="path94" /><path
             d="m 96.3672,95.1914 c -0.4297,0.7969 2.3281,0.4141 3.2695,-0.0781 0.9453,-0.4922 0.2735,-1.1914 0.2735,-1.1914 l -3.543,1.2695"
             style="fill:#5e0d00;fill-opacity:1;fill-rule:nonzero;stroke:none"
             id="path96" /><path
             d="m 113.656,95.1914 c 0.43,0.7969 -2.769,0.4141 -3.715,-0.0781 -0.945,-0.4922 0.168,-1.1914 0.168,-1.1914 l 3.547,1.2695"
             style="fill:#5e0d00;fill-opacity:1;fill-rule:nonzero;stroke:none"
             id="path98" /><path
             d="m 95.4102,102.613 c 0,0 1.9882,2.387 3.7656,0.457 1.7732,-1.929 -0.0703,-5.1833 -0.0703,-5.1833 l 1.0395,-0.3242 c 0,0 -0.082,2.9215 0.64,4.4255 0.723,1.504 0.871,9.242 0.473,8.547 l -3.7307,-6.312 -2.1171,-1.61"
             style="fill:#ff996c;fill-opacity:1;fill-rule:nonzero;stroke:none"
             id="path100" /><path
             d="m 114.664,102.613 c 0,0 -2.07,2.387 -3.848,0.457 -1.777,-1.929 0.485,-5.1833 0.485,-5.1833 l -1.266,-0.3515 c 0,0 0.078,2.9488 -0.644,4.4528 -0.723,1.504 -1.075,9.282 -0.676,8.586 l 3.828,-6.351 2.121,-1.61"
             style="fill:#ff996c;fill-opacity:1;fill-rule:nonzero;stroke:none"
             id="path102" /><path
             d="m 109.32,99.8438 -1.187,-1.4375 1.109,0.3203 z"
             style="fill:#ffffff;fill-opacity:1;fill-rule:nonzero;stroke:none"
             id="path104" /><path
             d="m 90.6914,80.3867 c 0,0 5.4961,-8.832 14.3206,-8.832 8.824,0 14.324,8.832 14.324,8.832 0,0 -4.762,-0.625 -8.969,-1.4531 -4.207,-0.8242 -7.984,-0.875 -11.824,0 -3.836,0.8789 -7.3594,1.2266 -7.8516,1.4531"
             style="fill:#ff8a5c;fill-opacity:1;fill-rule:nonzero;stroke:none"
             id="path106" /><path
             d="m 109.273,84.207 c -3.488,0.4453 -3.902,-0.1992 -4.472,-0.1992 -0.512,0 -0.281,0.707 -3.871,0.2656 -3.8323,-0.4765 -11.3519,-3.2265 -11.3519,-3.2265 0,0 0.8047,-1.086 5.7227,-1.6914 4.9182,-0.6094 9.5002,-0.4024 9.5002,-0.4024 0,0 5.004,-0.207 9.922,0.4024 4.918,0.6054 5.722,1.6914 5.722,1.6914 0,0 -7.343,2.6719 -11.172,3.1601"
             style="fill:#ff8a5c;fill-opacity:1;fill-rule:nonzero;stroke:none"
             id="path108" /><path
             d="m 119.742,83.4258 c 0,0 1.543,-1.9414 1.969,-4.1289 0,0 0.492,2.4609 -0.43,3.5664 -0.918,1.1055 -1.539,0.5625 -1.539,0.5625"
             style="fill:#ff996c;fill-opacity:1;fill-rule:nonzero;stroke:none"
             id="path110" /><path
             d="m 90.2539,83.5508 c 0,0 -1.543,-1.9453 -1.9609,-4.1367 0,0 -0.5,2.4609 0.4218,3.5703 0.918,1.1094 1.5391,0.5664 1.5391,0.5664"
             style="fill:#ff996c;fill-opacity:1;fill-rule:nonzero;stroke:none"
             id="path112" /><path
             d="m 109.254,72.6953 -0.867,4.1289 c 0.187,0.8789 2.054,1.1133 3.965,1.1133 2.121,0 4.3,-0.2852 4.3,-0.2852 -2.433,-3.4609 -7.398,-4.957 -7.398,-4.957"
             style="fill:#ffa877;fill-opacity:1;fill-rule:nonzero;stroke:none"
             id="path114" /><path
             d="m 90.6914,80.3867 c 0,0 1.2695,-0.2969 4.2891,-0.6406 3.0156,-0.3438 11.8515,-0.625 16.1835,-0.4766 2.074,0.0703 7.774,0.5235 9.281,1.7774 0,0 -1.472,-1.2735 -4.922,-1.793 -10.511,-1.5781 -13.418,-1.0234 -18.066,-0.4453 -4.3632,0.5469 -6.7656,1.5781 -6.7656,1.5781"
             style="fill:#5e0d00;fill-opacity:1;fill-rule:nonzero;stroke:none"
             id="path116" /><path
             d="m 89.5781,82.5547 c 0,0 -0.7656,-1.1953 -1.0273,-2.168 l 3.6094,-0.4648 -2.5821,1.125 v 1.5078"
             style="fill:#5e0d00;fill-opacity:1;fill-rule:nonzero;stroke:none"
             id="path118" /><path
             d="m 120.359,82.5547 c 0,0 0.766,-1.1953 1.028,-2.168 l -3.61,-0.4648 2.582,1.125 v 1.5078"
             style="fill:#5e0d00;fill-opacity:1;fill-rule:nonzero;stroke:none"
             id="path120" /></g></g><g
         id="g122"><g
           id="g124"
           clip-path="url(#clipPath128)"><g
             id="g130"
             clip-path="url(#clipPath134)"><path
               d="m 90,110 v 1 h -6 v 2 h 2 v 1 h 1 v 2 h 1 v 4 h 2 v -2 h 1 v -2 h 1 v -3 h 1 v -2 h -1 v -1 z m -15,2 v 2 h -1 v 1 h -1 v 1 h -1 v 4 h 1 v 1 h 1 v 1 h 2 v 1 h 5 v -1 h -1 v -1 h -1 v -1 h -1 v -5 h 1 v -1 h 1 v -1 h 1 v -1"
               style="fill:url(#linearGradient144);fill-opacity:1;fill-rule:nonzero;stroke:none"
               id="path146" /></g></g></g><g
         id="g148"><g
           id="g150"
           clip-path="url(#clipPath154)"><g
             id="g156"
             clip-path="url(#clipPath160)"><path
               d="m 88.5234,117.309 c 0,-3.118 -2.5273,-5.645 -5.6484,-5.645 -3.1172,0 -5.6445,2.527 -5.6445,5.645 0,3.121 2.5273,5.648 5.6445,5.648 3.1211,0 5.6484,-2.527 5.6484,-5.648"
               style="fill:#230800;fill-opacity:1;fill-rule:nonzero;stroke:none"
               id="path162" /><path
               d="m 87.9844,117.309 c 0,-2.821 -2.2852,-5.106 -5.1094,-5.106 -2.8203,0 -5.1055,2.285 -5.1055,5.106 0,2.824 2.2852,5.109 5.1055,5.109 2.8242,0 5.1094,-2.285 5.1094,-5.109"
               style="fill:#3f1200;fill-opacity:1;fill-rule:nonzero;stroke:none"
               id="path164" /><path
               d="m 86.0508,117.309 c 0,-1.75 -1.4219,-3.172 -3.1758,-3.172 -1.75,0 -3.1719,1.422 -3.1719,3.172 0,1.754 1.4219,3.175 3.1719,3.175 1.7539,0 3.1758,-1.421 3.1758,-3.175"
               style="fill:#230800;fill-opacity:1;fill-rule:nonzero;stroke:none"
               id="path166" /><path
               d="m 78.7109,116.824 -2.6601,0.973 2.6601,-0.973"
               style="fill:#fffbf8;fill-opacity:1;fill-rule:nonzero;stroke:none"
               id="path168" /></g></g></g><g
         id="g170"><g
           id="g172"
           clip-path="url(#clipPath176)"><path
             d="m 92.5391,113 c 0,0 1.0742,3.059 -0.3672,5.867 -1.4414,2.813 -5.3047,4.067 -5.3047,4.067 0,0 5.3828,-2.45 5.6719,-9.934"
             style="fill:#ff996c;fill-opacity:1;fill-rule:nonzero;stroke:none"
             id="path178" /><path
             d="M 92.1016,112.355 C 91.3008,111.379 89,111.379 89,111.379 l 2.8008,-0.852 0.3008,1.828"
             style="fill:#ff8a5c;fill-opacity:1;fill-rule:nonzero;stroke:none"
             id="path180" /><path
             d="m 72.3789,117.34 c 0.7891,-1.637 3.9492,-4.453 7.4531,-5.098 l 0.3125,-0.054 c 3.625,-0.528 -2.5312,0.007 -4.5078,0.804 -1.9765,0.797 -3.2578,4.348 -3.2578,4.348"
             style="fill:#ff8a5c;fill-opacity:1;fill-rule:nonzero;stroke:none"
             id="path182" /><path
             d="m 71.3711,117.234 c -1.0469,-1.832 -0.7578,-3.414 0.0742,-3.929 1.1797,-0.727 4.2344,-1.254 3.8594,-0.883 -2.707,2.672 -3.4688,5.629 -3.9336,4.812"
             style="fill:#ff996c;fill-opacity:1;fill-rule:nonzero;stroke:none"
             id="path184" /><path
             d="m 92.0547,112.715 c 0,0 -0.0039,0.035 -0.0195,0.109 -0.168,1.129 -0.5899,2.473 -1.1719,3.696 1.0039,-2.012 1.1914,-3.805 1.1914,-3.805 m -3.6914,7.062 c -0.1992,0.145 -0.4141,0.289 -0.6367,0.426 -0.0235,0.039 -0.0469,0.078 -0.0703,0.113 0.25,-0.171 0.4843,-0.351 0.707,-0.539"
             style="fill:#ff8759;fill-opacity:1;fill-rule:nonzero;stroke:none"
             id="path186" /></g></g><g
         id="g188"><g
           id="g190"
           clip-path="url(#clipPath194)"><g
             id="g196"
             clip-path="url(#clipPath200)"><path
               d="m 91,112 v 3 h -1 v 1 h -1 v 1 h -1 v 2 h -1 v 2 h 2 v -1 h 1 v -2 h 1 v -1 h 1 v -3 h 1 v -2 z m -19,7 v 1 h 1 v 1 h 1 v 1 h 3 v 1 h 4 v -1 h -1 v -1 h -3 v -1 h -3 v -1"
               style="fill:url(#linearGradient208);fill-opacity:1;fill-rule:nonzero;stroke:none"
               id="path210" /></g></g></g><g
         id="g212"><g
           id="g214"
           clip-path="url(#clipPath218)"><path
             d="m 88.4297,118.336 c -0.2149,0.176 -0.4414,0.352 -0.6836,0.519 -0.2695,0.856 -0.7617,1.614 -1.4063,2.211 0.4766,-0.222 0.9141,-0.472 1.3165,-0.75 0.0234,-0.035 0.0468,-0.074 0.0703,-0.113 0.3359,-0.562 0.5781,-1.195 0.7031,-1.867 m -9.418,3.09 c 0.4141,0.39 0.8867,0.715 1.4024,0.969 0.3984,-0.024 0.8125,-0.067 1.2382,-0.125 -0.6445,-0.157 -1.2421,-0.438 -1.7656,-0.817 -0.0195,0 -0.0351,0 -0.0547,0 -0.2812,0 -0.5547,-0.008 -0.8203,-0.027"
             style="fill:#230700;fill-opacity:1;fill-rule:nonzero;stroke:none"
             id="path220" /><path
             d="m 87.7461,118.855 c -0.8945,0.633 -1.9766,1.227 -3.2773,1.723 -1.6407,0.629 -3.1836,0.867 -4.5821,0.875 0.5235,0.379 1.1211,0.66 1.7656,0.817 0.9961,-0.133 2.0625,-0.356 3.2149,-0.672 0.5273,-0.145 1.0195,-0.325 1.4726,-0.532 0.6446,-0.597 1.1368,-1.355 1.4063,-2.211"
             style="fill:#3f1000;fill-opacity:1;fill-rule:nonzero;stroke:none"
             id="path222" /><path
             d="m 72.2109,118.645 c 0,0 1.8164,2.957 7.0196,3.671 3.2265,0.446 8.9297,-1.222 11.6015,-5.523 0,0 -0.9687,3.449 -4.9492,5.43 -5.0859,2.531 -9.3984,2.152 -10.7812,1.836 -1.3868,-0.317 -2.8907,-5.414 -2.8907,-5.414"
             style="fill:#19100b;fill-opacity:1;fill-rule:nonzero;stroke:none"
             id="path224" /></g></g><g
         id="g226"><g
           id="g228"
           clip-path="url(#clipPath232)"><g
             id="g234"
             clip-path="url(#clipPath238)"><path
               d="m 118,110 v 1 h -1 v 2 h 1 v 3 h 1 v 2 h 1 v 2 h 2 v -4 h 1 v -2 h 1 v -1 h 2 v -2 h -6 v -1 z m 11,2 v 1 h 1 v 1 h 1 v 1 h 1 v 5 h -1 v 1 h -1 v 1 h -1 v 1 h 5 v -1 h 2 v -1 h 1 v -1 h 1 v -4 h -1 v -1 h -1 v -1 h -1 v -2"
               style="fill:url(#linearGradient248);fill-opacity:1;fill-rule:nonzero;stroke:none"
               id="path250" /></g></g></g><g
         id="g252"><g
           id="g254"
           clip-path="url(#clipPath258)"><g
             id="g260"
             clip-path="url(#clipPath264)"><path
               d="m 121.477,117.309 c 0,-3.118 2.527,-5.645 5.644,-5.645 3.121,0 5.649,2.527 5.649,5.645 0,3.121 -2.528,5.648 -5.649,5.648 -3.117,0 -5.644,-2.527 -5.644,-5.648"
               style="fill:#230800;fill-opacity:1;fill-rule:nonzero;stroke:none"
               id="path266" /><path
               d="m 122.016,117.309 c 0,-2.821 2.285,-5.106 5.105,-5.106 2.824,0 5.109,2.285 5.109,5.106 0,2.824 -2.285,5.109 -5.109,5.109 -2.82,0 -5.105,-2.285 -5.105,-5.109"
               style="fill:#3f1200;fill-opacity:1;fill-rule:nonzero;stroke:none"
               id="path268" /><path
               d="m 123.949,117.309 c 0,-1.75 1.422,-3.172 3.172,-3.172 1.754,0 3.176,1.422 3.176,3.172 0,1.754 -1.422,3.175 -3.176,3.175 -1.75,0 -3.172,-1.421 -3.172,-3.175"
               style="fill:#230800;fill-opacity:1;fill-rule:nonzero;stroke:none"
               id="path270" /><path
               d="m 131.289,116.824 2.66,0.973 -2.66,-0.973"
               style="fill:#fffbf8;fill-opacity:1;fill-rule:nonzero;stroke:none"
               id="path272" /></g></g></g><g
         id="g274"><g
           id="g276"
           clip-path="url(#clipPath280)"><path
             d="m 117.465,113 c 0,0 -1.078,3.059 0.363,5.867 1.442,2.813 5.305,4.067 5.305,4.067 0,0 -5.387,-2.45 -5.668,-9.934"
             style="fill:#ff996c;fill-opacity:1;fill-rule:nonzero;stroke:none"
             id="path282" /><path
             d="m 117.898,112.355 c 0.801,-0.976 3.106,-0.976 3.106,-0.976 l -2.805,-0.852 -0.301,1.828"
             style="fill:#ff8a5c;fill-opacity:1;fill-rule:nonzero;stroke:none"
             id="path284" /><path
             d="m 137.621,117.34 c -0.789,-1.637 -3.949,-4.453 -7.453,-5.098 l -0.313,-0.054 c -3.625,-0.528 2.532,0.007 4.508,0.804 1.977,0.797 3.258,4.348 3.258,4.348"
             style="fill:#ff8a5c;fill-opacity:1;fill-rule:nonzero;stroke:none"
             id="path286" /><path
             d="m 138.629,117.234 c 1.047,-1.832 0.758,-3.414 -0.074,-3.929 -1.18,-0.727 -4.235,-1.254 -3.86,-0.883 2.707,2.672 3.469,5.629 3.934,4.812"
             style="fill:#ff996c;fill-opacity:1;fill-rule:nonzero;stroke:none"
             id="path288" /><path
             d="m 117.945,112.715 c 0,0 0.125,1.187 0.711,2.711 0,-0.008 0,-0.02 0.004,-0.028 -0.336,-0.886 -0.578,-1.785 -0.695,-2.574 -0.016,-0.074 -0.02,-0.109 -0.02,-0.109"
             style="fill:#f9966a;fill-opacity:1;fill-rule:nonzero;stroke:none"
             id="path290" /><path
             d="m 118.66,115.398 c -0.004,0.008 -0.004,0.02 -0.004,0.028 0.133,0.351 0.293,0.719 0.481,1.094 -0.176,-0.368 -0.336,-0.743 -0.477,-1.122 m 2.977,4.379 c 0.222,0.188 0.457,0.368 0.707,0.539 -0.024,-0.035 -0.047,-0.074 -0.071,-0.113 -0.222,-0.137 -0.437,-0.281 -0.636,-0.426"
             style="fill:#ff8759;fill-opacity:1;fill-rule:nonzero;stroke:none"
             id="path292" /></g></g><g
         id="g294"><g
           id="g296"
           clip-path="url(#clipPath300)"><g
             id="g302"
             clip-path="url(#clipPath306)"><path
               d="m 117,112 v 2 h 1 v 3 h 1 v 1 h 1 v 2 h 1 v 1 h 2 v -2 h -1 v -2 h -1 v -1 h -1 v -1 h -1 v -3 z m 19,7 v 1 h -3 v 1 h -3 v 1 h -1 v 1 h 4 v -1 h 3 v -1 h 1 v -1 h 1 v -1"
               style="fill:url(#linearGradient314);fill-opacity:1;fill-rule:nonzero;stroke:none"
               id="path316" /></g></g></g><g
         id="g318"><g
           id="g320"
           clip-path="url(#clipPath324)"><path
             d="m 121.57,118.336 c 0.125,0.672 0.368,1.305 0.703,1.867 0.024,0.039 0.047,0.078 0.071,0.113 0.402,0.278 0.84,0.528 1.316,0.75 -0.644,-0.597 -1.137,-1.355 -1.406,-2.211 -0.242,-0.167 -0.469,-0.343 -0.684,-0.519 m 9.418,3.09 c -0.265,0.019 -0.539,0.027 -0.82,0.027 -0.02,0 -0.035,0 -0.055,0 -0.523,0.379 -1.121,0.66 -1.765,0.817 0.425,0.058 0.84,0.101 1.238,0.125 0.516,-0.254 0.988,-0.579 1.402,-0.969"
             style="fill:#230700;fill-opacity:1;fill-rule:nonzero;stroke:none"
             id="path326" /><path
             d="m 122.254,118.855 c 0.269,0.856 0.762,1.614 1.406,2.211 0.453,0.207 0.945,0.387 1.473,0.532 1.152,0.316 2.219,0.539 3.215,0.672 0.644,-0.157 1.242,-0.438 1.765,-0.817 -1.398,-0.008 -2.941,-0.246 -4.582,-0.875 -1.301,-0.496 -2.383,-1.09 -3.277,-1.723"
             style="fill:#3f1000;fill-opacity:1;fill-rule:nonzero;stroke:none"
             id="path328" /><path
             d="m 137.789,118.645 c 0,0 -1.816,2.957 -7.019,3.671 -3.227,0.446 -8.93,-1.222 -11.606,-5.523 0,0 0.973,3.449 4.953,5.43 5.086,2.531 9.399,2.152 10.781,1.836 1.387,-0.317 2.891,-5.414 2.891,-5.414"
             style="fill:#19100b;fill-opacity:1;fill-rule:nonzero;stroke:none"
             id="path330" /><path
             d="m 142.074,130.426 c -0.226,0.258 -1.664,1.656 -6.844,2.207 -1.863,0.199 -4.363,0.027 -6.898,-0.289 -5.269,-0.656 -10.672,-1.961 -10.672,-1.961 0,0 -2.969,1.215 -4.523,5.062 h 0.578 c 0,0 1.344,-2.433 2.965,-3.715 l -2.262,3.715 c 0,0 3.34,0.102 8.945,0.813 5.598,0.703 9.617,2.156 9.617,2.156 l -0.3,0.262 0.07,-0.02 c 0.641,-0.218 5.363,-2.004 9.324,-8.23"
             style="fill:#1e130e;fill-opacity:1;fill-rule:nonzero;stroke:none"
             id="path332" /><path
             d="m 142.074,130.426 c -0.226,0.258 -1.664,1.656 -6.844,2.207 -1.863,0.199 -4.363,0.027 -6.898,-0.289 7.676,1.859 8.715,1.836 8.715,1.836 -1.692,3.32 -3.875,4.308 -4.297,4.476 0.641,-0.218 5.363,-2.004 9.324,-8.23"
             style="fill:#19100b;fill-opacity:1;fill-rule:nonzero;stroke:none"
             id="path334" /><path
             d="m 67.9258,130.426 c 0.2265,0.258 1.664,1.656 6.8476,2.207 1.8555,0.199 4.3594,0.027 6.8946,-0.289 5.2695,-0.656 10.6718,-1.961 10.6718,-1.961 0,0 2.9688,1.215 4.5235,5.062 h -0.5742 c 0,0 -1.3477,-2.433 -2.9688,-3.715 l 2.2617,3.715 c 0,0 -3.3398,0.102 -8.9453,0.813 -5.5976,0.703 -9.6172,2.156 -9.6172,2.156 l 0.3008,0.262 -0.0703,-0.02 c -0.6406,-0.218 -5.3633,-2.004 -9.3242,-8.23"
             style="fill:#1e130e;fill-opacity:1;fill-rule:nonzero;stroke:none"
             id="path336" /><path
             d="m 67.9258,130.426 c 0.2265,0.258 1.664,1.656 6.8476,2.207 1.8555,0.199 4.3594,0.027 6.8946,-0.289 -7.6758,1.859 -8.7149,1.836 -8.7149,1.836 1.6914,3.32 3.875,4.308 4.2969,4.476 -0.6406,-0.218 -5.3633,-2.004 -9.3242,-8.23"
             style="fill:#19100b;fill-opacity:1;fill-rule:nonzero;stroke:none"
             id="path338" /></g></g></g></g></svg>
