<?xml version="1.0" encoding="UTF-8" standalone="no"?>
<!-- Created with Inkscape (http://www.inkscape.org/) -->

<svg
   version="1.1"
   id="svg2"
   width="28"
   height="28"
   viewBox="0 0 28 28"
   sodipodi:docname="asian man.eps"
   xmlns:inkscape="http://www.inkscape.org/namespaces/inkscape"
   xmlns:sodipodi="http://sodipodi.sourceforge.net/DTD/sodipodi-0.dtd"
   xmlns="http://www.w3.org/2000/svg"
   xmlns:svg="http://www.w3.org/2000/svg">
  <defs
     id="defs6">
    <clipPath
       clipPathUnits="userSpaceOnUse"
       id="clipPath18">
      <path
         d="M 210,105 C 210,47.0117 162.988,0 105,0 47.0117,0 0,47.0117 0,105 c 0,57.988 47.0117,105 105,105 57.988,0 105,-47.012 105,-105"
         id="path16" />
    </clipPath>
    <clipPath
       clipPathUnits="userSpaceOnUse"
       id="clipPath86">
      <path
         d="M 210,105 C 210,47.0117 162.988,0 105,0 47.0117,0 0,47.0117 0,105 c 0,57.988 47.0117,105 105,105 57.988,0 105,-47.012 105,-105"
         id="path84" />
    </clipPath>
    <clipPath
       clipPathUnits="userSpaceOnUse"
       id="clipPath92">
      <path
         d="m 121.523,116.063 c -0.414,0 -0.652,0.003 -0.652,0.003 h 0.004 c -1.035,0.024 -1.973,0.075 -2.711,0.161 l 0.156,-0.016 -1.047,1.332 c 0.75,0.598 2.012,1.512 3.672,2.379 0.321,-1.824 1.692,-3.32 3.504,-3.781 -1.226,-0.067 -2.285,-0.078 -2.926,-0.078 m 6.071,0.355 c 1.148,0.523 2.058,1.492 2.5,2.699 0.308,-0.121 0.89,-0.222 1.519,-0.222 0.293,0 0.598,0.023 0.887,0.074 1.199,0.219 1.879,0.828 1.801,0.976 -0.035,0.063 -0.539,0.149 -1.235,0.149 -0.828,0 -1.933,-0.121 -2.839,-0.555 0.07,0.274 0.117,0.555 0.14,0.844 0.047,0.652 -0.035,1.285 -0.23,1.867 1.699,-0.016 3.496,-0.289 5.359,-0.922 v 0 c 0,0 -0.984,-3.223 -5.148,-4.379 -0.832,-0.23 -1.785,-0.402 -2.754,-0.531 m -11.016,0.754 c 0.141,0.469 0.469,1.043 0.961,1.656 -0.207,-0.332 -0.391,-0.64 -0.551,-0.922 l -0.015,0.02 -0.395,-0.754 m 18.824,3.82 c 0.071,0.211 0.094,0.336 0.094,0.336 v 0 c -0.012,-0.09 -0.043,-0.203 -0.094,-0.336 m 0.094,0.336 v 0 0 0 0 c 0,0 -1.613,1.711 -5.07,2.391 1.941,-0.133 3.508,-0.594 4.445,-0.938 0.524,-0.551 0.668,-1.117 0.625,-1.453 v 0"
         id="path90" />
    </clipPath>
    <linearGradient
       x1="0"
       y1="0"
       x2="1"
       y2="0"
       gradientUnits="userSpaceOnUse"
       gradientTransform="matrix(-0.485538,7.90563,7.90563,0.485538,126.187,116.203)"
       spreadMethod="pad"
       id="linearGradient100">
      <stop
         style="stop-opacity:1;stop-color:#eee2ff"
         offset="0"
         id="stop94" />
      <stop
         style="stop-opacity:1;stop-color:#bdc9fb"
         offset="0.996032"
         id="stop96" />
      <stop
         style="stop-opacity:1;stop-color:#bdc9fb"
         offset="1"
         id="stop98" />
    </linearGradient>
    <clipPath
       clipPathUnits="userSpaceOnUse"
       id="clipPath110">
      <path
         d="M 210,105 C 210,47.0117 162.988,0 105,0 47.0117,0 0,47.0117 0,105 c 0,57.988 47.0117,105 105,105 57.988,0 105,-47.012 105,-105"
         id="path108" />
    </clipPath>
    <clipPath
       clipPathUnits="userSpaceOnUse"
       id="clipPath134">
      <path
         d="M 210,105 C 210,47.0117 162.988,0 105,0 47.0117,0 0,47.0117 0,105 c 0,57.988 47.0117,105 105,105 57.988,0 105,-47.012 105,-105"
         id="path132" />
    </clipPath>
    <clipPath
       clipPathUnits="userSpaceOnUse"
       id="clipPath140">
      <path
         d="m 117.273,117.543 -0.031,0.039 c 0.832,0.875 2.102,2.113 3.633,3.238 -0.008,-0.304 0.02,-0.605 0.07,-0.898 -1.66,-0.867 -2.922,-1.781 -3.672,-2.379 m 18.223,3.785 c -1.863,0.633 -3.66,0.906 -5.359,0.922 -0.184,0.555 -0.469,1.063 -0.832,1.508 0.015,0 0.027,0 0.043,0 0.371,0 0.73,-0.016 1.078,-0.039 3.457,-0.68 5.07,-2.391 5.07,-2.391"
         id="path138" />
    </clipPath>
    <linearGradient
       x1="0"
       y1="0"
       x2="1"
       y2="0"
       gradientUnits="userSpaceOnUse"
       gradientTransform="matrix(-0.485538,7.90563,7.90563,0.485538,126.187,116.203)"
       spreadMethod="pad"
       id="linearGradient148">
      <stop
         style="stop-opacity:1;stop-color:#eec3ce"
         offset="0"
         id="stop142" />
      <stop
         style="stop-opacity:1;stop-color:#bdadcb"
         offset="0.996032"
         id="stop144" />
      <stop
         style="stop-opacity:1;stop-color:#bdadcb"
         offset="1"
         id="stop146" />
    </linearGradient>
    <clipPath
       clipPathUnits="userSpaceOnUse"
       id="clipPath158">
      <path
         d="M 210,105 C 210,47.0117 162.988,0 105,0 47.0117,0 0,47.0117 0,105 c 0,57.988 47.0117,105 105,105 57.988,0 105,-47.012 105,-105"
         id="path156" />
    </clipPath>
    <clipPath
       clipPathUnits="userSpaceOnUse"
       id="clipPath180">
      <path
         d="M 210,105 C 210,47.0117 162.988,0 105,0 47.0117,0 0,47.0117 0,105 c 0,57.988 47.0117,105 105,105 57.988,0 105,-47.012 105,-105"
         id="path178" />
    </clipPath>
    <clipPath
       clipPathUnits="userSpaceOnUse"
       id="clipPath186">
      <path
         d="m 88.6406,116.063 c -0.6406,0 -1.6992,0.011 -2.9297,0.078 1.8164,0.461 3.1875,1.957 3.5079,3.781 1.6562,-0.867 2.9218,-1.781 3.6718,-2.379 l -1.0468,-1.332 0.1523,0.016 c -0.7344,-0.086 -1.6719,-0.137 -2.707,-0.161 v 0 c 0,0 -0.2383,-0.003 -0.6485,-0.003 m -6.0703,0.355 c -0.9687,0.129 -1.9219,0.301 -2.7578,0.531 -4.1602,1.156 -5.1445,4.379 -5.1445,4.379 0,0 0.0234,-0.125 0.0898,-0.336 -0.0508,0.133 -0.082,0.246 -0.0898,0.336 -0.043,0.336 0.1015,0.902 0.625,1.453 0.9375,0.344 2.5039,0.805 4.4453,0.938 -3.457,-0.68 -5.0703,-2.391 -5.0703,-2.391 1.8633,0.633 3.6601,0.906 5.3593,0.922 -0.1953,-0.582 -0.2812,-1.215 -0.2304,-1.867 0.0234,-0.289 0.0703,-0.57 0.1406,-0.844 -0.9062,0.434 -2.0117,0.555 -2.8398,0.555 -0.6954,0 -1.1993,-0.086 -1.2344,-0.149 -0.082,-0.148 0.5976,-0.757 1.8008,-0.976 0.289,-0.051 0.5937,-0.074 0.8867,-0.074 0.625,0 1.2109,0.101 1.5195,0.222 0.4414,-1.207 1.3516,-2.176 2.5,-2.699 m 11.0117,0.754 -0.3906,0.754 -0.0156,-0.02 c -0.1602,0.282 -0.3438,0.59 -0.5508,0.922 0.4922,-0.613 0.8203,-1.187 0.957,-1.656"
         id="path184" />
    </clipPath>
    <linearGradient
       x1="0"
       y1="0"
       x2="1"
       y2="0"
       gradientUnits="userSpaceOnUse"
       gradientTransform="matrix(0.485538,7.90563,-7.90563,0.485538,83.9763,116.203)"
       spreadMethod="pad"
       id="linearGradient194">
      <stop
         style="stop-opacity:1;stop-color:#eee2ff"
         offset="0"
         id="stop188" />
      <stop
         style="stop-opacity:1;stop-color:#bdc9fb"
         offset="0.996032"
         id="stop190" />
      <stop
         style="stop-opacity:1;stop-color:#bdc9fb"
         offset="1"
         id="stop192" />
    </linearGradient>
    <clipPath
       clipPathUnits="userSpaceOnUse"
       id="clipPath204">
      <path
         d="M 210,105 C 210,47.0117 162.988,0 105,0 47.0117,0 0,47.0117 0,105 c 0,57.988 47.0117,105 105,105 57.988,0 105,-47.012 105,-105"
         id="path202" />
    </clipPath>
    <clipPath
       clipPathUnits="userSpaceOnUse"
       id="clipPath228">
      <path
         d="M 210,105 C 210,47.0117 162.988,0 105,0 47.0117,0 0,47.0117 0,105 c 0,57.988 47.0117,105 105,105 57.988,0 105,-47.012 105,-105"
         id="path226" />
    </clipPath>
    <clipPath
       clipPathUnits="userSpaceOnUse"
       id="clipPath234">
      <path
         d="m 92.8906,117.543 c -0.75,0.598 -2.0156,1.512 -3.6718,2.379 0.0507,0.289 0.0742,0.594 0.0703,0.898 1.5312,-1.125 2.8007,-2.363 3.6289,-3.238 l -0.0274,-0.039"
         id="path232" />
    </clipPath>
    <linearGradient
       x1="0"
       y1="0"
       x2="1"
       y2="0"
       gradientUnits="userSpaceOnUse"
       gradientTransform="matrix(0.485538,7.90563,-7.90563,0.485538,83.9763,116.203)"
       spreadMethod="pad"
       id="linearGradient242">
      <stop
         style="stop-opacity:1;stop-color:#eec3ce"
         offset="0"
         id="stop236" />
      <stop
         style="stop-opacity:1;stop-color:#bdadcb"
         offset="0.996032"
         id="stop238" />
      <stop
         style="stop-opacity:1;stop-color:#bdadcb"
         offset="1"
         id="stop240" />
    </linearGradient>
    <clipPath
       clipPathUnits="userSpaceOnUse"
       id="clipPath252">
      <path
         d="M 210,105 C 210,47.0117 162.988,0 105,0 47.0117,0 0,47.0117 0,105 c 0,57.988 47.0117,105 105,105 57.988,0 105,-47.012 105,-105"
         id="path250" />
    </clipPath>
    <clipPath
       clipPathUnits="userSpaceOnUse"
       id="clipPath262">
      <path
         d="M 210,105 C 210,47.0117 162.988,0 105,0 47.0117,0 0,47.0117 0,105 c 0,57.988 47.0117,105 105,105 57.988,0 105,-47.012 105,-105"
         id="path260" />
    </clipPath>
    <clipPath
       clipPathUnits="userSpaceOnUse"
       id="clipPath268">
      <path
         d="m 74.668,121.328 c 0,0 1.6133,1.711 5.0703,2.391 0.3476,0.023 0.707,0.039 1.0781,0.039 0.0156,0 0.0274,0 0.0391,0 -0.3633,-0.445 -0.6446,-0.953 -0.8282,-1.508 -1.6992,-0.016 -3.496,-0.289 -5.3593,-0.922"
         id="path266" />
    </clipPath>
    <linearGradient
       x1="0"
       y1="0"
       x2="1"
       y2="0"
       gradientUnits="userSpaceOnUse"
       gradientTransform="matrix(0.485538,7.90563,-7.90563,0.485538,83.9763,116.203)"
       spreadMethod="pad"
       id="linearGradient276">
      <stop
         style="stop-opacity:1;stop-color:#eec3ce"
         offset="0"
         id="stop270" />
      <stop
         style="stop-opacity:1;stop-color:#bdadcb"
         offset="0.996032"
         id="stop272" />
      <stop
         style="stop-opacity:1;stop-color:#bdadcb"
         offset="1"
         id="stop274" />
    </linearGradient>
    <clipPath
       clipPathUnits="userSpaceOnUse"
       id="clipPath286">
      <path
         d="M 210,105 C 210,47.0117 162.988,0 105,0 47.0117,0 0,47.0117 0,105 c 0,57.988 47.0117,105 105,105 57.988,0 105,-47.012 105,-105"
         id="path284" />
    </clipPath>
    <clipPath
       clipPathUnits="userSpaceOnUse"
       id="clipPath310">
      <path
         d="m 124,180 h 1 v 1 h -1 z"
         id="path308" />
    </clipPath>
    <linearGradient
       x1="0"
       y1="0"
       x2="1"
       y2="0"
       gradientUnits="userSpaceOnUse"
       gradientTransform="matrix(0.154234,0,0,-0.154234,124.572,180.234)"
       spreadMethod="pad"
       id="linearGradient318">
      <stop
         style="stop-opacity:1;stop-color:#190f09"
         offset="0"
         id="stop312" />
      <stop
         style="stop-opacity:1;stop-color:#14070b"
         offset="0.994413"
         id="stop314" />
      <stop
         style="stop-opacity:1;stop-color:#14070b"
         offset="1"
         id="stop316" />
    </linearGradient>
    <clipPath
       clipPathUnits="userSpaceOnUse"
       id="clipPath328">
      <path
         d="M 210,105 C 210,47.0117 162.988,0 105,0 47.0117,0 0,47.0117 0,105 c 0,57.988 47.0117,105 105,105 57.988,0 105,-47.012 105,-105"
         id="path326" />
    </clipPath>
  </defs>
  <sodipodi:namedview
     id="namedview4"
     pagecolor="#ffffff"
     bordercolor="#000000"
     borderopacity="0.25"
     inkscape:showpageshadow="2"
     inkscape:pageopacity="0.0"
     inkscape:pagecheckerboard="0"
     inkscape:deskcolor="#d1d1d1" />
  <g
     id="g8"
     inkscape:groupmode="layer"
     inkscape:label="ink_ext_XXXXXX"
     transform="matrix(1.3333333,0,0,-1.3333333,0,28)">
    <g
       id="g10"
       transform="scale(0.1)">
      <g
         id="g12">
        <g
           id="g14"
           clip-path="url(#clipPath18)">
          <path
             d="M 210,105 C 210,47.0117 162.988,0 105,0 47.0117,0 0,47.0117 0,105 c 0,57.988 47.0117,105 105,105 57.988,0 105,-47.012 105,-105"
             style="fill:#e2c7ea;fill-opacity:1;fill-rule:nonzero;stroke:none"
             id="path20" />
          <path
             d="m 75.3672,74.1133 c 0,0 -0.7383,-28.5547 -1.418,-31.2031 C 73.2656,40.2617 38.3945,25.4375 38.3945,25.4375 H 171.605 c 0,0 -37.898,13.3867 -38.917,16.4531 -1.024,3.0625 -0.118,31.4766 -0.118,31.4766 l -57.2028,0.7461"
             style="fill:#f9ab80;fill-opacity:1;fill-rule:nonzero;stroke:none"
             id="path22" />
          <path
             d="m 74.0781,43.6875 h -3.082 V 41.1719 L 35.6133,24.0938 c 0,0 8.5781,-47.293 69.3867,-42.2227 60.809,5.0742 69.098,42.5039 69.098,42.5039 L 136.43,40.4141 c 0,0 -1.211,3.3281 -3.742,1.4765 l 0.867,-1.25 c 0,0 -11.801,-12.6328 -31.465,-12.6328 -19.672,0 -28.0119,15.6797 -28.0119,15.6797"
             style="fill:#8709b5;fill-opacity:1;fill-rule:nonzero;stroke:none"
             id="path24" />
          <path
             d="m 75.1719,61.6641 c 0,0 6.5664,-1.8438 8.1562,-4.6836 1.5899,-2.836 11.8008,-24.168 19.8559,-24.5078 8.058,-0.3399 13.277,11.0039 17.363,13.6171 4.082,2.6055 11.484,2.8008 11.484,2.8008 l 0.539,24.4766 -57.2028,0.7461 -0.1953,-12.4492"
             style="fill:#ff996c;fill-opacity:1;fill-rule:nonzero;stroke:none"
             id="path26" />
          <path
             d="m 141.996,117.801 c 0,0 5.574,8.492 9.356,8.472 2.3,-0.015 7.855,-4.843 7.793,-9.457 -0.086,-6.171 -5.551,-13.183 -6.915,-16.785 -1.359,-3.5974 -4.886,-8.2849 -7.234,-8.7419 -2.344,-0.4532 -5.398,3.9843 -5.398,3.9843 0,0 1.14,16.9296 2.398,22.5276"
             style="fill:#f9ab80;fill-opacity:1;fill-rule:nonzero;stroke:none"
             id="path28" />
          <path
             d="m 142.406,108.766 c 0,0 9.153,11.304 12.481,11.304 3.328,0 3.328,-6.429 1.988,-10.101 -0.93,-2.539 -2.746,-6.211 -2.746,-6.211 0,0 1.437,3.941 1.609,6.894 0.266,4.539 -0.742,7.836 -1.89,7.828 -2.106,-0.015 -3.766,-2.894 -4.028,-3.914 -0.265,-1.023 1.664,-5.503 1.153,-8.625 -0.508,-3.121 -2.383,-4.312 -3.008,-3.968 -0.621,0.34 0.344,3.855 -0.227,5.105 -0.566,1.246 -2.211,3.063 -3.175,2.664 -0.965,-0.394 -2.157,-0.976 -2.157,-0.976"
             style="fill:#ff996c;fill-opacity:1;fill-rule:nonzero;stroke:none"
             id="path30" />
          <path
             d="m 67.4414,117.801 c 0,0 -5.5742,8.492 -9.3555,8.472 -2.3007,-0.015 -7.8554,-4.843 -7.7929,-9.457 0.0859,-6.171 5.5508,-13.183 6.914,-16.785 1.3594,-3.5974 4.8868,-8.2849 7.2344,-8.7419 2.3438,-0.4532 5.3984,3.9843 5.3984,3.9843 0,0 -1.1406,16.9296 -2.3984,22.5276"
             style="fill:#f9ab80;fill-opacity:1;fill-rule:nonzero;stroke:none"
             id="path32" />
          <path
             d="m 67.0313,108.766 c 0,0 -9.1524,11.304 -12.4805,11.304 -3.3281,0 -3.3281,-6.429 -1.9883,-10.101 0.9297,-2.539 2.7461,-6.211 2.7461,-6.211 0,0 -1.4375,3.941 -1.6094,6.894 -0.2656,4.539 0.7422,7.836 1.8906,7.828 2.1055,-0.015 3.7657,-2.894 4.0274,-3.914 0.2656,-1.023 -1.6641,-5.503 -1.1524,-8.625 0.5118,-3.121 2.3829,-4.312 3.0079,-3.968 0.6211,0.34 -0.3438,3.855 0.2265,5.105 0.5664,1.246 2.211,3.063 3.1758,2.664 0.9648,-0.394 2.1563,-0.976 2.1563,-0.976"
             style="fill:#ff996c;fill-opacity:1;fill-rule:nonzero;stroke:none"
             id="path34" />
          <path
             d="m 144.199,135.258 c -0.019,-7.528 -0.359,-15.164 -0.652,-18.293 -0.613,-6.332 -1.895,-12.231 -2.199,-18.8556 -0.305,-6.6172 -1.114,-11.9258 -1.969,-14.4649 -0.535,-1.5898 -1.27,-3.0976 -2.156,-4.5351 l -0.157,-0.25 c -0.683,-1.0781 -1.453,-2.1133 -2.281,-3.0977 -1.23,-1.4648 -2.594,-2.8242 -4.027,-4.0859 l -0.004,-0.0039 c -7.711,-6.7617 -17.363,-10.5664 -18.059,-10.836 -3.175,-1.2421 -12.066,-1.1796 -15.238,0.0625 -1.0117,0.3985 -10.4922,3.3243 -18.1836,9.5469 -2.082,1.6758 -4.0273,3.6016 -5.6484,5.7735 -0.8828,1.1757 -1.6523,2.4296 -2.3008,3.7578 v 0.0078 l -0.0117,0.0117 c -0.5664,1.1562 -1.0312,2.375 -1.3789,3.6484 -0.6953,2.5821 -3.5547,26.9885 -4.1563,33.3205 -0.2734,2.887 -0.5781,9.598 -0.6484,16.527 -0.082,8.285 0.1836,16.903 1.25,19.649 1.9727,5.031 25.2656,18.566 38.2771,18.566 9.137,0 23.344,-6.668 31.668,-12.383 3.543,-2.433 6.02,-4.687 6.61,-6.183 0.914,-2.332 1.238,-8.891 1.257,-15.899 l 0.008,-1.984"
             style="fill:#f9ab80;fill-opacity:1;fill-rule:nonzero;stroke:none"
             id="path36" />
          <path
             d="m 144.199,135.258 c -0.019,-7.528 -0.359,-15.164 -0.652,-18.293 -0.613,-6.332 -1.895,-12.231 -2.199,-18.8556 -0.305,-6.6172 -1.114,-11.9258 -1.969,-14.4649 -0.535,-1.5898 -1.27,-3.0976 -2.156,-4.5351 l -0.157,-0.25 c -0.683,-1.0781 -1.453,-2.1133 -2.281,-3.0977 -1.23,-1.4648 -2.594,-2.8242 -4.027,-4.0859 1.746,4.1914 3.922,20.2695 5.402,25.8008 1.547,5.7734 3.438,13.5154 3.438,13.5154 -0.446,3.297 -3.274,3.297 -3.274,3.297 -8.797,-4.801 -21.621,-0.828 -21.621,-0.828 -1.531,7.289 -0.762,15.227 -0.762,15.227 l 2.239,2.394 21.683,5.934 c 0,0 -2.117,5.066 -1.925,8.168 0.199,3.097 1.324,11.316 0.386,13.504 3.543,-2.551 6.02,-4.926 6.61,-6.497 0.836,-2.257 1.183,-8.269 1.257,-14.949 l 0.008,-1.984"
             style="fill:#ff996c;fill-opacity:1;fill-rule:nonzero;stroke:none"
             id="path38" />
          <path
             d="m 94.6289,113.461 c 0,0 -12.8242,-3.973 -21.6211,0.828 0,0 -2.8281,0 -3.2734,-3.297 0,0 1.8906,-7.742 3.4375,-13.5154 1.5469,-5.7696 3.8437,-23.0235 5.6289,-26.2774 l 0.4726,-0.7539 c -2.082,1.6758 -4.0273,3.6016 -5.6484,5.7735 -0.8828,1.1757 -1.6523,2.4296 -2.3008,3.7578 v 0.0078 l -0.0117,0.0117 c -0.5664,1.1562 -1.0312,2.375 -1.3789,3.6484 -0.6953,2.5821 -3.5547,26.9885 -4.1563,33.3205 -0.2734,2.887 -0.5781,9.598 -0.6484,16.527 -0.0234,8.078 0.2774,16.028 1.2695,18.699 0.5899,1.571 3.0664,3.946 6.6094,6.497 -0.9375,-2.188 0.1875,-10.407 0.3906,-13.504 0.1875,-3.102 -1.9296,-8.168 -1.9296,-8.168 l 22.496,-5.11 1.4297,-3.218 c 0,0 0.7657,-7.938 -0.7656,-15.227"
             style="fill:#ff996c;fill-opacity:1;fill-rule:nonzero;stroke:none"
             id="path40" />
          <path
             d="m 137.438,79.2891 -0.372,-0.4297 c -0.761,-0.9063 -1.519,-1.9688 -2.281,-3.0977 -7.828,-9.3125 -21.262,-14.6054 -22.09,-14.9258 -3.175,-1.2421 -12.066,-1.1796 -15.238,0.0625 -1.289,0.5039 -16.2382,5.0977 -23.832,15.3204 -0.7695,1.3398 -1.5234,2.6132 -2.3008,3.7578 0.2813,-0.2852 4.211,-4.2657 8.7578,-8.043 4.7188,-3.9141 12.668,-10.2656 24.699,-10.2656 12.028,0 20.926,7.8008 22.797,9.1718 1.692,1.2188 8.344,7.1329 9.645,8.2696 l 0.215,0.1797"
             style="fill:#ff8a5c;fill-opacity:1;fill-rule:nonzero;stroke:none"
             id="path42" />
          <path
             d="m 93.4414,97.6641 c 0,0 -3.0586,9.5779 11.3676,9.5779 14.429,0 12.011,-9.3904 12.011,-9.3904 l -0.64,-0.1875 c 0,0 -3.942,-2.1211 -11.371,-2.1211 -7.4301,0 -11.3676,2.1211 -11.3676,2.1211"
             style="fill:#f9ab80;fill-opacity:1;fill-rule:nonzero;stroke:none"
             id="path44" />
          <path
             d="m 104.809,98.418 c -7.5434,0 -11.3676,-0.7539 -11.3676,-0.7539 3.8594,0.0937 6.9606,-2.0938 11.3676,-2.1211 4.41,0.0273 7.507,2.2148 11.371,2.1211 0,0 -4.293,0.7539 -11.371,0.7539"
             style="fill:#ff996c;fill-opacity:1;fill-rule:nonzero;stroke:none"
             id="path46" />
          <path
             d="m 110.684,96.6445 c 0,0 1.945,1.7774 5.496,1.0196 l -5.496,-1.0196"
             style="fill:#5e0d00;fill-opacity:1;fill-rule:nonzero;stroke:none"
             id="path48" />
          <path
             d="m 93.4414,97.6641 c 0,0 2.2695,0.9609 5.3047,-0.9649 l -5.3047,0.9649"
             style="fill:#5e0d00;fill-opacity:1;fill-rule:nonzero;stroke:none"
             id="path50" />
          <path
             d="m 94.8945,104.402 c 0,0 -3.3007,-2.461 -1.7148,-6.5504 0,0 0.1445,3.3084 1.7148,6.5504"
             style="fill:#ff996c;fill-opacity:1;fill-rule:nonzero;stroke:none"
             id="path52" />
          <path
             d="m 115.105,104.402 c 0,0 3.301,-2.461 1.715,-6.5504 0,0 -0.144,3.3084 -1.715,6.5504"
             style="fill:#ff996c;fill-opacity:1;fill-rule:nonzero;stroke:none"
             id="path54" />
          <path
             d="m 109.707,100.023 1.363,1.106 v -1.4727 z"
             style="fill:#ffccb8;fill-opacity:1;fill-rule:nonzero;stroke:none"
             id="path56" />
          <path
             d="m 94.8945,104.402 c 0,0 1.0625,-1.414 2.1758,-5.984 0,0 1.6602,4.297 -1.0859,7.746 l -1.0899,-1.762"
             style="fill:#ff996c;fill-opacity:1;fill-rule:nonzero;stroke:none"
             id="path58" />
          <path
             d="m 115.105,104.402 c 0,0 -1.062,-1.414 -2.175,-5.984 0,0 -1.66,4.297 1.086,7.746 l 1.089,-1.762"
             style="fill:#ff996c;fill-opacity:1;fill-rule:nonzero;stroke:none"
             id="path60" />
          <path
             d="m 139.598,127.281 c 0,0 -2.868,4.946 -5.75,5.094 l -2.258,-0.176 c -6.207,-1.015 -17.555,-5.851 -17.555,-5.851 0,0 -1.879,4.886 -1.676,6.882 l 0.653,0.29 1.113,-3.528 -0.078,3.992 c 0,0 9.039,1.368 14.891,2.215 v 0.008 l 0.972,0.137 h 0.008 l 1.863,0.269 h 0.008 c 1.203,0.172 1.973,0.27 2.024,0.258 l 0.828,-0.269 -0.321,0.863 c 0,0 3.047,-3.176 5.278,-10.184"
             style="fill:#1e130e;fill-opacity:1;fill-rule:nonzero;stroke:none"
             id="path62" />
          <path
             d="m 139.598,127.281 c 0,0 -2.868,4.946 -5.75,5.094 l -2.258,-0.176 v 0 l -2.652,4 v 0.008 l 0.972,0.137 h 0.008 c 1.59,-0.274 6.016,-3.461 6.016,-3.461 -1.219,2.363 -3.989,3.656 -4.145,3.73 1.145,0.164 1.895,0.262 2.008,0.262 0.008,0 0.012,-0.004 0.016,-0.004 l 0.828,-0.269 -0.321,0.863 c 0,0 3.047,-3.176 5.278,-10.184"
             style="fill:#190a0a;fill-opacity:1;fill-rule:nonzero;stroke:none"
             id="path64" />
          <path
             d="m 70.0703,127.281 c 0,0 2.8672,4.946 5.75,5.094 l 2.2578,-0.176 c 6.2071,-1.015 17.5586,-5.851 17.5586,-5.851 0,0 1.875,4.886 1.6719,6.882 l -0.6523,0.29 -1.1133,-3.528 0.082,3.992 c 0,0 -9.043,1.368 -14.8945,2.215 v 0.008 l -0.9727,0.137 H 79.75 l -1.8633,0.269 h -0.0078 c -1.2031,0.172 -1.9726,0.27 -2.0195,0.258 l -0.8281,-0.269 0.3164,0.863 c 0,0 -3.0469,-3.176 -5.2774,-10.184"
             style="fill:#1e130e;fill-opacity:1;fill-rule:nonzero;stroke:none"
             id="path66" />
          <path
             d="m 70.0703,127.281 c 2.2305,7.008 5.2774,10.184 5.2774,10.184 l -0.3164,-0.863 0.8281,0.269 c 0,0 0.0039,0.004 0.0117,0.004 0.1133,0 0.8633,-0.098 2.0078,-0.262 -0.1562,-0.074 -2.9258,-1.367 -4.1445,-3.73 0,0 4.4258,3.187 6.0156,3.461 h 0.0078 l 0.9727,-0.137 v -0.008 0 l -2.6524,-4 v 0 l -2.2578,0.176 c -2.8828,-0.148 -5.75,-5.094 -5.75,-5.094"
             style="fill:#190a0a;fill-opacity:1;fill-rule:nonzero;stroke:none"
             id="path68" />
          <path
             d="m 87.9844,86.4102 c 0,0 5.8125,-8.4688 16.0156,-8.4688 10.199,0 17.625,8.4688 17.625,8.4688 0,0 -10.66,-2.625 -17.977,-2.625 -7.316,0 -15.6636,2.625 -15.6636,2.625"
             style="fill:#ff8a5c;fill-opacity:1;fill-rule:nonzero;stroke:none"
             id="path70" />
          <path
             d="m 104.805,87.3008 c -2.961,1.1758 -5.4261,0.3437 -7.8519,-0.4922 -2.75,-0.9453 -5.4414,-1.8945 -8.7383,0.1016 0,0 -1.121,-3.1289 16.5902,-3.1289 v 3.5195"
             style="fill:#ff8a5c;fill-opacity:1;fill-rule:nonzero;stroke:none"
             id="path72" />
          <path
             d="m 104.805,87.3008 c 3.519,1.6719 5.957,0.789 8.261,-0.0899 2.383,-0.9101 4.625,-1.8203 7.778,0.086 0,0 1.668,-3.5156 -16.039,-3.5156 v 3.5195"
             style="fill:#ff8a5c;fill-opacity:1;fill-rule:nonzero;stroke:none"
             id="path74" />
          <path
             d="m 87.3633,86.8477 1.0898,0.3593 c 0.4102,-0.0586 3.4414,-3.4257 16.3519,-3.4257 12.91,0 15.515,3.6367 16.039,3.5156 l 1.398,-0.4492 c 0,0 -3.301,-3.2579 -17.437,-3.2579 -14.137,0 -17.4417,3.2579 -17.4417,3.2579"
             style="fill:#5e0d00;fill-opacity:1;fill-rule:nonzero;stroke:none"
             id="path76" />
          <path
             d="m 110.551,79.6602 -0.946,1.7187 9.567,2.707 c -3.477,-2.7421 -8.621,-4.4257 -8.621,-4.4257"
             style="fill:#ffa877;fill-opacity:1;fill-rule:nonzero;stroke:none"
             id="path78" />
        </g>
      </g>
      <g
         id="g80">
        <g
           id="g82"
           clip-path="url(#clipPath86)">
          <g
             id="g88"
             clip-path="url(#clipPath92)">
            <path
               d="m 117,116 v 1 h -1 v 1 h 1 v 1 h 2 v 1 h 3 v -2 h 1 v -1 h 2 v -1 z m 10,0 v 1 h 1 v 1 h 1 v 1 h 1 v 5 h 5 v -1 h 1 v -3 h -1 v -1 h -1 v -1 h -1 v -1 h -2 v -1"
               style="fill:url(#linearGradient100);fill-opacity:1;fill-rule:nonzero;stroke:none"
               id="path102" />
          </g>
        </g>
      </g>
      <g
         id="g104">
        <g
           id="g106"
           clip-path="url(#clipPath110)">
          <path
             d="m 130.367,120.383 c -0.203,-2.617 -2.488,-4.574 -5.105,-4.375 -2.617,0.199 -4.574,2.484 -4.375,5.101 0.203,2.618 2.484,4.579 5.101,4.379 2.621,-0.203 4.578,-2.488 4.379,-5.105"
             style="fill:#230800;fill-opacity:1;fill-rule:nonzero;stroke:none"
             id="path112" />
          <path
             d="m 130.09,120.406 c -0.192,-2.465 -2.34,-4.312 -4.805,-4.121 -2.465,0.188 -4.308,2.34 -4.121,4.805 0.188,2.465 2.34,4.308 4.805,4.121 2.465,-0.191 4.308,-2.34 4.121,-4.805"
             style="fill:#3f1200;fill-opacity:1;fill-rule:nonzero;stroke:none"
             id="path114" />
          <path
             d="m 128.523,120.523 c -0.125,-1.597 -1.519,-2.793 -3.121,-2.671 -1.597,0.121 -2.793,1.519 -2.672,3.117 0.125,1.597 1.52,2.797 3.118,2.672 1.601,-0.121 2.797,-1.516 2.675,-3.118"
             style="fill:#230800;fill-opacity:1;fill-rule:nonzero;stroke:none"
             id="path116" />
          <path
             d="m 116.199,116.402 c 0,0 3.957,8.727 10.399,9.828 5.308,0.911 9.23,-3.851 9.23,-3.851 0,0 -4.187,2.148 -9.504,1.078 -5.316,-1.07 -10.125,-7.055 -10.125,-7.055"
             style="fill:#ff8a5c;fill-opacity:1;fill-rule:nonzero;stroke:none"
             id="path118" />
          <path
             d="m 116.973,117.926 1.347,-1.715 -2.117,0.234 0.77,1.481"
             style="fill:#ff8a5c;fill-opacity:1;fill-rule:nonzero;stroke:none"
             id="path120" />
          <path
             d="m 120.871,116.066 c 0,0 6.399,-0.57 10.059,0.696 3.953,1.367 4.566,4.566 4.566,4.566 0,0 -0.984,-3.223 -5.148,-4.379 -3.645,-1.011 -9.477,-0.883 -9.477,-0.883"
             style="fill:#ff8a5c;fill-opacity:1;fill-rule:nonzero;stroke:none"
             id="path122" />
          <path
             d="m 129.926,119.383 c -0.422,-0.25 1.234,-0.656 2.574,-0.414 1.199,0.219 1.879,0.828 1.801,0.976 -0.082,0.149 -2.703,0.418 -4.375,-0.562"
             style="fill:#ffffff;fill-opacity:1;fill-rule:nonzero;stroke:none"
             id="path124" />
          <path
             d="m 128.914,119.254 -1.109,-0.129 0.746,-0.625 0.363,0.754"
             style="fill:#ffffff;fill-opacity:1;fill-rule:nonzero;stroke:none"
             id="path126" />
        </g>
      </g>
      <g
         id="g128">
        <g
           id="g130"
           clip-path="url(#clipPath134)">
          <g
             id="g136"
             clip-path="url(#clipPath140)">
            <path
               d="m 117,117 v 2 h 1 v 1 h 1 v 1 h 2 v -2 h -1 v -1 h -2 v -1 z m 15,4 v 1 h -3 v 2 h 4 v -1 h 2 v -1 h 1 v -1"
               style="fill:url(#linearGradient148);fill-opacity:1;fill-rule:nonzero;stroke:none"
               id="path150" />
          </g>
        </g>
      </g>
      <g
         id="g152">
        <g
           id="g154"
           clip-path="url(#clipPath158)">
          <path
             d="m 120.945,119.922 c -0.05,0.293 -0.078,0.594 -0.07,0.898 0.094,0.071 0.188,0.141 0.285,0.207 -0.019,-0.332 -0.004,-0.656 0.043,-0.972 -0.086,-0.047 -0.172,-0.09 -0.258,-0.133 m 9.192,2.328 c -0.059,0.004 -0.121,0.004 -0.18,0.004 -0.039,0 -0.078,0 -0.113,0 -0.199,0.555 -0.508,1.062 -0.899,1.496 0.121,0.004 0.243,0.004 0.36,0.008 0.363,-0.445 0.648,-0.953 0.832,-1.508"
             style="fill:#230700;fill-opacity:1;fill-rule:nonzero;stroke:none"
             id="path160" />
          <path
             d="m 121.203,120.055 c -0.047,0.316 -0.062,0.64 -0.043,0.972 0.629,0.45 1.297,0.875 1.996,1.246 -0.238,-0.382 -0.386,-0.824 -0.426,-1.304 -0.003,-0.074 -0.007,-0.145 -0.007,-0.219 -0.535,-0.219 -1.043,-0.457 -1.52,-0.695 m 6.961,2.105 c -0.348,0.621 -0.918,1.11 -1.613,1.34 0.832,0.156 1.633,0.23 2.394,0.25 0.391,-0.434 0.7,-0.941 0.899,-1.496 -0.574,-0.004 -1.133,-0.039 -1.68,-0.094"
             style="fill:#3f1000;fill-opacity:1;fill-rule:nonzero;stroke:none"
             id="path162" />
          <path
             d="m 122.723,120.75 c 0,0.074 0.004,0.145 0.007,0.219 0.04,0.48 0.188,0.922 0.426,1.304 1.008,0.54 2.078,0.965 3.168,1.184 0.074,0.016 0.153,0.031 0.227,0.043 0.695,-0.23 1.265,-0.719 1.613,-1.34 -2.016,-0.211 -3.851,-0.75 -5.441,-1.41"
             style="fill:#230700;fill-opacity:1;fill-rule:nonzero;stroke:none"
             id="path164" />
          <path
             d="m 117.242,117.582 -0.195,0.25 c 1.183,1.844 4.246,5.738 9.117,6.109 0.469,0.036 0.914,0.051 1.344,0.051 1.09,0 2.058,-0.105 2.918,-0.273 -0.348,0.023 -0.707,0.039 -1.078,0.039 -0.016,0 -0.028,0 -0.043,0 -0.117,-0.004 -0.239,-0.004 -0.36,-0.008 -0.761,-0.02 -1.562,-0.094 -2.394,-0.25 -0.074,-0.012 -0.153,-0.027 -0.227,-0.043 -1.09,-0.219 -2.16,-0.644 -3.168,-1.184 -0.699,-0.371 -1.367,-0.796 -1.996,-1.246 -0.097,-0.066 -0.191,-0.136 -0.285,-0.207 -1.531,-1.125 -2.801,-2.363 -3.633,-3.238"
             style="fill:#ff774a;fill-opacity:1;fill-rule:nonzero;stroke:none"
             id="path166" />
          <path
             d="m 116.488,116.875 c 0,0 0.188,0.375 0.559,0.957 l 0.195,-0.25 0.031,-0.039 c -0.511,-0.406 -0.785,-0.668 -0.785,-0.668"
             style="fill:#ff774a;fill-opacity:1;fill-rule:nonzero;stroke:none"
             id="path168" />
          <path
             d="m 116.199,116.402 c 0,0 4.063,5.782 10.071,6.344 6.007,0.567 9.226,-1.418 9.226,-1.418 l 0.551,0.91 c 0,0 -5.274,2.586 -10.531,1.282 -6.301,-1.567 -9.317,-7.118 -9.317,-7.118"
             style="fill:#270039;fill-opacity:1;fill-rule:nonzero;stroke:none"
             id="path170" />
          <path
             d="m 116.199,116.402 c 0,0 2.809,9.399 7.008,12.286 0,0 -4.82,-6.977 -7.008,-12.286"
             style="fill:#ff8a5c;fill-opacity:1;fill-rule:nonzero;stroke:none"
             id="path172" />
        </g>
      </g>
      <g
         id="g174">
        <g
           id="g176"
           clip-path="url(#clipPath180)">
          <g
             id="g182"
             clip-path="url(#clipPath186)">
            <path
               d="m 79,116 v 1 h -2 v 1 h -1 v 1 h -1 v 1 h -1 v 3 h 1 v 1 h 5 v -1 h 1 v -1 h -1 v -2 h 1 v -2 h 1 v -1 h 1 v -1 z m 6,0 v 1 h 2 v 1 h 1 v 2 h 3 v -1 h 3 v -2 h -1 v -1"
               style="fill:url(#linearGradient194);fill-opacity:1;fill-rule:nonzero;stroke:none"
               id="path196" />
          </g>
        </g>
      </g>
      <g
         id="g198">
        <g
           id="g200"
           clip-path="url(#clipPath204)">
          <path
             d="m 79.7969,120.383 c 0.2031,-2.617 2.4844,-4.574 5.1015,-4.375 2.6211,0.199 4.5782,2.484 4.3789,5.101 -0.2031,2.618 -2.4882,4.579 -5.1054,4.379 -2.6172,-0.203 -4.5742,-2.488 -4.375,-5.105"
             style="fill:#230800;fill-opacity:1;fill-rule:nonzero;stroke:none"
             id="path206" />
          <path
             d="m 80.0742,120.406 c 0.1875,-2.465 2.3399,-4.312 4.8047,-4.121 2.4649,0.188 4.3086,2.34 4.1211,4.805 -0.1914,2.465 -2.3398,4.308 -4.8047,4.121 -2.4648,-0.191 -4.3086,-2.34 -4.1211,-4.805"
             style="fill:#3f1200;fill-opacity:1;fill-rule:nonzero;stroke:none"
             id="path208" />
          <path
             d="m 81.6406,120.523 c 0.125,-1.597 1.5196,-2.793 3.1172,-2.671 1.6016,0.121 2.7969,1.519 2.6758,3.117 -0.125,1.597 -1.5195,2.797 -3.1172,2.672 -1.6016,-0.121 -2.7969,-1.516 -2.6758,-3.118"
             style="fill:#230800;fill-opacity:1;fill-rule:nonzero;stroke:none"
             id="path210" />
          <path
             d="m 93.9648,116.402 c 0,0 -3.957,8.727 -10.3984,9.828 -5.3125,0.911 -9.2305,-3.851 -9.2305,-3.851 0,0 4.1836,2.148 9.5039,1.078 5.3165,-1.07 10.125,-7.055 10.125,-7.055"
             style="fill:#ff8a5c;fill-opacity:1;fill-rule:nonzero;stroke:none"
             id="path212" />
          <path
             d="m 93.1914,117.926 -1.3476,-1.715 2.1171,0.234 -0.7695,1.481"
             style="fill:#ff8a5c;fill-opacity:1;fill-rule:nonzero;stroke:none"
             id="path214" />
          <path
             d="m 89.2891,116.066 c 0,0 -6.3946,-0.57 -10.0547,0.696 -3.9531,1.367 -4.5664,4.566 -4.5664,4.566 0,0 0.9843,-3.223 5.1445,-4.379 3.6445,-1.011 9.4766,-0.883 9.4766,-0.883"
             style="fill:#ff8a5c;fill-opacity:1;fill-rule:nonzero;stroke:none"
             id="path216" />
          <path
             d="m 80.2344,119.383 c 0.4258,-0.25 -1.2305,-0.656 -2.5703,-0.414 -1.2032,0.219 -1.8828,0.828 -1.8008,0.976 0.082,0.149 2.7031,0.418 4.3711,-0.562"
             style="fill:#ffffff;fill-opacity:1;fill-rule:nonzero;stroke:none"
             id="path218" />
          <path
             d="m 81.2461,119.254 1.1133,-0.129 -0.7461,-0.625 -0.3672,0.754"
             style="fill:#ffffff;fill-opacity:1;fill-rule:nonzero;stroke:none"
             id="path220" />
        </g>
      </g>
      <g
         id="g222">
        <g
           id="g224"
           clip-path="url(#clipPath228)">
          <g
             id="g230"
             clip-path="url(#clipPath234)">
            <path
               d="m 92,117 v 1 h -2 v 1 h -1 v 2 h 2 v -1 h 1 v -1 h 1 v -2"
               style="fill:url(#linearGradient242);fill-opacity:1;fill-rule:nonzero;stroke:none"
               id="path244" />
          </g>
        </g>
      </g>
      <g
         id="g246">
        <g
           id="g248"
           clip-path="url(#clipPath252)">
          <path
             d="m 89.2188,119.922 c -0.086,0.043 -0.1719,0.086 -0.2579,0.133 0.0469,0.316 0.0625,0.64 0.043,0.972 0.0977,-0.066 0.1914,-0.136 0.2852,-0.207 0.0039,-0.304 -0.0196,-0.609 -0.0703,-0.898"
             style="fill:#230700;fill-opacity:1;fill-rule:nonzero;stroke:none"
             id="path254" />
        </g>
      </g>
      <g
         id="g256">
        <g
           id="g258"
           clip-path="url(#clipPath262)">
          <g
             id="g264"
             clip-path="url(#clipPath268)">
            <path
               d="m 74,121 v 1 h 1 v 1 h 2 v 1 h 4 v -2 h -2 v -1"
               style="fill:url(#linearGradient276);fill-opacity:1;fill-rule:nonzero;stroke:none"
               id="path278" />
          </g>
        </g>
      </g>
      <g
         id="g280">
        <g
           id="g282"
           clip-path="url(#clipPath286)">
          <path
             d="m 80.0273,122.25 c 0.1836,0.555 0.4649,1.063 0.8282,1.508 0.1211,-0.004 0.2422,-0.004 0.3633,-0.008 -0.3907,-0.434 -0.6993,-0.941 -0.8985,-1.496 -0.039,0 -0.0742,0 -0.1133,0 -0.0586,0 -0.1211,0 -0.1797,-0.004"
             style="fill:#230700;fill-opacity:1;fill-rule:nonzero;stroke:none"
             id="path288" />
          <path
             d="m 88.9609,120.055 c -0.4765,0.238 -0.9843,0.476 -1.5195,0.695 0,0.074 -0.0039,0.145 -0.0078,0.219 -0.0391,0.48 -0.1875,0.922 -0.4258,1.304 0.6992,-0.371 1.3672,-0.796 1.9961,-1.246 0.0195,-0.332 0.0039,-0.656 -0.043,-0.972 M 82,122.16 c -0.5469,0.055 -1.1055,0.09 -1.6797,0.094 0.1992,0.555 0.5078,1.062 0.8985,1.496 0.7617,-0.02 1.5625,-0.094 2.3945,-0.25 C 82.918,123.27 82.3477,122.781 82,122.16"
             style="fill:#3f1000;fill-opacity:1;fill-rule:nonzero;stroke:none"
             id="path290" />
          <path
             d="m 87.4414,120.75 c -1.5898,0.66 -3.4258,1.199 -5.4414,1.41 0.3477,0.621 0.918,1.11 1.6133,1.34 0.0742,-0.012 0.1484,-0.027 0.2265,-0.043 1.0899,-0.219 2.1563,-0.644 3.168,-1.184 0.2383,-0.382 0.3867,-0.824 0.4258,-1.304 0.0039,-0.074 0.0078,-0.145 0.0078,-0.219"
             style="fill:#230700;fill-opacity:1;fill-rule:nonzero;stroke:none"
             id="path292" />
          <path
             d="m 92.918,117.582 c -0.8282,0.875 -2.0977,2.113 -3.6289,3.238 -0.0938,0.071 -0.1875,0.141 -0.2852,0.207 -0.6289,0.45 -1.2969,0.875 -1.9961,1.246 -1.0117,0.54 -2.0781,0.965 -3.168,1.184 -0.0781,0.016 -0.1523,0.031 -0.2265,0.043 -0.832,0.156 -1.6328,0.23 -2.3945,0.25 -0.1211,0.004 -0.2422,0.004 -0.3633,0.008 -0.0117,0 -0.0235,0 -0.0391,0 -0.3711,0 -0.7305,-0.016 -1.0781,-0.039 0.8594,0.168 1.8281,0.273 2.918,0.273 0.4296,0 0.875,-0.015 1.3398,-0.051 4.875,-0.371 7.9336,-4.265 9.1211,-6.109 l -0.1992,-0.25"
             style="fill:#ff774a;fill-opacity:1;fill-rule:nonzero;stroke:none"
             id="path294" />
          <path
             d="m 93.6758,116.875 c 0,0 -0.2735,0.262 -0.7852,0.668 l 0.0274,0.039 0.1992,0.25 c 0.3711,-0.582 0.5586,-0.957 0.5586,-0.957"
             style="fill:#ff774a;fill-opacity:1;fill-rule:nonzero;stroke:none"
             id="path296" />
          <path
             d="m 93.9648,116.402 c 0,0 -4.0625,5.782 -10.0703,6.344 -6.0117,0.567 -9.2265,-1.418 -9.2265,-1.418 l -0.5508,0.91 c 0,0 5.2695,2.586 10.5312,1.282 6.3008,-1.567 9.3164,-7.118 9.3164,-7.118"
             style="fill:#270039;fill-opacity:1;fill-rule:nonzero;stroke:none"
             id="path298" />
          <path
             d="m 93.9648,116.402 c 0,0 -2.8085,9.399 -7.0078,12.286 0,0 4.8203,-6.977 7.0078,-12.286"
             style="fill:#ff8a5c;fill-opacity:1;fill-rule:nonzero;stroke:none"
             id="path300" />
          <path
             d="m 114.281,183 c 5.875,-0.672 6.836,-5.398 6.836,-5.398 0,0 -2.476,3.125 -6.836,5.398 m 34.981,-30.648 3.558,-2.18 c -2.285,8.816 -14.324,12.828 -16.328,13.437 l -0.289,0.086 c -1.758,5.996 -6.387,12.489 -11.215,16.27 l -0.261,0.211 -0.125,0.105 c -1.426,1.071 -2.875,1.903 -4.254,2.41 -3.106,1.141 -5.633,1.188 -7.379,0.946 -3.278,1.457 -7.453,2.316 -12.313,1.254 -5.9919,-1.309 -10.7927,-3.703 -14.4958,-5.871 l -0.0118,-0.012 -1.4726,-0.887 -0.0391,-0.019 -0.0195,-0.008 c -1.9375,-1.196 -3.5195,-2.258 -4.7734,-2.961 l -0.0391,-0.02 H 79.793 l -1.9961,-0.82 c -3.0274,-0.461 -5.3711,6.578 -5.3711,6.578 -2.7383,-4.387 0.6367,-10.879 0.6367,-10.879 0,0 -7.0312,-1.187 -10.7812,-6.762 -3.7422,-5.562 -3.1915,-16.093 -3.1915,-16.093 1.2032,3.558 4.1954,10.269 4.379,10.683 l -0.2618,-1 -0.0586,-0.261 c -2.2382,-10.438 2.4297,-36.489 2.4297,-36.489 0.9766,11.957 6.4258,23.528 6.4258,23.528 3.1797,-4.844 13.8008,-6.317 14.4649,-6.395 -1.3985,0.461 -2.6915,1.254 -3.8204,2.266 l -0.039,0.027 c -4.2696,3.879 -6.2188,10.91 -3.336,14.871 3.6563,5.035 12.336,4.668 25.3166,4.207 5.91,-0.207 10.816,0.172 14.613,0.555 4.531,0.453 7.485,0.906 8.676,0.359 2.199,-1 13.801,-11.332 15.441,-14.617 1.649,-3.289 0.469,-24.726 0.469,-24.726 l 4.777,19.062 c 2.778,-4.289 2.247,-7.434 2.247,-7.434 0,0 1.707,5.235 0.839,11.207 -0.847,5.786 -2.304,9.172 -2.39,9.372"
             style="fill:#19100b;fill-opacity:1;fill-rule:nonzero;stroke:none"
             id="path302" />
        </g>
      </g>
      <g
         id="g304">
        <g
           id="g306"
           clip-path="url(#clipPath310)">
          <path
             d="m 124,180 h 1 v 1 h -1 z"
             style="fill:url(#linearGradient318);fill-opacity:1;fill-rule:nonzero;stroke:none"
             id="path320" />
        </g>
      </g>
      <g
         id="g322">
        <g
           id="g324"
           clip-path="url(#clipPath328)">
          <path
             d="m 77.9063,149.727 c 0,1.73 0.4257,3.347 1.3671,4.64 0.0039,0.004 0.0079,0.008 0.0079,0.012 0,-0.004 -0.004,-0.008 -0.0079,-0.012 -0.9414,-1.293 -1.3671,-2.91 -1.3671,-4.64 m 30.0277,8.789 v 0 0 0 m -0.051,0 v 0 0 m -0.051,0 v 0 0 m -0.051,0 h -0.004 0.004 m -0.051,0 c 0,0 0,0 -0.003,0 0.003,0 0.003,0 0.003,0 m -0.046,0 c -0.004,0 -0.008,0 -0.008,0 0,0 0.004,0 0.008,0 m -0.051,0 c -0.004,0 -0.008,0 -0.012,0 0.004,0 0.008,0 0.012,0 m -0.051,0 c -0.004,0 -0.008,0 -0.012,0 0.004,0 0.008,0 0.012,0 m -0.047,0 c -0.008,0 -0.012,0 -0.015,0 0.003,0 0.007,0 0.015,0 m -0.051,0 c -0.004,0 -0.011,0 -0.019,0 0.008,0 0.015,0 0.019,0 m -0.05,0 c -0.004,0 -0.012,0 -0.02,0 0.008,0 0.016,0 0.02,0 m -0.051,0 c -0.004,0 -0.012,0 -0.02,0 0.008,0 0.016,0 0.02,0 m -0.047,0 c -0.008,0 -0.02,0 -0.027,0 0.007,0 0.019,0 0.027,0 m -0.051,0 c -0.008,0.004 -0.019,0.004 -0.027,0.004 0.008,0 0.019,-0.004 0.027,-0.004 m -0.047,0.004 c -0.011,0 -0.023,0 -0.035,0 0.012,0 0.024,0 0.035,0 m -0.05,0 c -0.012,0 -0.024,0 -0.04,0 0.016,0 0.028,0 0.04,0 m -0.051,0 c -0.012,0 -0.028,0 -0.039,0 0.011,0 0.027,0 0.039,0 m -0.047,0 c -0.016,0 -0.031,0 -0.047,0 0.016,0 0.031,0 0.047,0 m -0.051,0 c -0.016,0 -0.031,0 -0.047,0 0.016,0 0.031,0 0.047,0 m -0.051,0 c -0.015,0 -0.035,0 -0.05,0 0.015,0 0.035,0 0.05,0 m -0.05,0 c -0.379,0.003 -0.758,0.011 -1.149,0.019 0.391,-0.008 0.77,-0.016 1.149,-0.019 m -1.149,0.019 c -0.016,0 -0.031,0 -0.047,0 0.016,0 0.031,0 0.047,0 m -0.055,0 c -0.015,0 -0.031,0.004 -0.046,0.004 0.015,0 0.031,-0.004 0.046,-0.004 m -0.05,0.004 c -0.016,0 -0.032,0 -0.047,0 0.015,0 0.031,0 0.047,0 m -0.055,0 c -0.016,0 -0.031,0 -0.043,0 0.012,0 0.027,0 0.043,0 m -0.055,0 c -0.015,0 -0.027,0 -0.043,0.004 0.016,-0.004 0.028,-0.004 0.043,-0.004 m -0.054,0.004 c -0.012,0 -0.028,0 -0.04,0 0.012,0 0.028,0 0.04,0 m -0.055,0 c -0.012,0 -0.024,0 -0.035,0 0.011,0 0.023,0 0.035,0 m -0.055,0 c -0.012,0 -0.023,0.004 -0.035,0.004 0.012,0 0.023,-0.004 0.035,-0.004 m -0.055,0.004 c -0.007,0 -0.019,0 -0.031,0 0.012,0 0.024,0 0.031,0 m -0.054,0 c -0.008,0 -0.02,0 -0.028,0 0.008,0 0.02,0 0.028,0 m -0.055,0.004 c -0.008,0 -0.016,0 -0.023,0 0.007,0 0.015,0 0.023,0 m -0.055,0 c -0.007,0 -0.015,0 -0.019,0 0.004,0 0.012,0 0.019,0 m -0.054,0 c -0.004,0 -0.012,0 -0.02,0 0.008,0 0.016,0 0.02,0 m -0.055,0.004 c -0.004,0 -0.012,0 -0.016,0 0.004,0 0.012,0 0.016,0 m -0.055,0 c -0.004,0 -0.007,0 -0.011,0 0.004,0 0.007,0 0.011,0 m -0.054,0.004 c -0.004,0 -0.008,0 -0.012,0 0.004,0 0.008,0 0.012,0 m -0.059,0 h -0.004 0.004 m -0.055,0.003 v 0 0 m -0.05,0 c -0.004,0 -0.004,0 -0.004,0 0,0 0,0 0.004,0 m -0.055,0 h -0.004 0.004 m -0.055,0.004 c 0,0 0,0 -0.004,0 0.004,0 0.004,0 0.004,0 m -0.109,0.004 v 0 c -0.02,0 -0.039,0 -0.059,0 0.02,0 0.039,0 0.059,0 v 0 m -0.203,0.008 c -0.008,0 -0.02,0 -0.032,0 0.012,0 0.024,0 0.032,0 m -0.059,0 c -0.019,0 -0.035,0.004 -0.055,0.004 0.02,0 0.036,-0.004 0.055,-0.004 m -0.16,0.008 c -0.09,0.004 -0.18,0.004 -0.266,0.008 0.086,-0.004 0.176,-0.004 0.266,-0.008 m -0.316,0.012 c -3.317,0.117 -6.3442,0.222 -9.0668,0.222 2.7226,0 5.7498,-0.105 9.0668,-0.222 m -9.0707,0.222 v 0 0 0 m 24.0627,0.266 c 0.039,0.008 0.082,0.012 0.121,0.015 -0.039,-0.003 -0.082,-0.007 -0.121,-0.015 m 0.129,0.015 c 0.035,0.004 0.074,0.008 0.109,0.012 -0.035,-0.004 -0.074,-0.008 -0.109,-0.012 m 0.152,0.016 c 0.016,0 0.031,0 0.047,0.004 -0.016,-0.004 -0.031,-0.004 -0.047,-0.004 m 0.125,0.012 c 0.004,0 0.012,0 0.016,0 -0.004,0 -0.012,0 -0.016,0 m 0.027,0.004 c 0.016,0 0.032,0 0.047,0.004 -0.015,-0.004 -0.031,-0.004 -0.047,-0.004 m 0.051,0.004 c 0.008,0 0.016,0 0.024,0 -0.008,0 -0.016,0 -0.024,0 m 0.055,0.004 c 0.015,0.003 0.027,0.003 0.043,0.003 -0.016,0 -0.028,0 -0.043,-0.003 m 0.055,0.007 c 1.257,0.125 2.39,0.254 3.39,0.356 -1,-0.102 -2.133,-0.231 -3.39,-0.356 m 8.433,0.34 c -0.387,0.176 -0.961,0.246 -1.711,0.246 0.75,0 1.324,-0.07 1.711,-0.246 m -5.031,0.016 c 0.09,0.008 0.176,0.019 0.262,0.027 -0.086,-0.008 -0.172,-0.019 -0.262,-0.027 m 0.297,0.031 c 0.011,0 0.019,0 0.031,0 -0.012,0 -0.02,0 -0.031,0 m 2.758,0.199 c 0.089,0 0.175,0 0.265,0 v 0 c -0.09,0 -0.176,0 -0.265,0"
             style="fill:#942e46;fill-opacity:1;fill-rule:nonzero;stroke:none"
             id="path330" />
          <path
             d="m 143.789,120.145 c 0,0 0.41,7.433 0.41,14.218 0,0.172 0,0.348 -0.004,0.52 -0.011,4.535 -0.222,8.683 -0.875,9.988 -0.757,1.52 -3.652,4.551 -6.757,7.465 -3.61,3.387 -7.5,6.613 -8.684,7.152 v 0 c 0,0.004 -0.004,0.004 -0.008,0.004 -0.387,0.176 -0.961,0.246 -1.711,0.246 v 0 0 0 c -0.09,0 -0.176,0 -0.265,0 -0.754,-0.015 -1.665,-0.09 -2.727,-0.199 -0.012,0 -0.02,0 -0.031,0 -0.012,-0.004 -0.024,-0.004 -0.035,-0.004 -0.086,-0.008 -0.172,-0.019 -0.262,-0.027 -0.004,0 -0.008,0 -0.012,0 -1,-0.102 -2.133,-0.231 -3.39,-0.356 -0.004,0 -0.008,-0.004 -0.012,-0.004 -0.016,0 -0.028,0 -0.043,-0.003 -0.012,0 -0.02,0 -0.031,-0.004 -0.008,0 -0.016,0 -0.024,0 h -0.004 c -0.015,-0.004 -0.031,-0.004 -0.047,-0.004 -0.004,-0.004 -0.007,-0.004 -0.011,-0.004 -0.004,0 -0.012,0 -0.016,0 -0.016,-0.004 -0.031,-0.004 -0.047,-0.004 v 0 0 c -0.012,-0.004 -0.019,-0.004 -0.031,-0.004 -0.016,-0.004 -0.031,-0.004 -0.047,-0.004 -0.016,-0.004 -0.027,-0.004 -0.043,-0.004 -0.035,-0.004 -0.074,-0.008 -0.109,-0.012 -0.004,0 -0.004,0 -0.008,0 -0.039,-0.003 -0.082,-0.007 -0.121,-0.015 -2.992,-0.293 -6.645,-0.574 -10.91,-0.574 v 0 c -0.02,0 -0.036,0 -0.051,0 v 0 c -0.02,0 -0.035,0 -0.051,0 v 0 c -0.016,0 -0.031,0 -0.051,0 h -0.004 c -0.015,0 -0.031,0 -0.047,0 0,0 0,0 -0.003,0 -0.012,0 -0.028,0 -0.043,0 -0.004,0 -0.008,0 -0.008,0 -0.016,0 -0.028,0 -0.043,0 -0.004,0 -0.008,0 -0.012,0 -0.012,0 -0.023,0 -0.039,0 -0.004,0 -0.008,0 -0.012,0 -0.011,0 -0.023,0 -0.035,0 -0.008,0 -0.012,0 -0.015,0 -0.012,0 -0.024,0 -0.036,0 -0.004,0 -0.011,0 -0.019,0 -0.008,0 -0.02,0 -0.031,0 -0.004,0 -0.012,0 -0.02,0 -0.008,0 -0.019,0 -0.031,0 -0.004,0 -0.012,0 -0.02,0 -0.011,0 -0.019,0 -0.027,0 -0.008,0 -0.02,0 -0.027,0 -0.008,0 -0.016,0 -0.024,0 -0.008,0 -0.019,0.004 -0.027,0.004 -0.008,0 -0.016,0 -0.02,0 -0.011,0 -0.023,0 -0.035,0 -0.008,0 -0.012,0 -0.015,0 -0.012,0 -0.024,0 -0.04,0 -0.003,0 -0.007,0 -0.011,0 -0.012,0 -0.028,0 -0.039,0 -0.004,0 -0.004,0 -0.008,0 -0.016,0 -0.031,0 -0.047,0 h -0.004 c -0.016,0 -0.031,0 -0.047,0 -0.004,0 -0.004,0 -0.004,0 -0.015,0 -0.035,0 -0.05,0 v 0 c -0.379,0.003 -0.758,0.011 -1.149,0.019 v 0 c -0.016,0 -0.031,0 -0.047,0 -0.004,0 -0.004,0 -0.008,0 -0.015,0 -0.031,0.004 -0.046,0.004 h -0.004 c -0.016,0 -0.032,0 -0.047,0 -0.004,0 -0.004,0 -0.008,0 -0.016,0 -0.031,0 -0.043,0 -0.004,0 -0.008,0 -0.012,0 -0.015,0 -0.027,0 -0.043,0.004 -0.004,0 -0.008,0 -0.011,0 -0.012,0 -0.028,0 -0.04,0 -0.003,0 -0.007,0 -0.015,0 -0.012,0 -0.024,0 -0.035,0 -0.008,0 -0.012,0 -0.02,0 -0.012,0 -0.023,0.004 -0.035,0.004 -0.004,0 -0.012,0 -0.02,0 -0.007,0 -0.019,0 -0.031,0 -0.008,0 -0.015,0 -0.023,0 -0.008,0 -0.02,0 -0.028,0 -0.007,0 -0.015,0 -0.027,0.004 -0.008,0 -0.016,0 -0.023,0 -0.012,0 -0.024,0 -0.032,0 -0.007,0 -0.015,0 -0.019,0 -0.012,0 -0.024,0 -0.035,0 -0.004,0 -0.012,0 -0.02,0 -0.012,0.004 -0.023,0.004 -0.035,0.004 -0.004,0 -0.012,0 -0.016,0 -0.011,0 -0.027,0 -0.039,0 -0.004,0 -0.007,0 -0.011,0 -0.016,0 -0.032,0 -0.043,0.004 -0.004,0 -0.008,0 -0.012,0 -0.016,0 -0.031,0 -0.047,0 h -0.004 c -0.015,0 -0.031,0 -0.051,0.003 v 0 c -0.019,0 -0.035,0 -0.05,0 -0.004,0 -0.004,0 -0.004,0 -0.02,0 -0.035,0 -0.051,0 h -0.004 c -0.016,0.004 -0.035,0.004 -0.051,0.004 0,0 0,0 -0.004,0 -0.035,0 -0.07,0.004 -0.105,0.004 v 0 c -0.02,0 -0.039,0 -0.059,0 -0.051,0.004 -0.097,0.004 -0.144,0.008 -0.008,0 -0.02,0 -0.032,0 -0.007,0 -0.015,0 -0.027,0 -0.019,0 -0.035,0.004 -0.055,0.004 -0.035,0 -0.07,0 -0.105,0.004 -0.09,0.004 -0.18,0.004 -0.266,0.008 -0.015,0 -0.035,0 -0.05,0.004 -3.317,0.117 -6.3442,0.222 -9.0668,0.222 h -0.0039 v 0 0 0 c -7.6016,0 -12.8555,-0.816 -15.5,-4.445 0,-0.004 -0.004,-0.008 -0.0079,-0.012 -0.9414,-1.293 -1.3671,-2.91 -1.3671,-4.64 0.0039,-3.571 1.8242,-7.618 4.7031,-10.231 -11.0586,8.219 -6.1602,21.914 -6.1602,21.914 -0.9726,0.184 -1.9101,0.266 -2.8008,0.266 -4.8515,0 -8.3984,-2.399 -9.6601,-3.403 4.8164,4.27 10.2461,5.598 15.1328,5.598 8.0391,0 14.6172,-3.59 14.6172,-3.59 l 1.8906,-0.058 c 0,0 -3.1914,8.265 -9.082,10.281 -1.6797,0.57 -3.4961,0.773 -5.2383,0.773 -4.3633,0 -8.2461,-1.285 -8.2461,-1.285 0,0 6.4102,4.313 12.1367,4.313 0.7578,0 1.5,-0.075 2.2149,-0.242 6.1328,-1.458 11.4648,-13.618 11.4648,-13.618 0.5,-0.203 1.2771,-0.265 2.0271,-0.265 1.098,0 2.129,0.129 2.129,0.129 0,0 -4.0975,12.453 -10.2772,14.804 -2.0625,0.782 -4.1914,1.039 -6.1133,1.039 -3.1328,0 -5.7187,-0.691 -6.5586,-0.941 1.0547,0.379 4.9375,1.617 9.9493,1.617 0.9882,0 2.0234,-0.051 3.0859,-0.164 7.3989,-0.769 12.1519,-16.902 12.1519,-16.902 h 3.926 c 0,0 0.145,12.883 -6.074,17.82 -2.227,1.766 -5.2344,2.332 -8.1797,2.332 -4.9414,0 -9.7031,-1.598 -10.2695,-1.793 l 1.4726,0.887 0.0118,0.012 c 0.2656,0.093 4.582,1.617 9.5195,1.617 3.1328,0 6.5153,-0.617 9.2653,-2.602 7.203,-5.207 6.973,-17.078 6.973,-17.078 0.133,-0.004 0.273,-0.008 0.426,-0.008 3.199,0 10.242,0.942 10.242,0.942 1.562,6.113 -1.168,14.812 -1.438,15.644 2.661,-5.699 2.536,-15.211 3.407,-15.578 l 6.968,0.918 c 0.465,10.445 -4.933,15.758 -6.535,17.09 4.828,-3.781 9.457,-10.274 11.215,-16.27 l 0.289,-0.086 c 0,0 -0.887,-4.168 2.856,-5.718 3.632,-1.508 9.515,-5.278 9.882,-5.52 -6.488,2.961 -14.222,4.332 -14.222,4.332 l 5.805,-6.441 c 5.66,-4.707 7.753,-11.055 7.753,-11.055 l -4.777,-19.062"
             style="fill:#0f0406;fill-opacity:1;fill-rule:nonzero;stroke:none"
             id="path332" />
          <path
             d="m 65.5781,120.07 c 0,0 -3.0351,16.95 -3.0351,28.985 0,2.883 0.1718,5.484 0.6054,7.504 l 0.0586,0.261 0.2618,1 c 0,-8.062 6.121,-12.949 6.121,-12.949 -2.9296,7.664 2.1524,11.418 2.4024,11.59 -2.9883,-5.129 0.0117,-12.863 0.0117,-12.863 0,0 -5.4492,-11.571 -6.4258,-23.528"
             style="fill:#0f0406;fill-opacity:1;fill-rule:nonzero;stroke:none"
             id="path334" />
        </g>
      </g>
    </g>
  </g>
</svg>
