<?xml version="1.0" encoding="UTF-8" standalone="no"?>
<!-- Created with Inkscape (http://www.inkscape.org/) -->

<svg
   version="1.1"
   id="svg2"
   width="28"
   height="28"
   viewBox="0 0 28 28"
   sodipodi:docname="white woman.eps"
   xmlns:inkscape="http://www.inkscape.org/namespaces/inkscape"
   xmlns:sodipodi="http://sodipodi.sourceforge.net/DTD/sodipodi-0.dtd"
   xmlns="http://www.w3.org/2000/svg"
   xmlns:svg="http://www.w3.org/2000/svg">
  <defs
     id="defs6">
    <clipPath
       clipPathUnits="userSpaceOnUse"
       id="clipPath18">
      <path
         d="M 210,105 C 210,47.0117 162.988,0 105,0 47.0117,0 0,47.0117 0,105 c 0,57.988 47.0117,105 105,105 57.988,0 105,-47.012 105,-105"
         id="path16" />
    </clipPath>
    <clipPath
       clipPathUnits="userSpaceOnUse"
       id="clipPath116">
      <path
         d="M 210,105 C 210,47.0117 162.988,0 105,0 47.0117,0 0,47.0117 0,105 c 0,57.988 47.0117,105 105,105 57.988,0 105,-47.012 105,-105"
         id="path114" />
    </clipPath>
    <clipPath
       clipPathUnits="userSpaceOnUse"
       id="clipPath122">
      <path
         d="m 127.016,97.7969 c -1.481,0 -2.657,0.1679 -3.141,0.25 -0.066,0.0117 -0.133,0.0234 -0.199,0.039 -0.028,0.0039 -0.043,0.0039 -0.043,0.0039 0,0 0.004,0 0.008,0 -1.746,0.3243 -3.211,0.8047 -4.02,1.3047 l 1.008,-0.4843 -1.801,2.7538 c -0.015,0.434 -0.015,0.852 0.004,1.262 0,-0.004 0,-0.008 0,-0.012 0,0 0.848,2.524 2.965,4.887 -0.16,-3.328 2.262,-6.27 5.621,-6.699 0.281,-0.039 0.559,-0.055 0.832,-0.055 3.199,0 5.977,2.375 6.395,5.629 0.031,0.254 0.05,0.504 0.054,0.754 0.223,0.023 0.449,0.062 0.668,0.117 1.231,0.308 1.891,0.988 1.797,1.133 -0.027,0.047 -0.316,0.09 -0.754,0.09 -0.476,0 -1.125,-0.051 -1.801,-0.2 -0.199,1.188 -0.726,2.278 -1.492,3.164 4.903,-0.636 5.785,-3.605 5.785,-3.605 l -0.031,0.391 c 0,0 0,0.011 -0.004,0.035 0.106,-0.989 0.031,-2.028 -0.191,-3.051 -0.278,-1.074 -1.145,-3.266 -3.824,-5.402 -2.356,-1.8793 -5.485,-2.3051 -7.836,-2.3051 m -8.078,6.3441 c 0.16,1.242 0.48,2.367 0.921,3.375 -0.5,-1.266 -0.785,-2.469 -0.921,-3.375 m 19.886,4.754 c -0.215,1.261 -1.508,5.269 -9.121,5.535 -0.004,0 -0.004,0 -0.008,0 0.524,0.062 1.043,0.093 1.551,0.093 1.375,0 2.68,-0.226 3.797,-0.664 2.277,-0.89 3.465,-2.785 3.781,-4.964"
         id="path120" />
    </clipPath>
    <linearGradient
       x1="0"
       y1="0"
       x2="1"
       y2="0"
       gradientUnits="userSpaceOnUse"
       gradientTransform="matrix(2.22285,17.264,17.264,-2.22285,127.885,97.506)"
       spreadMethod="pad"
       id="linearGradient130">
      <stop
         style="stop-opacity:1;stop-color:#eee2ff"
         offset="0"
         id="stop124" />
      <stop
         style="stop-opacity:1;stop-color:#bdc9fb"
         offset="0.996032"
         id="stop126" />
      <stop
         style="stop-opacity:1;stop-color:#bdc9fb"
         offset="1"
         id="stop128" />
    </linearGradient>
    <clipPath
       clipPathUnits="userSpaceOnUse"
       id="clipPath140">
      <path
         d="M 210,105 C 210,47.0117 162.988,0 105,0 47.0117,0 0,47.0117 0,105 c 0,57.988 47.0117,105 105,105 57.988,0 105,-47.012 105,-105"
         id="path138" />
    </clipPath>
    <clipPath
       clipPathUnits="userSpaceOnUse"
       id="clipPath164">
      <path
         d="M 210,105 C 210,47.0117 162.988,0 105,0 47.0117,0 0,47.0117 0,105 c 0,57.988 47.0117,105 105,105 57.988,0 105,-47.012 105,-105"
         id="path162" />
    </clipPath>
    <clipPath
       clipPathUnits="userSpaceOnUse"
       id="clipPath170">
      <path
         d="m 118.832,102.914 c 0,0.004 0,0.008 0,0.012 0.02,0.418 0.055,0.82 0.106,1.215 0.136,0.906 0.421,2.109 0.921,3.375 0.942,2.132 2.438,3.754 4.192,4.89 -1.176,-1 -1.996,-2.426 -2.211,-4.082 -0.024,-0.176 -0.035,-0.351 -0.043,-0.523 -2.117,-2.363 -2.965,-4.887 -2.965,-4.887 m 20.07,5.215 c 0,0 -0.882,2.969 -5.785,3.605 -1.004,1.153 -2.414,1.957 -4.051,2.168 -0.281,0.039 -0.554,0.055 -0.832,0.055 -0.39,0 -0.773,-0.035 -1.148,-0.105 0.863,0.285 1.742,0.476 2.609,0.578 0.004,0 0.004,0 0.008,0 7.613,-0.266 8.906,-4.274 9.121,-5.535 0.02,-0.114 0.031,-0.223 0.043,-0.34 0.004,-0.024 0.004,-0.035 0.004,-0.035 l 0.031,-0.391"
         id="path168" />
    </clipPath>
    <linearGradient
       x1="0"
       y1="0"
       x2="1"
       y2="0"
       gradientUnits="userSpaceOnUse"
       gradientTransform="matrix(2.22285,17.264,17.264,-2.22285,127.885,97.506)"
       spreadMethod="pad"
       id="linearGradient178">
      <stop
         style="stop-opacity:1;stop-color:#f3bfcc"
         offset="0"
         id="stop172" />
      <stop
         style="stop-opacity:1;stop-color:#d1aec9"
         offset="0.996032"
         id="stop174" />
      <stop
         style="stop-opacity:1;stop-color:#d1aec9"
         offset="1"
         id="stop176" />
    </linearGradient>
    <clipPath
       clipPathUnits="userSpaceOnUse"
       id="clipPath188">
      <path
         d="M 210,105 C 210,47.0117 162.988,0 105,0 47.0117,0 0,47.0117 0,105 c 0,57.988 47.0117,105 105,105 57.988,0 105,-47.012 105,-105"
         id="path186" />
    </clipPath>
    <clipPath
       clipPathUnits="userSpaceOnUse"
       id="clipPath204">
      <path
         d="M 210,105 C 210,47.0117 162.988,0 105,0 47.0117,0 0,47.0117 0,105 c 0,57.988 47.0117,105 105,105 57.988,0 105,-47.012 105,-105"
         id="path202" />
    </clipPath>
    <clipPath
       clipPathUnits="userSpaceOnUse"
       id="clipPath210">
      <path
         d="m 84.7266,97.7969 c -2.3555,0 -5.4805,0.4258 -7.836,2.3051 -2.6797,2.136 -3.5468,4.324 -3.8281,5.402 -0.2227,1.023 -0.293,2.062 -0.1914,3.051 0,-0.024 0,-0.035 0,-0.035 l -0.0313,-0.391 c 0,0 0.8829,2.969 5.7852,3.605 -0.7695,-0.886 -1.293,-1.976 -1.4922,-3.164 -0.6758,0.149 -1.3281,0.2 -1.8047,0.2 -0.4336,0 -0.7226,-0.043 -0.75,-0.09 -0.0976,-0.145 0.5664,-0.825 1.7969,-1.133 0.2148,-0.055 0.4414,-0.094 0.668,-0.117 0.0039,-0.25 0.0195,-0.5 0.0547,-0.754 0.4179,-3.254 3.1953,-5.629 6.3906,-5.629 0.2773,0 0.5547,0.016 0.8359,0.055 3.3594,0.429 5.7774,3.371 5.6211,6.699 2.1172,-2.363 2.9649,-4.887 2.9649,-4.887 0,0.004 0,0.008 0,0.012 0.0156,-0.41 0.0195,-0.828 0.0039,-1.262 l -1.8008,-2.7538 1.0078,0.4843 c -0.8086,-0.5 -2.2773,-0.9804 -4.0195,-1.3047 0.0039,0 0.0039,0 0.0039,0 0,0 -0.0117,0 -0.0352,-0.0039 -0.0703,-0.0156 -0.1367,-0.0273 -0.207,-0.039 -0.4883,-0.0821 -1.6602,-0.25 -3.1367,-0.25 m 8.0781,6.3441 c -0.1367,0.906 -0.4219,2.109 -0.9219,3.375 0.4414,-1.008 0.7617,-2.133 0.9219,-3.375 m -19.8906,4.757 c 0.3203,2.176 1.5078,4.071 3.7851,4.961 1.1133,0.438 2.4219,0.664 3.7969,0.664 0.5078,0 1.0273,-0.031 1.5469,-0.093 0,0 0,0 -0.0039,0 -7.6094,-0.266 -8.9063,-4.27 -9.125,-5.532"
         id="path208" />
    </clipPath>
    <linearGradient
       x1="0"
       y1="0"
       x2="1"
       y2="0"
       gradientUnits="userSpaceOnUse"
       gradientTransform="matrix(-2.22285,17.264,-17.264,-2.22285,83.8562,97.506)"
       spreadMethod="pad"
       id="linearGradient218">
      <stop
         style="stop-opacity:1;stop-color:#eee2ff"
         offset="0"
         id="stop212" />
      <stop
         style="stop-opacity:1;stop-color:#bdc9fb"
         offset="0.996032"
         id="stop214" />
      <stop
         style="stop-opacity:1;stop-color:#bdc9fb"
         offset="1"
         id="stop216" />
    </linearGradient>
    <clipPath
       clipPathUnits="userSpaceOnUse"
       id="clipPath228">
      <path
         d="M 210,105 C 210,47.0117 162.988,0 105,0 47.0117,0 0,47.0117 0,105 c 0,57.988 47.0117,105 105,105 57.988,0 105,-47.012 105,-105"
         id="path226" />
    </clipPath>
    <clipPath
       clipPathUnits="userSpaceOnUse"
       id="clipPath252">
      <path
         d="M 210,105 C 210,47.0117 162.988,0 105,0 47.0117,0 0,47.0117 0,105 c 0,57.988 47.0117,105 105,105 57.988,0 105,-47.012 105,-105"
         id="path250" />
    </clipPath>
    <clipPath
       clipPathUnits="userSpaceOnUse"
       id="clipPath258">
      <path
         d="m 92.9102,102.914 c 0,0 -0.8477,2.524 -2.9649,4.887 -0.0078,0.172 -0.0234,0.347 -0.0469,0.523 -0.2109,1.656 -1.0312,3.082 -2.207,4.082 1.75,-1.136 3.25,-2.758 4.1914,-4.89 0.5,-1.266 0.7852,-2.469 0.9219,-3.375 0.0508,-0.395 0.0859,-0.797 0.1055,-1.215 0,-0.004 0,-0.008 0,-0.012 m -20.0704,5.215 0.0313,0.391 c 0,0 0,0.011 0,0.035 0.0156,0.117 0.0273,0.23 0.043,0.343 0.2187,1.262 1.5156,5.266 9.125,5.532 0.0039,0 0.0039,0 0.0039,0 0.8711,-0.102 1.75,-0.293 2.6133,-0.578 -0.375,0.07 -0.7579,0.105 -1.1485,0.105 -0.2773,0 -0.5547,-0.016 -0.832,-0.055 -1.6367,-0.211 -3.0508,-1.015 -4.0508,-2.168 -4.9023,-0.636 -5.7852,-3.605 -5.7852,-3.605"
         id="path256" />
    </clipPath>
    <linearGradient
       x1="0"
       y1="0"
       x2="1"
       y2="0"
       gradientUnits="userSpaceOnUse"
       gradientTransform="matrix(-2.22285,17.264,-17.264,-2.22285,83.8562,97.506)"
       spreadMethod="pad"
       id="linearGradient266">
      <stop
         style="stop-opacity:1;stop-color:#f3bfcc"
         offset="0"
         id="stop260" />
      <stop
         style="stop-opacity:1;stop-color:#d1aec9"
         offset="0.996032"
         id="stop262" />
      <stop
         style="stop-opacity:1;stop-color:#d1aec9"
         offset="1"
         id="stop264" />
    </linearGradient>
    <clipPath
       clipPathUnits="userSpaceOnUse"
       id="clipPath276">
      <path
         d="M 210,105 C 210,47.0117 162.988,0 105,0 47.0117,0 0,47.0117 0,105 c 0,57.988 47.0117,105 105,105 57.988,0 105,-47.012 105,-105"
         id="path274" />
    </clipPath>
  </defs>
  <sodipodi:namedview
     id="namedview4"
     pagecolor="#ffffff"
     bordercolor="#000000"
     borderopacity="0.25"
     inkscape:showpageshadow="2"
     inkscape:pageopacity="0.0"
     inkscape:pagecheckerboard="0"
     inkscape:deskcolor="#d1d1d1" />
  <g
     id="g8"
     inkscape:groupmode="layer"
     inkscape:label="ink_ext_XXXXXX"
     transform="matrix(1.3333333,0,0,-1.3333333,0,28)">
    <g
       id="g10"
       transform="scale(0.1)">
      <g
         id="g12">
        <g
           id="g14"
           clip-path="url(#clipPath18)">
          <path
             d="M 210,105 C 210,47.0117 162.988,0 105,0 47.0117,0 0,47.0117 0,105 c 0,57.988 47.0117,105 105,105 57.988,0 105,-47.012 105,-105"
             style="fill:#c8e1ed;fill-opacity:1;fill-rule:nonzero;stroke:none"
             id="path20" />
          <path
             d="m 122.402,39.0352 c -0.613,3.9336 0,24.6836 0,24.6836 l -16.605,-1.086 -16.6056,1.086 c 0,0 0.6133,-20.75 0,-24.6836 0,0 -9.375,-10 -25.3594,-12.8086 h 41.965 41.969 c -15.989,2.8086 -25.364,12.8086 -25.364,12.8086"
             style="fill:#ffa697;fill-opacity:1;fill-rule:nonzero;stroke:none"
             id="path22" />
          <path
             d="m 122.145,44.6953 c -0.04,3.6211 0.019,8.1758 0.089,11.9258 0.028,0.0117 0.047,0.0195 0.075,0.0312 l -0.164,-11.957 v 0 m -32.7114,7.2656 v 0 l -0.0781,3.9571 c 0.0039,-0.0039 0.0117,-0.0039 0.0195,-0.0078 0.0195,-1.2618 0.043,-2.5977 0.0586,-3.9493"
             style="fill:#d9bfc0;fill-opacity:1;fill-rule:nonzero;stroke:none"
             id="path24" />
          <path
             d="m 113.07,43.4102 c -13.7028,0 -23.613,8.5273 -23.6364,8.5507 -0.0156,1.3516 -0.0391,2.6875 -0.0586,3.9493 4.9297,-2.1133 10.2734,-3.418 15.645,-3.418 5.945,0 11.859,1.5976 17.214,4.1289 -0.07,-3.75 -0.129,-8.3047 -0.089,-11.9258 -3.157,-0.9101 -6.2,-1.2851 -9.075,-1.2851"
             style="fill:#ff9584;fill-opacity:1;fill-rule:nonzero;stroke:none"
             id="path26" />
          <path
             d="M 175.84,18.3984 C 187.25,8.79297 180.645,-5.28906 109.176,-8.625 37.7031,-11.9648 21.3555,-2.98438 35,13.8594 48.8242,30.918 76.582,31.0586 79.3945,33.5898 l 1.8868,1.9649 c 1.0078,1.1797 1.8437,2.375 2.4218,3.2305 l 0.0391,0.0546 0.8164,1.1563 4.6211,-0.957 0.0117,-0.0039 -2.0703,-1.9102 c 0,0 4.7969,-7.1875 18.7109,-7.1875 9.285,0 14.277,3.375 16.574,5.6172 v 0.0039 c 1.145,1.1172 1.617,1.9531 1.617,1.9531 l -1.304,1.1719 -0.313,0.3516 4.067,1.5859 c 0,0 0.82,-1.707 1.406,-3.0859 l 1.41,-2.5079 1.922,-1.9101 c 3.258,-2.2891 21.805,0.2969 44.629,-14.7188"
             style="fill:#1c77e5;fill-opacity:1;fill-rule:nonzero;stroke:none"
             id="path28" />
          <path
             d="m 123.906,37.6172 -0.004,0.0039 -0.441,0.3984 c -0.012,0.0078 -0.02,0.0157 -0.031,0.0274 l 0.476,-0.4297"
             style="fill:#b299c5;fill-opacity:1;fill-rule:nonzero;stroke:none"
             id="path30" />
          <path
             d="m 124.023,37.5117 -0.121,0.1094 0.004,-0.0039 0.117,-0.1055 v 0 m -0.562,0.5078 -0.859,0.7696 -0.192,0.2422 0.309,-0.3477 0.711,-0.6367 c 0.011,-0.0117 0.019,-0.0196 0.031,-0.0274"
             style="fill:#e3717e;fill-opacity:1;fill-rule:nonzero;stroke:none"
             id="path32" />
          <path
             d="m 122.406,39.0352 h -0.004 l 0.969,0.4062 3.102,1.1797 -4.067,-1.5859"
             style="fill:#b299c5;fill-opacity:1;fill-rule:nonzero;stroke:none"
             id="path34" />
          <path
             d="m 122.406,39.0352 h -0.004 0.004 v 0"
             style="fill:#e3717e;fill-opacity:1;fill-rule:nonzero;stroke:none"
             id="path36" />
          <path
             d="m 124.023,37.5117 v 0 0 l -0.117,0.1055 -0.476,0.4297 -0.711,0.6367 -0.309,0.3477 -0.004,0.0039 v 0 l 4.067,1.5859 -2.45,-3.1094"
             style="fill:#1951bf;fill-opacity:1;fill-rule:nonzero;stroke:none"
             id="path38" />
          <path
             d="m 87.1211,37.125 -2.5625,2.8711 4.6211,-0.957 0.0117,-0.0039 -0.0117,-0.0118 -2.0586,-1.8984 v 0"
             style="fill:#1951bf;fill-opacity:1;fill-rule:nonzero;stroke:none"
             id="path40" />
          <path
             d="m 160.254,98.9492 c -0.219,-1.0664 -0.469,-2.0273 -0.734,-2.8906 l -0.016,-0.043 c -1.899,-6.1367 -4.789,-7.582 -5.949,-10.3515 -1.004,-2.3907 -4.957,-7.1953 -8.867,-2.1993 l -0.016,0.0157 c 0,0 1.855,20.3245 3.351,24.0195 0,0 2.161,5.539 6.04,6.379 4.992,1.078 8.136,-5.484 6.191,-14.9298"
             style="fill:#ffa697;fill-opacity:1;fill-rule:nonzero;stroke:none"
             id="path42" />
          <path
             d="m 149.82,86.8789 c -0.007,0 -0.011,0 -0.015,0 -0.887,0.0469 -0.508,2.8125 -0.508,6.0039 0,1.5781 -0.609,2.2227 -1.356,2.2227 -0.253,0 -0.519,-0.0703 -0.785,-0.2071 0.188,1.1524 0.371,2.3243 0.551,3.5157 2.508,3.3589 7.211,9.2269 9.863,9.7539 0.137,0.027 0.27,0.043 0.391,0.043 3.207,0 1.445,-9.0352 0.727,-12.1212 -0.754,-3.207 -1.879,-5.1015 -1.879,-5.1015 0,0 0.941,3.7851 1.125,6.8476 0.254,4.2031 -1.012,7.8401 -2.493,7.8401 -0.07,0 -0.14,-0.008 -0.207,-0.024 -1.57,-0.359 -3.675,-5.8903 -3.812,-6.5192 -0.137,-0.6289 1.039,-1.7539 0.969,-5.1719 -0.067,-3.3945 -1.68,-7.082 -2.571,-7.082"
             style="fill:#ff9584;fill-opacity:1;fill-rule:nonzero;stroke:none"
             id="path44" />
          <path
             d="m 49.8125,98.9492 c 0.2188,-1.0664 0.4688,-2.0273 0.7344,-2.8906 l 0.0156,-0.043 c 1.8984,-6.1367 4.7891,-7.582 5.9492,-10.3515 1.0039,-2.3907 4.9571,-7.1953 8.8672,-2.1993 l 0.0156,0.0157 c 0,0 -1.8554,20.3245 -3.3515,24.0195 0,0 -2.1602,5.539 -6.0391,6.379 -4.9922,1.078 -8.1367,-5.484 -6.1914,-14.9298"
             style="fill:#ffa697;fill-opacity:1;fill-rule:nonzero;stroke:none"
             id="path46" />
          <path
             d="m 60.2461,86.8789 c -0.8906,0 -2.5039,3.6875 -2.5703,7.082 -0.0664,3.418 1.1055,4.543 0.9687,5.1719 -0.1367,0.6289 -2.2422,6.1602 -3.8125,6.5192 -0.0664,0.016 -0.1367,0.024 -0.207,0.024 -1.4805,0 -2.7461,-3.637 -2.4961,-7.8401 0.1875,-3.0625 1.1289,-6.8476 1.1289,-6.8476 0,0 -1.1289,1.8945 -1.8789,5.1015 -0.7226,3.086 -2.4805,12.1212 0.7266,12.1212 0.1211,0 0.2539,-0.016 0.3906,-0.043 2.6367,-0.523 7.3086,-6.336 9.8242,-9.7032 0.1797,-1.2031 0.3672,-2.3906 0.5547,-3.5507 -0.2539,0.125 -0.5078,0.1914 -0.75,0.1914 -0.7461,0 -1.3555,-0.6446 -1.3555,-2.2227 0,-3.1914 0.3789,-5.957 -0.5078,-6.0039 -0.0039,0 -0.0117,0 -0.0156,0"
             style="fill:#ff9584;fill-opacity:1;fill-rule:nonzero;stroke:none"
             id="path48" />
          <path
             d="m 146.438,90.7031 -0.102,-0.5273 C 145.332,84.707 144.289,80.1289 143.422,77.3633 140.043,66.5781 122.684,52.4922 105.02,52.4922 c -17.6684,0 -35.0278,14.0859 -38.4067,24.8711 -0.3985,1.2695 -0.836,2.9258 -1.2852,4.875 -1.5898,6.832 -3.3828,17.2773 -4.4375,27.4917 v 0.008 c -1.1914,11.594 -1.4297,22.899 0.6602,28.305 1.4648,3.789 5.1172,8.195 10.4414,12.105 v 0.004 c 7.8867,5.801 19.4531,10.508 33.0278,10.508 22.734,0 39.828,-13.211 43.468,-22.617 3.278,-8.484 0.817,-31.477 -2.05,-47.3399"
             style="fill:#ffa697;fill-opacity:1;fill-rule:nonzero;stroke:none"
             id="path50" />
          <path
             d="M 146.336,90.1758 C 145.332,84.707 144.289,80.1289 143.422,77.3633 140.043,66.5781 122.684,52.4922 105.02,52.4922 c -17.6684,0 -35.0278,14.0859 -38.4067,24.8711 -0.3985,1.2695 -0.836,2.9258 -1.2852,4.875 l 0.0508,1.2305 c 0,0 0.6719,-6.3633 6.0547,-13.5235 5.3867,-7.1523 19.7187,-15.7265 33.5894,-15.7265 13.868,0 28.872,10.4375 33.887,16.457 4.387,5.2695 6.871,16.7187 7.426,19.5"
             style="fill:#ff8c83;fill-opacity:1;fill-rule:nonzero;stroke:none"
             id="path52" />
          <path
             d="m 75.1953,162.406 c 0,0 -2.6445,12.301 -15.2109,12.578 -12.5625,0.278 -11.8711,-16.312 -11.8711,-16.312 l 2.2109,1.332 c 0,0 -0.8633,11.18 6.1367,12.562 7,1.383 12.7188,-2.421 12.7188,-2.421 0,0 -17.6797,6.085 -24.1094,-2.832 -6.4297,-8.918 -1.1836,-26.168 11.2305,-24.215 12.414,1.953 18.8945,19.308 18.8945,19.308"
             style="fill:#5e0d00;fill-opacity:1;fill-rule:nonzero;stroke:none"
             id="path54" />
          <path
             d="m 42.3281,157.336 c 0,0 14.8438,13.898 29.9102,4.105 l 1.2461,0.43 c 0,0 -14.1641,10.91 -30.8985,-0.672 l -0.2578,-3.863"
             style="fill:#701800;fill-opacity:1;fill-rule:nonzero;stroke:none"
             id="path56" />
          <path
             d="m 44.4844,166.414 c 0,0 16.9844,8.52 29.6289,-0.961 l -1.211,2.238 c 0,0 -5.9179,6.739 -27.832,-0.378 l -0.5859,-0.899"
             style="fill:#701800;fill-opacity:1;fill-rule:nonzero;stroke:none"
             id="path58" />
          <path
             d="m 48.168,144.98 c 0,0 -0.3203,18.157 22.0351,15.68 l -0.7812,-0.375 c 0,0 -20.9766,1.219 -19.586,-16.305 l -1.6679,1"
             style="fill:#701800;fill-opacity:1;fill-rule:nonzero;stroke:none"
             id="path60" />
          <path
             d="m 136.32,161.441 c 0,0 1.778,15.754 15.957,14.789 14.184,-0.968 10.59,-19.98 10.59,-19.98 0,0 0.817,15.277 -7.609,18.18 -8.43,2.906 -12.992,-2.282 -12.992,-2.282 0,0 8.988,5.395 20.531,-0.828 11.547,-6.222 7.793,-25.812 -9.535,-24.816 l -16.942,14.937"
             style="fill:#5e0d00;fill-opacity:1;fill-rule:nonzero;stroke:none"
             id="path62" />
          <path
             d="m 148.449,103.73 c 0,0 -2.422,14.711 -2.75,23.141 -0.328,8.438 -6.269,15.969 -11.238,20.324 -1.051,0.918 -2.223,1.75 -3.395,2.473 l -0.273,0.164 -0.176,0.109 -0.054,0.036 c -4.223,2.515 -8.481,3.785 -8.481,3.785 0,0 -30.2773,1.172 -40.5117,-2.559 -1.6523,-0.605 -3.1055,-1.39 -4.3867,-2.312 h -0.0117 c -6.6758,-4.77 -8.8008,-13.055 -10.1914,-17.149 -1.6524,-4.871 0.7343,-10.476 -5.8321,-25.82 0,0 -3.4921,8.973 -4.8945,18.301 -1.3359,8.875 -1.1797,23.914 4.8711,30.699 l 0.0234,0.012 0.961,0.972 c 9.7539,8.606 32.7929,10.508 43.7186,10.508 10.922,0 23.774,0.176 37.824,-7.059 2.606,-1.335 4.754,-3.414 6.461,-6.019 7.696,-11.754 6.446,-34.367 -1.664,-49.606"
             style="fill:#5e0d00;fill-opacity:1;fill-rule:nonzero;stroke:none"
             id="path64" />
          <path
             d="m 61.1523,105.926 c 0,0 -3.2929,-18.1487 -8.375,-32.1487 -5.0781,-13.996 9.2305,-22.2578 9.2305,-22.2578 0,0 -10.6797,9.75 -8.0898,21.9493 2.5937,12.1953 8.1601,25.9648 8.0898,34.7422 l -0.8555,-2.285"
             style="fill:#5e0d00;fill-opacity:1;fill-rule:nonzero;stroke:none"
             id="path66" />
          <path
             d="m 148.445,103.734 c 0,0 1.598,-5.1051 5.02,-22.4567 3.422,-17.3476 -3.414,-27.1992 -3.414,-27.1992 0,0 6.734,7.3594 6.422,18.9766 -0.313,11.6133 -5.7,23.0508 -7.559,31.5903 l -0.469,-0.911"
             style="fill:#5e0d00;fill-opacity:1;fill-rule:nonzero;stroke:none"
             id="path68" />
          <path
             d="m 101.207,153.754 c 0,0 -3.6328,6.066 -6.3281,6.906 -2.6953,0.844 -19.1836,-11.808 -12.8594,-36.383 0,0 -0.8672,22.59 12.3047,31.746 0,0 1.7305,-0.636 3.7774,-2.41 l 3.1054,0.141"
             style="fill:#701800;fill-opacity:1;fill-rule:nonzero;stroke:none"
             id="path70" />
          <path
             d="m 130.559,149.977 c 0,0 11.472,0.082 17.242,6.273 l 2.457,-3.137 c 0,0 -2.356,-6.23 -15.805,-5.918 l -3.894,2.782"
             style="fill:#701800;fill-opacity:1;fill-rule:nonzero;stroke:none"
             id="path72" />
          <path
             d="m 127.266,151.715 c 0,0 6.406,6.215 13.605,8.984 l -1.715,0.742 c 0,0 -6.457,-2.261 -12.613,-9.394 l 0.723,-0.332"
             style="fill:#701800;fill-opacity:1;fill-rule:nonzero;stroke:none"
             id="path74" />
          <path
             d="m 79.3203,150.203 c 0,0 -5.414,3.633 -10.6367,9.801 l -1.0313,-0.492 c 0,0 2.1602,-6.442 11.0704,-9.629 l 0.5976,0.32"
             style="fill:#701800;fill-opacity:1;fill-rule:nonzero;stroke:none"
             id="path76" />
          <path
             d="m 69.1797,137.996 c 0,0 -7.3711,1.301 -11.418,10.902 l -1.3008,-4.918 c 0,0 4.418,-9.164 10.9454,-10.96 l 1.7734,4.976"
             style="fill:#701800;fill-opacity:1;fill-rule:nonzero;stroke:none"
             id="path78" />
          <path
             d="m 110.535,153.938 c 0,0 12.746,9.808 23.172,9.464 l 1.219,-0.386 c 0,0 -10.649,0.461 -22.703,-9.078 h -1.688"
             style="fill:#701800;fill-opacity:1;fill-rule:nonzero;stroke:none"
             id="path80" />
          <path
             d="m 70.2031,160.66 c 0,0 15.7774,-0.91 25.6211,-7.187 l 0.8906,0.058 c 0,0 -7.1757,7.047 -25.1406,7.668 l -1.3711,-0.539"
             style="fill:#701800;fill-opacity:1;fill-rule:nonzero;stroke:none"
             id="path82" />
          <path
             d="m 114.656,121.359 c 0,0 0.973,-2.136 3.317,-2.601 0,0 14.05,4.597 18.093,4.375 4.043,-0.219 7.926,-4.375 7.926,-4.375 0,0 -4.836,6.711 -7.062,7.269 -3.957,0.993 -19.871,-3.429 -19.871,-3.429 l 1.132,-2.762 c 0,0 -1.609,1.082 -2.636,2.418 l -0.899,-0.895"
             style="fill:#5e0d00;fill-opacity:1;fill-rule:nonzero;stroke:none"
             id="path84" />
          <path
             d="m 97.0859,121.359 c 0,0 -0.9726,-2.136 -3.3164,-2.601 0,0 -14.0507,4.597 -18.0937,4.375 -4.043,-0.219 -7.9258,-4.375 -7.9258,-4.375 0,0 4.8359,6.711 7.0625,7.269 3.957,0.993 19.8711,-3.429 19.8711,-3.429 l -1.1367,-2.762 c 0,0 1.6133,1.082 2.6406,2.418 l 0.8984,-0.895"
             style="fill:#5e0d00;fill-opacity:1;fill-rule:nonzero;stroke:none"
             id="path86" />
          <path
             d="m 82.0195,124.277 c 0,0 0.2696,22.965 15.3789,34.555 l -5.1132,4.848 c 0,0 -17.625,-9.848 -10.2657,-39.403"
             style="fill:#701800;fill-opacity:1;fill-rule:nonzero;stroke:none"
             id="path88" />
          <path
             d="m 149.23,174.199 c 0,0 18.149,-10.863 11.606,-26.609 l 1.426,0.644 c 0,0 5.664,18.332 -12.004,25.965 h -1.028"
             style="fill:#701800;fill-opacity:1;fill-rule:nonzero;stroke:none"
             id="path90" />
          <path
             d="m 146.961,173.836 c 0,0 10.414,-7.231 9.219,-27.297 l 1.59,0.199 c 0,0 0.191,21.114 -10.043,27.098 h -0.766"
             style="fill:#701800;fill-opacity:1;fill-rule:nonzero;stroke:none"
             id="path92" />
          <path
             d="m 164.012,170.578 c 0,0 4.254,-11.82 -0.621,-21.68 0,0 2.636,1.27 4.547,5.04 0,0 1.57,6.753 0.359,11.515 0,0 -2.141,3.902 -4.285,5.125"
             style="fill:#701800;fill-opacity:1;fill-rule:nonzero;stroke:none"
             id="path94" />
          <path
             d="m 136.492,162.473 c 0,0 14.848,1.101 16.77,-15.969 0,0 -2.36,12.66 -16.77,15.969"
             style="fill:#1c77e5;fill-opacity:1;fill-rule:nonzero;stroke:none"
             id="path96" />
          <path
             d="m 75.1953,162.406 c 0,0 -14.2344,-3.183 -18.8945,-19.308 0,0 -2.9766,15.629 18.8945,19.308"
             style="fill:#1c77e5;fill-opacity:1;fill-rule:nonzero;stroke:none"
             id="path98" />
          <path
             d="m 90.957,75.7813 c 0,0 4.168,-11.1797 14.91,-11.1797 10.746,0 14.778,11.1797 14.778,11.1797 0,0 -4.778,-3.0196 -14.774,-2.6094 -9.996,0.4062 -14.914,2.6094 -14.914,2.6094"
             style="fill:#ff7e78;fill-opacity:1;fill-rule:nonzero;stroke:none"
             id="path100" />
          <path
             d="m 118.871,74.7539 c 0,0 -0.441,-0.3516 -2.242,-0.7109 -1.094,-0.2227 -2.684,-0.4492 -4.981,-0.5977 -6.085,-0.4101 -6.164,-0.789 -6.164,-0.789 0,0 -4.691,0.875 -8.0074,0.8593 -1.25,-0.0078 -2.3868,0.2578 -3.3125,0.5977 -1.4414,0.5195 -2.3868,1.1992 -2.4961,1.2851 0.1406,-0.0507 1.5429,-0.5898 2.8593,-0.3164 1.3829,0.293 4.6016,2.9844 11.3397,2.9844 6.742,0 9.367,-3.2851 13.004,-3.3125"
             style="fill:#ff7e78;fill-opacity:1;fill-rule:nonzero;stroke:none"
             id="path102" />
          <path
             d="m 105.871,72.8711 c -2.086,1.3477 -9.1796,0.8945 -11.7069,1.4844 -2.0039,0.4648 -3.3555,1.5937 -3.9493,2.1758 1.7266,-1.8282 2.8633,-2.7071 7.461,-3.0313 4.8672,-0.3437 8.1602,-1.3555 8.1912,-1.3633 v -0.0039 l 0.004,0.0039 v -0.0039 0.0039 c 0.035,0.0078 3.328,1.0196 8.195,1.3633 4.594,0.3242 5.735,1.2031 7.461,3.0313 -0.593,-0.5821 -1.945,-1.711 -3.953,-2.1758 -2.523,-0.5899 -9.621,-0.1367 -11.703,-1.4844"
             style="fill:#af4537;fill-opacity:1;fill-rule:nonzero;stroke:none"
             id="path104" />
          <path
             d="m 112.027,68.1992 c -0.441,1.3672 -2.234,2.8047 -2.234,2.8047 l 1.945,0.7422 c 1.254,-1.2188 1.95,-2.4219 1.95,-2.4219 l -1.661,-1.125"
             style="fill:#ffb190;fill-opacity:1;fill-rule:nonzero;stroke:none"
             id="path106" />
          <path
             d="m 114.086,69.5273 c -0.582,1.3125 -1.676,2.4375 -1.676,2.4375 l 0.621,0.2188 c 1.09,-1.1641 1.352,-2.2109 1.352,-2.2109 l -0.297,-0.4454"
             style="fill:#ffb190;fill-opacity:1;fill-rule:nonzero;stroke:none"
             id="path108" />
        </g>
      </g>
      <g
         id="g110">
        <g
           id="g112"
           clip-path="url(#clipPath116)">
          <g
             id="g118"
             clip-path="url(#clipPath122)">
            <path
               d="m 124,97 v 1 h -4 v 1 h -1 v 2 h -1 v 4 h 1 v 3 h 1 v -1 h 1 v 1 h 1 v -1 h 1 v -3 h 1 v -1 h 1 v -1 h 6 v 1 h 1 v 1 h 1 v 1 h 1 v 5 h -1 v 2 h 2 v 1 h -3 v 1 h -3 v 1 h 6 v -1 h 2 v -1 h 1 v -1 h 1 v -9 h -1 v -1 h -1 v -1 h -1 v -1 h -1 v -1 h -2 v -1 h -3 v -1 z m 12,14 h 1 v 1 h -1 z"
               style="fill:url(#linearGradient130);fill-opacity:1;fill-rule:nonzero;stroke:none"
               id="path132" />
          </g>
        </g>
      </g>
      <g
         id="g134">
        <g
           id="g136"
           clip-path="url(#clipPath140)">
          <path
             d="m 118.75,101.785 1.879,-2.8748 -2.117,1.0195 0.238,1.8553"
             style="fill:#ff7e78;fill-opacity:1;fill-rule:nonzero;stroke:none"
             id="path142" />
          <path
             d="m 123.633,98.0898 c 0,0 6.902,-1.4296 11.219,2.0122 3.75,2.992 3.953,6.086 3.953,6.086 0,0 0.476,-4.137 -3.914,-7.0552 -4.375,-2.9101 -11.258,-1.043 -11.258,-1.043"
             style="fill:#ff7e78;fill-opacity:1;fill-rule:nonzero;stroke:none"
             id="path144" />
          <path
             d="m 134.645,106.676 c -0.457,-3.535 -3.692,-6.031 -7.227,-5.574 -3.535,0.453 -6.031,3.687 -5.578,7.222 0.457,3.539 3.691,6.035 7.226,5.578 3.536,-0.453 6.036,-3.687 5.579,-7.226"
             style="fill:#00467f;fill-opacity:1;fill-rule:nonzero;stroke:none"
             id="path146" />
          <path
             d="m 134.27,106.727 c -0.43,-3.329 -3.473,-5.68 -6.801,-5.25 -3.332,0.425 -5.684,3.472 -5.254,6.8 0.43,3.328 3.476,5.68 6.805,5.25 3.328,-0.425 5.679,-3.472 5.25,-6.8"
             style="fill:#1c77e5;fill-opacity:1;fill-rule:nonzero;stroke:none"
             id="path148" />
          <path
             d="m 132.152,106.996 c -0.277,-2.156 -2.254,-3.683 -4.414,-3.406 -2.16,0.277 -3.683,2.258 -3.406,4.414 0.277,2.16 2.254,3.687 4.414,3.41 2.16,-0.281 3.688,-2.258 3.406,-4.418"
             style="fill:#00467f;fill-opacity:1;fill-rule:nonzero;stroke:none"
             id="path150" />
          <path
             d="m 132.672,107.793 c -0.422,-0.285 1.32,-0.594 2.695,-0.246 1.231,0.308 1.891,0.988 1.797,1.133 -0.094,0.148 -2.832,0.246 -4.492,-0.887"
             style="fill:#ffffff;fill-opacity:1;fill-rule:nonzero;stroke:none"
             id="path152" />
          <path
             d="m 131.633,107.59 -1.145,-0.211 0.817,-0.598 0.328,0.809"
             style="fill:#ffffff;fill-opacity:1;fill-rule:nonzero;stroke:none"
             id="path154" />
          <path
             d="m 118.832,102.926 c -0.004,0.277 0.027,0.699 0.106,1.215 -0.051,-0.395 -0.086,-0.797 -0.106,-1.215 m 1.027,4.59 c 1.293,3.257 4.032,6.922 9.418,6.922 0.137,0 0.278,-0.004 0.418,-0.008 -0.867,-0.102 -1.746,-0.293 -2.609,-0.578 -1.137,-0.204 -2.18,-0.711 -3.035,-1.446 -1.754,-1.136 -3.25,-2.758 -4.192,-4.89 m 19.008,1.039 c -0.012,0.117 -0.023,0.226 -0.043,0.34 0.031,-0.165 0.039,-0.282 0.043,-0.34"
             style="fill:#ff9584;fill-opacity:1;fill-rule:nonzero;stroke:none"
             id="path156" />
        </g>
      </g>
      <g
         id="g158">
        <g
           id="g160"
           clip-path="url(#clipPath164)">
          <g
             id="g166"
             clip-path="url(#clipPath170)">
            <path
               d="m 118,102 v 3 h 1 v 3 h 1 v 2 h 1 v 1 h 1 v 1 h 1 v 1 h 2 v -1 h -1 v -1 h -1 v -2 h -1 v -3 h -1 v -1 h -1 v -2 h -1 v -1 z m 20,6 v 1 h -1 v 1 h -2 v 1 h -3 v 1 h -1 v 1 h -4 v 2 h 6 v -1 h 3 v -1 h 2 v -2 h 1 v -3"
               style="fill:url(#linearGradient178);fill-opacity:1;fill-rule:nonzero;stroke:none"
               id="path180" />
          </g>
        </g>
      </g>
      <g
         id="g182">
        <g
           id="g184"
           clip-path="url(#clipPath188)">
          <path
             d="m 121.797,107.801 c 0.008,0.172 0.019,0.347 0.043,0.523 0.215,1.656 1.035,3.082 2.211,4.082 0.855,0.735 1.898,1.242 3.035,1.446 0.375,0.07 0.758,0.105 1.148,0.105 0.278,0 0.551,-0.016 0.832,-0.055 1.637,-0.211 3.047,-1.015 4.051,-2.168 -0.187,0.024 -0.379,0.047 -0.574,0.063 -0.918,0.918 -2.137,1.555 -3.523,1.73 -0.262,0.036 -0.528,0.051 -0.786,0.051 -3.007,0 -5.625,-2.234 -6.019,-5.301 0,-0.011 0,-0.019 -0.004,-0.031 -0.145,-0.148 -0.281,-0.297 -0.414,-0.445"
             style="fill:#4d5273;fill-opacity:1;fill-rule:nonzero;stroke:none"
             id="path190" />
          <path
             d="m 122.211,108.246 c 0.004,0.012 0.004,0.02 0.004,0.031 0.394,3.067 3.012,5.301 6.019,5.301 0.258,0 0.524,-0.015 0.786,-0.051 1.386,-0.175 2.605,-0.812 3.523,-1.73 -0.43,0.035 -0.887,0.055 -1.371,0.055 -0.488,0 -1.008,-0.02 -1.559,-0.063 -3.297,-0.262 -5.707,-1.809 -7.402,-3.543"
             style="fill:#6175ba;fill-opacity:1;fill-rule:nonzero;stroke:none"
             id="path192" />
          <path
             d="m 119.609,107.09 c 0,0 2.864,9.488 10.621,9.551 6.961,0.054 8.27,-6.457 8.27,-6.457 0,0 -9.199,8.125 -18.891,-3.094"
             style="fill:#ff7e78;fill-opacity:1;fill-rule:nonzero;stroke:none"
             id="path194" />
          <path
             d="m 118.949,104.223 c 0,0 1.399,6.812 10.106,8.086 8.707,1.277 9.816,-3.789 9.816,-3.789 0,0 1.602,3.808 -5.008,5.043 -8.152,1.519 -14.32,-3.844 -14.914,-9.34"
             style="fill:#5e0d00;fill-opacity:1;fill-rule:nonzero;stroke:none"
             id="path196" />
        </g>
      </g>
      <g
         id="g198">
        <g
           id="g200"
           clip-path="url(#clipPath204)">
          <g
             id="g206"
             clip-path="url(#clipPath210)">
            <path
               d="m 82,97 v 1 h -4 v 1 h -1 v 1 h -2 v 1 h -1 v 2 h -1 v 2 h -1 v 5 h 1 v 2 h 1 v 1 h 1 v 1 h 2 v 1 h 6 v -1 h -3 v -1 h -3 v -1 h 2 v -2 h -1 v -5 h 1 v -2 h 2 v -1 h 5 v 1 h 2 v 2 h 1 v 3 h 4 v -9 h -1 v -1 h -4 v -1"
               style="fill:url(#linearGradient218);fill-opacity:1;fill-rule:nonzero;stroke:none"
               id="path220" />
          </g>
        </g>
      </g>
      <g
         id="g222">
        <g
           id="g224"
           clip-path="url(#clipPath228)">
          <path
             d="m 92.9922,101.785 -1.8789,-2.8748 2.1172,1.0195 -0.2383,1.8553"
             style="fill:#ff7e78;fill-opacity:1;fill-rule:nonzero;stroke:none"
             id="path230" />
          <path
             d="m 88.1055,98.0898 c 0,0 -6.9024,-1.4296 -11.2149,2.0122 -3.75,2.992 -3.9531,6.086 -3.9531,6.086 0,0 -0.4766,-4.11 3.9141,-7.0278 4.375,-2.9063 11.2539,-1.0704 11.2539,-1.0704"
             style="fill:#ff7e78;fill-opacity:1;fill-rule:nonzero;stroke:none"
             id="path232" />
          <path
             d="m 77.0977,106.676 c 0.4531,-3.535 3.6914,-6.031 7.2265,-5.574 3.5352,0.453 6.0313,3.687 5.5742,7.222 -0.4531,3.539 -3.6875,6.035 -7.2226,5.578 -3.5391,-0.453 -6.0352,-3.687 -5.5781,-7.226"
             style="fill:#00467f;fill-opacity:1;fill-rule:nonzero;stroke:none"
             id="path234" />
          <path
             d="m 77.4727,106.727 c 0.4257,-3.329 3.4726,-5.68 6.8007,-5.25 3.3282,0.425 5.6797,3.472 5.2539,6.8 -0.4296,3.328 -3.4765,5.68 -6.8046,5.25 -3.3282,-0.425 -5.6797,-3.472 -5.25,-6.8"
             style="fill:#1c77e5;fill-opacity:1;fill-rule:nonzero;stroke:none"
             id="path236" />
          <path
             d="m 79.5859,106.996 c 0.2813,-2.156 2.2579,-3.683 4.418,-3.406 2.1563,0.277 3.6836,2.258 3.4063,4.414 -0.2774,2.16 -2.2539,3.687 -4.4141,3.41 -2.1602,-0.281 -3.6875,-2.258 -3.4102,-4.418"
             style="fill:#00467f;fill-opacity:1;fill-rule:nonzero;stroke:none"
             id="path238" />
          <path
             d="m 79.0703,107.793 c 0.4219,-0.285 -1.3242,-0.594 -2.6953,-0.246 -1.2305,0.308 -1.8945,0.988 -1.7969,1.133 0.0938,0.148 2.8282,0.246 4.4922,-0.887"
             style="fill:#ffffff;fill-opacity:1;fill-rule:nonzero;stroke:none"
             id="path240" />
          <path
             d="m 80.1094,107.59 1.1445,-0.211 -0.8164,-0.598 -0.3281,0.809"
             style="fill:#ffffff;fill-opacity:1;fill-rule:nonzero;stroke:none"
             id="path242" />
          <path
             d="m 92.9102,102.926 c -0.0196,0.418 -0.0547,0.82 -0.1055,1.215 0.0781,-0.516 0.1094,-0.938 0.1055,-1.215 m -1.0274,4.59 c -0.9414,2.132 -2.4414,3.754 -4.1914,4.89 -0.8555,0.735 -1.8984,1.242 -3.0351,1.446 -0.8633,0.285 -1.7422,0.476 -2.6133,0.578 0.1445,0.004 0.2812,0.008 0.4218,0.008 5.3829,0 8.1211,-3.665 9.418,-6.922 m -19.0117,1.039 c 0.0039,0.054 0.0156,0.175 0.043,0.343 -0.0157,-0.113 -0.0274,-0.226 -0.043,-0.343"
             style="fill:#ff9584;fill-opacity:1;fill-rule:nonzero;stroke:none"
             id="path244" />
        </g>
      </g>
      <g
         id="g246">
        <g
           id="g248"
           clip-path="url(#clipPath252)">
          <g
             id="g254"
             clip-path="url(#clipPath258)">
            <path
               d="m 92,102 v 2 h -1 v 2 h -1 v 1 h -1 v 3 h -1 v 2 h -1 v 1 h 2 v -1 h 1 v -1 h 1 v -2 h 1 v -1 h 1 v -6 z m -20,6 v 2 h 1 v 2 h 1 v 1 h 2 v 1 h 3 v 1 h 6 v -2 h -4 v -1 h -2 v -1 h -3 v -1 h -1 v -1 h -1 v -1"
               style="fill:url(#linearGradient266);fill-opacity:1;fill-rule:nonzero;stroke:none"
               id="path268" />
          </g>
        </g>
      </g>
      <g
         id="g270">
        <g
           id="g272"
           clip-path="url(#clipPath276)">
          <path
             d="m 89.9453,107.801 c -0.1328,0.148 -0.2695,0.297 -0.414,0.445 -0.004,0.012 -0.004,0.02 -0.004,0.031 -0.3984,3.067 -3.0117,5.301 -6.0195,5.301 -0.2617,0 -0.5234,-0.015 -0.7851,-0.051 -1.3907,-0.175 -2.6055,-0.812 -3.5235,-1.73 -0.1992,-0.016 -0.3906,-0.039 -0.5742,-0.063 1,1.153 2.4141,1.957 4.0508,2.168 0.2773,0.039 0.5547,0.055 0.832,0.055 0.3906,0 0.7735,-0.035 1.1485,-0.105 1.1367,-0.204 2.1796,-0.711 3.0351,-1.446 1.1758,-1 1.9961,-2.426 2.207,-4.082 0.0235,-0.176 0.0391,-0.351 0.0469,-0.523"
             style="fill:#4d5273;fill-opacity:1;fill-rule:nonzero;stroke:none"
             id="path278" />
          <path
             d="m 89.5313,108.246 c -1.6954,1.731 -4.1055,3.281 -7.4024,3.543 -0.5508,0.043 -1.0703,0.063 -1.5586,0.063 -0.4883,0 -0.9453,-0.02 -1.3711,-0.055 0.918,0.918 2.1328,1.555 3.5235,1.73 0.2617,0.036 0.5234,0.051 0.7851,0.051 3.0078,0 5.6211,-2.234 6.0195,-5.301 0,-0.011 0,-0.019 0.004,-0.031"
             style="fill:#6175ba;fill-opacity:1;fill-rule:nonzero;stroke:none"
             id="path280" />
          <path
             d="m 92.1328,107.09 c 0,0 -2.8633,9.488 -10.6211,9.551 -6.9609,0.054 -8.2695,-6.457 -8.2695,-6.457 0,0 9.1992,8.125 18.8906,-3.094"
             style="fill:#ff7e78;fill-opacity:1;fill-rule:nonzero;stroke:none"
             id="path282" />
          <path
             d="m 92.793,104.223 c 0,0 -1.3985,6.812 -10.1055,8.086 -8.707,1.277 -9.8164,-3.789 -9.8164,-3.789 0,0 -1.6016,3.808 5.0078,5.043 8.1524,1.519 14.3203,-3.844 14.9141,-9.34"
             style="fill:#5e0d00;fill-opacity:1;fill-rule:nonzero;stroke:none"
             id="path284" />
          <path
             d="m 114.727,86.5742 c 0,0 -0.161,-0.5976 -2.039,-0.6797 -1.879,-0.0937 -3.633,-2.0976 -6.817,-2.0976 -3.187,0 -4.781,2.0039 -6.6601,2.0976 -1.8789,0.0821 -2.1992,0.6797 -2.1992,0.6797 -0.2812,1.5039 -0.1015,2.961 0.2461,4.2188 v 0.0039 l 0.0078,0.039 c 0.2657,0.9414 0.6211,1.7618 0.9453,2.3907 v 0.0039 l 0.5157,0.9218 0.2734,0.418 c 4.473,2.6406 9.27,2.6406 13.742,0 l 0.278,-0.4258 0.511,-0.9179 v -0.0039 l 0.524,-1.1602 0.008,-0.0078 V 92.043 c 0.578,-1.4688 1.046,-3.4258 0.664,-5.4688"
             style="fill:#ffa697;fill-opacity:1;fill-rule:nonzero;stroke:none"
             id="path286" />
          <path
             d="m 110.465,85.1523 c 0,0 1.445,1.5118 3.234,0.8633 l -3.234,-0.8633"
             style="fill:#af4537;fill-opacity:1;fill-rule:nonzero;stroke:none"
             id="path288" />
          <path
             d="m 98.25,86 c 0,0 1.824,0.668 3.648,-1.1094 L 98.25,86"
             style="fill:#af4537;fill-opacity:1;fill-rule:nonzero;stroke:none"
             id="path290" />
          <path
             d="m 105.871,83.7969 c -1.105,0 -2.019,0.2422 -2.82,0.5625 0.801,-0.3203 1.715,-0.5625 2.82,-0.5625 1.699,0 2.992,0.5703 4.113,1.1172 -1.121,-0.5469 -2.414,-1.1172 -4.113,-1.1172 m -7.6132,2.1992 c -0.4101,0.0781 -0.6914,0.1836 -0.8789,0.2852 C 97.5664,86.1797 97.8438,86.0742 98.25,86 l 0.0078,-0.0039 m 15.4102,0.0078 0.02,0.0078 c 0.671,0.1406 0.914,0.3672 1,0.4844 -0.086,-0.1172 -0.336,-0.3477 -1.02,-0.4922 m 1.02,0.4922 V 86.5 86.4961 m 0,0.0039 v 0 0 m 0.019,0.0313 v 0 0 m 0,0 v 0 0 m 0.004,0 c 0.012,0.0273 0.016,0.0429 0.016,0.0429 0.382,2.043 -0.086,3.9961 -0.664,5.4649 0,0 0,0.0039 0,0.0078 0.578,-1.4727 1.05,-3.4297 0.667,-5.4688 0,0 -0.007,-0.0195 -0.019,-0.0468"
             style="fill:#ff9584;fill-opacity:1;fill-rule:nonzero;stroke:none"
             id="path292" />
          <path
             d="m 105.871,83.7969 c -1.105,0 -2.019,0.2422 -2.82,0.5625 -0.414,0.164 -0.793,0.3476 -1.156,0.5312 h 0.003 v 0 c -1.043,1.0117 -2.0855,1.2305 -2.7847,1.2305 C 98.5859,86.1211 98.25,86 98.25,86 v 0 c -0.4062,0.0742 -0.6836,0.1797 -0.8711,0.2813 -0.293,0.1562 -0.3672,0.2968 -0.3672,0.2968 -0.2773,1.5 -0.1015,2.9571 0.2461,4.211 l 0.8594,-1.8555 c 0.1523,-0.1133 0.4141,-0.3125 0.7578,-0.5547 0.0039,-0.2539 0.0039,-0.5 -0.0078,-0.7383 0,0 0.0664,0.2227 0.1328,0.6485 1.555,-1.0899 4.574,-2.9727 6.871,-2.9727 2.465,0 5.664,2.1563 6.914,3.3828 0.074,-0.5078 0.153,-0.7773 0.153,-0.7773 v 0 0 c -0.012,0.2969 -0.012,0.6094 -0.004,0.9297 0.148,0.1562 0.254,0.289 0.32,0.3984 0.523,0.8945 0.867,2.5195 0.809,2.7891 0.578,-1.4688 1.046,-3.4219 0.664,-5.4649 0,0 -0.004,-0.0156 -0.016,-0.0429 -0.004,0 -0.004,0 -0.004,0 v 0 0 0 c -0.004,-0.0079 -0.012,-0.0196 -0.019,-0.0313 v 0 0 -0.0039 0 c -0.086,-0.1172 -0.329,-0.3438 -1,-0.4844 l 0.011,0.0039 c -0.316,0.1133 -0.625,0.1602 -0.914,0.1602 -1.32,0 -2.293,-0.9961 -2.32,-1.0235 -0.156,-0.0781 -0.317,-0.1562 -0.481,-0.2382 -1.121,-0.5469 -2.414,-1.1172 -4.113,-1.1172"
             style="fill:#ff9584;fill-opacity:1;fill-rule:nonzero;stroke:none"
             id="path294" />
          <path
             d="m 110.465,85.1523 c 0.027,0.0274 1,1.0235 2.32,1.0235 0.289,0 0.598,-0.0469 0.914,-0.1602 l -0.011,-0.0039 -0.02,-0.0078 c -0.258,-0.0547 -0.582,-0.0937 -0.98,-0.1133 -0.731,-0.0351 -1.442,-0.3554 -2.223,-0.7383"
             style="fill:#c75241;fill-opacity:1;fill-rule:nonzero;stroke:none"
             id="path296" />
          <path
             d="m 101.898,84.8906 h -0.003 c -0.965,0.4844 -1.793,0.961 -2.6841,1 -0.375,0.0196 -0.6914,0.0547 -0.9531,0.1055 L 98.25,86 v 0 c 0,0 0.3359,0.1211 0.8633,0.1211 0.6992,0 1.7417,-0.2188 2.7847,-1.2305"
             style="fill:#c75241;fill-opacity:1;fill-rule:nonzero;stroke:none"
             id="path298" />
          <path
             d="m 112.785,88.6992 c -0.14,0.9922 -0.265,2.8867 0.235,5.4453 l 0.511,-0.9179 v -0.0039 c -0.238,-1.1446 -0.543,-2.8399 -0.597,-4.3711 -0.043,-0.0469 -0.094,-0.0977 -0.149,-0.1524"
             style="fill:#ff9584;fill-opacity:1;fill-rule:nonzero;stroke:none"
             id="path300" />
          <path
             d="m 112.938,87.9219 c 0,0 -0.079,0.2695 -0.153,0.7773 0.055,0.0547 0.106,0.1055 0.149,0.1524 -0.008,-0.3203 -0.008,-0.6328 0.004,-0.9297"
             style="fill:#ff8a76;fill-opacity:1;fill-rule:nonzero;stroke:none"
             id="path302" />
          <path
             d="m 99,88.2891 c -0.043,0.0312 -0.0859,0.0586 -0.125,0.0898 -0.0352,1.707 -0.4062,3.668 -0.6641,4.8477 v 0.0039 l 0.5157,0.9218 C 99.3203,91.3281 99.1523,89.2734 99,88.2891"
             style="fill:#ff9584;fill-opacity:1;fill-rule:nonzero;stroke:none"
             id="path304" />
          <path
             d="m 98.8672,87.6406 c 0.0117,0.2383 0.0117,0.4844 0.0078,0.7383 0.0391,-0.0312 0.082,-0.0586 0.125,-0.0898 -0.0664,-0.4258 -0.1328,-0.6485 -0.1328,-0.6485"
             style="fill:#ff8a76;fill-opacity:1;fill-rule:nonzero;stroke:none"
             id="path306" />
          <path
             d="m 109.648,88.5469 0.832,1.7695 0.321,-1.4961 z"
             style="fill:#ffcfbf;fill-opacity:1;fill-rule:nonzero;stroke:none"
             id="path308" />
        </g>
      </g>
    </g>
  </g>
</svg>
