<?xml version="1.0" encoding="UTF-8" standalone="no"?>
<!-- Created with Inkscape (http://www.inkscape.org/) -->

<svg
   version="1.1"
   id="svg2"
   width="28"
   height="28"
   viewBox="0 0 28 28"
   sodipodi:docname="white man.eps"
   xmlns:inkscape="http://www.inkscape.org/namespaces/inkscape"
   xmlns:sodipodi="http://sodipodi.sourceforge.net/DTD/sodipodi-0.dtd"
   xmlns="http://www.w3.org/2000/svg"
   xmlns:svg="http://www.w3.org/2000/svg">
  <defs
     id="defs6">
    <clipPath
       clipPathUnits="userSpaceOnUse"
       id="clipPath18">
      <path
         d="M 210,105 C 210,47.0117 162.988,0 105,0 47.0117,0 0,47.0117 0,105 c 0,57.988 47.0117,105 105,105 57.988,0 105,-47.012 105,-105"
         id="path16" />
    </clipPath>
    <clipPath
       clipPathUnits="userSpaceOnUse"
       id="clipPath90">
      <path
         d="M 210,105 C 210,47.0117 162.988,0 105,0 47.0117,0 0,47.0117 0,105 c 0,57.988 47.0117,105 105,105 57.988,0 105,-47.012 105,-105"
         id="path88" />
    </clipPath>
    <clipPath
       clipPathUnits="userSpaceOnUse"
       id="clipPath96">
      <path
         d="m 123.113,111.914 c -2.855,0.043 -5.547,0.535 -5.547,0.535 0,0 0.071,-0.019 0.2,-0.051 -0.356,0.075 -0.684,0.153 -0.981,0.239 l -0.855,2.57 -0.528,-1 c 0.067,0.184 0.145,0.371 0.243,0.57 -0.004,-0.007 -0.004,-0.011 -0.004,-0.011 0,0 0.195,0.359 0.566,0.906 -0.184,-0.293 -0.277,-0.465 -0.277,-0.465 0,0 1.289,1.063 3.453,2.137 0.039,-2.469 1.914,-4.578 4.43,-4.852 0.179,-0.019 0.359,-0.027 0.539,-0.027 2.484,0 4.621,1.855 4.921,4.371 0.34,-0.09 0.805,-0.152 1.286,-0.152 0.226,0 0.457,0.015 0.679,0.046 1.149,0.172 1.813,0.735 1.739,0.875 -0.036,0.071 -0.629,0.184 -1.418,0.184 -0.688,0 -1.516,-0.086 -2.25,-0.359 0,0.75 -0.168,1.472 -0.477,2.121 1.742,-0.051 3.586,-0.371 5.484,-1.078 0.102,-0.399 0.098,-0.766 0.032,-1.043 -0.18,-0.762 -1.059,-2.274 -3.004,-3.52 1.922,1.371 2.703,2.774 2.703,2.774 0,0 -2.535,-3.465 -7.285,-4.481 -0.004,-0.004 -0.012,-0.004 -0.016,-0.004 -0.289,-0.051 -0.586,-0.094 -0.894,-0.133 -0.86,-0.101 -1.793,-0.148 -2.739,-0.152 m 11.149,6.758 -0.102,0.215 c 0,0 -0.637,0.715 -1.988,1.422 0.969,-0.414 1.547,-0.766 1.547,-0.766 0,0 -1.082,1.129 -3.235,2.082 2.399,-0.68 3.438,-1.91 3.778,-2.953"
         id="path94" />
    </clipPath>
    <linearGradient
       x1="0"
       y1="0"
       x2="1"
       y2="0"
       gradientUnits="userSpaceOnUse"
       gradientTransform="matrix(1.15826,10.732,10.732,-1.15826,124.381,111.594)"
       spreadMethod="pad"
       id="linearGradient104">
      <stop
         style="stop-opacity:1;stop-color:#eee2ff"
         offset="0"
         id="stop98" />
      <stop
         style="stop-opacity:1;stop-color:#bdc9fb"
         offset="0.996032"
         id="stop100" />
      <stop
         style="stop-opacity:1;stop-color:#bdc9fb"
         offset="1"
         id="stop102" />
    </linearGradient>
    <clipPath
       clipPathUnits="userSpaceOnUse"
       id="clipPath114">
      <path
         d="M 210,105 C 210,47.0117 162.988,0 105,0 47.0117,0 0,47.0117 0,105 c 0,57.988 47.0117,105 105,105 57.988,0 105,-47.012 105,-105"
         id="path112" />
    </clipPath>
    <clipPath
       clipPathUnits="userSpaceOnUse"
       id="clipPath140">
      <path
         d="M 210,105 C 210,47.0117 162.988,0 105,0 47.0117,0 0,47.0117 0,105 c 0,57.988 47.0117,105 105,105 57.988,0 105,-47.012 105,-105"
         id="path138" />
    </clipPath>
    <clipPath
       clipPathUnits="userSpaceOnUse"
       id="clipPath146">
      <path
         d="m 115.93,115.207 c 0,0 0.093,0.172 0.277,0.465 0.367,0.543 0.906,1.277 1.598,2.039 0.593,0.613 1.273,1.215 2.019,1.766 -0.215,-0.469 -0.355,-0.977 -0.414,-1.516 -0.023,-0.207 -0.031,-0.414 -0.027,-0.617 -2.164,-1.074 -3.453,-2.137 -3.453,-2.137 m 18.386,3.266 c -1.898,0.707 -3.742,1.027 -5.484,1.078 -0.402,0.847 -1.035,1.566 -1.832,2.074 2.102,-0.168 3.949,-0.793 5.172,-1.316 1.351,-0.707 1.988,-1.422 1.988,-1.422 l 0.102,-0.215 c 0.019,-0.067 0.039,-0.133 0.054,-0.199"
         id="path144" />
    </clipPath>
    <linearGradient
       x1="0"
       y1="0"
       x2="1"
       y2="0"
       gradientUnits="userSpaceOnUse"
       gradientTransform="matrix(1.15826,10.732,10.732,-1.15826,124.381,111.594)"
       spreadMethod="pad"
       id="linearGradient154">
      <stop
         style="stop-opacity:1;stop-color:#eebbcc"
         offset="0"
         id="stop148" />
      <stop
         style="stop-opacity:1;stop-color:#bda7c9"
         offset="0.996032"
         id="stop150" />
      <stop
         style="stop-opacity:1;stop-color:#bda7c9"
         offset="1"
         id="stop152" />
    </linearGradient>
    <clipPath
       clipPathUnits="userSpaceOnUse"
       id="clipPath164">
      <path
         d="M 210,105 C 210,47.0117 162.988,0 105,0 47.0117,0 0,47.0117 0,105 c 0,57.988 47.0117,105 105,105 57.988,0 105,-47.012 105,-105"
         id="path162" />
    </clipPath>
    <clipPath
       clipPathUnits="userSpaceOnUse"
       id="clipPath182">
      <path
         d="M 210,105 C 210,47.0117 162.988,0 105,0 47.0117,0 0,47.0117 0,105 c 0,57.988 47.0117,105 105,105 57.988,0 105,-47.012 105,-105"
         id="path180" />
    </clipPath>
    <clipPath
       clipPathUnits="userSpaceOnUse"
       id="clipPath188">
      <path
         d="m 85.9609,111.914 c -0.9453,0.004 -1.8789,0.051 -2.7382,0.152 -0.3086,0.039 -0.6094,0.082 -0.8946,0.133 -0.0078,0 -0.0117,0 -0.0156,0.004 -4.75,1.016 -7.2852,4.481 -7.2852,4.481 0,0 0.7774,-1.403 2.7032,-2.774 -1.9453,1.246 -2.8242,2.758 -3.0039,3.52 -0.0664,0.277 -0.0703,0.644 0.0273,1.043 1.8984,0.707 3.7422,1.027 5.4844,1.078 -0.3047,-0.649 -0.4766,-1.371 -0.4766,-2.121 -0.7344,0.273 -1.5625,0.359 -2.2461,0.359 -0.789,0 -1.3867,-0.113 -1.4218,-0.184 -0.0743,-0.14 0.5898,-0.703 1.7421,-0.875 0.2227,-0.031 0.4493,-0.046 0.6797,-0.046 0.4766,0 0.9414,0.062 1.2852,0.152 0.3008,-2.516 2.4375,-4.371 4.9219,-4.371 0.1757,0 0.3554,0.008 0.5351,0.027 2.5195,0.274 4.3945,2.383 4.4336,4.852 2.1602,-1.074 3.4492,-2.137 3.4492,-2.137 v 0 l -0.8554,-2.57 c -0.293,-0.086 -0.6211,-0.164 -0.9766,-0.239 0.1289,0.032 0.1992,0.051 0.1992,0.051 0,0 -2.6914,-0.492 -5.5469,-0.535 m 7.7071,2.293 -0.5274,1 v 0 c 0,0 -0.0937,0.176 -0.2773,0.465 0.3711,-0.547 0.5664,-0.906 0.5664,-0.906 0,0 0,0.004 0,0.011 0.0937,-0.199 0.1758,-0.386 0.2383,-0.57 m -18.8555,4.465 c 0.3359,1.043 1.3789,2.273 3.7734,2.953 -2.1523,-0.953 -3.2304,-2.082 -3.2304,-2.082 0,0 0.5742,0.352 1.5429,0.766 -1.3515,-0.707 -1.9843,-1.422 -1.9843,-1.422 l -0.1016,-0.215"
         id="path186" />
    </clipPath>
    <linearGradient
       x1="0"
       y1="0"
       x2="1"
       y2="0"
       gradientUnits="userSpaceOnUse"
       gradientTransform="matrix(-1.15826,10.732,-10.732,-1.15826,84.6911,111.594)"
       spreadMethod="pad"
       id="linearGradient196">
      <stop
         style="stop-opacity:1;stop-color:#eee2ff"
         offset="0"
         id="stop190" />
      <stop
         style="stop-opacity:1;stop-color:#bdc9fb"
         offset="0.996032"
         id="stop192" />
      <stop
         style="stop-opacity:1;stop-color:#bdc9fb"
         offset="1"
         id="stop194" />
    </linearGradient>
    <clipPath
       clipPathUnits="userSpaceOnUse"
       id="clipPath206">
      <path
         d="M 210,105 C 210,47.0117 162.988,0 105,0 47.0117,0 0,47.0117 0,105 c 0,57.988 47.0117,105 105,105 57.988,0 105,-47.012 105,-105"
         id="path204" />
    </clipPath>
    <clipPath
       clipPathUnits="userSpaceOnUse"
       id="clipPath232">
      <path
         d="M 210,105 C 210,47.0117 162.988,0 105,0 47.0117,0 0,47.0117 0,105 c 0,57.988 47.0117,105 105,105 57.988,0 105,-47.012 105,-105"
         id="path230" />
    </clipPath>
    <clipPath
       clipPathUnits="userSpaceOnUse"
       id="clipPath238">
      <path
         d="m 93.1406,115.207 c 0,0 -1.289,1.063 -3.4492,2.137 0,0.203 -0.0078,0.41 -0.0312,0.617 -0.0586,0.539 -0.1993,1.047 -0.4102,1.516 0.7461,-0.551 1.4258,-1.153 2.0195,-1.762 0.6875,-0.766 1.2266,-1.496 1.5938,-2.043 0.1836,-0.289 0.2773,-0.465 0.2773,-0.465 m -18.3867,3.266 c 0.0156,0.066 0.0352,0.132 0.0586,0.199 l 0.1016,0.215 c 0,0 0.6328,0.715 1.9843,1.422 1.2227,0.523 3.0704,1.148 5.1758,1.316 -0.7969,-0.508 -1.4336,-1.227 -1.8359,-2.074 -1.7422,-0.051 -3.586,-0.371 -5.4844,-1.078"
         id="path236" />
    </clipPath>
    <linearGradient
       x1="0"
       y1="0"
       x2="1"
       y2="0"
       gradientUnits="userSpaceOnUse"
       gradientTransform="matrix(-1.15826,10.732,-10.732,-1.15826,84.6911,111.594)"
       spreadMethod="pad"
       id="linearGradient246">
      <stop
         style="stop-opacity:1;stop-color:#eebbcc"
         offset="0"
         id="stop240" />
      <stop
         style="stop-opacity:1;stop-color:#bda7c9"
         offset="0.996032"
         id="stop242" />
      <stop
         style="stop-opacity:1;stop-color:#bda7c9"
         offset="1"
         id="stop244" />
    </linearGradient>
    <clipPath
       clipPathUnits="userSpaceOnUse"
       id="clipPath256">
      <path
         d="M 210,105 C 210,47.0117 162.988,0 105,0 47.0117,0 0,47.0117 0,105 c 0,57.988 47.0117,105 105,105 57.988,0 105,-47.012 105,-105"
         id="path254" />
    </clipPath>
  </defs>
  <sodipodi:namedview
     id="namedview4"
     pagecolor="#ffffff"
     bordercolor="#000000"
     borderopacity="0.25"
     inkscape:showpageshadow="2"
     inkscape:pageopacity="0.0"
     inkscape:pagecheckerboard="0"
     inkscape:deskcolor="#d1d1d1" />
  <g
     id="g8"
     inkscape:groupmode="layer"
     inkscape:label="ink_ext_XXXXXX"
     transform="matrix(1.3333333,0,0,-1.3333333,0,28)">
    <g
       id="g10"
       transform="scale(0.1)">
      <g
         id="g12">
        <g
           id="g14"
           clip-path="url(#clipPath18)">
          <path
             d="M 210,105 C 210,47.0117 162.988,0 105,0 47.0117,0 0,47.0117 0,105 c 0,57.988 47.0117,105 105,105 57.988,0 105,-47.012 105,-105"
             style="fill:#c8e1ed;fill-opacity:1;fill-rule:nonzero;stroke:none"
             id="path20" />
          <path
             d="m 75.3828,72.9727 c 0,0 -0.9883,-26.9922 -1.6719,-29.6602 C 73.0234,40.6445 37.8828,25.7031 37.8828,25.7031 H 172.117 c 0,0 -38.187,13.4922 -39.219,16.5782 -1.027,3.0859 -1.054,28.8281 -1.054,28.8281 l -56.4612,1.8633"
             style="fill:#ffa697;fill-opacity:1;fill-rule:nonzero;stroke:none"
             id="path22" />
          <path
             d="M 73.8438,44.0938 H 70.7344 V 41.5586 L 36.1758,25.7031 c 0,0 0.5898,-35.22654 67.8672,-36.1094 67.281,-0.8828 69.785,36.1094 69.785,36.1094 l -37.156,15.0938 c 0,0 -1.219,3.3515 -3.774,1.4844 l 0.875,-1.2579 c 0,0 -11.89,-12.7304 -31.707,-12.7304 -19.8199,0 -28.2222,15.8008 -28.2222,15.8008"
             style="fill:#1c77e5;fill-opacity:1;fill-rule:nonzero;stroke:none"
             id="path24" />
          <path
             d="m 132.121,52.4258 c -0.266,8.289 -0.277,18.5117 -0.277,18.6797 v 0 l 0.394,-18.6485 c 0,0 -0.039,-0.0117 -0.117,-0.0312 m -57.1796,9.7851 v 0 l 0.4336,10.586 v 0 c -0.0352,-0.9297 -0.2031,-5.3906 -0.4336,-10.586"
             style="fill:#d9bfc0;fill-opacity:1;fill-rule:nonzero;stroke:none"
             id="path26" />
          <path
             d="m 104.488,42.6641 c -0.429,0 -0.871,0.0117 -1.316,0.0273 -8.1212,0.3438 -18.4103,11.9375 -20.0118,14.8008 -1.5977,2.8555 -8.2032,4.7148 -8.2188,4.7187 0.2305,5.1954 0.3984,9.6563 0.4336,10.586 2.7422,-2.5117 5.8867,-5.0547 8.2461,-7.4844 1.2617,-1.3008 2.5742,-2.4062 3.8125,-3.3281 -0.1211,0.1133 -0.5586,0.5156 -1.1875,1.1054 2.9492,-2.3945 5.707,-3.789 6.9219,-4.2851 3.1992,-1.3125 11.488,-1.3125 11.488,-1.3125 0,0 8.293,0 11.492,1.3125 1.047,0.4297 3.27,1.5391 5.762,3.3945 l 0.02,0.0117 c 1.242,0.9219 2.558,2.0313 3.824,3.336 1.758,1.8086 3.949,3.6836 6.09,5.5586 0,-0.168 0.011,-10.3907 0.277,-18.6797 -0.961,-0.2656 -7.644,-2.1524 -11.457,-4.5899 -3.887,-2.4843 -8.797,-5.1718 -16.176,-5.1718"
             style="fill:#ff9584;fill-opacity:1;fill-rule:nonzero;stroke:none"
             id="path28" />
          <path
             d="m 142.281,118.777 c 0,0 5.614,8.555 9.426,8.536 2.32,-0.012 7.914,-4.879 7.852,-9.528 -0.086,-6.222 -5.594,-13.289 -6.965,-16.914 -1.371,-3.6288 -4.926,-8.3515 -7.289,-8.8085 -2.364,-0.457 -5.442,4.0156 -5.442,4.0156 0,0 1.149,17.0589 2.418,22.6989"
             style="fill:#ffa697;fill-opacity:1;fill-rule:nonzero;stroke:none"
             id="path30" />
          <path
             d="m 154.508,104.625 c 0,0 0,0 0,0.004 v 0 -0.004"
             style="fill:#d9bfc0;fill-opacity:1;fill-rule:nonzero;stroke:none"
             id="path32" />
          <path
             d="m 148.547,102.77 c -0.098,0 -0.184,0.015 -0.25,0.054 -0.629,0.344 0.344,3.887 -0.231,5.145 -0.515,1.136 -1.921,2.742 -2.906,2.742 -0.101,0 -0.199,-0.016 -0.293,-0.055 -0.554,-0.226 -1.179,-0.515 -1.617,-0.718 0.02,0.16 0.039,0.32 0.063,0.48 2.121,2.531 9.128,10.645 11.957,10.645 3.355,0 3.355,-6.481 2.003,-10.176 -0.933,-2.551 -2.753,-6.231 -2.765,-6.258 v 0 c 0.004,0.016 1.449,3.976 1.621,6.941 0.266,4.571 -0.746,7.891 -1.902,7.891 0,0 0,0 -0.004,0 -2.121,-0.016 -3.793,-2.914 -4.059,-3.945 -0.266,-1.028 1.676,-5.543 1.16,-8.692 -0.457,-2.797 -2.004,-4.054 -2.777,-4.054"
             style="fill:#ff9584;fill-opacity:1;fill-rule:nonzero;stroke:none"
             id="path34" />
          <path
             d="m 67.1523,118.777 c 0,0 -5.6171,8.555 -9.4257,8.536 -2.3203,-0.012 -7.9141,-4.879 -7.8516,-9.528 0.0859,-6.222 5.5938,-13.289 6.9648,-16.914 1.3711,-3.6288 4.9258,-8.3515 7.2891,-8.8085 2.3633,-0.457 5.4414,4.0156 5.4414,4.0156 0,0 -1.1484,17.0589 -2.418,22.6989"
             style="fill:#ffa697;fill-opacity:1;fill-rule:nonzero;stroke:none"
             id="path36" />
          <path
             d="m 54.9258,104.625 v 0.004 0 c 0,-0.004 0,-0.004 0,-0.004"
             style="fill:#d9bfc0;fill-opacity:1;fill-rule:nonzero;stroke:none"
             id="path38" />
          <path
             d="m 60.8867,102.77 c -0.7773,0 -2.3203,1.257 -2.7812,4.054 -0.5117,3.149 1.4297,7.664 1.164,8.692 -0.2656,1.031 -1.9375,3.929 -4.0586,3.945 -0.0039,0 -0.0039,0 -0.0039,0 -1.1562,0 -2.1679,-3.32 -1.9023,-7.891 0.1719,-2.965 1.6133,-6.922 1.6211,-6.941 v 0 c -0.0156,0.031 -1.832,3.707 -2.7656,6.258 -1.3516,3.695 -1.3516,10.176 2.0039,10.176 2.7695,0 9.539,-7.77 11.8164,-10.477 0.0234,-0.195 0.0508,-0.395 0.0742,-0.59 -0.4258,0.199 -0.9883,0.453 -1.4883,0.66 -0.0937,0.039 -0.1914,0.055 -0.293,0.055 -0.9843,0 -2.3906,-1.606 -2.9062,-2.742 -0.5742,-1.258 0.3984,-4.801 -0.2305,-5.145 -0.0703,-0.039 -0.1523,-0.054 -0.25,-0.054"
             style="fill:#ff9584;fill-opacity:1;fill-rule:nonzero;stroke:none"
             id="path40" />
          <path
             d="m 143.84,115.113 c -0.617,-6.703 -1.906,-12.953 -2.215,-19.9685 -0.301,-7.0117 -0.887,-12.7109 -1.98,-15.3203 -0.489,-1.1719 -1.364,-2.3906 -2.461,-3.6211 l -0.004,-0.0039 c -3.117,-3.5078 -8.071,-7.1953 -11.426,-10.6523 -1.266,-1.3047 -2.582,-2.4141 -3.824,-3.336 l -0.02,-0.0117 c -2.492,-1.8554 -4.715,-2.9648 -5.762,-3.3945 -3.199,-1.3125 -11.492,-1.3125 -11.492,-1.3125 0,0 -8.2888,0 -11.488,1.3125 -1.5821,0.6484 -5.7891,2.8125 -9.6055,6.7422 -3.9648,4.0859 -10.1445,8.4844 -12.9102,12.5273 l -0.9843,1.75 c -1.0899,2.6094 -1.6758,8.3086 -1.9766,15.3203 -0.3086,7.0155 -1.6055,13.2655 -2.2148,19.9685 -0.6094,6.711 -3.2227,31.328 -1.2422,36.672 1.9844,5.332 27.3086,18.293 40.4216,18.293 16.328,0 39.532,-16.707 40.121,-18.293 1.985,-5.344 -0.328,-29.961 -0.937,-36.672"
             style="fill:#ffa697;fill-opacity:1;fill-rule:nonzero;stroke:none"
             id="path42" />
          <path
             d="m 142.586,153.805 c -1.512,1.175 -3.723,2.738 -6.398,4.429 0.093,0.485 0.179,0.891 0.25,1.188 2.925,-2.109 5.132,-4.098 6.148,-5.617"
             style="fill:#c8d2da;fill-opacity:1;fill-rule:nonzero;stroke:none"
             id="path44" />
          <path
             d="m 121.695,62.125 c 0.528,0.4805 7.2,6.3086 8.918,9.4375 1.793,3.2656 4.106,20.5898 5.657,26.3867 1.55,5.8008 3.453,13.5738 3.453,13.5738 -0.45,3.309 -3.285,3.309 -3.285,3.309 -2.258,-1.23 -4.786,-1.887 -7.29,-2.18 0.856,0.383 1.582,0.821 2.196,1.258 1.945,1.246 2.824,2.758 3.004,3.52 0.066,0.277 0.07,0.644 -0.032,1.043 0.016,-0.004 0.032,-0.012 0.047,-0.016 v 0 0 l -0.101,0.215 c -0.34,1.043 -1.379,2.273 -3.778,2.953 -1.347,0.594 -3.121,1.125 -5.308,1.266 -0.196,0.011 -0.387,0.019 -0.574,0.019 -6.7,0 -8.868,-7.801 -8.957,-8.133 -0.098,-0.199 -0.176,-0.386 -0.243,-0.57 l -0.183,-0.348 c -0.324,0.09 -0.5,0.145 -0.5,0.145 -1.539,7.32 -1.004,19.996 -1.004,19.996 l 2.504,-2.312 13.203,3.074 5.894,-2.449 c 0,0 -1.105,10.296 -0.91,13.41 0.172,2.703 1.168,9.336 1.782,12.511 2.675,-1.691 4.886,-3.254 6.398,-4.429 0.219,-0.325 0.383,-0.629 0.484,-0.907 1.981,-5.324 1.219,-31.496 0.614,-38.183 -0.614,-6.684 -1.899,-12.914 -2.207,-19.9025 -0.301,-6.9883 -0.84,-12.6914 -1.973,-15.2695 -1.82,-4.1367 -8.965,-8.9922 -13.492,-13.6602 -1.266,-1.3008 -3.074,-2.8359 -4.317,-3.7578 m -1.789,57.531 c 0.004,0 0.004,0.004 0.004,0.004 v 0 c 0,0 0,-0.004 -0.004,-0.004"
             style="fill:#ff9b8b;fill-opacity:1;fill-rule:nonzero;stroke:none"
             id="path46" />
          <path
             d="m 75.375,72.7969 c -2.5195,2.3086 -4.6953,4.5937 -5.5977,6.7461 -0.0546,0.1289 -0.1054,0.2617 -0.1601,0.4062 0.0195,-0.0429 0.0351,-0.0859 0.0508,-0.125 l 0.9843,-1.75 c 1.1329,-1.6562 2.8399,-3.3711 4.7305,-5.1015 v 0 0 L 75.375,72.7969"
             style="fill:#c8d2da;fill-opacity:1;fill-rule:nonzero;stroke:none"
             id="path48" />
          <path
             d="m 75.3828,72.9727 v 0 0 0 0"
             style="fill:#ff9b8b;fill-opacity:1;fill-rule:nonzero;stroke:none"
             id="path50" />
          <path
             d="m 75.375,72.7969 v 0 l 0.0078,0.1758 c 0,-0.0039 -0.0039,-0.0625 -0.0078,-0.1758"
             style="fill:#d9b2b1;fill-opacity:1;fill-rule:nonzero;stroke:none"
             id="path52" />
          <path
             d="m 87.4336,61.9844 c -1.2383,0.9219 -2.5508,2.0273 -3.8125,3.3281 -2.3594,2.4297 -5.5039,4.9727 -8.2461,7.4844 0.0039,0.1133 0.0078,0.1719 0.0078,0.1758 v 0 0 c 2.7266,-2.4922 5.836,-5.0157 8.1797,-7.4258 0.8867,-0.9141 1.793,-1.7305 2.6836,-2.4571 0.6289,-0.5898 1.0664,-0.9921 1.1875,-1.1054"
             style="fill:#ff8b79;fill-opacity:1;fill-rule:nonzero;stroke:none"
             id="path54" />
          <path
             d="m 69.8906,157.129 c 0.8672,0.734 1.8594,1.508 2.9532,2.293 0.0273,-0.109 0.0585,-0.234 0.0898,-0.375 -1.0898,-0.649 -2.1094,-1.289 -3.043,-1.918"
             style="fill:#c8d2da;fill-opacity:1;fill-rule:nonzero;stroke:none"
             id="path56" />
          <path
             d="m 86.2461,63.0898 c -0.8906,0.7266 -1.7969,1.543 -2.6836,2.4571 -2.3437,2.4101 -5.4531,4.9336 -8.1797,7.4258 v 0 c -1.8906,1.7304 -3.5976,3.4453 -4.7305,5.1015 l -0.9843,1.75 c -0.0157,0.0391 -0.0313,0.0821 -0.0508,0.125 -0.9883,2.7539 -1.5274,8.2188 -1.8125,14.8633 -0.3086,6.9885 -1.5938,13.2185 -2.207,19.9025 -0.6094,6.687 -1.3672,32.859 0.6132,38.183 0.4063,1.094 1.7266,2.575 3.6797,4.231 0.9336,0.629 1.9532,1.269 3.043,1.918 0.582,-2.574 1.9062,-10.371 2.0937,-13.324 0.1915,-3.114 -0.332,-12.789 -0.332,-12.789 l 5.5625,1.414 13.7891,-4.403 -0.086,1.16 c 0,0 2.1407,-9.781 0.6016,-17.101 0,0 -0.2422,-0.074 -0.6836,-0.191 l -0.2109,0.394 c -0.0625,0.184 -0.1446,0.371 -0.2383,0.57 -0.0899,0.332 -2.2578,8.133 -8.9609,8.133 -0.1875,0 -0.375,-0.008 -0.5704,-0.019 -2.1914,-0.141 -3.9609,-0.672 -5.3125,-1.266 -2.3945,-0.68 -3.4375,-1.91 -3.7734,-2.953 l -0.1016,-0.215 c 0.0157,0.004 0.0313,0.012 0.043,0.016 -0.0976,-0.399 -0.0937,-0.766 -0.0273,-1.043 0.1797,-0.762 1.0586,-2.274 3.0039,-3.52 0.5898,-0.426 1.2929,-0.847 2.1133,-1.222 -2.4102,0.308 -4.8282,0.96 -7,2.144 0,0 -2.8399,0 -3.2852,-3.309 0,0 1.9023,-7.773 3.4531,-13.5738 1.5508,-5.7969 3.8594,-23.1211 5.6524,-26.3867 1.3242,-2.4102 5.4922,-6.4961 7.582,-8.4727 m 2.918,56.5662 c 0,0 0,0.004 -0.0039,0.004 v 0 c 0.0039,0 0.0039,-0.004 0.0039,-0.004"
             style="fill:#ff9b8b;fill-opacity:1;fill-rule:nonzero;stroke:none"
             id="path58" />
          <path
             d="m 96.168,176.902 c 0,0 -8.0703,4.395 -9.9961,7.805 -1.9219,3.41 2.8867,7.695 2.8867,7.695 0,0 -2.0977,-2.359 -2.0977,-4.371 0,0 8.0079,6.383 17.0351,6.473 9.027,0.086 15.938,-7.262 15.938,-7.262 0,0 -0.524,-5.082 -8.485,-10.062 l -15.281,-0.278"
             style="fill:#701800;fill-opacity:1;fill-rule:nonzero;stroke:none"
             id="path60" />
          <path
             d="m 92.6367,175.656 c 0,0 6.4024,4.278 11.0513,4.278 4.648,0 11.667,-4.532 11.667,-4.532 l -22.7183,0.254"
             style="fill:#00c3ff;fill-opacity:1;fill-rule:nonzero;stroke:none"
             id="path62" />
          <path
             d="m 64.6328,124.195 c 0,0 1.7735,4.774 3.9883,10.723 2.2148,5.945 1.8203,22.574 1.8203,22.574 0,0 -4.7617,-3.187 -6.207,-5.707 -0.6055,-1.058 -0.8321,-6.047 -0.6602,-11.519 0.2383,-7.582 1.0586,-16.071 1.0586,-16.071"
             style="fill:#701800;fill-opacity:1;fill-rule:nonzero;stroke:none"
             id="path64" />
          <path
             d="m 144.625,124.195 c 0,0 -2.02,4.774 -4.234,10.723 -2.215,5.945 -1.821,22.574 -1.821,22.574 0,0 4.766,-3.187 6.207,-5.707 0.645,-1.125 0.875,-6.801 0.723,-12.652 -0.191,-7.305 -0.875,-14.938 -0.875,-14.938"
             style="fill:#701800;fill-opacity:1;fill-rule:nonzero;stroke:none"
             id="path66" />
          <path
             d="m 144.41,152.352 c 0,0 -0.777,0.582 -6.898,2.421 -6.121,1.836 -11.539,4.836 -11.539,4.836 0,0 -12.16,0 -23.09,0 -10.9338,0 -20.2111,0 -20.2111,0 0,0 -5.2813,-2.566 -9.75,-4.339 h -0.0078 l -1.4219,-0.555 c -1.0625,-0.387 -2.0313,-0.711 -2.8086,-0.902 -4.0703,-1.016 -4.9492,-2.825 -5.0039,-2.938 -0.0352,0.141 -0.7734,3.664 0,5.68 l 0.1016,0.191 c 0.371,0.602 1.4609,1.57 2.8828,2.66 l 0.2851,0.223 c 1.3008,0.988 2.8438,2.066 4.3281,3.082 2.7344,1.867 5.293,3.48 5.9102,3.879 l 0.1484,0.09 c 0,0 -0.5156,0.371 1.4024,2.144 l 1.0976,0.801 1.4493,0.879 0.0312,0.019 c 2.2344,1.282 5.5938,2.954 9.2774,4.375 l 0.6171,0.239 0.1485,0.058 c 1.4297,0.535 2.8906,1.024 4.3476,1.438 l 0.0118,0.012 0.6445,0.175 0.2773,0.075 c 2.4375,0.644 4.8284,1.05 6.9454,1.05 2.215,0 4.641,-0.406 7.059,-1.043 l 0.011,-0.007 h 0.008 l 0.066,-0.02 c 7.36,-1.941 14.586,-5.945 15.5,-6.797 1.231,-1.133 1.665,-2.621 1.665,-2.621 0,0 2.785,-1.633 5.074,-3.047 l 0.011,-0.008 0.497,-0.304 c 1.183,-0.739 2.144,-1.368 2.375,-1.598 0,0 2.05,-1.367 4.238,-2.891 2.445,-1.687 5.078,-3.562 5.242,-3.914 l -0.922,-3.343"
             style="fill:#701800;fill-opacity:1;fill-rule:nonzero;stroke:none"
             id="path68" />
          <path
             d="m 71.4922,154.715 c -1.0625,-0.387 -2.0313,-0.711 -2.8086,-0.902 -4.0703,-1.016 -4.8594,-4.059 -4.918,-4.168 0.1524,-0.731 -0.8593,4.894 -0.0859,6.91 l 0.1016,0.191 0.7031,0.121 c 2.539,0.27 7.0078,-2.152 7.0078,-2.152"
             style="fill:#5e0d00;fill-opacity:1;fill-rule:nonzero;stroke:none"
             id="path70" />
          <path
             d="m 144.41,152.352 c 0,0 -0.777,0.582 -6.898,2.421 -6.121,1.836 -11.539,4.836 -11.539,4.836 0,0 -12.16,0 -23.09,0 -10.9338,0 -20.2111,0 -20.2111,0 0,0 -5.2813,-2.566 -9.75,-4.339 h -0.0078 c -2.1524,2.687 -6.25,4.136 -6.25,4.136 l 0.2851,0.223 c 0,0 3.6758,-1.578 5.4453,-1.691 1.7735,-0.102 3.1055,0.792 3.1055,0.792 -2.0039,0.981 -4.3125,3.825 -4.3125,3.825 l 0.0898,0.156 c 0,0 2.3008,-2.602 4.3594,-2.871 2.0508,-0.258 3.5821,0.656 3.5821,0.656 -2.1407,1.754 -2.2266,5.953 -2.2266,5.953 l 0.1953,0.141 0.1484,0.09 c 0.25,-2.188 1.8008,-4.246 1.9922,-4.496 -1.7617,3.629 0.5078,7.441 0.5078,7.441 l 1.4493,0.879 0.0312,0.019 c 0,0 -3.0117,-3.769 -1.4961,-7.496 1.5117,-3.742 15.9727,-1.738 15.9727,-1.738 0,0 -7.0821,0.387 -8.6992,4.156 -1.5704,3.629 3.1757,9.082 3.5,9.453 l 0.0195,0.02 0.5976,0.219 0.1485,0.058 c -3.4727,-2.929 -5.4453,-8.707 -1.5977,-11.062 3.8516,-2.363 9.4922,-2.188 9.4922,-2.188 0,0 -5.8164,3.02 -6.4726,6.028 -0.6446,2.937 2.7343,8.347 2.9257,8.66 l 0.0118,0.012 0.6445,0.175 0.2851,0.082 -0.0078,-0.007 c -0.2109,-0.27 -3.9687,-4.997 -3.0664,-8.68 0.9336,-3.797 7.8748,-5.891 12.4298,-6.711 4.543,-0.813 10.551,-0.52 10.551,-0.52 0,0 2.511,4.664 1.57,9.094 -0.852,4 -6.262,6.336 -7.305,6.758 1.082,-0.406 6.926,-2.77 8.004,-7.164 1.192,-4.856 -1.336,-9.215 -1.336,-9.215 3.434,-0.238 10.782,0.582 10.782,0.582 0.5,2.551 -0.293,6.059 -0.368,6.391 1.071,-2.946 1.477,-7.645 1.477,-7.645 l 4.23,-1.984 c 0.829,5.168 -0.5,6.488 -0.629,6.601 l 0.497,-0.304 c 1.535,-3.539 0.859,-7.211 0.859,-7.211 2.973,-0.942 6.418,-0.629 6.418,-0.629 0.258,1.402 -0.664,3.351 -0.664,3.351 2.445,-1.687 5.078,-3.562 5.242,-3.914 l -0.922,-3.343"
             style="fill:#5e0d00;fill-opacity:1;fill-rule:nonzero;stroke:none"
             id="path72" />
          <path
             d="m 108.664,178.801 c 0,0 2.086,12.269 5.586,14.543 0,0 4.199,-1.313 5.684,-4.285 1.488,-2.977 -1.321,-5.086 -1.321,-5.086 0,0 2.141,1.992 1.321,4.179 -0.414,1.114 -2.125,0.934 -2.125,0.934 0,0 -6.477,-6.012 -8.606,-10.5 l -0.539,0.215"
             style="fill:#5e0d00;fill-opacity:1;fill-rule:nonzero;stroke:none"
             id="path74" />
          <path
             d="m 97.3164,178.219 c 0,0 -1.7187,6.726 -4.6797,14.511 l -3.3711,-1.312 -0.7929,-2.309 1.0546,1.61 7.211,-12.774 0.5781,0.274"
             style="fill:#5e0d00;fill-opacity:1;fill-rule:nonzero;stroke:none"
             id="path76" />
          <path
             d="m 115.355,175.402 c 0,0 11.696,-1.769 16.536,-5.324 3.382,-2.488 -1.024,-12.586 -1.024,-12.586 l -1.527,0.438 c 0,0 2.863,7.39 0.625,10.742 -1.457,2.18 -6.004,5.387 -11.387,5.078 l -3.223,1.652"
             style="fill:#5e0d00;fill-opacity:1;fill-rule:nonzero;stroke:none"
             id="path78" />
          <path
             d="m 80.3164,158.496 c 0,0 -6.7383,4.758 -7.1758,7.953 -0.4375,3.192 5.5977,2.375 5.5977,2.375 l 0.6406,0.496 c 0,0 -7.2461,0.977 -8.9101,-2.566 -1.6602,-3.543 8.5117,-8.875 8.5117,-8.875 l 1.3359,0.617"
             style="fill:#5e0d00;fill-opacity:1;fill-rule:nonzero;stroke:none"
             id="path80" />
          <path
             d="m 84.3789,159.609 c 0,0 -4.8516,9.797 -1.7031,13.207 3.1484,3.414 9.9609,2.84 9.9609,2.84 0,0 -6.9883,-0.113 -9,-4.004 -2.0117,-3.89 2.8867,-12.043 2.8867,-12.043 h -2.1445"
             style="fill:#5e0d00;fill-opacity:1;fill-rule:nonzero;stroke:none"
             id="path82" />
        </g>
      </g>
      <g
         id="g84">
        <g
           id="g86"
           clip-path="url(#clipPath90)">
          <g
             id="g92"
             clip-path="url(#clipPath96)">
            <path
               d="m 121,111 v 1 h -5 v 2 h -1 v 2 h 2 v 1 h 1 v 1 h 2 v -2 h 1 v -2 h 2 v -1 h 3 v 1 h 1 v 1 h 1 v 1 h 1 v 3 h -1 v 1 h 3 v 1 h -1 v 1 h 2 v -1 h 2 v -1 h 1 v -4 h -1 v -1 h -1 v -1 h -1 v -1 h -2 v -1 h -5 v -1"
               style="fill:url(#linearGradient104);fill-opacity:1;fill-rule:nonzero;stroke:none"
               id="path106" />
          </g>
        </g>
      </g>
      <g
         id="g108">
        <g
           id="g110"
           clip-path="url(#clipPath114)">
          <path
             d="m 129.281,116.895 c -0.297,-2.723 -2.742,-4.696 -5.468,-4.403 -2.723,0.297 -4.696,2.742 -4.403,5.469 0.293,2.723 2.742,4.695 5.469,4.402 2.723,-0.297 4.695,-2.742 4.402,-5.468"
             style="fill:#00467f;fill-opacity:1;fill-rule:nonzero;stroke:none"
             id="path116" />
          <path
             d="m 128.992,116.926 c -0.277,-2.567 -2.582,-4.422 -5.148,-4.145 -2.567,0.278 -4.422,2.582 -4.145,5.149 0.278,2.566 2.582,4.422 5.149,4.144 2.562,-0.277 4.422,-2.582 4.144,-5.148"
             style="fill:#1c77e5;fill-opacity:1;fill-rule:nonzero;stroke:none"
             id="path118" />
          <path
             d="m 127.359,117.102 c -0.179,-1.664 -1.675,-2.868 -3.339,-2.688 -1.665,0.18 -2.868,1.676 -2.688,3.34 0.18,1.664 1.676,2.867 3.34,2.687 1.664,-0.179 2.867,-1.675 2.687,-3.339"
             style="fill:#00467f;fill-opacity:1;fill-rule:nonzero;stroke:none"
             id="path120" />
          <path
             d="m 115.641,114.766 c 0,0 2.23,8.593 9.535,8.125 5.683,-0.368 8.543,-3.348 8.543,-3.348 0,0 -4.664,2.82 -9.758,1.957 -5.094,-0.863 -8.32,-6.734 -8.32,-6.734"
             style="fill:#ff8980;fill-opacity:1;fill-rule:nonzero;stroke:none"
             id="path122" />
          <path
             d="m 115.93,115.207 0.898,-2.695 -1.93,0.734 1.032,1.961"
             style="fill:#ff8980;fill-opacity:1;fill-rule:nonzero;stroke:none"
             id="path124" />
          <path
             d="m 117.566,112.449 c 0,0 5.84,-1.578 9.551,-0.535 5.071,1.426 6.93,4.77 6.93,4.77 0,0 -2.535,-3.465 -7.285,-4.481 -3.617,-0.777 -9.196,0.246 -9.196,0.246"
             style="fill:#ff8980;fill-opacity:1;fill-rule:nonzero;stroke:none"
             id="path126" />
          <path
             d="m 128.801,117.199 c -0.41,-0.222 1.152,-0.66 2.437,-0.469 1.149,0.172 1.813,0.735 1.739,0.875 -0.071,0.141 -2.559,0.477 -4.176,-0.406"
             style="fill:#ffffff;fill-opacity:1;fill-rule:nonzero;stroke:none"
             id="path128" />
          <path
             d="m 127.832,117.105 -1.062,-0.089 0.691,-0.618 0.371,0.707"
             style="fill:#ffffff;fill-opacity:1;fill-rule:nonzero;stroke:none"
             id="path130" />
          <path
             d="m 117.805,117.711 c 0.593,0.66 1.297,1.34 2.101,1.945 0.004,0 0.004,0.004 0.004,0.004 -0.031,-0.062 -0.058,-0.121 -0.086,-0.183 -0.746,-0.551 -1.426,-1.153 -2.019,-1.766 m 16.558,0.746 c -0.015,0.004 -0.031,0.012 -0.047,0.016 -0.015,0.066 -0.035,0.132 -0.054,0.199 l 0.101,-0.215"
             style="fill:#ff806f;fill-opacity:1;fill-rule:nonzero;stroke:none"
             id="path132" />
        </g>
      </g>
      <g
         id="g134">
        <g
           id="g136"
           clip-path="url(#clipPath140)">
          <g
             id="g142"
             clip-path="url(#clipPath146)">
            <path
               d="m 115,115 v 1 h 1 v 1 h 1 v 1 h 1 v 1 h 1 v 1 h 1 v -3 h -1 v -1 h -1 v -1 z m 17,3 v 1 h -4 v 1 h -1 v 2 h 4 v -1 h 2 v -1 h 2 v -2"
               style="fill:url(#linearGradient154);fill-opacity:1;fill-rule:nonzero;stroke:none"
               id="path156" />
          </g>
        </g>
      </g>
      <g
         id="g158">
        <g
           id="g160"
           clip-path="url(#clipPath164)">
          <path
             d="m 119.383,117.344 c -0.004,0.203 0.004,0.41 0.027,0.617 0.059,0.539 0.199,1.047 0.414,1.516 0.028,0.062 0.055,0.121 0.086,0.183 0.184,0.129 0.367,0.258 0.563,0.383 -0.414,-0.609 -0.688,-1.328 -0.774,-2.113 -0.015,-0.149 -0.023,-0.297 -0.027,-0.446 -0.098,-0.046 -0.195,-0.093 -0.289,-0.14 m 9.449,2.207 c -0.109,0 -0.219,0.004 -0.324,0.004 -0.469,0.914 -1.231,1.66 -2.176,2.105 0.223,-0.008 0.445,-0.019 0.668,-0.035 0.797,-0.508 1.43,-1.227 1.832,-2.074"
             style="fill:#003a66;fill-opacity:1;fill-rule:nonzero;stroke:none"
             id="path166" />
          <path
             d="m 119.672,117.484 c 0.004,0.149 0.012,0.297 0.027,0.446 0.086,0.785 0.36,1.504 0.774,2.113 1.289,0.828 2.84,1.469 4.644,1.594 0.063,0.004 0.121,0.008 0.184,0.011 0.015,0 0.035,0 0.051,0 0.113,0.008 0.222,0.012 0.336,0.012 0.089,0.004 0.179,0.004 0.269,0.004 0.125,0 0.25,0 0.375,-0.004 0.945,-0.445 1.707,-1.191 2.176,-2.105 -0.063,0 -0.125,0.004 -0.184,0.004 -0.594,0 -1.172,-0.032 -1.738,-0.086 -0.481,0.527 -1.148,0.886 -1.914,0.968 -0.113,0.012 -0.223,0.02 -0.328,0.02 -1.367,0 -2.563,-0.922 -2.922,-2.223 -0.629,-0.238 -1.211,-0.496 -1.75,-0.754"
             style="fill:#1c63b7;fill-opacity:1;fill-rule:nonzero;stroke:none"
             id="path168" />
          <path
             d="m 121.422,118.238 c 0.359,1.301 1.555,2.223 2.922,2.223 0.105,0 0.215,-0.008 0.328,-0.02 0.766,-0.082 1.433,-0.441 1.914,-0.968 -1.914,-0.188 -3.664,-0.664 -5.164,-1.235"
             style="fill:#003a66;fill-opacity:1;fill-rule:nonzero;stroke:none"
             id="path170" />
          <path
             d="m 116.207,115.672 c 0.523,0.824 1.773,2.586 3.699,3.984 -0.804,-0.605 -1.508,-1.285 -2.101,-1.945 -0.692,-0.762 -1.231,-1.496 -1.598,-2.039 m 15.965,4.637 c -1.223,0.523 -3.07,1.148 -5.172,1.316 -0.223,0.016 -0.445,0.027 -0.668,0.035 -0.125,0.004 -0.25,0.004 -0.375,0.004 -0.09,0 -0.18,0 -0.269,-0.004 0.148,0.004 0.292,0.008 0.437,0.008 2.742,0 4.734,-0.676 6.047,-1.359 m -7.055,1.328 c 0.063,0.004 0.121,0.008 0.184,0.011 -0.063,-0.003 -0.121,-0.007 -0.184,-0.011"
             style="fill:#ff7267;fill-opacity:1;fill-rule:nonzero;stroke:none"
             id="path172" />
          <path
             d="m 115.641,114.766 c 0,0 2.613,5.726 9.504,6.277 6.363,0.512 9.015,-2.156 9.015,-2.156 l 0.551,0.851 c 0,0 -2.906,2.364 -10.32,2.711 -6.18,0.289 -8.75,-7.683 -8.75,-7.683"
             style="fill:#701800;fill-opacity:1;fill-rule:nonzero;stroke:none"
             id="path174" />
        </g>
      </g>
      <g
         id="g176">
        <g
           id="g178"
           clip-path="url(#clipPath182)">
          <g
             id="g184"
             clip-path="url(#clipPath188)">
            <path
               d="m 84,111 v 1 h -5 v 1 h -2 v 1 h -1 v 1 h -1 v 1 h -1 v 4 h 1 v 1 h 2 v 1 h 2 v -1 h -1 v -1 h 3 v -2 h -1 v -2 h 1 v -1 h 1 v -1 h 1 v -1 h 3 v 1 h 2 v 2 h 1 v 2 h 2 v -1 h 2 v -1 h 1 v -2 h -1 v -2 h -5 v -1"
               style="fill:url(#linearGradient196);fill-opacity:1;fill-rule:nonzero;stroke:none"
               id="path198" />
          </g>
        </g>
      </g>
      <g
         id="g200">
        <g
           id="g202"
           clip-path="url(#clipPath206)">
          <path
             d="m 79.793,116.895 c 0.2929,-2.723 2.7422,-4.696 5.4648,-4.403 2.7266,0.297 4.6992,2.742 4.4024,5.469 -0.293,2.723 -2.7422,4.695 -5.4649,4.402 -2.7265,-0.297 -4.6953,-2.742 -4.4023,-5.468"
             style="fill:#00467f;fill-opacity:1;fill-rule:nonzero;stroke:none"
             id="path208" />
          <path
             d="m 80.082,116.926 c 0.2774,-2.567 2.5821,-4.422 5.1446,-4.145 2.5664,0.278 4.4218,2.582 4.1445,5.149 -0.2734,2.566 -2.5781,4.422 -5.1445,4.144 -2.5664,-0.277 -4.4219,-2.582 -4.1446,-5.148"
             style="fill:#1c77e5;fill-opacity:1;fill-rule:nonzero;stroke:none"
             id="path210" />
          <path
             d="m 81.7109,117.102 c 0.1797,-1.664 1.6758,-2.868 3.3399,-2.688 1.668,0.18 2.8711,1.676 2.6914,3.34 -0.1797,1.664 -1.6758,2.867 -3.3399,2.687 -1.664,-0.179 -2.871,-1.675 -2.6914,-3.339"
             style="fill:#00467f;fill-opacity:1;fill-rule:nonzero;stroke:none"
             id="path212" />
          <path
             d="m 93.4297,114.766 c 0,0 -2.2305,8.593 -9.5313,8.125 -5.6836,-0.368 -8.5429,-3.348 -8.5429,-3.348 0,0 4.6601,2.82 9.7539,1.957 5.0937,-0.863 8.3203,-6.734 8.3203,-6.734"
             style="fill:#ff8980;fill-opacity:1;fill-rule:nonzero;stroke:none"
             id="path214" />
          <path
             d="m 93.1406,115.207 -0.8984,-2.695 1.9336,0.734 -1.0352,1.961"
             style="fill:#ff8980;fill-opacity:1;fill-rule:nonzero;stroke:none"
             id="path216" />
          <path
             d="m 91.5078,112.449 c 0,0 -5.8437,-1.578 -9.5547,-0.535 -5.0664,1.426 -6.9258,4.77 -6.9258,4.77 0,0 2.5352,-3.465 7.2852,-4.481 3.6172,-0.777 9.1953,0.246 9.1953,0.246"
             style="fill:#ff8980;fill-opacity:1;fill-rule:nonzero;stroke:none"
             id="path218" />
          <path
             d="m 80.2734,117.199 c 0.4102,-0.222 -1.1523,-0.66 -2.4375,-0.469 -1.1523,0.172 -1.8164,0.735 -1.7421,0.875 0.0742,0.141 2.5625,0.477 4.1796,-0.406"
             style="fill:#ffffff;fill-opacity:1;fill-rule:nonzero;stroke:none"
             id="path220" />
          <path
             d="m 81.2383,117.105 1.0664,-0.089 -0.6953,-0.618 -0.3711,0.707"
             style="fill:#ffffff;fill-opacity:1;fill-rule:nonzero;stroke:none"
             id="path222" />
          <path
             d="m 91.2695,117.715 c -0.5937,0.609 -1.2734,1.211 -2.0195,1.762 -0.0273,0.062 -0.0586,0.121 -0.0898,0.183 0.0039,0 0.0039,-0.004 0.0039,-0.004 0.8047,-0.605 1.5117,-1.285 2.1054,-1.941 m -16.5586,0.742 0.1016,0.215 c -0.0234,-0.067 -0.043,-0.133 -0.0586,-0.199 -0.0117,-0.004 -0.0273,-0.012 -0.043,-0.016"
             style="fill:#ff806f;fill-opacity:1;fill-rule:nonzero;stroke:none"
             id="path224" />
        </g>
      </g>
      <g
         id="g226">
        <g
           id="g228"
           clip-path="url(#clipPath232)">
          <g
             id="g234"
             clip-path="url(#clipPath238)">
            <path
               d="m 92,115 v 1 h -2 v 1 h -1 v 3 h 1 v -1 h 1 v -1 h 1 v -1 h 1 v -1 h 1 v -1 z m -18,3 v 1 h 1 v 1 h 1 v 1 h 2 v 1 h 5 v -1 h -1 v -1 h -1 v -1 h -3 v -1"
               style="fill:url(#linearGradient246);fill-opacity:1;fill-rule:nonzero;stroke:none"
               id="path248" />
          </g>
        </g>
      </g>
      <g
         id="g250">
        <g
           id="g252"
           clip-path="url(#clipPath256)">
          <path
             d="m 89.6914,117.344 c -0.0976,0.047 -0.1953,0.094 -0.293,0.14 0,0.149 -0.0078,0.297 -0.0273,0.446 -0.082,0.785 -0.3555,1.504 -0.7695,2.113 0.1914,-0.125 0.3789,-0.254 0.5586,-0.383 0.0312,-0.062 0.0625,-0.121 0.0898,-0.183 0.2109,-0.469 0.3516,-0.977 0.4102,-1.516 0.0234,-0.207 0.0312,-0.414 0.0312,-0.617 m -9.4531,2.207 c 0.4023,0.847 1.039,1.566 1.8359,2.074 0.2188,0.016 0.4414,0.027 0.668,0.035 -0.9453,-0.445 -1.707,-1.191 -2.1758,-2.105 -0.1094,0 -0.2187,-0.004 -0.3281,-0.004"
             style="fill:#003a66;fill-opacity:1;fill-rule:nonzero;stroke:none"
             id="path258" />
          <path
             d="m 89.3984,117.484 c -0.5351,0.258 -1.1211,0.516 -1.75,0.754 -0.3593,1.301 -1.5546,2.223 -2.9179,2.223 -0.1094,0 -0.2188,-0.008 -0.3282,-0.02 -0.7656,-0.082 -1.4335,-0.441 -1.914,-0.968 -0.5664,0.054 -1.1445,0.086 -1.7383,0.086 -0.0625,0 -0.1211,-0.004 -0.1836,-0.004 0.4688,0.914 1.2305,1.66 2.1758,2.105 0.1211,0.004 0.2461,0.004 0.3711,0.004 0.0898,0 0.1797,0 0.2734,-0.004 0.1094,0 0.2188,-0.004 0.3321,-0.012 0.0195,0 0.0351,0 0.0546,0 0.0586,-0.003 0.1211,-0.007 0.1797,-0.011 1.8047,-0.125 3.3594,-0.766 4.6485,-1.594 0.414,-0.609 0.6875,-1.328 0.7695,-2.113 0.0195,-0.149 0.0273,-0.297 0.0273,-0.446"
             style="fill:#1c63b7;fill-opacity:1;fill-rule:nonzero;stroke:none"
             id="path260" />
          <path
             d="m 87.6484,118.238 c -1.5,0.571 -3.2461,1.047 -5.1601,1.235 0.4805,0.527 1.1484,0.886 1.914,0.968 0.1094,0.012 0.2188,0.02 0.3282,0.02 1.3633,0 2.5586,-0.922 2.9179,-2.223"
             style="fill:#003a66;fill-opacity:1;fill-rule:nonzero;stroke:none"
             id="path262" />
          <path
             d="m 92.8633,115.672 c -0.3672,0.547 -0.9063,1.277 -1.5938,2.043 -0.5937,0.656 -1.3007,1.336 -2.1054,1.941 1.9257,-1.398 3.1757,-3.156 3.6992,-3.984 m -15.9649,4.637 c 1.3125,0.683 3.3047,1.359 6.0469,1.359 0.1445,0 0.293,-0.004 0.4414,-0.008 -0.0937,0.004 -0.1836,0.004 -0.2734,0.004 -0.125,0 -0.25,0 -0.3711,-0.004 -0.2266,-0.008 -0.4492,-0.019 -0.668,-0.035 -2.1054,-0.168 -3.9531,-0.793 -5.1758,-1.316 m 7.0547,1.328 c -0.0586,0.004 -0.1211,0.008 -0.1797,0.011 0.0586,-0.003 0.1211,-0.007 0.1797,-0.011"
             style="fill:#ff7267;fill-opacity:1;fill-rule:nonzero;stroke:none"
             id="path264" />
          <path
             d="m 93.4297,114.766 c 0,0 -2.6094,5.726 -9.5039,6.277 -6.3594,0.512 -9.0117,-2.156 -9.0117,-2.156 l -0.5508,0.851 c 0,0 2.9023,2.364 10.3203,2.711 6.1758,0.289 8.7461,-7.683 8.7461,-7.683"
             style="fill:#701800;fill-opacity:1;fill-rule:nonzero;stroke:none"
             id="path266" />
          <path
             d="m 136.926,128.164 c 0,0 -2.672,4.606 -5.36,4.746 l -2.101,-0.164 c -5.785,-0.949 -16.36,-5.453 -16.36,-5.453 0,0 -1.746,4.555 -1.558,6.414 l 0.609,0.27 1.035,-3.286 -0.074,3.719 c 0,0 8.422,1.274 13.875,2.063 v 0.007 l 0.906,0.129 h 0.008 l 1.739,0.25 h 0.003 c 1.122,0.161 1.84,0.25 1.883,0.243 l 0.774,-0.25 -0.297,0.8 c 0,0 2.836,-2.957 4.918,-9.488"
             style="fill:#701800;fill-opacity:1;fill-rule:nonzero;stroke:none"
             id="path268" />
          <path
             d="m 136.926,128.164 c 0,0 -2.672,4.606 -5.36,4.746 l -2.101,-0.164 -2.473,3.727 v 0.007 l 0.906,0.129 h 0.008 c 1.481,-0.257 5.606,-3.226 5.606,-3.226 -1.137,2.203 -3.719,3.406 -3.864,3.476 1.122,0.161 1.84,0.25 1.883,0.243 l 0.774,-0.25 -0.297,0.8 c 0,0 2.836,-2.957 4.918,-9.488"
             style="fill:#5e0d00;fill-opacity:1;fill-rule:nonzero;stroke:none"
             id="path270" />
          <path
             d="m 72.1484,128.164 c 0,0 2.668,4.606 5.3555,4.746 l 2.1055,-0.164 c 5.7812,-0.949 16.3554,-5.453 16.3554,-5.453 0,0 1.75,4.555 1.5586,6.414 l -0.6054,0.27 -1.0391,-3.286 0.0781,3.719 c 0,0 -8.4257,1.274 -13.8789,2.063 v 0.007 l -0.9062,0.129 H 81.168 l -1.7383,0.25 h -0.0078 c -1.1211,0.161 -1.836,0.25 -1.8828,0.243 l -0.7735,-0.25 0.2969,0.8 c 0,0 -2.8359,-2.957 -4.9141,-9.488"
             style="fill:#701800;fill-opacity:1;fill-rule:nonzero;stroke:none"
             id="path272" />
          <path
             d="m 72.1484,128.164 c 0,0 2.668,4.606 5.3555,4.746 l 2.1055,-0.164 2.4687,3.727 v 0.007 l -0.9062,0.129 H 81.168 c -1.4844,-0.257 -5.6094,-3.226 -5.6094,-3.226 1.1406,2.203 3.7187,3.406 3.8633,3.476 -1.1211,0.161 -1.836,0.25 -1.8828,0.243 l -0.7735,-0.25 0.2969,0.8 c 0,0 -2.8359,-2.957 -4.9141,-9.488"
             style="fill:#5e0d00;fill-opacity:1;fill-rule:nonzero;stroke:none"
             id="path274" />
          <path
             d="m 94.8555,94.4688 c 0,0 -2.5469,13.1132 9.4685,13.1132 12.02,0 10.008,-12.8984 10.008,-12.8984 l -0.535,-0.2148 c 0,0 -3.281,-2.4375 -9.473,-2.4375 -6.1873,0 -9.4685,2.4375 -9.4685,2.4375"
             style="fill:#ffa697;fill-opacity:1;fill-rule:nonzero;stroke:none"
             id="path276" />
          <path
             d="m 104.324,92.0313 v 0 c -1.894,0.0156 -3.5,0.6914 -5.0506,1.3281 -0.25,0.2187 -0.4961,0.4062 -0.7343,0.5664 1.4531,-0.1367 3.3439,-0.2461 5.6719,-0.2461 2.269,0 4.211,0.1172 5.742,0.2617 -0.48,-0.332 -0.734,-0.6445 -0.734,-0.6484 -1.504,-0.6172 -3.063,-1.2461 -4.895,-1.2617 v 0 m -9.4568,2.4335 c -0.0078,0 -0.0117,0.004 -0.0117,0.004 l 0.0117,-0.004"
             style="fill:#ff9584;fill-opacity:1;fill-rule:nonzero;stroke:none"
             id="path278" />
          <path
             d="m 109.219,93.293 c 0,0 1.621,2.0429 4.578,1.1758 l -4.578,-1.1758"
             style="fill:#af4537;fill-opacity:1;fill-rule:nonzero;stroke:none"
             id="path280" />
          <path
             d="m 94.8555,94.4688 c 0,0 1.8906,1.1015 4.4179,-1.1094 l -4.4179,1.1094"
             style="fill:#af4537;fill-opacity:1;fill-rule:nonzero;stroke:none"
             id="path282" />
          <path
             d="m 94.8555,94.4688 c -1.0196,5.1171 0.8789,8.4062 1.0156,8.6362 -1.9531,-3.7925 -1.0195,-8.6206 -1.0156,-8.6362"
             style="fill:#ff9584;fill-opacity:1;fill-rule:nonzero;stroke:none"
             id="path284" />
          <path
             d="m 94.8555,94.4688 v 0 0 0 c -0.0039,0.0156 -0.9375,4.8437 1.0156,8.6362 0.0039,0.008 0.0078,0.012 0.0078,0.012 -0.8086,-3.9295 -1.0234,-8.6482 -1.0234,-8.6482 v 0 0"
             style="fill:#ff9584;fill-opacity:1;fill-rule:nonzero;stroke:none"
             id="path286" />
          <path
             d="m 114.332,94.6836 v 0 c 0,0 0.371,2.3789 -0.156,5.0937 0.316,-1.3906 0.5,-3.164 0.156,-5.0937"
             style="fill:#ff9584;fill-opacity:1;fill-rule:nonzero;stroke:none"
             id="path288" />
          <path
             d="m 114.332,94.6836 c 0,0 -0.281,4.0391 -1.223,8.0824 0,0 0.649,-1.168 1.067,-2.9887 0.527,-2.7148 0.156,-5.0937 0.156,-5.0937 v 0"
             style="fill:#ff9584;fill-opacity:1;fill-rule:nonzero;stroke:none"
             id="path290" />
          <path
             d="m 108.406,97.1719 1.133,1.2734 v -1.6914 z"
             style="fill:#ffccb8;fill-opacity:1;fill-rule:nonzero;stroke:none"
             id="path292" />
          <path
             d="m 97.8789,95.3281 c -0.9258,5.2499 -2,7.7889 -2,7.7889 l 0.8867,1.371 c 2.2852,-3.965 1.1133,-9.1599 1.1133,-9.1599"
             style="fill:#ff9584;fill-opacity:1;fill-rule:nonzero;stroke:none"
             id="path294" />
          <path
             d="m 113.09,102.949 c -0.067,0.121 -0.133,0.246 -0.203,0.367 l 0.222,-0.32 c 0,0 -0.004,-0.016 -0.019,-0.047"
             style="fill:#ff9584;fill-opacity:1;fill-rule:nonzero;stroke:none"
             id="path296" />
          <path
             d="m 111.09,95.3281 c 0,0 -1.32,5.1949 0.969,9.1599 l 0.828,-1.172 c 0.07,-0.121 0.136,-0.246 0.203,-0.367 -0.156,-0.363 -1.149,-2.797 -2,-7.6209"
             style="fill:#ff9584;fill-opacity:1;fill-rule:nonzero;stroke:none"
             id="path298" />
          <path
             d="m 89.2461,83.3906 c 3.2109,-0.7539 5.8906,-0.3867 8.3594,-0.0156 2.3437,0.3516 4.4965,0.7031 6.7345,0.0898 v -3.8046 c 0,0 -5.883,0.3593 -9.7775,1.2929 -3.8906,0.9336 -5.3164,2.4375 -5.3164,2.4375"
             style="fill:#ff7e78;fill-opacity:1;fill-rule:nonzero;stroke:none"
             id="path300" />
          <path
             d="m 88.6797,83.6445 c 0,0 4.7383,-6.2578 7.1875,-7.9336 5.8828,-4.0195 11.7698,-2.6718 15.4878,-0.6718 2.754,1.4765 8.262,8.6054 8.262,8.6054 0,0 -6.254,-3.914 -16.262,-3.914 -8.0581,0 -14.6753,3.914 -14.6753,3.914"
             style="fill:#ff7e78;fill-opacity:1;fill-rule:nonzero;stroke:none"
             id="path302" />
          <path
             d="m 118.684,83.3945 c -3.211,-0.7578 -5.774,-0.3867 -8.129,-0.0195 -2.239,0.3516 -4.285,0.7031 -6.524,0.0898 v -3.8046 c 0,0 5.879,0.3593 9.774,1.2929 3.894,0.9336 4.879,2.4414 4.879,2.4414"
             style="fill:#ff7e78;fill-opacity:1;fill-rule:nonzero;stroke:none"
             id="path304" />
          <path
             d="m 87.6523,84.375 c 0,0 6.5547,-4.4648 17.2497,-4.4648 10.536,0 16.52,5.2031 16.52,5.2031 0,0 -6.395,-5.7383 -16.629,-5.7383 -10.2383,0 -17.1407,5 -17.1407,5"
             style="fill:#af4537;fill-opacity:1;fill-rule:nonzero;stroke:none"
             id="path306" />
          <path
             d="m 110.895,76.082 -1.645,1.8555 c 2.32,1.1016 5.055,2.7148 5.055,2.7148 l 1.136,-0.6718 c -2.316,-2.8828 -4.546,-3.8985 -4.546,-3.8985"
             style="fill:#ff9d90;fill-opacity:1;fill-rule:nonzero;stroke:none"
             id="path308" />
        </g>
      </g>
      <path
         d="m 137.313,76.3984 c -3.137,-3.5312 -8.125,-7.2421 -11.504,-10.7226 -1.278,-1.3125 -2.602,-2.4336 -3.852,-3.3633 l -0.019,-0.0117 c -2.508,-1.8633 -4.747,-2.9844 -5.805,-3.4141 -3.219,-1.3242 -11.57,-1.3945 -11.57,-1.3945 0,0 -8.3482,0.0703 -11.5708,1.3945 -1.5899,0.6485 -5.8242,2.8321 -9.6719,6.7891 -3.9922,4.1133 -10.2461,8.2539 -13,12.9062 0,0 4.5156,-4.4922 9.3047,-8.4726 4.7891,-3.9727 12.7305,-11.5508 24.938,-11.5508 12.203,0 21.355,9.0547 23.257,10.4375 1.875,1.3555 9.243,7.207 9.493,7.4023"
         style="fill:#ff8c83;fill-opacity:1;fill-rule:nonzero;stroke:none"
         id="path310" />
    </g>
  </g>
</svg>
