<?xml version="1.0" encoding="UTF-8" standalone="no"?>
<!-- Created with Inkscape (http://www.inkscape.org/) -->

<svg
   version="1.1"
   id="svg2"
   width="26.16"
   height="28"
   viewBox="0 0 26.16 28"
   sodipodi:docname="father.eps"
   xmlns:inkscape="http://www.inkscape.org/namespaces/inkscape"
   xmlns:sodipodi="http://sodipodi.sourceforge.net/DTD/sodipodi-0.dtd"
   xmlns="http://www.w3.org/2000/svg"
   xmlns:svg="http://www.w3.org/2000/svg">
  <defs
     id="defs6" />
  <sodipodi:namedview
     id="namedview4"
     pagecolor="#ffffff"
     bordercolor="#000000"
     borderopacity="0.25"
     inkscape:showpageshadow="2"
     inkscape:pageopacity="0.0"
     inkscape:pagecheckerboard="0"
     inkscape:deskcolor="#d1d1d1" />
  <g
     id="g8"
     inkscape:groupmode="layer"
     inkscape:label="ink_ext_XXXXXX"
     transform="matrix(1.3333333,0,0,-1.3333333,0,28)">
    <g
       id="g10"
       transform="scale(0.1)">
      <path
         d="m 141.406,35.5859 c -3.148,0 -5.715,-2.5664 -5.715,-5.7148 V 11.4336 H 60.4805 v 18.4375 c 0,3.1484 -2.5625,5.7148 -5.7149,5.7148 -3.1562,0 -5.7226,-2.5664 -5.7226,-5.7148 V 11.4336 H 11.4336 v 18.9961 c 0,33.125 29.0234,44.8828 53.8789,44.8828 h 1.1289 c 20.9883,-14.7812 42.2816,-14.7812 63.2926,0 h 1.121 c 24.86,0 53.883,-11.7578 53.883,-44.8828 V 11.4336 h -37.613 v 18.4375 c 0,3.1484 -2.57,5.7148 -5.719,5.7148 z m -10.551,51.1602 h -2.964 c -1.239,0 -2.418,-0.3906 -3.407,-1.1211 -17.773,-13.1289 -35.0504,-13.1094 -52.7965,-0.0117 -0.9844,0.7422 -2.1602,1.1328 -3.3984,1.1328 H 65.3125 C 26.2461,86.7461 0,64.1172 0,30.4297 V 5.71875 C 0,2.56641 2.5625,0 5.71875,0 H 190.453 c 3.149,0 5.719,2.56641 5.719,5.71875 V 30.4297 c 0,33.6875 -26.246,56.3164 -65.317,56.3164"
         style="fill:#000000;fill-opacity:1;fill-rule:nonzero;stroke:none"
         id="path12" />
      <path
         d="m 115.566,134.297 c 4.063,0 7.356,4.031 7.356,9 0,4.969 -3.293,8.996 -7.356,8.996 -4.058,0 -7.351,-4.027 -7.351,-8.996 0,-4.969 3.293,-9 7.351,-9"
         style="fill:#000000;fill-opacity:1;fill-rule:nonzero;stroke:none"
         id="path14" />
      <path
         d="m 80.6016,134.297 c 4.0625,0 7.3554,4.031 7.3554,9 0,4.969 -3.2929,8.996 -7.3554,8.996 -4.0586,0 -7.3516,-4.027 -7.3516,-8.996 0,-4.969 3.293,-9 7.3516,-9"
         style="fill:#000000;fill-opacity:1;fill-rule:nonzero;stroke:none"
         id="path16" />
      <path
         d="m 79.5156,121.207 c -1.5508,-1.941 -1.2343,-4.773 0.7032,-6.328 5.8476,-4.676 11.8593,-7.012 17.8671,-7.012 6.0081,0 12.0191,2.336 17.8631,7.012 1.942,1.555 2.258,4.387 0.707,6.328 -1.558,1.938 -4.383,2.258 -6.332,0.703 -8.344,-6.683 -16.1326,-6.683 -24.4763,0 -1.9454,1.551 -4.7696,1.231 -6.3321,-0.703"
         style="fill:#000000;fill-opacity:1;fill-rule:nonzero;stroke:none"
         id="path18" />
      <path
         d="m 62.2891,162.051 c 7.0429,-0.535 16.4453,0.769 22.9297,7.445 7.8593,-6.297 20.1872,-9.039 33.0622,-9.039 4.895,0 9.813,0.523 14.649,1.273 v -37.304 c 0,-16.106 -13.098,-29.2033 -29.2,-29.2033 H 91.4883 c -16.1016,0 -29.1992,13.0973 -29.1992,29.2033 z m 75.9689,10.504 c -21.184,-5.078 -42.965,-1.879 -49.6057,7.289 -0.9179,1.269 -2.3867,2.011 -3.9414,2.011 -0.1054,0 -0.2148,-0.003 -0.3242,-0.011 -1.6679,-0.114 -3.1679,-1.074 -3.9609,-2.547 -4.1289,-7.664 -13.2461,-7.91 -18.1367,-7.43 v 10.199 c 0,5.196 4.2109,9.407 9.4062,9.407 h 48.5667 c 0.051,0 0.097,0.027 0.152,0.031 16.809,0.012 27.07,2.059 33.32,4.453 -0.828,-8.484 -4.043,-20.66 -15.476,-23.402 z M 91.4922,85.4805 H 103.73 c 21.508,0 38.942,17.4335 38.942,38.9415 v 39.359 c 23.683,7.633 21.058,40.125 20.93,41.551 -0.204,2.164 -1.668,4.168 -3.805,4.57 -2.106,0.395 -4.141,-0.422 -5.121,-2.359 -0.047,-0.066 -5.516,-6.301 -34.414,-6.301 H 67.1445 c -2.6914,0 -14.5976,-3.094 -14.5976,-13.695 V 167.82 124.426 c 0,-21.508 17.4375,-38.9455 38.9453,-38.9455"
         style="fill:#000000;fill-opacity:1;fill-rule:nonzero;stroke:none"
         id="path20" />
    </g>
  </g>
</svg>
