<?xml version="1.0" encoding="UTF-8" standalone="no"?>
<!-- Created with Inkscape (http://www.inkscape.org/) -->

<svg
   version="1.1"
   id="svg2"
   width="19.16"
   height="28"
   viewBox="0 0 19.16 28"
   sodipodi:docname="foot.eps"
   xmlns:inkscape="http://www.inkscape.org/namespaces/inkscape"
   xmlns:sodipodi="http://sodipodi.sourceforge.net/DTD/sodipodi-0.dtd"
   xmlns="http://www.w3.org/2000/svg"
   xmlns:svg="http://www.w3.org/2000/svg">
  <defs
     id="defs6" />
  <sodipodi:namedview
     id="namedview4"
     pagecolor="#ffffff"
     bordercolor="#000000"
     borderopacity="0.25"
     inkscape:showpageshadow="2"
     inkscape:pageopacity="0.0"
     inkscape:pagecheckerboard="0"
     inkscape:deskcolor="#d1d1d1" />
  <g
     id="g8"
     inkscape:groupmode="layer"
     inkscape:label="ink_ext_XXXXXX"
     transform="matrix(1.3333333,0,0,-1.3333333,0,28)">
    <g
       id="g10"
       transform="scale(0.1)">
      <path
         d="m 61.9414,46.082 c 1.4336,-4.2617 1.668,-8.9297 0.6758,-13.5117 -1.8477,-8.4844 -8.4805,-15.6992 -16.8867,-18.3594 -8.0117,-2.5039 -16.3477,-1.0078 -22.875,4.1563 -6.7149,5.2891 -10.3789,13.3594 -9.7969,21.5703 0.2148,3 0.9453,5.8945 2.1836,8.6016 1.8398,4.039 3.9101,8.7773 5.1992,13.832 1.0156,3.9727 1.7188,7.0781 2.0977,9.2422 2.5039,14.2422 1.4765,29.4377 -3.1485,46.4527 -1.0117,3.719 -1.4101,7.598 -1.1797,11.52 0.5625,9.82 4.9688,18.766 12.4141,25.191 6.6367,5.727 14.75,8.75 23.4688,8.75 1.082,0 2.1835,-0.047 3.2773,-0.144 18.6523,-1.649 34.2266,-20.176 32.6602,-38.871 C 89.1875,114.301 83.9844,104.902 75.7656,98.7305 70.0977,94.4883 65.4414,86.2461 61.9375,74.2266 59.0703,64.3828 59.0703,54.6563 61.9414,46.082 Z M 58.5195,176.34 H 58.5156 C 45.1836,177.527 32.2461,173.359 22.1328,164.621 11.9961,155.859 5.99219,143.688 5.22656,130.332 4.92578,125.004 5.46875,119.73 6.83984,114.664 10.9531,99.5195 11.8984,86.1758 9.73438,73.8555 9.39844,71.9727 8.76172,69.1992 7.84766,65.5977 6.80859,61.5273 5.08594,57.5977 3.41016,53.9258 1.52734,49.793 0.414063,45.4023 0.09375,40.8711 -0.800781,28.3477 4.69531,16.1133 14.8008,8.14453 21.5664,2.81641 29.5977,0 38.0195,0 c 3.8868,0 7.7969,0.613281 11.6289,1.81641 12.9727,4.10547 22.8125,14.83199 25.6719,27.99609 1.4922,6.875 1.125,13.9297 -1.0469,20.418 -2.0312,6.0351 -1.9765,13.0742 0.1485,20.3437 2.5859,8.875 5.9219,15.3516 9.1445,17.7461 l 0.4961,0.3906 c 10.9023,8.3985 17.7855,21.0161 18.9295,34.7231 2.156,25.894 -18.617,50.613 -44.4725,52.906"
         style="fill:#000000;fill-opacity:1;fill-rule:nonzero;stroke:none"
         id="path12" />
      <path
         d="m 122.945,150.211 c -5.66,0 -10.265,4.609 -10.265,10.266 0,5.66 4.605,10.261 10.265,10.261 5.657,0 10.258,-4.601 10.258,-10.261 0,-5.657 -4.601,-10.266 -10.258,-10.266 z m 0,31.047 c -11.465,0 -20.785,-9.324 -20.785,-20.781 0,-11.461 9.32,-20.782 20.785,-20.782 11.457,0 20.778,9.321 20.778,20.782 0,11.457 -9.321,20.781 -20.778,20.781"
         style="fill:#000000;fill-opacity:1;fill-rule:nonzero;stroke:none"
         id="path14" />
      <path
         d="m 50.4297,199.484 c 2.1445,0 3.8906,-1.746 3.8906,-3.89 0,-2.145 -1.7461,-3.891 -3.8906,-3.891 -2.1445,0 -3.8906,1.746 -3.8906,3.891 0,2.144 1.7461,3.89 3.8906,3.89 z m 0,-18.3 c 7.9453,0 14.4101,6.464 14.4101,14.41 0,7.945 -6.4648,14.406 -14.4101,14.406 -7.9453,0 -14.4063,-6.461 -14.4063,-14.406 0,-7.946 6.461,-14.41 14.4063,-14.41"
         style="fill:#000000;fill-opacity:1;fill-rule:nonzero;stroke:none"
         id="path16" />
      <path
         d="m 87.2773,193.68 c 2.4141,0 4.3829,-1.961 4.3829,-4.375 0,-2.414 -1.9688,-4.383 -4.3829,-4.383 -2.414,0 -4.3789,1.969 -4.3789,4.383 0,2.414 1.9649,4.375 4.3789,4.375 z m 0,-19.274 c 8.2188,0 14.8987,6.68 14.8987,14.899 0,8.211 -6.6799,14.89 -14.8987,14.89 -8.2148,0 -14.8984,-6.679 -14.8984,-14.89 0,-8.219 6.6836,-14.899 14.8984,-14.899"
         style="fill:#000000;fill-opacity:1;fill-rule:nonzero;stroke:none"
         id="path18" />
      <path
         d="m 14.8633,187.465 c 1.7109,0 3.1015,-1.391 3.1015,-3.102 0,-1.715 -1.3906,-3.105 -3.1015,-3.105 -1.7149,0 -3.1055,1.39 -3.1055,3.105 0,1.711 1.3906,3.102 3.1055,3.102 z m 0,-16.727 c 7.5078,0 13.6211,6.114 13.6211,13.625 0,7.508 -6.1133,13.621 -13.6211,13.621 -7.51174,0 -13.62111,-6.113 -13.62111,-13.621 0,-7.511 6.10937,-13.625 13.62111,-13.625"
         style="fill:#000000;fill-opacity:1;fill-rule:nonzero;stroke:none"
         id="path20" />
    </g>
  </g>
</svg>
