<?xml version="1.0" encoding="UTF-8" standalone="no"?>
<!-- Created with Inkscape (http://www.inkscape.org/) -->

<svg
   version="1.1"
   id="svg2"
   width="25.706667"
   height="28"
   viewBox="0 0 25.706667 28"
   sodipodi:docname="grandma.eps"
   xmlns:inkscape="http://www.inkscape.org/namespaces/inkscape"
   xmlns:sodipodi="http://sodipodi.sourceforge.net/DTD/sodipodi-0.dtd"
   xmlns="http://www.w3.org/2000/svg"
   xmlns:svg="http://www.w3.org/2000/svg">
  <defs
     id="defs6" />
  <sodipodi:namedview
     id="namedview4"
     pagecolor="#ffffff"
     bordercolor="#000000"
     borderopacity="0.25"
     inkscape:showpageshadow="2"
     inkscape:pageopacity="0.0"
     inkscape:pagecheckerboard="0"
     inkscape:deskcolor="#d1d1d1" />
  <g
     id="g8"
     inkscape:groupmode="layer"
     inkscape:label="ink_ext_XXXXXX"
     transform="matrix(1.3333333,0,0,-1.3333333,0,28)">
    <g
       id="g10"
       transform="scale(0.1)">
      <path
         d="m 9.91797,29.918 c 0,22.1093 20.84373,40.3711 47.61723,42.9297 3.7734,-10.4688 9.1836,-17.6446 16.1406,-21.3047 3.9062,-2.0547 7.539,-2.6016 10.3008,-2.6016 2.7929,0 4.6914,0.5625 5.0703,0.6797 1.1484,0.3711 2.125,1.1484 2.7422,2.1836 l 4.625,7.7578 4.6249,-7.7578 c 0.613,-1.0352 1.594,-1.8125 2.738,-2.1836 0.379,-0.1172 2.278,-0.6797 5.075,-0.6797 2.757,0 6.39,0.5469 10.296,2.6016 6.957,3.6601 12.372,10.8359 16.141,21.3047 26.777,-2.5586 47.617,-20.8204 47.617,-42.9297 V 9.91797 h -38.64 V 31.8203 c 0,2.7383 -2.219,4.957 -4.961,4.957 -2.742,0 -4.957,-2.2187 -4.957,-4.957 V 9.91797 H 58.4805 V 31.8203 c 0,2.7383 -2.2188,4.957 -4.961,4.957 -2.7422,0 -4.9609,-2.2187 -4.9609,-4.957 V 9.91797 H 9.91797 Z m 78.16013,35.0273 -3.625,-6.0742 c -3.1093,-0.1367 -10.0859,1.1094 -15.6328,12.6484 6.4024,-3.3164 12.8242,-5.5742 19.2578,-6.5742 z m 35.9299,6.5781 C 118.449,59.9453 111.48,58.7461 108.375,58.8594 l -3.629,6.0859 c 6.434,1 12.856,3.2578 19.262,6.5781 z M 4.96094,0 H 187.867 c 2.738,0 4.957,2.22266 4.957,4.96094 V 29.918 c 0,28.5703 -27.254,51.8828 -61.269,53.0703 -0.114,-0.0039 -0.223,0.0273 -0.332,0.0156 -0.789,0.0234 -1.567,0.0977 -2.364,0.0977 h -2.941 c -0.906,0 -1.789,-0.2461 -2.563,-0.711 -18.132,-10.9531 -35.7534,-10.9531 -53.8862,0 -0.7696,0.4649 -1.6563,0.711 -2.5625,0.711 h -2.9415 c -0.7968,0 -1.5703,-0.0743 -2.3632,-0.0977 -0.1094,0.0117 -0.2188,-0.0195 -0.3282,-0.0156 C 27.2578,81.8008 0,58.4883 0,29.918 V 4.96094 C 0,2.22266 2.21875,0 4.96094,0"
         style="fill:#000000;fill-opacity:1;fill-rule:nonzero;stroke:none"
         id="path12" />
      <path
         d="m 59.9844,130.031 1.707,18.262 c 4.0977,-0.883 9.8828,-1.809 16.3359,-1.809 10.1368,0 21.7618,2.289 30.4217,10.649 4.739,-3.477 13.289,-8.77 22.797,-10.219 l 1.59,-16.883 c 1.664,-17.801 -9.625,-34.0935 -26.852,-38.7419 -0.011,0 -0.019,-0.0039 -0.031,-0.0078 C 99.8516,89.5938 93.0039,89.5859 86.8438,91.2891 69.6133,95.9375 58.3242,112.23 59.9844,130.031 Z m 20.1484,48.207 c 1.9922,1.059 4.1211,1.891 6.336,2.485 0.1054,0.019 0.2148,0.047 0.3203,0.07 2.6601,0.687 5.4765,1.035 8.3828,1.035 h 2.4804 c 2.7817,0 5.6057,-0.363 8.3987,-1.086 2.359,-0.601 4.637,-1.453 6.789,-2.554 0.566,-0.282 1.129,-0.559 1.746,-0.938 2.926,-1.711 5.633,-3.937 7.855,-6.398 l 0.797,-0.93 c 0.653,-0.738 1.258,-1.567 1.809,-2.317 2.211,-3.121 3.812,-6.582 4.844,-10.312 -9.957,2.59 -18.586,10.223 -18.692,10.316 -1.027,0.918 -2.402,1.375 -3.769,1.25 -1.375,-0.129 -2.633,-0.816 -3.477,-1.91 -10.5272,-13.644 -31.6366,-10.816 -40.7733,-8.808 2.6094,8.589 8.5898,15.879 16.9531,20.097 z m 16.2813,21.844 c 3.7229,0 7.2339,-1.461 9.8829,-4.105 1.695,-1.696 2.906,-3.75 3.555,-5.989 -0.446,0.129 -0.891,0.25 -1.336,0.364 -3.59,0.925 -7.246,1.394 -10.8637,1.394 h -2.4804 c -3.6328,0 -7.1836,-0.426 -10.5586,-1.269 -0.1172,-0.024 -0.2383,-0.047 -0.3516,-0.079 -0.4258,-0.109 -0.8476,-0.226 -1.2656,-0.347 1.7109,5.793 7.0781,10.031 13.418,10.031 z M 84.2266,81.7227 c 3.8711,-1.0704 7.9687,-1.6172 12.1875,-1.6172 4.2109,0 8.3049,0.5429 12.1719,1.6133 21.894,5.914 36.246,26.6172 34.125,49.2422 l -1.66,17.391 c 0,1.043 -0.071,2.027 -0.137,3.011 0,0.032 0.02,0.059 0.02,0.086 0,0.051 -0.028,0.09 -0.028,0.141 -0.117,1.621 -0.293,3.203 -0.59,4.715 -1.16,6.218 -3.578,11.949 -7.222,17.101 -0.781,1.063 -1.571,2.117 -2.25,2.883 l -0.508,0.594 c -0.004,0.004 -0.328,0.379 -0.328,0.379 -2.926,3.246 -6.219,5.933 -9.688,8.054 v 0.778 c 0,6.375 -2.492,12.375 -7.007,16.898 -4.524,4.52 -10.528,7.008 -16.8989,7.008 -13.1836,0 -23.9102,-10.727 -23.9102,-23.906 v -0.867 C 59.6719,177.387 51.7773,163.645 51.8008,148.816 L 50.1094,130.957 C 47.9922,108.332 62.3555,87.6211 84.2266,81.7227"
         style="fill:#000000;fill-opacity:1;fill-rule:nonzero;stroke:none"
         id="path14" />
      <path
         d="m 75.7852,128.625 c 0.7929,0 1.5976,0.191 2.3476,0.594 2.8477,1.543 5.2735,1.574 7.8555,0.074 2.375,-1.371 5.4062,-0.563 6.7812,1.805 1.375,2.371 0.5664,5.402 -1.8007,6.781 -5.5782,3.23 -11.6485,3.254 -17.543,0.074 -2.4102,-1.301 -3.3125,-4.312 -2.0117,-6.723 0.8984,-1.664 2.6093,-2.605 4.3711,-2.605"
         style="fill:#000000;fill-opacity:1;fill-rule:nonzero;stroke:none"
         id="path16" />
      <path
         d="m 106.836,129.293 c 2.574,1.5 5.008,1.465 7.855,-0.074 0.75,-0.403 1.555,-0.594 2.348,-0.594 1.766,0 3.473,0.945 4.371,2.605 1.301,2.411 0.403,5.422 -2.012,6.723 -5.902,3.18 -11.96,3.156 -17.543,-0.074 -2.3667,-1.379 -3.1753,-4.41 -1.8,-6.781 1.375,-2.371 4.406,-3.18 6.781,-1.805"
         style="fill:#000000;fill-opacity:1;fill-rule:nonzero;stroke:none"
         id="path18" />
      <path
         d="m 83.3984,118.117 c -1.5156,-2.281 -0.8945,-5.359 1.3868,-6.879 3.8007,-2.527 7.7148,-3.793 11.6289,-3.793 3.9099,0 7.8239,1.266 11.6289,3.793 2.281,1.52 2.898,4.598 1.383,6.879 -1.52,2.281 -4.61,2.899 -6.875,1.383 -4.2463,-2.824 -8.0315,-2.824 -12.2737,0 -2.2773,1.516 -5.3671,0.898 -6.8789,-1.383"
         style="fill:#000000;fill-opacity:1;fill-rule:nonzero;stroke:none"
         id="path20" />
    </g>
  </g>
</svg>
