<?xml version="1.0" encoding="UTF-8" standalone="no"?>
<!-- Created with Inkscape (http://www.inkscape.org/) -->

<svg
   version="1.1"
   id="svg2"
   width="25.92"
   height="28"
   viewBox="0 0 25.92 28"
   sodipodi:docname="grandpa.eps"
   xmlns:inkscape="http://www.inkscape.org/namespaces/inkscape"
   xmlns:sodipodi="http://sodipodi.sourceforge.net/DTD/sodipodi-0.dtd"
   xmlns="http://www.w3.org/2000/svg"
   xmlns:svg="http://www.w3.org/2000/svg">
  <defs
     id="defs6" />
  <sodipodi:namedview
     id="namedview4"
     pagecolor="#ffffff"
     bordercolor="#000000"
     borderopacity="0.25"
     inkscape:showpageshadow="2"
     inkscape:pageopacity="0.0"
     inkscape:pagecheckerboard="0"
     inkscape:deskcolor="#d1d1d1" />
  <g
     id="g8"
     inkscape:groupmode="layer"
     inkscape:label="ink_ext_XXXXXX"
     transform="matrix(1.3333333,0,0,-1.3333333,0,28)">
    <g
       id="g10"
       transform="scale(0.1)">
      <path
         d="m 10.4922,33.6914 c 0,27.832 24.0508,50.4844 53.6875,50.6875 4.2461,-8.9492 16.6172,-32.4453 31.4726,-37.0351 0.504,-0.1563 1.0274,-0.2344 1.5508,-0.2344 0.5235,0 1.043,0.0781 1.5508,0.2344 14.8511,4.5898 27.2261,28.0898 31.4731,37.0351 29.636,-0.2031 53.683,-22.8555 53.683,-50.6875 V 10.4922 h -30.972 v 22.8984 c 0,2.8985 -2.348,5.2461 -5.247,5.2461 -2.902,0 -5.246,-2.3476 -5.246,-5.2461 V 10.4922 H 51.9609 v 22.8984 c 0,2.8985 -2.3476,5.2461 -5.2461,5.2461 -2.8984,0 -5.246,-2.3476 -5.246,-5.2461 V 10.4922 H 10.4922 Z m 103.9488,43.5 C 109.32,68.8125 102.996,60.7344 97.2031,57.9766 91.4219,60.7305 85.0977,68.8047 79.9766,77.1875 91.4492,73 102.969,73 114.441,77.1914 Z M 5.24609,0 H 189.156 c 2.899,0 5.246,2.34766 5.246,5.24609 V 33.6914 c 0,33.7461 -28.968,61.1992 -64.578,61.1992 h -2.89 c -0.012,0 -0.024,0 -0.036,0 h -0.027 c -0.605,0 -1.195,-0.1328 -1.762,-0.3359 -0.183,-0.0664 -0.343,-0.168 -0.515,-0.2539 -0.242,-0.1172 -0.504,-0.1992 -0.727,-0.3555 -17.933,-12.5117 -35.3826,-12.5078 -53.3318,0 -0.2305,0.1641 -0.5,0.25 -0.75,0.3711 -0.1602,0.0781 -0.3047,0.1719 -0.4727,0.2344 -0.5703,0.207 -1.1641,0.3398 -1.7734,0.3398 h -2.961 C 28.9727,94.8906 0,67.4375 0,33.6914 V 5.24609 C 0,2.34766 2.34766,0 5.24609,0"
         style="fill:#000000;fill-opacity:1;fill-rule:nonzero;stroke:none"
         id="path12" />
      <path
         d="m 82.9336,181.441 h 28.5354 c 2.176,0 3.937,1.762 3.937,3.934 0,2.172 -1.761,3.934 -3.937,3.934 H 82.9336 c -2.1719,0 -3.9336,-1.762 -3.9336,-3.934 0,-2.172 1.7617,-3.934 3.9336,-3.934"
         style="fill:#000000;fill-opacity:1;fill-rule:nonzero;stroke:none"
         id="path14" />
      <path
         d="m 110.16,174.902 c 0,2.172 -1.765,3.934 -3.937,3.934 H 88.1797 c -2.1719,0 -3.9336,-1.762 -3.9336,-3.934 0,-2.172 1.7617,-3.933 3.9336,-3.933 h 18.0433 c 2.172,0 3.937,1.761 3.937,3.933"
         style="fill:#000000;fill-opacity:1;fill-rule:nonzero;stroke:none"
         id="path16" />
      <path
         d="m 118.457,132.641 c -10,2.129 -17.367,8.086 -17.586,8.257 -0.16,0.137 -0.359,0.18 -0.531,0.29 -0.277,0.183 -0.5548,0.339 -0.8595,0.464 -0.3321,0.137 -0.6563,0.231 -1.0078,0.297 -0.3125,0.059 -0.6133,0.094 -0.9297,0.094 -0.3516,0 -0.6797,-0.035 -1.0235,-0.102 -0.3203,-0.062 -0.6172,-0.144 -0.9257,-0.269 -0.3321,-0.129 -0.629,-0.301 -0.9336,-0.504 -0.1602,-0.105 -0.3438,-0.141 -0.4961,-0.266 -0.0782,-0.062 -7.7578,-6.332 -18.1368,-8.375 -2.8437,-0.558 -4.6953,-3.316 -4.1367,-6.16 0.4922,-2.5 2.6875,-4.234 5.1407,-4.234 0.3359,0 0.6796,0.031 1.0195,0.101 8.6484,1.7 15.5898,5.602 19.4648,8.176 3.7734,-2.5 10.4454,-6.262 18.7614,-8.031 0.368,-0.078 0.731,-0.113 1.094,-0.113 2.426,0 4.602,1.687 5.129,4.152 0.602,2.836 -1.211,5.621 -4.043,6.223"
         style="fill:#000000;fill-opacity:1;fill-rule:nonzero;stroke:none"
         id="path18" />
      <path
         d="m 70.7617,153.324 c 0.9492,-1.758 2.7539,-2.754 4.6211,-2.754 0.8399,0 1.6953,0.203 2.4844,0.629 3.0351,1.633 5.5976,1.653 8.3086,0.082 2.5078,-1.465 5.7187,-0.609 7.1719,1.903 1.4531,2.504 0.6015,5.714 -1.9024,7.168 -5.8984,3.421 -12.3164,3.453 -18.5586,0.082 -2.5508,-1.375 -3.5,-4.559 -2.125,-7.11"
         style="fill:#000000;fill-opacity:1;fill-rule:nonzero;stroke:none"
         id="path20" />
      <path
         d="m 102.961,160.355 c -2.504,-1.457 -3.3594,-4.664 -1.906,-7.171 1.457,-2.508 4.664,-3.36 7.172,-1.907 2.726,1.578 5.293,1.551 8.308,-0.078 0.797,-0.426 1.649,-0.629 2.488,-0.629 1.864,0 3.672,1 4.622,2.754 1.375,2.551 0.421,5.735 -2.129,7.11 -6.243,3.367 -12.657,3.339 -18.555,-0.079"
         style="fill:#000000;fill-opacity:1;fill-rule:nonzero;stroke:none"
         id="path22" />
      <path
         d="m 54.4375,188.996 c 1.5859,1.805 3.5938,3.102 5.7852,3.938 -4.0313,-4.977 -7.0039,-10.821 -8.6797,-17.192 -0.3008,0.551 -0.5313,1.141 -0.6133,1.766 -0.5352,4.156 0.7422,8.344 3.5078,11.488 z m 44.0781,10.512 c 6.2814,0 12.4764,-1.676 17.9104,-4.84 3.094,-1.813 5.957,-4.172 8.324,-6.789 0.047,-0.063 0.777,-0.906 0.828,-0.965 0.688,-0.781 1.328,-1.656 1.91,-2.449 2.926,-4.133 4.895,-8.805 5.852,-13.926 0.394,-2.012 0.586,-4.117 0.586,-6.441 v -24.293 c 0,-20.246 -16.477,-36.719 -36.7229,-36.719 -20.25,0 -36.7226,16.473 -36.7226,36.719 v 24.293 c 0,19.527 15.8828,35.41 35.4101,35.41 z m 44.9534,-22 c -0.078,-0.625 -0.309,-1.215 -0.606,-1.77 -1.394,5.336 -3.648,10.321 -6.863,14.864 -0.613,0.832 -1.215,1.617 -1.785,2.32 2.183,-0.836 4.18,-2.133 5.754,-3.926 2.761,-3.144 4.043,-7.332 3.5,-11.488 z m -98.6643,-10.207 5.1836,-5.332 v -22.164 c 0,-26.032 21.1797,-47.2112 47.2148,-47.2112 26.0349,0 47.2149,21.1792 47.2149,47.2112 v 22.164 l 5.18,5.328 c 2.328,2.394 3.851,5.543 4.281,8.867 0.922,7.141 -1.27,14.344 -6.031,19.758 -4.754,5.414 -11.614,8.516 -18.821,8.516 h -8.742 C 113.586,208.035 106.109,210 98.5156,210 h -2.625 c -7.9179,0 -15.375,-2.016 -21.8828,-5.562 h -8.6289 c -7.2031,0 -14.0625,-3.102 -18.8203,-8.512 -4.7578,-5.414 -6.957,-12.617 -6.0313,-19.762 0.4297,-3.32 1.9493,-6.469 4.2774,-8.863"
         style="fill:#000000;fill-opacity:1;fill-rule:nonzero;stroke:none"
         id="path24" />
    </g>
  </g>
</svg>
