<?xml version="1.0" encoding="UTF-8" standalone="no"?>
<!-- Created with Inkscape (http://www.inkscape.org/) -->

<svg
   version="1.1"
   id="svg2"
   width="28"
   height="27.466667"
   viewBox="0 0 28 27.466667"
   sodipodi:docname="heart.eps"
   xmlns:inkscape="http://www.inkscape.org/namespaces/inkscape"
   xmlns:sodipodi="http://sodipodi.sourceforge.net/DTD/sodipodi-0.dtd"
   xmlns="http://www.w3.org/2000/svg"
   xmlns:svg="http://www.w3.org/2000/svg">
  <defs
     id="defs6" />
  <sodipodi:namedview
     id="namedview4"
     pagecolor="#ffffff"
     bordercolor="#000000"
     borderopacity="0.25"
     inkscape:showpageshadow="2"
     inkscape:pageopacity="0.0"
     inkscape:pagecheckerboard="0"
     inkscape:deskcolor="#d1d1d1" />
  <g
     id="g8"
     inkscape:groupmode="layer"
     inkscape:label="ink_ext_XXXXXX"
     transform="matrix(1.3333333,0,0,-1.3333333,0,27.466667)">
    <g
       id="g10"
       transform="scale(0.1)">
      <path
         d="m 75.0664,195.512 c -17.1836,0 -31.168,-13.985 -31.168,-31.172 0,-22.598 52.1172,-64.6877 60.1216,-64.6877 7.636,0 62.109,40.6097 62.109,64.6877 0,17.187 -13.984,31.172 -31.172,31.172 -10.219,0 -19.805,-5.035 -25.641,-13.461 -0.957,-1.395 -2.546,-2.235 -4.246,-2.25 -1.781,0.015 -3.367,0.847 -4.34,2.222 -5.8433,8.442 -15.437,13.489 -25.6636,13.489 z M 38.5625,122.613 c 4.2656,0 10.5664,-2.027 16.3867,-11.675 2.5391,-4.2 9.2305,-15.6841 18.336,-31.4849 0.6484,-1.1133 2.2734,-2.3242 4.3359,-3.8633 3.6445,-2.7109 8.4961,-6.3203 12.8398,-12.8984 6.5977,-9.9609 10.5661,-21.3633 11.8051,-33.9062 l 0.175,-1.8438 c 0.317,-3.4219 0.766,-8.0078 1.579,-13.0156 h 1.992 c 0.812,5 1.261,9.5625 1.566,12.9258 l 0.195,1.9648 c 1.239,12.5117 5.207,23.9141 11.797,33.875 4.399,6.6445 9.243,10.2266 12.774,12.8399 2.316,1.7148 3.773,2.8398 4.418,3.9335 9.051,15.711 15.738,27.1802 18.332,31.4732 5.816,9.648 12.121,11.675 16.379,11.675 1.254,0 2.484,-0.172 3.668,-0.508 l 1.558,-0.441 -0.285,1.59 c -0.984,5.523 -2.082,11.43 -2.84,15.039 -0.433,2.066 -0.633,3.914 -0.711,5.641 l -0.156,3.66 -1.738,-3.227 c -5.727,-10.644 -15.856,-21.719 -30.106,-32.918 -16.566,-13.0193 -29.535,-23.2263 -36.457,-23.2263 -6.9177,0 -20.031,10.3945 -36.449,23.9763 -13.5742,11.235 -23.2851,22.156 -28.8554,32.457 l -1.7735,3.289 -0.125,-3.734 c -0.0547,-1.797 -0.2812,-3.754 -0.7383,-5.922 -0.7656,-3.605 -1.8515,-9.512 -2.8398,-15.035 l -0.2812,-1.59 1.5507,0.441 c 1.1875,0.336 2.4219,0.508 3.668,0.508 z m -16.3867,28.485 c -2.625,0 -4.2735,-2.668 -5.332,-8.641 -1.9961,-11.273 -5.543,-37.551 -6.2344,-42.7031 -0.5391,-5.3476 0.2734,-7.3203 2.7422,-11.6406 5.6093,-8.2656 25.1914,-37.2266 43.5742,-65.9844 1.9844,-3.0976 4.2812,-7.1094 6.3906,-11.1328 l 0.2813,-0.5313 h 30.375 l -0.1993,1.1719 c -0.9257,5.5235 -1.3867,10.4727 -1.7187,14.0938 l -0.1484,1.5664 c -1.1016,11.1328 -4.5235,21.1054 -10.1719,29.6328 -3.375,5.0898 -7.0469,7.8125 -10.2852,10.2187 -2.6875,1.9805 -5.4648,4.0235 -7.2304,7.0704 -9.0547,15.7187 -15.6954,27.1292 -18.2305,31.3202 -2.711,4.492 -4.0469,6.484 -7.3867,6.617 -0.0118,0 -0.0235,0 -0.0391,0 -2.3867,0 -3.9687,-0.668 -4.7109,-1.824 -0.4297,-0.668 -0.7891,-1.805 -0.0469,-3.453 0.5391,-1.184 4.043,-7.5274 7.9101,-14.5235 4.5118,-8.1485 10.6836,-19.3086 11.0352,-20.3946 0.2305,-0.8789 0.7148,-3.9257 -2.9648,-5.4062 -0.8008,-0.3242 -1.6172,-0.4805 -2.4141,-0.4805 -2.2109,0 -4.0586,1.2891 -4.7461,2.5625 0,0.0117 -21.4062,39.7583 -21.9492,40.8363 -0.6992,1.945 3.0469,19.336 4.6484,26.761 l 0.9024,4.215 c 0.9375,4.442 0.7187,7.434 -0.6524,9.141 -0.7851,0.988 -1.9219,1.496 -3.3594,1.508 z M 172.008,111.895 c -2.004,-0.032 -5.149,-1.711 -7.969,-6.356 -2.566,-4.262 -9.203,-15.6718 -18.226,-31.3202 -1.766,-3.0469 -4.547,-5.0977 -7.227,-7.0821 -3.254,-2.4062 -6.914,-5.1172 -10.277,-10.207 -5.661,-8.5391 -9.063,-18.3516 -10.129,-29.168 l -0.157,-1.5976 c -0.335,-3.6211 -0.808,-8.7891 -1.765,-14.5274 l -0.195,-1.1719 h 30.382 l 0.285,0.543 c 2.071,3.961 4.368,7.9649 6.372,11.1211 17.414,27.2266 36.132,55.0195 43.378,65.707 2.676,4.6055 3.493,6.5977 2.942,11.9532 l -0.149,1.0549 c -2.652,19.699 -4.824,34.476 -6.085,41.613 -1.055,5.969 -2.071,8.637 -5.325,8.637 -1.539,-0.008 -2.691,-0.508 -3.472,-1.481 -1.34,-1.664 -1.539,-4.664 -0.582,-9.164 l 1.105,-5.144 c 1.649,-7.598 5.07,-23.414 4.547,-25.239 l -3.078,-6.382 -18.985,-35.0551 c -0.699,-1.332 -3.125,-3.8008 -5.835,-3.8008 -0.879,0 -1.727,0.2578 -2.543,0.7617 -3.622,2.2579 -1.52,6.7266 -0.79,8.0391 0.157,0.293 17,30.8241 18.016,33.2851 0.426,1.039 0.336,2.102 -0.258,2.988 -0.875,1.309 -2.633,1.993 -3.922,1.993 z M 109.656,0 c -1.461,0 -2.832,0.652344 -3.867,1.81641 l -0.773,0.875 -0.754,-0.89453 C 103.32,0.671875 101.871,0 100.383,0 H 60.3867 C 58.3906,0 56.5977,1.11328 55.7031,2.89844 53.3906,7.58594 50.4805,12.7891 48.1094,16.4883 28.7109,46.8438 6.98047,78.8945 4.56641,82.4531 0.917969,88.7852 -0.597656,92.9648 0.210938,100.855 c 0.03125,0.247 4.128902,30.989 6.335942,43.426 1.08203,6.11 3.08984,17.477 14.14452,17.477 1.3164,0 2.707,-0.164 4.125,-0.5 1.3008,-0.309 4.6406,-1.293 7.5352,-3.922 l 2.2148,-2.008 -0.543,2.942 c -0.375,2.054 -0.5781,4.078 -0.5781,6.07 0,22.953 18.6719,41.625 41.6211,41.625 10.8125,0 21.4727,-4.375 29.2496,-12.008 l 0.704,-0.695 0.71,0.695 c 7.762,7.633 18.418,12.008 29.227,12.008 22.957,0 41.633,-18.672 41.633,-41.625 0,-2.004 -0.195,-4.02 -0.539,-6.055 l -0.485,-2.871 2.161,1.953 c 2.769,2.508 5.894,3.516 7.503,3.891 1.418,0.336 2.809,0.5 4.122,0.5 11.015,0 12.976,-10.93 14.14,-17.457 1.953,-11.031 5.297,-35.711 6.274,-43.012 0.847,-8.2734 -0.629,-12.4843 -4.036,-18.4101 l -1.062,-1.5781 C 188.09,56.7227 173.703,34.9219 161.918,16.4883 159.57,12.8086 156.66,7.61328 154.336,2.91016 153.477,1.14453 151.633,0 149.648,0 h -39.992"
         style="fill:#000000;fill-opacity:1;fill-rule:nonzero;stroke:none"
         id="path12" />
    </g>
  </g>
</svg>
