<?xml version="1.0" encoding="UTF-8" standalone="no"?>
<!-- Created with Inkscape (http://www.inkscape.org/) -->

<svg
   version="1.1"
   id="svg2"
   width="28"
   height="28"
   viewBox="0 0 28 28"
   sodipodi:docname="home.eps"
   xmlns:inkscape="http://www.inkscape.org/namespaces/inkscape"
   xmlns:sodipodi="http://sodipodi.sourceforge.net/DTD/sodipodi-0.dtd"
   xmlns="http://www.w3.org/2000/svg"
   xmlns:svg="http://www.w3.org/2000/svg">
  <defs
     id="defs6" />
  <sodipodi:namedview
     id="namedview4"
     pagecolor="#ffffff"
     bordercolor="#000000"
     borderopacity="0.25"
     inkscape:showpageshadow="2"
     inkscape:pageopacity="0.0"
     inkscape:pagecheckerboard="0"
     inkscape:deskcolor="#d1d1d1" />
  <g
     id="g8"
     inkscape:groupmode="layer"
     inkscape:label="ink_ext_XXXXXX"
     transform="matrix(1.3333333,0,0,-1.3333333,0,28)">
    <g
       id="g10"
       transform="scale(0.1)">
      <path
         d="m 195.531,131.887 -4.351,-8.719 -83.414,41.707 c -0.864,0.438 -1.809,0.656 -2.758,0.656 -0.953,0 -1.903,-0.218 -2.766,-0.652 l -83.4139,-41.707 -4.3593,8.711 90.5352,45.269 z M 42.0039,120.949 105.004,152.449 168,120.949 V 12.3516 H 42.0039 Z m 98.8201,52.102 v 4.828 H 168 v -18.414 z m 0,17.179 v 7.411 H 168 v -7.411 z m 65.758,-50.058 -26.23,13.117 v 50.527 c 0,3.407 -2.77,6.176 -6.176,6.176 h -39.528 c -3.406,0 -6.175,-2.769 -6.175,-6.176 v -24.589 l -20.715,10.351 c -1.715,0.86 -3.844,0.844 -5.516,0 L 3.42188,140.168 c -1.47657,-0.738 -2.57813,-2.008 -3.097661,-3.57 -0.527344,-1.571 -0.4062503,-3.243 0.332031,-4.715 l 9.88285,-19.77 c 1.5273,-3.039 5.2422,-4.277 8.289,-2.758 l 10.8242,5.418 V 6.17578 C 29.6523,2.76953 32.4219,0 35.8281,0 H 174.176 c 3.406,0 6.176,2.76953 6.176,6.17578 V 114.773 l 10.828,-5.414 c 1.476,-0.75 3.156,-0.863 4.711,-0.343 1.562,0.527 2.836,1.625 3.57,3.109 l 9.883,19.758 c 1.535,3.039 0.289,6.762 -2.762,8.289"
         style="fill:#000000;fill-opacity:1;fill-rule:nonzero;stroke:none"
         id="path12" />
      <path
         d="M 132.824,69.957 105.004,42.125 77.1641,69.9453 c -6.6563,6.668 -6.6563,17.5274 0,24.1836 3.2226,3.2266 7.5195,5 12.0937,5 4.5703,0 8.8633,-1.7734 12.0862,-4.9883 1.941,-1.9687 5.359,-1.9609 7.308,-0.0117 6.676,6.6871 17.524,6.6801 24.172,0 6.668,-6.6562 6.668,-17.5156 0,-24.1719 z m -27.82,34.559 c -10.797,7.57 -25.754,6.32 -35.1485,-3.071 -5.1797,-5.1716 -8.0313,-12.0622 -8.0313,-19.3981 0,-7.3438 2.8516,-14.2344 8.0313,-19.4063 L 101.34,31.1602 c 0.98,-0.9844 2.277,-1.5235 3.664,-1.5235 1.379,0 2.676,0.5391 3.648,1.5156 l 31.489,31.4883 c 5.179,5.1719 8.027,12.0625 8.027,19.4063 0,7.3359 -2.848,14.2265 -8.02,19.3981 -9.398,9.391 -24.339,10.637 -35.144,3.071"
         style="fill:#000000;fill-opacity:1;fill-rule:nonzero;stroke:none"
         id="path14" />
    </g>
  </g>
</svg>
