<?xml version="1.0" encoding="UTF-8" standalone="no"?>
<!-- Created with Inkscape (http://www.inkscape.org/) -->

<svg
   version="1.1"
   id="svg2"
   width="16.026667"
   height="28"
   viewBox="0 0 16.026667 28"
   sodipodi:docname="kids.eps"
   xmlns:inkscape="http://www.inkscape.org/namespaces/inkscape"
   xmlns:sodipodi="http://sodipodi.sourceforge.net/DTD/sodipodi-0.dtd"
   xmlns="http://www.w3.org/2000/svg"
   xmlns:svg="http://www.w3.org/2000/svg">
  <defs
     id="defs6" />
  <sodipodi:namedview
     id="namedview4"
     pagecolor="#ffffff"
     bordercolor="#000000"
     borderopacity="0.25"
     inkscape:showpageshadow="2"
     inkscape:pageopacity="0.0"
     inkscape:pagecheckerboard="0"
     inkscape:deskcolor="#d1d1d1" />
  <g
     id="g8"
     inkscape:groupmode="layer"
     inkscape:label="ink_ext_XXXXXX"
     transform="matrix(1.3333333,0,0,-1.3333333,0,28)">
    <g
       id="g10"
       transform="scale(0.1)">
      <path
         d="m 41.3203,119.559 c 11.3086,-7.184 26.2539,-7.176 37.5469,0.007 1.1094,-0.839 2.1719,-1.75 3.1445,-2.718 0.9375,-0.942 1.8438,-2.012 2.8086,-3.321 C 76.0781,105.941 68.2656,97.2109 61.5664,87.5508 50.082,91.0156 39.6836,96.6914 30.6328,104.453 c 1.9336,5.996 5.6914,11.309 10.6875,15.106 z m 10.7852,7.363 c -2.6211,0.898 -5,2.211 -7.0664,3.918 -5.4922,4.519 -8.6407,11.199 -8.6407,18.316 0,12.348 9.5352,22.602 21.8047,23.578 1.043,-1.015 1.7383,-2.086 1.7344,-2.699 0,-0.402 -0.625,-1.582 -2.9648,-3.121 -2.6133,-1.719 -3.3477,-5.238 -1.6289,-7.863 1.6679,-2.535 5.3359,-3.281 7.8593,-1.629 5.3555,3.523 8.0782,7.762 8.086,12.594 7.6445,-4.106 12.4804,-12.078 12.4804,-20.86 0,-7.117 -3.1484,-13.797 -8.6289,-18.32 -6.1484,-5.055 -15.1953,-6.586 -23.0351,-3.914 z m 7.9804,71.723 c 26.8672,0 48.7271,-21.864 48.7271,-48.735 V 130 c -4.586,-2.305 -9.3052,-5.187 -14.0317,-8.566 -0.3672,-0.258 -0.7266,-0.536 -1.0821,-0.809 -1.2344,1.629 -2.4414,3.023 -3.6562,4.25 -0.7852,0.777 -1.6524,1.559 -2.6367,2.379 4.9882,6.226 7.7226,13.949 7.7226,21.902 0,19.321 -15.7226,35.039 -35.043,35.039 -19.3203,0 -35.0429,-15.718 -35.0429,-35.039 0,-7.972 2.7461,-15.715 7.7617,-21.941 -4.6055,-3.887 -8.3438,-8.738 -10.9258,-14.168 -6.043,6.816 -9.418,12.707 -10.5234,14.777 v 22.086 c 0,26.871 21.8593,48.735 48.7304,48.735 z M 55.2305,77.6406 C 51.0273,70.3711 47.4063,62.6328 44.4414,54.5938 23.7656,65.4727 13.5586,82.1953 11.3555,86.1719 V 107.711 C 19.9414,97.3672 34.0391,84.7422 55.2305,77.6406 Z m 4.8554,-66.2929 c -4.5429,0 -9.0429,0.6367 -13.4101,1.8828 l 1.1289,8.2617 c 5.0469,36.9062 24.5742,69.9687 53.5783,90.7108 2.441,1.742 4.937,3.371 7.43,4.852 V 60.0859 C 108.813,33.207 86.9531,11.3477 60.0859,11.3477 Z M 40.875,43.6797 C 38.957,36.9141 37.5039,29.9766 36.5469,23.0156 L 35.8477,17.8438 C 20.6914,26.5664 11.3555,42.5898 11.3555,60.0859 v 6.5313 C 17.5352,59.4766 27.1953,50.5117 40.875,43.6797 Z M 60.0859,210 C 26.9531,210 0,183.047 0,149.91 V 60.0859 C 0,26.9531 26.9531,0 60.0859,0 93.2148,0 120.172,26.9531 120.172,60.0859 V 149.91 c 0,33.137 -26.9572,60.09 -60.0861,60.09"
         style="fill:#000000;fill-opacity:1;fill-rule:nonzero;stroke:none"
         id="path12" />
      <path
         d="m 54.6328,150.523 c 0,3.098 -2.5234,5.622 -5.6211,5.622 -3.0976,0 -5.6211,-2.524 -5.6211,-5.622 0,-3.097 2.5235,-5.621 5.6211,-5.621 3.0977,0 5.6211,2.524 5.6211,5.621"
         style="fill:#000000;fill-opacity:1;fill-rule:nonzero;stroke:none"
         id="path14" />
      <path
         d="m 71.1563,156.145 c -3.0977,0 -5.6172,-2.524 -5.6172,-5.622 0,-3.097 2.5195,-5.621 5.6172,-5.621 3.0976,0 5.625,2.524 5.625,5.621 0,3.098 -2.5274,5.622 -5.625,5.622"
         style="fill:#000000;fill-opacity:1;fill-rule:nonzero;stroke:none"
         id="path16" />
      <path
         d="m 63.8984,143.172 c -2.7421,-2.324 -4.8828,-2.324 -7.625,0 -1.4375,1.223 -3.625,1.058 -4.8789,-0.402 -1.2265,-1.457 -1.0429,-3.645 0.4063,-4.872 2.6289,-2.226 5.414,-3.359 8.2851,-3.359 2.8711,0 5.6563,1.133 8.2813,3.359 1.4492,1.227 1.6289,3.407 0.3984,4.879 -1.2304,1.438 -3.414,1.606 -4.8672,0.395"
         style="fill:#000000;fill-opacity:1;fill-rule:nonzero;stroke:none"
         id="path18" />
    </g>
  </g>
</svg>
