<?xml version="1.0" encoding="UTF-8" standalone="no"?>
<!-- Created with Inkscape (http://www.inkscape.org/) -->

<svg
   version="1.1"
   id="svg2"
   width="23.373333"
   height="28"
   viewBox="0 0 23.373333 28"
   sodipodi:docname="kolaska.eps"
   xmlns:inkscape="http://www.inkscape.org/namespaces/inkscape"
   xmlns:sodipodi="http://sodipodi.sourceforge.net/DTD/sodipodi-0.dtd"
   xmlns="http://www.w3.org/2000/svg"
   xmlns:svg="http://www.w3.org/2000/svg">
  <defs
     id="defs6" />
  <sodipodi:namedview
     id="namedview4"
     pagecolor="#ffffff"
     bordercolor="#000000"
     borderopacity="0.25"
     inkscape:showpageshadow="2"
     inkscape:pageopacity="0.0"
     inkscape:pagecheckerboard="0"
     inkscape:deskcolor="#d1d1d1" />
  <g
     id="g8"
     inkscape:groupmode="layer"
     inkscape:label="ink_ext_XXXXXX"
     transform="matrix(1.3333333,0,0,-1.3333333,0,28)">
    <g
       id="g10"
       transform="scale(0.1)">
      <path
         d="M 160.277,122.137 C 156.383,89.8164 125.441,64.2813 88.8789,64.2813 c -36.5625,0 -67.5039,25.5351 -71.4141,57.8557 z m 1.922,14.711 c 0,-0.524 -0.011,-1.039 -0.019,-1.559 h -53.039 v 61.145 c 29.679,-3.496 53.058,-29.243 53.058,-59.586 z M 55.2266,13.1445 c -4.9414,0 -8.961,4.0274 -8.961,8.9649 0,4.9336 4.0196,8.9492 8.961,8.9492 4.9375,0 8.9531,-4.0156 8.9531,-8.9492 0,-4.9375 -4.0156,-8.9649 -8.9531,-8.9649 z m 71.6874,17.9141 c 4.941,0 8.961,-4.0156 8.961,-8.9492 0,-4.9375 -4.02,-8.9649 -8.961,-8.9649 -4.937,0 -8.957,4.0274 -8.957,8.9649 0,4.9336 4.02,8.9492 8.957,8.9492 z M 102.445,210 c -1.722,-0.051 -3.3356,-0.738 -4.4841,-1.887 -1.2539,-1.222 -1.9765,-2.937 -1.9765,-4.699 V 135.289 H 17.0625 v 12.285 c 0,7.028 -3.7852,13.614 -9.87891,17.18 -1.48046,0.859 -3.3164,0.875 -4.78515,0.016 C 0.914063,163.922 0,162.344 0,160.633 v -4.434 c 0,-1.363 0.585938,-2.672 1.60938,-3.574 1.48046,-1.309 2.29687,-3.105 2.29687,-5.051 L 3.90234,123.633 C 3.85938,122.691 4.02344,121.766 4.375,120.898 8.39063,85.7969 37.3711,57.7305 75.3516,52.1094 L 79.6914,49.043 67.5586,40.4375 c -3.6211,2.4531 -7.8828,3.7773 -12.332,3.7773 -12.1914,0 -22.1094,-9.9179 -22.1094,-22.1054 C 33.1172,9.91797 43.0352,0 55.2266,0 67.4141,0 77.332,9.91797 77.332,22.1094 c 0,2.7812 -0.5195,5.5117 -1.5273,8.0664 L 91.0703,40.9883 106.332,30.1758 c -0.996,-2.5664 -1.519,-5.2852 -1.519,-8.0664 C 104.813,9.91797 114.73,0 126.914,0 c 12.195,0 22.113,9.91797 22.113,22.1094 0,12.1875 -9.918,22.1054 -22.113,22.1054 -4.445,0 -8.715,-1.3242 -12.34,-3.7773 l -12.129,8.6055 5.856,4.1562 c 34.472,7.4375 60.488,33.9141 64.785,65.6488 1.5,5.882 2.258,11.937 2.258,18 0,40.113 -32.629,72.929 -72.899,73.152"
         style="fill:#000000;fill-opacity:1;fill-rule:nonzero;stroke:none"
         id="path12" />
    </g>
  </g>
</svg>
