<?xml version="1.0" encoding="UTF-8" standalone="no"?>
<!-- Created with Inkscape (http://www.inkscape.org/) -->

<svg
   version="1.1"
   id="svg2"
   width="24"
   height="28"
   viewBox="0 0 24 28"
   sodipodi:docname="mother.eps"
   xmlns:inkscape="http://www.inkscape.org/namespaces/inkscape"
   xmlns:sodipodi="http://sodipodi.sourceforge.net/DTD/sodipodi-0.dtd"
   xmlns="http://www.w3.org/2000/svg"
   xmlns:svg="http://www.w3.org/2000/svg">
  <defs
     id="defs6" />
  <sodipodi:namedview
     id="namedview4"
     pagecolor="#ffffff"
     bordercolor="#000000"
     borderopacity="0.25"
     inkscape:showpageshadow="2"
     inkscape:pageopacity="0.0"
     inkscape:pagecheckerboard="0"
     inkscape:deskcolor="#d1d1d1" />
  <g
     id="g8"
     inkscape:groupmode="layer"
     inkscape:label="ink_ext_XXXXXX"
     transform="matrix(1.3333333,0,0,-1.3333333,0,28)">
    <g
       id="g10"
       transform="scale(0.1)">
      <path
         d="m 80.9844,197.641 c 5.3828,-3.817 12.625,-3.825 18,0 0.7851,0.562 1.6246,0.851 2.4256,0.75 20.887,-2.11 38.77,-16.664 45.574,-37.086 8.829,-26.52 12.496,-66.012 13.954,-89.1917 -11.211,10.5586 -25.68,16.3281 -41.083,16.3281 h -2.71 c -1.227,0 -2.454,-0.4062 -3.446,-1.1406 -15.9646,-11.793 -31.4724,-11.793 -47.4256,0 -1,0.7344 -2.2187,1.1406 -3.4453,1.1406 h -2.7109 c -15.4102,0 -29.875,-5.7695 -41.082,-16.3281 1.4492,23.1523 5.1015,62.6097 13.9531,89.1917 6.7969,20.422 24.6875,34.976 45.5547,37.086 0.7968,0.101 1.664,-0.196 2.4414,-0.75 z M 129.469,45.457 c -3.196,0 -5.801,-2.6054 -5.801,-5.8007 V 11.6016 H 56.3047 v 28.0547 c 0,3.1953 -2.6016,5.8007 -5.8008,5.8007 -3.1992,0 -5.8047,-2.6054 -5.8047,-5.8007 V 11.6016 H 11.6016 v 16.7226 c 0,26.7539 21.7617,48.5156 48.5156,48.5156 h 0.8398 c 19.2618,-13.4921 38.7969,-13.4921 58.059,0 h 0.839 c 26.75,0 48.516,-21.7617 48.516,-48.5156 V 11.6016 H 135.27 v 28.0547 c 0,3.1953 -2.61,5.8007 -5.801,5.8007 z m 43.89,10.1524 c -0.242,8.3359 -2.48,70.6326 -15.375,109.3596 -8.242,24.75 -29.984,42.402 -55.414,44.969 -3.5192,0.332 -7.2341,-0.657 -10.3005,-2.833 -1.3711,-0.976 -3.1953,-0.976 -4.5664,0 -3.0703,2.172 -6.7383,3.161 -10.3164,2.833 C 51.9648,207.371 30.2188,189.719 21.9805,164.969 9.12891,126.363 6.86328,63.957 6.60938,55.6094 2.22266,47.0469 0,37.8789 0,28.3242 V 5.80078 C 0,2.60547 2.60156,0 5.80078,0 H 174.172 c 3.191,0 5.801,2.60547 5.801,5.80078 V 28.3242 c 0,9.5469 -2.223,18.7149 -6.614,27.2852"
         style="fill:#000000;fill-opacity:1;fill-rule:nonzero;stroke:none"
         id="path12" />
      <path
         d="m 53.7148,153.391 c 4.8125,0.043 13.961,1.175 22.9688,8.101 6.0859,-3.066 20.8867,-9.707 34.9334,-9.703 4.895,0 9.692,0.824 14.004,2.871 3.051,-5.719 4.68,-11.976 4.68,-18.726 0,-12.664 -5.809,-24.383 -15.91,-32.133 -7.086,-5.3557 -15.5277,-8.1838 -24.4066,-8.1838 -8.8789,0 -17.3164,2.8281 -24.3789,8.1638 -10.125,7.77 -15.9375,19.489 -15.9375,32.153 0,6.23 1.414,12.07 4.0468,17.457 z m 6.3594,-56.8754 c 8.6875,-6.5625 19.0313,-10.0312 29.9102,-10.0312 10.8826,0 21.2266,3.4687 29.9416,10.0508 12.394,9.5118 19.508,23.8708 19.508,39.3988 0,9.953 -2.907,19.488 -8.403,27.574 -0.023,0.035 -0.062,0.051 -0.09,0.086 -0.027,0.035 -0.027,0.082 -0.054,0.117 -0.172,0.223 -0.41,0.352 -0.61,0.535 -0.218,0.199 -0.41,0.426 -0.66,0.574 -0.258,0.16 -0.547,0.231 -0.828,0.332 -0.269,0.098 -0.523,0.227 -0.805,0.274 -0.285,0.047 -0.574,0.004 -0.867,-0.004 -0.293,-0.008 -0.582,0.016 -0.871,-0.051 -0.293,-0.066 -0.558,-0.223 -0.836,-0.351 -0.238,-0.106 -0.496,-0.149 -0.722,-0.301 -0.036,-0.024 -0.051,-0.063 -0.086,-0.09 -0.036,-0.027 -0.082,-0.027 -0.118,-0.055 -12.164,-9.285 -37.3668,1.41 -46.0895,6.336 0,0 0,0 -0.0039,0.004 -0.0468,0.027 -4.8164,2.902 -5.0429,7.938 -0.1172,2.519 -2.3204,4.453 -4.7696,4.351 -2.5195,-0.113 -4.4687,-2.246 -4.3554,-4.765 0.2265,-4.926 2.4453,-8.657 4.6953,-11.227 -8.7813,-5.637 -16.9375,-4.668 -17.3321,-4.609 -0.0156,0.003 -0.0273,-0.004 -0.039,0 -0.375,0.046 -0.7383,-0.02 -1.1055,-0.063 -0.2266,-0.023 -0.4609,0.012 -0.6758,-0.047 -0.1484,-0.039 -0.2695,-0.144 -0.414,-0.199 -0.4024,-0.152 -0.8047,-0.305 -1.1446,-0.563 -0.1367,-0.101 -0.2226,-0.261 -0.3515,-0.382 -0.3047,-0.289 -0.6133,-0.578 -0.8321,-0.946 -0.0078,-0.015 -0.0234,-0.023 -0.0351,-0.039 -4.2774,-7.429 -6.4492,-15.648 -6.4492,-24.429 0,-15.528 7.1093,-29.887 19.5351,-39.4184"
         style="fill:#000000;fill-opacity:1;fill-rule:nonzero;stroke:none"
         id="path14" />
      <path
         d="m 107.793,133.379 c 3.348,0 6.059,3.316 6.059,7.41 0,4.09 -2.711,7.406 -6.059,7.406 -3.344,0 -6.055,-3.316 -6.055,-7.406 0,-4.094 2.711,-7.41 6.055,-7.41"
         style="fill:#000000;fill-opacity:1;fill-rule:nonzero;stroke:none"
         id="path16" />
      <path
         d="m 72.5039,133.379 c 3.3438,0 6.0547,3.316 6.0547,7.41 0,4.09 -2.7109,7.406 -6.0547,7.406 -3.3476,0 -6.0586,-3.316 -6.0586,-7.406 0,-4.094 2.711,-7.41 6.0586,-7.41"
         style="fill:#000000;fill-opacity:1;fill-rule:nonzero;stroke:none"
         id="path18" />
      <path
         d="m 76.4258,119.852 c -2.2305,-1.18 -3.0781,-3.942 -1.8985,-6.172 2.6993,-5.11 8.7696,-8.407 15.4571,-8.407 7.1758,0 13.5936,3.805 15.9646,9.469 0.973,2.324 -0.125,5 -2.449,5.973 -2.324,0.973 -4.9961,-0.117 -5.9727,-2.449 -0.8046,-1.918 -3.6562,-3.864 -7.5429,-3.864 -3.7852,0 -6.4844,1.84 -7.3906,3.547 -1.1719,2.223 -3.9375,3.082 -6.168,1.903"
         style="fill:#000000;fill-opacity:1;fill-rule:nonzero;stroke:none"
         id="path20" />
    </g>
  </g>
</svg>
