<?xml version="1.0" encoding="UTF-8" standalone="no"?>
<!-- Created with Inkscape (http://www.inkscape.org/) -->

<svg
   version="1.1"
   id="svg2"
   width="28"
   height="22.026667"
   viewBox="0 0 28 22.026667"
   sodipodi:docname="pets.eps"
   xmlns:inkscape="http://www.inkscape.org/namespaces/inkscape"
   xmlns:sodipodi="http://sodipodi.sourceforge.net/DTD/sodipodi-0.dtd"
   xmlns="http://www.w3.org/2000/svg"
   xmlns:svg="http://www.w3.org/2000/svg">
  <defs
     id="defs6" />
  <sodipodi:namedview
     id="namedview4"
     pagecolor="#ffffff"
     bordercolor="#000000"
     borderopacity="0.25"
     inkscape:showpageshadow="2"
     inkscape:pageopacity="0.0"
     inkscape:pagecheckerboard="0"
     inkscape:deskcolor="#d1d1d1" />
  <g
     id="g8"
     inkscape:groupmode="layer"
     inkscape:label="ink_ext_XXXXXX"
     transform="matrix(1.3333333,0,0,-1.3333333,0,22.026667)">
    <g
       id="g10"
       transform="scale(0.1)">
      <path
         d="m 130.297,102.406 c -5.625,0 -10.199,-5.5544 -10.199,-12.3826 0,-6.8242 4.574,-12.3789 10.199,-12.3789 5.629,0 10.199,5.5547 10.199,12.3789 0,6.8282 -4.57,12.3826 -10.199,12.3826"
         style="fill:#000000;fill-opacity:1;fill-rule:nonzero;stroke:none"
         id="path12" />
      <path
         d="m 79.707,102.406 c -5.625,0 -10.207,-5.5544 -10.207,-12.3826 0,-6.8242 4.582,-12.3789 10.207,-12.3789 5.625,0 10.1993,5.5547 10.1993,12.3789 0,6.8282 -4.5743,12.3826 -10.1993,12.3826"
         style="fill:#000000;fill-opacity:1;fill-rule:nonzero;stroke:none"
         id="path14" />
      <path
         d="m 132.441,149.539 c 0.528,1.231 1.313,2.234 2.325,2.992 2.382,1.778 6.332,2.395 11.66,1.797 17.91,-1.922 24.23,-19.269 24.289,-19.433 0.387,-1.153 1.234,-2.161 2.375,-2.852 10.047,-6.07 25.594,-18.91 24.512,-27.508 -0.454,-3.617 -4.082,-6.6522 -11.243,-9.3319 l -0.375,-0.164 c -0.433,-0.1993 -4.265,-1.8594 -7.441,-0.8594 -1.961,0.5976 -3.59,2.2851 -4.855,5.0117 l -0.27,1.9646 c -1.621,21.016 -17.66,39.891 -40.977,48.383 z m -24.593,-94.5781 -2.899,-2.9804 -2.894,2.9218 z m 3.336,-44.082 -0.047,30.8789 8.265,8.5156 c 2.778,2.8633 3.289,6.7071 1.36,10.0274 -1.864,3.2031 -5.645,5.1914 -9.883,5.1914 H 99.125 c -4.2383,0 -8.0234,-1.9883 -9.8789,-5.1914 -1.9336,-3.3203 -1.4141,-7.1641 1.3633,-10.0274 l 8.2226,-8.4843 v -30.875 c -3.8632,0.3398 -7.6601,0.9648 -11.3086,1.8632 L 65.9258,18.1641 C 49.9805,22.1406 39.7852,34.8672 41.6758,48.418 l 7.2344,52.027 c 1.4257,18.426 16.0507,34.301 37.5195,40.618 0.0664,0.007 0.1328,0.023 0.2031,0.042 6.0352,1.727 12.2188,2.602 18.3712,2.602 29.566,0 54.219,-19.094 56.117,-43.539 L 168.34,48.3594 C 170.223,34.8398 160.051,22.1211 144.156,18.125 L 123.02,12.8164 c -3.832,-0.9648 -7.805,-1.6133 -11.836,-1.9375 z M 67.2461,154.539 c 3.5117,0 6.1914,-0.672 7.9961,-2.012 1.0195,-0.754 1.7969,-1.757 2.3242,-2.988 C 54.2422,141.063 38.2227,122.266 36.6211,101.438 L 36.3125,99.1836 C 35.043,96.4609 33.4102,94.7773 31.4609,94.1797 28.1484,93.1445 24.1094,95 24.0938,95.0039 23.9063,95.1016 23.707,95.1836 23.5,95.2656 c -7.0156,2.6172 -10.6445,5.6484 -11.0977,9.2694 -1.0781,8.594 14.461,21.434 24.5079,27.504 1.1406,0.684 1.9843,1.699 2.375,2.852 0.0625,0.172 6.2812,17.507 24.289,19.437 1.3125,0.145 2.5352,0.211 3.6719,0.211 z M 181.844,139.723 c -2.512,5.754 -11.739,22.773 -33.875,25.148 -9.043,0.965 -16.223,-0.488 -21.399,-4.371 -2.679,-2.023 -4.66,-4.625 -5.875,-7.734 -10.601,2.093 -20.8239,2.082 -31.3864,0 -1.2188,3.109 -3.1914,5.707 -5.875,7.73 -5.1602,3.891 -12.3438,5.367 -21.3867,4.379 C 39.8789,162.492 30.6602,145.477 28.1602,139.723 20.6523,134.934 -1.84375,119.168 0.121094,103.398 1.06641,95.8008 7.19531,89.8125 18.2617,85.6289 c 1.2149,-0.5625 5.6055,-2.3867 10.9922,-2.3867 1.6914,0 3.3359,0.1836 4.9102,0.543 L 29.4102,49.6914 C 26.8047,30.9414 40.7109,13.3945 62.4766,7.97266 L 84.0703,2.58594 C 90.9219,0.867188 98.0352,0 105.211,0 c 7.191,0 14.355,0.878906 21.285,2.61328 l 21.133,5.3086 c 21.715,5.45312 35.574,23.00002 32.969,41.71482 l -4.758,34.1485 c 1.574,-0.3594 3.223,-0.543 4.914,-0.543 5.375,0 9.766,1.8242 10.902,2.3555 11.157,4.2148 17.285,10.207 18.223,17.8003 1.969,15.77 -20.527,31.536 -28.035,36.325"
         style="fill:#000000;fill-opacity:1;fill-rule:nonzero;stroke:none"
         id="path16" />
    </g>
  </g>
</svg>
