<?xml version="1.0" encoding="UTF-8" standalone="no"?>
<!-- Created with Inkscape (http://www.inkscape.org/) -->

<svg
   version="1.1"
   id="svg2"
   width="27.440001"
   height="28"
   viewBox="0 0 27.440001 28"
   sodipodi:docname="ruki.eps"
   xmlns:inkscape="http://www.inkscape.org/namespaces/inkscape"
   xmlns:sodipodi="http://sodipodi.sourceforge.net/DTD/sodipodi-0.dtd"
   xmlns="http://www.w3.org/2000/svg"
   xmlns:svg="http://www.w3.org/2000/svg">
  <defs
     id="defs6" />
  <sodipodi:namedview
     id="namedview4"
     pagecolor="#ffffff"
     bordercolor="#000000"
     borderopacity="0.25"
     inkscape:showpageshadow="2"
     inkscape:pageopacity="0.0"
     inkscape:pagecheckerboard="0"
     inkscape:deskcolor="#d1d1d1" />
  <g
     id="g8"
     inkscape:groupmode="layer"
     inkscape:label="ink_ext_XXXXXX"
     transform="matrix(1.3333333,0,0,-1.3333333,0,28)">
    <g
       id="g10"
       transform="scale(0.1)">
      <path
         d="m 116.512,153.906 c 1.879,0 3.73,-0.355 5.492,-1.062 1.851,-0.754 3.598,-1.953 5.039,-3.457 l 0.672,-0.715 10.414,9.574 c 0.398,0.633 0.601,0.906 0.855,1.133 l 21.688,19.559 c 1.344,1.191 2.152,2.847 2.25,4.656 0.098,1.777 -0.508,3.476 -1.695,4.804 -1.258,1.399 -3.071,2.2 -4.957,2.2 -1.649,0 -3.227,-0.602 -4.454,-1.703 l -39.16,-35.227 z m 44.996,8.5 c -1.129,0 -2.211,-0.363 -3.137,-1.043 l -13.715,-12.578 1.09,-0.699 c 2.496,-1.598 4.426,-3.871 5.563,-6.563 l 0.546,-1.285 1.227,0.465 11.758,10.57 c 2.738,2.457 2.973,6.68 0.515,9.418 -0.992,1.09 -2.394,1.715 -3.847,1.715 z m 3.906,-28.215 c -1.652,0 -3.23,-0.609 -4.441,-1.714 l -4.219,-3.774 5.516,-12.976 7.609,6.847 c 1.332,1.184 2.113,2.817 2.199,4.59 0.098,1.781 -0.504,3.496 -1.703,4.828 -1.258,1.395 -3.059,2.199 -4.961,2.199 z M 41.6875,182.555 c -3.3242,0 -6.2305,-2.133 -7.2305,-5.309 L 14.6133,114.809 C 4.69922,88.5547 19.0938,59.3594 38.75,46.3242 c 7.5703,-5.0469 15.4063,-7.5976 23.293,-7.5976 10.0195,0 19.7851,4.2656 28.2383,12.3203 l 6.457,5.7969 -17.6797,41.6015 c -3.1758,7.5157 0.3398,16.2307 7.8477,19.4177 0.8281,0.348 1.7148,0.61 2.7031,0.805 l 0.9297,0.18 -0.1328,0.941 c -0.9493,6.633 2.6835,13.086 8.8359,15.699 0.5664,0.242 1.1558,0.442 1.7888,0.61 l 0.848,0.222 -0.113,0.871 c -0.196,1.5 -0.161,3.016 0.101,4.493 l 0.403,2.261 -1.926,-1.25 c -0.9221,-0.593 -1.9885,-0.906 -3.094,-0.906 -1.6172,0 -3.1602,0.684 -4.2383,1.879 -1.0156,1.125 -1.5273,2.574 -1.4492,4.09 0.082,1.519 0.75,2.918 1.8828,3.941 l 39.3747,35.422 c 2.641,2.465 2.825,6.629 0.426,9.305 -1.266,1.402 -3.066,2.207 -4.957,2.207 -1.644,0 -3.234,-0.61 -4.461,-1.711 L 49.9805,130.516 c -1.0508,-0.946 -2.3985,-1.469 -3.7969,-1.469 v 0 c -1.0078,0 -2.0078,0.273 -2.8828,0.789 -2.1563,1.258 -3.2227,3.738 -2.6602,6.168 l 8.4922,37.238 c 0.9024,3.961 -1.4492,7.922 -5.3555,9.028 -0.6718,0.191 -1.3789,0.285 -2.0898,0.285 z m 49.6797,-75.157 c -1.7539,-0.746 -2.5625,-2.769 -1.8242,-4.507 l 30.836,-72.6137 c 6.43,-16.4062 19.348,-18.8593 26.469,-18.8593 1.949,0 3.652,0.1758 4.976,0.3789 16.653,2.4844 34.762,16.8828 36.262,36.6875 l 6.293,48.2617 c 0.281,2.2305 -1.238,4.2539 -3.449,4.6089 -0.047,0 -0.106,0.004 -0.164,0.004 -2.536,0 -4.121,-1.328 -4.539,-3.2067 l -5.954,-27.5625 c -0.527,-2.4453 -2.543,-4.2382 -5.019,-4.4609 -0.066,0 -0.125,0 -0.184,0 -2.824,0 -4.715,1.3555 -5.593,3.4375 l -28.641,67.5076 c -0.535,1.27 -1.762,2.09 -3.137,2.09 h -0.203 l -1.16,-0.277 c -1.703,-0.719 -2.516,-2.66 -1.84,-4.407 L 149.77,98.4844 c 0.593,-1.3946 0.613,-2.9336 0.039,-4.336 -0.567,-1.4218 -1.645,-2.5234 -3.047,-3.1289 -0.703,-0.3007 -1.446,-0.4492 -2.203,-0.4492 -0.723,0 -1.442,0.1367 -2.133,0.4102 -1.422,0.5664 -2.535,1.6484 -3.129,3.0586 l -19.688,46.4139 c -0.527,1.25 -1.804,2.094 -3.168,2.094 h -0.214 l -1.129,-0.289 c -0.828,-0.352 -1.481,-1.024 -1.832,-1.875 -0.34,-0.852 -0.332,-1.778 0.031,-2.617 l 19.707,-46.4066 c 0.586,-1.3828 0.605,-2.9219 0.039,-4.3321 -0.566,-1.4218 -1.645,-2.5351 -3.059,-3.1289 -0.691,-0.2929 -1.461,-0.4492 -2.222,-0.4492 -2.278,0 -4.332,1.3633 -5.239,3.4688 l -15.675,36.824 c -0.246,0.59 -0.707,1.055 -1.309,1.297 l -1.848,-0.019 c -0.843,-0.356 -1.496,-1.024 -1.836,-1.872 -0.347,-0.851 -0.335,-1.785 0.024,-2.628 l 15.246,-35.8989 c 1.219,-2.8867 -0.129,-6.2266 -3.012,-7.4648 -0.672,-0.2735 -1.402,-0.418 -2.148,-0.418 -2.309,0 -4.442,1.3828 -5.309,3.4375 L 95.8516,105.578 c -0.5391,1.27 -1.7813,2.086 -3.1641,2.086 H 92.4883 Z M 146.438,0 c -16.793,0 -30.133,9.46875 -36.59,25.9805 L 101.434,45.7773 98,42.6914 C 87.4297,32.625 75.0234,27.3164 62.1016,27.3164 c -10.1407,0 -20.1133,3.207 -29.6407,9.5078 C 9.08984,52.3359 -7.99609,87.1445 3.87109,118.547 l 19.74611,62.144 c 2.5156,7.918 9.7773,13.239 18.0703,13.239 1.7422,0 3.4805,-0.239 5.1836,-0.711 9.7422,-2.758 15.6055,-12.645 13.3516,-22.504 l -4.5079,-19.723 60.5042,54.395 c 3.32,2.976 7.597,4.613 12.051,4.613 5.125,0 10.015,-2.176 13.433,-5.973 1.277,-1.425 2.309,-3.023 3.07,-4.754 l 0.489,-1.089 0.98,0.668 c 2.992,2.019 6.481,3.089 10.094,3.089 5.086,0 9.957,-2.164 13.348,-5.945 5.863,-6.519 6.078,-16.578 0.507,-23.402 l -0.722,-0.875 0.965,-0.598 c 1.296,-0.82 2.433,-1.769 3.39,-2.828 5.953,-6.633 6.098,-16.793 0.332,-23.629 l -0.769,-0.914 1.031,-0.594 c 1.664,-0.953 3.145,-2.156 4.422,-3.57 3.215,-3.578 4.844,-8.203 4.59,-13.031 -0.262,-4.817 -2.379,-9.242 -5.953,-12.457 l -10.512,-9.446 5.98,-14.0973 2.164,10.0003 c 1.52,7.09 7.891,12.238 15.129,12.238 0.828,0 1.676,-0.066 2.535,-0.203 8.297,-1.363 13.957,-8.973 12.868,-17.3205 L 199.395,47.3086 C 197.43,21.0938 174.289,3.65234 153.52,0.535156 151.133,0.183594 148.746,0 146.438,0"
         style="fill:#000000;fill-opacity:1;fill-rule:nonzero;stroke:none"
         id="path12" />
    </g>
  </g>
</svg>
