<?xml version="1.0" encoding="UTF-8" standalone="no"?>
<!-- Created with Inkscape (http://www.inkscape.org/) -->

<svg
   version="1.1"
   id="svg2"
   width="28"
   height="24.946667"
   viewBox="0 0 28 24.946667"
   sodipodi:docname="wedding.eps"
   xmlns:inkscape="http://www.inkscape.org/namespaces/inkscape"
   xmlns:sodipodi="http://sodipodi.sourceforge.net/DTD/sodipodi-0.dtd"
   xmlns="http://www.w3.org/2000/svg"
   xmlns:svg="http://www.w3.org/2000/svg">
  <defs
     id="defs6" />
  <sodipodi:namedview
     id="namedview4"
     pagecolor="#ffffff"
     bordercolor="#000000"
     borderopacity="0.25"
     inkscape:showpageshadow="2"
     inkscape:pageopacity="0.0"
     inkscape:pagecheckerboard="0"
     inkscape:deskcolor="#d1d1d1" />
  <g
     id="g8"
     inkscape:groupmode="layer"
     inkscape:label="ink_ext_XXXXXX"
     transform="matrix(1.3333333,0,0,-1.3333333,0,24.946667)">
    <g
       id="g10"
       transform="scale(0.1)">
      <path
         d="M 190.645,104.348 C 187.801,99.0508 183.816,93.875 178.461,88.5234 L 104.992,15.043 31.5078,88.5273 C 26.168,93.875 22.1836,99.0469 19.3359,104.34 c -14.71481,27.375 -3.1914,51.812 13.75,62.933 7.3321,4.809 15.836,7.352 24.5821,7.352 11.0156,0 27.3164,-4.02 42.43,-23.176 2.281,-2.886 7.496,-2.886 9.789,0 21.472,27.223 49.136,27.582 67.039,15.844 16.933,-11.121 28.457,-35.559 13.719,-62.945 z m -6.887,73.359 C 162.992,191.328 130.715,192.574 104.992,164.891 79.2969,192.555 47.0273,191.324 26.25,177.688 4.70703,163.559 -10.0781,132.727 8.36328,98.4375 11.793,92.0508 16.4844,85.9297 22.6992,79.7148 L 100.582,1.82422 C 101.77,0.644531 103.336,0 104.992,0 c 1.66,0 3.231,0.644531 4.406,1.82422 l 77.891,77.87888 c 6.195,6.2071 10.895,12.336 14.34,18.7461 18.449,34.2968 3.676,65.1288 -17.871,79.2578"
         style="fill:#000000;fill-opacity:1;fill-rule:nonzero;stroke:none"
         id="path12" />
      <path
         d="m 144.363,131.16 -0.125,6.426 4.2,0.086 1.937,-3.367 z m 6.356,-36.0741 c 0,-14.9843 -12.192,-27.1796 -27.18,-27.1796 -7.613,0 -14.668,3.1601 -19.75,8.5742 1.168,0.7343 2.356,1.4297 3.453,2.2968 7.781,6.1641 12.696,14.9961 13.836,24.8597 0.727,6.265 -0.137,12.468 -2.437,18.16 1.589,0.293 3.222,0.465 4.898,0.465 14.988,0 27.18,-12.188 27.18,-27.1761 z M 81.0273,80.9102 c -7.2109,0.8359 -13.6679,4.4336 -18.1757,10.1211 -4.5078,5.6914 -6.5313,12.7967 -5.6993,20.0037 0.836,7.211 4.4297,13.668 10.1211,18.176 4.8516,3.848 10.7266,5.887 16.8243,5.887 1.0546,0 2.1171,-0.063 3.1796,-0.184 6.4063,-0.742 12.1329,-3.766 16.5117,-8.394 -10.4452,-6.586 -17.4218,-18.196 -17.4218,-31.4341 0,-1.6132 0.1016,-3.2031 0.3047,-4.7617 0.3476,-2.7383 2.8594,-4.6367 5.5859,-4.3242 2.7383,0.3516 4.6758,2.8555 4.3242,5.5938 -0.1484,1.1445 -0.2226,2.3085 -0.2226,3.4921 0,9.7271 5.1526,18.2461 12.8516,23.0511 1.715,-4.192 2.477,-8.727 1.941,-13.348 C 110.316,97.5742 106.723,91.1211 101.035,86.6094 95.3438,82.1016 88.2422,80.082 81.0273,80.9102 Z m 74.5937,64.3128 c -0.91,1.582 -2.496,2.562 -4.433,2.504 l -12.141,-0.254 c -2.758,-0.059 -4.945,-2.336 -4.895,-5.09 l 0.223,-11.746 c -3.43,1.047 -7.066,1.621 -10.836,1.621 -3.512,0 -6.898,-0.524 -10.125,-1.438 -0.043,0.059 -0.082,0.121 -0.129,0.176 -6.168,7.785 -14.992,12.699 -24.8553,13.84 -9.8789,1.156 -19.5859,-1.625 -27.3633,-7.793 -7.7851,-6.16 -12.6992,-14.996 -13.8398,-24.855 -1.1407,-9.864 1.625,-19.5825 7.7929,-27.3638 6.168,-7.7851 14.9961,-12.6953 24.8594,-13.8398 1.4531,-0.168 2.9063,-0.2539 4.3477,-0.2539 3.4375,0 6.789,0.5898 10.0429,1.5117 7.0195,-9.0156 17.6835,-14.3281 29.2695,-14.3281 20.5,0 37.172,16.6718 37.172,37.1718 0,10.7151 -4.582,20.3551 -11.859,27.1481 l 10.761,5.625 c 1.207,0.629 2.102,1.723 2.481,3.032 0.383,1.304 0.215,2.707 -0.465,3.89 l -6.008,10.442"
         style="fill:#000000;fill-opacity:1;fill-rule:nonzero;stroke:none"
         id="path14" />
    </g>
  </g>
</svg>
