<?xml version="1.0" encoding="utf-8"?>
<!-- Generator: Adobe Illustrator 25.4.1, SVG Export Plug-In . SVG Version: 6.00 Build 0)  -->
<svg version="1.1" id="Layer_1" xmlns="http://www.w3.org/2000/svg" xmlns:xlink="http://www.w3.org/1999/xlink" x="0px" y="0px"
	 viewBox="0 0 24 24" style="enable-background:new 0 0 24 24;" xml:space="preserve">
<g id="_x30_1">
	<g>
		<path d="M22.4,11.6l-4.5-6.8c-0.1-0.2-0.4-0.3-0.6-0.3H14l-0.6-1.7c-0.1-0.3-0.4-0.5-0.7-0.5H9c-0.3,0-0.6,0.2-0.7,0.5L7.7,4.5
			H2.2c-0.4,0-0.8,0.3-0.8,0.8V18c0,0.4,0.3,0.8,0.8,0.8h1.5c0,1.7,1.3,3,3,3s3-1.3,3-3h3.8c0,1.7,1.3,3,3,3s3-1.3,3-3h2.2
			c0.4,0,0.8-0.3,0.8-0.8v-6C22.5,11.9,22.5,11.7,22.4,11.6z M9.5,3.8h2.7l0.3,0.8H9.3L9.5,3.8z M6.8,20.2c-0.8,0-1.5-0.7-1.5-1.5
			c0-0.2,0-0.3,0.1-0.5c0.2-0.6,0.8-1,1.4-1s1.2,0.4,1.4,1c0.1,0.1,0.1,0.3,0.1,0.5C8.2,19.6,7.6,20.2,6.8,20.2z M16.5,20.2
			c-0.8,0-1.5-0.7-1.5-1.5c0-0.2,0-0.3,0.1-0.5c0.2-0.6,0.8-1,1.4-1c0.6,0,1.2,0.4,1.4,1c0.1,0.1,0.1,0.3,0.1,0.5
			C18,19.6,17.3,20.2,16.5,20.2z M19.1,17.2c-0.1,0-0.6-1.5-2.5-1.5s-2.7,1.2-2.9,1.5H12h-1.5l-1.1,0c-0.1-0.2-0.6-1.5-2.6-1.5
			c-2,0-2.9,1.3-2.9,1.5H3V6h5.2h5.2h3.3l4.2,6.2V14v1.5v1.7H19.1z"/>
		<path d="M17.9,11.6l-2.2-3.8c-0.1-0.2-0.4-0.4-0.6-0.4h-3c-0.4,0-0.8,0.3-0.8,0.8V12c0,0.4,0.3,0.8,0.8,0.8h5.2
			c0.3,0,0.6-0.1,0.7-0.4S18,11.8,17.9,11.6z M12.8,11.2V9h1.8l1.4,2.2H12.8z"/>
		<path d="M8.2,9.8H7.5V9c0-0.4-0.3-0.8-0.8-0.8S6,8.6,6,9v0.8H5.2c-0.4,0-0.8,0.3-0.8,0.8s0.3,0.8,0.8,0.8H6V12
			c0,0.4,0.3,0.8,0.8,0.8s0.8-0.3,0.8-0.8v-0.8h0.8c0.4,0,0.9-0.3,0.8-0.8C9.1,9.9,8.7,9.8,8.2,9.8z"/>
	</g>
</g>
</svg>
