<?xml version="1.0" encoding="utf-8"?>
<!-- Generator: Adobe Illustrator 25.4.1, SVG Export Plug-In . SVG Version: 6.00 Build 0)  -->
<svg version="1.1" id="Layer_1" xmlns="http://www.w3.org/2000/svg" xmlns:xlink="http://www.w3.org/1999/xlink" x="0px" y="0px"
	 viewBox="0 0 24 24" style="enable-background:new 0 0 24 24;" xml:space="preserve">
<g>
	<path d="M10,8.5h0.9v0.9c0,0.4,0.3,0.6,0.6,0.6s0.6-0.3,0.6-0.6V8.5h0.9c0.4,0,0.7-0.3,0.7-0.6s-0.3-0.6-0.7-0.6h-0.9V6.3
		c0-0.4-0.3-0.6-0.6-0.6s-0.6,0.3-0.6,0.6v0.9H10c-0.4,0-0.6,0.3-0.6,0.6S9.7,8.5,10,8.5z"/>
	<path d="M18.6,9.5l1.1-2.1c0.1-0.3,0.1-0.6-0.1-0.8c-5.4-5-9.8-5.1-15.2-0.2C4.2,6.6,4.1,6.9,4.2,7.2l1.1,2.4
		c-3.4,2.2-4.8,5.2-4.4,8.9C1,18.8,1.3,19,1.6,19h6.3c1,1.3,2.4,2.2,4,2.2c1.6,0,3-0.8,4-2.2l6.6,0c0.3,0,0.6-0.2,0.6-0.6
		C23.6,14.7,22.1,11.7,18.6,9.5z M7.8,13h2.3c-0.7,0.5-1.5,0.8-2.4,0.9C7.7,13.6,7.7,13.3,7.8,13z M16,13.9
		c-0.8-0.1-1.5-0.4-2.2-0.9h2.2C15.9,13.3,15.9,13.6,16,13.9z M18.3,7.2L16,11.7H7.7L5.6,7.1C10.2,3.1,13.7,3.1,18.3,7.2z M5.5,11
		c-1.6,2.2-2.2,4.4-2,6.7H2.2C2,14.9,3.1,12.7,5.5,11z M4.8,17.7c-0.3-2,0.2-3.8,1.5-5.7l0.2,0.5c-0.1,0.6-0.2,1.2-0.2,1.9
		c0,0.1,0,0.2,0,0.2c0,0,0,0,0,0c0,0,0,0,0,0c0,1.1,0.3,2.2,0.7,3.1H4.8z M11.8,19.9c-2.1,0-3.8-2-4.1-4.7c1.6-0.1,3-0.8,4.1-1.9
		c1.2,1,2.6,1.7,4.1,1.9C15.6,17.8,13.9,19.9,11.8,19.9z M17.3,14.7C17.3,14.7,17.3,14.7,17.3,14.7C17.3,14.6,17.3,14.6,17.3,14.7
		c0-0.2,0-0.3,0-0.4c0-0.6-0.1-1.2-0.2-1.8l0.3-0.6c1.4,1.9,1.9,3.8,1.6,5.8l-2.4,0C17,16.8,17.2,15.8,17.3,14.7z M21.8,17.7l-1.5,0
		c0.3-2.4-0.4-4.7-2.2-6.9C20.8,12.5,22,14.8,21.8,17.7z"/>
</g>
</svg>
