<?xml version="1.0" encoding="utf-8"?>
<!-- Generator: Adobe Illustrator 25.4.1, SVG Export Plug-In . SVG Version: 6.00 Build 0)  -->
<svg version="1.1" id="Layer_1" xmlns="http://www.w3.org/2000/svg" xmlns:xlink="http://www.w3.org/1999/xlink" x="0px" y="0px"
	 viewBox="0 0 24 24" style="enable-background:new 0 0 24 24;" xml:space="preserve">
<g id="layer2">
	<path id="rect896" d="M2.3,1.5C2.3,1.5,2.3,1.5,2.3,1.5c-0.5,0-0.8,0.4-0.8,0.9v7.9c0,5.1,2.6,8.3,5.2,10s5.1,2.2,5.1,2.2
		c0.1,0,0.2,0,0.3,0c0,0,2.6-0.5,5.1-2.2s5.2-4.9,5.2-10V2.4c0-0.5-0.4-0.9-0.9-0.9c-0.1,0-0.3,0-0.4,0.1c-3.3,1.6-6.4,1.6-8.7,0.1
		c-0.3-0.2-0.7-0.2-1,0C9.2,3.2,6.1,3.2,2.8,1.6C2.6,1.5,2.5,1.5,2.3,1.5z M12,3.2c2.5,1.5,5.6,1.4,8.7,0.2v6.8c0,4.5-2.2,7-4.4,8.6
		c-2.2,1.5-4.2,1.8-4.3,1.9c-0.1,0-2.2-0.4-4.3-1.9c-2.2-1.5-4.4-4-4.4-8.6V3.5C6.4,4.7,9.5,4.7,12,3.2z M12,5C12,5,11.9,5,12,5
		c-0.2,0-0.3,0-0.3,0.1C9.8,5.9,8,6.1,6,5.9C5.5,5.8,5.1,6.1,5,6.6c0,0,0,0.1,0,0.1v3.6c0,3.9,1.8,5.9,3.6,7.2
		c1.6,1.1,2.8,1.3,3.1,1.4c0.1,0,0.3,0,0.4,0c0.4-0.1,1.6-0.3,3.1-1.4c1.8-1.3,3.7-3.3,3.7-7.2V6.7c0-0.5-0.4-0.9-0.9-0.9
		c0,0-0.1,0-0.1,0c-2,0.3-3.9,0-5.7-0.8C12.2,5,12.1,5,12,5z M12,6.7c1.7,0.7,3.4,0.8,5.3,0.7v2.9c0,3.4-1.3,4.6-2.9,5.7
		c-1.2,0.8-1.9,0.9-2.4,1.1c-0.5-0.1-1.1-0.2-2.4-1.1C8,15,6.7,13.8,6.7,10.4V7.5C8.6,7.6,10.3,7.4,12,6.7z M12,8.5
		c-0.5,0-0.9,0.4-0.9,0.9v1.7H9.4c0,0-0.1,0-0.1,0c-0.5,0-0.8,0.5-0.8,0.9c0,0.5,0.4,0.8,0.9,0.8h1.7v1.8c0,0.5,0.4,0.9,0.9,0.9
		c0.5,0,0.9-0.4,0.9-0.9c0,0,0,0,0,0v-1.8h1.8c0.5,0,0.9-0.4,0.9-0.9c0-0.5-0.4-0.9-0.9-0.9c0,0,0,0,0,0h-1.8V9.4
		C12.9,8.9,12.5,8.5,12,8.5C12,8.5,12,8.5,12,8.5z"/>
</g>
</svg>
