<?xml version="1.0" encoding="utf-8"?>
<!-- Generator: Adobe Illustrator 25.4.1, SVG Export Plug-In . SVG Version: 6.00 Build 0)  -->
<svg version="1.1" id="Layer_1" xmlns="http://www.w3.org/2000/svg" xmlns:xlink="http://www.w3.org/1999/xlink" x="0px" y="0px"
	 viewBox="0 0 24 24" style="enable-background:new 0 0 24 24;" xml:space="preserve">
<g>
	<path d="M13.4,7.2h-0.7V6.5c0-0.4-0.3-0.7-0.7-0.7s-0.7,0.3-0.7,0.7v0.7h-0.7c-0.4,0-0.7,0.3-0.7,0.7s0.3,0.7,0.7,0.7h0.7v0.7
		c0,0.4,0.3,0.7,0.7,0.7s0.7-0.3,0.7-0.7V8.5h0.7c0.4,0,0.7-0.3,0.7-0.7S13.7,7.2,13.4,7.2z"/>
	<path d="M12,16.5c-0.4,0-0.7,0.3-0.7,0.7v2.7c0,0.4,0.3,0.7,0.7,0.7s0.7-0.3,0.7-0.7v-2.7C12.7,16.8,12.4,16.5,12,16.5z"/>
	<path d="M4,14.7h0.3C4.7,14.7,5,14.4,5,14s-0.3-0.7-0.7-0.7H4c-0.4,0-0.7,0.3-0.7,0.7S3.6,14.7,4,14.7z"/>
	<path d="M4.3,15.3H4c-0.4,0-0.7,0.3-0.7,0.7s0.3,0.7,0.7,0.7h0.3c0.4,0,0.7-0.3,0.7-0.7S4.7,15.3,4.3,15.3z"/>
	<path d="M22.6,9.2h-4.3V2.6c0-0.4-0.3-0.7-0.7-0.7h0H6.5h0c-0.4,0-0.7,0.3-0.7,0.7v6.6H1.5c-0.4,0-0.7,0.3-0.7,0.7v11.5
		c0,0.4,0.3,0.7,0.7,0.7h5h11.1h5c0.4,0,0.7-0.3,0.7-0.7V9.8C23.3,9.5,23,9.2,22.6,9.2z M2.2,10.5h3.6v10.2H2.2V10.5z M7.2,20.7V3.3
		h9.8v17.4H7.2z M21.9,20.7h-3.6V10.5h3.6V20.7z"/>
	<path d="M19.8,14.7h0.3c0.4,0,0.7-0.3,0.7-0.7s-0.3-0.7-0.7-0.7h-0.3c-0.4,0-0.7,0.3-0.7,0.7S19.4,14.7,19.8,14.7z"/>
	<path d="M20.1,15.3h-0.3c-0.4,0-0.7,0.3-0.7,0.7s0.3,0.7,0.7,0.7h0.3c0.4,0,0.7-0.3,0.7-0.7S20.5,15.3,20.1,15.3z"/>
</g>
</svg>
