<?xml version="1.0" encoding="utf-8"?>
<!-- Generator: Adobe Illustrator 25.4.1, SVG Export Plug-In . SVG Version: 6.00 Build 0)  -->
<svg version="1.1" id="Layer_1" xmlns="http://www.w3.org/2000/svg" xmlns:xlink="http://www.w3.org/1999/xlink" x="0px" y="0px"
	 viewBox="0 0 24 24" style="enable-background:new 0 0 24 24;" xml:space="preserve">
<path d="M14.9,6.5V4.4C15.5,4.2,16,3.6,16,2.9V2.3c0-0.9-0.7-1.5-1.5-1.5H9.7c-0.9,0-1.5,0.7-1.5,1.5v0.6c0,0.7,0.5,1.3,1.1,1.5v2.1
	c-3.5,1.2-5.9,4.4-5.9,8.2c0,4.7,3.9,8.6,8.6,8.6c4.7,0,8.6-3.9,8.6-8.6C20.6,11,18.3,7.7,14.9,6.5z M9.6,2.3
	C9.6,2.3,9.6,2.3,9.6,2.3h4.9l0,0.6l-4.8,0V2.3z M10.2,7.8c0.3-0.1,0.6-0.4,0.6-0.7V4.4h2.6v2.7c0,0.3,0.2,0.6,0.5,0.7
	c2.8,0.8,4.8,3.2,5.1,6.1H5C5.3,11,7.3,8.5,10.2,7.8z M12,21.8c-3.7,0-6.7-2.8-7.1-6.4h14.1C18.7,19,15.7,21.8,12,21.8z"/>
</svg>
