<?xml version="1.0" encoding="utf-8"?>
<!-- Generator: Adobe Illustrator 25.4.1, SVG Export Plug-In . SVG Version: 6.00 Build 0)  -->
<svg version="1.1" id="Layer_1" xmlns="http://www.w3.org/2000/svg" xmlns:xlink="http://www.w3.org/1999/xlink" x="0px" y="0px"
	 viewBox="0 0 24 24" style="enable-background:new 0 0 24 24;" xml:space="preserve">
<style type="text/css">
	.st0{fill:#1D1D1B;}
</style>
<g>
	<path class="st0" d="M15.3,4.5C15.3,4.5,15.3,4.5,15.3,4.5l0-2.3c0-0.8-0.6-1.4-1.4-1.4h-3.8c-0.8,0-1.4,0.6-1.4,1.4v2.2
		c0,0,0,0,0,0C7.2,5.4,6.1,7.1,6.1,9v12.8c0,0.8,0.6,1.4,1.4,1.4h9c0.8,0,1.4-0.6,1.4-1.4V9C17.9,7.1,16.8,5.4,15.3,4.5z M10,3.9
		V2.3c0-0.1,0-0.1,0.1-0.1h3.8c0.1,0,0.1,0,0.1,0.1v1.6h-1.2h-1.5H10z M11.2,5.2h1.5c1.8,0,3.2,1.2,3.7,2.8H7.6
		C8,6.4,9.5,5.2,11.2,5.2z M16.5,21.8h-9c-0.1,0-0.1,0-0.1-0.1V9.3h9.2L16.5,21.8C16.6,21.8,16.6,21.8,16.5,21.8z"/>
	<path class="st0" d="M15,14.2h-1.8v-1.8c0-0.3-0.2-0.5-0.5-0.5h-1.5c-0.3,0-0.5,0.2-0.5,0.5v1.8H9c-0.3,0-0.5,0.2-0.5,0.5v1.5
		c0,0.3,0.2,0.5,0.5,0.5h1.8v2.1c0,0.3,0.2,0.5,0.5,0.5h1.5c0.3,0,0.5-0.2,0.5-0.5v-2.1H15c0.3,0,0.5-0.2,0.5-0.5v-1.5
		C15.5,14.4,15.3,14.2,15,14.2z M14.5,15.7h-1.8c-0.3,0-0.5,0.2-0.5,0.5v2.1h-0.5v-2.1c0-0.3-0.2-0.5-0.5-0.5H9.5v-0.5h1.8
		c0.3,0,0.5-0.2,0.5-0.5v-1.8h0.5v1.8c0,0.3,0.2,0.5,0.5,0.5h1.8V15.7z"/>
</g>
</svg>
