<?xml version="1.0" encoding="utf-8"?>
<!-- Generator: Adobe Illustrator 25.4.1, SVG Export Plug-In . SVG Version: 6.00 Build 0)  -->
<svg version="1.1" id="Layer_1" xmlns="http://www.w3.org/2000/svg" xmlns:xlink="http://www.w3.org/1999/xlink" x="0px" y="0px"
	 viewBox="0 0 24 24" style="enable-background:new 0 0 24 24;" xml:space="preserve">
<g>
	<path d="M22.5,17.8L22.5,17.8V8.5c0-1.8-1.5-3.3-3.3-3.3h-2.8V4.4c0-1-0.8-1.8-1.8-1.8H9.4c-1,0-1.8,0.8-1.8,1.8v0.9H4.8
		C3,5.3,1.5,6.7,1.5,8.5v9.6c0,1.8,1.5,3.3,3.3,3.3h14.5c1,0,1.9-0.4,2.5-1.1C22.6,19.3,22.5,17.8,22.5,17.8L22.5,17.8z M8.9,4.4
		C8.9,4.2,9.1,4,9.4,4h5.3c0.2,0,0.4,0.2,0.4,0.4v0.9H8.9V4.4z M2.9,17.2V8.5c0-1,0.8-1.8,1.9-1.8h3.5h7.5h3.5c1,0,1.9,0.8,1.9,1.9
		v8.6l-0.1,1.3c-0.2,0.9-1,1.5-1.9,1.5H4.8c-0.9,0-1.6-0.6-1.8-1.5L2.9,17.2z"/>
	<path d="M10.6,18.1c-0.4,0-0.7-0.3-0.7-0.7v-2h-2c-0.3,0-0.7-0.3-0.7-0.7V12c0-0.4,0.3-0.7,0.7-0.7h2v-2c0-0.4,0.3-0.7,0.7-0.7h2.7
		c0.4,0,0.7,0.3,0.7,0.7v2h2c0.4,0,0.7,0.3,0.7,0.7v2.7c0,0.4-0.3,0.7-0.7,0.7h-2v2c0,0.4-0.3,0.7-0.7,0.7H10.6z M8.6,14h2
		c0.4,0,0.7,0.3,0.7,0.7v2h1.3v-2c0-0.4,0.3-0.7,0.7-0.7h2v-1.3h-2c-0.4,0-0.7-0.3-0.7-0.7v-2h-1.3v2c0,0.4-0.3,0.7-0.7,0.7h-2V14z"
		/>
</g>
</svg>
