<?xml version="1.0" encoding="utf-8"?>
<!-- Generator: Adobe Illustrator 25.4.1, SVG Export Plug-In . SVG Version: 6.00 Build 0)  -->
<svg version="1.1" id="Layer_1" xmlns="http://www.w3.org/2000/svg" xmlns:xlink="http://www.w3.org/1999/xlink" x="0px" y="0px"
	 viewBox="0 0 24 24" style="enable-background:new 0 0 24 24;" xml:space="preserve">
<g>
	<path d="M17.4,2.1h-1.9c-0.3-0.8-1-1.3-1.9-1.3h-3.1c-0.9,0-1.6,0.5-1.9,1.3H6.6c-1.7,0-3,1.4-3,3v15.1c0,1.7,1.4,3,3,3h10.8
		c1.7,0,3-1.4,3-3V5.1C20.4,3.4,19.1,2.1,17.4,2.1z M10.4,2.3h3.1c0.3,0,0.6,0.2,0.6,0.6s-0.2,0.6-0.6,0.6h-3.1
		c-0.3,0-0.6-0.2-0.6-0.6S10.1,2.3,10.4,2.3z M18.9,20.2c0,0.9-0.7,1.5-1.5,1.5H6.6c-0.9,0-1.5-0.7-1.5-1.5V5.1
		c0-0.9,0.7-1.5,1.5-1.5h1.9c0,0,0,0,0,0C8.6,3.7,8.7,3.9,8.8,4c0,0,0.1,0.1,0.1,0.1C9,4.3,9.1,4.4,9.2,4.5c0,0,0,0,0,0
		c0.1,0.1,0.3,0.2,0.5,0.2c0,0,0.1,0,0.1,0c0.2,0.1,0.4,0.1,0.6,0.1h3.1c0.2,0,0.4,0,0.6-0.1c0,0,0.1,0,0.1,0
		c0.2-0.1,0.3-0.1,0.5-0.2c0,0,0,0,0,0c0.1-0.1,0.3-0.2,0.4-0.3c0,0,0.1-0.1,0.1-0.1c0.1-0.1,0.2-0.3,0.3-0.5c0,0,0,0,0,0h1.9
		c0.9,0,1.5,0.7,1.5,1.5V20.2z"/>
	<path d="M9.6,10.9h0.7v0.7c0,0.4,0.3,0.6,0.6,0.6H13c0.4,0,0.7-0.3,0.7-0.6v-0.7h0.7c0.4,0,0.7-0.3,0.7-0.6V8.2
		c0-0.4-0.3-0.6-0.7-0.6h-0.7V6.8c0-0.4-0.3-0.6-0.7-0.6H11c-0.4,0-0.6,0.3-0.6,0.6v0.7H9.6C9.2,7.6,9,7.8,9,8.2v2.1
		C9,10.6,9.2,10.9,9.6,10.9z M10.2,8.9H11c0.4,0,0.6-0.3,0.6-0.6V7.5h0.8v0.7c0,0.4,0.3,0.6,0.6,0.6h0.7v0.8H13
		c-0.4,0-0.6,0.3-0.6,0.6V11h-0.8v-0.7c0-0.4-0.3-0.6-0.6-0.6h-0.7V8.9z"/>
	<path d="M14.9,13.9H7c-0.4,0-0.6,0.3-0.6,0.7s0.3,0.7,0.6,0.7h7.9c0.4,0,0.7-0.3,0.7-0.7S15.3,13.9,14.9,13.9z"/>
	<path d="M13,16.4H7c-0.4,0-0.6,0.3-0.6,0.7s0.3,0.7,0.6,0.7h6c0.4,0,0.6-0.3,0.6-0.7S13.4,16.4,13,16.4z"/>
	<path d="M13,18.9H7c-0.4,0-0.6,0.3-0.6,0.7s0.3,0.7,0.6,0.7h6c0.4,0,0.6-0.3,0.6-0.7S13.4,18.9,13,18.9z"/>
</g>
</svg>
