<?xml version="1.0" encoding="utf-8"?>
<!-- Generator: Adobe Illustrator 25.4.1, SVG Export Plug-In . SVG Version: 6.00 Build 0)  -->
<svg version="1.1" id="Layer_1" xmlns="http://www.w3.org/2000/svg" xmlns:xlink="http://www.w3.org/1999/xlink" x="0px" y="0px"
	 viewBox="0 0 24 24" style="enable-background:new 0 0 24 24;" xml:space="preserve">
<g id="_x30_1">
	<g>
		<path d="M22.5,5.6c0-1.1-0.4-2.1-1.2-2.9c-0.8-0.8-1.8-1.2-2.9-1.2s-2.1,0.4-2.9,1.2L2.7,15.4c-0.8,0.8-1.2,1.8-1.2,2.9
			s0.4,2.1,1.2,2.9s1.8,1.2,2.9,1.2l0,0c1.1,0,2.1-0.4,2.9-1.2l3.3-3.3l0,0l6.1-6.1l0,0l3.3-3.3C22.1,7.8,22.5,6.8,22.5,5.6z
			 M7.5,20.2C7,20.7,6.3,21,5.6,21s-1.4-0.3-1.9-0.8C3.3,19.7,3,19.1,3,18.4s0.3-1.4,0.8-1.9l5.7-5.8l3.7,3.7L7.5,20.2z M13.7,6.6
			l2.8-2.8C17,3.3,17.7,3,18.4,3c0.7,0,1.4,0.3,1.9,0.8C20.7,4.3,21,4.9,21,5.6S20.7,7,20.2,7.5l-2.8,2.8l-1.1,1.1l-2.1,2l-3.7-3.7
			l2.1-2L13.7,6.6z"/>
	</g>
</g>
<g>
	<path d="M5.4,19.7c-0.2,0-0.3,0-0.4,0c-0.4-0.1-0.6-0.4-0.6-0.7c0.1-0.4,0.4-0.6,0.7-0.6c0.1,0,1.7,0.2,3-1.6
		c0.2-0.3,0.6-0.4,0.9-0.2c0.3,0.2,0.4,0.6,0.2,0.9C7.9,19.4,6.1,19.7,5.4,19.7z"/>
</g>
</svg>
