<?xml version="1.0" encoding="utf-8"?>
<!-- Generator: Adobe Illustrator 25.4.1, SVG Export Plug-In . SVG Version: 6.00 Build 0)  -->
<svg version="1.1" id="Layer_1" xmlns="http://www.w3.org/2000/svg" xmlns:xlink="http://www.w3.org/1999/xlink" x="0px" y="0px"
	 viewBox="0 0 24 24" style="enable-background:new 0 0 24 24;" xml:space="preserve">
<g id="_x30_1">
	<g>
		<path d="M22.5,5.6c0-1.1-0.4-2.1-1.2-2.9c-0.8-0.8-1.8-1.2-2.9-1.2c-1.1,0-2.1,0.4-2.9,1.2L2.7,15.4c-0.8,0.8-1.2,1.8-1.2,2.9
			c0,1.1,0.4,2.1,1.2,2.9c0.8,0.8,1.8,1.2,2.9,1.2c0,0,0,0,0,0c1.1,0,2.1-0.4,2.9-1.2l3.3-3.3c0,0,0,0,0,0l6.1-6.1c0,0,0,0,0,0
			l3.3-3.3C22.1,7.8,22.5,6.8,22.5,5.6z M11.3,16.4l-3.7-3.7l5-5l3.7,3.7L11.3,16.4z M7.5,20.2C7,20.7,6.3,21,5.6,21
			s-1.4-0.3-1.9-0.8C3.3,19.7,3,19.1,3,18.4c0-0.7,0.3-1.4,0.8-1.9l2.8-2.8l3.7,3.7L7.5,20.2z M20.2,7.5l-2.8,2.8l-3.7-3.7l2.8-2.8
			C17,3.3,17.7,3,18.4,3c0.7,0,1.4,0.3,1.9,0.8C20.7,4.3,21,4.9,21,5.6C21,6.3,20.7,7,20.2,7.5z"/>
		<path d="M12.2,9.2c-0.1,0.1-0.1,0.1-0.2,0.2C12,9.6,12,9.7,12,9.7c0,0.2,0.1,0.4,0.2,0.5c0.1,0.1,0.1,0.1,0.2,0.2
			c0.1,0,0.2,0.1,0.3,0.1c0.2,0,0.4-0.1,0.5-0.2c0.1-0.1,0.2-0.3,0.2-0.5c0-0.2-0.1-0.4-0.2-0.5c-0.2-0.2-0.5-0.3-0.8-0.2
			C12.4,9.1,12.3,9.1,12.2,9.2z"/>
		<path d="M13,11.5c-0.1,0.1-0.2,0.3-0.2,0.5c0,0.2,0.1,0.4,0.2,0.5c0.1,0.1,0.3,0.2,0.5,0.2c0.2,0,0.4-0.1,0.5-0.2
			c0.1-0.1,0.2-0.3,0.2-0.5c0-0.2-0.1-0.4-0.2-0.5C13.7,11.2,13.2,11.2,13,11.5z"/>
		<path d="M11,12.5c0.1-0.1,0.2-0.3,0.2-0.5c0-0.2-0.1-0.4-0.2-0.5c-0.2-0.2-0.5-0.3-0.8-0.2c-0.1,0-0.2,0.1-0.2,0.2
			c-0.1,0.1-0.2,0.3-0.2,0.5c0,0.2,0.1,0.4,0.2,0.5c0.1,0.1,0.1,0.1,0.2,0.2c0.1,0,0.2,0.1,0.3,0.1C10.7,12.8,10.9,12.7,11,12.5z"/>
		<path d="M10.7,13.7c-0.1,0.1-0.2,0.3-0.2,0.5c0,0.1,0,0.2,0.1,0.3c0,0.1,0.1,0.2,0.2,0.2c0.1,0.1,0.3,0.2,0.5,0.2
			c0.2,0,0.4-0.1,0.5-0.2c0.1-0.1,0.2-0.3,0.2-0.5c0-0.2-0.1-0.4-0.2-0.5C11.5,13.4,11,13.4,10.7,13.7z"/>
	</g>
</g>
</svg>
