<?xml version="1.0" encoding="utf-8"?>
<!-- Generator: Adobe Illustrator 25.4.1, SVG Export Plug-In . SVG Version: 6.00 Build 0)  -->
<svg version="1.1" id="Layer_1" xmlns="http://www.w3.org/2000/svg" xmlns:xlink="http://www.w3.org/1999/xlink" x="0px" y="0px"
	 viewBox="0 0 24 24" style="enable-background:new 0 0 24 24;" xml:space="preserve">
<g>
	<path d="M15.2,21.9c-0.4,0-0.7-0.2-0.8-0.6L8.9,5.6l-2.3,6.6c-0.1,0.4-0.5,0.6-0.8,0.6H1.5c-0.5,0-0.9-0.4-0.9-0.9s0.4-0.9,0.9-0.9
		h3.6L8,2.7c0.1-0.4,0.5-0.6,0.8-0.6c0.4,0,0.7,0.2,0.8,0.6l5.5,15.6l2.3-6.6c0.1-0.4,0.5-0.6,0.8-0.6h4.2c0.5,0,0.9,0.4,0.9,0.9
		s-0.4,0.9-0.9,0.9h-3.6L16,21.3C15.9,21.6,15.5,21.9,15.2,21.9z"/>
</g>
</svg>
