<?xml version="1.0" encoding="utf-8"?>
<!-- Generator: Adobe Illustrator 25.4.1, SVG Export Plug-In . SVG Version: 6.00 Build 0)  -->
<svg version="1.1" id="Layer_1" xmlns="http://www.w3.org/2000/svg" xmlns:xlink="http://www.w3.org/1999/xlink" x="0px" y="0px"
	 viewBox="0 0 24 24" style="enable-background:new 0 0 24 24;" xml:space="preserve">
<path d="M21.5,4.7c-0.9-2.2-3-3.8-5.1-3.9c-1-0.1-2.9,0.2-4.4,2.2c-1.5-2-3.4-2.3-4.4-2.2C5.4,0.9,3.4,2.5,2.5,4.7
	c-1,2.4-0.4,5,1.5,7.2c1.9,2.2,2,4,2.2,6c0.1,1.7,0.2,3.4,1.6,5.1c0.2,0.2,0.5,0.3,0.8,0.3C8.7,23.1,9,22.9,9,22.6
	c0.7-3.5,1.1-5.4,3-5.5c1.9,0.1,2.4,1.9,3,5.5c0.1,0.3,0.3,0.5,0.6,0.6c0.1,0,0.1,0,0.2,0c0.2,0,0.4-0.1,0.6-0.3
	c1.4-1.7,1.5-3.5,1.6-5.1c0.1-1.9,0.3-3.8,2.1-6C22,9.7,22.5,7.1,21.5,4.7z M18.9,10.9c-2.2,2.6-2.4,4.9-2.5,6.9
	c-0.1,0.9-0.1,1.8-0.4,2.6c-0.6-2.5-1.5-4.5-4.1-4.7c-2.5,0.1-3.4,2.1-4,4.7c-0.2-0.8-0.3-1.7-0.4-2.6c-0.1-2-0.3-4.3-2.5-6.9
	c-1.5-1.7-2-3.7-1.2-5.6c0.7-1.7,2.2-2.9,3.8-3c1.3-0.1,2.5,0.6,3.4,2c-0.4,0.5-0.9,1.5-1.1,2.3C10,7,10.2,7.4,10.7,7.4
	c0.4,0.1,0.8-0.2,0.9-0.6C11.6,6.5,11.8,6,12,5.6c0.2,0.4,0.5,0.8,0.6,1.3c0.1,0.3,0.4,0.6,0.7,0.6c0.1,0,0.1,0,0.2,0
	c0.4-0.1,0.7-0.5,0.6-0.9c-0.2-0.9-0.8-1.8-1.2-2.3c0.9-1.4,2.1-2.1,3.4-2c1.6,0.1,3.1,1.3,3.8,3C20.9,7.1,20.5,9.2,18.9,10.9z"/>
</svg>
