<?xml version="1.0" encoding="utf-8"?>
<!-- Generator: Adobe Illustrator 25.4.1, SVG Export Plug-In . SVG Version: 6.00 Build 0)  -->
<svg version="1.1" id="Layer_1" xmlns="http://www.w3.org/2000/svg" xmlns:xlink="http://www.w3.org/1999/xlink" x="0px" y="0px"
	 viewBox="0 0 24 24" style="enable-background:new 0 0 24 24;" xml:space="preserve">
<path d="M16.1,22.2c-3.9,0-7.5-2.3-9.2-5.8l-0.1-0.2h-2c-0.7,0-1.2-0.6-1.2-1.2c0-0.7,0.5-1.2,1.2-1.2h1.3l-0.1-0.4
	C6,13,5.9,12.5,5.9,12c0-0.5,0-1,0.1-1.4l0.1-0.3H4.9c-0.7,0-1.2-0.5-1.2-1.2s0.5-1.2,1.2-1.2h2l0.1-0.2c1.7-3.5,5.2-5.8,9-5.8
	c1.2,0,2.4,0.2,3.6,0.6c0.3,0.1,0.5,0.3,0.7,0.6c0.1,0.3,0.2,0.6,0,0.9c-0.2,0.5-0.6,0.8-1.1,0.8c-0.1,0-0.3,0-0.4-0.1
	c-0.8-0.3-1.7-0.5-2.6-0.5c-2.4,0-4.8,1.2-6.2,3.1L9.6,7.8h4.3c0.7,0,1.2,0.5,1.2,1.2c0,0.7-0.5,1.2-1.2,1.2H8.5l0,0.2
	c-0.2,1-0.2,2.1,0,3.1l0,0.2h5.3c0.6,0,1.2,0.5,1.2,1.2c0,0.3-0.1,0.6-0.3,0.9c-0.2,0.2-0.5,0.4-0.8,0.4H9.6l0.4,0.5
	c1.5,1.9,3.8,3.1,6.2,3.1c0.9,0,1.8-0.2,2.6-0.5c0.1,0,0.3-0.1,0.4-0.1c0.5,0,1,0.3,1.1,0.8c0.2,0.6-0.1,1.3-0.7,1.5
	C18.4,22,17.3,22.2,16.1,22.2z"/>
</svg>
