<?xml version="1.0" encoding="utf-8"?>
<!-- Generator: Adobe Illustrator 25.4.1, SVG Export Plug-In . SVG Version: 6.00 Build 0)  -->
<svg version="1.1" id="Layer_1" xmlns="http://www.w3.org/2000/svg" xmlns:xlink="http://www.w3.org/1999/xlink" x="0px" y="0px"
	 viewBox="0 0 24 24" style="enable-background:new 0 0 24 24;" xml:space="preserve">
<path d="M19.9,10.7c0.6,0,1-0.4,1-1s-0.4-1-1-1h-0.1c0.7-0.9,1.1-1.9,1.1-3.1c0-2.2-1.1-4.8-6.5-4.8H8.8c-0.6,0-1,0.4-1,1s0.4,1,1,1
	h5.5c4,0,4.5,1.4,4.5,2.8c0,1.2-0.8,2.2-2,3.1H4.1c-0.6,0-1,0.4-1,1s0.4,1,1,1h8.7c-0.3,0.1-0.7,0.2-1,0.4c-1.2,0.4-2.8,0.9-4.3,1.7
	H4.1c-0.6,0-1,0.4-1,1c0,0.6,0.4,1,1,1h0.6c-0.9,1-1.5,2.1-1.5,3.6c0,2.2,1.1,4.8,6.5,4.8h5.5c0.6,0,1-0.4,1-1s-0.4-1-1-1H9.7
	c-4,0-4.5-1.4-4.5-2.8c0-1.5,1.1-2.6,2.8-3.6h12c0.6,0,1-0.4,1-1c0-0.6-0.4-1-1-1h-7.1c1.4-0.5,3.2-1.1,4.7-2.1H19.9z"/>
</svg>
