<?xml version="1.0" encoding="utf-8"?>
<!-- Generator: Adobe Illustrator 25.4.1, SVG Export Plug-In . SVG Version: 6.00 Build 0)  -->
<svg version="1.1" id="Layer_1" xmlns="http://www.w3.org/2000/svg" xmlns:xlink="http://www.w3.org/1999/xlink" x="0px" y="0px"
	 viewBox="0 0 24 24" style="enable-background:new 0 0 24 24;" xml:space="preserve">
<path d="M18,16.3c0-3.4-2.3-4.6-5-5.1V5.1c2.6,0.3,2.8,2,2.8,2.2c0,0.6,0.5,1,1,1c0.6,0,1-0.5,1-1c-0.1-1.3-1.2-3.7-4.8-4.1V1.5
	c0-0.6-0.4-1-1-1s-1,0.4-1,1v1.6C9.4,3.2,8.2,3.7,7.3,4.6C6.1,5.7,6,7.1,6,7.7c0,3.5,3.2,4.7,5,5.1v6.1c-2.6-0.3-2.8-2-2.8-2.2
	c0-0.5-0.5-1-1-0.9c-0.6,0-1,0.5-1,1c0.1,1.3,1.2,3.7,4.8,4.1v1.6c0,0.6,0.4,1,1,1s1-0.4,1-1v-1.6c1.8-0.2,3-1,3.6-1.6
	C17.7,18.3,18,17,18,16.3z M8,7.7C8,7.4,8.1,6.6,8.7,6c0.5-0.5,1.3-0.8,2.3-1v5.7C8.4,10,8,8.8,8,7.7z M15.2,17.9
	c-0.5,0.5-1.3,0.9-2.2,1v-5.7c2.5,0.6,3,1.5,3,3C16,16.5,15.9,17.2,15.2,17.9z"/>
</svg>
