<?xml version="1.0" encoding="utf-8"?>
<!-- Generator: Adobe Illustrator 25.4.1, SVG Export Plug-In . SVG Version: 6.00 Build 0)  -->
<svg version="1.1" id="Layer_1" xmlns="http://www.w3.org/2000/svg" xmlns:xlink="http://www.w3.org/1999/xlink" x="0px" y="0px"
	 viewBox="0 0 24 24" style="enable-background:new 0 0 24 24;" xml:space="preserve">
<path d="M23.1,11.1l-2-2.7l2-2c0.2-0.2,0.3-0.4,0.2-0.7S23,5.3,22.8,5.2L14.7,2c-0.3-0.1-0.6,0-0.8,0.2L12,4.1l-1.9-1.9
	C9.9,2,9.6,1.9,9.3,2L1.2,5.2C1,5.3,0.8,5.5,0.8,5.8C0.7,6,0.8,6.3,1,6.5l2,2l-2,2.7c-0.1,0.2-0.2,0.4-0.1,0.7s0.2,0.4,0.4,0.5
	l2,0.8c0,0,0,0.1,0,0.1v4.8c0,0.3,0.2,0.6,0.5,0.7l8.1,3.2c0.1,0,0.2,0.1,0.3,0.1s0.2,0,0.3-0.1l8.1-3.2c0.3-0.1,0.5-0.4,0.5-0.7
	v-4.8c0,0,0-0.1,0-0.1l2-0.8c0.2-0.1,0.4-0.3,0.4-0.5C23.3,11.6,23.2,11.3,23.1,11.1z M14.6,3.6l6.6,2.6l-1.3,1.3l-6.6-2.6L14.6,3.6
	z M12,10.8L5.9,8.4L12,5.9l6.1,2.4L12,10.8z M9.4,3.6l1.3,1.3L4.1,7.5L2.8,6.2L9.4,3.6z M4.2,9.3l6.6,2.7l-1.5,2l-6.6-2.7L4.2,9.3z
	 M19.3,17.5L12,20.5l-7.3-2.9v-3.9l4.6,1.9c0.1,0,0.2,0.1,0.3,0.1c0.2,0,0.5-0.1,0.6-0.3l1.8-2.4l1.8,2.4c0.1,0.2,0.4,0.3,0.6,0.3
	c0.1,0,0.2,0,0.3-0.1l4.6-1.9V17.5z M14.7,13.9l-1.5-2l6.6-2.7l1.5,2L14.7,13.9z"/>
</svg>
