<?xml version="1.0" encoding="utf-8"?>
<!-- Generator: Adobe Illustrator 25.4.1, SVG Export Plug-In . SVG Version: 6.00 Build 0)  -->
<svg version="1.1" id="Layer_1" xmlns="http://www.w3.org/2000/svg" xmlns:xlink="http://www.w3.org/1999/xlink" x="0px" y="0px"
	 viewBox="0 0 24 24" style="enable-background:new 0 0 24 24;" xml:space="preserve">
<g>
	<path d="M21.1,16.3H21l-0.9-7.6c-0.1-0.3-0.4-0.5-0.7-0.5H8.8V6.9h1.7c0.4,0,0.7-0.3,0.7-0.7V3.6c0-0.4-0.3-0.7-0.7-0.7H5.7
		C5.3,2.9,5,3.2,5,3.6v2.6c0,0.4,0.3,0.7,0.7,0.7h1.7v1.3H4.9c-0.3,0-0.6,0.2-0.7,0.5L3,16.3H2.9c-0.9,0-1.6,0.7-1.6,1.6v1.6
		c0,0.9,0.7,1.6,1.6,1.6h18.3c0.9,0,1.6-0.7,1.6-1.6V18C22.8,17.1,22,16.3,21.1,16.3z M18.9,9.6l0.6,6.7h-15l0.9-6.7
		C5.4,9.6,18.9,9.6,18.9,9.6z M6.4,5.5V4.3h3.4v1.2H6.4z M21.3,17.9v1.6c0,0.1-0.1,0.1-0.2,0.1H2.9c-0.1,0-0.2-0.1-0.2-0.2v-1.6
		c0-0.1,0.1-0.2,0.2-0.2h18.3C21.2,17.7,21.3,17.8,21.3,17.9z"/>
	<path d="M7.1,14.9h3.2c0.2,0,0.5-0.2,0.5-0.5v-3.2c0-0.3-0.2-0.5-0.5-0.5H7.1c-0.2,0-0.5,0.2-0.5,0.5v3.2
		C6.6,14.7,6.8,14.9,7.1,14.9z M7.5,11.7h2.3V14H7.5V11.7z"/>
	<path d="M12.9,11.7h3.5c0.2,0,0.4-0.2,0.4-0.4s-0.2-0.4-0.4-0.4h-3.5c-0.2,0-0.4,0.2-0.4,0.4C12.5,11.6,12.7,11.7,12.9,11.7z"/>
	<path d="M13,13.3c0.1,0,0.2,0,0.3-0.1s0.1-0.2,0.1-0.3s0-0.2-0.1-0.3s-0.2-0.1-0.3-0.1s-0.2,0-0.3,0.1s-0.1,0.2-0.1,0.3
		s0,0.2,0.1,0.3C12.7,13.3,12.9,13.3,13,13.3z"/>
	<path d="M14.6,12.4c-0.1,0-0.2,0-0.3,0.1s-0.1,0.2-0.1,0.3s0,0.2,0.1,0.3s0.2,0.1,0.3,0.1s0.2,0,0.3-0.1s0.1-0.2,0.1-0.3
		s0-0.2-0.1-0.3C14.9,12.5,14.7,12.4,14.6,12.4z"/>
	<path d="M16.3,12.4c-0.1,0-0.2,0-0.3,0.1c-0.1,0.1-0.1,0.2-0.1,0.3s0,0.2,0.1,0.3c0.1,0.1,0.2,0.1,0.3,0.1s0.2,0,0.3-0.1
		c0.1-0.1,0.1-0.2,0.1-0.3s0-0.2-0.1-0.3C16.5,12.5,16.4,12.4,16.3,12.4z"/>
	<path d="M13,14.8c0.1,0,0.2,0,0.3-0.1s0.1-0.2,0.1-0.3s0-0.2-0.1-0.3S13.1,14,13,14s-0.2,0-0.3,0.1s-0.1,0.2-0.1,0.3s0,0.2,0.1,0.3
		C12.7,14.7,12.9,14.8,13,14.8z"/>
	<path d="M14.6,13.9c-0.1,0-0.2,0-0.3,0.1s-0.1,0.2-0.1,0.3s0,0.2,0.1,0.3s0.2,0.1,0.3,0.1s0.2,0,0.3-0.1s0.1-0.2,0.1-0.3
		s0-0.2-0.1-0.3C14.9,13.9,14.7,13.9,14.6,13.9z"/>
	<path d="M16.3,13.9c-0.1,0-0.2,0-0.3,0.1s-0.1,0.2-0.1,0.3s0,0.2,0.1,0.3c0.1,0.1,0.2,0.1,0.3,0.1s0.2,0,0.3-0.1
		c0.1-0.1,0.1-0.2,0.1-0.3s0-0.2-0.1-0.3C16.5,13.9,16.4,13.9,16.3,13.9z"/>
</g>
</svg>
