<?xml version="1.0" encoding="utf-8"?>
<!-- Generator: Adobe Illustrator 25.4.1, SVG Export Plug-In . SVG Version: 6.00 Build 0)  -->
<svg version="1.1" id="Layer_1" xmlns="http://www.w3.org/2000/svg" xmlns:xlink="http://www.w3.org/1999/xlink" x="0px" y="0px"
	 viewBox="0 0 24 24" style="enable-background:new 0 0 24 24;" xml:space="preserve">
<g>
	<path d="M12,6.9h1.8c0.4,0,0.8-0.4,0.8-0.8s-0.4-0.8-0.8-0.8H12c-0.4,0-0.8,0.4-0.8,0.8S11.6,6.9,12,6.9z"/>
	<path d="M11.5,10.4h5.7c0.5,0,0.8-0.3,0.8-0.8c0-0.4-0.4-0.8-0.8-0.8h-5.7c-0.4,0-0.8,0.4-0.8,0.8S11.1,10.4,11.5,10.4z"/>
	<path d="M16.8,12.3h-5.2c-0.4,0-0.8,0.4-0.8,0.8c0,0.4,0.4,0.8,0.8,0.8h5.2c0.5,0,0.8-0.3,0.8-0.8C17.6,12.7,17.2,12.3,16.8,12.3z"
		/>
	<path d="M21.1,1.2c-0.2,0-0.4,0-0.5,0.1H10.3c0,0,0,0,0,0c0,0,0,0,0,0C9,1.3,8.5,2.7,8.5,3.5c0,1.3,0,7.9-0.7,12.1H4.1
		c-0.4,0-0.8,0.2-1.2,0.5c-0.6,0.6-0.6,1.6-0.6,2.7c0,0.7,0,1.7-0.3,2C1.9,20.9,1.8,21,1.5,21c-0.2,0-0.4,0.2-0.4,0.4v0.9
		c0,0.2,0.2,0.4,0.4,0.4h10.9c0.7,0,1.3-0.2,1.7-0.6c0.3-0.3,0.5-0.7,0.6-1.1h2.9c0.2,0,0.3-0.1,0.3-0.2c0.4-0.1,0.7-0.3,0.9-0.6
		c1.8-1.8,2.2-8.7,2.2-14.3h1.3c0.2,0,0.4-0.2,0.4-0.4V5.1C22.8,3.7,22.6,1.2,21.1,1.2z M4,18.5c0-0.4,0-1,0.1-1.1h4.1
		c0.1,0.1,0.2,0.1,0.3,0.1h4.8c-0.1,0.4-0.1,0.9-0.1,1.3c0,0.7,0,1.7-0.3,2c-0.1,0.1-0.2,0.2-0.5,0.2H3.8C4,20.4,4,19.6,4,18.9
		C4,18.8,4,18.6,4,18.5z M14.9,18.5c0-0.3,0-0.8,0.1-1H15c0,0,0.1,0,0.1,0c0,0.2,0,0.4,0,0.5c0,0.4,0,0.9,0.1,1.3h-0.4
		c0-0.1,0-0.3,0-0.4C14.9,18.8,14.9,18.6,14.9,18.5z M21.1,3.7c0-0.1,0-0.1,0-0.2c0-0.1,0-0.1,0-0.2c0.1,0.3,0.1,0.6,0.1,1.1h-0.2
		C21.1,3.9,21.1,3.7,21.1,3.7z M10.3,3h9.2c0,0.2,0,0.3,0,0.4c0.1,5.5-0.2,14.2-1.7,15.7c-0.1,0.1-0.1,0.1-0.1,0.1
		c-0.5,0-0.7-0.1-0.7-0.1c-0.1-0.2-0.1-0.7-0.1-1.1c0-0.6,0-1.4-0.5-1.8c-0.2-0.4-0.7-0.6-1.3-0.6c-0.3,0-0.5,0.1-0.7,0.2H9.3
		c0.7-4.3,0.7-10.4,0.7-12.3C10.1,3.3,10.2,3,10.3,3C10.2,3,10.2,3,10.3,3C10.3,3,10.3,3,10.3,3z"/>
</g>
</svg>
