<?xml version="1.0" encoding="utf-8"?>
<!-- Generator: Adobe Illustrator 25.4.1, SVG Export Plug-In . SVG Version: 6.00 Build 0)  -->
<svg version="1.1" id="Layer_1" xmlns="http://www.w3.org/2000/svg" xmlns:xlink="http://www.w3.org/1999/xlink" x="0px" y="0px"
	 viewBox="0 0 24 24" style="enable-background:new 0 0 24 24;" xml:space="preserve">
<path d="M19,15.7c-1.3,0-2.4,0.9-2.8,2.1h-2.8c-0.4-1.2-1.5-2.1-2.8-2.1s-2.4,0.9-2.8,2.1H7.2c-0.4,0-0.7-0.1-1-0.4
	s-0.4-0.6-0.4-0.9c0-0.8,0.5-1.4,1.3-1.4l13.4-1.2c0.4,0,0.7-0.3,0.7-0.7l1.4-7c0-0.2,0-0.5-0.2-0.7c-0.2-0.2-0.4-0.3-0.6-0.3H6.9
	C6.5,3.6,5.1,2.4,3.4,2.4c0,0,0,0,0,0H2.2c-0.5,0-0.8,0.4-0.8,0.8s0.4,0.8,0.8,0.8h1.2c0.9,0,1.8,0.7,1.9,1.6l1.5,7.8
	c-1.5,0.2-2.7,1.4-2.7,3c0,0.8,0.3,1.6,0.9,2.1c0.6,0.6,1.3,0.9,2.1,0.9h0.6c0.4,1.2,1.5,2.1,2.8,2.1s2.4-0.9,2.8-2.1h2.8
	c0.4,1.2,1.5,2.1,2.8,2.1c1.6,0,2.9-1.3,2.9-2.9C21.9,17,20.6,15.7,19,15.7z M20.3,18.6c0,0.7-0.6,1.3-1.3,1.3s-1.3-0.6-1.3-1.3
	c0-0.7,0.6-1.3,1.3-1.3S20.3,17.9,20.3,18.6z M11.9,18.6c0,0.7-0.6,1.3-1.3,1.3s-1.3-0.6-1.3-1.3c0-0.7,0.6-1.3,1.3-1.3
	S11.9,17.9,11.9,18.6z M20.8,6.9l-1.1,5.4l-11.1,1L7.3,6.9H20.8z"/>
</svg>
