<?xml version="1.0" encoding="utf-8"?>
<!-- Generator: Adobe Illustrator 25.4.1, SVG Export Plug-In . SVG Version: 6.00 Build 0)  -->
<svg version="1.1" id="Layer_1" xmlns="http://www.w3.org/2000/svg" xmlns:xlink="http://www.w3.org/1999/xlink" x="0px" y="0px"
	 viewBox="0 0 24 24" style="enable-background:new 0 0 24 24;" xml:space="preserve">
<path d="M20.9,7.7h-5.9L9,2.2C7.8,1.2,6.1,1,4.7,1.6L1.1,3.1C0.7,3.3,0.5,3.9,0.7,4.3c0.1,0.2,0.3,0.4,0.5,0.5
	c0.2,0.1,0.5,0.1,0.7,0l3.6-1.6c0.7-0.3,1.7-0.2,2.4,0.4l4.6,4.1H8.9L7.6,6.4c-0.4-0.4-0.9-0.4-1.3,0C6,6.8,6,7.4,6.3,7.7l0,0H4.6
	c-0.5,0-0.9,0.4-0.9,0.9s0.4,0.9,0.9,0.9h5.1c1,0,1.7,0.8,1.7,1.7c0,0.2-0.1,0.3-0.3,0.3H5.4c-0.3,0-0.6,0.2-0.8,0.5
	c-0.7,1.2-1.8,1.9-3.1,1.9c-0.5,0-0.9,0.4-0.9,0.9c0,0.5,0.3,0.8,0.8,0.9v4.6c0,1.4,1.1,2.5,2.5,2.5h17.1c1.4,0,2.5-1.1,2.5-2.5
	V10.2C23.4,8.8,22.3,7.7,20.9,7.7z M12.8,9.5h8.1c0.4,0,0.7,0.3,0.7,0.7v0.7h-8.3C13.2,10.4,13.1,9.9,12.8,9.5z M3.2,15.5
	c1.1-0.4,2.1-1.1,2.7-2.1h5.3c0.6,0,1.2-0.3,1.7-0.8h8.8v7.7c0,0.4-0.3,0.7-0.7,0.7H3.8c-0.4,0-0.7-0.3-0.7-0.7v-4.7
	C3.2,15.6,3.2,15.5,3.2,15.5z"/>
</svg>
