<?xml version="1.0" encoding="utf-8"?>
<!-- Generator: Adobe Illustrator 25.4.1, SVG Export Plug-In . SVG Version: 6.00 Build 0)  -->
<svg version="1.1" id="Layer_1" xmlns="http://www.w3.org/2000/svg" xmlns:xlink="http://www.w3.org/1999/xlink" x="0px" y="0px"
	 viewBox="0 0 24 24" style="enable-background:new 0 0 24 24;" xml:space="preserve">
<path d="M22.3,8.5l-2.4-4.8c-0.1-0.2-0.2-0.4-0.4-0.4l-0.2,0l-14.6,0l-0.1,0l0,0l0,0c-0.2,0-0.4,0.1-0.4,0.4L1.7,8.5
	C1.6,8.6,1.6,8.6,1.6,8.8v0.8c0,1.4,0.9,2.6,2.3,3l0.1,0V20c0,0.3,0.3,0.7,0.7,0.7h14.6c0.3,0,0.7-0.3,0.7-0.7v-7.4l0.1,0
	c1.4-0.4,2.3-1.6,2.3-3V8.8C22.4,8.6,22.4,8.6,22.3,8.5z M12.9,15.9v3.6h-1.9v-3.6H12.9z M6.4,9.5v0.1c0,1-0.8,1.7-1.7,1.7
	S3,10.6,3,9.6V9.5H6.4z M8.1,8.1l1.2-3.5h2v3.5H8.1z M16.1,9.6c0,1-0.8,1.7-1.7,1.7c-1,0-1.7-0.8-1.7-1.7V9.5h3.4V9.6z M13.6,14.5
	h-3.2c-0.3,0-0.7,0.3-0.7,0.7v4.1H5.5v-6.8l0.1,0c0.7-0.2,1.2-0.6,1.5-1l0.1-0.1l0.1,0.1c0.6,0.7,1.5,1.1,2.4,1.1
	c0.8,0,1.5-0.3,2.1-0.8l0.3-0.4l0.3,0.4c0.6,0.5,1.3,0.8,2,0.8c0.9,0,1.8-0.4,2.4-1.1l0.1-0.1l0.1,0.1c0.3,0.4,0.8,0.7,1.5,1l0.1,0
	v6.8h-4.2v-4.1C14.3,14.9,14,14.5,13.6,14.5z M17.3,8.1l-1.1-3.6h2.6l1.7,3.6H17.3z M7.9,9.6V9.5h3.5v0.1c0,1-0.8,1.7-1.7,1.7
	S7.9,10.6,7.9,9.6z M3.4,8.1l1.7-3.6h2.6L6.7,8.1H3.4z M21,9.5v0.1c0,1-0.8,1.7-1.7,1.7c-1,0-1.7-0.8-1.7-1.7V9.5H21z M12.7,8.1V4.7
	h2l1.2,3.5H12.7z"/>
</svg>
