<?xml version="1.0" encoding="utf-8"?>
<!-- Generator: Adobe Illustrator 25.4.1, SVG Export Plug-In . SVG Version: 6.00 Build 0)  -->
<svg version="1.1" id="Layer_1" xmlns="http://www.w3.org/2000/svg" xmlns:xlink="http://www.w3.org/1999/xlink" x="0px" y="0px"
	 viewBox="0 0 24 24" style="enable-background:new 0 0 24 24;" xml:space="preserve">
<path d="M18.1,10.8c-0.3-1.5-1.2-2.9-2.4-3.8c-1.3-1-3-1.4-4.6-1.1C9.7,6.1,8.4,6.8,7.5,7.8c-3.7-0.5-6,0-6.3,1.2
	c-0.5,1.6,2.4,3.3,4.9,4.4c0.5,2.2,2.2,3.9,4.3,4.5c0.6,0.2,1.1,0.2,1.7,0.2c1.6,0,3.2-0.7,4.4-1.8c0.9,0.1,1.8,0.2,2.8,0.2
	c2.2,0,3.4-0.5,3.7-1.4C23.2,13.9,21.5,12.4,18.1,10.8z M6.5,9.3c-0.4,0-1.2,0.1-1.4,0.8c-0.1,0.5,0.2,1.1,1.1,1.6
	c0.2,0.2,0.5,0.3,0.8,0.4c1.5,0.7,3,1.3,4.6,1.7c1.7,0.5,4,1,5.6,1c1.1,0,1.8-0.3,1.9-0.8c0.2-0.7-0.5-1.2-0.8-1.4
	c0-0.2,0-0.4,0-0.6c2.8,1.4,3.7,2.4,3.6,2.8c-0.1,0.5-1.9,0.9-5.4,0.4c0,0-0.1,0-0.1,0l0,0c-1.6-0.2-3.2-0.6-4.8-1
	c-1.6-0.4-3.1-1-4.6-1.6c0,0-0.1-0.1-0.1-0.1c-3.3-1.4-4.6-2.7-4.4-3.2c0.1-0.4,1.4-0.8,4.5-0.5C6.6,9,6.5,9.2,6.5,9.3z M16.9,13.4
	c0,0.1-0.1,0.3-0.1,0.4c-1.3,0-3.1-0.4-5-0.9c-1.5-0.4-3-0.9-4.4-1.6C7.3,11.2,7.2,11.1,7,11c0-0.1,0.1-0.3,0.1-0.4
	c0.8-2.7,3.6-4.3,6.2-3.5c0,0,0,0,0.1,0C16.1,7.9,17.7,10.7,16.9,13.4z M11.1,15.2c1.3,0.4,2.6,0.7,3.9,0.9
	c-1.2,0.9-2.8,1.2-4.3,0.8l0,0c-1.5-0.4-2.7-1.5-3.3-2.9C8.6,14.5,9.8,14.9,11.1,15.2z"/>
</svg>
