<?xml version="1.0" encoding="utf-8"?>
<!-- Generator: Adobe Illustrator 25.4.1, SVG Export Plug-In . SVG Version: 6.00 Build 0)  -->
<svg version="1.1" id="Layer_1" xmlns="http://www.w3.org/2000/svg" xmlns:xlink="http://www.w3.org/1999/xlink" x="0px" y="0px"
	 viewBox="0 0 24 24" style="enable-background:new 0 0 24 24;" xml:space="preserve">
<path d="M21.5,6.8h-0.7V6.1c0-0.3-0.2-0.5-0.5-0.5h-0.9V5c0-0.3-0.2-0.5-0.5-0.5c-3.9-0.2-6,1.6-6.8,2.6c-0.8-1-2.9-2.9-6.8-2.6
	C4.9,4.5,4.7,4.7,4.7,5v0.6H3.8c-0.3,0-0.5,0.2-0.5,0.5v0.7H2.5C2.2,6.8,2,7.1,2,7.4V19c0,0.3,0.2,0.5,0.5,0.5c0,0,0.1,0,0.1,0
	c0.1,0,6.5-1.4,9.1-0.2l0.1,0c0,0,0.1,0,0.1,0c0,0,0.1,0,0.1,0l0.1,0l0.1,0c2.6-1.1,9,0.2,9.1,0.3c0,0,0.1,0,0.1,0
	c0.3,0,0.5-0.2,0.5-0.5V7.4C22,7.1,21.8,6.8,21.5,6.8z M18.1,16.3c0.2,0,0.4,0,0.6,0c0.2,0,0.3,0,0.4-0.1c0.1-0.1,0.2-0.2,0.2-0.4
	V6.7h0.3v10.1c-0.9-0.2-2.8-0.3-5.2,0.4C15.3,16.7,16.5,16.3,18.1,16.3z M12.5,17.3V8.2c0.3-0.6,1.9-2.7,5.6-2.7c0,0,0.1,0,0.1,0
	v9.7c0,0-0.1,0-0.1,0C15.3,15.2,13.5,16.3,12.5,17.3z M20.9,18.4c-0.9-0.2-2.5-0.4-4.2-0.5c2-0.3,3.3,0.2,3.3,0.2
	c0.3,0.1,0.6,0,0.7-0.3c0-0.1,0-0.1,0-0.2V7.9h0.1L20.9,18.4z M4,18c0,0,1.3-0.4,3.3-0.2c-1.7,0.1-3.3,0.4-4.2,0.5V7.9h0.1v9.6
	C3.2,17.8,3.6,18.1,4,18z M11.5,17.3c-1-0.9-2.7-2.1-5.5-2.1c0,0-0.1,0-0.1,0l0-9.7c0,0,0.1,0,0.1,0c3.6,0,5.2,2.1,5.5,2.7V17.3z
	 M4.3,6.7h0.4v9.1c0,0.2,0.1,0.3,0.2,0.4c0.1,0.1,0.3,0.2,0.4,0.1c1.9-0.1,3.3,0.3,4.3,0.9C8.2,16.8,7,16.6,6,16.6
	c-0.7,0-1.3,0.1-1.7,0.1L4.3,6.7z"/>
</svg>
