<?xml version="1.0" encoding="utf-8"?>
<!-- Generator: Adobe Illustrator 25.4.1, SVG Export Plug-In . SVG Version: 6.00 Build 0)  -->
<svg version="1.1" id="Layer_1" xmlns="http://www.w3.org/2000/svg" xmlns:xlink="http://www.w3.org/1999/xlink" x="0px" y="0px"
	 viewBox="0 0 24 24" style="enable-background:new 0 0 24 24;" xml:space="preserve">
<g>
	<path d="M21.3,11.7c0.4-0.5,1.1-1.8,0.4-3.3c-0.4-0.9-1.2-1.2-1.8-1.4c0.3-0.7,0.1-1.4-0.3-2.1c-0.5-0.7-1.4-1-2.5-0.8
		c0.1-1.2-0.7-2.2-1.5-2.7c-0.5-0.3-1.7-0.5-3-0.1c-0.8,0.3-1.8,1-2.3,2.6c-0.1,0.4-0.2,0.7-0.3,1.1H8.5C8.3,4.8,8.1,4.5,7.9,4.3
		C7.5,4.1,7.1,4,6.6,4.1c-0.4,0.1-0.8,0.3-1,0.7C5.4,5.1,5.3,5.5,5.4,6C5.4,6.4,5.7,6.8,6,7c0.4,0.2,0.8,0.3,1.2,0.3
		c0.5-0.1,1-0.5,1.2-1H10c0,1.4,0.5,2.5,0.7,3c0,0.1-0.1,0.3-0.1,0.4H8.8L7.1,8.9c0.1-0.7-0.3-1.5-1-1.8C5.3,6.7,4.3,7.1,4,8
		C3.8,8.4,3.8,8.8,4,9.2c0.2,0.4,0.5,0.7,0.9,0.9c0.5,0.2,1.1,0.2,1.6-0.2l2.1,0.9c0.1,0,0.2,0.1,0.3,0.1h1.8c0,0.3,0,0.5,0.1,0.8
		H4.8c-0.3-0.7-1-1.2-1.7-1.1c-0.9,0.1-1.5,0.9-1.4,1.8c0.1,0.9,0.9,1.5,1.8,1.4c0.6-0.1,1-0.4,1.3-0.9h6.3c-0.2,0.3-0.3,0.6-0.4,1
		H7.4c-0.2,0-0.4,0.1-0.5,0.3l-0.8,1.1c-0.8-0.1-1.5,0.3-1.8,1c-0.2,0.4-0.2,0.8,0,1.2s0.5,0.7,0.9,0.9C6,18.8,7,18.4,7.3,17.6
		c0.2-0.5,0.1-1.1-0.2-1.5l0.6-0.8h2.8c0,0.2,0,0.5,0,0.7c0,0.6,0.1,1,0.2,1.5H10c-0.2,0-0.4,0.1-0.5,0.3l-1,1.9H7.2
		c-0.1-0.3-0.3-0.5-0.6-0.7c-0.4-0.2-0.8-0.3-1.2-0.3c-0.9,0.2-1.5,1-1.3,1.9c0.1,0.4,0.3,0.8,0.7,1c0.4,0.2,0.8,0.3,1.2,0.3
		c0.5-0.1,1-0.5,1.2-1h1.6c0.2,0,0.4-0.1,0.5-0.3l1-1.9h1c-0.3,0.4-0.5,0.8-0.5,1.3c-0.2,1.3,0.6,2.4,1.9,2.8c0.3,0.1,0.6,0.1,1,0.1
		c0.9,0,1.7-0.4,2.2-1c1,0.2,3.3,0.4,4.3-1.8c0.4-0.8,0.4-1.7,0.1-2.5c0.8-0.3,1.9-1.1,2-3.1C22.4,13,21.8,12.1,21.3,11.7z
		 M18.9,14.4c0-1.1-0.9-1.6-1.3-1.7c-0.2,0-0.3,0-0.5,0.1c-0.1,0.1-0.2,0.2-0.3,0.4c-0.1,0.3,0.1,0.7,0.4,0.7c0,0,0.3,0.1,0.4,0.6
		c0,0.3,0,0.5-0.2,0.8c-0.5-0.1-1-0.1-1.5,0.1c-0.3,0.1-0.5,0.4-0.4,0.8c0.1,0.2,0.2,0.3,0.3,0.4c0.1,0.1,0.3,0.1,0.5,0
		c0.3-0.1,0.7-0.1,1.1,0l0.1,0c0.4,0.2,0.8,0.4,1.1,0.8c0.1,0.1,0.1,0.2,0.2,0.3c0.4,0.6,0.5,1.3,0.2,2c-0.9,1.9-3,1.2-3.3,1.1
		c-0.3-0.1-0.6,0-0.8,0.3c-0.4,0.7-1.3,0.9-2,0.6c-0.3-0.1-1.2-0.5-1.1-1.5c0.2-1.3,1.4-1.5,2.2-1.5c0.2,0,0.4,0,0.4,0
		c0.2,0,0.3,0,0.5-0.1c0.1-0.1,0.2-0.2,0.2-0.4c0-0.2,0-0.3-0.1-0.4c-0.1-0.1-0.2-0.2-0.4-0.2c-0.6-0.1-1.6,0-2.4,0.4
		c-0.1-0.1-0.5-0.5-0.5-1.9c0-0.3,0-0.7,0.1-1c0-0.1,0.1-0.2,0.1-0.3c0-0.3,0.1-0.5,0.2-0.7c0.2,0.1,0.4,0.2,0.7,0.3
		c0.2,0.1,0.5,0,0.6-0.2c0.1-0.1,0.2-0.3,0.2-0.4c0-0.3-0.2-0.5-0.4-0.6c-0.3-0.1-0.5-0.2-0.7-0.4c0,0-0.1-0.1-0.1-0.1
		c-0.1-0.1-0.2-0.2-0.2-0.3c0-0.1,0-0.1-0.1-0.1c-0.2-0.4-0.3-0.8-0.3-1.4c0-1.6,0.8-2.7,0.9-2.8c0.1-0.1,0.1-0.3,0.1-0.5
		c0-0.2-0.1-0.3-0.2-0.4c-0.3-0.2-0.6-0.1-0.8,0.1c0,0-0.1,0.1-0.3,0.4c-0.2-0.8-0.3-1.9,0.1-3.2c0.3-0.9,0.8-1.5,1.6-1.8
		c0.7-0.3,1.6-0.2,1.9,0c0.6,0.3,1.2,1.2,0.7,2.1c0,0.1-0.1,0.1-0.1,0.2c-0.3,0.3-0.7,0.3-0.9,0.3c-0.3,0-0.5-0.2-0.6-0.4
		c0-0.2-0.1-0.3-0.2-0.4c-0.1-0.1-0.3-0.1-0.4-0.1c-0.3,0-0.6,0.4-0.5,0.7c0.1,0.7,0.7,1.3,1.6,1.4c0.6,0.1,1.4,0,2-0.6
		c0.4-0.2,1.6-0.6,2.1,0.1c0.3,0.4,0.2,0.7,0.2,1c-0.1,0.2-0.2,0.3-0.3,0.5c-0.2,0.2-0.4,0.3-0.6,0.3c-0.2,0-0.3,0.1-0.4,0.2
		c-0.1,0.1-0.1,0.3-0.1,0.4c0,0.3,0.3,0.5,0.6,0.5c0,0,0.1,0,0.1,0c0.4,0,0.8-0.2,1.1-0.5c0,0,0,0,0,0c0.3,0,1.1,0.1,1.5,0.8
		c0.5,1.1-0.4,2.2-0.6,2.4c-0.1,0.1-0.2,0.2-0.2,0.4c0,0.2,0,0.3,0.1,0.4c0.1,0.1,0.2,0.1,0.3,0.2c0,0,1.1,0.4,1,2.1
		c-0.1,1.4-0.9,1.9-1.4,2.1c0,0,0,0,0,0c-0.3-0.3-0.6-0.6-1-0.8C18.8,15.2,18.9,14.8,18.9,14.4z M7.4,5.7c0,0.2-0.2,0.4-0.4,0.4
		c-0.2,0-0.4-0.2-0.4-0.4c0-0.1,0-0.2,0.1-0.3c0.1-0.1,0.2-0.1,0.3-0.1C7.2,5.3,7.4,5.4,7.4,5.7z M5.5,8.2c0.2,0,0.4,0.2,0.4,0.4
		C5.9,8.8,5.7,9,5.5,9C5.2,9,5.1,8.8,5.1,8.6S5.2,8.2,5.5,8.2z M3.7,12.3c0,0.2-0.2,0.4-0.4,0.4c-0.2,0-0.4-0.2-0.4-0.4
		s0.2-0.4,0.4-0.4S3.7,12,3.7,12.3z M6.2,17c0,0.2-0.2,0.4-0.4,0.4c-0.2,0-0.4-0.2-0.4-0.4c0-0.2,0.2-0.4,0.4-0.4
		C6,16.6,6.2,16.7,6.2,17z M6.1,20.2c0,0.1,0,0.2-0.1,0.3c-0.1,0.1-0.2,0.1-0.3,0.1c-0.2,0-0.4-0.2-0.4-0.4s0.2-0.4,0.4-0.4
		S6.1,20,6.1,20.2z"/>
	<path d="M18.3,9.2c-0.2,0-0.3,0-0.5,0.1c0,0,0,0,0,0c0,0,0,0,0,0l0,0c-1,0.8-1.8,0.4-2.2,0.1c0.1-1-0.5-1.7-0.6-1.8
		c-0.1-0.1-0.3-0.2-0.4-0.2c-0.2,0-0.3,0-0.4,0.1C14,7.7,14,7.8,13.9,8s0,0.3,0.1,0.4c0,0.1,0.4,0.5,0.3,1.1c0,0,0,0.1,0,0.1
		c-0.3,0.7-0.9,1.2-0.9,1.2c-0.1,0.1-0.2,0.2-0.3,0.4c0,0.2,0,0.3,0.1,0.5c0.1,0.2,0.3,0.3,0.5,0.3c0.1,0,0.2,0,0.3-0.1
		c0.4-0.3,0.8-0.7,1.1-1.2c1,0.6,2.2,0.5,3.3-0.3c0.1-0.1,0.2-0.2,0.3-0.4c0-0.2,0-0.3-0.1-0.5C18.6,9.4,18.4,9.3,18.3,9.2z"/>
</g>
</svg>
