<?xml version="1.0" encoding="utf-8"?>
<!-- Generator: Adobe Illustrator 25.4.1, SVG Export Plug-In . SVG Version: 6.00 Build 0)  -->
<svg version="1.1" id="Layer_1" xmlns="http://www.w3.org/2000/svg" xmlns:xlink="http://www.w3.org/1999/xlink" x="0px" y="0px"
	 viewBox="0 0 24 24" style="enable-background:new 0 0 24 24;" xml:space="preserve">
<style type="text/css">
	.st0{fill-rule:evenodd;clip-rule:evenodd;}
	.st1{fill-rule:evenodd;clip-rule:evenodd;stroke:#000000;stroke-width:0.5;stroke-miterlimit:10;}
</style>
<path class="st0" d="M12.3,12.7c0,0.4,0.3,0.7,0.7,0.7s0.7-0.3,0.7-0.7S13.4,12,13,12S12.3,12.3,12.3,12.7"/>
<path class="st0" d="M12.3,9.6c0-0.4-0.3-0.7-0.7-0.7c-0.4,0-0.7,0.3-0.7,0.7s0.3,0.7,0.7,0.7C12,10.2,12.3,9.9,12.3,9.6"/>
<path class="st1" d="M10.9,14.1c-0.2,0-0.4,0.2-0.4,0.3c0,0.2,0.2,0.4,0.4,0.4s0.3-0.2,0.3-0.4C11.3,14.3,11.1,14.1,10.9,14.1"/>
<path class="st0" d="M10.9,13.4c0.6,0,1,0.5,1,1.1c0,0.6-0.5,1.1-1,1.1c-0.6,0-1.1-0.5-1.1-1.1C9.9,13.9,10.4,13.4,10.9,13.4"/>
<path d="M21.6,20.1l-6.3-9.4c0,0-0.3-0.4-0.3-1.1V3.8c0.4-0.1,0.7-0.5,0.7-0.9V2.2c0-0.5-0.4-1-1-1H9.2c-0.5,0-0.9,0.4-0.9,1v0.7
	c0,0.4,0.3,0.8,0.7,0.9v5.7c0,0.6-0.2,1.1-0.2,1.1l-6.3,9.4c-0.5,0.7-0.6,1.4-0.3,1.9c0.1,0.3,0.5,0.8,1.5,0.8h16.8
	c0.7,0,1.2-0.3,1.5-0.8C22.2,21.5,22.1,20.8,21.6,20.1z M14.5,2.6H9.4V2.5h5.1V2.6z M10.1,9.6V3.9h3.7v5.7c0,1,0.4,1.7,0.5,1.7
	l3.5,5.3c-0.9-0.2-3.5-0.6-6.3,0.1c-2.8,0.6-4.3,0.4-5.3,0.2c-0.1,0-0.1,0-0.2,0l3.7-5.5C9.7,11.3,10.1,10.6,10.1,9.6z M11.8,17.8
	c3.8-0.8,6.9,0,6.9,0l1.9,2.9c0.2,0.4,0.3,0.6,0.2,0.7c0,0-0.2,0.1-0.4,0.1H3.6c-0.2,0-0.4-0.1-0.4-0.1c-0.1-0.1,0-0.4,0.2-0.7
	l1.9-2.8c0,0,0,0,0.1,0C6.1,18.1,8.3,18.5,11.8,17.8z"/>
</svg>
