<?xml version="1.0" encoding="utf-8"?>
<!-- Generator: Adobe Illustrator 25.4.1, SVG Export Plug-In . SVG Version: 6.00 Build 0)  -->
<svg version="1.1" id="Layer_1" xmlns="http://www.w3.org/2000/svg" xmlns:xlink="http://www.w3.org/1999/xlink" x="0px" y="0px"
	 viewBox="0 0 24 24" style="enable-background:new 0 0 24 24;" xml:space="preserve">
<g>
	<path d="M21.9,11.4h-6.5V2.1c0-0.3-0.3-0.6-0.6-0.6H4.9c-0.3,0-0.6,0.3-0.6,0.6v9.3H2.1c-0.3,0-0.6,0.3-0.6,0.6v9.9
		c0,0.3,0.3,0.6,0.6,0.6H12h9.9c0.3,0,0.6-0.3,0.6-0.6V12C22.5,11.7,22.2,11.4,21.9,11.4z M5.5,2.7h8.7v8.7H12H5.5V2.7z M2.7,12.6
		h2.2h6.5v8.7H2.7V12.6z M21.3,21.3h-8.7v-8.7h2.2h6.5V21.3z"/>
	<path d="M7.6,13.9c-0.2-0.4-0.9-0.4-1.1,0l-2.8,5.7c-0.1,0.3,0,0.6,0.3,0.8c0.3,0.1,0.6,0,0.8-0.3l0.9-1.8h2.8l0.9,1.8
		c0.1,0.2,0.3,0.3,0.5,0.3c0.1,0,0.2,0,0.3-0.1c0.3-0.1,0.4-0.5,0.3-0.8L7.6,13.9z M6.2,17.1L7,15.4l0.8,1.6H6.2z"/>
	<path d="M12.4,8.4c-0.3-0.2-0.6-0.2-0.8,0.1c-0.4,0.5-1,0.8-1.7,0.8c-1.2,0-2.2-1-2.2-2.2s1-2.2,2.2-2.2c0.7,0,1.3,0.3,1.7,0.8
		c0.2,0.3,0.6,0.3,0.8,0.1c0.3-0.2,0.3-0.6,0.1-0.8c-0.6-0.8-1.5-1.2-2.6-1.2C8,3.6,6.5,5.2,6.5,7s1.5,3.4,3.4,3.4
		c1,0,2-0.4,2.6-1.2C12.7,9,12.6,8.6,12.4,8.4z"/>
	<path d="M14.2,14.1V17v2.8c0,0.3,0.3,0.6,0.6,0.6h2.8c1.1,0,2-0.9,2-2c0-0.6-0.2-1.1-0.6-1.4c0.4-0.4,0.6-0.9,0.6-1.4
		c0-1.1-0.9-2-2-2h-2.8C14.5,13.5,14.2,13.8,14.2,14.1z M17.7,19.2h-2.2v-1.7h2.2c0.5,0,0.8,0.4,0.8,0.8
		C18.5,18.8,18.1,19.2,17.7,19.2z M15.4,14.7h2.2c0.5,0,0.8,0.4,0.8,0.8s-0.4,0.8-0.8,0.8h-2.2V14.7z"/>
</g>
</svg>
