<?xml version="1.0" encoding="utf-8"?>
<!-- Generator: Adobe Illustrator 25.4.1, SVG Export Plug-In . SVG Version: 6.00 Build 0)  -->
<svg version="1.1" id="Layer_1" xmlns="http://www.w3.org/2000/svg" xmlns:xlink="http://www.w3.org/1999/xlink" x="0px" y="0px"
	 viewBox="0 0 24 24" style="enable-background:new 0 0 24 24;" xml:space="preserve">
<path d="M22,5l-2.8-2.8c-1.1-1.1-2.8-1.1-3.9,0L3.3,14c0,0,0,0,0,0.1C2.5,15,2.4,16.2,3,17.2c-0.4,0.5-0.5,1.2-0.3,1.8l-1,1
	c-0.3,0.3-0.5,0.7-0.5,1.1c0,0.4,0.2,0.8,0.4,1.1c0.3,0.3,0.7,0.5,1.1,0.5c0,0,0,0,0,0c0.4,0,0.8-0.2,1.1-0.4l1-1
	c0.6,0.2,1.3,0.1,1.8-0.2c0.4,0.3,0.9,0.4,1.5,0.4c0,0,0,0,0,0c0.6,0,1.2-0.2,1.6-0.6c0,0,0.1,0,0.1-0.1l12-11.9
	c0.5-0.4,0.7-1,0.8-1.7c0-0.1,0-0.2,0-0.3C22.8,6.2,22.5,5.5,22,5z M5.8,20.2C5.8,20.2,5.8,20.2,5.8,20.2c-0.4,0.1-0.7,0-0.9-0.3
	L4,19.1c-0.2-0.3-0.3-0.6-0.3-0.9L5.8,20.2z M2.4,20.8l0.9-0.9L4,20.6l-0.9,0.9c-0.1,0.1-0.2,0.1-0.3,0.1c-0.1,0-0.2-0.1-0.3-0.1
	s-0.1-0.2-0.1-0.3C2.3,21,2.4,20.9,2.4,20.8z M9,20.1c-0.2,0.1-0.5,0.2-0.8,0.2h0c-0.5,0-0.9-0.2-1.2-0.5L4.2,17
	c-0.5-0.5-0.6-1.4-0.3-2L9,20.1z M11.4,11.7c-0.5,0.5-0.5,1.3,0,1.8l0.5,0.5c0.3,0.3,0.7,0.4,1.1,0.4c0.3,0,0.6-0.2,0.8-0.4l3.6-3.5
	l0.7,0.7l-8.2,8.1l-5.2-5.2l8.2-8.1L15,8.2L11.4,11.7z M13,13.3c-0.1,0.1-0.2,0.1-0.3,0l-0.5-0.5c-0.1-0.1-0.1-0.2,0-0.3l4.1-4.1
	c0,0,0.1-0.1,0.1-0.2s0-0.1-0.1-0.2l-2.7-2.7L16,2.9c0.3-0.3,0.7-0.5,1.2-0.5c0,0,0,0,0,0l0-0.2l0,0.2c0.4,0,0.9,0.2,1.2,0.5
	l2.8,2.8c0.7,0.7,0.6,1.7,0,2.4l-2.5,2.4l-1.3-1.3c0,0-0.1-0.1-0.2-0.1c0,0-0.1,0-0.2,0.1L13,13.3z"/>
</svg>
