<?xml version="1.0" encoding="utf-8"?>
<!-- Generator: Adobe Illustrator 25.4.1, SVG Export Plug-In . SVG Version: 6.00 Build 0)  -->
<svg version="1.1" id="Layer_1" xmlns="http://www.w3.org/2000/svg" xmlns:xlink="http://www.w3.org/1999/xlink" x="0px" y="0px"
	 viewBox="0 0 24 24" style="enable-background:new 0 0 24 24;" xml:space="preserve">
<g>
	<path d="M21.9,2.6c0,0-0.4-0.4-0.9-0.6c-0.6-0.2-1.5-0.1-2.1,0.6c-0.3,0.3-2.3,2.5-4.1,4.6c-0.5-1-1.8-2.5-4.1-3
		C10,4.1,7.6,3.8,5.6,5C2,7.1,1,12.2,1.8,16.2c0.7,3.2,2.4,5.2,4.7,5.5c0.1,0,0.3,0,0.4,0c0.8,0,1.6-0.3,2.2-0.9
		c1.3-1.3,1.5-3.6,1.5-4.8c0.7-0.2,1.4-0.4,1.9-0.8c0.8-0.6,1.2-1.4,1.3-2.3c1.4-1.3,7.6-6.7,8.1-7.2c0.4-0.4,0.6-0.9,0.6-1.5
		C22.5,3.6,22.3,3,21.9,2.6z M11.8,14.3c-0.4,0.3-1,0.5-1.7,0.7c0.2-0.5,0.4-1,0.5-1.4c0.3-0.9,0.4-1.4,1.1-1.6l1,1
		C12.5,13.5,12.2,14,11.8,14.3z M13.1,11.9l-0.5-0.5c0.1-0.2,0.3-0.3,0.4-0.5l0.6,0.6C13.4,11.6,13.3,11.8,13.1,11.9z M11.7,10.8
		c-0.7,0.1-1.2,0.4-1.6,0.9c-0.3,0.5-0.5,1-0.6,1.6c-0.2,0.7-0.4,1.4-0.9,2c-0.2,0.2-0.2,0.4-0.1,0.6c0.1,0.2,0.3,0.3,0.5,0.3
		c0.1,0,0.3,0,0.4,0c0,1.2-0.2,3-1.1,3.8c-0.4,0.4-0.9,0.6-1.6,0.5c-2-0.2-3.1-2.5-3.6-4.5c-0.8-3.5,0.1-8,3.2-9.8
		c1.7-1,3.6-0.7,4.2-0.6c2.3,0.4,3.2,2.2,3.4,2.8l-0.1,0.1C12.9,9.4,12.1,10.3,11.7,10.8z M21.1,4.9c-0.4,0.4-3.9,3.5-6.7,5.9
		l-0.7-0.7c2-2.3,5.1-5.9,5.5-6.2c0.9-0.8,1.5-0.7,1.8-0.4c0.2,0.2,0.3,0.4,0.3,0.7C21.4,4.4,21.3,4.7,21.1,4.9z"/>
	<path d="M10.7,6.6c-1,0-1.9,0.8-1.9,1.9s0.8,1.9,1.9,1.9c1,0,1.9-0.8,1.9-1.9S11.8,6.6,10.7,6.6z M10.7,9.2c-0.4,0-0.7-0.3-0.7-0.7
		s0.3-0.7,0.7-0.7s0.7,0.3,0.7,0.7S11.1,9.2,10.7,9.2z"/>
	<path d="M6.3,11c1,0,1.9-0.8,1.9-1.9c0-1-0.8-1.9-1.9-1.9S4.4,8.1,4.4,9.2C4.4,10.2,5.3,11,6.3,11z M6.3,8.4C6.7,8.4,7,8.8,7,9.2
		c0,0.4-0.3,0.7-0.7,0.7c-0.4,0-0.7-0.3-0.7-0.7C5.6,8.8,5.9,8.4,6.3,8.4z"/>
	<path d="M6.7,13.4c0-1-0.8-1.9-1.9-1.9S3,12.4,3,13.4c0,1,0.8,1.9,1.9,1.9S6.7,14.5,6.7,13.4z M4.9,14.2c-0.4,0-0.7-0.3-0.7-0.7
		s0.3-0.7,0.7-0.7s0.7,0.3,0.7,0.7S5.3,14.2,4.9,14.2z"/>
	<path d="M6.8,15.9c-1,0-1.9,0.8-1.9,1.9c0,1,0.8,1.9,1.9,1.9c1,0,1.9-0.8,1.9-1.9C8.7,16.8,7.9,15.9,6.8,15.9z M6.8,18.5
		c-0.4,0-0.7-0.3-0.7-0.7c0-0.4,0.3-0.7,0.7-0.7c0.4,0,0.7,0.3,0.7,0.7C7.6,18.2,7.2,18.5,6.8,18.5z"/>
</g>
</svg>
