<?xml version="1.0" encoding="utf-8"?>
<!-- Generator: Adobe Illustrator 25.4.1, SVG Export Plug-In . SVG Version: 6.00 Build 0)  -->
<svg version="1.1" id="Layer_1" xmlns="http://www.w3.org/2000/svg" xmlns:xlink="http://www.w3.org/1999/xlink" x="0px" y="0px"
	 viewBox="0 0 24 24" style="enable-background:new 0 0 24 24;" xml:space="preserve">
<path d="M23,16.5c-0.1-0.5-0.6-0.9-0.9-1.2l-0.1-0.1c-0.1-0.1-0.1-0.1-0.2-0.2L8.4,1.7C7.1,0.4,6,1.5,5.3,2.2L2,5.5
	c0,0-0.1,0.1-0.2,0.2C1.6,5.9,1.3,6.1,1.1,6.4C0.7,7.3,1.4,7.9,1.7,8.2l13,13c0.1,0.1,0.2,0.2,0.3,0.4c0.4,0.5,1,1.3,1.9,1.3
	c0.2,0,0.4,0,0.6-0.1c0.4-0.2,0.6-0.5,0.9-0.8c0.1-0.1,0.1-0.1,0.2-0.2l3-3c0.1-0.1,0.2-0.2,0.3-0.3c0.5-0.4,1.1-0.9,1.1-1.7
	C23,16.7,23,16.6,23,16.5z M6.9,4L6.7,4.3l0.1,0.5l0.4,0.3h0.2l0.3,0l1.1-1.2l0.6,0.6L8.9,5.1c-0.2,0.2-0.2,0.6,0,0.9l0.2,0.2h0.2
	l0.3,0l0.7-0.7l0.8,0.8L10,7.3L9.8,7.5l0,0.5l0.4,0.3h0.2l0.3,0L12,7.1l0.8,0.8l-0.6,0.5c-0.2,0.2-0.2,0.6,0,0.9l0.2,0.2h0.2l0.3,0
	l0.7-0.7l0.8,0.8l-1,1c-0.2,0.3-0.2,0.6,0,0.9l0.2,0.2h0.2c0.1,0,0.3-0.1,0.5-0.2l1-1l1.1,1.1l-0.6,0.6c-0.2,0.2-0.2,0.6,0,0.9
	l0.2,0.2h0.2l0.3,0l0.7-0.7l0.9,0.9l-1,1.1c-0.2,0.3-0.2,0.7,0,0.9l0.2,0.2h0.2c0.1,0,0.3,0,0.5-0.2l1-1l1,1l-0.5,0.4
	c-0.2,0.2-0.2,0.6,0,0.9l0.2,0.2h0.2l0.3,0l0.6-0.6c0.1,0.1,0.1,0.1,0.3,0.2c0.2,0.1,0.5,0.4,0.5,0.6c0,0.2-0.4,0.5-0.7,0.7
	c-0.2,0.1-0.3,0.2-0.4,0.4l-3,3c-0.1,0.1-0.2,0.2-0.3,0.3c-0.1,0.1-0.3,0.4-0.5,0.4c-0.2,0-0.6-0.5-0.9-0.8
	c-0.1-0.2-0.3-0.3-0.4-0.4L2.7,7.5C2.7,7.4,2.6,7.4,2.5,7.3C2.5,7.2,2.3,7,2.3,6.9c0-0.1,0.2-0.2,0.3-0.3l0.1-0.1
	c0.1-0.1,0.1-0.1,0.2-0.2l3.3-3.3c0.3-0.3,0.7-0.7,0.9-0.7c0.1,0,0.2,0.1,0.4,0.2L7.9,3L6.9,4z"/>
</svg>
