<?xml version="1.0" encoding="utf-8"?>
<!-- Generator: Adobe Illustrator 25.4.1, SVG Export Plug-In . SVG Version: 6.00 Build 0)  -->
<svg version="1.1" id="Layer_1" xmlns="http://www.w3.org/2000/svg" xmlns:xlink="http://www.w3.org/1999/xlink" x="0px" y="0px"
	 viewBox="0 0 24 24" style="enable-background:new 0 0 24 24;" xml:space="preserve">
<path d="M5.3,23c-0.3,0-0.5-0.2-0.5-0.5V8.9l0-0.1l0.1-0.1L5,8.5l6.8-6.6c0.1-0.1,0.2-0.1,0.4-0.1s0.3,0.1,0.4,0.1l6.8,6.6
	c0.1,0.1,0.1,0.1,0.1,0.2c0,0.1,0,0.1,0,0.2l0,13.6c0,0.3-0.2,0.5-0.5,0.5H5.3z M13.4,17.1c0.3,0,0.5,0.2,0.5,0.5V22h4.5V9.4H5.8V22
	h4.5v-4.3c0-0.3,0.2-0.5,0.5-0.5H13.4z M11.4,22h1.5v-3.8h-1.5V22z M6.6,8.4h11.1l-5.5-5.3L6.6,8.4z"/>
<path d="M10.9,14.5c-0.2,0-0.4-0.2-0.4-0.4v-2.5c0-0.2,0.2-0.4,0.4-0.4h2.5c0.2,0,0.4,0.2,0.4,0.4v2.5c0,0.2-0.2,0.4-0.4,0.4H10.9z
	 M11.3,13.7H13V12h-1.7V13.7z"/>
<path d="M15.1,14.5c-0.2,0-0.4-0.2-0.4-0.4v-2.5c0-0.2,0.2-0.4,0.4-0.4h2.5c0.2,0,0.4,0.2,0.4,0.4v2.5c0,0.2-0.2,0.4-0.4,0.4H15.1z
	 M15.5,13.7h1.7V12h-1.7V13.7z"/>
<path d="M6.7,14.5c-0.2,0-0.4-0.2-0.4-0.4v-2.5c0-0.2,0.2-0.4,0.4-0.4h2.5c0.2,0,0.4,0.2,0.4,0.4v2.5c0,0.2-0.2,0.4-0.4,0.4H6.7z
	 M7.1,13.7h1.7V12H7.1V13.7z"/>
<path d="M15.1,20.6c-0.2,0-0.4-0.2-0.4-0.4v-2.5c0-0.2,0.2-0.4,0.4-0.4h2.5c0.2,0,0.4,0.2,0.4,0.4v2.5c0,0.2-0.2,0.4-0.4,0.4H15.1z
	 M15.5,19.8h1.7V18h-1.7V19.8z"/>
<path d="M6.7,20.6c-0.2,0-0.4-0.2-0.4-0.4v-2.5c0-0.2,0.2-0.4,0.4-0.4h2.5c0.2,0,0.4,0.2,0.4,0.4v2.5c0,0.2-0.2,0.4-0.4,0.4H6.7z
	 M7.1,19.8h1.7V18H7.1V19.8z"/>
</svg>
