<?xml version="1.0" encoding="utf-8"?>
<!-- Generator: Adobe Illustrator 25.4.1, SVG Export Plug-In . SVG Version: 6.00 Build 0)  -->
<svg version="1.1" id="Layer_1" xmlns="http://www.w3.org/2000/svg" xmlns:xlink="http://www.w3.org/1999/xlink" x="0px" y="0px"
	 viewBox="0 0 24 24" style="enable-background:new 0 0 24 24;" xml:space="preserve">
<g>
	<path d="M5.1,6.9h8.5c0.3,0,0.6-0.3,0.6-0.6s-0.3-0.6-0.6-0.6H5.1c-0.3,0-0.6,0.3-0.6,0.6S4.7,6.9,5.1,6.9z"/>
	<path d="M5.1,9.9h3.8c0.3,0,0.6-0.3,0.6-0.6S9.3,8.7,8.9,8.7H5.1C4.7,8.7,4.5,9,4.5,9.3S4.7,9.9,5.1,9.9z"/>
	<path d="M22,1.8H2C1.7,1.8,1.4,2,1.4,2.4v15.4c0,0.3,0.3,0.6,0.6,0.6h11.7v3.2c0,0.2,0.1,0.4,0.3,0.5c0.2,0.1,0.4,0.1,0.6,0.1
		l2.1-0.7l2.1,0.7c0.1,0,0.1,0,0.2,0c0.1,0,0.3,0,0.4-0.1c0.2-0.1,0.3-0.3,0.3-0.5v-3.2H22c0.3,0,0.6-0.3,0.6-0.6V2.4
		C22.6,2,22.3,1.8,22,1.8z M16.6,14.8c-1.4,0-2.5-1.1-2.5-2.5c0-1.4,1.1-2.5,2.5-2.5s2.5,1.1,2.5,2.5C19.1,13.7,18,14.8,16.6,14.8z
		 M18.3,20.7l-1.5-0.5c-0.1,0-0.3,0-0.4,0l-1.5,0.5v-5.1c0.5,0.3,1.1,0.4,1.7,0.4s1.2-0.2,1.7-0.4V20.7z M21.4,17.1h-1.8v-2.5
		c0,0,0,0,0-0.1c0.5-0.6,0.8-1.4,0.8-2.2c0-2-1.7-3.7-3.7-3.7s-3.7,1.7-3.7,3.7c0,0.8,0.3,1.6,0.8,2.2c0,0,0,0,0,0.1v2.5H2.6V3h18.8
		V17.1z"/>
</g>
</svg>
