<?xml version="1.0" encoding="utf-8"?>
<!-- Generator: Adobe Illustrator 25.4.1, SVG Export Plug-In . SVG Version: 6.00 Build 0)  -->
<svg version="1.1" id="Layer_1" xmlns="http://www.w3.org/2000/svg" xmlns:xlink="http://www.w3.org/1999/xlink" x="0px" y="0px"
	 viewBox="0 0 24 24" style="enable-background:new 0 0 24 24;" xml:space="preserve">
<path d="M21.9,17h-1.8c-0.1,0-0.1,0-0.2,0c-0.2,0.1-1.9,0.6-5,0.6c-3.1,0-4.2-2.2-4.2-2.2c0,0,0,0,0,0c-0.1-0.1-0.1-0.2-0.2-0.3
	l-0.8-0.8c1.5,0.1,2.3,0.2,2.7,0.2c0.4,0.7,1.7,2.4,5.4,2.4c0.1,0,0.3-0.1,0.4-0.2c0.1-0.1,0.1-0.2,0.1-0.4c0-0.3-0.2-0.5-0.5-0.5
	c-3.8,0-4.5-1.9-4.5-2c-0.1-0.2-0.2-0.3-0.5-0.4c-0.5,0-1.9-0.2-4.7-0.3c-0.9-0.1-1.6-0.3-2-0.8c-0.4-0.5-0.5-1.2-0.5-1.6l8-0.9
	l4.2,1.9c0.1,0.1,0.3,0.1,0.4,0c0.1,0,0.2-0.1,0.3-0.3c0.1-0.1,0.1-0.3,0-0.4s-0.1-0.2-0.3-0.3l-4.3-2c-0.1,0-0.2,0-0.3,0l-2.3,0.3
	l0.7-2l6.9,2.3c0.1,0,0.1,0,0.2,0h2.8c0.1,0,0.3-0.1,0.4-0.2c0.1-0.1,0.1-0.2,0.1-0.4c0-0.3-0.2-0.5-0.5-0.5h-2.7l-6.8-2.2l0.8-2.2
	c0.2-0.5,0.1-0.9-0.1-1.4c-0.2-0.4-0.6-0.8-1-0.9c-0.9-0.3-2,0.2-2.3,1.1L8.6,5.7L4.5,7.6C3.7,7.9,3.2,8.6,3.1,9.4l-1.5,9.3
	c0,0.1,0,0.3,0.1,0.4s0.2,0.2,0.4,0.2c0.2,0,0.4,0,0.5,0c0.3,0,0.9,0,1.4-0.2l0,3.2c0,0.2,0.1,0.4,0.3,0.5c0.1,0,0.1,0,0.2,0
	c0.2,0,0.3-0.1,0.4-0.2l2.4-2.7c0,0,0.1-0.1,0.1-0.1c0,0,0,0,0,0l0-0.1c0.6,0.5,1.6,0.5,2.2-0.1c0.5-0.5,0.6-1.3,0.3-1.9
	c0.3-0.1,0.6-0.4,0.8-0.7c0.7,0.7,2,1.6,4.2,1.6c3.1,0,4.8-0.5,5.2-0.6h1.7c0.1,0,0.3-0.1,0.4-0.2c0.1-0.1,0.1-0.2,0.1-0.4
	C22.4,17.2,22.1,17,21.9,17z M8.4,14.1l-1.8,5.1l-1.4,1.6l0-2.1l1.7-4.9C7.2,14,7.6,14.1,8,14.1L8.4,14.1z M11.8,2.3
	c0.4,0.1,0.6,0.6,0.5,1l-2,5.7L8.5,9.2l2.3-6.4c0,0,0,0,0,0c0.1-0.3,0.4-0.5,0.7-0.5C11.6,2.3,11.7,2.3,11.8,2.3z M7.3,9.3L5,9.6
	c-0.2,0-0.4,0.2-0.5,0.4c0,0.2-0.2,1.7,0.7,2.8c0.2,0.2,0.4,0.4,0.6,0.5l-1.5,4.2c-0.3,0.5-1.1,0.6-1.6,0.6l1.4-8.7
	c0.1-0.5,0.3-0.8,0.8-1l3.2-1.5L7.3,9.3z M9,16.5l-0.3-0.3l0.4-1.2l0.7,0.7c0.2,0.2,0.2,0.6,0,0.8C9.6,16.7,9.2,16.7,9,16.5z
	 M7.9,18.5l0.4-1.2L8.9,18c0.2,0.2,0.2,0.6,0,0.8c0,0,0,0,0,0c-0.1,0.1-0.3,0.2-0.4,0.2c0,0,0,0,0,0c-0.2,0-0.3-0.1-0.4-0.2
	L7.9,18.5z"/>
</svg>
