<?xml version="1.0" encoding="utf-8"?>
<!-- Generator: Adobe Illustrator 25.4.1, SVG Export Plug-In . SVG Version: 6.00 Build 0)  -->
<svg version="1.1" id="Layer_1" xmlns="http://www.w3.org/2000/svg" xmlns:xlink="http://www.w3.org/1999/xlink" x="0px" y="0px"
	 viewBox="0 0 24 24" style="enable-background:new 0 0 24 24;" xml:space="preserve">
<g>
	<path d="M5,12.1C5,12.1,5,12.1,5,12.1l4.5,4.5c0,0,0,0,0,0c0.1,0.1,0.2,0.2,0.4,0.2h6.2c0.8,0,1.4-0.6,1.4-1.4S16.9,14,16.1,14
		h-4.3c-0.1-0.2-0.2-0.3-0.3-0.5L8.1,10C7.7,9.7,7.2,9.6,6.7,9.8L5,8C4.5,7.5,3.5,7.5,3,8c0,0,0,0,0,0c-0.6,0.6-0.6,1.5,0,2L5,12.1z
		 M16.6,15.4c0,0.2-0.2,0.4-0.4,0.4h-5.2l0.6-0.6c0.1-0.1,0.2-0.2,0.2-0.3h4.4C16.4,15,16.6,15.2,16.6,15.4z M7.4,10.7l3.4,3.4
		c0.1,0.1,0.1,0.1,0.1,0.2c0,0,0,0,0,0c0,0,0,0.1-0.1,0.1l-1,1L6,11.7l0.2-0.2L7,10.7C7.1,10.6,7.3,10.6,7.4,10.7z M3.7,8.8
		c0.2-0.2,0.5-0.2,0.6,0l1.6,1.6l-0.5,0.5L5.3,11L3.7,9.4C3.5,9.2,3.5,8.9,3.7,8.8z"/>
	<path d="M6.8,8.4c0.5,0,0.9-0.2,1.3-0.5C8.7,7.1,8.7,6,8,5.3c-0.7-0.7-1.9-0.7-2.6,0C4.8,6,4.8,7.1,5.5,7.8
		C5.8,8.2,6.3,8.4,6.8,8.4z M6.2,6C6.5,5.7,7,5.7,7.3,6c0.3,0.3,0.3,0.8,0,1.1C7,7.4,6.5,7.4,6.2,7.1C5.9,6.8,5.9,6.3,6.2,6z"/>
	<path d="M22.4,22.3L20.6,19v-1.4c0-0.3-0.2-0.5-0.5-0.5H9l-6.6-6.6c-0.1-0.1-0.4-0.2-0.5-0.1c-0.2,0.1-0.3,0.3-0.3,0.5v2.6
		c0,0.1,0.1,0.3,0.1,0.4l5.6,5.6l-1.6,2.8c-0.1,0.2-0.1,0.3,0,0.5C5.8,22.9,6,23,6.2,23h1.9c0.2,0,0.3-0.1,0.4-0.3l1.7-3.1h7.7
		l1.7,3.1c0.1,0.2,0.3,0.3,0.4,0.3h1.9c0.2,0,0.3-0.1,0.4-0.2C22.5,22.6,22.5,22.4,22.4,22.3z M2.6,12.1L8.5,18
		c0.1,0.1,0.2,0.1,0.4,0.1h10.8v0.5h-1.4H9.9H8.1H7.9l-5.3-5.3V12.1z M7.8,22H7l1.3-2.4h0.7L7.8,22z M20.4,22L19,19.6h0.7l1.3,2.4
		H20.4z"/>
	<path d="M12.2,6.5c0.3,0,0.5-0.2,0.5-0.5V5.4h0.9V6c0,0.3,0.2,0.5,0.5,0.5s0.5-0.2,0.5-0.5V5.4h0.5V12c0,0.3,0.2,0.5,0.5,0.5
		s0.5-0.2,0.5-0.5V5.4h0.5V6c0,0.3,0.2,0.5,0.5,0.5s0.5-0.2,0.5-0.5V5.4h0.9V6c0,0.3,0.2,0.5,0.5,0.5s0.5-0.2,0.5-0.5V4.9
		c0-2.1-1.7-3.9-3.9-3.9s-3.9,1.7-3.9,3.9V6C11.7,6.3,11.9,6.5,12.2,6.5z M15.6,2c1.4,0,2.6,1,2.8,2.4h-5.7C13,3,14.1,2,15.6,2z"/>
</g>
</svg>
