<?xml version="1.0" encoding="utf-8"?>
<!-- Generator: Adobe Illustrator 25.4.1, SVG Export Plug-In . SVG Version: 6.00 Build 0)  -->
<svg version="1.1" id="Layer_1" xmlns="http://www.w3.org/2000/svg" xmlns:xlink="http://www.w3.org/1999/xlink" x="0px" y="0px"
	 viewBox="0 0 24 24" style="enable-background:new 0 0 24 24;" xml:space="preserve">
<g>
	<path d="M22.3,8.3C22.3,8.3,22.3,8.3,22.3,8.3L12.4,1c0,0,0,0,0,0c0,0,0,0,0,0c0,0,0,0-0.1,0c0,0,0,0-0.1,0c0,0,0,0,0,0
		c0,0,0,0,0,0c0,0,0,0,0,0c0,0,0,0,0,0c0,0,0,0,0,0c0,0,0,0,0,0c0,0,0,0-0.1,0c0,0,0,0,0,0c0,0,0,0,0,0c0,0,0,0,0,0c0,0,0,0,0,0
		c0,0,0,0,0,0c0,0,0,0,0,0c0,0,0,0-0.1,0c0,0,0,0-0.1,0c0,0,0,0,0,0c0,0,0,0,0,0l-10,7.3c-0.5,0.4-0.8,1-0.8,1.6v1.3
		c0,1.5,1.1,2.8,2.6,2.9c0.1,0,0.1,0,0.2,0c0.7,0,1.4-0.3,1.9-0.7c0.1-0.1,0.2-0.2,0.2-0.2c0.5,0.6,1.2,1,2.1,1c0.9,0,1.6-0.4,2.1-1
		c0.4,0.4,0.9,0.8,1.5,0.9v3.7H8.5c-0.3,0-0.6,0.3-0.6,0.6s0.3,0.6,0.6,0.6h2.9v3.6c0,0.3,0.3,0.6,0.6,0.6s0.6-0.3,0.6-0.6v-3.6h2.9
		c0.3,0,0.6-0.3,0.6-0.6s-0.3-0.6-0.6-0.6h-2.9V14c0.6-0.1,1.1-0.5,1.5-0.9c0.5,0.6,1.2,1,2.1,1c0.9,0,1.6-0.4,2.1-1
		c0.1,0.1,0.1,0.2,0.2,0.2c0.5,0.5,1.3,0.8,2.1,0.7c1.5-0.1,2.5-1.3,2.5-2.9V9.9C23.1,9.3,22.8,8.7,22.3,8.3z M4.6,12.4
		c-0.3,0.3-0.7,0.4-1.1,0.4c-0.7,0-1.4-0.8-1.4-1.6V9.9c0-0.2,0.1-0.5,0.3-0.6l6-4.4L5.8,8.1c-0.4,0.5-0.7,1.3-0.7,2v1.2
		C5.1,11.7,4.9,12.1,4.6,12.4z M7.8,12.8c-0.8,0-1.5-0.6-1.5-1.5v-1.2c0-0.4,0.2-0.9,0.4-1.2l3.9-4.7L9.4,8.5
		C9.4,8.9,9.3,9.3,9.3,9.8v1.5C9.3,12.1,8.6,12.8,7.8,12.8z M12,12.8c-0.8,0-1.5-0.6-1.5-1.5V9.8c0-0.4,0.1-0.8,0.1-1L12,3.9
		l1.3,4.9c0.1,0.3,0.1,0.7,0.1,1.1v1.5C13.5,12.1,12.8,12.8,12,12.8z M16.2,12.8c-0.8,0-1.5-0.6-1.5-1.5V9.8c0-0.5-0.1-1-0.2-1.4
		l-1.2-4.3l3.9,4.7c0.2,0.3,0.4,0.8,0.4,1.2v1.2C17.7,12.1,17,12.8,16.2,12.8z M21.9,11.2c0,0.9-0.6,1.6-1.4,1.6
		c-0.4,0-0.8-0.1-1.1-0.4c-0.3-0.3-0.5-0.7-0.5-1.1v-1.2c0-0.7-0.3-1.5-0.7-2l-2.6-3.2l5.9,4.4c0.2,0.2,0.3,0.4,0.3,0.6V11.2z"/>
	<path d="M7.8,19.8H5c0,0,0,0-0.1,0c0-0.7-0.2-1.3-0.5-1.9l-0.3-0.6C4,17,3.6,16.9,3.3,17C3,17.2,2.9,17.6,3,17.9l0.3,0.6
		c0.6,1.2,0.5,2.6-0.2,3.7C2.9,22.4,3,22.8,3.3,23c0.1,0.1,0.2,0.1,0.3,0.1c0.2,0,0.4-0.1,0.5-0.3c0.4-0.6,0.6-1.2,0.7-1.8
		c0,0,0.1,0,0.1,0h2.2v1.5c0,0.3,0.3,0.6,0.6,0.6s0.6-0.3,0.6-0.6v-2.1C8.4,20.1,8.1,19.8,7.8,19.8z"/>
	<path d="M21,17.9c0.2-0.3,0-0.7-0.3-0.8c-0.3-0.2-0.7,0-0.8,0.3l-0.3,0.6c-0.3,0.6-0.5,1.3-0.5,1.9c0,0,0,0-0.1,0h-2.8
		c-0.3,0-0.6,0.3-0.6,0.6v2.1c0,0.3,0.3,0.6,0.6,0.6s0.6-0.3,0.6-0.6V21H19c0,0,0.1,0,0.1,0c0.1,0.7,0.4,1.3,0.7,1.8
		c0.1,0.2,0.3,0.3,0.5,0.3c0.1,0,0.2,0,0.3-0.1c0.3-0.2,0.4-0.6,0.2-0.9c-0.7-1.1-0.8-2.5-0.2-3.7L21,17.9z"/>
</g>
</svg>
