<?xml version="1.0" encoding="utf-8"?>
<!-- Generator: Adobe Illustrator 25.4.1, SVG Export Plug-In . SVG Version: 6.00 Build 0)  -->
<svg version="1.1" id="Layer_1" xmlns="http://www.w3.org/2000/svg" xmlns:xlink="http://www.w3.org/1999/xlink" x="0px" y="0px"
	 viewBox="0 0 24 24" style="enable-background:new 0 0 24 24;" xml:space="preserve">
<path d="M15.5,8.6h-0.8V2.1h0.1c0.3,0,0.6-0.3,0.6-0.6s-0.3-0.6-0.6-0.6h-0.7H9.9H9.2c-0.3,0-0.6,0.3-0.6,0.6s0.3,0.6,0.6,0.6h0.1
	v6.5H8.5c-1.1,0-2,0.9-2,2v9.1c0,0.9,0.6,1.7,1.4,1.9v0.9c0,0.3,0.3,0.6,0.6,0.6s0.6-0.3,0.6-0.6v-0.8h5.8v0.8
	c0,0.3,0.3,0.6,0.6,0.6s0.6-0.3,0.6-0.6v-0.9c0.8-0.3,1.4-1,1.4-1.9v-9.1C17.5,9.5,16.6,8.6,15.5,8.6z M10.5,2.1h2.9v6.5h-2.9V2.1z
	 M8.5,9.8h1.4h4.2h1.4c0.4,0,0.8,0.3,0.8,0.8v2.2H7.7v-2.2C7.7,10.2,8.1,9.8,8.5,9.8z M15.5,20.5h-7c-0.4,0-0.8-0.3-0.8-0.8V14h8.6
	v5.7C16.3,20.1,15.9,20.5,15.5,20.5z"/>
</svg>
