<?xml version="1.0" encoding="utf-8"?>
<!-- Generator: Adobe Illustrator 25.4.1, SVG Export Plug-In . SVG Version: 6.00 Build 0)  -->
<svg version="1.1" id="Layer_1" xmlns="http://www.w3.org/2000/svg" xmlns:xlink="http://www.w3.org/1999/xlink" x="0px" y="0px"
	 viewBox="0 0 24 24" style="enable-background:new 0 0 24 24;" xml:space="preserve">
<path d="M7.1,15.6c-2,0-3.8-1.3-4.3-3.2l0-0.1H1.5c-0.2,0-0.3-0.1-0.3-0.3v-0.7c0-0.2,0.1-0.3,0.3-0.3h1l0-0.1
	c0-0.6,0.2-1.2,0.6-1.7C3.6,8.7,4.3,8.4,5,8.4h4.2c0.7,0,1.4,0.3,1.9,0.8c0.5,0.5,0.7,1.2,0.6,1.8l0,0.1l0.1,0c0.1,0,0.2,0,0.3,0
	c0.1,0,0.2,0,0.3,0l0.1,0l0-0.1c-0.1-0.7,0.1-1.4,0.6-1.9c0.5-0.5,1.1-0.8,1.9-0.8H19c0.7,0,1.4,0.3,1.9,0.8
	c0.4,0.5,0.6,1.1,0.6,1.7l0,0.1h1c0.2,0,0.3,0.1,0.3,0.3V12c0,0.2-0.1,0.3-0.3,0.3h-1.2l0,0.1c-0.5,1.9-2.3,3.2-4.3,3.2
	c-2,0-3.7-1.2-4.3-3l0-0.1l-0.1,0c-0.2,0-0.4,0-0.5,0c-0.2,0-0.4,0-0.5,0l-0.1,0l0,0.1C10.8,14.3,9,15.6,7.1,15.6z M13.7,11.6
	c0,0.1,0,0.2,0.1,0.3c0.4,1.4,1.7,2.4,3.2,2.4c1.7,0,3.1-1.2,3.3-2.8l0.1-0.6c0-0.3-0.1-0.6-0.3-0.9c-0.3-0.3-0.6-0.4-1-0.4h-4.2
	c-0.4,0-0.7,0.2-1,0.4c-0.2,0.2-0.3,0.6-0.3,0.9L13.7,11.6L13.7,11.6z M5,9.6c-0.4,0-0.7,0.2-1,0.4c-0.2,0.2-0.3,0.6-0.3,0.9
	l0.1,0.6c0.2,1.6,1.6,2.8,3.3,2.8c1.5,0,2.9-1,3.2-2.4c0-0.1,0.1-0.2,0.1-0.4l0.1-0.6c0-0.3-0.1-0.6-0.3-0.9c-0.2-0.3-0.6-0.4-1-0.4
	H5z"/>
</svg>
