<?xml version="1.0" encoding="utf-8"?>
<!-- Generator: Adobe Illustrator 25.4.1, SVG Export Plug-In . SVG Version: 6.00 Build 0)  -->
<svg version="1.1" id="Layer_1" xmlns="http://www.w3.org/2000/svg" xmlns:xlink="http://www.w3.org/1999/xlink" x="0px" y="0px"
	 viewBox="0 0 24 24" style="enable-background:new 0 0 24 24;" xml:space="preserve">
<g>
	<path d="M22.9,4.5c-0.2-0.2-0.5-0.2-0.7-0.1c-0.6,0.3-1,0.4-1.5,0.3c-1.2-0.2-2-1.2-2-2.4c0-0.3-0.4-0.6-0.7-0.6
		c-0.3,0-0.5,0.2-0.6,0.5C17.1,3.2,16,4,14.8,3.8c-0.5,0-0.9-0.3-1.3-0.7C13.3,3,13,2.9,12.8,3c-0.2,0.1-0.4,0.4-0.4,0.6l1.2,11.4
		l-0.3,2c-0.1,0.7,0.1,1.4,0.5,1.9c0.4,0.5,1,0.9,1.7,1c0.1,0,0.2,0,0.3,0c1.3,0,2.4-1,2.6-2.3l0.2-1.8c0,0,0,0,0,0l4.3-10.8
		C23.2,5,23.1,4.7,22.9,4.5z M15.7,18.7C15.7,18.7,15.7,18.7,15.7,18.7c-0.4,0-0.7-0.2-0.9-0.5c-0.2-0.3-0.3-0.6-0.3-1l0.3-1.9
		c0-0.1,0-0.1,0-0.2l0.1-0.5c0.1-0.7,0.7-1.2,1.3-1.2c0.1,0,0.1,0,0.2,0c0.7,0.1,1.3,0.8,1.2,1.5l-0.4,2.6
		C17.2,18.3,16.5,18.8,15.7,18.7z M18.4,13.3c-0.4-0.6-1.1-1.1-1.8-1.2c-0.7-0.1-1.4,0.1-1.9,0.5c0,0,0,0-0.1,0.1l-0.8-7.9
		c0.3,0.1,0.6,0.2,0.9,0.2c1.2,0.2,2.4-0.3,3.2-1.2c0.5,1.1,1.5,1.9,2.7,2C20.8,6,21.1,6,21.4,6L18.4,13.3z"/>
	<path d="M11.8,17.5c0,0,0-0.1,0-0.1l-1-11c0-0.3-0.2-0.5-0.5-0.5c-0.3-0.1-0.5,0-0.7,0.2C9.4,6.5,9,6.8,8.5,6.9
		c-1,0.4-2.2-0.1-2.7-1.2C5.7,5.4,5,5.3,4.7,5.6C4.6,5.8,4.6,6,4.6,6.2c0.2,1.2-0.4,2.3-1.4,2.6C2.6,9,2.2,9,1.7,8.8
		C1.5,8.7,1.2,8.8,1,9C0.8,9.2,0.8,9.5,1,9.7l6,9.1l0.6,1.8c0.2,0.6,0.7,1.1,1.3,1.4c0.3,0.2,0.7,0.2,1.1,0.2c0.3,0,0.6,0,0.9-0.2
		c0.7-0.2,1.2-0.7,1.4-1.3c0.3-0.6,0.3-1.2,0.1-1.8L11.8,17.5z M3.6,10c1.1-0.4,1.9-1.3,2.2-2.4C6.7,8.3,7.9,8.5,9,8.1
		C9.2,8,9.5,7.9,9.7,7.7l0.7,7.5c0,0,0,0,0,0c-0.6-0.3-1.2-0.3-1.9-0.2c0,0-0.1,0-0.1,0c-0.6,0.2-1.1,0.6-1.4,1.2c0,0,0,0.1,0,0.1
		l-4.1-6.2C3,10.1,3.3,10.1,3.6,10z M11.1,20.4c-0.1,0.3-0.4,0.5-0.7,0.7h0c-0.3,0.1-0.7,0.1-1,0c-0.3-0.1-0.5-0.4-0.6-0.7l-0.6-1.7
		c0,0,0-0.1,0-0.1l-0.2-0.6c-0.1-0.3-0.1-0.7,0.1-1c0.1-0.2,0.3-0.4,0.6-0.5c0.1,0,0.1,0,0.2,0c0.3-0.1,0.7-0.1,1,0.1
		c0.3,0.1,0.5,0.4,0.6,0.7l0.9,2.4C11.3,19.8,11.3,20.1,11.1,20.4z"/>
</g>
</svg>
