<?xml version="1.0" encoding="utf-8"?>
<!-- Generator: Adobe Illustrator 25.4.1, SVG Export Plug-In . SVG Version: 6.00 Build 0)  -->
<svg version="1.1" id="Layer_1" xmlns="http://www.w3.org/2000/svg" xmlns:xlink="http://www.w3.org/1999/xlink" x="0px" y="0px"
	 viewBox="0 0 24 24" style="enable-background:new 0 0 24 24;" xml:space="preserve">
<g>
	<path d="M20.4,10H19H5H3.6C3.3,10,3,10.3,3,10.6s0.3,0.6,0.6,0.6h0.8c0.2,2.4,1.5,4.5,3.4,5.7l-2.6,5.3c-0.2,0.3,0,0.7,0.3,0.8
		c0.1,0,0.2,0.1,0.3,0.1c0.2,0,0.5-0.1,0.6-0.3l2.6-5.2c1,0.4,2,0.7,3.1,0.7c1.1,0,2.2-0.2,3.1-0.7l2.6,5.2c0.1,0.2,0.3,0.3,0.6,0.3
		c0.1,0,0.2,0,0.3-0.1c0.3-0.2,0.4-0.5,0.3-0.8l-2.6-5.3c1.9-1.3,3.2-3.3,3.4-5.7h0.8c0.3,0,0.6-0.3,0.6-0.6S20.7,10,20.4,10z
		 M15.7,15.8l-0.3-0.6c-0.2-0.3-0.5-0.4-0.8-0.3c-0.3,0.2-0.4,0.5-0.3,0.8l0.3,0.6C13.8,16.8,12.9,17,12,17c-0.9,0-1.8-0.2-2.6-0.5
		l0.3-0.6c0.2-0.3,0-0.7-0.3-0.8c-0.3-0.2-0.7,0-0.8,0.3l-0.3,0.6c-1.5-1-2.5-2.7-2.7-4.6h12.7C18.2,13.1,17.1,14.8,15.7,15.8z"/>
	<path d="M7.1,9.1h3.5c0.3,0,0.6-0.3,0.6-0.6s-0.3-0.6-0.6-0.6H7.1c-0.3,0-0.6,0.3-0.6,0.6S6.8,9.1,7.1,9.1z"/>
	<path d="M12.8,8.5c0,0.3,0.3,0.6,0.6,0.6h3.5c0.3,0,0.6-0.3,0.6-0.6s-0.3-0.6-0.6-0.6h-3.5C13.1,7.9,12.8,8.2,12.8,8.5z"/>
	<path d="M9.2,6.3c0.3,0,0.6-0.3,0.6-0.6V4.9c0-0.2,0.1-0.4,0.2-0.5c0.4-0.4,0.6-0.9,0.6-1.4c0-0.5-0.2-1-0.6-1.4L9.6,1.1
		C9.4,0.8,9,0.8,8.8,1.1s-0.2,0.6,0,0.9l0.4,0.4c0.2,0.2,0.2,0.3,0.2,0.5c0,0.2-0.1,0.4-0.2,0.5C8.8,3.8,8.6,4.3,8.6,4.9v0.8
		C8.6,6,8.9,6.3,9.2,6.3z"/>
	<path d="M12,6.3c0.3,0,0.6-0.3,0.6-0.6V4.9c0-0.2,0.1-0.4,0.2-0.5c0.4-0.4,0.6-0.9,0.6-1.4c0-0.5-0.2-1-0.6-1.4l-0.4-0.4
		c-0.2-0.2-0.6-0.2-0.9,0s-0.2,0.6,0,0.9L12,2.4c0.2,0.2,0.2,0.3,0.2,0.5c0,0.2-0.1,0.4-0.2,0.5c-0.4,0.4-0.6,0.9-0.6,1.4v0.8
		C11.4,6,11.7,6.3,12,6.3z"/>
	<path d="M14.8,6.3c0.3,0,0.6-0.3,0.6-0.6V4.9c0-0.2,0.1-0.4,0.2-0.5c0.4-0.4,0.6-0.9,0.6-1.4c0-0.5-0.2-1-0.6-1.4l-0.4-0.4
		c-0.2-0.2-0.6-0.2-0.9,0c-0.2,0.2-0.2,0.6,0,0.9l0.4,0.4C14.9,2.5,15,2.7,15,2.9c0,0.2-0.1,0.4-0.2,0.5c-0.4,0.4-0.6,0.9-0.6,1.4
		v0.8C14.2,6,14.5,6.3,14.8,6.3z"/>
</g>
</svg>
