<?xml version="1.0" encoding="utf-8"?>
<!-- Generator: Adobe Illustrator 25.4.1, SVG Export Plug-In . SVG Version: 6.00 Build 0)  -->
<svg version="1.1" id="Layer_1" xmlns="http://www.w3.org/2000/svg" xmlns:xlink="http://www.w3.org/1999/xlink" x="0px" y="0px"
	 viewBox="0 0 24 24" style="enable-background:new 0 0 24 24;" xml:space="preserve">
<g>
	<path d="M17.3,3.7c-1.9,0-3.4,1.5-3.4,3.4s1.5,3.4,3.4,3.4s3.4-1.5,3.4-3.4S19.2,3.7,17.3,3.7z M17.3,9.3c-1.2,0-2.2-1-2.2-2.2
		s1-2.2,2.2-2.2s2.2,1,2.2,2.2S18.5,9.3,17.3,9.3z"/>
	<path d="M17.3,2.8c0.3,0,0.6-0.3,0.6-0.6V1.5c0-0.3-0.3-0.6-0.6-0.6s-0.6,0.3-0.6,0.6v0.7C16.7,2.5,16.9,2.8,17.3,2.8z"/>
	<path d="M17.9,12.7V12c0-0.3-0.3-0.6-0.6-0.6s-0.6,0.3-0.6,0.6v0.7c0,0.3,0.3,0.6,0.6,0.6S17.9,13,17.9,12.7z"/>
	<path d="M12.1,4.8l0.6,0.3c0.1,0.1,0.2,0.1,0.3,0.1c0.2,0,0.4-0.1,0.5-0.3c0.2-0.3,0.1-0.7-0.2-0.9l-0.6-0.3
		c-0.3-0.2-0.7-0.1-0.9,0.2C11.7,4.3,11.8,4.6,12.1,4.8z"/>
	<path d="M22.4,9.4L21.9,9c-0.3-0.2-0.7-0.1-0.9,0.2c-0.2,0.3-0.1,0.7,0.2,0.9l0.6,0.3c0.1,0.1,0.2,0.1,0.3,0.1
		c0.2,0,0.4-0.1,0.5-0.3C22.8,9.9,22.7,9.6,22.4,9.4z"/>
	<path d="M21.6,5.3c0.1,0,0.2,0,0.3-0.1l0.6-0.3c0.3-0.2,0.4-0.6,0.2-0.9c-0.2-0.3-0.6-0.4-0.9-0.2l-0.6,0.3C20.9,4.3,20.8,4.7,21,5
		C21.1,5.2,21.3,5.3,21.6,5.3z"/>
	<path d="M10.6,17.7c-0.6,0-1.2,0.1-1.8,0.2v-2.4h5c0.4,0,0.8-0.2,1-0.5c0.2-0.3,0.3-0.7,0.3-1c-0.5-3.5-3.4-6.1-6.9-6.1
		c-3.5,0-6.5,2.6-6.8,6.1c-0.1,0.4,0,0.7,0.3,1c0.3,0.3,0.6,0.5,1,0.5h4.9v2.7c-2.4,0.6-4.6,2-6.2,4c-0.2,0.2-0.2,0.4-0.1,0.7
		c0.1,0.2,0.3,0.4,0.6,0.4h17.5c0.2,0,0.5-0.1,0.6-0.4c0.1-0.2,0.1-0.5-0.1-0.7C17.6,19.3,14.2,17.7,10.6,17.7z M8.2,9.1
		c0.8,0,1.9,1.8,2.1,5H6.1C6.4,11,7.4,9.1,8.2,9.1z M13.9,14.1C13.9,14.1,13.8,14.2,13.9,14.1l-2.3,0.1c-0.1-1.9-0.5-3.5-1.1-4.6
		C12.2,10.4,13.6,12.1,13.9,14.1z M2.6,14.1C2.8,12,4.1,10.4,6,9.6c-0.6,1.1-1,2.7-1.2,4.6L2.6,14.1L2.6,14.1z M3.3,21.9
		c2-1.9,4.6-3,7.3-3c2.8,0,5.4,1.1,7.3,3H3.3z"/>
</g>
</svg>
