<?xml version="1.0" encoding="utf-8"?>
<!-- Generator: Adobe Illustrator 25.4.1, SVG Export Plug-In . SVG Version: 6.00 Build 0)  -->
<svg version="1.1" id="Layer_1" xmlns="http://www.w3.org/2000/svg" xmlns:xlink="http://www.w3.org/1999/xlink" x="0px" y="0px"
	 viewBox="0 0 24 24" style="enable-background:new 0 0 24 24;" xml:space="preserve">
<path d="M22.3,4.2c-2.2-1.2-4.5-1.3-6.5-0.3c-1.1,0.6-2.1,1.5-2.7,2.6c-0.2-1.6-0.9-3-2-4.1c-1.6-1.5-4-2-6.4-1.3
	C4.6,1.2,4.4,1.4,4.3,1.6c-0.1,0.2,0,0.5,0.2,0.6L6.4,4C6.5,4,6.6,4.1,6.7,4.1l0.7,0.2C7.3,4.5,7.3,4.8,7.5,5l1,0.9
	C8.3,5.9,8,5.9,7.8,5.9c-2.2,0-4.3,1.2-5.6,3.2C2,9.3,2,9.5,2.1,9.7C2.2,9.9,2.5,10,2.7,10h2.6c0.1,0,0.2,0,0.3-0.1l0.6-0.3
	C6.3,9.9,6.5,10,6.8,10h4.9c0.7,2.4,0.3,5.1-1.1,7.2l-0.2,0.3c-3.5,0.2-6.7,1.9-8.9,4.6c-0.2,0.2-0.2,0.4-0.1,0.7s0.3,0.4,0.6,0.4
	h18.2c0.2,0,0.5-0.1,0.6-0.4c0.1-0.2,0.1-0.5-0.1-0.7c-1.3-1.6-2.9-2.8-4.8-3.6c0.8-2.8,0.4-5.8-1-8.3l-0.5-0.8l1.3-0.6
	c0.1,0,0.2-0.1,0.2-0.2L16.2,8c0.2,0.2,0.5,0.2,0.7,0.1l5.5-2.8c0.2-0.1,0.3-0.3,0.3-0.5C22.7,4.5,22.5,4.3,22.3,4.2z M7.1,8.1
	C6.9,8,6.7,8,6.5,8.1L5.2,8.8H4c1.1-1.1,2.4-1.7,3.8-1.7c1.4,0,2.7,0.6,3.8,1.7H7.4V8.7C7.4,8.5,7.3,8.3,7.1,8.1z M8.9,4.4
	C9,4.2,9.1,4,9,3.8S8.8,3.4,8.6,3.3L7.1,2.9L6.3,2.2c1.6-0.1,3,0.3,4.1,1.2c1.1,1,1.6,2.4,1.6,4L8.8,4.5L8.9,4.4z M13.8,8.2
	c0.4-1.4,1.4-2.6,2.6-3.2c0.7-0.4,1.5-0.5,2.3-0.5c0.6,0,1.2,0.1,1.9,0.3l-3.7,1.9l-0.1-0.1c-0.1-0.2-0.3-0.3-0.5-0.3c0,0,0,0,0,0
	c-0.2,0-0.4,0.1-0.5,0.3l-0.9,1.2L13.8,8.2z M14.6,18.1c-0.9-0.3-1.9-0.4-2.8-0.5c1.4-2.3,1.8-5,1.1-7.5c0.1,0,0.2,0,0.2-0.1
	l0.5,0.9C15,13,15.3,15.6,14.6,18.1z M18.7,21.9H3.4c2.1-2,4.8-3.1,7.7-3.1c1.3,0,2.5,0.2,3.7,0.7l0.1,0c0,0,0,0,0,0
	C16.3,20,17.6,20.8,18.7,21.9z"/>
</svg>
