<?xml version="1.0" encoding="utf-8"?>
<!-- Generator: Adobe Illustrator 25.4.1, SVG Export Plug-In . SVG Version: 6.00 Build 0)  -->
<svg version="1.1" id="Layer_1" xmlns="http://www.w3.org/2000/svg" xmlns:xlink="http://www.w3.org/1999/xlink" x="0px" y="0px"
	 viewBox="0 0 24 24" style="enable-background:new 0 0 24 24;" xml:space="preserve">
<path d="M22.7,14.8L22.7,14.8c-0.1-0.1-5.3-9.2-9.9-9.2C8.2,5.6,1.4,16.5,1.4,16.6c-0.1,0.2-0.1,0.4,0,0.6c0.2,0.3,0.4,0.3,0.5,0.3
	c0,0,0,0,0,0l12.6,0.9h0.2l7.7-2.8c0.2-0.1,0.3-0.2,0.4-0.3C22.8,15.1,22.8,15,22.7,14.8z M20.5,13.6L15,15.5
	c-0.3-4.4-0.9-7.2-1.2-8.5C16.3,7.8,19.3,11.7,20.5,13.6z M10.4,12.8c-0.3-0.4-0.8-0.6-1.3-0.6c-2,0-3.6,2.7-4.5,4.4l-1.6-0.1
	c1.6-2.3,6.3-8.9,9.5-9.5c0.3,1,1.1,4.2,1.4,10.3L11.1,17C11.2,16,11.3,13.8,10.4,12.8z M9.9,16.8l-3.3-0.2l-0.6,0
	c0.8-1.5,2.1-3.2,3.1-3.2c0.1,0,0.3,0.1,0.4,0.2C10,14.1,10,15.6,9.9,16.8z M21.2,14.7L15,16.9l0-0.1c0,0,0-0.1,0-0.1L21.2,14.7
	C21.2,14.7,21.2,14.7,21.2,14.7z"/>
</svg>
