<?xml version="1.0" encoding="utf-8"?>
<!-- Generator: Adobe Illustrator 25.4.1, SVG Export Plug-In . SVG Version: 6.00 Build 0)  -->
<svg version="1.1" id="Layer_1" xmlns="http://www.w3.org/2000/svg" xmlns:xlink="http://www.w3.org/1999/xlink" x="0px" y="0px"
	 viewBox="0 0 24 24" style="enable-background:new 0 0 24 24;" xml:space="preserve">
<g>
	<path d="M20.6,17.9L17,4.1c-0.1-0.5-0.4-0.9-0.8-1.1c-0.4-0.2-0.9-0.3-1.3-0.2l-0.1-0.4c-0.1-0.5-0.4-0.9-0.8-1.1
		c-0.4-0.2-0.8-0.2-1.3,0.1l-8.3,4c-0.8,0.4-1.2,1.2-0.9,2l3.7,14c0.1,0.5,0.4,0.8,0.8,1.1c0.3,0.2,0.6,0.2,0.9,0.2
		c0.2,0,0.3,0,0.5-0.1l10.1-2.7c0.5-0.1,0.8-0.4,1.1-0.8C20.7,18.8,20.7,18.4,20.6,17.9z M10,4.1l3.1-1.5c0.1-0.1,0.2-0.1,0.2-0.1
		c0,0,0.1,0,0.1,0.3l0.1,0.4L10,4.1z M15.7,4.4l3.6,13.8c0.1,0.3-0.1,0.5-0.4,0.6L8.9,21.5c-0.1,0-0.3,0-0.4-0.1
		c-0.1-0.1-0.2-0.2-0.2-0.3L4.7,7.3c0-0.1,0-0.3,0.1-0.4C4.8,6.8,4.9,6.7,5,6.7L15.1,4c0,0,0.1,0,0.1,0c0.1,0,0.2,0,0.3,0.1
		C15.6,4.2,15.7,4.3,15.7,4.4z"/>
	<path d="M12,16.9c0.3,0,0.7,0,1-0.1c0.1,0,0.1,0,0.2-0.1c0,0,0,0,0,0c0.1,0,0.1,0,0.2-0.1c0,0,0,0,0,0c0.1,0,0.1,0,0.2-0.1
		c0,0,0,0,0,0c0.1-0.1,0.2-0.1,0.4-0.2c0,0,0,0,0,0c0.8-0.5,1.4-1.2,1.6-2.1c0,0,0,0,0,0c0,0,0-0.1,0-0.1c0,0,0,0,0-0.1
		c0,0,0-0.1,0-0.1c0,0,0,0,0-0.1c0,0,0-0.1,0-0.1c0,0,0-0.1,0-0.1c0,0,0-0.1,0-0.1c0,0,0-0.1,0-0.1c0,0,0,0,0-0.1c0,0,0-0.1,0-0.1
		c0,0,0,0,0-0.1c0,0,0-0.1,0-0.1c0,0,0,0,0-0.1c0,0,0-0.1,0-0.1c0,0,0,0,0-0.1c0-0.1,0-0.1,0-0.2c0,0,0,0,0,0c0-0.1,0-0.1,0-0.2
		c0,0,0,0,0-0.1c0,0,0-0.1,0-0.1c0,0,0,0,0-0.1c0-0.1,0-0.1,0-0.2c0-0.1,0-0.1,0-0.2c0,0,0,0,0,0c0,0,0-0.1,0-0.1c0,0,0,0,0,0
		c0-0.1,0-0.1-0.1-0.2c0,0,0,0,0,0c0,0,0-0.1-0.1-0.1c0,0,0,0,0,0c0,0,0-0.1-0.1-0.1c0,0,0,0,0,0c0,0-0.1-0.1-0.1-0.1c0,0,0,0,0,0
		c0,0-0.1-0.1-0.1-0.1c0,0,0,0,0,0c0,0,0-0.1-0.1-0.1c0,0,0,0,0,0c0,0-0.1-0.1-0.1-0.1c0,0,0,0,0,0c0,0-0.1-0.1-0.1-0.1c0,0,0,0,0,0
		c0,0,0,0-0.1-0.1c0,0,0,0,0,0c0,0-0.1-0.1-0.1-0.1c0,0-0.1-0.1-0.1-0.1c0,0-0.1-0.1-0.1-0.1c0,0,0,0,0,0c0,0-0.1-0.1-0.1-0.1
		c0,0,0,0,0,0c0,0-0.1-0.1-0.1-0.1c0,0,0,0,0,0c0,0-0.1-0.1-0.1-0.1c0,0,0,0,0,0c-0.6-0.3-1.3-0.5-1.9-0.5c0,0,0,0,0,0c0,0,0,0,0,0
		c-0.1,0-0.1,0-0.2,0c0,0,0,0,0,0c-0.1,0-0.1,0-0.2,0c0,0,0,0,0,0c-0.1,0-0.1,0-0.2,0c0,0,0,0,0,0c-0.1,0-0.1,0-0.2,0
		c-0.1,0-0.1,0-0.2,0c0,0,0,0,0,0c0,0-0.1,0-0.1,0c0,0-0.1,0-0.1,0c0,0-0.1,0-0.1,0c0,0-0.1,0-0.1,0c0,0,0,0,0,0
		c-0.1,0.1-0.2,0.1-0.3,0.2l0,0c0,0,0,0,0,0C10,10,10,10,9.9,10c0,0,0,0,0,0c-0.4,0.2-0.7,0.5-0.9,0.9c0,0,0,0,0,0
		c-0.2,0.3-0.4,0.6-0.5,1c0,0,0,0,0,0c0,0,0,0,0,0c0,0,0,0.1,0,0.1c0,0,0,0,0,0c0,0,0,0.1,0,0.1c0,0,0,0,0,0c0,0.1-0.1,0.2-0.1,0.3
		c0,0,0,0,0,0.1c0,0,0,0.1,0,0.1c0,0,0,0,0,0.1c0,0,0,0.1,0,0.1c0,0,0,0.1,0,0.1c0,0,0,0,0,0.1c0,0,0,0.1,0,0.1c0,0,0,0,0,0.1
		c0,0,0,0.1,0,0.1c0,0,0,0,0,0.1c0,0.1,0,0.1,0,0.2c0,0,0,0,0,0c0,0,0,0.1,0,0.1c0,0,0,0,0,0.1c0,0,0,0.1,0,0.1c0,0,0,0,0,0.1
		c0,0.1,0,0.1,0,0.2c0.3,1,0.9,1.8,1.7,2.3C10.7,16.7,11.4,16.9,12,16.9z M11,16c0,0-0.1,0-0.1,0c0,0,0,0,0,0c0,0-0.1,0-0.1,0
		c0,0,0,0,0,0c0,0-0.1,0-0.1-0.1c0,0,0,0,0,0l0.2-0.1C10.9,15.9,11,16,11,16C11,16,11,16,11,16z M10.7,13.9l1.1-0.3l0.3,1.2L11.2,15
		C10.9,14.6,10.8,14.3,10.7,13.9z M12.5,16.2c-0.1,0-0.1,0-0.2,0c0,0,0,0,0,0c-0.1,0-0.1,0-0.2,0c-0.2-0.2-0.4-0.4-0.5-0.6l0.7-0.2
		L12.5,16.2C12.5,16.2,12.5,16.2,12.5,16.2z M13.3,15.9C13.3,15.9,13.3,15.9,13.3,15.9c-0.1,0-0.1,0.1-0.2,0.1l-0.2-0.7l0.6-0.2
		C13.5,15.3,13.4,15.6,13.3,15.9z M13.6,14.3l-0.8,0.2l-0.3-1.2l1-0.3C13.5,13.5,13.6,13.9,13.6,14.3z M14.2,15.3L14.2,15.3
		c0-0.1,0-0.3,0.1-0.4l0.4-0.1C14.4,15,14.3,15.1,14.2,15.3z M15,12.7c0,0.1,0,0.1,0,0.2c0,0,0,0,0,0c0,0.1,0,0.1,0,0.2c0,0,0,0,0,0
		c0,0.1,0,0.1,0,0.2c0,0,0,0,0,0c0,0.1,0,0.1,0,0.2c0,0,0,0,0,0c0,0.2-0.1,0.4-0.1,0.6l-0.7,0.2c0-0.4-0.1-0.9-0.1-1.2L15,12.7z
		 M14.1,10.9c0.1,0.1,0.2,0.2,0.2,0.2c0,0,0,0,0,0c0.1,0.1,0.2,0.3,0.3,0.4c0,0,0,0,0,0c0.1,0.1,0.2,0.3,0.2,0.5c0,0,0,0,0,0
		l-0.9,0.2c-0.1-0.4-0.3-0.7-0.4-1c0-0.1-0.1-0.1-0.1-0.2L14.1,10.9z M12.8,10.2c0,0,0.1,0,0.1,0c0,0,0,0,0,0c0.1,0,0.3,0.1,0.4,0.2
		c0,0,0,0,0,0L13,10.5C12.9,10.4,12.9,10.3,12.8,10.2L12.8,10.2z M13.3,12.4l-1,0.3l-0.3-1.2l0.8-0.2C12.9,11.6,13.1,12,13.3,12.4z
		 M11.5,10.1c0.1,0,0.1,0,0.2,0c0,0,0,0,0,0c0.1,0.1,0.3,0.3,0.5,0.6l-0.6,0.2L11.5,10.1C11.5,10.1,11.5,10.1,11.5,10.1z M10.5,10.5
		C10.5,10.5,10.5,10.5,10.5,10.5c0.1,0,0.1-0.1,0.2-0.1c0,0,0,0,0,0c0.1,0,0.1-0.1,0.2-0.1c0,0,0,0,0,0l0.2,0.7l-0.7,0.2
		C10.4,10.9,10.5,10.6,10.5,10.5z M11.3,11.7l0.3,1.2l-1.1,0.3c0-0.3-0.1-0.5-0.1-0.8c0-0.2,0-0.3,0-0.5L11.3,11.7z M9.7,11.1
		c0,0.1,0,0.2,0,0.3l-0.3,0.1C9.5,11.3,9.6,11.2,9.7,11.1z M9,13.6c0-0.1,0-0.1,0-0.2c0,0,0,0,0,0c0,0,0-0.1,0-0.1c0,0,0,0,0,0
		c0,0,0-0.1,0-0.1c0,0,0,0,0,0C9,13,9,13,9,13c0,0,0,0,0,0c0,0,0-0.1,0-0.1c0,0,0,0,0,0c0-0.2,0.1-0.3,0.1-0.5l0,0l0.6-0.2
		c0,0.1,0,0.2,0,0.3c0,0.3,0.1,0.6,0.1,1L9,13.6C9,13.6,9,13.6,9,13.6z M9.4,14.7C9.4,14.7,9.4,14.7,9.4,14.7c0-0.1-0.1-0.1-0.1-0.1
		c0,0,0,0,0,0c0,0,0-0.1-0.1-0.1c0,0,0,0,0,0c0,0,0-0.1-0.1-0.1L10,14c0.1,0.4,0.3,0.8,0.5,1.1l-0.6,0.2C9.7,15.2,9.5,14.9,9.4,14.7
		z"/>
</g>
</svg>
