<?xml version="1.0" encoding="utf-8"?>
<!-- Generator: Adobe Illustrator 25.4.1, SVG Export Plug-In . SVG Version: 6.00 Build 0)  -->
<svg version="1.1" id="Layer_1" xmlns="http://www.w3.org/2000/svg" xmlns:xlink="http://www.w3.org/1999/xlink" x="0px" y="0px"
	 viewBox="0 0 24 24" style="enable-background:new 0 0 24 24;" xml:space="preserve">
<g>
	<path d="M16.2,10.5c1.9,0,3.4-1.5,3.4-3.4s-1.5-3.4-3.4-3.4s-3.4,1.5-3.4,3.4S14.3,10.5,16.2,10.5z M16.2,4.9c1.2,0,2.2,1,2.2,2.2
		s-1,2.2-2.2,2.2S14,8.3,14,7.1S15,4.9,16.2,4.9z"/>
	<path d="M16.2,2.8c0.3,0,0.6-0.3,0.6-0.6V1.5c0-0.3-0.3-0.6-0.6-0.6s-0.6,0.3-0.6,0.6v0.7C15.6,2.5,15.9,2.8,16.2,2.8z"/>
	<path d="M11,4.8l0.6,0.3c0.1,0.1,0.2,0.1,0.3,0.1c0.2,0,0.4-0.1,0.5-0.3c0.2-0.3,0.1-0.7-0.2-0.9l-0.6-0.3C11.4,3.6,11,3.7,10.8,4
		C10.7,4.3,10.7,4.6,11,4.8z"/>
	<path d="M20.1,10.1l0.6,0.3c0.1,0.1,0.2,0.1,0.3,0.1c0.2,0,0.4-0.1,0.5-0.3c0.2-0.3,0.1-0.7-0.2-0.9L20.8,9
		c-0.3-0.2-0.7-0.1-0.9,0.2C19.8,9.5,19.8,9.9,20.1,10.1z"/>
	<path d="M20.5,5.3c0.1,0,0.2,0,0.3-0.1l0.6-0.3c0.3-0.2,0.4-0.6,0.2-0.9c-0.2-0.3-0.6-0.4-0.9-0.2l-0.6,0.3
		c-0.3,0.2-0.4,0.6-0.2,0.9C20.1,5.2,20.3,5.3,20.5,5.3z"/>
	<path d="M22.5,16.3h-2l-0.4-0.2c-1.8-0.7-3.2-2-4-3.7c-0.1-0.1-0.2-0.3-0.4-0.3l-4.2-1.4c-0.2-0.1-0.4,0-0.6,0.1l-7.5,5.5H1.5
		c-0.3,0-0.6,0.3-0.6,0.6s0.3,0.6,0.6,0.6h21c0.3,0,0.6-0.3,0.6-0.6S22.8,16.3,22.5,16.3z M11.4,12l3.7,1.2c0.7,1.2,1.6,2.3,2.7,3.1
		H5.5L11.4,12z"/>
	<path d="M19.7,19.1H4.3c-0.3,0-0.6,0.3-0.6,0.6s0.3,0.6,0.6,0.6h15.4c0.3,0,0.6-0.3,0.6-0.6S20,19.1,19.7,19.1z"/>
	<path d="M16.2,21.9H7.8c-0.3,0-0.6,0.3-0.6,0.6s0.3,0.6,0.6,0.6h8.4c0.3,0,0.6-0.3,0.6-0.6S16.5,21.9,16.2,21.9z"/>
</g>
</svg>
