<?xml version="1.0" encoding="utf-8"?>
<!-- Generator: Adobe Illustrator 25.4.1, SVG Export Plug-In . SVG Version: 6.00 Build 0)  -->
<svg version="1.1" id="Layer_1" xmlns="http://www.w3.org/2000/svg" xmlns:xlink="http://www.w3.org/1999/xlink" x="0px" y="0px"
	 viewBox="0 0 24 24" style="enable-background:new 0 0 24 24;" xml:space="preserve">
<g>
	<path d="M20,5.2c-0.7-0.8-1.3-1.3-1.3-1.3l0,0c-1.8-1.5-4.1-2.4-6.6-2.4C6.2,1.5,1.5,6.2,1.5,12S6.2,22.5,12,22.5
		S22.5,17.8,22.5,12C22.5,9.4,21.5,7,20,5.2z M10.5,3.4c0,0.1-0.1,0.2-0.1,0.3C8.7,7.2,7.3,9.3,4,8.5C5.2,5.8,7.6,3.9,10.5,3.4z
		 M3.2,12c0-0.6,0.1-1.3,0.2-1.9c0.7,0.2,1.3,0.3,1.8,0.3c3.6,0,5.2-3.2,6.6-6c0.2-0.4,0.3-0.8,0.6-1.1c2.4,0.2,4.5,1.3,6,3
		c0.6,0.7,1.2,1.7,1.2,2.8c0,1-0.5,2.1-1.7,3.1c-0.9,0.8-2.5,0.8-4.3,0.8c-2,0-4.2,0-5.8,1.2c-0.9,0.7-1.9,2.1-1.8,3.8
		c0,0.2,0,0.4,0.1,0.7C4.5,17.1,3.2,14.7,3.2,12z M12,20.8c-0.8,0-1.6-0.1-2.3-0.4c-1.1-0.7-1.7-1.6-1.8-2.5
		c-0.1-1.1,0.5-1.9,1.1-2.5c1-0.9,2.9-0.9,4.6-0.9c2,0,4,0,5.5-1.2c0.6-0.5,1.1-1.1,1.4-1.6v0.1C20.8,16.8,16.8,20.8,12,20.8z"/>
</g>
</svg>
