<?xml version="1.0" encoding="utf-8"?>
<!-- Generator: Adobe Illustrator 25.4.1, SVG Export Plug-In . SVG Version: 6.00 Build 0)  -->
<svg version="1.1" id="Layer_1" xmlns="http://www.w3.org/2000/svg" xmlns:xlink="http://www.w3.org/1999/xlink" x="0px" y="0px"
	 viewBox="0 0 24 24" style="enable-background:new 0 0 24 24;" xml:space="preserve">
<path d="M12,22.2C6.4,22.2,1.8,17.6,1.8,12C1.8,6.4,6.4,1.8,12,1.8c5.6,0,10.2,4.6,10.2,10.2C22.2,17.6,17.6,22.2,12,22.2z
	 M14.6,16.1c-0.9,1.2-1.5,2.6-1.8,4.2l-0.1,0.4l0.4-0.1c1.5-0.2,2.9-0.8,4.2-1.8l0.3-0.2l-2.8-2.8L14.6,16.1z M6.4,18.6l0.3,0.2
	c1.3,1,2.8,1.6,4.4,1.8l0.3,0l0-0.3c0.2-2,1-3.8,2.2-5.4l0.2-0.2L12,13.1L6.4,18.6z M20.3,12.8c-1.5,0.2-2.9,0.8-4.2,1.8l-0.3,0.2
	l2.8,2.8l0.2-0.3c0.9-1.2,1.5-2.6,1.8-4.2l0.1-0.4L20.3,12.8z M9,10.4c-1.5,1.2-3.4,2-5.4,2.2l-0.3,0l0,0.3c0.2,1.6,0.8,3.1,1.8,4.3
	l0.2,0.3l5.6-5.6l-1.6-1.6L9,10.4L9,10.4z M13.1,12l1.6,1.6h0.2l0.1-0.1c1.5-1.2,3.4-2,5.4-2.2l0.3,0l0-0.3
	c-0.2-1.6-0.8-3.1-1.8-4.4l-0.2-0.3L13.1,12z M5.1,6.7c-0.9,1.2-1.5,2.6-1.8,4.2l-0.1,0.4l0.4-0.1c1.5-0.2,2.9-0.8,4.2-1.8l0.3-0.2
	L5.3,6.4L5.1,6.7z M12.7,3.6c-0.2,2-1,3.8-2.2,5.4l-0.2,0.2l1.7,1.7l5.6-5.6l-0.3-0.2c-1.3-1-2.8-1.6-4.3-1.8l-0.3,0L12.7,3.6z
	 M10.8,3.4C9.3,3.6,7.9,4.2,6.7,5.1L6.4,5.3l2.8,2.8l0.2-0.3c0.9-1.2,1.5-2.6,1.8-4.2l0.1-0.4L10.8,3.4z"/>
</svg>
