<?xml version="1.0" encoding="utf-8"?>
<!-- Generator: Adobe Illustrator 25.4.1, SVG Export Plug-In . SVG Version: 6.00 Build 0)  -->
<svg version="1.1" id="Layer_1" xmlns="http://www.w3.org/2000/svg" xmlns:xlink="http://www.w3.org/1999/xlink" x="0px" y="0px"
	 viewBox="0 0 24 24" style="enable-background:new 0 0 24 24;" xml:space="preserve">
<path d="M22.8,18.6c-0.3-0.3-0.8-0.5-1.3-0.5c-0.1,0-0.2,0-0.4,0.1l-8.5-9.8c0,0,0,0,0,0c0,0,0,0,0,0L7,2C6.3,1.2,5.4,0.8,4.4,0.8
	c-1,0-1.9,0.3-2.6,1.1C1.1,2.5,0.7,3.5,0.8,4.4c0,1,0.5,1.9,1.2,2.6l6.4,5.5c0,0,0,0,0,0c0,0,0,0,0,0l7.5,6.5c0,0,0,0,0,0.1
	c0,0,0.1,0.1,0.1,0.1l2.1,1.8c-0.2,0.6,0,1.2,0.4,1.6c0.3,0.3,0.7,0.5,1.2,0.5s0.8-0.2,1.2-0.5l1.8-1.8
	C23.4,20.3,23.4,19.3,22.8,18.6z M10,12l2-2l5.7,6.5l-1.2,1.2L10,12z M2.3,4.4c0-0.6,0.2-1.1,0.6-1.5c0.4-0.4,0.9-0.6,1.5-0.6
	c0,0,0,0,0.1,0C5,2.3,5.5,2.5,5.9,3L11,8.9L8.9,11L3,5.9C2.5,5.5,2.3,5,2.3,4.4z M21.7,19.9l-1.8,1.8c-0.1,0.1-0.1,0.1-0.2,0
	c-0.1-0.1-0.1-0.1,0-0.2c0.1-0.1,0.2-0.3,0.2-0.6c0-0.2-0.1-0.4-0.3-0.5l-2-1.8l1.1-1l1.7,2c0.1,0.2,0.3,0.3,0.6,0.3
	c0.2,0,0.4-0.1,0.6-0.3c0,0,0.1,0,0.1,0.1C21.8,19.7,21.8,19.8,21.7,19.9z"/>
</svg>
