<?xml version="1.0" encoding="utf-8"?>
<!-- Generator: Adobe Illustrator 25.4.1, SVG Export Plug-In . SVG Version: 6.00 Build 0)  -->
<svg version="1.1" id="Layer_1" xmlns="http://www.w3.org/2000/svg" xmlns:xlink="http://www.w3.org/1999/xlink" x="0px" y="0px"
	 viewBox="0 0 24 24" style="enable-background:new 0 0 24 24;" xml:space="preserve">
<g id="_289-Sport_Ball">
	<path d="M12,1.2C6.1,1.2,1.2,6.1,1.2,12S6.1,22.7,12,22.7S22.8,17.9,22.8,12S17.9,1.2,12,1.2z M12,20.8c-4.9,0-8.9-4-8.9-8.8
		s4-8.9,8.9-8.9s8.8,4,8.8,8.9S16.9,20.8,12,20.8z"/>
	<g>
		<path d="M15.6,9.7c-0.3,0-0.7-0.1-1-0.3c-0.4-0.3-0.8-0.7-0.9-1.2c-0.3-1,0.3-2.1,1.4-2.3l0,0c0.5-0.1,1-0.1,1.4,0.2
			c0.4,0.3,0.8,0.7,0.9,1.2c0.3,1-0.3,2.1-1.4,2.3C15.9,9.6,15.7,9.7,15.6,9.7z M15.6,7.3c0,0-0.1,0-0.1,0h0
			c-0.3,0.1-0.4,0.3-0.4,0.6c0,0.1,0.1,0.2,0.2,0.3c0.1,0.1,0.2,0.1,0.4,0.1c0.3-0.1,0.4-0.3,0.4-0.6c0-0.1-0.1-0.2-0.2-0.3
			C15.7,7.3,15.7,7.3,15.6,7.3z"/>
	</g>
	<g>
		<path d="M16.8,14.3c-0.8,0-1.6-0.6-1.8-1.4c-0.1-0.5-0.1-1,0.2-1.4c0.3-0.4,0.7-0.8,1.2-0.9l0,0c0.5-0.1,1-0.1,1.4,0.2
			c0.4,0.3,0.8,0.7,0.9,1.2c0.3,1-0.3,2.1-1.4,2.3C17.1,14.3,16.9,14.3,16.8,14.3z M16.8,11.9c0,0-0.1,0-0.1,0c0,0,0,0,0,0
			c-0.1,0-0.2,0.1-0.3,0.2c-0.1,0.1-0.1,0.3-0.1,0.4c0.1,0.3,0.3,0.4,0.6,0.4c0.3-0.1,0.4-0.3,0.4-0.6c0-0.1-0.1-0.2-0.2-0.3
			C17,11.9,16.9,11.9,16.8,11.9z"/>
	</g>
	<g>
		<path d="M10.9,10.9c-0.3,0-0.7-0.1-1-0.3C9.5,10.4,9.2,10,9.1,9.5C9,9,9,8.5,9.3,8c0.3-0.4,0.7-0.8,1.2-0.9c0,0,0,0,0,0
			c1-0.3,2.1,0.3,2.3,1.4c0.3,1-0.3,2.1-1.4,2.3C11.2,10.9,11.1,10.9,10.9,10.9z M10.8,8.5L10.8,8.5c-0.1,0-0.2,0.1-0.3,0.2
			c-0.1,0.1-0.1,0.3-0.1,0.4c0,0.1,0.1,0.2,0.2,0.3c0.1,0.1,0.3,0.1,0.4,0.1c0.3-0.1,0.4-0.3,0.4-0.6C11.3,8.6,11.1,8.4,10.8,8.5z"
			/>
	</g>
</g>
</svg>
