<?xml version="1.0" encoding="utf-8"?>
<!-- Generator: Adobe Illustrator 25.4.1, SVG Export Plug-In . SVG Version: 6.00 Build 0)  -->
<svg version="1.1" id="Layer_1" xmlns="http://www.w3.org/2000/svg" xmlns:xlink="http://www.w3.org/1999/xlink" x="0px" y="0px"
	 viewBox="0 0 24 24" style="enable-background:new 0 0 24 24;" xml:space="preserve">
<path d="M12,22.2C6.4,22.2,1.8,17.6,1.8,12C1.8,6.4,6.4,1.8,12,1.8c5.6,0,10.2,4.6,10.2,10.2C22.2,17.6,17.6,22.2,12,22.2z M9.1,17
	l1.3,3.5h0.2c0.4,0.1,0.9,0.1,1.4,0.1s1,0,1.5-0.1l0.2,0l1.3-3.5l-1.1-1.1h-3.6L9.1,17z M6,18.2c0.6,0.5,1.2,1,1.9,1.4L8.6,20
	l-0.9-2.2l-2.4-0.2L6,18.2z M16.2,17.8L15.4,20l0.7-0.4c0.7-0.4,1.3-0.8,1.9-1.3l0.6-0.6L16.2,17.8z M15.8,11.5l-0.8,3.4l1.4,1.4
	l3.3-0.1l0.1-0.2c0.5-0.9,0.8-1.8,0.9-2.8l0-0.2l-2.8-2.2L15.8,11.5z M3.4,13.1l0,0.2c0.1,1,0.4,1.9,0.9,2.8l0.1,0.2l3.3,0.1
	l1.4-1.4l-0.8-3.4l-2-0.7L3.4,13.1z M9.7,11.3l0.8,3.1h3l0.8-3.1L12,9.7L9.7,11.3z M4.2,8.3C3.9,9,3.6,9.7,3.5,10.4l-0.2,0.8
	l1.8-1.5L4.5,7.6L4.2,8.3z M18.8,9.8l1.9,1.4l-0.1-0.8c-0.1-0.8-0.4-1.5-0.7-2.2l-0.3-0.7L18.8,9.8z M8.2,4.2
	c-0.9,0.4-1.7,1-2.4,1.7L5.7,6l0.9,3.4l2.1,0.7l2.5-1.7V6.1l-2.9-2L8.2,4.2z M12.8,6.1v2.3l2.5,1.7l2.1-0.7L18.3,6l-0.1-0.1
	c-0.7-0.7-1.5-1.3-2.4-1.7l-0.2-0.1L12.8,6.1z M12,3.3c-0.4,0-0.8,0-1.2,0.1L10,3.5l2,1.3l2-1.3l-0.8-0.1C12.8,3.3,12.4,3.3,12,3.3
	L12,3.3L12,3.3z"/>
</svg>
