<?xml version="1.0" encoding="utf-8"?>
<!-- Generator: Adobe Illustrator 25.4.1, SVG Export Plug-In . SVG Version: 6.00 Build 0)  -->
<svg version="1.1" id="Layer_1" xmlns="http://www.w3.org/2000/svg" xmlns:xlink="http://www.w3.org/1999/xlink" x="0px" y="0px"
	 viewBox="0 0 24 24" style="enable-background:new 0 0 24 24;" xml:space="preserve">
<g>
	<path d="M18.4,10V7.2c0-3.5-2.9-6.4-6.4-6.4S5.6,3.6,5.6,7.2V10c-1.5,1.6-2.4,3.7-2.4,6.1c0,2.8,1.3,5.4,3.5,7.1
		c0.1,0.1,0.3,0.2,0.5,0.2h9.7c0.2,0,0.3-0.1,0.5-0.2c2.2-1.7,3.5-4.3,3.5-7.1C20.8,13.7,19.9,11.6,18.4,10z M12,2.2
		c2.7,0,4.9,2.2,4.9,4.9v1.6c-1.4-0.9-3.1-1.5-4.9-1.5c-1.8,0-3.5,0.6-4.9,1.5V7.2C7.1,4.4,9.3,2.2,12,2.2z M16.6,21.7H7.4
		c-1.7-1.4-2.7-3.5-2.7-5.7c0-2,0.8-3.8,2.1-5.1c0,0,0.1-0.1,0.1-0.1C8.2,9.5,10,8.7,12,8.7c2,0,3.8,0.8,5.1,2.1
		c0,0,0.1,0.1,0.1,0.1c1.3,1.3,2.1,3.1,2.1,5.1C19.3,18.2,18.3,20.4,16.6,21.7z"/>
	<path d="M17.3,14.4c-0.4-1.2-1.2-2.3-2.3-3c-0.4-0.2-0.8-0.1-1,0.2c-0.2,0.3-0.1,0.8,0.2,1c0.7,0.5,1.4,1.3,1.6,2.2
		c0.1,0.3,0.4,0.5,0.7,0.5c0.1,0,0.1,0,0.2,0C17.2,15.2,17.4,14.8,17.3,14.4z"/>
</g>
</svg>
