<?xml version="1.0" encoding="utf-8"?>
<!-- Generator: Adobe Illustrator 25.4.1, SVG Export Plug-In . SVG Version: 6.00 Build 0)  -->
<svg version="1.1" id="Layer_1" xmlns="http://www.w3.org/2000/svg" xmlns:xlink="http://www.w3.org/1999/xlink" x="0px" y="0px"
	 viewBox="0 0 24 24" style="enable-background:new 0 0 24 24;" xml:space="preserve">
<g>
	<path d="M22,2.1c-0.3-0.4-0.7-0.6-1.2-0.6h-0.9c-0.6,0-1.1,0.3-1.4,0.9l-6.7,14.5c-0.1,0.2-0.3,0.3-0.5,0.3H5.3
		c-1.3,0-2.4,0.8-2.7,2l-0.3,0.7c-0.2,0.6-0.2,1.3,0.2,1.8c0.4,0.5,1,0.8,1.6,0.8h6.7c1.4,0,2.8-0.8,3.4-2.2l7.9-16.8
		C22.4,3.1,22.3,2.6,22,2.1z M13.1,19.7c-0.4,0.8-1.3,1.4-2.2,1.4H4.2c-0.2,0-0.4-0.1-0.5-0.2c-0.1-0.1-0.1-0.3,0-0.5l0.3-0.8
		c0.2-0.6,0.7-1,1.4-1h6.1c0.8,0,1.5-0.4,1.7-1.1l4.3-9.3h1.1L13.1,19.7z M19.2,6.7h-1.1L19.8,3c0,0,0-0.1,0.1-0.1l1,0.1
		c0,0,0,0.1,0,0.1c0,0,0,0,0,0L19.2,6.7z"/>
	<path d="M8.5,13.5c0.1-0.5-0.1-0.9-0.4-1.2c-0.8-0.9-2.4-1-3.1-1c-1.9,0-3.3,0.9-3.3,2.1C1.7,14,2,15.3,5,15.3
		C6.1,15.3,8.2,15.3,8.5,13.5z M3.1,13.4c0-0.3,0.8-0.7,1.9-0.7c1.1,0,1.8,0.3,2,0.5c0,0.1,0,0.1,0,0.1c0,0.2-0.3,0.6-2.1,0.6
		C3.7,13.9,3.1,13.6,3.1,13.4z"/>
</g>
</svg>
