<?xml version="1.0" encoding="utf-8"?>
<!-- Generator: Adobe Illustrator 25.4.1, SVG Export Plug-In . SVG Version: 6.00 Build 0)  -->
<svg version="1.1" id="Layer_1" xmlns="http://www.w3.org/2000/svg" xmlns:xlink="http://www.w3.org/1999/xlink" x="0px" y="0px"
	 viewBox="0 0 24 24" style="enable-background:new 0 0 24 24;" xml:space="preserve">
<path d="M22.5,21.3h-4.1v-2.5h2.5c0.4,0,0.8-0.3,0.8-0.8v-3.2c0-2.4-0.5-4.1-1.5-5.6L20,9V5.2c0-0.4-0.3-0.8-0.8-0.8h-3.3
	c-0.2-1.1-0.9-2.3-2.1-2.3c-0.9,0-1.7,0-1.8,0.1c-0.1,0-0.2,0-0.3,0.1c-0.3,0.1-0.5,0.4-0.5,0.7v3.6c0,1.6,0,3-2,3.7l-5.5,1.7
	c-1.8,0.5-3,2.1-3,3.9V18c0,0.1,0,0.3,0.1,0.4c0.2,2.5,2.2,4.4,4.7,4.4h16.9c0.4,0,0.8-0.3,0.8-0.8S22.9,21.3,22.5,21.3z M16.9,21.3
	H8.8v-2.5H9c0.9,0,1.8-0.1,2.5-0.4l3.1-0.9V18c0,0.4,0.3,0.8,0.8,0.8h1.7V21.3z M16,17.3v-0.2l4.1-1.2v1.5H16z M2.2,15.8
	c0-1.2,0.8-2.2,2-2.5l3.4-1l1.5,1.5C9.2,13.9,9.4,14,9.6,14s0.4-0.1,0.5-0.2c0.3-0.3,0.3-0.8,0-1.1l-0.9-0.9l0.5-0.2
	c0.6-0.2,1-0.4,1.4-0.7l1.2,1.2c0.1,0.1,0.3,0.2,0.5,0.2c0.2,0,0.4-0.1,0.5-0.2c0.3-0.3,0.3-0.8,0-1.1l-1.3-1.3
	c0.7-1.1,0.7-2.4,0.7-3.4V3.6c0.3,0,0.6,0,1,0c0.3,0,0.7,0.8,0.7,1.6c0,0.4,0.3,0.8,0.8,0.8h3.3v3.3c0,0.1,0,0.3,0.1,0.4l0.3,0.4
	c0.8,1.1,1.2,2.4,1.2,4.2L11,17c-0.6,0.2-1.3,0.3-2,0.3H2.2V15.8z M2.4,18.8h4.8v2.5H5.6C4,21.3,2.8,20.2,2.4,18.8z"/>
</svg>
