<?xml version="1.0" encoding="utf-8"?>
<!-- Generator: Adobe Illustrator 25.4.1, SVG Export Plug-In . SVG Version: 6.00 Build 0)  -->
<svg version="1.1" id="Layer_1" xmlns="http://www.w3.org/2000/svg" xmlns:xlink="http://www.w3.org/1999/xlink" x="0px" y="0px"
	 viewBox="0 0 24 24" style="enable-background:new 0 0 24 24;" xml:space="preserve">
<path d="M5.3,22.5c-0.6,0-1.1-0.2-1.5-0.6l-1.7-1.7c-0.8-0.8-0.8-2.1,0-2.9l2.5-2.5l-0.1-0.2C2.9,11,3.7,7,6.4,4.3
	c1.8-1.8,4.2-2.8,6.7-2.8c0.2,0,0.3,0,0.5,0c2.7,0.1,5.2,1.4,6.9,3.6c2.7,3.4,2.7,8.4-0.1,11.8c-1.8,2.2-4.5,3.5-7.3,3.5
	c0,0,0,0,0,0c-1.3,0-2.5-0.3-3.7-0.7l-0.2-0.1l-2.4,2.4C6.4,22.3,5.9,22.5,5.3,22.5z M5.4,10.5c-0.1,1.2,0.1,2.4,0.6,3.5
	c0.3,0.8,0.2,1.6-0.4,2.2l-2.5,2.5l2.2,2.2l2.5-2.5c0.4-0.4,0.9-0.6,1.4-0.6c0.3,0,0.6,0.1,0.8,0.2c0.9,0.4,1.9,0.6,3,0.6
	c0.1,0,0.3,0,0.4,0l0.8,0L5.4,9.7L5.4,10.5z M13.1,3.2c-2,0-4,0.8-5.4,2.3C7,6.1,6.5,6.8,6.1,7.6L6,7.8L16.2,18l0.2-0.1
	c1-0.5,1.9-1.2,2.7-2.1c2.3-2.7,2.3-6.9,0.1-9.6c-0.2-0.2-0.4-0.5-0.6-0.7c-1.4-1.4-3.1-2.1-5-2.2C13.4,3.2,13.2,3.2,13.1,3.2z"/>
</svg>
