<?xml version="1.0" encoding="utf-8"?>
<!-- Generator: Adobe Illustrator 25.4.1, SVG Export Plug-In . SVG Version: 6.00 Build 0)  -->
<svg version="1.1" id="Layer_1" xmlns="http://www.w3.org/2000/svg" xmlns:xlink="http://www.w3.org/1999/xlink" x="0px" y="0px"
	 viewBox="0 0 24 24" style="enable-background:new 0 0 24 24;" xml:space="preserve">
<g>
	<path d="M20.7,9.2V5.6c0-0.4-0.3-0.8-0.8-0.8h-3.1c-0.2-1.1-0.8-2.2-1.8-2.2c-0.7,0-1.8-0.1-1.8-0.1c-0.2,0-0.4,0.1-0.6,0.2
		c-0.2,0.1-0.2,0.3-0.2,0.5v4.2c0,1.2-0.8,2.3-1.8,2.7l-5.9,1.6c-1.6,0.5-2.8,2-2.8,3.6v0.3c0,0.8,0.5,1.5,1.2,1.8
		c-0.3,0.5-0.5,1-0.5,1.6c0,1.7,1.3,3,3,3s3-1.3,3-3c0-0.5-0.2-1.1-0.4-1.5h7.6c-0.3,0.4-0.4,1-0.4,1.5c0,1.7,1.3,3,3,3s3-1.3,3-3
		c0-0.6-0.2-1.1-0.5-1.6c0.7-0.3,1.3-1,1.3-1.8v-1.4C22.2,12.5,21.7,10.8,20.7,9.2z M3.3,15.5c0-1,0.7-1.9,1.7-2.2l5.9-1.6
		c1.7-0.6,2.9-2.3,2.9-4.1V4.2c0.4,0,0.8,0,1,0C15,4.3,15.3,5,15.3,5.6c0,0.4,0.3,0.8,0.8,0.8h3.1v3c0,0.1,0,0.3,0.1,0.4
		c0.9,1.4,1.4,2.9,1.4,4.5v1.4c0,0.2-0.2,0.4-0.4,0.4H3.7c-0.2,0-0.4-0.2-0.4-0.4V15.5z M7.1,19.1c0,0.8-0.7,1.5-1.5,1.5
		S4.1,20,4.1,19.1s0.7-1.5,1.5-1.5S7.1,18.3,7.1,19.1z M18.3,20.6c-0.8,0-1.5-0.7-1.5-1.5s0.7-1.5,1.5-1.5s1.5,0.7,1.5,1.5
		S19.2,20.6,18.3,20.6z"/>
	<path d="M16.8,13.9c1.2,0,2.2-1,2.2-2.2c0-1.2-1-2.2-2.2-2.2s-2.2,1-2.2,2.2C14.6,12.9,15.6,13.9,16.8,13.9z M16.8,10.9
		c0.4,0,0.8,0.3,0.8,0.8s-0.3,0.8-0.8,0.8s-0.8-0.3-0.8-0.8S16.4,10.9,16.8,10.9z"/>
</g>
</svg>
