<?xml version="1.0" encoding="utf-8"?>
<!-- Generator: Adobe Illustrator 25.4.1, SVG Export Plug-In . SVG Version: 6.00 Build 0)  -->
<svg version="1.1" id="Layer_1" xmlns="http://www.w3.org/2000/svg" xmlns:xlink="http://www.w3.org/1999/xlink" x="0px" y="0px"
	 viewBox="0 0 24 24" style="enable-background:new 0 0 24 24;" xml:space="preserve">
<g>
	<path d="M22.4,7c-0.1-0.9-0.3-1.8-0.6-2.7c-0.1-0.2-0.2-0.3-0.3-0.4c-0.9-0.5-1.8-0.9-2.8-1.2c0,0,0,0,0,0
		c-0.2-0.1-0.4-0.1-0.6-0.1c-0.1,0-0.3-0.1-0.4-0.1c-0.2-0.1-0.5-0.1-0.7-0.1c-0.1,0-0.2,0-0.3-0.1c-1-0.1-2.1-0.2-3.1,0
		c-1,0.1-1.9,0.3-2.9,0.6C6.2,4.3,3,8,1.9,12.2c0,0,0,0,0,0.1c-0.2,0.7-0.3,1.4-0.3,2c0,0.1,0,0.2,0,0.3c0,0.3,0,0.6,0,0.9
		c0,0.1,0,0.2,0,0.4c0,0.4,0,0.7,0.1,1.1c0,0.1,0,0.2,0,0.3c0,0.3,0.1,0.6,0.2,0.9c0,0.1,0.1,0.2,0.1,0.4c0.1,0.4,0.2,0.8,0.3,1.2
		c0.1,0.2,0.2,0.3,0.3,0.4c2,1.2,4.3,1.8,6.6,1.8h0l0.4,0c0.4,0,0.7,0,1.2-0.1c5.7-0.7,10.4-4.9,11.5-10.5c0,0,0,0,0,0
		c0.2-1.1,0.3-2.1,0.3-3.2C22.5,7.7,22.5,7.3,22.4,7z M10.1,20.4c-0.6-3.8-3.1-7-6.7-8.4c1.3-4.3,5-7.6,9.6-8.3
		c0.9,3.8,3.8,6.9,7.7,7.9c-1.3,4.7-5.3,8.2-10.1,8.7C10.4,20.4,10.2,20.4,10.1,20.4z M2.9,14.4c0-0.3,0.1-0.7,0.1-1
		c3,1.2,5.1,3.8,5.6,7c-0.1,0-0.3,0-0.4,0c-0.2,0-0.4,0-0.6-0.1c-0.3,0-0.6-0.1-0.8-0.1c-0.2,0-0.4-0.1-0.6-0.1
		c-0.3-0.1-0.6-0.2-0.9-0.3c-0.2-0.1-0.4-0.1-0.5-0.2c-0.5-0.2-0.9-0.4-1.3-0.6c-0.4-1.1-0.5-2.3-0.5-3.5
		C2.9,15.1,2.9,14.8,2.9,14.4z M14.8,3.5C14.8,3.5,14.8,3.5,14.8,3.5c2,0,4,0.5,5.7,1.4c0.2,0.7,0.4,1.4,0.5,2.1
		c0.1,1,0.1,2.1,0,3.1c-3.2-0.9-5.7-3.4-6.5-6.7C14.6,3.5,14.7,3.5,14.8,3.5z"/>
	<path d="M13.9,9.1c-0.3,0.1-0.6,0.3-0.9,0.5c-0.3-0.2-0.6-0.5-0.9-0.7c-0.2-0.2-0.6-0.1-0.7,0.1c-0.2,0.2-0.2,0.6,0,0.8
		c0.2,0.2,0.4,0.3,0.6,0.5c-0.3,0.2-0.5,0.4-0.8,0.6c-0.2-0.2-0.4-0.4-0.7-0.6c0,0,0,0,0,0c-0.1-0.1-0.3-0.1-0.4-0.1
		c-0.2,0-0.3,0.1-0.4,0.2c-0.2,0.3-0.1,0.6,0.1,0.8c0.2,0.1,0.4,0.3,0.5,0.4c-0.2,0.2-0.4,0.4-0.6,0.6c-0.2-0.2-0.4-0.3-0.6-0.5l0,0
		c-0.3-0.2-0.6-0.1-0.8,0.1c-0.2,0.3-0.1,0.6,0.1,0.8c0.2,0.2,0.4,0.3,0.6,0.5c-0.2,0.2-0.3,0.4-0.5,0.6c-0.1,0.1-0.1,0.2-0.1,0.3
		c0,0.3,0.3,0.6,0.6,0.6c0,0,0,0,0,0c0.2,0,0.4-0.1,0.5-0.2c0.1-0.2,0.3-0.3,0.4-0.5c0.1,0.1,0.3,0.2,0.4,0.4
		c0.1,0.1,0.3,0.2,0.5,0.2c0.1,0,0.2,0,0.3-0.1c0,0,0,0,0,0c0.1-0.1,0.2-0.2,0.2-0.4c0-0.2,0-0.3-0.1-0.4c-0.2-0.2-0.4-0.3-0.5-0.5
		c0.2-0.2,0.4-0.4,0.6-0.6c0.1,0.1,0.3,0.3,0.4,0.4c0.1,0.1,0.3,0.2,0.5,0.2h0c0.1,0,0.3,0,0.4-0.1c0.1-0.1,0.2-0.2,0.2-0.4
		c0-0.2,0-0.3-0.1-0.4c-0.1-0.2-0.3-0.3-0.5-0.4c0.3-0.2,0.5-0.4,0.8-0.6c0.1,0.1,0.3,0.3,0.4,0.4c0.1,0.1,0.3,0.2,0.5,0.2h0
		c0.1,0,0.3,0,0.4-0.1c0.1-0.1,0.2-0.2,0.2-0.4c0-0.2,0-0.3-0.1-0.4c-0.1-0.1-0.2-0.2-0.3-0.3c0.2-0.1,0.3-0.2,0.5-0.3
		c0.3-0.1,0.4-0.5,0.3-0.7C14.5,9.1,14.2,9,13.9,9.1z"/>
</g>
</svg>
