<?xml version="1.0" encoding="utf-8"?>
<!-- Generator: Adobe Illustrator 25.4.1, SVG Export Plug-In . SVG Version: 6.00 Build 0)  -->
<svg version="1.1" id="Layer_1" xmlns="http://www.w3.org/2000/svg" xmlns:xlink="http://www.w3.org/1999/xlink" x="0px" y="0px"
	 viewBox="0 0 24 24" style="enable-background:new 0 0 24 24;" xml:space="preserve">
<g id="layer1" transform="translate(0,-288.53332)">
	<path id="path1642" d="M6,298.6C5.9,298.7,5.9,298.7,6,298.6c-2.8,2.9-2.8,7.5,0,10.3c2.8,2.8,7.4,2.8,10.3,0
		c2.7-2.7,2.8-6.9,0.4-9.8l3.3-3.3c0.3-0.3,0.3-0.7,0-0.9l-4.7-4.7c-0.3-0.3-0.7-0.3-0.9,0l-2.8,2.8l-2.8,2.8L6,298.6z M6.9,299.5
		l2.3-2.3l1.4,1.4c0.3,0.3,0.7,0.3,0.9,0l2.8-2.8c0.3-0.3,0.3-0.7,0-0.9l-1.4-1.4l1.9-1.9l3.7,3.7l-3.2,3.2
		c-0.3,0.2-0.4,0.6-0.2,0.9c0,0,0,0,0,0c0,0,0.1,0.1,0.1,0.1c2.3,2.3,2.3,6.1,0,8.4c-2.3,2.3-6.1,2.3-8.4,0
		C4.6,305.6,4.6,301.9,6.9,299.5C6.9,299.6,6.9,299.6,6.9,299.5z M10.2,296.3l1.9-1.9l0.9,0.9l-1.9,1.9L10.2,296.3z M8.8,301.4
		c-1.3,1.3-1.3,3.4,0,4.7c1.3,1.3,3.4,1.3,4.7,0c1.3-1.3,1.3-3.4,0-4.7C12.2,300.2,10,300.1,8.8,301.4z M9.7,302.4
		c0.8-0.8,2-0.8,2.8,0c0.8,0.8,0.8,2,0,2.8c-0.8,0.8-2,0.8-2.8,0C8.9,304.4,8.9,303.1,9.7,302.4z"/>
</g>
</svg>
