<?xml version="1.0" encoding="utf-8"?>
<!-- Generator: Adobe Illustrator 25.4.1, SVG Export Plug-In . SVG Version: 6.00 Build 0)  -->
<svg version="1.1" id="Layer_1" xmlns="http://www.w3.org/2000/svg" xmlns:xlink="http://www.w3.org/1999/xlink" x="0px" y="0px"
	 viewBox="0 0 24 24" style="enable-background:new 0 0 24 24;" xml:space="preserve">
<path d="M17,4.2C16.5,4,16,4,15.5,4c-0.6,0-1.1,0.1-1.6,0.2c-0.2,0-0.3,0.1-0.5,0.1h0c0.2-0.7,0.7-1.4,1.5-2.2
	c0.2-0.2,0.2-0.6,0-0.9c-0.1-0.1-0.3-0.1-0.4-0.1c-0.2,0-0.3,0.1-0.4,0.2L14,1.4c-0.8,0.8-1.4,1.8-1.8,2.8c-0.1,0-0.1-0.1-0.2-0.1
	c-0.5-0.2-1.2-0.6-2.2-0.6c-0.4,0-0.9,0.1-1.4,0.2c-4.3,0.8-6.7,4.1-6.6,9.1c0,4.7,3.4,8.9,8,9.9h0.3c0.4,0,1.2-0.6,1.9-0.6
	c0.7,0,1.4,0.4,1.9,0.5c0.2,0,0.5,0.1,0.7,0c4.3-1.1,6.7-4.1,7.4-8.5l0-0.2c0.1-0.7,0.2-1.3,0.2-2.1C22.3,8.1,20.3,5.2,17,4.2z
	 M14.4,5.8c0.3-0.1,0.7-0.2,1.1-0.2c0.3,0,0.6,0.1,0.9,0.1l0.2,0c2.6,0.8,4,3,4,6.3c0,0.6-0.1,1.3-0.2,2c-0.5,3.8-2.4,6-6.3,7h-0.2
	c-0.1,0-1.3-0.5-2-0.5s-1.7,0.6-1.8,0.5l-0.2,0c-3.9-0.8-6.7-4.3-6.7-8.3c0-4.2,1.8-6.8,5.3-7.6C9,5.1,9.4,5.1,9.8,5.1
	c0.7,0,1,0.2,1.4,0.4c0.4,0.3,0.7,0.5,1.3,0.6c0.4,0,0.8-0.1,1.2-0.2l0.2,0C14.1,5.9,14.2,5.9,14.4,5.8z"/>
</svg>
