<?xml version="1.0" encoding="utf-8"?>
<!-- Generator: Adobe Illustrator 25.4.1, SVG Export Plug-In . SVG Version: 6.00 Build 0)  -->
<svg version="1.1" id="Layer_1" xmlns="http://www.w3.org/2000/svg" xmlns:xlink="http://www.w3.org/1999/xlink" x="0px" y="0px"
	 viewBox="0 0 24 24" style="enable-background:new 0 0 24 24;" xml:space="preserve">
<path d="M20,12.4h-0.4v-1.3c0.9-0.3,1.5-1.2,1.5-2.2c0-4.1-3.3-7.4-7.4-7.4h-3.3C6.3,1.5,3,4.8,3,8.9c0,1,0.6,1.8,1.5,2.2v1.3H4
	c-1,0-1.8,0.8-1.8,1.8v0.4c0,1,0.8,1.8,1.8,1.8h0.4v1.3C3.6,18,3,18.8,3,19.8v0.4c0,1.3,1,2.3,2.3,2.3h13.4c1.3,0,2.3-1,2.3-2.3
	v-0.4c0-1-0.6-1.8-1.5-2.2v-1.3H20c1,0,1.8-0.8,1.8-1.8v-0.4C21.8,13.2,21,12.4,20,12.4z M11,11.2h5.4l-2.6,2.4L11,11.2z M18.2,11.5
	v0.9h-1L18.2,11.5z M10.4,2.9h3.3c3.3,0,6,2.7,6,6c0,0.5-0.4,0.9-0.9,0.9H5.3c-0.5,0-0.9-0.4-0.9-0.9C4.4,5.6,7.1,2.9,10.4,2.9z
	 M5.8,11.2h3l1.3,1.1H5.8V11.2z M3.6,14.5v-0.4c0-0.2,0.2-0.4,0.4-0.4h1.1h6.7l1.3,1.1H5.1H4C3.8,14.9,3.6,14.8,3.6,14.5z
	 M19.6,20.2c0,0.5-0.4,0.9-0.9,0.9H5.3c-0.5,0-0.9-0.4-0.9-0.9v-0.4c0-0.5,0.4-0.9,0.9-0.9h13.4c0.5,0,0.9,0.4,0.9,0.9V20.2z
	 M18.2,17.5H5.8v-1.1h12.4V17.5z M20.4,14.5c0,0.2-0.2,0.4-0.4,0.4h-1.1h-4.5l1.2-1.1h3.2H20c0.2,0,0.4,0.2,0.4,0.4V14.5z"/>
</svg>
