<?xml version="1.0" encoding="utf-8"?>
<!-- Generator: Adobe Illustrator 25.4.1, SVG Export Plug-In . SVG Version: 6.00 Build 0)  -->
<svg version="1.1" id="Layer_1" xmlns="http://www.w3.org/2000/svg" xmlns:xlink="http://www.w3.org/1999/xlink" x="0px" y="0px"
	 viewBox="0 0 24 24" style="enable-background:new 0 0 24 24;" xml:space="preserve">
<path d="M20.5,4.3L20.5,4.3C20.4,4.2,20.4,4.2,20.5,4.3c-0.2-0.2-0.4-0.4-0.8-0.4c0,0,0,0,0,0c-0.5,0.1-0.8,0.4-1,0.6l0,0
	c0,0,0,0,0,0c0,0-0.1,0.1-0.1,0.1c0,0.1-0.1,0.1-0.1,0.1c0,0,0,0,0,0.1c-1.8-1.7-4.1-2.6-6.5-2.6c-2.5,0-4.9,1-6.7,2.8
	C4.8,4.8,4.4,4.6,3.9,4.6c-0.5,0-1.1,0.3-1.4,0.8c-0.9,1.7-1.4,3.5-1.4,5.3c0,5.2,3.7,9.7,8.8,10.6l0.1,0c0.6,0.1,1.2,0.2,1.8,0.2
	h0.1c5.9,0,10.8-4.8,10.9-10.8C22.9,8.4,22.1,6.2,20.5,4.3z M12.5,19.7c0-0.2,0-0.3,0.1-0.5v-0.4c0-1.3-0.7-3.1-2-4.9
	c1.2-0.9,3.7-2.9,5.2-3.9c1.7-1,2.6-2.3,3.2-3.2l0.1-0.1c0.1-0.2,0.2-0.3,0.3-0.4c0.1-0.1,0.1-0.2,0.2-0.4c0.1-0.1,0.1-0.1,0.1-0.2
	c0,0,0,0,0-0.1c1.1,1.4,1.6,3,1.6,5.1c0,4-2.5,7.5-6.3,8.8c-0.2,0-1.4,0.3-1.7,0.4c-0.3,0.1-0.6,0.1-0.9,0.1
	C12.4,20,12.5,19.9,12.5,19.7z M15.1,8.7L15.1,8.7c-0.8,0.5-1.8,1.2-3,2.1c0-0.4-0.1-0.8-0.2-1.2c0-0.2-0.1-0.4-0.1-0.6
	c0-0.3-0.1-0.5-0.2-0.8c-0.1-0.4-0.2-0.8-0.2-1.1V6.8c0-1.4,1.5-2.3,2.3-2.6c1.4,0.3,2.8,1,3.9,2.1C17.1,7,16.3,8,15.1,8.7z
	 M10.2,6.8L10.2,6.8l0,0.4l0,0.2c0.1,0.6,0.2,1.4,0.4,1.9c0.2,0.7,0.3,1.4,0.3,2v0.4l0,0c-0.4,0.4-0.9,0.7-1.2,0.9
	c-0.1-0.1-0.1-0.1-0.2-0.2c-0.1-0.1-0.1-0.1-0.2-0.2l0,0c-1.8-2-2.1-2.4-2.7-4.3c-0.1-0.5-0.3-1-0.5-1.3c0-0.1-0.1-0.1-0.1-0.1
	C7.6,4.9,9.7,4,11.8,4C10.8,4.7,10.3,5.7,10.2,6.8z M9.3,19.6L9.3,19.6c-3.9-1.2-6.6-4.7-6.6-8.8c0-1.6,0.4-3.2,1.2-4.6l0,0V6.1
	C4,6.2,4.2,6.3,4.4,6.6C4.7,7,5,7.6,5.2,8.3c0.6,2.1,1.1,2.8,3,4.9C9.8,15,11,17.6,11,18.7l0,0.2c0,0.2-0.1,0.4-0.1,0.6
	c-0.1,0.3-0.1,0.5-0.1,0.6v0c-0.1,0-0.2,0-0.3,0c-0.1,0-0.3-0.1-0.4-0.1c-0.2,0-0.4-0.1-0.6-0.2l-0.1-0.1h0.3L9.3,19.6z"/>
</svg>
