<?xml version="1.0" encoding="utf-8"?>
<!-- Generator: Adobe Illustrator 25.4.1, SVG Export Plug-In . SVG Version: 6.00 Build 0)  -->
<svg version="1.1" id="Layer_1" xmlns="http://www.w3.org/2000/svg" xmlns:xlink="http://www.w3.org/1999/xlink" x="0px" y="0px"
	 viewBox="0 0 24 24" style="enable-background:new 0 0 24 24;" xml:space="preserve">
<path d="M19.5,4.9h-0.2L19.1,3c-0.1-0.3-0.3-0.4-0.6-0.4H5.4C5.2,2.6,4.9,2.7,4.9,3L4.6,4.9H4.5c-0.3,0-0.6,0.3-0.6,0.6v2.3
	c0,0.3,0.3,0.6,0.6,0.6h0.8l1.3,13.9c0,0.3,0.3,0.5,0.6,0.5c0,0,0,0,0,0h9.8c0,0,0,0,0,0c0.3,0,0.5-0.2,0.6-0.5l1.3-13.9h0.8
	c0.3,0,0.6-0.3,0.6-0.6V5.4C20.1,5.1,19.9,4.9,19.5,4.9z M16.7,18.2l-0.3,3.4H7.6l-0.3-3.4H16.7z M12,12.8l-0.9-0.9
	c-0.1-0.1-0.3-0.2-0.4-0.2h-4L6.4,8.3h11.2l-0.3,3.4h-4c-0.2,0-0.3,0.1-0.4,0.2L12,12.8z M10.4,12.9l1.1,1.1c0.2,0.2,0.6,0.2,0.8,0
	l1.1-1.1h3.6L16.8,17H7.2l-0.4-4.1H10.4z M5.8,4.9l0.1-1.1h12.2l0.1,1.1H5.8z M19,6v1.1H5V6H19z"/>
</svg>
