<?xml version="1.0" encoding="utf-8"?>
<!-- Generator: Adobe Illustrator 25.4.1, SVG Export Plug-In . SVG Version: 6.00 Build 0)  -->
<svg version="1.1" id="Layer_1" xmlns="http://www.w3.org/2000/svg" xmlns:xlink="http://www.w3.org/1999/xlink" x="0px" y="0px"
	 viewBox="0 0 24 24" style="enable-background:new 0 0 24 24;" xml:space="preserve">
<g>
	<path d="M12,0.9C5.9,0.9,0.9,5.9,0.9,12c0,6.1,5,11.1,11.1,11.1c6.1,0,11.1-5,11.1-11.1C23.1,5.9,18.1,0.9,12,0.9z M12,21.3
		c-5.1,0-9.3-4.2-9.3-9.3S6.9,2.7,12,2.7s9.3,4.2,9.3,9.3S17.1,21.3,12,21.3z"/>
	<path d="M19.9,11.2c-0.2-0.8-0.6-1.6-1.4-2.2v0c0-1.9-1.5-3.4-3.4-3.4h0c-0.3-0.4-0.6-0.7-1-1c-0.9-0.5-1.9-0.7-3-0.5
		c-0.9,0.3-1.7,0.9-2.2,1.6C7,5.6,5.5,7.1,5.5,9v0c-0.4,0.3-0.7,0.6-1,1c-1,1.7-0.6,4,1,5.1c0,1.9,1.5,3.4,3.4,3.4
		c0.7,1,1.8,1.5,3.1,1.5c1.2,0,2.3-0.6,3.1-1.5h0c1.9,0,3.4-1.5,3.4-3.4v0c0.4-0.3,0.7-0.6,1-1C19.8,13.4,20.1,12.3,19.9,11.2z
		 M16.8,14.7l0,0.6c-0.1,0.5-0.4,0.9-0.8,1.2c-0.4,0.3-0.8,0.3-1.2,0.2c-0.5,0-0.7,0.2-0.8,0.4c-0.2,0.4-0.5,0.6-0.8,0.8
		c-0.5,0.3-1.1,0.4-1.7,0.2c-0.6-0.2-1.1-0.5-1.3-1.1L10.1,17l0,0C10,17,9.9,17,9.8,16.9c-0.2-0.1-0.4-0.1-0.5-0.1H9.2l-0.6,0
		c-0.5-0.1-0.9-0.4-1.2-0.7c-0.3-0.3-0.4-0.8-0.3-1.3c0-0.3-0.1-0.6-0.4-0.8c-0.4-0.2-0.6-0.5-0.8-0.8c-0.3-0.6-0.4-1.2-0.2-1.7
		c0.2-0.6,0.6-1.1,1.1-1.4l0,0l0,0C7,10,7,9.9,7,9.9c0.1-0.2,0.2-0.4,0.2-0.7l0-0.5c0.1-0.5,0.4-0.9,0.7-1.2
		c0.3-0.3,0.8-0.4,1.3-0.3c0.3,0,0.6-0.1,0.8-0.4c0.2-0.4,0.5-0.6,0.8-0.8c0.6-0.3,1.2-0.4,1.7-0.2c0.6,0.2,1.1,0.6,1.4,1.1
		c0.1,0.3,0.5,0.4,0.8,0.4l0.6,0c0.5,0.1,0.9,0.4,1.2,0.8c0.2,0.4,0.3,0.8,0.2,1.2c0,0.3,0.1,0.6,0.4,0.8c0.4,0.2,0.6,0.5,0.8,0.8
		c0.3,0.6,0.4,1.2,0.2,1.8l0,0c0,0.5-0.3,0.9-0.9,1.2C16.9,14.1,16.8,14.4,16.8,14.7z"/>
	<path d="M12,7.5c-2.5,0-4.5,2-4.5,4.5s2,4.5,4.5,4.5s4.5-2,4.5-4.5S14.5,7.5,12,7.5z M12,14.7c-1.5,0-2.7-1.2-2.7-2.7
		c0-1.5,1.2-2.7,2.7-2.7c1.5,0,2.7,1.2,2.7,2.7C14.7,13.5,13.5,14.7,12,14.7z"/>
</g>
</svg>
