<?xml version="1.0" encoding="utf-8"?>
<!-- Generator: Adobe Illustrator 25.4.1, SVG Export Plug-In . SVG Version: 6.00 Build 0)  -->
<svg version="1.1" id="Layer_1" xmlns="http://www.w3.org/2000/svg" xmlns:xlink="http://www.w3.org/1999/xlink" x="0px" y="0px"
	 viewBox="0 0 24 24" style="enable-background:new 0 0 24 24;" xml:space="preserve">
<path d="M20.4,5.6L20.4,5.6c-0.2-0.3-0.5-0.7-0.9-0.7h-5.8V1.8c0-0.4-0.4-0.7-0.7-0.7h-2c-0.4,0-0.7,0.4-0.7,0.7v3.1H4.5
	C4,4.9,3.8,5.2,3.8,5.6v2.1c0,0.4,0.4,0.7,0.7,0.7h0.7l1.3,13.8c0,0.4,0.4,0.6,0.7,0.6H17c0.3,0,0.6-0.2,0.7-0.6L19,8.4h0.7
	c0.4,0,0.7-0.4,0.7-0.7L20.4,5.6L20.4,5.6z M8.4,13.4c0.2,0.2,0.6,0.2,1,0c0.2-0.2,0.6-0.4,1-0.4c0.4,0,0.8,0.2,1.1,0.5
	c0.2,0.2,0.7,0.2,1,0c0.3-0.3,0.7-0.5,1.1-0.5c0.4,0,0.8,0.1,1,0.4c0.2,0.2,0.6,0.2,0.9,0c0.4-0.3,1-0.5,1.5-0.3l-0.8,8.4H7.7
	l-0.8-8.4C7.5,12.9,8,13.1,8.4,13.4z M15.1,12.1c-0.5-0.3-1.1-0.4-1.5-0.4c-0.6,0-1.2,0.2-1.6,0.5c-0.5-0.3-1.1-0.5-1.6-0.5
	c-0.6,0-1,0.1-1.5,0.4c-0.7-0.4-1.3-0.5-2.1-0.3L6.5,8.4h10.9l-0.3,3.2C16.5,11.6,15.7,11.7,15.1,12.1z M11.7,4.9V2.5h0.7v2.4H11.7z
	 M18.9,6.3v0.8H5.1V6.3H18.9z"/>
</svg>
