<?xml version="1.0" encoding="utf-8"?>
<!-- Generator: Adobe Illustrator 25.4.1, SVG Export Plug-In . SVG Version: 6.00 Build 0)  -->
<svg version="1.1" id="Layer_1" xmlns="http://www.w3.org/2000/svg" xmlns:xlink="http://www.w3.org/1999/xlink" x="0px" y="0px"
	 viewBox="0 0 24 24" style="enable-background:new 0 0 24 24;" xml:space="preserve">
<path d="M20.9,1.9c-0.1-0.4-0.6-0.5-0.9-0.4l-4.2,1.8c-0.2,0.1-0.3,0.3-0.4,0.5L15,5h-3.8c-0.6-1.6-2.2-2.8-3.9-2.8
	C5,2.2,3.1,4.1,3.1,6.4c0,2.2,1.7,4,3.8,4.2l0.7,11.3c0,0.4,0.3,0.7,0.7,0.7h8.4c0.4,0,0.7-0.3,0.7-0.7l1.1-16.1
	c0-0.2-0.1-0.4-0.2-0.5C18.2,5.1,18,5,17.8,5h-1.3l0.1-0.5l3.9-1.6C20.8,2.7,21,2.3,20.9,1.9z M4.5,6.4c0-1.5,1.3-2.8,2.8-2.8
	c1,0,1.9,0.6,2.4,1.4H7.3C7.1,5,6.9,5.1,6.8,5.2C6.6,5.4,6.6,5.6,6.6,5.7l0.2,3.4C5.5,8.9,4.5,7.8,4.5,6.4z M9,21.1l-0.3-4.7
	c0.6,0.3,1.5,0.5,2.5,0.5c0,0,0,0,0,0c1.2,0,1.9-0.6,2.3-1c0.3-0.2,0.4-0.4,0.6-0.4c0.9-0.2,1.8,0.1,2.2,0.2l-0.4,5.4H9z M16.5,14.3
	c-0.6-0.2-1.6-0.3-2.5-0.2c-0.6,0.1-1,0.5-1.3,0.8c-0.4,0.4-0.7,0.6-1.4,0.6c0,0,0,0,0,0c-1.3,0-2.3-0.5-2.6-0.7L8,6.4h9L16.5,14.3z
	"/>
</svg>
