<?xml version="1.0" encoding="utf-8"?>
<!-- Generator: Adobe Illustrator 25.4.1, SVG Export Plug-In . SVG Version: 6.00 Build 0)  -->
<svg version="1.1" id="Layer_1" xmlns="http://www.w3.org/2000/svg" xmlns:xlink="http://www.w3.org/1999/xlink" x="0px" y="0px"
	 viewBox="0 0 24 24" style="enable-background:new 0 0 24 24;" xml:space="preserve">
<path d="M20.9,10.9c0-2.1-1.7-3.8-3.8-3.8c-0.9,0-1.7,0.3-2.4,0.9c-0.2-0.2-0.5-0.4-0.8-0.6c0,0-0.8-0.4-1.4-0.4
	c-0.1-0.4-0.1-0.8-0.1-0.8c-0.1-2.4-0.8-3.9-2.1-4.8c-0.2-0.1-0.3-0.1-0.5-0.1c-0.2,0-0.3,0.2-0.4,0.3C9.2,1.7,9.2,1.9,9.2,2.1
	c0,0.2,0.2,0.3,0.3,0.4c0.4,0.2,0.7,0.7,1,1.4l0.2,0.6C11,5.6,11,6.6,11,6.9c0,0,0,0.1,0,0.1c-0.6,0.2-1.1,0.4-1.5,0.8
	c-0.7-0.6-1.6-1-2.5-1c-2.1,0-3.8,1.7-3.8,3.8c0,1.3,0.7,2.6,1.9,3.3c-0.2,0.4-0.2,0.9-0.2,1.3c0,1.9,1.4,3.5,3.2,3.7
	c0,2.1,1.7,3.8,3.8,3.8c2.1,0,3.8-1.7,3.8-3.8c0,0,0,0,0,0c1.7-0.4,3-1.9,3-3.7c0-0.3,0-0.6-0.1-0.9C19.9,13.8,20.9,12.4,20.9,10.9z
	 M15.3,12.5c0.3-0.6,0.5-1.2,0.5-1.9c0-0.5-0.1-1.1-0.3-1.6c0.4-0.4,1-0.6,1.6-0.6c1.3,0,2.4,1.1,2.4,2.4c0,1.3-1.1,2.4-2.4,2.4
	C16.4,13.3,15.8,13,15.3,12.5z M9.4,18.9c0.9-0.2,1.8-0.8,2.3-1.6c0.6,0.9,1.5,1.4,2.5,1.6c0,1.3-1.1,2.4-2.4,2.4
	C10.4,21.4,9.4,20.3,9.4,18.9C9.4,19,9.4,18.9,9.4,18.9z M6.3,14.4c1.2,0.2,2.3-0.2,3.2-0.9c0.4,0.3,0.8,0.6,1.3,0.8
	c0.2,0.3,0.2,0.7,0.2,1c0,1.3-1.1,2.4-2.4,2.4c-1.3,0-2.4-1.1-2.4-2.4C6.1,14.9,6.2,14.7,6.3,14.4z M12,13.1c-1.3,0-2.4-1.1-2.4-2.4
	c0-1.2,0.8-2.2,2-2.4c0,0,0.1,0,0.3,0l0.2,0c1.3,0,2.4,1.1,2.4,2.4C14.4,12,13.3,13.1,12,13.1z M12.5,14.4c0.7-0.1,1.3-0.4,1.9-0.8
	c0.7,0.7,1.7,1.1,2.7,1.1c0,0.2,0.1,0.4,0.1,0.6c0,1.3-1.1,2.4-2.4,2.4c-1.3,0-2.4-1.1-2.4-2.4C12.4,14.9,12.4,14.7,12.5,14.4z
	 M8.2,10.7c0,0.6,0.1,1.2,0.4,1.7c-0.5,0.4-1.1,0.7-1.7,0.7c-1.3,0-2.4-1.1-2.4-2.4c0-1.3,1.1-2.4,2.4-2.4c0.6,0,1.2,0.3,1.7,0.7
	C8.4,9.5,8.2,10.1,8.2,10.7z"/>
</svg>
