<?xml version="1.0" encoding="utf-8"?>
<!-- Generator: Adobe Illustrator 25.4.1, SVG Export Plug-In . SVG Version: 6.00 Build 0)  -->
<svg version="1.1" id="Layer_1" xmlns="http://www.w3.org/2000/svg" xmlns:xlink="http://www.w3.org/1999/xlink" x="0px" y="0px"
	 viewBox="0 0 24 24" style="enable-background:new 0 0 24 24;" xml:space="preserve">
<g id="Layer_5">
	<path d="M22.7,17.9L12.5,1.2l0,0c-0.3-0.2-0.7-0.2-1.1,0l-0.1,0.1l-10,16.6C1.1,18.3,1,18.7,1.1,19c0.1,0.3,0.3,0.6,0.6,0.8
		c3,2,6.7,3.1,10.3,3.1c3.6,0,7.3-1.1,10.3-3.1c0.3-0.2,0.5-0.5,0.6-0.8C23,18.6,22.9,18.2,22.7,17.9z M21.3,18.7
		c-5.7,3.7-13.1,3.7-18.8,0l1.1-1.9c0.5,0.4,3,2.2,8.2,2.2c0,0,0,0,0.1,0c5.1,0,7.9-1.8,8.5-2.2L21.3,18.7z M12,5.7
		c0.4,0.2,1,0.2,1.5,0.1l6.1,9.8c-0.6,0.3-3.5,1.9-7.7,1.9c-4.3,0-7-1.9-7.5-2.2l5.9-9.6C10.9,5.9,11.5,5.8,12,5.7z M12,4.1
		c0,0-0.1,0-0.6,0.2l0.6-1l0.5,0.9C12.1,4.1,12,4.1,12,4.1z"/>
	<g>
		<path d="M9.4,12.4c-0.7,0-1.4-0.6-1.4-1.4c0-0.7,0.6-1.4,1.4-1.4c0.7,0,1.4,0.6,1.4,1.4C10.7,11.8,10.1,12.4,9.4,12.4z M9.4,10.5
			c-0.3,0-0.6,0.3-0.6,0.6c0,0.3,0.3,0.6,0.6,0.6c0.3,0,0.6-0.3,0.6-0.6C10,10.8,9.7,10.5,9.4,10.5z"/>
	</g>
	<g>
		<path d="M14.1,12.4c-0.7,0-1.4-0.6-1.4-1.4c0-0.7,0.6-1.4,1.4-1.4s1.4,0.6,1.4,1.4C15.5,11.8,14.8,12.4,14.1,12.4z M14.1,10.5
			c-0.3,0-0.6,0.3-0.6,0.6c0,0.3,0.3,0.6,0.6,0.6s0.6-0.3,0.6-0.6C14.7,10.8,14.4,10.5,14.1,10.5z"/>
	</g>
	<g>
		<path d="M12,9.5c-0.7,0-1.4-0.6-1.4-1.4s0.6-1.4,1.4-1.4c0.7,0,1.4,0.6,1.4,1.4S12.7,9.5,12,9.5z M12,7.5c-0.3,0-0.6,0.3-0.6,0.6
			s0.3,0.6,0.6,0.6s0.6-0.3,0.6-0.6S12.3,7.5,12,7.5z"/>
	</g>
	<g>
		<path d="M12,16c-0.7,0-1.4-0.6-1.4-1.4s0.6-1.4,1.4-1.4c0.7,0,1.4,0.6,1.4,1.4S12.7,16,12,16z M12,14c-0.3,0-0.6,0.3-0.6,0.6
			s0.3,0.6,0.6,0.6s0.6-0.3,0.6-0.6S12.3,14,12,14z"/>
	</g>
	<g>
		<path d="M16.2,15.7c-0.7,0-1.4-0.6-1.4-1.4s0.6-1.4,1.4-1.4c0.7,0,1.4,0.6,1.4,1.4S17,15.7,16.2,15.7z M16.2,13.7
			c-0.3,0-0.6,0.3-0.6,0.6s0.3,0.6,0.6,0.6s0.6-0.3,0.6-0.6S16.6,13.7,16.2,13.7z"/>
	</g>
	<g>
		<path d="M7.5,15.7c-0.7,0-1.4-0.6-1.4-1.4S6.8,13,7.5,13s1.4,0.6,1.4,1.4S8.3,15.7,7.5,15.7z M7.5,13.7c-0.3,0-0.6,0.3-0.6,0.6
			s0.3,0.6,0.6,0.6s0.6-0.3,0.6-0.6S7.9,13.7,7.5,13.7z"/>
	</g>
</g>
</svg>
