<?xml version="1.0" encoding="utf-8"?>
<!-- Generator: Adobe Illustrator 25.4.1, SVG Export Plug-In . SVG Version: 6.00 Build 0)  -->
<svg version="1.1" id="Layer_1" xmlns="http://www.w3.org/2000/svg" xmlns:xlink="http://www.w3.org/1999/xlink" x="0px" y="0px"
	 viewBox="0 0 24 24" style="enable-background:new 0 0 24 24;" xml:space="preserve">
<path d="M19,5.5h-1.1v-3c0-0.4-0.3-0.8-0.8-0.8H1.5c-0.4,0-0.8,0.3-0.8,0.8v14.7c0,3,2.4,5.4,5.4,5.4h6.3c2.5,0,4.7-1.8,5.2-4.1H19
	c2.3,0,4.2-1.9,4.2-4.2V9.7C23.2,7.4,21.3,5.5,19,5.5z M6.9,8.4l1.6,1.1v2.6H5.2V9.5L6.9,8.4z M12.5,21.1H6.2
	c-2.2,0-3.9-1.8-3.9-3.9V3.3h3.9v3.8L4,8.5C3.8,8.6,3.7,8.9,3.7,9.1v3.7c0,0.4,0.3,0.8,0.8,0.8h4.9c0.4,0,0.8-0.3,0.8-0.8V9.1
	c0-0.2-0.1-0.5-0.3-0.6L7.6,7V3.3h8.8v3v11C16.4,19.4,14.6,21.1,12.5,21.1z M21.8,14.3c0,1.5-1.2,2.8-2.8,2.8h-1.1V7H19
	c1.5,0,2.8,1.2,2.8,2.8V14.3z"/>
</svg>
